<svg width="50" height="19" viewBox="0 0 50 19" fill="none" xmlns="http://www.w3.org/2000/svg">
<path d="M6.59849 0V18.2297H8.7313V5.04531C8.74895 4.21109 8.71346 3.37659 8.62505 2.54688H8.7063C8.86099 2.94531 9.0563 3.32813 9.28443 3.68594L18.6594 18.2203H21.2719V0H19.1485V12.8172C19.1235 13.7125 19.1735 14.6078 19.2782 15.4953H19.2297C18.9962 15.0806 18.7492 14.6736 18.4891 14.275L9.36568 0.00156313L6.59849 0ZM26.0001 0V18.2297H35.6922L35.7001 16.2281H28.1797V9.90469H34.7641V7.98438H28.1797V1.92969H35.2438V0.00156313L26.0001 0ZM37.3282 0V1.92813H42.5688V18.2281H44.7016V1.92813H50.0001V0H37.3282ZM1.35787 15.625C1.1785 15.6297 1.00189 15.6703 0.838459 15.7444C0.675029 15.8184 0.528087 15.9245 0.406303 16.0562C0.144332 16.3236 -0.00164251 16.6835 5.34867e-05 17.0578C-0.00238868 17.338 0.0788507 17.6126 0.233372 17.8464C0.387893 18.0801 0.608664 18.2625 0.867424 18.37C1.12618 18.4776 1.41116 18.5055 1.68586 18.4502C1.96057 18.3948 2.21251 18.2587 2.40943 18.0594C2.67818 17.7984 2.83287 17.4328 2.83287 17.0578C2.83287 16.6828 2.67818 16.3172 2.40943 16.0562C2.28095 15.9196 2.12574 15.8108 1.95345 15.7366C1.78115 15.6624 1.59545 15.6244 1.40787 15.625H1.35943H1.35787Z" fill="white"/>
</svg>
