<svg width="50" height="50" viewBox="0 0 50 50" fill="none" xmlns="http://www.w3.org/2000/svg">
<path fill-rule="evenodd" clip-rule="evenodd" d="M10.3854 4.1665C7.53125 4.1665 5.42083 6.66442 5.51667 9.37067C5.60625 11.9748 5.48958 15.3436 4.64167 18.0915C3.7875 20.8457 2.35 22.5915 0 22.8165V25.3478C2.35 25.5707 3.78958 27.3165 4.63958 30.0728C5.48958 32.8207 5.60625 36.1894 5.51458 38.7915C5.42083 41.4998 7.53125 43.9978 10.3854 43.9978H39.6187C42.4729 43.9978 44.5833 41.4998 44.4875 38.7915C44.3979 36.1894 44.5146 32.8207 45.3625 30.0728C46.2146 27.3165 47.65 25.5728 50 25.3478V22.8165C47.65 22.5915 46.2146 20.8457 45.3625 18.0915C44.5146 15.3415 44.3979 11.9728 44.4875 9.37067C44.5833 6.66234 42.4708 4.1665 39.6187 4.1665H10.3854ZM33.8958 28.6853C33.8958 32.4144 31.1146 34.6748 26.5 34.6748H18.6438C18.4189 34.6748 18.2032 34.5855 18.0442 34.4265C17.8852 34.2675 17.7958 34.0518 17.7958 33.8269V14.3353C17.7964 14.1107 17.886 13.8956 18.0449 13.737C18.2039 13.5785 18.4192 13.4894 18.6438 13.4894H26.4562C30.3042 13.4894 32.8312 15.5728 32.8312 18.7748C32.8312 21.0207 31.1312 23.0311 28.9667 23.3853V23.5019C31.9146 23.8248 33.8958 25.8665 33.8958 28.6853ZM25.6458 16.1748H21.1667V22.504H24.9396C27.8562 22.504 29.4646 21.329 29.4646 19.229C29.4646 17.2623 28.0812 16.1748 25.6458 16.1748ZM21.1667 25.0144V31.9873H25.8125C28.8479 31.9873 30.4583 30.7686 30.4583 28.479C30.4583 26.1873 28.8042 25.0144 25.6167 25.0144H21.1667Z" fill="white"/>
</svg>
