<svg width="50" height="50" viewBox="0 0 50 50" fill="none" xmlns="http://www.w3.org/2000/svg">
<path d="M25 1.96501L27.0753 0.867054C26.8118 0.700622 26.4912 0.567705 26.1339 0.476768C25.7766 0.385831 25.3904 0.338867 25 0.338867C24.6096 0.338867 24.2234 0.385831 23.8661 0.476768C23.5088 0.567705 23.1882 0.700622 22.9247 0.867054L25 1.96501ZM25 44.194L22.7898 45.1978C23.0529 45.391 23.3886 45.5472 23.7714 45.6546C24.1543 45.762 24.5744 45.8178 25 45.8178C25.4256 45.8178 25.8457 45.762 26.2286 45.6546C26.6114 45.5472 26.9471 45.391 27.2102 45.1978L25 44.194ZM8.81972 32.2984L6.60948 33.3054L8.81972 32.2984ZM10.2032 11.2911L8.12796 10.1899L10.2032 11.2846V11.2911ZM39.7968 11.2911L41.872 10.1932L39.7968 11.2879V11.2911ZM41.1803 32.2984L43.3905 33.3054L41.1803 32.2984ZM27.812 49.0666V1.96501H22.188V49.0666H27.812ZM27.2102 43.1903L11.03 31.2979L6.60948 33.3054L22.7898 45.201L27.2102 43.1935V43.1903ZM12.2729 12.3858L27.0809 3.06296L22.9191 0.867054L8.12796 10.1899L12.2672 12.3858H12.2729ZM22.9247 3.06296L37.7271 12.3858L41.872 10.1932L27.0753 0.870302L22.9191 3.05971L22.9247 3.06296ZM38.97 31.2947L22.7898 43.1903L27.2102 45.1978L43.3905 33.3022L38.97 31.2947ZM37.7271 12.3891C41.7795 14.9443 44.1285 18.2479 44.3552 21.7107C44.5818 25.1734 42.6713 28.5701 38.9644 31.2947L43.3905 33.3022C47.9213 29.9715 50.2559 25.8194 49.9777 21.5866C49.6996 17.3539 46.8268 13.3159 41.872 10.1932L37.7271 12.3858V12.3891ZM11.03 31.2947C7.32386 28.5697 5.41432 25.1728 5.64197 21.7101C5.86962 18.2473 8.21965 14.9439 12.2729 12.3891L8.12796 10.1899C3.17315 13.3127 0.3004 17.3507 0.0222691 21.5834C-0.255862 25.8161 2.07872 29.9682 6.60948 33.2989L11.03 31.2914V31.2947Z" fill="white"/>
</svg>
