<svg width="50" height="50" viewBox="0 0 50 50" fill="none" xmlns="http://www.w3.org/2000/svg">
<g clip-path="url(#clip0_76_188)">
<path d="M12.7062 12.3291C5.7 12.3291 0 18.0124 0 24.9999C0 31.9874 5.7 37.6729 12.7062 37.6729H37.2917C44.3 37.6729 50 31.9854 50 24.9999C50 18.0145 44.3 12.3291 37.2937 12.3291H12.7062ZM12.4521 16.3541C13.4792 16.3791 14.5771 16.8749 15.1042 17.652C15.8708 18.6083 16.1 19.8749 16.9688 20.7624C18.1354 22.0374 19.4667 23.1583 20.5437 24.5166C21.5646 25.7562 22.2917 27.2124 22.9271 28.6791C23.1854 29.1645 23.1875 29.7624 23.5729 30.1791C23.7604 30.4291 24.6854 31.1124 24.4854 31.3541C24.6 31.6041 25.4646 31.9499 25.1646 32.1916C24.7604 32.2749 24.3042 32.2916 23.9937 31.9687C23.8812 32.2312 23.6146 32.0937 23.4083 32.0583L23.3563 32.2124C22.6688 32.2583 22.1562 31.5604 21.8312 31.0354C21.1833 30.6854 20.4458 30.4729 19.7854 30.1062C19.7458 30.7104 19.8792 31.4562 19.3042 31.8458C19.275 33.0062 21.0604 31.9833 21.225 32.8458C21.0979 32.8603 20.9562 32.827 20.8542 32.9249C20.3896 33.377 19.8542 32.5812 19.3167 32.9104C18.5958 33.2729 18.525 33.5687 17.6292 33.6437C17.5812 33.5687 17.6 33.5187 17.6417 33.4749C17.8917 33.1833 17.9125 32.8395 18.3417 32.7145C17.9 32.6458 17.5292 32.8895 17.1562 33.0812C16.6729 33.2791 16.6771 32.6354 15.9312 33.1166C15.8479 33.0479 15.8896 32.9874 15.9354 32.9354C16.125 32.7062 16.3729 32.6708 16.6542 32.6854C15.2729 31.9145 14.6229 33.6229 13.9854 32.7749C13.7937 32.8249 13.7208 32.9958 13.6 33.1187C13.4958 33.0041 13.575 32.8666 13.5792 32.7312C13.4542 32.6729 13.2979 32.6458 13.3354 32.4458C13.0917 32.3624 12.9187 32.5083 12.7396 32.6458C12.5729 32.5187 12.85 32.3333 12.9 32.202C13.0458 31.9499 13.3792 32.1499 13.5479 31.9687C14.0271 31.6958 14.6979 32.1354 15.2479 32.0624C15.6708 32.1166 16.1937 31.6833 15.9812 31.2499C15.5292 30.6729 15.6083 29.9187 15.6 29.2291C15.5437 28.8291 14.5771 28.3166 14.2958 27.8833C13.95 27.4937 13.6812 27.0416 13.4125 26.5958C12.4396 24.7208 12.7458 22.3083 11.5208 20.5645C10.9667 20.8708 10.2458 20.727 9.76875 20.3166C9.51042 20.552 9.49792 20.8583 9.47708 21.1854C8.86042 20.5666 8.9375 19.402 9.43333 18.7145C9.63333 18.4437 9.875 18.2208 10.1458 18.0229C10.2062 17.9812 10.2271 17.9374 10.225 17.8687C10.4687 16.7708 11.4229 16.327 12.4521 16.3541ZM38.3021 17.3124C39.4625 17.3124 40.5521 17.7624 41.3708 18.5791C42.1896 19.3958 42.6417 20.4853 42.6417 21.6416C42.6435 22.2108 42.5321 22.7748 42.3139 23.3005C42.0958 23.8263 41.7752 24.3034 41.3708 24.7041V24.7062L39.4917 26.5812C38.99 27.079 38.3753 27.4478 37.7 27.6562L37.6667 27.6666L37.6563 27.6999C37.44 28.2725 37.1032 28.7918 36.6687 29.2229L34.7896 31.0979C33.9687 31.9145 32.8792 32.3645 31.7167 32.3645C30.5542 32.3645 29.4667 31.9145 28.6458 31.0979C28.2432 30.6959 27.9238 30.2186 27.7058 29.6931C27.4879 29.1676 27.3757 28.6043 27.3757 28.0354C27.3757 27.4664 27.4879 26.9031 27.7058 26.3776C27.9238 25.8521 28.2432 25.3748 28.6458 24.9729L30.525 23.0979C31.0238 22.5995 31.6377 22.2317 32.3125 22.027L32.3479 22.0145L32.3604 21.9812C32.5796 21.4084 32.9168 20.8881 33.35 20.4541L35.2292 18.5791C35.6319 18.1754 36.1106 17.8557 36.6377 17.6382C37.1648 17.4208 37.7319 17.3101 38.3021 17.3124ZM38.3 19.1812C37.9751 19.1797 37.6532 19.2427 37.3528 19.3664C37.0525 19.4902 36.7796 19.6722 36.55 19.902L34.6729 21.777C34.4221 22.0274 34.2284 22.3291 34.105 22.6613C33.9817 22.9936 33.9316 23.3486 33.9583 23.702L33.9687 23.8229C34.0375 24.3749 34.2812 24.8729 34.6729 25.2624C34.9437 25.5333 35.2417 25.7041 35.6042 25.8229C35.6226 25.9316 35.6323 26.0417 35.6333 26.152C35.6349 26.3958 35.5877 26.6375 35.4947 26.8628C35.4017 27.0882 35.2647 27.2928 35.0917 27.4645L34.975 27.5812C34.362 27.3809 33.8051 27.0382 33.35 26.5812C32.7253 25.9611 32.3064 25.164 32.15 24.2979L32.1292 24.177L32.0333 24.2541C31.9697 24.306 31.9092 24.3617 31.8521 24.4208L29.9708 26.2937C29.625 26.6385 29.3896 27.0783 29.2943 27.5572C29.1991 28.0361 29.2484 28.5325 29.436 28.9834C29.6235 29.4342 29.9409 29.8191 30.3478 30.0891C30.7546 30.3592 31.2325 30.5022 31.7208 30.4999C32.3542 30.4999 32.9854 30.2583 33.4667 29.7791L35.3458 27.9041C35.5754 27.6757 35.7576 27.4041 35.882 27.105C36.0063 26.806 36.0703 26.4853 36.0703 26.1614C36.0703 25.8375 36.0063 25.5168 35.882 25.2177C35.7576 24.9187 35.5754 24.6471 35.3458 24.4187C35.0881 24.1642 34.7782 23.9687 34.4375 23.8458C34.4189 23.7356 34.4091 23.6241 34.4083 23.5124C34.408 23.2437 34.4612 22.9776 34.565 22.7297C34.6687 22.4818 34.8209 22.2571 35.0125 22.0687C35.7428 22.3141 36.3935 22.7515 36.8964 23.3351C37.3994 23.9187 37.7359 24.6269 37.8708 25.3854L37.8917 25.5062L37.9875 25.427C38.0519 25.3751 38.1131 25.3195 38.1708 25.2604L40.05 23.3874C40.5122 22.9252 40.7718 22.2984 40.7718 21.6447C40.7718 20.9911 40.5122 20.3642 40.05 19.902C39.8204 19.6722 39.5475 19.4902 39.2471 19.3664C38.9468 19.2427 38.6249 19.1797 38.3 19.1812ZM17.5208 29.9249C17.3542 30.5687 17.3021 31.6604 16.4667 31.6916C16.3979 32.0604 16.7229 32.1999 17.0187 32.0812C17.3125 31.9479 17.4521 32.1874 17.5521 32.427C18.0062 32.4937 18.6771 32.2749 18.7021 31.7395C18.025 31.3499 17.8146 30.6083 17.5208 29.9249Z" fill="white"/>
</g>
<defs>
<clipPath id="clip0_76_188">
<rect width="50" height="50" fill="white"/>
</clipPath>
</defs>
</svg>
