<svg width="44" height="44" viewBox="0 0 44 44" fill="none" xmlns="http://www.w3.org/2000/svg">
<path d="M0 0V43.75H43.75V0H0ZM23.4375 33.9844C23.4375 38.2432 20.9219 40.3193 17.2803 40.3193C13.9912 40.3193 12.082 38.6162 11.1133 36.5605L14.4609 34.5342C15.1064 35.6797 15.5967 36.6484 17.0059 36.6484C18.1777 36.6484 19.1406 36.1201 19.1406 34.0645V20.3125H23.4375V33.9844ZM33.1396 40.2217C29.3223 40.2217 26.8555 38.499 25.6514 36.1201L29.0039 34.1797C29.8828 35.6191 31.0303 36.5781 33.0566 36.5781C34.7598 36.5781 35.749 35.8242 35.749 34.6494C35.749 33.2402 34.7305 32.7412 32.8506 31.915L31.8232 31.4736C28.8564 30.2119 26.8896 28.626 26.8896 25.2773C26.8896 22.1943 29.2383 19.9424 32.9092 19.9424C35.5234 19.9424 37.4014 20.7549 38.7539 23.1338L35.5469 25.1953C34.8418 23.9326 34.082 23.4375 32.9043 23.4375C31.7002 23.4375 30.9365 24.2012 30.9365 25.1953C30.9365 26.4287 31.7002 26.9277 33.4619 27.6914L34.4893 28.1318C37.9844 29.6299 39.9521 31.1592 39.9521 34.5928C39.9531 38.2939 37.0459 40.2217 33.1396 40.2217Z" fill="white"/>
</svg>
