<svg width="50" height="50" viewBox="0 0 50 50" fill="none" xmlns="http://www.w3.org/2000/svg">
<path d="M43.3594 22.3752C44.1168 20.631 44.3886 18.7144 44.1459 16.8284C43.9033 14.9424 43.1552 13.1571 41.981 11.6614C40.8067 10.1657 39.2499 9.01527 37.4754 8.33192C35.7008 7.64857 33.7745 7.4577 31.9004 7.77951C30.7677 6.25424 29.2441 5.06323 27.4906 4.33232C25.737 3.6014 23.8185 3.35771 21.9379 3.627C20.0572 3.89629 18.2843 4.66856 16.8062 5.86222C15.3282 7.05587 14.2001 8.62659 13.541 10.4084C11.6535 10.6268 9.86005 11.351 8.35018 12.5045C6.84031 13.658 5.67009 15.198 4.96321 16.9617C4.25633 18.7254 4.03904 20.6473 4.3343 22.5243C4.62955 24.4013 5.4264 26.1637 6.64061 27.6252C6.03727 29.016 5.74085 30.5205 5.77155 32.0362C5.80225 33.5519 6.15934 35.0432 6.8185 36.4084C7.47766 37.7736 8.42339 38.9807 9.59123 39.9473C10.7591 40.914 12.1216 41.6175 13.5859 42.01C14.4792 42.253 15.4004 42.3784 16.3262 42.383C16.9193 42.383 17.5113 42.3321 18.0957 42.2307C19.2283 43.7559 20.7519 44.947 22.5055 45.6779C24.2591 46.4088 26.1776 46.6525 28.0582 46.3832C29.9388 46.1139 31.7118 45.3416 33.1898 44.148C34.6678 42.9543 35.796 41.3836 36.4551 39.6018C38.3447 39.3852 40.1405 38.6616 41.6525 37.5078C43.1645 36.3539 44.3363 34.8127 45.0438 33.0472C45.7514 31.2818 45.9684 29.3578 45.6719 27.4791C45.3754 25.6004 44.5763 23.8369 43.3594 22.3752ZM35.8144 10.2541C36.8832 10.5403 37.883 11.0398 38.7538 11.7225C39.6245 12.4052 40.3481 13.2569 40.8811 14.2265C41.414 15.1961 41.7453 16.2635 41.8551 17.3645C41.9648 18.4655 41.8507 19.5773 41.5195 20.633C41.201 20.3981 40.8698 20.181 40.5273 19.9826L31.8359 14.9651C31.6578 14.8622 31.4557 14.8081 31.25 14.8081C31.0443 14.8081 30.8422 14.8622 30.6641 14.9651L21.4844 20.2639V15.7541L29.5898 11.0666C30.5222 10.5265 31.5523 10.1765 32.6208 10.0371C33.6892 9.8976 34.7747 9.97137 35.8144 10.2541ZM28.5156 27.0295L25 29.0588L21.4844 27.0295V22.9709L25 20.9416L28.5156 22.9709V27.0295ZM15.2344 14.0627C15.2341 12.4108 15.7327 10.7974 16.6646 9.43348C17.5966 8.06962 18.9187 7.0189 20.4577 6.41885C21.9968 5.81881 23.6811 5.69739 25.2903 6.07051C26.8995 6.44362 28.3586 7.29387 29.4766 8.50998C29.1143 8.66908 28.7609 8.84773 28.418 9.04513L19.7266 14.0627C19.5486 14.1655 19.4008 14.3132 19.2979 14.4911C19.1951 14.669 19.1408 14.8709 19.1406 15.0764V25.676L15.2344 23.4221V14.0627ZM7.64257 16.7834C8.20772 15.7979 8.97257 14.9413 9.88809 14.2686C10.8036 13.596 11.8496 13.122 12.959 12.8772C12.9143 13.2708 12.8915 13.6666 12.8906 14.0627V24.0979C12.8905 24.3037 12.9446 24.5059 13.0474 24.6842C13.1503 24.8625 13.2983 25.0106 13.4766 25.1135L22.6562 30.4123L18.75 32.6682L10.6445 27.9807C8.76277 26.8928 7.38971 25.1026 6.82685 23.0031C6.264 20.9037 6.55738 18.6667 7.64257 16.7834ZM14.1855 39.7463C13.1168 39.4601 12.1169 38.9606 11.2462 38.2779C10.3755 37.5953 9.65189 36.7435 9.11892 35.7739C8.58595 34.8043 8.25463 33.7369 8.14491 32.6359C8.03519 31.5349 8.14933 30.4231 8.48046 29.3674C8.79895 29.6023 9.13019 29.8194 9.47265 30.0178L18.1641 35.0354C18.3422 35.1382 18.5443 35.1924 18.75 35.1924C18.9557 35.1924 19.1578 35.1382 19.3359 35.0354L28.5156 29.7365V34.2463L20.4101 38.9338C19.4778 39.474 18.4476 39.8239 17.3792 39.9634C16.3108 40.1028 15.2253 40.0291 14.1855 39.7463ZM34.7656 35.9377C34.7658 37.5896 34.2673 39.2031 33.3353 40.5669C32.4033 41.9308 31.0813 42.9815 29.5423 43.5816C28.0032 44.1816 26.3188 44.303 24.7096 43.9299C23.1004 43.5568 21.6414 42.7065 20.5234 41.4904C20.8857 41.3313 21.2391 41.1527 21.582 40.9553L30.2734 35.9377C30.4514 35.835 30.5992 35.6872 30.7021 35.5093C30.8049 35.3314 30.8592 35.1295 30.8594 34.924V24.3244L34.7656 26.5783V35.9377ZM42.3574 33.217C41.7923 34.2025 41.0274 35.0591 40.1119 35.7318C39.1964 36.4045 38.1504 36.8784 37.041 37.1233C37.0856 36.7296 37.1085 36.3339 37.1094 35.9377V25.9026C37.1095 25.6967 37.0554 25.4945 36.9526 25.3162C36.8497 25.1379 36.7017 24.9898 36.5234 24.8869L27.3437 19.5881L31.25 17.3322L39.3555 22.0197C41.2372 23.1076 42.6103 24.8978 43.1731 26.9973C43.736 29.0967 43.4426 31.3337 42.3574 33.217Z" fill="white"/>
</svg>
