<svg width="50" height="50" viewBox="0 0 50 50" fill="none" xmlns="http://www.w3.org/2000/svg">
<path d="M47.7547 14.6391L47.5422 14.1594L47.1844 14.5485C46.3367 15.5174 45.2603 16.2591 44.0531 16.7063L43.7172 16.836L43.8563 17.161C44.8918 19.6412 45.423 22.3029 45.4188 24.9907C45.4188 36.2532 36.2625 45.4172 24.9922 45.4172C13.7219 45.4172 4.57344 36.261 4.57344 24.9985C4.57344 13.736 13.7469 4.57193 25 4.57193C28.0609 4.57193 31.0063 5.23287 33.7484 6.54224L34.0734 6.69693L34.2125 6.37818C34.7166 5.19393 35.5076 4.15379 36.5141 3.35162L36.9219 3.0188L36.4578 2.77505C32.9167 0.943572 28.9867 -0.00825848 25 5.39805e-05C11.2141 5.39805e-05 0 11.2141 0 25.0001C0 38.7938 11.2141 50.0001 25 50.0001C38.7938 50.0001 50 38.7938 50 25.0001C50 21.3954 49.2516 17.9126 47.7547 14.6391ZM25 13.6063C21.9791 13.6092 19.0827 14.8105 16.9466 16.9467C14.8105 19.0828 13.6091 21.9791 13.6063 25.0001C13.6091 28.021 14.8105 30.9173 16.9466 33.0535C19.0827 35.1896 21.9791 36.3909 25 36.3938C28.0209 36.3909 30.9173 35.1896 33.0534 33.0535C35.1895 30.9173 36.3909 28.021 36.3937 25.0001C36.3909 21.9791 35.1895 19.0828 33.0534 16.9467C30.9173 14.8105 28.0209 13.6092 25 13.6063ZM46.55 9.42349C46.5504 10.1055 46.4164 10.781 46.1556 11.4112C45.8949 12.0414 45.5125 12.614 45.0303 13.0964C44.5481 13.5787 43.9755 13.9613 43.3454 14.2223C42.7152 14.4832 42.0398 14.6174 41.3578 14.6172C40.6751 14.6183 39.9989 14.4847 39.3679 14.2241C38.7368 13.9636 38.1633 13.5812 37.6802 13.0988C37.1971 12.6164 36.8138 12.0435 36.5523 11.4129C36.2908 10.7822 36.1562 10.1062 36.1562 9.42349C36.1562 2.49849 46.55 2.49849 46.55 9.42349Z" fill="white"/>
</svg>
