<svg width="51" height="54" viewBox="0 0 51 54" fill="none" xmlns="http://www.w3.org/2000/svg">
<path d="M9.12415 5.79754C9.12415 5.79754 8.94174 6.07749 9.11503 6.4919C9.21992 6.7476 9.53914 7.0562 9.89029 7.38244C9.89029 7.38244 13.5728 10.8564 14.0242 11.359C16.065 13.6361 16.952 15.8779 17.034 18.9705C17.0842 20.9544 16.6897 22.7002 15.7275 24.7304C14.0037 28.3653 10.3691 32.3749 4.75991 36.832L5.58077 36.5675C6.11205 36.1862 6.8303 35.7762 8.52675 34.879C12.4327 32.8158 16.8174 30.9157 22.2055 28.9582C29.9557 26.1433 42.7041 22.8391 49.9596 21.7656L50.7144 21.6531L50.6003 21.4768C49.9345 20.4805 49.4831 19.8654 48.9358 19.213C47.3465 17.3107 45.4198 15.7588 43.0598 14.4825C39.8174 12.7257 35.6105 11.3612 30.2909 10.3384C28.6304 10.0366 26.9649 9.76098 25.2951 9.5118C22.3081 9.06895 19.3255 8.59867 16.3477 8.10104C15.3786 7.93572 13.9307 7.70206 12.9708 7.50147C12.2305 7.34942 11.4991 7.15958 10.7795 6.93276C10.1685 6.70131 9.30884 6.47647 9.12415 5.79754ZM11.2584 7.80126C11.2652 7.79685 11.402 7.83873 11.5708 7.89384C11.8809 7.99524 12.2913 8.11427 12.7701 8.24432C13.103 8.3325 13.4701 8.42949 13.8623 8.52427C14.3594 8.64771 14.7721 8.75352 14.7767 8.76013C14.8314 8.81965 15.6682 11.4009 15.9532 12.3906C16.0627 12.7698 16.1448 13.085 16.1379 13.0916C16.0585 12.996 15.9897 12.8926 15.9327 12.783C14.9659 11.1386 13.4314 9.46551 11.6597 8.11868C11.522 8.01764 11.3881 7.91177 11.2584 7.80126ZM15.3399 8.89019C15.4899 8.90404 15.6385 8.92909 15.7845 8.96513C17.1959 9.26492 19.7178 9.73664 21.3367 10.0012C21.608 10.0452 21.8292 10.0893 21.8292 10.1048C21.7632 10.1621 21.6876 10.2083 21.6058 10.2414C21.3344 10.3737 20.2331 11.0107 19.866 11.2488C19.0274 11.7812 18.2413 12.387 17.5174 13.0585C17.3714 13.2033 17.2217 13.3444 17.0682 13.4818C17.0291 13.3836 16.9978 13.2826 16.9748 13.1798C16.5876 11.8372 16.092 10.526 15.4927 9.25831C15.4325 9.13975 15.3784 9.01836 15.3308 8.8946C15.3308 8.89239 15.3308 8.89019 15.3399 8.89019ZM22.5156 10.2084C22.5612 10.2238 22.6524 10.4949 22.8097 11.0989C23.1731 12.5231 23.291 13.9955 23.1586 15.4568L23.1312 15.5406L22.7048 15.4083C21.5237 15.0506 20.3363 14.7126 19.1432 14.3944C18.7121 14.2877 18.286 14.1627 17.8663 14.0196C17.8663 13.9711 18.8901 12.9814 19.3302 12.6045C20.1715 11.8858 22.4357 10.1841 22.5156 10.2084ZM23.0856 10.2877C23.1107 10.2657 26.515 10.8344 28.0609 11.1209C29.2147 11.3348 30.8815 11.672 30.9818 11.7139C31.032 11.7315 30.8587 11.8241 30.3046 12.0666C28.1156 13.0189 26.4922 13.8741 24.8778 14.9168C24.4537 15.1901 24.1003 15.4149 24.0934 15.4149C24.0843 15.4149 24.0797 15.1857 24.0797 14.908C24.0797 13.387 23.7628 11.8506 23.1882 10.5522C23.1456 10.4673 23.1112 10.3788 23.0856 10.2877ZM31.887 11.9718C31.9121 11.9961 31.8004 12.6463 31.7046 13.0299C31.4036 14.2202 30.6056 15.9925 29.6205 17.6567C29.5171 17.8445 29.4013 18.0256 29.274 18.199C29.1006 18.1279 28.9335 18.0431 28.7746 17.9455C27.8124 17.401 26.7225 16.8874 25.5254 16.4091C25.3111 16.3277 25.0997 16.2395 24.8915 16.1446C24.8368 16.0961 27.4977 14.3921 28.9091 13.5743C30.0378 12.9197 31.8551 11.941 31.887 11.9718ZM32.5164 12.0666C32.5916 12.0666 34.1011 12.4634 34.8809 12.6904C36.8259 13.2525 39.0696 14.0439 40.5243 14.6831L41.1285 14.9476L40.7021 15.0424C37.1428 15.836 34.0897 16.7463 31.1528 17.8992C30.9088 17.9962 30.6968 18.0755 30.6808 18.0755C30.7222 17.934 30.7796 17.7972 30.8518 17.6678C31.7365 15.8536 32.3066 13.9491 32.4548 12.3333C32.4685 12.1856 32.4958 12.0666 32.5164 12.0666ZM17.5129 15.3995C17.5357 15.3775 18.6849 15.6376 19.3119 15.8073C20.2536 16.063 22.2579 16.7111 22.2579 16.7618C22.2579 16.7706 22.0367 16.958 21.7677 17.1762C20.6033 18.1226 19.4754 19.11 18.3862 20.1366C18.1608 20.3549 17.9265 20.5645 17.6839 20.7648C17.6679 20.7648 17.6611 20.7141 17.6702 20.6546C17.8595 19.3078 17.8184 17.5796 17.5562 15.8205C17.5303 15.6822 17.5151 15.5422 17.5106 15.4017L17.5129 15.3995ZM41.7054 15.4216C41.7214 15.4392 41.1719 16.2702 40.8298 16.7441C40.3282 17.4363 39.6054 18.3445 37.9546 20.3526L35.7793 23.0022C35.5806 23.2513 35.3761 23.4961 35.1659 23.7362C35.1591 23.7362 35.0519 23.5907 34.931 23.4144C33.999 22.0698 32.87 20.8632 31.5792 19.8324C31.377 19.6686 31.1718 19.5084 30.9636 19.3518C30.902 19.3119 30.8454 19.2653 30.7948 19.213C30.7948 19.1909 32.2017 18.609 33.2757 18.1858C35.3563 17.3773 37.4694 16.6493 39.61 16.0035C40.6178 15.7059 41.6895 15.4083 41.7054 15.4216ZM42.3393 15.5825C42.5055 15.6368 42.664 15.7108 42.8113 15.8029C44.8218 16.9164 46.6814 18.267 48.3475 19.8236C48.7899 20.2424 49.8684 21.3291 49.8525 21.3379L49.0247 21.4019C45.5361 21.6553 41.0761 22.3717 36.7803 23.3703C36.4884 23.4364 36.2376 23.4937 36.2193 23.4937C36.2034 23.4937 36.5226 23.1851 36.9285 22.806C39.4526 20.4628 40.6018 18.9837 41.9562 16.3386C42.1569 15.9462 42.3279 15.6045 42.3347 15.5847H42.3393V15.5825ZM23.8973 17.4121C24.0136 17.4341 25.0899 17.919 25.9016 18.3114C26.6427 18.6707 27.7668 19.2504 27.8238 19.3011C27.8306 19.3078 27.4361 19.5061 26.9436 19.7442C25.4825 20.4456 24.0538 21.2082 22.6615 22.0301C22.2625 22.2659 21.9318 22.4577 21.9204 22.4577C21.8862 22.4577 21.8976 22.4291 22.1211 22.0367C22.8911 20.6483 23.4574 19.163 23.8038 17.6237C23.8358 17.487 23.8723 17.4032 23.8973 17.4098V17.4121ZM22.8143 17.5972C22.8371 17.6193 22.5589 18.6112 22.381 19.1402C21.8992 20.5321 21.2608 21.8686 20.4771 23.1256L20.2719 23.4497L19.809 23.0154C19.3586 22.5717 18.8384 22.1997 18.2676 21.9133C18.1263 21.8516 17.9919 21.7762 17.8663 21.6884C17.8663 21.6223 19.28 20.3813 20.3699 19.4885C21.152 18.8493 22.796 17.5774 22.8143 17.5972ZM29.3994 20.2159L29.803 20.4694C30.731 21.0514 31.8277 21.8339 32.6646 22.5062C33.1343 22.8854 34.0441 23.6745 34.231 23.8641L34.3314 23.9677L33.661 24.1484C30.2333 25.0522 26.8479 26.0995 23.5143 27.2874C23.2736 27.3765 23.0303 27.4589 22.7846 27.5342C22.7367 27.5342 22.6888 27.5761 23.5439 26.8156C25.7329 24.8692 27.6642 22.7244 29.1075 20.6392L29.3994 20.2159ZM27.6687 20.6348C27.6892 20.6546 26.5469 22.1998 25.8697 23.0727C25.0579 24.1154 23.6123 25.8612 22.6182 26.9964C22.3643 27.2957 22.1012 27.5875 21.8292 27.8715C21.8064 27.8781 21.795 27.7613 21.7927 27.5783C21.7927 26.6084 21.5374 25.5724 21.0905 24.6951C20.9012 24.3248 20.8693 24.2366 20.908 24.2013C21.0631 24.0647 23.4778 22.7333 24.9987 21.9463C26.0452 21.4041 27.6505 20.6149 27.6687 20.6348ZM17.2028 23.1146C17.8654 23.4215 18.4871 23.8049 19.0543 24.2564C19.0725 24.2675 18.8559 24.4394 18.5754 24.6356C17.7888 25.1845 16.5917 26.0552 15.9008 26.5886C15.1711 27.1507 15.1461 27.1683 15.2282 27.0449C15.7754 26.2359 16.049 25.7796 16.3363 25.1933C16.594 24.673 16.8471 24.0558 17.0295 23.518C17.0671 23.3759 17.1263 23.24 17.2051 23.1146H17.2028ZM19.9914 25.2307C20.0302 25.2241 20.0826 25.2925 20.3084 25.6165C20.7803 26.2998 21.1429 27.208 21.2364 27.9487L21.2546 28.1096L20.1214 28.5328C18.3806 29.1797 16.6578 29.8706 14.9545 30.6048C14.6011 30.7636 13.9786 31.0501 13.5705 31.2485C13.1623 31.4469 12.8294 31.6012 12.8294 31.5924C12.8294 31.5836 13.0848 31.3962 13.3995 31.178C15.878 29.4366 18.0168 27.532 19.6289 25.6253C19.7999 25.4225 19.9572 25.2462 19.9777 25.2329C19.9819 25.2306 19.9866 25.2291 19.9914 25.2285V25.2307ZM18.7054 25.5393C18.7396 25.5702 17.7911 26.6062 17.1526 27.2367C15.6102 28.7688 13.8832 30.1165 12.0086 31.2507C11.7623 31.4028 11.5388 31.5373 11.5069 31.5549C11.4545 31.5858 11.5252 31.5064 12.3871 30.5982C12.9297 30.0273 13.3447 29.5534 13.819 28.9604C14.0376 28.6546 14.3185 28.3951 14.6444 28.1977C15.8689 27.3425 18.6735 25.5063 18.7054 25.5371V25.5393ZM20.9833 0.27574C20.8009 0.253697 17.8572 1.2787 15.9669 2.01935C13.4063 3.02672 11.4157 3.99 10.189 4.82323C9.73295 5.13184 9.15835 5.68953 9.07627 5.90335C9.04392 5.99029 9.02771 6.08208 9.02838 6.17448L10.1411 7.18846L12.7815 8.00405L19.0725 9.09298L26.2619 10.2877L26.3348 9.69256L26.271 9.68153L25.3247 9.53605L25.1309 9.20981C24.1537 7.54312 23.2581 5.83288 22.4472 4.08479C21.9739 3.0342 21.5703 1.95558 21.2387 0.855474C21.0836 0.319826 21.0677 0.286762 20.9833 0.27574ZM20.8442 0.685742H20.8556C20.8624 0.692355 20.8944 0.917195 20.9286 1.18171C21.0699 2.3015 21.3299 3.38602 21.7357 4.55431C22.0413 5.43603 22.0458 5.38533 21.681 5.28614C20.8374 5.05909 17.0477 4.43087 14.307 4.06275C14.0348 4.02919 13.7634 3.99024 13.4929 3.94592C13.4587 3.91285 15.4698 2.89446 16.3614 2.49107C17.5038 1.97967 20.6185 0.727624 20.8442 0.685742ZM12.8591 4.27436L13.1806 4.38017C14.9408 4.9577 19.3507 5.77329 21.7882 5.96727C22.0618 5.98931 22.2944 6.01356 22.3012 6.02017C22.3081 6.02679 22.0732 6.14802 21.7813 6.2891C20.6071 6.85781 19.3119 7.55217 18.4158 8.09443C18.1536 8.25314 17.9142 8.38099 17.88 8.37879C17.7504 8.36116 17.6212 8.34132 17.4924 8.31927L17.164 8.26857L16.3318 7.48604C14.8702 6.11937 13.7301 5.0613 13.2877 4.66452L12.8591 4.27436ZM12.533 4.52565L13.6982 5.932C14.3412 6.70351 14.9842 7.47281 15.1255 7.63814C15.2692 7.80346 15.3786 7.94233 15.3718 7.94674C15.3399 7.97099 13.6845 7.66018 12.8066 7.464C12.1888 7.33705 11.5778 7.1811 10.9756 6.99668L10.5196 6.85561L10.5219 6.7476C10.5287 6.20754 11.2333 5.40958 12.4281 4.59619L12.533 4.52565ZM22.4563 6.4412C22.4905 6.4434 22.5292 6.51173 22.6318 6.72996C22.9146 7.32953 23.7947 8.95191 24.0068 9.26492C24.0752 9.36852 24.1892 9.37514 23.0195 9.19218C20.2149 8.75572 19.3051 8.60803 19.3051 8.5904C19.3622 8.54248 19.4259 8.50243 19.4943 8.47137C20.389 7.98605 21.2342 7.41996 22.0185 6.78066L22.4175 6.45663C22.4312 6.44561 22.4449 6.43899 22.4563 6.4412ZM32.2815 24.975L21.3185 28.4314L11.7874 32.5006L9.11959 33.1839C7.70597 34.476 6.23941 35.7129 4.72343 36.8915C3.93583 37.5214 3.20856 38.2186 2.55044 38.9746C1.79342 39.8872 1.20058 40.8571 0.9452 41.6044C0.489167 42.949 0.710343 44.3113 1.59505 45.5677C2.72373 47.1725 4.96969 48.8036 7.58048 49.9146C8.91437 50.4789 11.1603 51.2107 12.8477 51.6207C15.6591 52.3085 21.0882 53.0536 24.0797 53.1638C24.6863 53.1858 25.4935 53.1858 25.5322 53.1594C25.5961 53.1175 26.0635 52.2666 26.6039 51.1975C28.4417 47.5692 29.771 44.1658 30.487 41.2605C30.9202 39.4992 31.2577 37.1539 31.4766 34.372C31.5439 32.9519 31.5561 31.5299 31.5131 30.1089C31.4562 28.8481 31.3169 27.5921 31.0958 26.3483C31.0669 26.2405 31.0576 26.1286 31.0685 26.0177C31.1004 25.9956 31.203 25.9626 32.5506 25.5834L32.2815 24.975ZM29.7733 26.3968C29.8759 26.3968 30.1381 28.8524 30.2088 30.4087C30.2225 30.7415 30.2202 30.9531 30.1997 30.9531C30.1359 30.9531 28.7974 30.1926 27.8466 29.6173C26.9493 29.0709 26.0658 28.5035 25.197 27.9156C25.1172 27.8539 25.1263 27.8517 25.8036 27.6268C26.955 27.2433 29.689 26.3968 29.7756 26.3968H29.7733ZM24.1915 28.1669C24.2599 28.1669 24.4537 28.2705 24.9097 28.546C26.6199 29.582 28.9365 30.8275 29.9261 31.2463C30.2362 31.3786 30.2704 31.3257 29.5613 31.7908C28.0518 32.7827 26.1729 33.757 23.8677 34.749C23.6187 34.859 23.3671 34.9634 23.113 35.062C23.1298 34.9121 23.1626 34.7644 23.211 34.6211C23.7696 32.6262 24.0843 30.6093 24.0934 28.9913C24.098 28.1933 24.098 28.1889 24.1778 28.1691H24.1915V28.1669ZM23.0423 28.5923C23.0902 28.6408 23.056 30.4307 22.9967 30.9201C22.823 32.2978 22.5037 33.6547 22.0436 34.9694C22.0116 35.0069 20.8784 33.9378 20.5022 33.5145C19.9064 32.8614 19.3943 32.1413 18.9767 31.3697C18.7898 31.0126 18.4888 30.3029 18.5161 30.283C18.6438 30.1948 23.0104 28.5637 23.0423 28.5923ZM17.6269 30.6555C17.636 30.6555 17.6451 30.6578 17.6497 30.6644C17.7002 30.7571 17.7429 30.8537 17.7774 30.9531C18.1291 31.7995 18.5903 32.5994 19.15 33.3338C19.8253 34.1981 20.6036 34.9824 21.469 35.6704C21.5214 35.7144 21.5374 35.7056 20.1875 36.1994C18.4594 36.8293 16.7153 37.4173 14.9568 37.9628C14.2112 38.1965 13.5796 38.3927 13.5545 38.4037C13.4793 38.428 13.5021 38.3839 13.721 38.0554C14.6946 36.5873 16.1676 33.7129 16.993 31.6806C17.1344 31.3279 17.2712 30.9752 17.2963 30.8958C17.3305 30.7812 17.3669 30.7415 17.4787 30.693C17.5245 30.6698 17.5752 30.657 17.6269 30.6555ZM15.9669 31.3168C15.9897 31.3367 15.5702 32.1942 15.1552 32.9723C14.2755 34.617 13.3222 36.224 12.2981 37.7887L11.8831 38.4235C11.8421 38.4831 11.8239 38.4632 11.6962 38.2163C11.3981 37.6282 11.1833 37.0039 11.0577 36.3603C10.9405 35.5673 10.9559 34.7613 11.1033 33.973C11.2105 33.4727 11.2059 33.4837 11.4499 33.3646C12.5034 32.8422 15.9327 31.2882 15.9669 31.3168ZM30.259 31.8789V32.2184C30.2355 34.4278 30.0412 36.6324 29.6776 38.8137C28.174 38.3942 26.7227 37.8161 25.3498 37.0899C24.5426 36.6623 23.3775 35.9723 23.4117 35.9393C23.4185 35.9305 23.7628 35.7563 24.1732 35.5491C25.8013 34.7335 27.3541 33.8518 28.7062 32.9789C29.2124 32.6527 29.9717 32.1214 30.1404 31.9781L30.259 31.8789ZM9.71015 34.2442C9.74435 34.2442 9.73523 34.3059 9.68279 34.5991C9.63759 34.884 9.60639 35.1709 9.5893 35.4587C9.5209 36.6314 9.71927 37.4955 10.319 38.677C10.4877 39.0077 10.6199 39.281 10.6131 39.2854C10.5515 39.3361 5.0723 40.8858 3.34849 41.342L2.35662 41.6066C2.29506 41.6242 2.2905 41.611 2.31102 41.4743C2.50027 40.2994 3.4283 38.7586 4.72343 37.4625C5.58533 36.6028 6.27394 36.0914 7.44823 35.4455C8.19452 35.0317 8.94863 34.6312 9.71015 34.2442ZM22.6364 36.4815C22.641 36.4771 22.8439 36.5807 23.0856 36.7174C24.8573 37.7071 27.3267 38.6352 29.4313 39.1003L29.6228 39.1443L29.3606 39.2832C28.2616 39.874 24.6384 41.331 20.9377 42.6712C20.5472 42.8123 20.1573 42.9548 19.768 43.0989C19.7088 43.1269 19.6458 43.147 19.581 43.1584C19.581 43.1496 19.7338 42.8674 19.9207 42.528C20.9605 40.6499 21.9957 38.3684 22.5292 36.7857C22.5817 36.6248 22.6296 36.4882 22.6364 36.4815ZM21.3185 36.9004C21.279 37.0274 21.231 37.1519 21.1748 37.2729C20.3337 39.1934 19.3735 41.0631 18.2995 42.8718C18.1172 43.1951 17.9256 43.5134 17.7249 43.8263C17.7135 43.8263 17.465 43.6808 17.1686 43.5067C15.4128 42.4662 13.8578 41.1877 12.8363 39.9423L12.6903 39.766L13.4473 39.5654C15.9288 38.9237 18.3596 38.1111 20.7211 37.134C21.0449 37.0018 21.3139 36.8937 21.3185 36.9004ZM29.5043 39.6624C29.5065 39.6624 29.5088 39.6646 29.5088 39.669C29.5088 39.8453 29.0916 41.4941 28.7427 42.6889C28.4508 43.6874 28.2046 44.47 27.7508 45.8565C27.6351 46.2306 27.5073 46.6011 27.3677 46.9674C25.0272 46.5807 22.7347 45.9594 20.5273 45.1136C20.0324 44.9264 19.5462 44.7183 19.0702 44.4898C19.0565 44.4744 19.5559 44.2473 20.1784 43.9828C23.9521 42.3935 27.8603 40.5816 29.1964 39.8034C29.2898 39.7395 29.394 39.6917 29.5043 39.6624ZM10.6085 40.2862C10.6291 40.306 9.57334 41.7653 8.10036 43.7602L6.7619 45.5743C6.54072 45.8807 6.20326 46.3635 6.01173 46.65L5.66286 47.1702L5.29347 46.8683C4.74045 46.3991 4.22446 45.8907 3.7498 45.3473C3.03839 44.4898 2.55728 43.5882 2.36574 42.7594C2.2791 42.3759 2.27454 42.1819 2.3589 42.1576C3.82689 41.8153 5.29686 41.481 6.76874 41.1547L9.73295 40.4824C10.2095 40.3722 10.604 40.284 10.6085 40.2862ZM11.6688 40.6786L11.9356 40.9673C13.0498 42.1902 14.3639 43.2283 15.8256 44.0401C15.9849 44.1166 16.1342 44.2113 16.2702 44.3223C12.9887 45.4724 9.69753 46.5966 6.39707 47.6949C6.34054 47.6623 6.28575 47.627 6.2329 47.5891L6.08013 47.4833L6.31955 47.1482C7.0948 46.0615 8.07071 44.8667 10.2072 42.3825L11.6688 40.6786ZM18.2813 45.2481C18.2881 45.2415 18.6575 45.3671 19.1067 45.5302C20.1852 45.9204 21.0312 46.1739 22.1781 46.4516C23.585 46.7933 25.6211 47.135 26.8251 47.232C27.0075 47.2452 27.1032 47.2672 27.0759 47.2849C27.0189 47.3201 25.799 47.7125 24.9029 47.9858C21.389 49.0191 17.8653 50.0207 14.332 50.9903C14.2522 51.0057 13.9741 50.9352 13.9741 50.9021C13.9741 50.8823 14.1724 50.6398 14.4141 50.3599C15.6198 48.9642 16.7434 47.5041 17.7797 45.9865C17.946 45.7398 18.1132 45.4937 18.2813 45.2481ZM16.8174 45.2878C16.8288 45.2988 16.2405 46.2092 15.2076 47.783C14.7698 48.4465 14.275 49.2048 14.1063 49.4627C13.9353 49.7228 13.6868 50.1196 13.5545 50.3445L13.3105 50.7523L13.1874 50.7214C12.891 50.6442 10.7955 49.9278 10.2437 49.7162C9.58505 49.4645 8.94109 49.1783 8.31469 48.8587C7.65572 48.5149 6.82118 48.0035 6.88503 47.9836L9.40461 47.3179C13.0346 46.3613 15.0435 45.8124 16.3591 45.4134C16.6076 45.3407 16.8129 45.2834 16.8151 45.2878H16.8174ZM27.1306 47.6265H27.1443C27.1785 47.7103 25.8332 51.3077 25.343 52.4496C25.2312 52.7053 25.1925 52.7692 25.1332 52.7648C24.0421 52.6316 22.9528 52.4846 21.8657 52.3239C19.7999 52.0197 16.3409 51.4356 15.4676 51.2438L15.2646 51.1997L16.5028 50.9308C19.1569 50.3533 20.4315 50.0425 21.7243 49.6589C23.3908 49.1631 25.0197 48.5562 26.5993 47.8426C26.7722 47.7612 26.9496 47.6891 27.1306 47.6265Z" fill="white"/>
</svg>
