<svg width="50" height="50" viewBox="0 0 50 50" fill="none" xmlns="http://www.w3.org/2000/svg">
<path d="M25 12.5C19.4375 12.5 15.9792 15.2708 14.5834 20.8333C16.6667 18.0625 19.1042 17.0208 21.875 17.7083C23.4584 18.1042 24.6042 19.25 25.8542 20.5208C27.8959 22.6042 30.2084 25 35.4167 25C40.9792 25 44.4375 22.2292 45.8334 16.6667C43.75 19.4375 41.3125 20.4792 38.5417 19.7917C36.9584 19.3958 35.8334 18.25 34.5625 16.9792C32.5209 14.8958 30.2084 12.5 25 12.5ZM14.5834 25C9.02085 25 5.56252 27.7708 4.16669 33.3333C6.25002 30.5625 8.68752 29.5208 11.4584 30.2083C13.0417 30.6042 14.1667 31.75 15.4375 33.0208C17.4792 35.1042 19.7917 37.5 25 37.5C30.5625 37.5 34.0209 34.7292 35.4167 29.1667C33.3334 31.9375 30.8959 32.9792 28.125 32.2917C26.5417 31.8958 25.4167 30.75 24.1459 29.4792C22.1042 27.3958 19.7917 25 14.5834 25Z" fill="white"/>
</svg>
