<svg width="50" height="68" viewBox="0 0 50 68" fill="none" xmlns="http://www.w3.org/2000/svg">
<path d="M16.1072 52.4174C16.1072 52.4174 13.5144 53.9277 17.948 54.434C23.32 55.0525 26.0674 54.9657 31.9817 53.8387C31.9817 53.8387 33.5344 54.8216 35.7099 55.6711C22.4388 61.3545 5.67878 55.33 16.1051 52.4174H16.1072ZM14.4824 45.0033C14.4824 45.0033 11.5698 47.1534 16.0055 47.6046C21.7567 48.1998 26.2771 48.257 34.1212 46.7467C34.1212 46.7467 35.2037 47.8397 36.9152 48.4434C20.8734 53.1312 2.99913 48.8078 14.4846 45.0033H14.4824ZM28.1518 32.4164C31.4161 36.1785 27.2897 39.5656 27.2897 39.5656C27.2897 39.5656 35.5871 35.2718 31.7805 29.9125C28.2196 24.9028 25.4828 22.4222 40.2643 13.8473C40.2643 13.8473 17.0625 19.6409 28.1497 32.4185L28.1518 32.4164ZM45.6956 57.9122C45.6956 57.9122 47.6169 59.4883 43.5879 60.7148C35.9302 63.0301 11.7138 63.7249 4.98397 60.8016C2.56911 59.753 7.10228 58.2872 8.52577 57.9885C10.0149 57.658 10.8644 57.7258 10.8644 57.7258C8.17202 55.8278 -6.52264 61.4435 3.39737 63.0534C30.4608 67.4446 52.722 61.0791 45.6956 57.9122ZM17.3527 37.3139C17.3527 37.3139 5.03058 40.2371 12.9827 41.2963C16.3487 41.7475 23.0467 41.65 29.2915 41.1205C34.386 40.6883 39.5081 39.7732 39.5081 39.7732C39.5081 39.7732 37.7096 40.5443 36.4069 41.4403C23.8941 44.7279 -0.275768 43.1943 6.68497 39.8304C12.5654 36.994 17.3527 37.3139 17.3527 37.3139ZM39.4509 49.6699C52.1607 43.0502 46.2803 36.7059 42.1877 37.5681C41.1815 37.7651 40.7303 37.9557 40.7303 37.9557C40.7303 37.9557 41.0947 37.369 41.8128 37.1169C49.9322 34.2593 56.177 45.5329 39.1967 50.0025C39.1967 49.9919 39.3979 49.8267 39.4509 49.672V49.6699ZM31.7826 0C31.7826 0 38.8238 7.03912 25.0972 17.8721C14.099 26.5656 22.5913 31.5203 25.0972 37.1804C18.6767 31.3869 13.9656 26.2924 17.1218 21.5474C21.7652 14.5633 34.619 11.1868 31.7826 0ZM18.5983 67.5759C30.8018 68.347 49.5446 67.1353 50 61.3651C50 61.3651 49.1378 63.549 39.9021 65.2903C29.4885 67.254 16.6346 67.0209 9.01087 65.7648C9.01087 65.7648 10.5784 67.0548 18.5962 67.5759H18.5983Z" fill="white"/>
</svg>
