<svg width="51" height="38" viewBox="0 0 51 38" fill="none" xmlns="http://www.w3.org/2000/svg">
<path d="M25.683 0.433482C21.3321 0.340796 17.0731 1.60098 13.5858 4.01288C10.0985 6.42479 7.58394 9.84937 6.44348 13.74C6.54973 13.7024 6.32941 13.7632 6.44348 13.74C-1.63016 18.6628 -1.72704 29.39 5.93096 34.8571L5.93878 34.8426L5.92315 34.9034C8.37094 36.6118 11.3555 37.5305 14.4202 37.519H25.1955L25.2611 37.5711H36.077C50.0102 37.6767 55.6087 20.9701 44.0694 13.74C43.0787 10.3437 41.0364 7.29037 38.1942 4.95681L38.1052 5.03931L38.113 4.94088C34.6732 2.12914 30.2724 0.532385 25.6861 0.432034L25.683 0.433482ZM24.9346 8.43941C27.5221 8.3569 30.1831 9.14866 32.1941 10.6555C33.436 11.6146 34.4295 12.8198 35.1013 14.1822C35.7731 15.5445 36.106 17.0293 36.0754 18.5268V19.5299C43.4319 19.3938 43.4319 29.6853 36.0754 29.5492H25.2596L25.2439 29.5637V29.4884H14.4202C13.6546 29.4884 12.8983 29.3379 12.1983 29.0441C8.75603 27.6038 7.93414 23.412 10.603 20.9325C13.2811 18.4602 17.7969 19.2216 19.3594 22.4103L25.6346 16.5973C23.5489 14.0789 20.5423 12.3525 17.1797 11.7425C17.2203 11.728 17.2609 11.6976 17.2937 11.7049C18.2673 10.7132 19.4463 9.91309 20.7606 9.35232C22.0749 8.79156 23.4976 8.48158 24.9439 8.44085L24.9346 8.43941Z" fill="white"/>
</svg>
