<svg width="56" height="56" viewBox="0 0 56 56" fill="none" xmlns="http://www.w3.org/2000/svg">
<path d="M28 19.6665H8.55556C7.08213 19.6665 5.66905 20.2518 4.62718 21.2937C3.58532 22.3356 3 23.7486 3 25.2221V36.3332C3 37.8066 3.58532 39.2197 4.62718 40.2615C5.66905 41.3034 7.08213 41.8887 8.55556 41.8887H16.8889" stroke="white" stroke-width="4.16667" stroke-linecap="round" stroke-linejoin="round"/>
<path d="M28 36.3331H47.4444C48.9179 36.3331 50.3309 35.7477 51.3728 34.7059C52.4147 33.664 53 32.2509 53 30.7775V19.6664C53 18.193 52.4147 16.7799 51.3728 15.738C50.3309 14.6962 48.9179 14.1108 47.4444 14.1108H39.1111" stroke="white" stroke-width="4.16667" stroke-linecap="round" stroke-linejoin="round"/>
<path d="M16.8889 19.6667V8.55556C16.8889 7.08213 17.4742 5.66905 18.5161 4.62718C19.558 3.58532 20.971 3 22.4445 3H33.5556C35.029 3 36.4421 3.58532 37.484 4.62718C38.5258 5.66905 39.1111 7.08213 39.1111 8.55556V22.4444C39.1111 23.9179 38.5258 25.3309 37.484 26.3728C36.4421 27.4147 35.029 28 33.5556 28H22.4445C20.971 28 19.558 28.5853 18.5161 29.6272C17.4742 30.6691 16.8889 32.0821 16.8889 33.5556V47.4444C16.8889 48.9179 17.4742 50.3309 18.5161 51.3728C19.558 52.4147 20.971 53 22.4445 53H33.5556C35.029 53 36.4421 52.4147 37.484 51.3728C38.5258 50.3309 39.1111 48.9179 39.1111 47.4444V36.3333" stroke="white" stroke-width="4.16667" stroke-linecap="round" stroke-linejoin="round"/>
<path d="M25.2222 11.3335V11.3613" stroke="white" stroke-width="4.16667" stroke-linecap="round" stroke-linejoin="round"/>
<path d="M30.7778 44.6665V44.6943" stroke="white" stroke-width="4.16667" stroke-linecap="round" stroke-linejoin="round"/>
</svg>
