<svg width="50" height="58" viewBox="0 0 50 58" fill="none" xmlns="http://www.w3.org/2000/svg">
<path d="M0 44.8402L0.337301 44.3699L16.25 14.1834L16.2837 13.864L9.26984 0.689389C9.14143 0.448471 8.94053 0.254026 8.69554 0.133564C8.45055 0.0131023 8.17389 -0.0272774 7.90469 0.0181373C7.63549 0.0635521 7.38739 0.192462 7.19548 0.38663C7.00357 0.580798 6.87758 0.830393 6.83532 1.1001L0 44.8402Z" fill="#FFC24A"/>
<path d="M0.198364 44.4829L0.452332 43.9869L16.2003 14.1139L9.20432 0.887694C9.08895 0.657679 8.90215 0.471239 8.67192 0.356305C8.44169 0.24137 8.18041 0.204129 7.92724 0.250161C7.67406 0.296193 7.44262 0.42302 7.26757 0.61164C7.09253 0.800261 6.98332 1.04052 6.9563 1.29642L0.198364 44.4829Z" fill="#ECEFF1"/>
<path d="M21.3967 23.8282L26.619 18.4711L21.3948 8.50877C21.2798 8.29437 21.1088 8.11516 20.9 7.99023C20.6913 7.86529 20.4525 7.79932 20.2092 7.79932C19.9659 7.79932 19.7272 7.86529 19.5184 7.99023C19.3097 8.11516 19.1387 8.29437 19.0237 8.50877L16.2321 13.8302V14.2846L21.3967 23.8282Z" fill="#F4BD62"/>
<path d="M21.3037 23.6101L26.389 18.4116L21.3037 8.72911C21.2206 8.51952 21.0786 8.33845 20.8949 8.20772C20.7112 8.07699 20.4936 8.00219 20.2684 7.99233C20.0431 7.98247 19.8198 8.03798 19.6254 8.15216C19.431 8.26635 19.2738 8.43433 19.1727 8.63585L16.3671 14.0505L16.2838 14.3263L21.3037 23.6101Z" fill="#F9F9F9"/>
<path d="M0.00402832 44.842L0.156806 44.6872L0.710377 44.463L21.0675 24.1812L21.3255 23.4789L16.2481 13.8003L0.00402832 44.842Z" fill="#E1E1E1"/>
<path d="M22.0476 55.07L40.4762 44.7942L35.2103 12.3914C35.1726 12.163 35.0726 11.9494 34.9214 11.7741C34.7702 11.5987 34.5737 11.4684 34.3533 11.3975C34.1329 11.3266 33.8972 11.3177 33.6721 11.372C33.4471 11.4262 33.2413 11.5414 33.0774 11.7049L0 44.8398L18.3194 55.068C18.889 55.3858 19.5303 55.5527 20.1825 55.5527C20.8347 55.5527 21.4761 55.3858 22.0456 55.068" fill="#FDE068"/>
<path d="M40.3075 44.709L35.0853 12.5503C35.076 12.3318 35.0022 12.1209 34.8731 11.9444C34.744 11.7679 34.5655 11.6337 34.3601 11.5587C34.1547 11.4837 33.9316 11.4714 33.7192 11.5232C33.5067 11.575 33.3144 11.6887 33.1666 11.8499L0.198364 44.7784L18.3154 54.8975C18.8804 55.2127 19.5167 55.3781 20.1636 55.3781C20.8106 55.3781 21.4468 55.2127 22.0119 54.8975L40.3075 44.709Z" fill="white"/>
<path d="M22.0476 54.7606C21.4781 55.0785 20.8367 55.2453 20.1845 55.2453C19.5323 55.2453 18.891 55.0785 18.3214 54.7606L0.150793 44.6853L0 44.84L18.3194 55.0682C18.889 55.386 19.5303 55.5528 20.1825 55.5528C20.8347 55.5528 21.4761 55.386 22.0456 55.0682L40.4762 44.7944L40.4306 44.5166L22.0476 54.7606Z" fill="#EEAB37"/>
<path d="M34.5258 21.8242L19.0575 28.8361V50.7984L31.3988 45.2072V57.5385L50 49.0921V28.8361L34.5258 21.8242Z" fill="#E0E0E0"/>
<path d="M34.5258 25.2568L22.1925 30.8501V36.362L34.5258 30.7668L46.8671 36.362V30.8501L34.5258 25.2568Z" fill="white"/>
<path d="M34.5258 34.8481L22.1925 40.4374V45.9474L34.5258 40.3501L46.8671 45.9474V40.4374L34.5258 34.8481Z" fill="white"/>
<path d="M45.2498 47.8125L39.1883 45.0625L34.5256 47.1776V52.6736L45.2498 47.8125Z" fill="white"/>
</svg>
