<svg width="50" height="50" viewBox="0 0 50 50" fill="none" xmlns="http://www.w3.org/2000/svg">
<path d="M42.3831 33.5315L34.1394 31.6407L31.9437 27.5508L42.7342 18.3005C44.3014 18.8799 45.651 19.9127 46.6033 21.2615C47.5555 22.6102 48.0652 24.2108 48.0644 25.8501C48.0644 29.299 45.7308 32.4458 42.3831 33.5315V33.5315ZM36.1815 43.067C34.898 43.067 33.6426 42.6437 32.6145 41.8769L34.246 33.5637L41.7312 35.2813C41.9678 35.9115 42.0901 36.5832 42.0901 37.2856C42.0903 38.045 41.9375 38.7971 41.6406 39.4988C41.3437 40.2005 40.9083 40.8381 40.3595 41.3752C39.8107 41.9122 39.1591 42.3382 38.4419 42.6287C37.7248 42.9192 36.9562 43.0687 36.18 43.0685L36.1815 43.067ZM30.6883 41.8769C29.5585 43.5113 28.0356 44.8489 26.2535 45.7722C24.4714 46.6956 22.4848 47.1763 20.4683 47.1722C13.6429 47.1722 8.09331 41.742 8.09331 35.0712C8.09331 34.2492 8.1748 33.441 8.3378 32.6605L19.097 23.1388L30.0849 28.0354L32.5173 32.5869L30.6883 41.8769ZM1.93872 23.5636C1.93872 20.1147 4.26452 16.9679 7.61216 15.8822L15.8387 17.7899L17.7742 21.8246L7.25326 31.13C5.68824 30.5447 4.34195 29.5078 3.39284 28.1568C2.44374 26.8058 1.93662 25.2045 1.93872 23.5651V23.5636ZM13.8138 6.34519C15.113 6.34519 16.3699 6.76078 17.4059 7.52754L15.765 15.8653L8.26257 14.1401C8.02358 13.4951 7.9021 12.8141 7.90367 12.1281C7.90574 10.595 8.52908 9.12528 9.63699 8.04121C10.7449 6.95714 12.2469 6.34722 13.8138 6.34519V6.34519ZM19.3571 7.54134C20.4916 5.92443 22.0111 4.60191 23.7845 3.68793C25.5579 2.77394 27.532 2.29593 29.5364 2.29516C36.3367 2.29516 41.8691 7.71156 41.8691 14.3717C41.8691 15.1875 41.7954 15.9619 41.6324 16.744L30.5974 26.2089L19.658 21.3308L17.5203 16.8652L19.3571 7.54134ZM50 25.8716C50.0047 23.8854 49.3812 21.9464 48.215 20.3207C47.0488 18.695 45.3971 17.4623 43.4865 16.7916C43.6631 15.9267 43.7508 15.0466 43.7482 14.1646C43.7482 6.54455 37.4118 0.338379 29.6257 0.338379C27.39 0.338853 25.1864 0.859101 23.1965 1.85626C21.2065 2.85342 19.4872 4.29895 18.1801 6.07376C16.8906 5.10164 15.3131 4.56608 13.6854 4.54781C12.0577 4.52954 10.468 5.02956 9.1561 5.97247C7.84417 6.91539 6.88109 8.25008 6.41207 9.77532C5.94304 11.3006 5.9935 12.9337 6.55583 14.4284C2.66906 15.8024 3.3635e-05 19.4691 3.3635e-05 23.5498C-0.00528611 25.5425 0.620548 27.4878 1.79145 29.1182C2.96234 30.7486 4.62077 31.984 6.5386 32.6543C6.36581 33.5198 6.27816 34.3994 6.27686 35.2813C6.27686 42.886 12.6023 49.0661 20.3743 49.0661C22.6118 49.0689 24.8175 48.5477 26.8071 47.5459C28.7966 46.5441 30.5122 45.0909 31.8105 43.3077C33.1183 44.3208 34.7376 44.872 36.4057 44.8719C37.6147 44.8716 38.8058 44.5852 39.8773 44.0371C40.9488 43.4889 41.869 42.6954 42.5593 41.7241C43.2496 40.7528 43.6896 39.6325 43.8417 38.4589C43.9939 37.2852 43.8538 36.0929 43.4332 34.9837C47.32 33.6097 49.9968 29.9431 49.9968 25.87L50 25.8716Z" fill="white"/>
</svg>
