<svg width="50" height="50" viewBox="0 0 50 50" fill="none" xmlns="http://www.w3.org/2000/svg">
<path d="M21.6875 19.75C22.4167 22.125 23.1667 24.5 23.9167 26.9167H19.5C20.25 24.5 20.9583 22.125 21.6875 19.75Z" fill="white"/>
<path d="M35.4167 4.1665H14.5834C11.8207 4.1665 9.17116 5.26397 7.21766 7.21748C5.26415 9.17098 4.16669 11.8205 4.16669 14.5832V35.4165C4.16669 38.1792 5.26415 40.8287 7.21766 42.7822C9.17116 44.7357 11.8207 45.8332 14.5834 45.8332H35.4167C38.1794 45.8332 40.8289 44.7357 42.7824 42.7822C44.7359 40.8287 45.8334 38.1792 45.8334 35.4165V14.5832C45.8334 11.8205 44.7359 9.17098 42.7824 7.21748C40.8289 5.26397 38.1794 4.1665 35.4167 4.1665ZM30.1875 34.9582H26.9375C26.8079 34.9762 26.6764 34.9426 26.5712 34.8647C26.466 34.7868 26.3956 34.6708 26.375 34.5415C25.9792 33.3748 25.5625 32.2082 25.1667 31.0207C25.1542 30.9462 25.1269 30.875 25.0863 30.8114C25.0458 30.7477 24.9928 30.6928 24.9306 30.6501C24.8684 30.6073 24.7982 30.5775 24.7242 30.5624C24.6503 30.5473 24.574 30.5473 24.5 30.5623H18.9584C18.8814 30.5442 18.8015 30.5425 18.7238 30.5573C18.6461 30.5721 18.5724 30.6031 18.5076 30.6483C18.4427 30.6936 18.3881 30.7519 18.3473 30.8197C18.3065 30.8874 18.2805 30.963 18.2709 31.0415C17.9167 32.2082 17.5209 33.3332 17.1667 34.4998C17.1568 34.5734 17.1318 34.6442 17.0934 34.7078C17.055 34.7714 17.0039 34.8263 16.9433 34.8693C16.8828 34.9123 16.814 34.9424 16.7413 34.9577C16.6687 34.9729 16.5936 34.9731 16.5209 34.9582H13.6667C13.1667 34.9582 13.125 34.9582 13.2917 34.4373L17.7917 21.4582C18.2084 20.2707 18.625 19.0832 19 17.8957C19.103 17.5435 19.1591 17.1792 19.1667 16.8123C19.1667 16.3748 19.3334 16.2707 19.7292 16.2915H23.7084C24 16.2915 24.1459 16.2915 24.25 16.6873L29.375 31.1248C29.7709 32.2498 30.1667 33.354 30.5417 34.4582C30.7084 34.9165 30.6875 34.9582 30.1875 34.9582ZM36.5625 34.604C36.5625 34.9582 36.4167 35.0623 36.0834 35.0623H33.0834C32.6667 35.0623 32.5625 34.8957 32.5625 34.5207V21.4373C32.5625 21.0207 32.6875 20.854 33.125 20.8748H36.0625C36.3959 20.8748 36.5625 20.8748 36.5625 21.3332C36.5486 25.7498 36.5486 30.1735 36.5625 34.604ZM34.4792 19.3957C34.1807 19.4146 33.8816 19.3691 33.6022 19.2621C33.3229 19.1552 33.0699 18.9893 32.8603 18.7758C32.6508 18.5624 32.4897 18.3063 32.388 18.025C32.2863 17.7437 32.2463 17.4438 32.2709 17.1457C32.2735 16.8494 32.3352 16.5565 32.4524 16.2844C32.5695 16.0122 32.7398 15.7661 32.9531 15.5605C33.1665 15.3548 33.4187 15.1938 33.6951 15.0868C33.9714 14.9798 34.2663 14.929 34.5625 14.9373C34.8507 14.9364 35.136 14.9953 35.4002 15.1103C35.6645 15.2252 35.9021 15.3938 36.0979 15.6052C36.2937 15.8167 36.4435 16.0665 36.5378 16.3388C36.6321 16.6111 36.6689 16.9001 36.6459 17.1873C36.6629 17.4713 36.6217 17.7557 36.5246 18.023C36.4276 18.2904 36.2769 18.5351 36.0817 18.742C35.8865 18.9489 35.651 19.1136 35.3897 19.226C35.1285 19.3384 34.847 19.3962 34.5625 19.3957H34.4792Z" fill="white"/>
<path d="M23.9167 26.9167H19.5C20.25 24.5 20.9583 22.125 21.5833 19.75C22.4167 22.125 23.1667 24.5 23.9167 26.9167Z" fill="white"/>
</svg>
