<svg width="51" height="50" viewBox="0 0 51 50" fill="none" xmlns="http://www.w3.org/2000/svg">
<path d="M0.285645 0.66748L4.7834 44.3936L25.2822 49.3952L45.6993 44.3936L50.2856 0.66748H0.285645ZM41.9171 41.6995L25.2822 45.7758L8.57241 41.6995L4.70843 4.14636H45.856L41.9171 41.6995ZM9.55374 9.62823L9.66959 11.0514L11.2165 25.8981H25.2891V25.8923H32.9829L32.206 32.8325L25.2277 34.4548V34.4665H25.1732L18.1949 32.8442L17.7519 28.5571H11.5505L12.3205 37.0317L25.1732 40.0772H25.2891V40.0538L38.0804 37.0259L38.1962 36.0712L39.641 21.8863L39.859 20.4631H25.2277V20.4748H16.975L16.4162 14.9578H40.411L40.5269 13.8158L40.854 11.0514L40.9698 9.62823H25.2277H9.55374Z" fill="white"/>
</svg>
