<svg width="51" height="50" viewBox="0 0 51 50" fill="none" xmlns="http://www.w3.org/2000/svg">
<path d="M4.45504 24.6006C2.10934 20.9114 1.63173 17.4695 3.29997 14.8701C5.5322 11.3808 11.1331 10.1643 18.2159 11.3244C18.6224 11.3793 18.9036 11.7304 18.8341 12.0952C18.8159 12.1823 18.7783 12.2652 18.7236 12.3389C18.6688 12.4126 18.5981 12.4755 18.5156 12.5238C18.4332 12.5722 18.3407 12.605 18.2438 12.6202C18.1468 12.6355 18.0475 12.6329 17.9517 12.6126C11.4058 11.5396 6.4129 12.6279 4.56174 15.5218C3.19497 17.6526 3.59975 20.626 5.71681 23.9488C5.76932 24.024 5.80441 24.1079 5.81996 24.1956C5.83552 24.2833 5.83122 24.3729 5.80732 24.459C5.78343 24.5451 5.74043 24.626 5.68092 24.6968C5.62142 24.7676 5.54663 24.8267 5.46107 24.8708C5.37589 24.9147 5.28169 24.9426 5.18419 24.9528C5.08668 24.963 4.9879 24.9552 4.89383 24.9299C4.79976 24.9047 4.71236 24.8625 4.63693 24.8058C4.56151 24.7492 4.49963 24.6794 4.45504 24.6006ZM38.1434 12.2463C42.2895 12.2936 45.2703 13.4551 46.6201 15.5539C48.473 18.4402 47.0266 22.8682 42.7383 27.4305C42.6695 27.495 42.6161 27.5715 42.5813 27.6552C42.5466 27.739 42.5312 27.8283 42.5361 27.9177C42.541 28.007 42.5661 28.0945 42.6099 28.1747C42.6537 28.255 42.7153 28.3264 42.7908 28.3844C43.1092 28.6302 43.5936 28.5829 43.8408 28.2806C48.4814 23.3444 50.104 18.3746 47.8717 14.9006C46.2306 12.3409 42.7738 10.9886 38.1688 10.9336C38.0697 10.9278 37.9703 10.9403 37.8767 10.9704C37.7832 11.0004 37.6974 11.0474 37.6248 11.1085C37.5521 11.1695 37.4941 11.2433 37.4542 11.3253C37.4144 11.4074 37.3936 11.4958 37.3931 11.5854C37.3913 11.6745 37.41 11.763 37.4478 11.8453C37.4857 11.9277 37.542 12.0021 37.6132 12.064C37.6844 12.1258 37.7689 12.1738 37.8616 12.2049C37.9543 12.236 38.0531 12.2496 38.1519 12.2448L38.1434 12.2463ZM33.9618 43.2588C33.7966 43.1695 33.5989 43.1428 33.4119 43.1845C33.225 43.2263 33.064 43.3331 32.9642 43.4816C30.8556 46.6457 28.2627 48.3629 25.5985 48.3629C21.8928 48.3629 18.3565 45.0156 16.1158 39.3711C16.0502 39.2078 15.9153 39.0746 15.7408 39.0009C15.5663 38.9272 15.3664 38.919 15.1852 38.9781C15.0039 39.0372 14.8561 39.1588 14.7744 39.3161C14.6926 39.4734 14.6835 39.6535 14.749 39.8168C17.1659 45.9146 21.1358 49.674 25.5985 49.674C28.8453 49.674 31.8532 47.6791 34.2074 44.1562C34.3055 44.0072 34.3347 43.8293 34.2884 43.661C34.2421 43.4928 34.1242 43.3477 33.9601 43.2572L33.9618 43.2588ZM50.5714 37.9806C50.5629 40.5327 47.3687 42.0026 45.067 40.5251C39.5271 43.4663 28.9333 41.972 18.9662 36.7809C14.7236 34.5707 11.001 31.9149 8.13365 29.0774C8.06585 29.0137 8.01289 28.9384 7.9779 28.856C7.9429 28.7736 7.92658 28.6857 7.9299 28.5975C7.93321 28.5093 7.9561 28.4225 7.9972 28.3424C8.0383 28.2623 8.09679 28.1905 8.16921 28.1311C8.24146 28.0721 8.32616 28.0269 8.41824 27.9981C8.51032 27.9693 8.6079 27.9576 8.70513 27.9636C8.80237 27.9695 8.89726 27.9931 8.98415 28.0329C9.07103 28.0727 9.14812 28.1279 9.21081 28.1952C11.9715 30.9304 15.5705 33.5053 19.6894 35.6438C29.101 40.5403 39.0072 41.9949 44.0712 39.5238C43.8079 39.1066 43.6544 38.6406 43.6226 38.1616C43.5908 37.6825 43.6815 37.2033 43.8876 36.7609C44.0938 36.3185 44.41 35.9246 44.8119 35.6097C45.2137 35.2948 45.6904 35.0673 46.2052 34.9447C46.7206 34.8215 47.2606 34.8069 47.7833 34.9019C48.3061 34.9969 48.7975 35.1991 49.2197 35.4928C49.6418 35.7864 49.9833 36.1637 50.2177 36.5954C50.4521 37.0271 50.5731 37.5016 50.5714 37.9821V37.9806ZM7.52563 37.9806C7.53409 40.406 4.60578 41.9156 2.28548 40.6838C-0.0348202 39.4597 0.00921452 36.4146 2.36508 35.2454C1.83497 29.3857 8.66376 21.5403 18.9849 16.166C23.2715 13.9405 27.7359 12.3577 31.926 11.5472C32.8253 11.4358 33.0997 12.5973 32.2343 12.8278C28.1949 13.6063 23.871 15.1418 19.708 17.3031C9.99666 22.3599 3.57434 29.6498 3.79452 34.8638C3.88259 34.8562 3.96219 34.8485 4.05026 34.8485C5.97255 34.8485 7.52563 36.2558 7.52563 37.9806ZM22.1249 3.96275C22.2841 -0.0591973 28.9164 -0.0591973 29.0756 3.96275C29.0756 4.01006 29.0671 4.05891 29.0671 4.09859C34.8272 6.78498 38.8226 15.9278 38.8226 26.4933C38.8226 30.8419 38.1519 35.0073 36.8901 38.6247C36.7834 38.9819 36.3702 39.1971 35.9721 39.0857C35.5741 38.9743 35.3641 38.5851 35.5047 38.2355C36.714 34.7463 37.366 30.7075 37.366 26.4933C37.366 16.5399 33.6959 7.98622 28.6861 5.4021C27.0094 8.31896 22.1147 7.24594 22.1232 3.96275H22.1249ZM25.0701 24.274C23.7118 24.5441 22.8464 25.7454 23.1377 26.9695C23.429 28.1936 24.7704 28.9736 26.1287 28.7111C29.411 28.0746 28.3423 23.639 25.0701 24.2755V24.274Z" fill="white"/>
</svg>
