<svg width="56" height="47" viewBox="0 0 56 47" fill="none" xmlns="http://www.w3.org/2000/svg">
<path d="M55.4286 31.4883V34.7141C55.4286 40.5601 50.4684 46.6063 44.4208 46.6063H11.865C5.74132 46.6063 0.857178 40.6589 0.857178 34.7116V31.4883H55.4286Z" fill="#ECEFF1"/>
<path d="M21.8633 0.143227C24.5509 0.130738 27.1834 1.13444 29.4402 3.03214C31.6971 4.92983 33.4809 7.63967 34.5745 10.8317C35.7612 9.77552 37.1669 9.21344 38.605 9.22011C40.4415 9.19548 42.2115 10.1125 43.5317 11.7725C44.8519 13.4325 45.6159 15.702 45.6584 18.0892C48.1867 18.4689 50.5377 19.9678 52.3167 22.3343C54.0957 24.7009 55.1945 27.7911 55.4286 31.0862V32.2949C55.4286 38.2423 50.4684 44.1871 44.3428 44.1871H11.865C5.74132 44.1871 0.857178 38.2398 0.857178 32.2949V31.0862C0.985345 28.3665 1.7209 25.7545 2.97373 23.5702C4.22655 21.3859 5.94222 19.7241 7.91053 18.7886V18.2818C7.90306 15.8969 8.25886 13.5336 8.95743 11.3284C9.656 9.12316 10.6835 7.1196 11.9806 5.43331C13.2778 3.74702 14.8189 2.41136 16.5151 1.50341C18.2113 0.595455 20.029 0.133171 21.8633 0.143227Z" fill="white"/>
<path d="M14.5001 21.2065L10.8574 37.736H13.0266L13.8803 33.7044H17.6009L18.3805 37.736H20.5419L17.1312 21.2065H14.5001ZM14.1902 31.596L15.7494 23.4314L17.2228 31.596H14.1902Z" fill="#0082CB"/>
<path d="M29.6922 34.2086H29.6162L27.9108 21.2065H25.7397L24.1123 34.1073H24.0343L22.329 21.2065H20.3137L22.7948 37.8348H25.1199L26.7473 25.3395H26.8253L28.4527 37.8348H30.8558L33.4148 21.2065H31.3216L29.6922 34.2086Z" fill="#0082CB"/>
<path d="M40.0024 28.7678L38.6069 28.1622C37.2115 27.4578 36.6696 26.6418 36.6696 25.2405C36.6438 24.9225 36.6696 24.601 36.7454 24.2969C36.8213 23.9927 36.9455 23.7127 37.11 23.475C37.2745 23.2373 37.4756 23.0472 37.7002 22.9171C37.9249 22.787 38.1681 22.7198 38.414 22.7198C38.6599 22.7198 38.9031 22.787 39.1277 22.9171C39.3524 23.0472 39.5535 23.2373 39.718 23.475C39.8824 23.7127 40.0066 23.9927 40.0825 24.2969C40.1584 24.601 40.1842 24.9225 40.1583 25.2405V25.542H42.1755V25.1391C42.1755 23.4261 41.8656 20.8059 38.5329 20.8059C38.0243 20.7196 37.5074 20.7794 37.0185 20.9809C36.5296 21.1825 36.0807 21.5209 35.7033 21.9725C35.3259 22.424 35.0292 22.9776 34.8342 23.5944C34.6392 24.2111 34.5505 24.8759 34.5745 25.542C34.5305 26.5962 34.7808 27.6356 35.2792 28.469C35.7777 29.3024 36.4908 29.8737 37.2875 30.0779L38.6829 30.6836C39.2195 30.7752 39.7096 31.1273 40.0549 31.6692C40.4001 32.2111 40.5749 32.9028 40.5442 33.6053C40.5522 33.9344 40.507 34.262 40.4115 34.567C40.3159 34.8719 40.1722 35.1474 39.9895 35.3755C39.8069 35.6036 39.5895 35.7794 39.3513 35.8913C39.1131 36.0032 38.8595 36.0489 38.6069 36.0253C37.2115 36.0253 36.5137 35.0176 36.5137 33.0022V32.5993H34.4985V33.0022C34.4346 33.684 34.4908 34.3758 34.663 35.0252C34.8352 35.6745 35.1189 36.2644 35.4924 36.7501C35.866 37.2358 36.3197 37.6045 36.8191 37.8284C37.3185 38.0523 37.8506 38.1255 38.375 38.0424C40.9321 38.0424 42.6374 36.6309 42.6374 33.1036C42.6483 32.0972 42.3923 31.1167 41.9124 30.327C41.4324 29.5374 40.7579 28.9867 40.0024 28.7678Z" fill="#0082CB"/>
</svg>
