<svg width="61" height="43" viewBox="0 0 61 43" fill="none" xmlns="http://www.w3.org/2000/svg">
<path d="M30.0817 42.6109C29.8848 42.6109 29.688 42.5469 29.5098 42.4404L27.7098 41.2257C27.438 41.0552 27.5692 40.9913 27.663 40.9593C28.0192 40.8208 28.0942 40.7888 28.4786 40.5331C28.5161 40.5118 28.5723 40.5225 28.6098 40.5438L29.9973 41.4814C30.0442 41.5134 30.1192 41.5134 30.1661 41.4814L35.5848 37.9226C35.6317 37.8906 35.6692 37.8267 35.6692 37.7521V30.6451C35.6692 30.5706 35.6411 30.5066 35.5848 30.4747L30.1661 26.9265C30.1192 26.8945 30.0536 26.8945 29.9973 26.9265L24.5786 30.4747C24.5223 30.5066 24.4942 30.5812 24.4942 30.6451V37.7521C24.4942 37.816 24.5317 37.88 24.5786 37.9119L26.0598 38.8816C26.8661 39.3397 27.363 38.7963 27.363 38.2636V31.2418C27.363 31.1459 27.4286 31.0607 27.5223 31.0607H28.2067C28.2911 31.0607 28.3661 31.1353 28.3661 31.2418V38.2636C28.3661 39.4889 27.7848 40.1815 26.763 40.1815C26.4536 40.1815 26.2005 40.1815 25.5161 39.7979L24.0911 38.8709C23.7442 38.6365 23.5192 38.2103 23.5192 37.7521V30.6451C23.5192 30.187 23.7348 29.7501 24.0911 29.5263L29.5098 25.9675C29.8567 25.7438 30.3067 25.7438 30.6442 25.9675L36.063 29.5263C36.4098 29.7608 36.6348 30.187 36.6348 30.6451V37.7521C36.6348 38.2103 36.4192 38.6472 36.063 38.8709L30.6442 42.4297C30.4848 42.5469 30.288 42.6109 30.0817 42.6109ZM34.4598 35.5998C34.4598 34.2679 33.6723 33.9163 32.0036 33.6605C30.3161 33.4048 30.1473 33.277 30.1473 32.8294C30.1473 32.4565 30.288 31.9664 31.5348 31.9664C32.6505 31.9664 33.063 32.2434 33.2317 33.0958C33.2505 33.1811 33.3067 33.2343 33.3817 33.2343H34.0848C34.1317 33.2343 34.1692 33.213 34.1973 33.1811C34.2255 33.1384 34.2442 33.0958 34.2348 33.0425C34.1223 31.5721 33.2692 30.8902 31.5348 30.8902C29.988 30.8902 29.0692 31.6361 29.0692 32.8721C29.0692 34.2253 29.988 34.5875 31.4692 34.758C33.2411 34.9605 33.3817 35.2482 33.3817 35.6424C33.3817 36.335 32.8942 36.6227 31.7505 36.6227C30.3161 36.6227 29.9973 36.2178 29.8942 35.408C29.8848 35.3227 29.8192 35.2588 29.7348 35.2588H29.0317C28.9473 35.2588 28.8723 35.3334 28.8723 35.44C28.8723 36.4735 29.3692 37.7095 31.7411 37.7095C33.4755 37.7095 34.4598 36.9423 34.4598 35.5998ZM39.5692 30.2616C39.5692 30.9115 39.1005 31.4443 38.5286 31.4443C37.9567 31.4443 37.488 30.9115 37.488 30.2616C37.488 29.5903 37.9755 29.0788 38.5286 29.0788C39.0911 29.0682 39.5692 29.5903 39.5692 30.2616ZM39.4005 30.2616C39.4005 29.7075 39.0067 29.2706 38.5192 29.2706C38.0411 29.2706 37.6473 29.7075 37.6473 30.2616C37.6473 30.8156 38.0411 31.2631 38.5192 31.2631C39.0067 31.2525 39.4005 30.805 39.4005 30.2616ZM38.9786 30.9222H38.7348C38.7255 30.8582 38.688 30.5173 38.688 30.5066C38.6692 30.432 38.6505 30.3894 38.5661 30.3894H38.3598V30.9222H38.1348V29.5903H38.538C38.6786 29.5903 38.9505 29.5903 38.9505 29.9419C38.9505 30.187 38.8098 30.2402 38.7255 30.2722C38.8848 30.2829 38.8942 30.4001 38.9223 30.5706C38.9317 30.6771 38.9505 30.8582 38.9786 30.9222ZM38.7161 29.9845C38.7161 29.8034 38.6036 29.8034 38.5473 29.8034H38.3598V30.1763H38.538C38.688 30.1763 38.7161 30.0591 38.7161 29.9845ZM13.3005 14.8009C13.3005 14.5132 13.1692 14.2575 12.9536 14.119L7.20671 10.3577C7.11296 10.2938 7.00046 10.2618 6.88796 10.2512H6.83171C6.71921 10.2512 6.61609 10.2938 6.51296 10.3577L0.775464 14.119C0.559839 14.2575 0.428589 14.5239 0.428589 14.8009L0.437964 24.9233C0.437964 25.0618 0.503589 25.1897 0.606714 25.2643C0.709839 25.3389 0.841089 25.3389 0.953589 25.2643L4.36609 23.0374C4.58171 22.8882 4.71296 22.6325 4.71296 22.3554V17.6245C4.71296 17.3475 4.84421 17.0811 5.05984 16.9426L6.51296 15.9943C6.62546 15.9197 6.73796 15.8878 6.85984 15.8878C6.98171 15.8878 7.10359 15.9197 7.20671 15.9943L8.65984 16.9426C8.87546 17.0811 9.00671 17.3475 9.00671 17.6245V22.3554C9.00671 22.6325 9.13796 22.8988 9.35359 23.0374L12.7661 25.2643C12.8692 25.3389 13.0098 25.3389 13.113 25.2643C13.2161 25.2004 13.2817 25.0618 13.2817 24.9233L13.3005 14.8009ZM44.7255 3.75155V22.5472C44.7255 22.8243 44.5942 23.0906 44.3786 23.2292L38.6317 27.0011C38.4161 27.1396 38.1536 27.1396 37.938 27.0011L32.1911 23.2292C31.9755 23.0906 31.8442 22.8243 31.8442 22.5472V15.0034C31.8442 14.7263 31.9755 14.46 32.1911 14.3215L37.938 10.5495C38.1536 10.411 38.4161 10.411 38.6317 10.5495L40.0661 11.4872C40.2255 11.5937 40.4317 11.4552 40.4317 11.2528V1.23693C40.4317 0.938587 40.713 0.746794 40.9473 0.895967L44.3692 3.06962C44.5848 3.19748 44.7255 3.46386 44.7255 3.75155ZM40.413 17.486C40.413 17.4114 40.3755 17.3475 40.3286 17.3155L38.3598 16.0156C38.3036 15.9837 38.238 15.9837 38.1817 16.0156L36.213 17.3155C36.1567 17.3475 36.1286 17.4114 36.1286 17.486V20.0752C36.1286 20.1498 36.1661 20.2137 36.213 20.2457L38.1817 21.535C38.238 21.5669 38.3036 21.5669 38.3505 21.535L40.3192 20.2457C40.3755 20.2137 40.4036 20.1498 40.4036 20.0752V17.486H40.413ZM60.0817 17.4114C60.2973 17.2729 60.4286 17.0065 60.4286 16.7295V14.9075C60.4286 14.6305 60.2973 14.3641 60.0817 14.2256L54.3723 10.4536C54.1567 10.3151 53.8942 10.3151 53.6786 10.4536L47.9317 14.2256C47.7161 14.3641 47.5848 14.6305 47.5848 14.9075V22.4513C47.5848 22.739 47.7161 22.9947 47.9317 23.1333L53.6411 26.8306C53.8473 26.9691 54.1098 26.9691 54.3255 26.8306L57.7755 24.6463C58.0098 24.4971 58.0098 24.1135 57.7755 23.9644L51.9911 20.1924C51.8786 20.1179 51.813 19.99 51.813 19.8515V17.486C51.813 17.3475 51.8786 17.2197 51.9911 17.1451L53.7911 15.9623C53.8942 15.8878 54.0348 15.8878 54.138 15.9623L55.938 17.1451C56.0411 17.2197 56.1161 17.3475 56.1161 17.486V19.34C56.1161 19.6384 56.4067 19.8302 56.6411 19.681L60.0817 17.4114ZM52.8348 17.7844C52.7973 17.8163 52.7692 17.859 52.7692 17.9122V19.3613C52.7692 19.4146 52.7973 19.4679 52.8348 19.4892L53.9411 20.2137C53.9786 20.2457 54.0348 20.2457 54.0723 20.2137L55.1786 19.4892C55.2161 19.4572 55.2442 19.4146 55.2442 19.3613V17.9122C55.2442 17.859 55.2161 17.8057 55.1786 17.7844L54.0723 17.0598C54.0348 17.0279 53.9786 17.0279 53.9411 17.0598L52.8348 17.7844ZM29.0036 22.4194V14.9181C29.0036 14.6411 28.8536 14.3747 28.638 14.2362L22.9098 10.4856C22.713 10.3577 22.4411 10.3364 22.2161 10.4856L16.488 14.2362C16.2723 14.3747 16.1223 14.6305 16.1223 14.9181V22.4194C16.1223 22.7177 16.3005 22.9734 16.4973 23.1013L22.2348 26.8519C22.4598 27.0011 22.7223 26.9904 22.9286 26.8519L28.6473 23.1013C28.8161 22.9947 28.938 22.8136 28.9848 22.6005C28.9942 22.5472 29.0036 22.4833 29.0036 22.4194ZM22.038 9.11108L21.963 9.16436H22.0661L22.038 9.11108ZM29.1817 22.9841L29.1442 22.9095V23.0054L29.1817 22.9841Z" fill="white"/>
</svg>
