<svg width="50" height="50" viewBox="0 0 50 50" fill="none" xmlns="http://www.w3.org/2000/svg">
<path d="M21.7709 21.8334C21.8024 22.466 21.6112 23.0896 21.2306 23.5958C20.85 24.1021 20.304 24.4589 19.6875 24.6043C18.6 24.9254 17.4658 25.0593 16.3334 25.0001C16.0417 25.0001 16.0209 24.8126 16.0209 24.6043V19.2918C16.0209 19.1459 16.1667 18.8959 16.25 18.8959C17.4418 18.7625 18.6477 18.8401 19.8125 19.1251C20.3988 19.2858 20.9125 19.6419 21.2686 20.1344C21.6248 20.627 21.802 21.2264 21.7709 21.8334Z" fill="white"/>
<path d="M35.4166 4.1665H14.5833C11.8206 4.1665 9.1711 5.26397 7.2176 7.21748C5.26409 9.17098 4.16663 11.8205 4.16663 14.5832V35.4165C4.16663 38.1792 5.26409 40.8287 7.2176 42.7822C9.1711 44.7357 11.8206 45.8332 14.5833 45.8332H35.4166C38.1793 45.8332 40.8288 44.7357 42.7823 42.7822C44.7358 40.8287 45.8333 38.1792 45.8333 35.4165V14.5832C45.8333 11.8205 44.7358 9.17098 42.7823 7.21748C40.8288 5.26397 38.1793 4.1665 35.4166 4.1665ZM22.9166 27.0832C21.8652 27.751 20.6602 28.1383 19.4166 28.2082H16.625C16.0416 28.2082 16.0416 28.2082 16.0416 28.7707V33.604C16.0416 34.0207 15.9166 34.1457 15.5 34.1457H12.75C12.3541 34.1457 12.25 33.9998 12.25 33.6248V16.0623C12.25 15.6457 12.25 15.5207 12.7708 15.5207H19.2916C20.4819 15.5529 21.6439 15.8901 22.6666 16.4998C23.5499 16.9975 24.2852 17.7206 24.7976 18.5954C25.31 19.4702 25.5811 20.4652 25.5833 21.479C25.7038 22.5687 25.5181 23.6704 25.047 24.6604C24.576 25.6503 23.8382 26.4894 22.9166 27.0832ZM35.25 33.9582C33.4382 34.664 31.4545 34.8021 29.5625 34.354C28.9944 34.229 28.4389 34.0623 27.8958 33.854C27.812 33.8147 27.7384 33.7567 27.6806 33.6845C27.6228 33.6122 27.5824 33.5277 27.5625 33.4373V30.2915C28.2291 30.5415 28.8541 30.8332 29.5 31.0415C30.5823 31.3874 31.7283 31.4871 32.8541 31.3332C33.0791 31.2915 33.2944 31.2221 33.5 31.1248C33.6221 31.0714 33.7282 30.9872 33.808 30.8804C33.8879 30.7737 33.9387 30.6481 33.9554 30.5158C33.9722 30.3836 33.9545 30.2493 33.9038 30.126C33.8532 30.0027 33.7715 29.8946 33.6666 29.8123C33.19 29.4824 32.6803 29.2031 32.1458 28.979C31.2916 28.5623 30.4166 28.229 29.6041 27.7498C28.8705 27.3929 28.2716 26.809 27.8963 26.0846C27.521 25.3602 27.3893 24.5342 27.5208 23.729C27.6268 22.9541 27.9487 22.2247 28.4497 21.6241C28.9508 21.0236 29.6107 20.5762 30.3541 20.3332C31.694 19.8801 33.1237 19.7586 34.5208 19.979C35.1875 19.979 35.8333 20.229 36.5 20.354C36.8541 20.354 36.9791 20.6457 36.9583 20.9998V23.4373C36.9583 23.8957 36.8541 23.9373 36.4375 23.7707C35.1363 23.1682 33.698 22.9237 32.2708 23.0623C32.0686 23.0859 31.8716 23.1422 31.6875 23.229C31.5625 23.2781 31.4525 23.3589 31.3684 23.4636C31.2843 23.5683 31.2289 23.6931 31.2079 23.8257C31.1868 23.9583 31.2008 24.0941 31.2484 24.2196C31.2959 24.3452 31.3755 24.4561 31.4791 24.5415C32.0819 24.9429 32.7139 25.2901 33.375 25.5832C34.1666 25.979 35 26.2915 35.7708 26.729C36.4703 27.0473 37.0497 27.5808 37.4245 28.2517C37.7992 28.9226 37.9498 29.6957 37.8541 30.4582C37.7883 31.2188 37.5061 31.9447 37.041 32.5501C36.5758 33.1556 35.9471 33.6152 35.2291 33.8748L35.25 33.9582Z" fill="white"/>
</svg>
