<svg width="50" height="50" viewBox="0 0 50 50" fill="none" xmlns="http://www.w3.org/2000/svg">
<path d="M36.875 18.125C38.4375 17.1875 39.5313 15.7813 40.1563 14.0625C40.7813 12.3437 40.7813 10.625 40.3125 8.90625C39.8438 7.1875 38.75 5.78125 37.3438 4.6875C35.9375 3.59375 34.0625 3.125 32.3438 3.125H17.9688C16.0938 3.125 14.375 3.75 12.9688 4.6875C11.25 5.78125 10.3125 7.34375 9.68752 8.90625C9.21877 10.625 9.21877 12.5 9.84377 14.0625C10.4688 15.7813 11.5625 17.1875 13.125 18.125C12.0313 18.9063 10.9375 19.8437 10.3125 21.0938C9.68752 22.3438 9.37502 23.5938 9.37502 25C9.37502 26.4062 9.68752 27.6562 10.3125 28.9062C10.9375 30.1563 11.875 31.0937 13.125 31.875C11.5625 32.8125 10.4688 34.2187 9.84377 35.9375C9.21877 37.6563 9.21877 39.375 9.68752 41.0937C10.1563 42.8125 11.25 44.2188 12.8125 45.3125C14.2188 46.4062 16.0938 46.875 17.8125 46.875C20 46.875 22.1875 45.9375 23.9063 44.5312C25.4688 42.9688 26.4063 40.9375 26.4063 38.75V31.25C27.9688 32.6562 30 33.4375 32.0313 33.4375H32.1875C34.0625 33.4375 35.7813 32.8125 37.1875 31.875C38.5938 30.7812 39.6875 29.375 40.1563 27.6563C40.625 25.9375 40.625 24.2187 40 22.5C39.5313 20.4687 38.2813 19.0625 36.875 18.125ZM26.4063 5.78125H32.1875C32.9688 5.78125 33.75 5.78125 34.375 6.09375C35.1563 6.40625 35.7813 6.71875 36.25 7.34375C36.875 7.8125 37.1875 8.4375 37.5 9.21875C37.8125 10 37.9688 10.625 37.9688 11.4063C37.9688 12.1875 37.8125 12.9687 37.5 13.5937C37.1875 14.2187 36.7188 14.8437 36.25 15.4687C35.625 15.9375 35 16.4062 34.375 16.7187C33.5938 17.0312 32.8125 17.0312 32.1875 17.0312H26.4063V5.78125ZM17.8125 5.78125H23.5938V16.7187H17.8125C16.4063 16.7187 15 16.0938 14.0625 15C12.9688 14.0625 12.5 12.6562 12.5 11.25C12.5 9.84375 13.125 8.4375 14.0625 7.5C15 6.5625 16.4063 5.9375 17.8125 5.78125ZM12.1875 25C12.1875 23.5938 12.8125 22.1875 13.9063 21.0938C15 20 16.4063 19.5312 17.9688 19.5312H23.75V30.4688H17.9688C16.4063 30.4688 15 29.8438 13.9063 28.9062C12.8125 27.8125 12.1875 26.4062 12.1875 25ZM23.5938 38.5938C23.5938 40.1563 22.9688 41.5625 21.875 42.5C20.7813 43.5938 19.375 44.0625 17.8125 44.0625C17.0313 44.0625 16.25 44.0625 15.625 43.75C14.8438 43.4375 14.2188 43.125 13.75 42.6562C13.125 42.1875 12.8125 41.5625 12.5 40.7813C12.1875 40.1563 12.0313 39.375 12.0313 38.5938C12.0313 37.8125 12.1875 37.0312 12.5 36.4062C12.8125 35.7812 13.2813 35.1563 13.75 34.5313C14.375 34.0625 15 33.5937 15.625 33.2812C16.4063 32.9687 17.1875 32.9688 17.8125 32.9688H23.5938V38.5938ZM32.1875 30.4688H32.0313C30.625 30.4688 29.2188 29.8437 28.2813 28.75C27.3438 27.6562 26.7188 26.4062 26.7188 25C26.7188 23.5938 27.3438 22.1875 28.2813 21.25C29.2188 20.1563 30.625 19.6875 32.0313 19.5312H32.1875C32.9688 19.5312 33.75 19.5312 34.375 19.8437C35.1563 20.1562 35.7813 20.4687 36.25 21.0938C36.875 21.5625 37.1875 22.1875 37.5 22.9687C37.8125 23.5937 37.9688 24.375 37.9688 25.1563C37.9688 25.9375 37.8125 26.7187 37.5 27.3438C37.1875 27.9688 36.7188 28.5938 36.25 29.2188C35.625 29.6875 35 30.1562 34.375 30.4688H32.1875Z" fill="white"/>
</svg>
