<svg width="56" height="48" viewBox="0 0 56 48" fill="none" xmlns="http://www.w3.org/2000/svg">
<path d="M28.1442 28.3048C30.8315 28.3048 33.0101 26.1935 33.0101 23.5889C33.0101 20.9844 30.8315 18.873 28.1442 18.873C25.4568 18.873 23.2783 20.9844 23.2783 23.5889C23.2783 26.1935 25.4568 28.3048 28.1442 28.3048Z" fill="white"/>
<path d="M14.5198 32.9651L13.443 32.6983C5.445 30.7406 0.857178 27.4118 0.857178 23.5783C0.857178 19.7422 5.44773 16.4159 13.443 14.4582L14.5198 14.194L14.8224 15.2271C15.6307 17.9316 16.6665 20.5674 17.9191 23.108L18.1508 23.5783L17.9191 24.0485C16.6651 26.5927 15.6265 29.2294 14.8224 31.9348L14.5198 32.9651ZM12.9469 16.8624C6.87069 18.5216 3.13882 21.0526 3.13882 23.5783C3.13882 26.0987 6.86797 28.6323 12.9469 30.2888C13.6911 27.9956 14.5907 25.7526 15.632 23.5783C14.5831 21.4003 13.6861 19.1567 12.9469 16.8624ZM41.766 32.9651L41.4661 31.9295C40.6556 29.2244 39.619 26.5878 38.3667 24.0459L38.135 23.5783L38.3667 23.1054C39.6206 20.5664 40.6538 17.9271 41.4661 15.2218L41.766 14.1914L42.8427 14.4556C50.8435 16.4133 55.4286 19.7395 55.4286 23.5783C55.4286 27.4144 50.8408 30.7406 42.8427 32.6983L41.766 32.9651ZM40.6483 23.5783C41.7387 25.8662 42.6465 28.1172 43.3389 30.2888C49.4178 28.6323 53.1497 26.0987 53.1497 23.5783C53.1497 21.0526 49.4205 18.5242 43.3389 16.8624C42.5954 19.156 41.6966 21.3995 40.6483 23.5783Z" fill="white"/>
<path d="M12.9306 16.8522L12.6307 15.8218C10.3791 8.13902 11.0606 2.63582 14.5035 0.717764C17.8701 -1.17123 23.2866 1.06122 28.9593 6.70179L29.7335 7.47324L28.9593 8.24205C26.9445 10.2729 25.103 12.4588 23.4529 14.7783L23.1448 15.2062L22.6105 15.2485C19.709 15.4694 16.8308 15.9191 14.0046 16.5933L12.9306 16.8522ZM17.2431 2.24481C16.6325 2.24481 16.0927 2.37427 15.6375 2.6279C13.3804 3.88811 12.9824 8.2764 14.5362 14.1997C16.965 13.6792 19.4157 13.3067 21.8854 13.098C23.3152 11.1325 24.8751 9.25894 26.555 7.4891C23.0031 4.14174 19.6501 2.24481 17.2431 2.24481ZM39.0428 47.1158C35.8043 47.1158 31.6444 44.7486 27.3265 40.4528L26.555 39.684L27.3265 38.9178C29.3416 36.8837 31.184 34.6952 32.8357 32.3737L33.141 31.951L33.6698 31.9008C36.5724 31.6838 39.4517 31.2358 42.2785 30.5613L43.3553 30.2971L43.6578 31.3301C45.8986 39.0076 45.2198 44.5187 41.7824 46.4368C40.9477 46.8953 40.002 47.1297 39.0428 47.1158ZM29.7335 39.6655C33.2828 43.0128 36.6384 44.9124 39.0428 44.9124C39.6561 44.9124 40.1958 44.7803 40.6484 44.5293C42.9082 43.2665 43.3089 38.8702 41.7496 32.947C39.3235 33.4701 36.8701 33.8452 34.395 34.054C32.9712 36.0225 31.414 37.8972 29.7335 39.6655Z" fill="white"/>
<path d="M43.3553 16.8508L42.2785 16.5892C39.4519 15.913 36.5726 15.4632 33.6699 15.2445L33.141 15.1995L32.8357 14.7715C31.1863 12.4508 29.3438 10.2648 27.3265 8.23535L26.555 7.46654L27.3265 6.70037C32.9965 1.06244 38.4103 -1.17001 41.7824 0.716345C45.2226 2.63705 45.9068 8.14024 43.6579 15.8204L43.3553 16.8508ZM34.395 13.0965C36.9956 13.3211 39.4598 13.6989 41.7497 14.1982C43.3062 8.27498 42.9082 3.88669 40.6484 2.62384C38.4022 1.36362 34.1742 3.29225 29.7335 7.48768C31.4127 9.25779 32.972 11.1283 34.395 13.0965ZM17.2431 47.1144C16.2839 47.1276 15.3383 46.8933 14.5035 46.4354C11.0606 44.5173 10.3791 39.0088 12.628 31.3287L12.9224 30.2957L13.9992 30.5599C16.627 31.2019 19.522 31.6536 22.6078 31.8993L23.1367 31.9495L23.4447 32.3723C25.0912 34.6919 26.934 36.8821 28.9512 38.9164L29.7254 39.6825L28.9512 40.4514C24.636 44.7498 20.4761 47.1144 17.2431 47.1144ZM14.5362 32.9482C12.9824 38.8715 13.3804 43.2677 15.6375 44.5305C17.8864 45.7723 22.1008 43.8568 26.555 39.6641C24.8757 37.8937 23.3159 36.0202 21.8854 34.0552C19.4132 33.8433 16.9581 33.4735 14.5362 32.9482Z" fill="white"/>
<path d="M28.1442 34.3355C26.2715 34.3355 24.3496 34.2588 22.4197 34.103L21.8854 34.0581L21.5773 33.6301C20.489 32.1133 19.465 30.5541 18.5079 28.9564C17.5578 27.3544 16.6748 25.716 15.8609 24.045L15.632 23.5774L15.8609 23.1045C16.676 21.4348 17.5565 19.7968 18.5079 18.1957C19.4538 16.6211 20.4869 15.0465 21.5773 13.5195L21.8854 13.0968L22.4197 13.0492C26.2275 12.7401 30.0554 12.7401 33.8633 13.0492L34.3922 13.0994L34.7002 13.5221C36.8804 16.5571 38.7953 19.7632 40.4248 23.1071L40.651 23.5801L40.4248 24.0477C38.7998 27.3939 36.8847 30.6004 34.7002 33.6327L34.3922 34.0607L33.8633 34.1056C31.9388 34.2562 30.0142 34.3355 28.1442 34.3355ZM23.1448 31.9471C26.5114 32.1928 29.7771 32.1928 33.1409 31.9471C35.0188 29.2819 36.6882 26.4842 38.1349 23.5774C36.6933 20.668 35.0237 17.8699 33.1409 15.2077C29.8138 14.9593 26.4719 14.9593 23.1448 15.2077C21.2604 17.8689 19.5908 20.6671 18.1508 23.5774C19.6007 26.4826 21.2699 29.2801 23.1448 31.9471Z" fill="white"/>
</svg>
