<svg width="50" height="52" viewBox="0 0 50 52" fill="none" xmlns="http://www.w3.org/2000/svg">
<path d="M35.9223 0C33.9182 0.0152491 31.9257 0.305695 30.0007 0.863196L29.867 0.906678C28.6559 0.696843 27.4306 0.578945 26.2017 0.553991C23.6684 0.51051 21.4943 1.12248 19.7422 2.14672C18.0142 1.55246 14.4326 0.51051 10.6577 0.721477C8.03429 0.863196 5.16448 1.66036 3.03226 3.90854C0.91936 6.14866 -0.203116 9.62077 0.0303974 14.3522C0.0964255 15.6519 0.466827 17.7728 1.08685 20.5315C1.69881 23.2837 2.56362 26.5046 3.64584 29.4485C4.72805 32.3843 5.9085 35.0255 7.75568 36.8195C8.67685 37.7165 9.95232 38.4815 11.4532 38.4154C12.5033 38.372 13.4502 37.9114 14.2731 37.2318C14.6741 37.76 15.1041 37.9855 15.489 38.1964C15.985 38.4654 16.4537 38.649 16.9497 38.7681C17.8386 38.9936 19.3573 39.2883 21.1352 38.9855C21.7826 38.869 22.4136 38.6749 23.0146 38.4074L23.0903 40.5122C23.1821 42.7346 23.2433 44.7896 23.9036 46.5933C24.0131 46.888 24.3078 48.3969 25.4641 49.7384C26.63 51.0799 28.8927 51.9109 31.4855 51.3569C33.3069 50.9704 35.6292 50.2667 37.1736 48.07C38.7003 45.9056 39.3879 42.7942 39.5232 37.7439C39.5554 37.4669 39.5989 37.2414 39.6392 37.0224L39.9999 37.0562H40.0434C41.9888 37.14 44.1033 36.863 45.8732 36.04C47.4321 35.3186 48.6158 34.589 49.479 33.2894C49.6899 32.9689 49.9315 32.576 49.9927 31.9044C50.0587 31.2425 49.6722 30.1925 49.0345 29.7078C47.7606 28.7351 46.9554 29.1039 46.0906 29.2891C45.2436 29.4716 44.3816 29.5751 43.5155 29.5983C45.9972 25.4224 47.7751 20.9776 48.7913 17.0497C49.3952 14.7259 49.7318 12.5872 49.756 10.7175C49.7898 8.84776 49.632 7.19545 48.5143 5.76216C45.0084 1.29157 40.0837 0.0483132 36.2766 0.0080522H35.9239L35.9223 0ZM35.8208 1.37693C39.4202 1.34311 44.0228 2.34963 47.3274 6.57543C48.0747 7.52398 48.2937 8.90734 48.2679 10.6192C48.2421 12.3311 47.9249 14.3683 47.3451 16.6085C46.2307 20.955 44.1065 26.0022 41.1304 30.542C41.2328 30.6192 41.3456 30.6815 41.4654 30.7272C42.0854 30.9865 43.5026 31.2039 46.337 30.6257C47.0504 30.4727 47.5722 30.3745 48.1165 30.7852C48.2487 30.8966 48.353 31.0373 48.4212 31.1961C48.4894 31.3549 48.5196 31.5274 48.5095 31.6999C48.4802 31.9614 48.3818 32.2104 48.2244 32.4214C47.6785 33.2411 46.5995 34.0238 45.2145 34.6696C43.9906 35.238 42.2272 35.5328 40.6779 35.5505C39.8904 35.5585 39.1689 35.4989 38.5537 35.3057L38.5215 35.2992C38.2848 37.5716 37.7421 42.0679 37.3878 44.1132C37.1043 45.7639 36.6083 47.0828 35.6614 48.0636C34.7128 49.054 33.3794 49.6402 31.5757 50.0267C29.3452 50.505 27.7251 49.9929 26.6784 49.112C25.6316 48.2311 25.1517 47.0571 24.8666 46.3436C24.6669 45.8492 24.5655 45.2115 24.4656 44.3547C24.356 43.3318 24.2829 42.3053 24.2466 41.2772C24.1806 39.4735 24.1548 37.6698 24.1806 35.8581C23.2501 36.7112 22.0941 37.2791 20.8502 37.4943C19.367 37.7455 18.0496 37.4943 17.2621 37.301C16.8736 37.2019 16.4988 37.0553 16.1461 36.8646C15.7773 36.6713 15.4326 36.4539 15.1991 36.0159C15.0646 35.765 15.0229 35.4747 15.0816 35.1962C15.1512 34.9132 15.314 34.6619 15.5438 34.4827C15.9705 34.1365 16.5342 33.9465 17.3797 33.7693C18.9241 33.4488 19.4684 33.233 19.7953 32.9705C20.0723 32.7531 20.3928 32.3006 20.9436 31.6371C20.9436 31.6129 20.9436 31.5791 20.9355 31.5534C19.9376 31.523 18.9607 31.2587 18.0834 30.782C17.7662 31.1169 16.1123 32.8626 14.1089 35.2783C13.2698 36.2832 12.339 36.863 11.3502 36.9065C10.3694 36.9467 9.47724 36.4539 8.72355 35.7228C7.21457 34.2541 6.00513 31.7289 4.95673 28.8768C3.90834 26.0247 3.06125 22.8473 2.44928 20.1466C1.84536 17.4362 1.48462 15.2557 1.43309 14.2073C1.20763 9.73672 2.25603 6.72681 4.05006 4.82166C5.84409 2.91651 8.30323 2.20469 10.7028 2.06297C15.0059 1.8198 19.098 3.32073 19.9209 3.63959C21.5137 2.55738 23.5686 1.88744 26.1356 1.9277C27.3521 1.94559 28.5626 2.10337 29.743 2.39795L29.7865 2.37218C30.3059 2.19231 30.8349 2.04176 31.3712 1.92125C32.8287 1.5792 34.319 1.39616 35.816 1.37532L35.8208 1.37693ZM36.1477 2.81022H35.8305C34.6065 2.82471 33.3713 2.96965 32.1732 3.22893C34.8481 4.41261 36.8692 6.23079 38.2945 8.06025C39.2849 9.31801 40.0981 10.7014 40.7182 12.1781C40.963 12.7499 41.1224 13.2265 41.2061 13.5953C41.2561 13.7805 41.2818 13.9384 41.2979 14.0978C41.2979 14.1815 41.306 14.2669 41.2641 14.4086C41.2641 14.4167 41.2561 14.4344 41.2561 14.4424C41.3253 16.3218 40.8551 17.5941 40.7939 19.3897C40.7536 20.6909 41.0886 22.2176 41.1723 23.886C41.248 25.453 41.0564 27.173 40.0402 28.8671C40.1239 28.9686 40.1996 29.0684 40.2834 29.178C42.976 24.9328 44.9214 20.2448 45.9537 16.2429C46.5077 14.0865 46.7992 12.1331 46.825 10.5919C46.8507 9.04745 46.5657 7.92337 46.1953 7.45473C43.3094 3.77165 39.4105 2.83115 36.1461 2.80861L36.1477 2.81022ZM25.8554 3.3626C23.3238 3.37065 21.5024 4.13561 20.1206 5.28385C18.6922 6.47558 17.7372 8.09407 17.1172 9.76249C16.3699 11.7337 16.1106 13.6453 16.0092 14.9465L16.043 14.9288C16.9371 14.4281 17.8972 14.0557 18.8951 13.8224C19.9693 13.5696 21.1352 13.4939 22.182 13.9062C23.2401 14.3072 24.1033 15.2718 24.4221 16.7228C25.9343 23.7186 23.9535 26.3194 23.224 28.2809C22.947 28.9944 22.7038 29.7158 22.5105 30.4534C22.6023 30.4357 22.6957 30.4099 22.7875 30.4019C23.3077 30.3616 23.7087 30.5291 23.9454 30.629C24.6846 30.9382 25.1871 31.5759 25.4641 32.3054C25.5321 32.5046 25.5822 32.7094 25.6139 32.9174C25.6416 33.0044 25.6562 33.095 25.6573 33.1863C25.5728 35.8613 25.5808 38.5384 25.6815 41.2128C25.733 42.3707 25.8087 43.3853 25.9005 44.1905C25.9923 44.9876 26.1179 45.5996 26.2033 45.809C26.4787 46.4966 26.8813 47.3936 27.6124 48.0056C28.3339 48.6192 29.3726 49.0218 31.2778 48.6192C32.9285 48.2584 33.9447 47.7705 34.6227 47.0667C35.3039 46.3533 35.7049 45.3725 35.9641 43.8716C36.3587 41.6154 37.1382 35.0722 37.2316 33.8482C37.1913 32.9158 37.3234 32.204 37.6261 31.658C37.9273 31.104 38.3975 30.761 38.8098 30.5758C39.0095 30.484 39.2027 30.426 39.3622 30.3745C39.1935 30.1392 39.02 29.9072 38.842 29.6788C38.2542 28.9656 37.771 28.1723 37.4071 27.3227C37.2397 26.9665 37.0549 26.6187 36.8531 26.2808C36.5697 25.7703 36.2089 25.1229 35.8305 24.3933C35.0752 22.9504 34.2539 21.1902 33.8255 19.4783C33.3987 17.7664 33.3407 15.9981 34.431 14.7565C35.3957 13.6485 37.0979 13.1895 39.6376 13.4488C39.5619 13.2217 39.5216 13.0285 39.3944 12.7354C38.8167 11.3786 38.0636 10.1036 37.1543 8.94277C34.9979 6.18409 31.5 3.44795 26.1083 3.35616L25.8554 3.3626ZM11.5982 3.47211C11.3269 3.47182 11.0557 3.48042 10.7849 3.49788C8.61243 3.6251 6.56556 4.25156 5.09684 5.80403C3.62973 7.36454 2.66669 9.90582 2.87443 14.1252C2.91792 14.9304 3.26094 17.1609 3.85519 19.8197C4.45267 22.4801 5.29815 25.6092 6.31434 28.376C7.3273 31.1346 8.55446 33.5422 9.72847 34.6824C10.3147 35.2445 10.8252 35.4796 11.2874 35.4635C11.7496 35.4377 12.3116 35.1688 12.9993 34.3475C14.2472 32.8417 15.5426 31.376 16.8837 29.9526C15.9326 29.1247 15.2052 28.0707 14.7684 26.8879C14.3316 25.705 14.1995 24.4312 14.3843 23.1839C14.6017 21.5992 14.6355 20.1128 14.6017 18.9388C14.5775 17.7986 14.5002 17.0449 14.5002 16.5666V16.5151L14.4922 16.5006C14.4922 14.0253 14.9302 11.5775 15.7676 9.25359C16.3715 7.64959 17.2621 6.03271 18.602 4.71376C17.2863 4.27733 14.9447 3.6251 12.4131 3.49788C12.1423 3.48047 11.8711 3.47187 11.5998 3.47211H11.5982ZM38.2188 14.8112C36.7613 14.837 35.9464 15.2154 35.5116 15.7002C34.9061 16.3975 34.8481 17.6214 35.2266 19.132C35.6018 20.641 36.3845 22.3271 37.114 23.7298C37.4747 24.4336 37.8274 25.0633 38.1109 25.5738C38.4056 26.094 38.6149 26.4547 38.7406 26.7736C38.8581 27.0586 38.9934 27.3098 39.1271 27.545C39.6891 26.3532 39.7906 25.1873 39.731 23.9634C39.6553 22.4544 39.3042 20.91 39.3622 19.351C39.4218 17.5216 39.7825 16.3299 39.8083 14.9207C39.2823 14.8512 38.7525 14.8146 38.222 14.8112H38.2188ZM20.5394 15.0657C20.0949 15.0657 19.6504 15.1236 19.214 15.2251C18.349 15.4331 17.5163 15.7576 16.7387 16.1898C16.477 16.3314 16.2276 16.4946 15.9931 16.6777L15.9415 16.718C15.9593 17.0385 16.0172 17.7921 16.043 18.9162C16.0688 20.1402 16.043 21.6991 15.8095 23.3868C15.2893 27.0602 17.9562 30.0975 21.0853 30.1056C21.2705 29.3503 21.57 28.5853 21.8728 27.7817C22.744 25.4321 24.4559 23.7218 23.013 17.0288C22.7795 15.9385 22.3092 15.494 21.6618 15.2428C21.3016 15.116 20.9211 15.0565 20.5394 15.0673V15.0657ZM37.5408 15.5005H37.6503C37.784 15.5085 37.9192 15.5182 38.0352 15.5504C38.1399 15.5709 38.2398 15.6108 38.3299 15.668C38.3717 15.6931 38.4077 15.727 38.4352 15.7673C38.4627 15.8076 38.4812 15.8534 38.4893 15.9015V15.9192C38.4889 16.0222 38.4629 16.1235 38.4136 16.2139C38.3503 16.3296 38.2717 16.4363 38.1801 16.5312C37.9636 16.7733 37.67 16.9331 37.3491 16.9837C37.0387 17.0235 36.7245 16.946 36.4682 16.7663C36.3667 16.6926 36.2738 16.6078 36.1912 16.5135C36.1188 16.4372 36.0715 16.3405 36.0559 16.2365C36.0465 16.1372 36.0766 16.0383 36.1397 15.9611C36.2143 15.8849 36.2994 15.8198 36.3925 15.7678C36.6003 15.6503 36.8773 15.5665 37.1978 15.523C37.3137 15.5085 37.4313 15.4989 37.5408 15.4908V15.5005ZM20.7471 15.8612C20.8566 15.8612 20.9838 15.8693 21.1014 15.8854C21.4364 15.9369 21.7214 16.0207 21.9469 16.1543C22.0574 16.2082 22.1547 16.2857 22.2319 16.3814C22.3156 16.4823 22.3576 16.6113 22.3495 16.7421C22.3266 16.8661 22.271 16.9818 22.1884 17.0771C22.1001 17.1847 21.9958 17.2781 21.8792 17.3541C21.6002 17.5546 21.2553 17.6415 20.9146 17.5973C20.5694 17.5418 20.2532 17.3709 20.0176 17.1125C19.9186 17.0062 19.8337 16.8877 19.7647 16.7598C19.6896 16.6458 19.6571 16.509 19.6729 16.3733C19.7068 16.1479 19.9 16.0207 20.0852 15.9546C20.2962 15.8854 20.5216 15.8628 20.7471 15.8709V15.8612ZM40.1996 31.629H40.1916C39.8824 31.7466 39.6231 31.7901 39.404 31.8915C39.1824 31.9752 39.0002 32.139 38.8935 32.3505C38.7502 32.5953 38.6423 33.0317 38.6745 33.7758C38.7714 33.8454 38.8799 33.8973 38.995 33.9288C39.3557 34.0383 39.9758 34.114 40.6634 34.1043C42.0307 34.0866 43.7168 33.7693 44.6138 33.349C45.3469 33.0092 46.0276 32.5662 46.6349 32.0333C43.6411 32.6452 41.9566 32.4858 40.9146 32.059C40.6587 31.9483 40.4187 31.8037 40.2012 31.629H40.1996ZM22.955 31.8303H22.9115C22.7956 31.8384 22.6345 31.8819 22.3076 32.2346C21.5604 33.072 21.3011 33.6002 20.6891 34.0882C20.0691 34.5826 19.2719 34.8435 17.6695 35.1704C17.3278 35.2316 16.995 35.3354 16.6791 35.4796C16.7371 35.5311 16.7371 35.5489 16.8289 35.5891C17.0656 35.7244 17.3652 35.8339 17.61 35.8999C18.2976 36.0674 19.4201 36.2687 20.6038 36.0674C21.7778 35.8661 23.0017 35.3025 24.0517 33.837C24.2369 33.5857 24.2514 33.2073 24.1016 32.8047C23.9519 32.4117 23.6233 32.059 23.3979 31.9672C23.2568 31.9016 23.1072 31.856 22.9534 31.832L22.955 31.8303Z" fill="white"/>
</svg>
