<svg width="60" height="50" viewBox="0 0 60 50" fill="none" xmlns="http://www.w3.org/2000/svg">
<path d="M41.015 5.2774C40.7225 5.2774 40.5275 5.32449 40.3306 5.38278V5.41865H40.3606C40.4975 5.72132 40.7225 5.95673 40.8969 6.23699C41.0338 6.55311 41.15 6.8782 41.2775 7.19432L41.3169 7.14724C41.5513 6.9477 41.6694 6.63382 41.6694 6.15403C41.5719 6.01278 41.5513 5.86257 41.465 5.73253C41.3675 5.53299 41.1519 5.42986 41.015 5.2774ZM14.4229 44.7211H12.1091C12.0391 40.3174 11.8145 35.9192 11.436 31.5381H11.4172L7.89212 44.7211H6.12394L2.62696 31.5381H2.59696C2.3252 35.9257 2.16262 40.3219 2.10944 44.7211H0C0.114221 39.1927 0.456523 33.6743 1.02566 28.1863H3.89637L7.23585 40.3312H7.2546L10.6241 28.1863H13.3579C13.9636 34.2128 14.3254 39.7236 14.4323 44.7211H14.4229ZM24.462 32.5201C23.5245 38.6385 22.2738 43.0889 20.7419 45.8555C19.5306 47.9922 18.2124 49.0661 16.7761 49.0661C16.3955 49.0661 15.9267 48.9249 15.3605 48.6446V47.1739C15.6436 47.2209 15.9661 47.2546 16.328 47.2546C17.0012 47.2546 17.5393 47.0214 17.9499 46.5887C18.4375 46.0506 18.6831 45.4453 18.6831 44.7794C18.6831 44.313 18.4975 43.3781 18.1074 41.9545L15.578 32.5201H17.8543L19.6712 39.5734C20.0819 41.1854 20.2581 42.2952 20.1794 42.9365C21.1844 39.7595 21.8782 36.2799 22.2701 32.5201H24.462ZM55.2823 44.7211H48.7009V28.1863H50.9172V42.6898H55.2823V44.7211ZM46.9815 45.1202L44.4426 43.6248C44.6676 43.4028 44.8814 43.1584 45.0783 42.8782C46.1621 41.3715 46.7002 39.1183 46.7002 36.1521C46.7002 30.6749 44.9039 27.9441 41.3094 27.9441C39.5506 27.9441 38.1743 28.6324 37.188 30.0225C36.1136 31.5403 35.5661 33.7823 35.5661 36.7373C35.5661 39.6452 36.0443 41.7706 37.0024 43.136C37.8818 44.3512 39.2 44.97 40.9682 44.97C41.6226 44.97 42.2282 44.8758 42.7757 44.6785L46.0871 46.99L46.9946 45.1224L46.9815 45.1202ZM38.75 41.4052C38.1837 40.3312 37.9099 38.6026 37.9099 36.2194C37.9099 32.0515 38.9656 29.9732 41.0844 29.9732C42.1888 29.9732 43.0082 30.4754 43.5257 31.4686C44.0826 32.5537 44.3658 34.2599 44.3658 36.6185C44.3658 40.811 43.3007 42.9252 41.1913 42.9252C40.0775 42.9252 39.2675 42.423 38.7406 41.4298L38.75 41.4052ZM34.608 40.1452C34.608 41.5464 34.1786 42.7033 33.3085 43.5889C32.4498 44.4879 31.306 44.9431 29.8509 44.9431C28.4934 44.9431 27.194 44.4296 25.9152 43.4006L26.5115 41.9769C27.6046 42.6315 28.5909 42.9589 29.4909 42.9589C30.3216 42.9589 30.976 42.7369 31.4447 42.3042C31.9135 41.8603 32.1966 41.2415 32.1966 40.459C32.1966 39.477 31.621 38.6363 30.5747 37.9368C29.6072 37.2956 27.6646 35.975 27.6646 35.975C26.609 35.0535 26.0914 34.0715 26.0914 32.4483C26.0914 31.1054 26.4815 30.0314 27.2634 29.2131C28.0546 28.3724 29.0597 27.9643 30.3103 27.9643C31.5546 27.9514 32.7744 28.378 33.8167 29.1907L33.2804 30.6144C32.4426 30.1732 31.5388 29.9391 30.6235 29.9261C29.9109 29.9261 29.3634 30.1368 28.9828 30.5449C28.6021 30.9529 28.3678 31.4663 28.3678 32.1098C28.3678 33.0918 28.9547 33.9325 30.0272 34.6545C31.0135 35.2957 32.9954 36.6521 32.9954 36.6521C34.0792 37.5624 34.6173 38.5444 34.6173 40.1429L34.608 40.1452ZM58.0574 22.6418C56.7186 22.6059 55.6836 22.7696 54.8155 23.2135C54.5717 23.3301 54.1704 23.3301 54.1311 23.7045C54.2679 23.8682 54.2867 24.126 54.4048 24.3457C54.6092 24.7425 54.9523 25.2806 55.2748 25.5609C55.6274 25.8882 55.978 26.2155 56.3399 26.4958C56.9943 26.9756 57.7274 27.2558 58.3706 27.7334C58.7325 28.0136 59.1037 28.3746 59.4637 28.6683C59.6494 28.8208 59.7656 29.0898 60 29.1817V29.1234C59.8819 28.9486 59.8537 28.6907 59.7356 28.4822C59.5687 28.2827 59.4037 28.1078 59.2369 27.9105C58.7478 27.1342 58.1615 26.4528 57.4987 25.8904C56.9624 25.4577 55.7905 24.8502 55.5749 24.1148L55.5449 24.0677C55.9067 24.0318 56.3361 23.8682 56.6868 23.7516C57.253 23.5767 57.7799 23.6103 58.3668 23.4354C58.6361 23.3519 58.9031 23.2584 59.1675 23.1552V22.9803C58.8656 22.6194 58.6406 22.1284 58.3274 21.7898C57.4646 20.887 56.5436 20.0669 55.573 19.3371C55.0461 18.929 54.3823 18.6712 53.8254 18.3326C53.6304 18.216 53.2892 18.1578 53.1804 17.9582C52.8785 17.5143 52.7023 16.9426 52.4866 16.4157C51.9962 15.2759 51.5402 14.1153 51.1197 12.9361C50.8178 12.1537 50.6416 11.3824 50.2703 10.6582C48.5509 7.25934 46.6758 5.20566 43.8051 3.18561C43.1901 2.76411 42.4476 2.58924 41.6657 2.36728C41.2457 2.34486 40.835 2.30898 40.415 2.28656C40.1413 2.14532 39.8787 1.77314 39.6444 1.58481C38.6881 0.860645 36.2261 -0.693068 35.5324 1.36286C35.0823 2.66995 36.1961 3.94341 36.588 4.59808C36.8712 5.06441 37.233 5.58008 37.4374 6.0935C37.5555 6.44325 37.5837 6.80646 37.7018 7.16742C37.9662 8.04405 38.2193 9.0238 38.5718 9.84214C38.7575 10.2636 38.9525 10.7053 39.1868 11.0797C39.3237 11.3017 39.5581 11.3959 39.6069 11.7568C39.3725 12.1649 39.3537 12.7612 39.2262 13.2522C38.6206 15.5167 38.855 18.308 39.7044 19.9783C39.9781 20.4805 40.6119 21.5791 41.4632 21.1576C42.2151 20.7966 42.0501 19.6621 42.2638 18.6577C42.3126 18.4133 42.2826 18.2609 42.382 18.0972V18.1443C42.6257 18.7048 42.8601 19.2429 43.0757 19.8034C43.5839 20.7854 44.4914 21.801 45.2433 22.4781C45.6446 22.8391 45.9558 23.4601 46.4546 23.6798V23.6215H46.4152C46.3083 23.4467 46.1714 23.3637 46.0346 23.2247C45.7179 22.8496 45.424 22.448 45.1552 22.023C44.4614 20.902 43.837 19.6644 43.2895 18.3909C43.0257 17.7617 42.7849 17.1192 42.5676 16.465C42.4701 16.2319 42.4701 15.8687 42.3032 15.7521C42.0501 16.1848 41.6788 16.557 41.5025 17.1063C41.18 17.9582 41.15 19.0209 41.0244 20.1195C40.9663 20.1419 40.9944 20.1195 40.9663 20.1666C40.43 20.0029 40.2444 19.3483 40.0475 18.7878C39.5394 17.3641 39.4606 15.0862 39.8919 13.4518C40.01 13.0303 40.5069 11.712 40.3119 11.3151C40.205 10.9295 39.8731 10.7076 39.6969 10.4049C39.4719 10.0305 39.2469 9.55292 39.0912 9.13142C38.69 8.01042 38.495 6.77283 38.0562 5.65182C37.8612 5.1384 37.5087 4.60032 37.2255 4.12277C36.903 3.58469 36.5524 3.2013 36.3068 2.56906C36.2186 2.3471 36.1024 1.98613 36.2393 1.75072C36.2693 1.58706 36.3368 1.52876 36.4736 1.48168C36.6893 1.25972 37.3137 1.53997 37.5293 1.66777C38.1443 1.95923 38.6618 2.23948 39.1793 2.66098C39.4137 2.86052 39.6669 3.23269 39.9706 3.33807H40.3231C40.8594 3.47931 41.4557 3.37394 41.9544 3.56003C42.8432 3.89857 43.6439 4.38957 44.3658 4.92541C46.5734 6.61992 48.3687 8.98 49.5709 11.768C49.7753 12.2232 49.8634 12.6447 50.0491 13.1222C50.3903 14.1154 50.831 15.1064 51.1816 16.0525C51.5322 16.9986 51.866 17.956 52.3723 18.7384C52.6254 19.1599 53.6229 19.3797 54.0804 19.5904C54.4123 19.7765 54.9298 19.9402 55.2224 20.1509C55.798 20.5724 56.3643 21.0499 56.9024 21.5163C57.1762 21.7382 58.0068 22.2405 58.0556 22.6373L58.0574 22.6418Z" fill="white"/>
</svg>
