<svg width="50" height="50" viewBox="0 0 50 50" fill="none" xmlns="http://www.w3.org/2000/svg">
<g clip-path="url(#clip0_85_211)">
<path d="M16.0416 0C10.4854 0 8.47081 0.579167 6.43748 1.66667C4.42589 2.73417 2.78179 4.3819 1.71873 6.39583C0.63123 8.43125 0.052063 10.4521 0.052063 16.025V18.1042C0.052063 18.5187 0.214563 18.9125 0.50623 19.2062L4.19373 22.9021C4.23732 22.9465 4.29316 22.9768 4.3541 22.9893C4.41504 23.0017 4.47831 22.9957 4.53581 22.972C4.59331 22.9483 4.64242 22.9079 4.67686 22.8561C4.71131 22.8043 4.72951 22.7434 4.72915 22.6812V16.7062C4.72915 12.5271 5.16248 11.0125 5.97915 9.48333C6.7775 7.97445 8.00965 6.7394 9.51665 5.9375C11.0396 5.12083 12.5521 4.6875 16.7229 4.6875H21.2312C21.6458 4.6875 22.0437 4.52083 22.3354 4.22708L26.0229 0.535417C26.067 0.492076 26.0973 0.43662 26.1099 0.376069C26.1224 0.315518 26.1168 0.252595 26.0936 0.195267C26.0704 0.137938 26.0307 0.0887824 25.9795 0.0540224C25.9284 0.0192625 25.8681 0.00046156 25.8062 0L16.0416 0ZM31.8854 0C31.4687 0 31.0687 0.166667 30.7771 0.458333L27.0916 4.15625C27.034 4.21377 27.0011 4.29151 27 4.37292C27 4.54583 27.1416 4.68542 27.3125 4.68542H33.275C37.4458 4.68542 38.9583 5.12292 40.4833 5.9375C41.9903 6.7394 43.2225 7.97445 44.0208 9.48333C44.8333 11.0125 45.2687 12.5271 45.2687 16.7062V21.2271C45.2687 21.6396 45.4312 22.0396 45.7229 22.3312L49.4104 26.0271C49.454 26.0715 49.5098 26.1018 49.5708 26.1143C49.6317 26.1267 49.695 26.1207 49.7525 26.097C49.81 26.0733 49.8591 26.0329 49.8935 25.9811C49.928 25.9293 49.9462 25.8684 49.9458 25.8062V16.025C49.9458 10.4521 49.3667 8.43125 48.2792 6.39375C47.216 4.38166 45.5727 2.73548 43.5625 1.66875C41.5312 0.579167 39.5166 0 33.9583 0H31.8854ZM14.0854 7.8125C13.2657 7.81305 12.454 7.97512 11.697 8.28945C10.9399 8.60379 10.2522 9.06422 9.67309 9.64445C9.09402 10.2247 8.63497 10.9133 8.32215 11.671C8.00933 12.4287 7.84888 13.2407 7.84998 14.0604V25.9167C7.85034 26.3299 8.01439 26.7262 8.30623 27.0187L11.9937 30.7187C12.0372 30.7627 12.0927 30.7927 12.1533 30.8049C12.2138 30.8171 12.2767 30.811 12.3337 30.7872C12.3908 30.7635 12.4395 30.7233 12.4735 30.6718C12.5076 30.6202 12.5255 30.5597 12.525 30.4979V15.6229C12.5251 15.2457 12.5936 14.8716 12.7271 14.5187C12.8771 14.1021 13.1187 13.7167 13.4521 13.3833L18.2604 8.33958C18.3024 8.29508 18.3305 8.23921 18.341 8.17891C18.3516 8.11861 18.3442 8.05653 18.3198 8.00039C18.2954 7.94425 18.255 7.89651 18.2037 7.86311C18.1524 7.82971 18.0924 7.81211 18.0312 7.8125H14.0854ZM24.0896 7.8125C23.6729 7.8125 23.2771 7.97917 22.9854 8.27083L19.2916 11.9667C19.249 12.0107 19.2201 12.0663 19.2087 12.1266C19.1972 12.1868 19.2036 12.2491 19.227 12.3058C19.2505 12.3625 19.29 12.4111 19.3407 12.4456C19.3915 12.4801 19.4512 12.499 19.5125 12.5H34.3541C34.743 12.5014 35.1097 12.5687 35.4541 12.7021C35.8708 12.8521 36.2583 13.0937 36.5916 13.425L41.6187 18.2437C41.6628 18.2869 41.7187 18.3161 41.7793 18.3276C41.8399 18.3391 41.9025 18.3324 41.9594 18.3083C42.0162 18.2843 42.0646 18.2439 42.0985 18.1924C42.1324 18.1409 42.1503 18.0804 42.15 18.0187V14.0604C42.1514 13.2405 41.9911 12.4283 41.6784 11.6704C41.3657 10.9124 40.9067 10.2236 40.3276 9.6431C39.7485 9.06266 39.0607 8.60203 38.3035 8.28757C37.5463 7.9731 36.7345 7.81096 35.9146 7.81042L24.0896 7.8125ZM37.7833 19.1937C37.7004 19.1937 37.621 19.2267 37.5623 19.2853C37.5037 19.3439 37.4708 19.4234 37.4708 19.5062V34.3792C37.472 34.7561 37.4049 35.1302 37.2729 35.4833C37.1169 35.9108 36.8695 36.299 36.5479 36.6208L31.7396 41.6625C31.6964 41.7066 31.6672 41.7624 31.6557 41.823C31.6442 41.8837 31.6509 41.9463 31.675 42.0031C31.699 42.0599 31.7394 42.1084 31.7909 42.1423C31.8424 42.1762 31.9029 42.1941 31.9646 42.1937H35.9146C36.7347 42.1927 37.5466 42.03 38.3038 41.7151C39.061 41.4002 39.7488 40.9391 40.3279 40.3584C40.9069 39.7776 41.3659 39.0884 41.6785 38.3302C41.9911 37.572 42.1514 36.7597 42.15 35.9396V24.0854C42.1502 23.6715 41.9861 23.2743 41.6937 22.9812L38.0062 19.2854C37.977 19.2561 37.9422 19.233 37.904 19.2172C37.8657 19.2015 37.8247 19.1935 37.7833 19.1937ZM0.366646 23.8812C0.283766 23.8812 0.204281 23.9142 0.145675 23.9728C0.0870703 24.0314 0.0541463 24.1109 0.0541463 24.1937V33.975C0.0541463 39.5458 0.633313 41.5687 1.72081 43.6062C2.78273 45.618 4.42549 47.2637 6.4354 48.3292C8.46873 49.4167 10.4833 50 16.0437 50H18.1146C18.5312 50 18.9271 49.8333 19.2187 49.5417L22.9083 45.8437C22.9523 45.8003 22.9823 45.7448 22.9945 45.6842C23.0067 45.6236 23.0005 45.5608 22.9768 45.5038C22.9531 45.4467 22.9129 45.398 22.8613 45.3639C22.8098 45.3299 22.7493 45.312 22.6875 45.3125H16.7229C12.5521 45.3125 11.0396 44.8792 9.51456 44.0625C8.00757 43.2606 6.77542 42.0255 5.97706 40.5167C5.16456 38.9875 4.72915 37.4729 4.72915 33.2937V28.7687C4.72768 28.3559 4.5629 27.9605 4.27081 27.6687L0.58748 23.9729C0.528931 23.9143 0.449499 23.8813 0.366646 23.8812ZM45.5812 27.0062C45.4984 27.0062 45.4189 27.0392 45.3603 27.0978C45.3017 27.1564 45.2687 27.2359 45.2687 27.3187V33.2937C45.2687 37.4729 44.8354 38.9875 44.0187 40.5167C43.2204 42.0255 41.9882 43.2606 40.4812 44.0625C38.9583 44.8792 37.4458 45.3125 33.275 45.3125H28.7666C28.5608 45.3121 28.357 45.3524 28.1668 45.4311C27.9766 45.5097 27.8038 45.6252 27.6583 45.7708L23.9729 49.4646C23.944 49.494 23.9212 49.5288 23.9058 49.5671C23.8905 49.6053 23.8828 49.6463 23.8833 49.6875C23.8833 49.8604 24.0187 50 24.1916 50H33.9583C39.5208 50 41.5333 49.4167 43.5667 48.3292C45.5766 47.2637 47.2193 45.618 48.2812 43.6062C49.3687 41.5687 49.9479 39.5479 49.9479 33.975V31.8958C49.947 31.4823 49.7822 31.086 49.4896 30.7937L45.8042 27.0979C45.7456 27.0393 45.6641 27.0063 45.5812 27.0062ZM8.16456 31.6687C8.12335 31.6685 8.08249 31.6764 8.04434 31.6919C8.00618 31.7075 7.97148 31.7305 7.94224 31.7595C7.913 31.7886 7.8898 31.8231 7.87397 31.8612C7.85813 31.8992 7.84998 31.94 7.84998 31.9812V35.9354C7.84888 36.7554 8.0093 37.5675 8.32207 38.3254C8.63483 39.0834 9.09383 39.7723 9.67284 40.3529C10.2519 40.9334 10.9395 41.3942 11.6967 41.709C12.4538 42.0238 13.2655 42.1864 14.0854 42.1875H25.9104C26.3271 42.1875 26.7229 42.0208 27.0146 41.7292L30.7083 38.0312C30.7659 37.9737 30.7988 37.896 30.8 37.8146C30.8 37.7317 30.7671 37.6522 30.7085 37.5936C30.6498 37.535 30.5704 37.5021 30.4875 37.5021H15.6458C15.2685 37.5013 14.8944 37.4321 14.5416 37.2979C14.1144 37.1426 13.7262 36.8958 13.4041 36.575L8.37706 31.7562C8.31939 31.7007 8.24466 31.6693 8.16456 31.6687Z" fill="white"/>
</g>
<defs>
<clipPath id="clip0_85_211">
<rect width="50" height="50" fill="white"/>
</clipPath>
</defs>
</svg>
