<svg width="50" height="50" viewBox="0 0 50 50" fill="none" xmlns="http://www.w3.org/2000/svg">
<path d="M3.68812 3.91541C4.77319 2.80435 6.07498 1.91564 7.51712 1.3014C8.95927 0.687157 10.5128 0.35975 12.0864 0.338379L38.3298 0.338379C41.1876 0.338379 43.8563 1.56118 46.3125 3.91541C47.4559 4.93077 48.3731 6.16411 49.0074 7.53903C49.6416 8.91396 49.9795 10.4012 50 11.9085V37.8371C50 40.5583 48.836 43.08 46.5 45.4099C45.4059 46.5368 44.0928 47.4403 42.637 48.068C41.1813 48.6957 39.612 49.035 38.0205 49.0661H12.2318C9.08353 49.0383 6.05077 47.9069 3.68812 45.8789C1.43972 43.8871 0.213172 41.0075 0.00067453 37.1457V11.971C-0.0167538 10.4483 0.303739 8.94002 0.940197 7.54936C1.57666 6.1587 2.51404 4.91856 3.68812 3.91389V3.91541ZM16.7083 20.762L33.2268 41.1918H37.6455C38.6642 41.0654 39.4767 40.7882 40.0783 40.3192C40.7048 39.8517 41.1204 39.1786 41.4142 38.2893V28.2572C41.5845 26.3309 42.8142 25.1324 45.1001 24.7045C42.8142 23.8959 41.586 22.6335 41.4142 20.9295V11.3481C41.1704 10.4512 40.7314 9.72181 40.0783 9.17513C39.4524 8.61737 38.6534 8.27921 37.808 8.21424H33.333V28.9227L16.7083 8.19902H12.0599C10.8958 8.3985 10.0412 8.80966 9.45523 9.41268C8.87868 10.0233 8.49431 10.9979 8.33181 12.3136V22.1645C7.59901 23.567 6.46152 24.4015 4.89905 24.703C6.66308 25.0274 7.81151 25.9395 8.33181 27.4623V37.1472C8.374 38.2665 8.74587 39.1771 9.45523 39.9309C10.1474 40.6603 10.9115 41.009 11.7505 40.9466H16.6645L16.7083 20.762Z" fill="white"/>
</svg>
