<svg width="98" height="147" viewBox="0 0 98 147" fill="none" xmlns="http://www.w3.org/2000/svg">
<path d="M14.6 118C27.4 106.933 37.4667 97.8667 44.8 90.8C52.2667 83.6 58.4667 76.1333 63.4 68.4C68.3333 60.6667 70.8 52.9333 70.8 45.2C70.8 37.2 68.8667 30.9333 65 26.4C61.2667 21.8667 55.3333 19.6 47.2 19.6C39.3333 19.6 33.2 22.1333 28.8 27.2C24.5333 32.1333 22.2667 38.8 22 47.2H1.49012e-07C0.4 32 4.93333 20.4 13.6 12.4C22.4 4.26666 33.5333 0.199996 47 0.199996C61.5333 0.199996 72.8667 4.2 81 12.2C89.2667 20.2 93.4 30.8667 93.4 44.2C93.4 53.8 90.9333 63.0667 86 72C81.2 80.8 75.4 88.7333 68.6 95.8C61.9333 102.733 53.4 110.8 43 120L34 128H97.4V147H0.200001V130.4L14.6 118Z" fill="#2DB1FF"/>
</svg>
