<svg width="98" height="151" viewBox="0 0 98 151" fill="none" xmlns="http://www.w3.org/2000/svg">
<path d="M2.6 40.2C3.4 27.8 8.13333 18.1333 16.8 11.2C25.6 4.26666 36.8 0.79999 50.4 0.79999C59.7333 0.79999 67.8 2.46666 74.6 5.8C81.4 9.13333 86.5333 13.6667 90 19.4C93.4667 25.1333 95.2 31.6 95.2 38.8C95.2 47.0667 93 54.1333 88.6 60C84.2 65.8667 78.9333 69.8 72.8 71.8V72.6C80.6667 75 86.8 79.4 91.2 85.8C95.6 92.0667 97.8 100.133 97.8 110C97.8 117.867 96 124.867 92.4 131C88.8 137.133 83.4667 142 76.4 145.6C69.3333 149.067 60.8667 150.8 51 150.8C36.6 150.8 24.7333 147.133 15.4 139.8C6.2 132.333 1.26667 121.667 0.6 107.8H22.6C23.1333 114.867 25.8667 120.667 30.8 125.2C35.7333 129.6 42.4 131.8 50.8 131.8C58.9333 131.8 65.2 129.6 69.6 125.2C74 120.667 76.2 114.867 76.2 107.8C76.2 98.4667 73.2 91.8667 67.2 88C61.3333 84 52.2667 82 40 82H34.8V63.2H40.2C51 63.0667 59.2 61.2667 64.8 57.8C70.5333 54.3333 73.4 48.8667 73.4 41.4C73.4 35 71.3333 29.9333 67.2 26.2C63.0667 22.3333 57.2 20.4 49.6 20.4C42.1333 20.4 36.3333 22.3333 32.2 26.2C28.0667 29.9333 25.6 34.6 24.8 40.2H2.6Z" fill="#2DB1FF"/>
</svg>
