<svg viewBox="0 0 51 50" fill="none" xmlns="http://www.w3.org/2000/svg">
<path d="M49.7259 6.7215L47.35 4.84009L49.7259 2.95906C50.0954 2.66609 50.2218 2.20947 50.0483 1.7952C49.8739 1.38054 49.4434 1.11275 48.9509 1.11275H39.1191V0.732803C39.1191 0.328064 38.7543 0 38.3043 0C37.8542 0 37.4894 0.328064 37.4894 0.732803V10.6159L30.7971 13.884C30.7601 13.6192 30.6719 13.3591 30.5324 13.1142L29.5894 11.4586C28.9421 10.3218 27.387 9.87129 26.1238 10.453L25.3946 10.7887C24.7821 11.071 24.3286 11.5501 24.1174 12.1391C23.9062 12.7277 23.9626 13.3553 24.2765 13.9057L25.2194 15.5617C25.4396 15.9481 25.7649 16.254 26.1476 16.4684C25.647 17.0746 25.4095 17.82 25.1651 18.5944L24.9895 19.1536C24.8669 19.5431 25.1189 19.9482 25.552 20.0581C25.6258 20.0771 25.7005 20.0859 25.7738 20.0859C26.1293 20.0859 26.4559 19.8753 26.5577 19.5522L26.7334 18.9941C27.0905 17.8616 27.3098 17.255 28.008 16.914L29.2598 16.3025L29.4142 16.2315C29.4655 16.2079 29.5135 16.1812 29.5623 16.1549L38.4837 11.7981C38.4273 12.801 37.8271 13.7486 36.8387 14.2883L31.0371 17.4583C31.0304 17.4618 31.0236 17.4652 31.0172 17.469L29.2114 18.4555C28.8271 18.6657 28.7045 19.1166 28.9383 19.4626C29.1584 19.7887 29.6165 19.9047 29.9903 19.7411L28.6201 23.4657L27.6186 23.835L24.8954 24.8386L25.6801 22.3438C25.8023 21.9543 25.5507 21.5492 25.1176 21.439C24.6841 21.3284 24.2341 21.5553 24.1115 21.9448L22.8716 25.8881C22.8555 25.9388 22.8448 25.9945 22.8423 26.0475L22.5178 31.4079C22.508 31.6124 22.5564 31.9988 22.4512 32.1983L18.8473 39.0167H16.2284C14.6941 39.0167 13.4462 40.139 13.4462 41.5184V43.6337C13.0949 43.4891 12.7051 43.4082 12.2941 43.4082H5.64328C4.10943 43.4082 2.86147 44.5301 2.86147 45.9099V48.5344H0.905131C0.45507 48.5344 0.090271 48.8625 0.090271 49.2672C0.090271 49.6719 0.45507 50 0.905131 50H48.9501C49.4001 50 49.7649 49.6719 49.7649 49.2672C49.7649 48.8625 49.4001 48.5344 48.9501 48.5344H46.8308V29.6459C46.8308 28.2665 45.5829 27.1442 44.049 27.1442H39.1191V14.36C40.0227 13.2587 40.3573 11.8153 39.9378 10.4435C39.8721 10.228 39.7003 10.051 39.4712 9.96361C39.3588 9.9205 39.2383 9.90143 39.1191 9.90562V8.56781H48.9505C49.4434 8.56781 49.8739 8.30002 50.0479 7.88574C50.2218 7.47147 50.0954 7.01447 49.7259 6.7215ZM25.6687 12.5893C25.7463 12.373 25.9126 12.1967 26.1374 12.0934L26.8666 11.7577C27.004 11.6943 27.1508 11.6642 27.2958 11.6642C27.6394 11.6642 27.9716 11.8332 28.1387 12.1265L29.0821 13.7825C29.3022 14.1693 29.1597 14.6381 28.7682 14.875L28.5026 15.0043L27.9423 15.2626C27.4787 15.4762 26.9077 15.3107 26.6702 14.8933L25.7268 13.2378C25.6118 13.0356 25.591 12.8052 25.6687 12.5893ZM24.0313 39.2422C23.7543 39.1285 23.4531 39.0541 23.1367 39.0278L24.0313 37.9593V39.2422ZM27.9003 33.3374C28.2922 32.9151 28.4004 32.4219 28.4878 32.0244C28.5098 31.9298 28.912 29.9545 28.912 29.9545C28.912 29.9545 29.2925 30.1678 29.3323 30.183C29.3599 30.1941 29.3794 30.2185 29.3824 30.2471L29.8257 34.2995H27.0948L27.9003 33.3374ZM32.719 29.2927L32.031 34.296H31.463L31.0045 30.1037C30.9459 29.5666 30.5803 29.0977 30.0445 28.8647L29.225 28.3974L29.7709 25.6763C29.7709 25.6763 32.0709 28.1334 32.1243 28.196C32.6003 28.7525 32.7632 28.9753 32.719 29.2927ZM23.9172 32.8392C24.0818 32.3936 24.1581 31.9401 24.1454 31.4789L24.4415 26.59L28.2104 25.201L27.5253 28.6137C27.5232 28.6228 27.5211 28.6324 27.5198 28.6415L26.9531 31.4632C26.8793 31.7554 26.8148 32.1987 26.612 32.4394L21.1057 39.0167H20.6518L23.9172 32.8392ZM4.49119 45.9095C4.49119 45.3384 5.00785 44.8738 5.64328 44.8738H12.2941C12.9295 44.8738 13.4466 45.3384 13.4466 45.9095V48.5344H4.49119V45.9095ZM15.0759 45.9095V41.5184C15.0759 40.947 15.593 40.4823 16.2284 40.4823H22.8792C23.5146 40.4823 24.0313 40.947 24.0313 41.5184V48.5344H15.0763V45.9095H15.0759ZM45.2011 29.6459V48.5344H36.2461V44.1406C36.2461 43.7359 35.8813 43.4078 35.4313 43.4078C34.9808 43.4078 34.616 43.7359 34.616 44.1406V48.5344H25.661V36.8008C25.661 36.2297 26.1777 35.7651 26.8131 35.7651H33.4639C34.0993 35.7651 34.616 36.2297 34.616 36.8008V40.4743C34.616 40.8791 34.9808 41.2071 35.4309 41.2071C35.8813 41.2071 36.2457 40.8791 36.2457 40.4743V29.6459C36.2457 29.0745 36.7628 28.6098 37.3982 28.6098H38.2958C38.2983 28.6098 38.3013 28.6102 38.3043 28.6102C38.3068 28.6102 38.3098 28.6098 38.3123 28.6098H44.0486C44.684 28.6098 45.2011 29.0749 45.2011 29.6459ZM37.3982 27.1442C35.8644 27.1442 34.6164 28.2665 34.6164 29.6459V34.5249C34.3246 34.4051 34.0064 34.3292 33.6718 34.3071L34.3365 29.4731C34.4671 28.5309 33.9326 27.9064 33.416 27.3022C33.3613 27.2381 30.1939 23.856 30.1939 23.856L32.1371 18.5726L37.4894 15.6483V27.1442H37.3982ZM39.1191 7.10182V2.57874H47.7399L45.8832 4.04892C45.6304 4.24919 45.4853 4.53758 45.4853 4.84047C45.4853 5.14336 45.6304 5.43175 45.8832 5.63202L47.7399 7.1022H39.1191V7.10182Z" fill="white"/>
</svg>
