<svg viewBox="0 0 41 50" fill="none" xmlns="http://www.w3.org/2000/svg">
<path d="M38.956 27.4804C38.0266 26.611 36.791 26.1323 35.4767 26.1323C34.1623 26.1323 32.9267 26.6106 31.9973 27.4804L28.4401 30.8083C28.4173 26.669 24.8111 23.3079 20.3812 23.3079C15.9509 23.3079 12.3451 26.669 12.3223 30.8079L8.76465 27.48C7.83527 26.611 6.59964 26.1323 5.28531 26.1323C3.97097 26.1323 2.73535 26.6106 1.80638 27.4804C-0.112313 29.2748 -0.112313 32.195 1.80597 33.9898L12.1061 43.6246V48.5352C12.1061 49.3443 12.8072 50.0001 13.6721 50.0001H27.0903C27.9552 50.0001 28.6562 49.3443 28.6562 48.5352V43.6246L38.9564 33.9898C40.8747 32.195 40.8747 29.2748 38.956 27.4804ZM20.3812 26.2375C23.0984 26.2375 25.309 28.3055 25.309 30.8476C25.309 33.3893 23.0984 35.4577 20.3812 35.4577C17.6636 35.4577 15.453 33.3893 15.453 30.8476C15.453 28.3055 17.6636 26.2375 20.3812 26.2375ZM36.7417 31.918L25.9831 41.9819C25.6895 42.257 25.5244 42.6293 25.5244 43.018V47.0704H15.238V43.018C15.238 42.6293 15.0729 42.2566 14.7793 41.9819L4.02032 31.918C3.32298 31.2657 3.32339 30.2041 4.02073 29.5518C4.35838 29.2359 4.80778 29.062 5.28531 29.062C5.76325 29.062 6.21224 29.2359 6.5503 29.5518L15.5366 37.9582C15.8302 38.2329 16.2286 38.3874 16.6437 38.3874H24.1183C24.5338 38.3874 24.9322 38.2329 25.2258 37.9582L34.2121 29.5518C34.5502 29.2359 34.9991 29.062 35.4771 29.062C35.9546 29.062 36.404 29.2355 36.7417 29.5518C37.439 30.2041 37.439 31.2657 36.7417 31.918Z" fill="white"/>
<path d="M13.4982 13.8805L12.3996 19.87C12.2989 20.4197 12.5403 20.9751 13.0223 21.3028C13.2951 21.4882 13.6185 21.5828 13.9431 21.5828C14.1923 21.5828 14.4423 21.5271 14.6719 21.4142L20.4222 18.5863L26.1726 21.4142C26.4014 21.5271 26.6518 21.5828 26.9009 21.5828C26.9026 21.5828 26.9042 21.5828 26.9054 21.5828C27.7691 21.5813 28.4693 20.9259 28.4693 20.118C28.4693 20.0054 28.4559 19.8959 28.4302 19.7903L27.3462 13.8805L31.9984 9.6386C32.4254 9.2495 32.5787 8.66737 32.3948 8.13675C32.2105 7.60651 31.7203 7.22008 31.1306 7.13997L24.7017 6.26602L21.8263 0.816345C21.5624 0.31662 21.018 0 20.4222 0C19.826 0 19.2816 0.31662 19.0178 0.816345L16.1428 6.26602L9.71384 7.13997C9.12376 7.22008 8.63399 7.60651 8.44967 8.13675C8.26534 8.66737 8.41908 9.2495 8.84605 9.6386L13.4982 13.8805ZM17.4078 9.05457C17.9179 8.98514 18.3584 8.68568 18.5867 8.25348L20.4222 4.77486L22.2573 8.25348C22.4853 8.68568 22.9261 8.98514 23.4363 9.05457L27.5404 9.61266L24.5708 12.3203C24.2017 12.6568 24.0333 13.1416 24.1201 13.6169L24.8212 17.44L21.151 15.6349C20.9226 15.5224 20.6722 15.4663 20.4222 15.4663C20.1718 15.4663 19.9215 15.5224 19.6935 15.6349L16.0229 17.44L16.7243 13.6169C16.8116 13.1416 16.6432 12.6568 16.2741 12.3203L13.3041 9.61227L17.4078 9.05457Z" fill="white"/>
</svg>
