<svg viewBox="0 0 41 50" fill="none" xmlns="http://www.w3.org/2000/svg">
<path d="M40.622 13.5663L40.6206 13.5274C40.6001 13.0471 40.5865 12.539 40.5783 11.9736C40.5399 9.21677 38.4796 6.93635 35.8875 6.78223C30.483 6.46142 26.3022 4.58688 22.7299 0.883196L22.6994 0.852297C21.5343 -0.284099 19.7766 -0.284099 18.6111 0.852297L18.5806 0.883196C15.0084 4.58688 10.8276 6.46142 5.4231 6.78261C2.83133 6.93635 0.770674 9.21677 0.732301 11.974C0.724412 12.5355 0.710425 13.0437 0.689984 13.5274L0.687832 13.6178C0.582755 19.4798 0.452216 26.7754 2.74669 33.3973C4.00833 37.0388 5.91907 40.2043 8.42549 42.8063C11.2801 45.7695 15.0191 48.122 19.5385 49.7982C19.6856 49.8528 19.8383 49.897 19.994 49.9302C20.2135 49.9767 20.4344 50 20.6553 50C20.8762 50 21.0975 49.9767 21.3166 49.9302C21.4722 49.897 21.6261 49.8524 21.7738 49.7974C26.2878 48.1182 30.0229 45.7645 32.875 42.8017C35.3804 40.1989 37.2911 37.0327 38.5538 33.3905C40.8569 26.7487 40.7267 19.4394 40.622 13.5663ZM35.966 32.3754C33.546 39.3547 28.606 44.1479 20.8636 47.028C20.836 47.0379 20.8066 47.0467 20.7761 47.0532C20.6962 47.0699 20.6148 47.0699 20.5337 47.0528C20.5036 47.0463 20.4742 47.0379 20.4469 47.028C12.6963 44.1532 7.75308 39.3627 5.33488 32.383C3.22007 26.2791 3.33985 19.582 3.44565 13.6739L3.44636 13.641C3.46788 13.1333 3.48223 12.6015 3.49012 12.0171C3.50733 10.793 4.42397 9.7802 5.57695 9.71192C8.63529 9.53034 11.3221 8.90167 13.7909 7.79007C16.2564 6.68 18.4462 5.11521 20.4846 3.00645C20.5882 2.91337 20.7227 2.91299 20.826 3.00645C22.8648 5.11521 25.0545 6.68 27.5197 7.79007C29.9885 8.90167 32.6753 9.53034 35.734 9.71192C36.8869 9.7802 37.8036 10.793 37.8204 12.0175C37.8287 12.605 37.843 13.1367 37.8645 13.641C37.97 19.5561 38.0869 26.2585 35.966 32.3754Z" fill="white"/>
<path d="M20.3608 12.5402C13.9013 12.5402 8.64636 18.1302 8.64636 25.0009C8.64636 31.8719 13.9013 37.462 20.3608 37.462C26.82 37.462 32.0753 31.8719 32.0753 25.0009C32.0753 18.1302 26.82 12.5402 20.3608 12.5402ZM20.3608 34.5277C15.4222 34.5277 11.4045 30.2541 11.4045 25.0009C11.4045 19.7477 15.4222 15.474 20.3608 15.474C25.2991 15.474 29.3168 19.7477 29.3168 25.0009C29.3168 30.2541 25.2991 34.5277 20.3608 34.5277Z" fill="white"/>
<path d="M23.9227 21.1324L18.4816 26.9201L17.0048 25.3492C16.4661 24.7762 15.5929 24.7762 15.0542 25.3492C14.5159 25.9221 14.5159 26.851 15.0542 27.4236L17.5065 30.0321C17.7758 30.3186 18.1287 30.4616 18.4816 30.4616C18.8345 30.4616 19.1874 30.3186 19.4567 30.0321L25.8732 23.2068C26.4115 22.6339 26.4115 21.705 25.8732 21.1324C25.3346 20.5591 24.4613 20.5591 23.9227 21.1324Z" fill="white"/>
</svg>
