<svg viewBox="0 0 56 50" fill="none" xmlns="http://www.w3.org/2000/svg">
<path d="M54.223 23.6555C53.7997 23.192 53.2761 22.872 52.7021 22.7184C53.0426 22.1462 53.2135 21.4795 53.19 20.7857C53.1291 18.9742 51.6573 17.5 49.9093 17.5H43.5237L43.5174 7.38636C43.5174 5.19354 41.8298 3.40909 39.7551 3.40909C37.6803 3.40909 35.9927 5.19354 35.9927 7.38636V10.063C35.9927 10.7497 35.8554 11.4125 35.6026 12.0175C30.8681 11.8297 27.0705 7.70153 27.0705 2.65137V1.42045C27.0705 0.636985 26.4679 0 25.7268 0H11.8597C11.1186 0 10.516 0.636985 10.516 1.42045V2.38636C10.516 7.55593 6.53781 11.7614 1.64757 11.7614H1.43257C0.691435 11.7614 0.0888672 12.3983 0.0888672 13.1818V30.2273C0.0888672 41.1301 8.47947 50 18.7932 50C26.1093 50 32.7191 45.5131 35.776 38.5227H47.0153C47.7488 38.5227 48.466 38.2031 48.9829 37.6465C49.4919 37.0983 49.7652 36.3814 49.7518 35.6277C49.7451 35.2441 49.6649 34.8784 49.5255 34.5455H49.9093C51.6573 34.5455 53.1291 33.0713 53.19 31.2598C53.2135 30.5602 53.0401 29.8886 52.6937 29.3133C54.0458 28.9289 55.0746 27.6545 55.1249 26.1461C55.1564 25.2117 54.836 24.3271 54.223 23.6555ZM18.7932 48.2955C9.36883 48.2955 1.70131 40.19 1.70131 30.2273V13.4659C7.45573 13.4348 12.1285 8.47656 12.1285 2.38636V1.70455H25.458V2.65137C25.458 8.24707 29.4022 12.8862 34.5058 13.627C34.3122 13.8135 34.1031 13.9853 33.8768 14.1375L29.4723 17.1001C29.0835 17.3619 28.6346 17.5 28.174 17.5H27.1822C26.8815 16.4493 25.9577 15.6818 24.8668 15.6818H20.3519C19.3009 15.6818 18.4048 16.3943 18.0718 17.3864H14.1172C12.9611 17.3864 12.021 18.3807 12.021 19.6023V34.2614C12.021 35.4834 12.9611 36.4773 14.1172 36.4773H17.9333V44.8619C10.6903 44.4189 4.92621 38.05 4.92621 30.2841V16.1626C10.464 15.7364 14.8772 10.9584 15.1107 5.05682H17.9333V12.5568C17.9333 13.0278 18.2944 13.4091 18.7395 13.4091C19.1846 13.4091 19.5457 13.0278 19.5457 12.5568V4.20455C19.5457 3.73358 19.1846 3.35227 18.7395 3.35227H14.3141C13.869 3.35227 13.5079 3.73358 13.5079 4.20455V4.56454C13.5079 10.0368 9.29661 14.4886 4.11998 14.4886C3.67488 14.4886 3.31376 14.8699 3.31376 15.3409V30.2841C3.31376 39.2756 10.2338 46.5909 18.7395 46.5909C19.1846 46.5909 19.5457 46.2096 19.5457 45.7386V38.0944C19.7343 38.1499 19.932 38.1818 20.137 38.1818H24.8668C25.6571 38.1818 26.36 37.7792 26.8013 37.1578L27.6613 37.6727C28.5893 38.2289 29.6432 38.5227 30.7094 38.5227H33.9813C31.0604 44.4997 25.2258 48.2955 18.7932 48.2955ZM17.9333 34.7727H14.1172C13.8505 34.7727 13.6334 34.5432 13.6334 34.2614V19.6023C13.6334 19.3204 13.8505 19.0909 14.1172 19.0909H17.9333V34.7727ZM51.8442 27.7273H45.5599C45.1148 27.7273 44.7536 28.1086 44.7536 28.5795C44.7536 29.0505 45.1148 29.4318 45.5599 29.4318H49.9672C50.4085 29.4318 50.8209 29.6169 51.1278 29.9529C51.4344 30.2885 51.5944 30.7315 51.5784 31.1994C51.5482 32.1045 50.799 32.8409 49.9093 32.8409H47.0648C47.0468 32.8409 47.0287 32.8427 47.0111 32.8436C46.9934 32.8427 46.9754 32.8409 46.9573 32.8409H45.5599C45.1148 32.8409 44.7536 33.2222 44.7536 33.6932C44.7536 34.1642 45.1148 34.5455 45.5599 34.5455H46.9573C46.9754 34.5455 46.9934 34.5437 47.0111 34.5428C47.0287 34.5437 47.0468 34.5455 47.0648 34.5455C47.6464 34.5455 48.1289 35.0453 48.1398 35.6601C48.1448 35.9521 48.0356 36.2336 47.8324 36.4529C47.6166 36.685 47.3189 36.8182 47.0157 36.8182H30.7094C29.9212 36.8182 29.1423 36.6011 28.4566 36.1901L27.2855 35.4883V33.5605C27.2855 33.0899 26.9243 32.7082 26.4792 32.7082C26.0341 32.7082 25.673 33.0899 25.673 33.5605V35.625C25.673 36.0951 25.3115 36.4773 24.8668 36.4773H20.137C19.8111 36.4773 19.5457 36.1967 19.5457 35.8523V18.2386C19.5457 17.7686 19.9073 17.3864 20.3519 17.3864H24.8668C25.3115 17.3864 25.673 17.7686 25.673 18.2386V29.5832C25.673 30.0542 26.0341 30.4355 26.4792 30.4355C26.9243 30.4355 27.2855 30.0542 27.2855 29.5832V19.2045H28.174C28.9416 19.2045 29.6903 18.9742 30.3378 18.5383L34.7426 15.5753C36.5352 14.3697 37.6051 12.3087 37.6051 10.063V7.38636C37.6051 6.13326 38.5697 5.11364 39.7551 5.11364C40.9405 5.11364 41.905 6.13326 41.905 7.38681L41.9113 17.785C41.9117 18.5676 42.5147 19.2045 43.255 19.2045H49.9093C50.799 19.2045 51.5482 19.941 51.5784 20.8461C51.5944 21.3139 51.434 21.7569 51.1278 22.0925C50.8209 22.4285 50.4085 22.6136 49.9672 22.6136H45.5599C45.1148 22.6136 44.7536 22.9949 44.7536 23.4659C44.7536 23.9369 45.1148 24.3182 45.5599 24.3182H51.9021C52.3435 24.3182 52.7558 24.5033 53.0628 24.8393C53.3693 25.1749 53.5293 25.6179 53.5133 26.0858C53.4831 26.9909 52.734 27.7273 51.8442 27.7273Z" fill="white"/>
</svg>
