<svg viewBox="0 0 51 50" fill="none" xmlns="http://www.w3.org/2000/svg">
<path d="M49.0666 27.5819L44.246 33.1202C44.183 33.0326 44.1163 32.9474 44.045 32.8654L37.8193 25.7129C37.475 25.3175 36.917 25.3175 36.5729 25.7129C36.2287 26.1083 36.2287 26.7495 36.5729 27.1447L42.7986 34.2972C43.3338 34.912 43.3338 35.9125 42.7987 36.5273C42.2632 37.142 41.3925 37.1422 40.8575 36.5273L37.398 32.5528C37.0537 32.1574 36.4958 32.1574 36.1516 32.5528C35.8074 32.9482 35.8074 33.5893 36.1516 33.9846L39.6111 37.959C39.6112 37.9592 39.6115 37.9593 39.6116 37.9596C39.8706 38.2574 40.0132 38.6531 40.0132 39.0741C40.0132 39.4953 39.8704 39.8913 39.6111 40.1892C39.3519 40.487 39.0072 40.6511 38.6406 40.6511C38.274 40.6511 37.9294 40.487 37.6701 40.1892L34.2106 36.2147C33.8664 35.8193 33.3084 35.8193 32.9643 36.2147C32.6201 36.6101 32.6201 37.2513 32.9643 37.6465L36.4238 41.621C36.959 42.2358 36.959 43.2363 36.4239 43.8511C36.1645 44.149 35.8198 44.313 35.4532 44.313C35.0865 44.313 34.7419 44.149 34.4827 43.8512L31.0232 39.8767C30.6789 39.4813 30.121 39.4813 29.7768 39.8767C29.4326 40.2721 29.4326 40.9132 29.7768 41.3085L33.2363 45.283C33.7715 45.8978 33.7715 46.8982 33.2363 47.513C32.9771 47.8108 32.6324 47.9748 32.2658 47.9748C31.8992 47.9748 31.5545 47.8108 31.2953 47.513L29.0541 44.9382C29.7682 43.5711 29.6133 41.7676 28.5886 40.5904L28.5355 40.5294C27.8527 39.7451 26.9279 39.4045 26.0346 39.5069C25.9844 38.6481 25.6701 37.8483 25.1352 37.2338C24.7215 36.7585 24.2188 36.4461 23.6881 36.2965C23.8234 35.8933 23.8949 35.4609 23.8949 35.0158C23.8949 34.0652 23.5727 33.1715 22.9876 32.4993C22.4026 31.8272 21.6247 31.457 20.7972 31.457C20.3257 31.457 19.8704 31.5775 19.4577 31.8054C19.3188 31.2387 19.0564 30.704 18.6689 30.2589C17.4613 28.8714 15.4961 28.8715 14.2882 30.2589L13.9248 30.6764L13.6598 30.372C13.2336 29.8824 12.9989 29.2315 12.9989 28.5391V25.8986C12.9989 25.63 12.9061 25.3725 12.7409 25.1827L8.97858 20.8603L10.0365 19.6448C10.3807 19.2494 10.3807 18.6082 10.0364 18.213C9.69231 17.8174 9.13428 17.8176 8.7901 18.213L7.37298 19.8412C7.10577 20.1482 6.67076 20.1483 6.40355 19.8412L1.86841 14.6308C1.52423 14.2354 0.966316 14.2354 0.622023 14.6308C0.277848 15.0262 0.277848 15.6672 0.622023 16.0626L5.15728 21.273C5.63459 21.8212 6.26137 22.0953 6.88815 22.0953C7.08885 22.0953 7.28896 22.0639 7.48473 22.0078L11.2363 26.3177V28.539C11.2363 29.7722 11.6544 30.9316 12.4134 31.8037L12.6785 32.1082L12.3836 32.4471C11.7985 33.1192 11.4762 34.0129 11.4762 34.9636C11.4762 35.9142 11.7984 36.8079 12.3834 37.4799C12.9874 38.1737 13.7807 38.5206 14.574 38.5206C14.5866 38.5206 14.5991 38.5198 14.6117 38.5196C14.6116 38.5345 14.6108 38.5494 14.6108 38.5645C14.6108 39.5152 14.933 40.4089 15.518 41.0809C16.1031 41.753 16.8811 42.1232 17.7085 42.1232C17.7215 42.1232 17.7345 42.1223 17.7476 42.1221C17.7378 43.0478 18.039 43.9771 18.6524 44.6818C19.2564 45.3756 20.0496 45.7225 20.8429 45.7225C20.856 45.7225 20.869 45.7216 20.8819 45.7215C20.8718 46.6477 21.173 47.5777 21.7869 48.2829L21.84 48.3439C22.425 49.0161 23.2029 49.3863 24.0303 49.3863C24.8578 49.3863 25.6356 49.0161 26.2207 48.3439L27.8734 46.4453L30.0492 48.945C30.6413 49.6253 31.4286 50 32.266 50C33.1035 50 33.8908 49.6253 34.4829 48.945C35.1077 48.2272 35.4123 47.2793 35.3984 46.3365C35.4167 46.3369 35.4349 46.338 35.4534 46.338C36.2909 46.338 37.0781 45.9634 37.6704 45.283C38.2955 44.5648 38.6001 43.6162 38.5859 42.6729C38.6042 42.6733 38.6225 42.6744 38.6409 42.6744C39.4435 42.6743 40.2466 42.3231 40.8576 41.6211C41.4498 40.9409 41.7759 40.0364 41.7759 39.0743C41.7759 39.0531 41.7749 39.0322 41.7746 39.0111C41.7925 39.0115 41.8103 39.0126 41.8282 39.0126C42.631 39.0126 43.4339 38.6614 44.0452 37.9593C44.7098 37.1958 45.0121 36.1719 44.9541 35.1709L50.3133 29.0139C50.6575 28.6185 50.6575 27.9774 50.3133 27.5821C49.9688 27.1864 49.4109 27.1864 49.0666 27.5819ZM13.6297 36.048C13.3775 35.7583 13.2388 35.3732 13.2388 34.9636C13.2388 34.5539 13.3777 34.1687 13.6298 33.879L15.5345 31.6908C15.7949 31.3918 16.1367 31.2422 16.4786 31.2422C16.8205 31.2422 17.1623 31.3916 17.4226 31.6907C17.9431 32.2888 17.9431 33.2619 17.4226 33.8598L15.5178 36.0481C14.9972 36.6462 14.1504 36.6461 13.6297 36.048ZM17.7082 40.0984C17.3517 40.0984 17.0163 39.9388 16.7642 39.6491C16.512 39.3594 16.3732 38.9742 16.3732 38.5647C16.3732 38.1551 16.5121 37.7698 16.7643 37.4801L18.6691 35.2918L19.8533 33.9312C20.1055 33.6415 20.4406 33.482 20.7972 33.482C21.1538 33.482 21.4891 33.6415 21.7411 33.9312C21.9933 34.2209 22.1322 34.6062 22.1322 35.0158C22.1322 35.4254 21.9933 35.8107 21.7411 36.1004L18.6521 39.6492C18.4 39.9388 18.0649 40.0984 17.7082 40.0984ZM19.8985 43.25C19.378 42.652 19.378 41.6789 19.8985 41.0809L22.0008 38.6655C22.2611 38.3666 22.6029 38.2172 22.9449 38.2172C23.2867 38.2172 23.6286 38.3667 23.8888 38.6656C24.141 38.9553 24.2799 39.3406 24.2799 39.7502C24.2799 40.1597 24.1412 40.5445 23.8893 40.8341L21.7865 43.2499C21.2661 43.8481 20.4191 43.8481 19.8985 43.25ZM24.974 46.912C24.7218 47.2017 24.3867 47.3613 24.03 47.3613C23.6735 47.3613 23.3382 47.2017 23.0861 46.912L23.0331 46.8511C22.5125 46.2531 22.5125 45.28 23.0331 44.682L25.1353 42.2668C25.136 42.266 25.1366 42.2652 25.1372 42.2646L25.401 41.9613C25.6614 41.6623 26.0032 41.5129 26.3451 41.5129C26.687 41.5129 27.0289 41.6625 27.2891 41.9613L27.3421 42.0222C27.8627 42.6203 27.8627 43.5933 27.3421 44.1914L24.974 46.912Z" fill="white"/>
<path d="M49.3236 18.8969C48.9794 18.5015 48.4215 18.5014 48.0772 18.8969L44.7746 22.6912C44.7291 22.7434 44.6542 22.7442 44.6078 22.6933L32.9322 9.88023C32.9081 9.85377 32.8956 9.82096 32.8953 9.78262C32.8949 9.74428 32.9068 9.71108 32.9303 9.68408L39.8553 1.72835C40.1995 1.33294 40.1995 0.691833 39.8553 0.296558C39.5111 -0.0988526 38.9532 -0.0988526 38.6089 0.296558L31.6839 8.25228C31.3227 8.6674 31.1271 9.21914 31.1329 9.80598C31.1377 10.279 31.275 10.7244 31.5207 11.0922L28.3516 14.6628L25.3656 12.7496C24.9754 12.4995 24.533 12.3673 24.0861 12.3673H15.6022L14.9565 11.6256C14.3565 10.9363 13.6503 10.4109 12.8575 10.0638L10.5089 9.03581L9.42358 7.78897C9.98479 6.70912 9.86399 5.28812 9.05543 4.35933L5.51909 0.296558C5.17491 -0.0988526 4.61699 -0.0988526 4.2727 0.296558C3.92852 0.691968 3.92852 1.33307 4.2727 1.72835L7.80904 5.79113C8.07625 6.09811 8.07625 6.59774 7.80904 6.90486L0.622023 15.1618C0.277848 15.5572 0.277848 16.1983 0.622023 16.5936C0.794169 16.7912 1.01978 16.8902 1.24527 16.8902C1.47077 16.8902 1.69638 16.7913 1.86853 16.5936L8.2316 9.28327L9.39573 10.6207C9.48362 10.7217 9.58914 10.8001 9.70524 10.851L12.23 11.9561C12.7747 12.1946 13.261 12.5535 13.6769 13.0214C13.6235 13.0731 13.571 13.1265 13.5209 13.184L10.1692 17.035C9.50395 17.7991 9.13768 18.8152 9.13768 19.8959C9.13768 20.9766 9.50395 21.9926 10.169 22.7568C10.8563 23.5464 11.7554 23.9469 12.6584 23.9469C13.4476 23.9469 14.2397 23.6409 14.8957 23.0212L17.4322 20.6256H20.0743L23.0933 24.0939C23.2654 24.2916 23.491 24.3905 23.7165 24.3905C23.942 24.3905 24.1676 24.2917 24.3398 24.0939C24.684 23.6985 24.684 23.0574 24.3398 22.6621L22.1588 20.1564C22.2461 19.9993 22.2973 19.8133 22.2973 19.6131C22.2973 19.0539 21.9028 18.6006 21.416 18.6006H17.1163C16.9122 18.6006 16.7144 18.682 16.5567 18.831L13.7764 21.457C13.0733 22.1208 12.0586 22.064 11.4154 21.325C11.0831 20.9432 10.9002 20.4358 10.9002 19.896C10.9002 19.3563 11.0831 18.8487 11.4154 18.4671L14.7673 14.6161C14.8927 14.4719 15.0595 14.3926 15.237 14.3926H24.086C24.233 14.3926 24.3785 14.436 24.5069 14.5184L27.8093 16.6343C28.2995 16.9487 28.9229 16.8536 29.3259 16.4011L32.7779 12.5116L42.2819 22.9415L40.8984 24.5309C40.5542 24.9263 40.5542 25.5674 40.8985 25.9627C41.0705 26.1605 41.2961 26.2593 41.5216 26.2593C41.7471 26.2593 41.9727 26.1605 42.1449 25.9627L43.5682 24.3275C43.8991 24.6092 44.2941 24.7514 44.6897 24.7514C45.1734 24.7514 45.6568 24.5415 46.0208 24.1231L49.3236 20.329C49.6676 19.9333 49.6676 19.2923 49.3236 18.8969Z" fill="white"/>
</svg>
