<svg viewBox="0 0 56 50" fill="none" xmlns="http://www.w3.org/2000/svg">
<path d="M51.6125 23.0932L55.3593 19.401C55.6667 19.098 55.7586 18.6423 55.5922 18.2465C55.4258 17.8506 55.0339 17.5926 54.599 17.5926H46.8323C45.8171 13.4972 43.6865 9.76557 40.6405 6.76388C36.2146 2.40212 30.3297 0 24.0702 0C17.8107 0 11.9258 2.40212 7.49974 6.76388C3.07357 11.1256 0.635986 16.9248 0.635986 23.0932C0.635986 29.2617 3.07357 35.0609 7.49974 39.4226C8.81592 40.7196 10.2619 41.8418 11.8075 42.7806L8.569 48.4189C8.38067 48.7468 8.38325 49.1487 8.57588 49.4742C8.76841 49.7998 9.12196 50 9.50444 50H15.0405C15.4278 50 15.7852 49.7947 15.976 49.4625L18.2659 45.4757C20.1401 45.9443 22.0862 46.1864 24.0702 46.1864C26.0541 46.1864 28.0003 45.9443 29.8745 45.4757L32.1643 49.4625C32.3552 49.7947 32.7126 50 33.0999 50H38.6359C39.0184 50 39.372 49.7998 39.5646 49.4743C39.7572 49.1487 39.7598 48.7468 39.5715 48.419L36.3329 42.7807C37.8786 41.8418 39.3246 40.7197 40.6408 39.4227C43.6855 36.4222 45.8172 32.689 46.8323 28.594H54.5992C55.0339 28.594 55.4259 28.3358 55.5923 27.94C55.7587 27.5443 55.6667 27.0886 55.3594 26.7856L51.6125 23.0932ZM49.6469 22.0339H42.1448L44.5018 19.7112H52.004L49.6469 22.0339ZM14.4137 47.8814H11.3481L13.6879 43.8079C14.4909 44.1997 15.3153 44.5462 16.1587 44.8434L14.4137 47.8814ZM36.7923 47.8814H33.7267L31.9817 44.8434C32.8251 44.5462 33.6495 44.1997 34.4525 43.8079L36.7923 47.8814ZM39.1204 37.9245C37.7004 39.3238 36.1144 40.4999 34.4072 41.4374C34.3861 41.4475 34.3648 41.457 34.3441 41.4685C34.331 41.4758 34.3192 41.4842 34.3066 41.492C32.997 42.2019 31.617 42.7719 30.185 43.1929C30.1287 43.2039 30.073 43.2202 30.0181 43.2406C28.1096 43.7849 26.1121 44.0678 24.0702 44.0678C22.0283 44.0678 20.0308 43.7849 18.1223 43.2407C18.0673 43.2203 18.0116 43.204 17.9552 43.193C16.5233 42.772 15.1433 42.202 13.8337 41.4921C13.8212 41.4843 13.8093 41.476 13.7963 41.4686C13.7756 41.4571 13.7544 41.4476 13.7333 41.4375C12.0261 40.5 10.4401 39.3239 9.02006 37.9245C4.99991 33.9629 2.78591 28.6958 2.78591 23.0932C2.78591 17.4907 4.99991 12.2235 9.01995 8.26197C13.04 4.30042 18.3849 2.11864 24.0702 2.11864C29.7555 2.11864 35.1004 4.30042 39.1204 8.26197C41.7619 10.865 43.6459 14.0717 44.6133 17.5926H44.0567C43.7716 17.5926 43.4981 17.7042 43.2966 17.9029L40.4435 20.7144C40.1556 18.7885 39.5238 16.9158 38.5696 15.2127C38.2827 14.7005 37.6287 14.5147 37.109 14.7974C36.5892 15.0801 36.4006 15.7246 36.6875 16.2368C37.7079 18.0582 38.278 20.0385 38.4239 22.034H33.6841C33.4448 19.8882 32.4826 17.9004 30.9113 16.3519C29.0839 14.5511 26.6544 13.5593 24.0702 13.5593C21.486 13.5593 19.0565 14.5511 17.2292 16.3517C15.4019 18.1525 14.3955 20.5466 14.3955 23.0932C14.3955 25.6398 15.4019 28.034 17.2291 29.8346C19.0565 31.6354 21.486 32.6271 24.0702 32.6271C26.6544 32.6271 29.0839 31.6354 30.9112 29.8347C32.4825 28.2862 33.4447 26.2984 33.684 24.1525H38.4191C38.1628 27.464 36.7448 30.6775 34.2557 33.1305C31.5351 35.8117 27.9177 37.2881 24.0702 37.2881C20.2227 37.2881 16.6053 35.8117 13.8847 33.1305C11.164 30.4495 9.66568 26.8849 9.66568 23.0932C9.66568 19.3016 11.164 15.737 13.8847 13.0559C18.3976 8.60869 25.4472 7.62331 31.028 10.6596C31.5476 10.9423 32.2016 10.7565 32.4887 10.2443C32.7756 9.7321 32.5869 9.08771 32.0672 8.80487C28.9879 7.12955 25.3622 6.46186 21.8581 6.92521C18.2371 7.40381 14.9542 9.00572 12.3645 11.5578C9.23774 14.6391 7.51575 18.7357 7.51575 23.0932C7.51575 27.4507 9.23774 31.5475 12.3644 34.6286C15.4911 37.7099 19.6483 39.4068 24.0702 39.4068C28.4921 39.4068 32.6493 37.7099 35.7759 34.6287C38.3166 32.1251 39.9284 28.964 40.4473 25.476L43.2965 28.2837C43.498 28.4823 43.7715 28.594 44.0566 28.594H44.613C43.6456 32.1146 41.7609 35.3225 39.1204 37.9245ZM27.581 21.0958C27.2842 20.589 26.6268 20.4155 26.1126 20.708L23.5327 22.1758C23.2001 22.365 22.9952 22.7147 22.9952 23.0932C22.9952 23.4717 23.2001 23.8214 23.5327 24.0106L26.1126 25.4784C26.2819 25.5747 26.4667 25.6204 26.6491 25.6204C27.0206 25.6204 27.3819 25.4305 27.581 25.0907C27.7555 24.793 27.7655 24.4469 27.6407 24.1525H31.5183C31.2905 25.7313 30.5556 27.189 29.3909 28.3365C27.9697 29.7372 26.0802 30.5085 24.0702 30.5085C22.0602 30.5085 20.1707 29.7372 18.7493 28.3365C17.3281 26.936 16.5454 25.0739 16.5454 23.0932C16.5454 21.1125 17.3281 19.2504 18.7494 17.8498C20.1707 16.4493 22.0602 15.678 24.0702 15.678C26.0802 15.678 27.9697 16.4493 29.391 17.8499C30.5556 18.9975 31.2906 20.4552 31.5184 22.0339H27.6408C27.7655 21.7394 27.7555 21.3934 27.581 21.0958ZM44.5018 26.4752L42.1448 24.1525H49.6469L52.004 26.4752H44.5018Z" fill="white"/>
</svg>
