<?xml version="1.0" encoding="utf-8"?>
<!-- Generator: Adobe Illustrator 22.0.1, SVG Export Plug-In . SVG Version: 6.00 Build 0)  -->
<svg version="1.1" id="Layer_1" xmlns="http://www.w3.org/2000/svg" xmlns:xlink="http://www.w3.org/1999/xlink" x="0px" y="0px"
	 viewBox="0 0 440 452" style="enable-background:new 0 0 440 452;" xml:space="preserve">
<style type="text/css">
	.st0{fill:#0082CB;}
	.st1{fill:#230044;}
	.st2{fill:#1D1C22;}
	.st3{fill:#FC7575;}
	.st4{fill:#FD5E5A;}
	.st5{fill:#E85553;}
	.st6{fill:#2DB1FF;}
	.st7{opacity:0.53;fill:#1A0033;}
	.st8{fill:#1A0033;}
	.st9{fill:#002C4B;}
	.st10{fill:#53587D;}
	.st11{fill:#375866;}
	.st12{opacity:0.57;fill:#1A0033;}
	.st13{fill:#3B1B36;}
	.st14{fill:#00608D;}
	.st15{opacity:0.53;fill:#A992C0;}
	.st16{opacity:0.57;fill:#262943;}
	.st17{fill:#70497A;}
	.st18{fill:#2E162B;}
	.st19{fill:#172866;}
	.st20{fill:#2F499F;}
	.st21{fill:#FFFFFF;}
	.st22{fill:#363A68;}
	.st23{fill:#452140;}
	.st24{fill:#5C2C55;}
	.st25{fill:#284758;}
	.st26{fill:#FFB27D;}
	.st27{fill:#C45446;}
	.st28{fill:#E37970;}
	.st29{fill:#22407A;}
	.st30{fill:#F3F4FF;}
	.st31{fill:#CCCCCC;}
	.st32{fill:#0077C1;}
	.st33{fill:#163560;}
	.st34{fill:#ED975D;}
	.st35{fill:#E7F1FD;}
	.st36{fill:#233862;}
	.st37{fill:#E2915A;}
	.st38{fill:#E9F3FE;}
	.st39{fill:#D9E9F9;}
	.st40{fill:#29A6E5;}
	.st41{fill:#F9A369;}
	.st42{fill:#F8FBFF;}
	.st43{fill:#E7F1FB;}
	.st44{fill:#DEEDFF;}
	.st45{fill:#82B378;}
	.st46{fill:#A8D29F;}
	.st47{fill:#D1A586;}
	.st48{fill:#E5BD9E;}
	.st49{fill:#DFB697;}
	.st50{fill:#A0795F;}
	.st51{fill:#6BB7BF;}
	.st52{fill:#F99746;}
	.st53{fill:#8AD8DB;}
	.st54{fill:#ED9F4A;}
	.st55{fill:#1C468A;}
	.st56{fill:#0279AD;}
	.st57{fill:#F4A269;}
	.st58{fill:#599DAD;}
	.st59{fill:#B5453C;}
	.st60{fill:#4A75CB;}
	.st61{fill:#C69D7F;}
	.st62{fill:#E0B594;}
</style>
<g>
	<path class="st30" d="M391.3,261.1c-50.4-32.8,36.9-85.7,17.6-138c-19.3-52.3-83.1,1.5-117.4,27.2c-34.3,25.8-74.5-20.3-101.2-21.6
		c-26.7-1.2-11.7,18.9-23.7,45c-12,26.1-100.7,4.4-136.2,29.6c-35.5,25.2,21.1,78.9,25.8,110.9c4.8,32-56.4,68.2-17.2,115.7
		l194.8-0.9c19.6-4.9,32.4-8.8,32.4-8.8C448.5,356,441.7,293.8,391.3,261.1z"/>
	<path class="st31" d="M389.1,442.4C389,454,268,449.9,179,436c-84-13-143.3-0.2-143-6s86.8-14.9,176.9-10.2
		C303,424.5,389.2,436.6,389.1,442.4z"/>
	<g>
		<g>
			<path class="st0" d="M196.8,202.1c-0.4,0-0.7-0.3-0.7-0.7c0-0.4,0.3-0.8,0.7-0.8c30-2.5,34.3-18.2,34.4-18.3
				c0.1-0.4,0.5-0.6,0.9-0.5c0.4,0.1,0.6,0.5,0.5,0.9C232.3,183.4,228,199.5,196.8,202.1C196.8,202.1,196.8,202.1,196.8,202.1z"/>
		</g>
		<g>
			<path class="st0" d="M221.4,202.1c-0.3,0-0.6-0.2-0.7-0.4c-0.2-0.4,0-0.8,0.4-1c18.8-7.8,19.5-20.3,19.5-20.5
				c0-0.4,0.4-0.7,0.8-0.7c0.4,0,0.7,0.4,0.7,0.8c0,0.6-0.7,13.6-20.4,21.7C221.6,202.1,221.5,202.1,221.4,202.1z"/>
		</g>
	</g>
	<g>
		<path class="st32" d="M346.8,47.8c-0.4,0-0.7-0.3-0.7-0.7c0-20.9-8-34.1-8.1-34.3c-0.2-0.3-0.1-0.8,0.2-1c0.3-0.2,0.8-0.1,1,0.2
			c0.1,0.1,8.3,13.7,8.3,35C347.5,47.5,347.2,47.8,346.8,47.8z"/>
	</g>
	<g>
		<path class="st32" d="M91.5,53.9c-0.3,0-0.5-0.1-0.6-0.4c-10.3-17.8,1.2-42,1.7-43c0.2-0.4,0.6-0.5,1-0.3c0.4,0.2,0.5,0.6,0.3,1
			c-0.1,0.2-11.6,24.5-1.7,41.6c0.2,0.3,0.1,0.8-0.3,1C91.8,53.8,91.6,53.9,91.5,53.9z"/>
	</g>
	<g>
		<path class="st6" d="M278.1,105.3c0,0-16.7,24.3-21.3,30.6c-4.6,6.3-37,29.3-37,29.3l6,14.6l37.8-23.1l28.5-26L278.1,105.3z"/>
		<polygon class="st26" points="331.3,399.3 324.8,426.8 315,426.7 314.7,399.3 		"/>
		<polygon class="st26" points="263.3,390.5 244.7,416.8 237.5,407.5 248.7,386.9 		"/>
		<path class="st33" d="M291.2,98.2c0.3,0.6,0.7,1.2,1.1,1.7c0.6,0.8,1.2,1.6,2,2.2c-0.4-0.7-0.7-1.6-1.1-2.7v0
			c-0.2-0.5-0.3-1-0.5-1.6c-0.7-2.6-1.3-6.1-1.7-10.7c0.2,1.1,0.9,5.9,2.5,10.5c0.2,0.4,0.3,0.9,0.5,1.3c0.6,1.5,1.2,2.9,2,4.1
			c0.1,0.2,0.3,0.5,0.4,0.7c4.1,2.7,9.2,7.1,14.5,12.1c3.6,3.5,7.4,7.3,11,11.2c1.4,1.5,2.7,3,4.1,4.5l0,0c0.6,0.6,1.1,1.2,1.6,1.9
			c0,0,0,0,0,0c0.7,0.8,1.3,1.5,2,2.3c1.8,2.1,3.4,4.2,5,6.1c0.3,0.4,0.7,0.9,1,1.3c4.7,6.2,7.7,11.3,7.5,13.4c0,0,0.2-0.2,0.6-0.6
			c0.1-0.1,0.2-0.2,0.4-0.3c1.4-1.3,4-3.8,7.4-6.9l0.1-0.8l1-6.1c0.6,1.2,0.7,3.6,0.6,5.3c5.3-4.9,12-10.9,18-16.2c0,0,0,0,0,0
			c4.5-3.9,8.7-7.5,11.7-9.8c-0.9-2.9-3.3-8-3.4-8.2c2.1,0.6,4.6,4.4,5.8,6.4c0.2-0.1,0.4-0.3,0.6-0.4c0,0-2.1-16.8-26.3-29.3
			c-12.7-6.6-21.4-9.3-20.8-17.6c0.5-8.3-3.3-44.2-27.7-34.8c0,0-3.9-1.7-5.7-1.5c0,0,1.4,0.3,2.2,1c-2.8-0.2-6.9,0-10.2,2
			c-1.8,1-3.7,3.8-5.2,7.7l0,0c-0.1,0.3-0.2,0.5-0.3,0.8c-0.7,1.7-1.3,3.6-1.8,5.6c-1,3.5-1.8,7.5-2.3,11.6c0,0,0,0,0,0
			c-0.2,1.3-0.3,2.7-0.5,4.1c0,0.1,0,0.1,0,0.2c0,0,0,0,0,0C286.2,79.8,287.1,91.1,291.2,98.2z"/>
		<path class="st26" d="M297.3,104.3c-0.1,0,7.8,4.1,13.8,2.5c5.6-1.5,9.2-8.8,9.2-8.8c-2.4-0.5-3.1-3.7-3-17.7l-1.1,0.2l-18,3.6
			c0,0,0.4,5.7,0.4,11C298.6,99.5,298.4,103.8,297.3,104.3z"/>
		<path class="st6" d="M317.7,44.8c0,0-8.9-9.5-20-0.5C297.7,44.3,304.2,43.2,317.7,44.8z"/>
		<path class="st34" d="M298.2,84.1c0,0,0.4,5.7,0.4,11c10.1-0.3,15.4-9.5,17.6-14.6L298.2,84.1z"/>
		<path class="st33" d="M318.1,78.5c0,0,5.3-8.3,6.5-15.5c0.9-5.1-1.7-24-20.7-21.2c0,0-5.5,0.5-10.7,4c-4.1,2.8-10.1,8.8-3.4,25.3
			l1.7,5.6L318.1,78.5z"/>
		<path class="st0" d="M241.5,396.3l9.5,0.3l10.3,0.3c0,0,23.9-26.6,37.2-69.1c0.3-1,0.6-2,1-3c7.3-21.4,22.5-48.2,30.5-72.4
			c1.3-3.9,2.4-7.5,3.4-10.9c0.3-1.1,0.6-2.2,1-3.3c5.9-20.5,7.6-33.9,9.2-48.3l-57.8,0.5C285.9,190.3,276.5,288.4,241.5,396.3z"/>
		<path class="st35" d="M278.9,171.1c0.1,27.5-4,39.3-4,39.3s24.7,12.6,54.1,3.3c0.3-0.1,24.3-5.6,24.3-5.6
			c-0.5-1.1-4.9-19.6-5.3-20.7c-6.2-13.3-10.9-19.2-11.7-23.3c-1.4-7.7-1.4-15.6-0.7-23c1.8-19.8,7.1-36.2,7.1-36.2
			c-8-1.8-15.5-5-23.8-8.2c-1.9,2.4-7.8,4.9-12.9,4.8c-5.9-0.1-7.8-2.6-7.5-5.4c-6.2,3.5-11.2,6.8-11.2,6.8
			c-5.3,9.2-16.1,18.2-16.8,32.3C270.4,138.7,278.9,170.3,278.9,171.1z"/>
		<path class="st26" d="M294.8,89.1c0,0,23.8,0.4,23.8-14.5c0-14.8,3.1-24.8-12.1-25.7c-15.2-0.9-18.2,4.8-19.4,9.7
			C286,63.7,288.6,88.6,294.8,89.1z"/>
		<path class="st33" d="M295.7,48.6c0,0,6.5,17.4,16.5,20c10,2.6,14.4-0.1,14.4-0.1s-7.7-6.1-9.3-16.8
			C317.3,51.8,300.6,40.3,295.7,48.6z"/>
		<path class="st33" d="M297.3,50c0,0-4.9,3.9-6.1,7.7c-1.2,3.8-1.7,11.6-4,11.3c0,0-4.9-11.8,0.6-18.5
			C293.7,43.4,297.3,50,297.3,50z"/>
		<path class="st26" d="M325.1,425.2c0,0-0.8,5.4,1.2,11.2c0,0,1.6,7.3-5.6,7.4c-7.2,0.1-8.9-0.5-8.1-5c0.8-4.5,2.4-12.2,2.4-12.2
			L325.1,425.2z"/>
		<path class="st36" d="M311.7,448.2h15.7c0.6-3.2-0.8-10.1-1-11.4c0-0.1,0-0.2,0-0.2c0-0.1,0-0.1,0-0.1c-8.1,7.4-13.2-0.2-13.2-0.2
			c0,0,0,0,0,0C312,439.2,311.7,447.1,311.7,448.2z"/>
		<path class="st26" d="M220.2,429.6c0,0,13.2-14.7,17.3-22.1l9.8,5l-22,20.6l-5.1-0.7L220.2,429.6z"/>
		<path class="st36" d="M211.9,438.2c0,0,16.4,0,16.6,0c2.4,0,4.4-4.1,7-9.3c1.1-2.2,3.5-3.3,6-4l-0.1,13.3h3.8l3.5-14.1
			c2.3-4.3,0.2-8.2-1.5-11.6c-1.9,0-7.1,1.3-16.8,12.3c-3.2,3.6-6.7,4.9-10.3,4.8c0,0-0.1,0.1-0.1,0.1
			C212,433.3,211.9,438.2,211.9,438.2z"/>
		<path class="st36" d="M251,396.6l10.3,0.3c0,0,23.9-26.6,37.2-69.1c0.3-1,0.6-2,1-3c7.3-21.4,22.5-48.2,30.5-72.4
			c1.3-3.9,2.4-7.5,3.4-10.9c0.3-1.1,0.6-2.2,1-3.3l-8.5-6.5c0,0-25.5,41.4-33.5,80.3C285.6,345.8,258.1,386.5,251,396.6z"/>
		<path class="st0" d="M310.1,329.6c-0.1,18.9,0.8,62.4,3.3,80.5h9.1c5.1,0,7.6-0.1,7.6-0.1c6.2-31.3,10.6-57.2,13.8-79.6
			c2.6-18.3,5-34,6.8-47.6c1.8-13.6,3.1-25,3.5-34.6c0.1-1.5,0.1-3,0.1-4.4c0-1.4,0-2.8,0-4.2l-49.9-4.9
			C305,267.9,310.1,318.6,310.1,329.6z"/>
		<path class="st36" d="M322.5,410.1c5.1,0,7.6-0.1,7.6-0.1c6.2-31.3,10.6-57.2,13.8-79.6c2.6-18.3,5-34,6.8-47.6
			c1.8-13.6,3.1-25,3.5-34.6L335.8,259c0,0,11.7,4.1,7.2,35.3C338.6,325.5,328.7,405.6,322.5,410.1z"/>
		<path class="st6" d="M320.1,247.9c0,0,3.5,12.7,15.7,11.1c12.2-1.6,29.5-8.9,29.5-8.9s-5.2-16.4-11.7-38
			c-7.8-26.1-9.8-62.8-14.3-84.1c-1.3-6-9.9-7.9-10.2-11.4L319,96.9c0,0-15,33.8-15.9,42.3C302.3,147.7,320.1,247.9,320.1,247.9z"/>
		<path class="st0" d="M328.6,164.3c0.5,13.8,5.4,37.3,24.7,47.6c0.1,0,0.2,0.1,0.2,0.1c-7.8-26.1-7.7-51.2-12.3-72.4
			C330.9,137.4,328.3,156.7,328.6,164.3z"/>
		<path class="st26" d="M349.9,194.9c0,0-8.7-1.9-10.9,0.6c-2.2,2.5-3.5,6.4-1.3,7.8c2.2,1.4,8.7-2.4,11-0.9
			c1.7,1.1,2.2,3.9,3.9,2.9c1.7-1,3.4-7.4,3.4-7.4L349.9,194.9z"/>
		<path class="st6" d="M319,96.9c0,0,23.5,1,29.1,6.3c5.6,5.2,39.4,45.7,39.9,56.3c0.6,10.6-29.6,40.7-29.6,40.7s-8.4-2-12-7.3
			c0,0,18.7-33.3,17.6-34.8c-1.1-1.5-32.8-27.4-35.4-21.6C326.4,141.5,319,96.9,319,96.9z"/>
		<path class="st6" d="M266,169c0-18.2,2-37.9,4.6-50.3c3.3-16,16-19.2,16-19.2l12-3.2c0,0-13.8,34.1-14.2,41
			c-0.4,6.9-1.6,112.7-1.6,112.7s0.8,4.9-8.5,2.8c-9.3-2-11.8-4.1-11.8-4.1s4-29.6,5.9-55.9"/>
		<path class="st26" d="M140.4,76.3l0,2.7c0,0,0.7,8.4-9.6,9.7c-10.4,1.2-18.9,1.1-18.6-5.4c0.9-5,2.6-12.8,2.7-17
			c0-1.5-0.1-3.2-0.4-5l20.1-0.4l5.9,1L140.4,76.3z"/>
		<path class="st37" d="M140.5,61.8l-0.1,14.6c-2.1,1-4.5,1.6-7.2,1.6c-9.2,0-15.2-6.8-18.3-11.7c0-1.5-0.1-3.2-0.4-5l20.1-0.4
			L140.5,61.8z"/>
		<path class="st26" d="M112.9,58c2.3,12.5,18.5,12.1,25.5,11.3c2-0.2,3.2-0.5,3.2-0.5c2.2-0.6,3.5-4.1,4-8.7
			c1.1-9.1-0.3-22.4-1.8-25.8c-2.3-5.1-6.6-10.7-23-6.7C104.6,31.7,109.9,41.9,112.9,58z"/>
		<path class="st36" d="M99.7,429.4h22.9c-0.2-1.2-0.8-4.9-1.8-8.2c-0.4-1.2-0.8-2.3-1.3-3.3c-2.2-4.5-16.4-1.6-16.4-1.6
			s-1.3,1.1-2.3,5.4C100.3,423.6,99.9,426.1,99.7,429.4z"/>
		<path class="st36" d="M169,422.2c0.1,3.1,0.5,6.1,1.6,7.2h45.4c-0.6-1.6-2.2-4.1-6.9-4.9c-5.3-0.9-13.5-3.4-18.4-8.5
			c-1.7-1.8-3-3.9-3.6-6.4c-2.1-9.5-17.7,2.9-17.7,2.9S168.9,417.6,169,422.2z"/>
		<path class="st0" d="M138.8,319.5c0.6,3.5,1,6.3,1.1,8.4c1.4,28.1,23.7,92.5,27.7,94c6.2,2.3,15.9-2.6,20.9-4.2
			c2.1-0.7,3.5-2.8,3.1-4.9c-11-50.6-15.1-123.6-16.5-166.7c-0.7-21.7-4.5-36.8-4.5-36.8s-54.3-14.5-54.6,3.8
			C115.7,229.2,134,292.7,138.8,319.5z"/>
		<path class="st36" d="M138.8,319.5l36.2-73.5c-0.7-21.7-4.5-36.8-4.5-36.8s-54.3-14.5-54.6,3.8C115.7,229.2,134,292.7,138.8,319.5
			z"/>
		<path class="st0" d="M150.9,213l-28.7,207.9c0,0-12.6,3-22.4,0.6c0,0-8.4-110.6-7.7-137.3c0.7-26.7-6-71.5,1.5-76.5
			C101.2,202.8,150.9,213,150.9,213z"/>
		<path class="st36" d="M148.8,22.4c0,0-7.2-0.6-15.6-4.2c-6.9-3-15.5,0.3-18.4,1.8c0.1-0.5,0.3-1.1,0.7-1.7c0,0-1.3,0.9-1.4,2.1
			c-0.1,0.1-0.2,0.2-0.2,0.2c0,0-1.4-0.3-2.4,0.2c0,0,0.6-0.1,0.9,0.3c0,0,0.1,0.1,0.1,0.1c-10.7,5.2-11.7,22.1-8.3,26
			c4.1,4.7,9.1,15.3,9.1,15.3s1.8-2.5,1.1-6.7c-0.8-4.1,2.8-4.1,7.4-6c4.5-1.9,0.8-7.2,4.7-10.4c4-3.2,18.5-1.3,18.3-3.8
			C150.2,33.8,148.8,23,148.8,22.4z"/>
		<path class="st38" d="M109.7,86.9l6.6,141.7c0,0,55.1,0.9,53.5-11.6C168.3,204.5,150,91.2,150,91.2L109.7,86.9z"/>
		<path class="st0" d="M90,167.2c3.3,9.8-2.9,42.8-5.1,54c-0.5,2.4-0.8,3.8-0.8,3.8c7.6,12.4,35.6,12.3,35.6,12.3
			c5.4-23.8,8.2-61.6,8.2-61.6l-21.4-94L80,106c0,0,1.5,15.7,4,31.2C86,149.5,88.2,161.9,90,167.2z"/>
		<path class="st21" d="M135.9,60c0,0,0.5,1.6,4.6,1c0,0,3.4-0.5,3.2-2.3C143.7,58.7,140.2,57.7,135.9,60z"/>
		<path class="st0" d="M143.4,81.9c0,0,11,44.8,15.4,89.9c2.1,21,5.8,61.4,5.8,61.6c0,0.9,10.3-2.9,12.6-14.1
			c1.3-6.2-0.9-20.7-2.8-36.4c1.8,0.4,4.4-0.6,4.4-0.6s40.4-28.3,33.2-42.5c-7.1-14-43.9-49.7-45.2-51c0,0,0-0.1,0-0.1
			S155.4,83.1,143.4,81.9z M173.2,171.5c-0.9-9-1.4-17.8-0.9-25.1c0.3-4,0.3-8.2,0.1-12.6c0,0,0,0,0,0c0,0,0.1,0.1,0.2,0.2
			c8.4,5.3,16.2,9.8,16.2,11.9c0,0.1,0,0.2-0.1,0.2C188,148.3,177.2,165.2,173.2,171.5z"/>
		<path class="st39" d="M108.1,81.4c-0.1-1.4,6.3-3.2,6.3-3.2s7.3,10.2,19.4,10.3c0,0-3.4,6.7-7.5,8.4
			C126.4,97,108.5,89.4,108.1,81.4z"/>
		<path class="st39" d="M133.9,88.3c0,0,6.4-3.8,6.4-7.9c0,0,4.1-0.5,5.9,1.5c0,0,1.5,7-0.5,11.1C145.7,93,136.5,91.6,133.9,88.3z"
			/>
		<path class="st6" d="M129.5,87.7l8.7-2.1c0,0,1.1,0.1,1.1,1.5c0,1.4-2.4,5.5-3.5,5.9C134.7,93.3,127.5,90.5,129.5,87.7z"/>
		<path class="st38" d="M109.1,80.7c-0.1-1.4,4.3-4.1,4.3-4.1s8.4,9.8,20.5,10c0,0-3.4,6.7-7.5,8.4C126.4,95,109.5,88.7,109.1,80.7z
			"/>
		<path class="st38" d="M133.9,86.6c0,0,6.5-3.4,6.5-7.5c0,0,3.9,1.7,5.7,3.7c0,0,1.7,4.4-0.3,8.5C145.7,91.3,136.5,89.9,133.9,86.6
			z"/>
		<path class="st6" d="M150.8,184.3c-0.3,3.3-1.8,6.4-4.3,8.6l-3.8,3.5c-1,0.9-2.5,0.8-3.3-0.3l-4.8-6c-1.3-1.6-1.9-3.7-1.7-5.7
			c0.4-4.6,1.3-13.4,1.9-21.9c0.5-6.9,1-13.6,1-17.7c0.1-13-2.5-54.5-2.5-54.5l3.1,0.2c0,0,7.7,16.1,11.8,38
			c1,5.4,1.8,11.1,2.2,17.1C150.5,145.6,152.2,169.3,150.8,184.3z"/>
		<path class="st40" d="M150.8,184.3c-0.3,3.3-1.8,6.4-4.3,8.6l-3.8,3.5c-1,0.9-2.5,0.8-3.3-0.3l-4.8-6c-1.3-1.6-1.9-3.7-1.7-5.7
			c0.4-4.6,1.3-13.4,1.9-21.9c8.6-9.7,12.1-23.1,13.4-34c1,5.4,1.8,11.1,2.2,17.1C150.5,145.6,152.2,169.3,150.8,184.3z"/>
		<path class="st26" d="M181.5,184.7c0-3.6-3.2-6.5-6.7-6c-1,0.2-1.9,0.6-2.5,1.4c-2.5,3.3-4.8,12.8-0.4,13.2c1.8,0.2,4-1.1,5.8-2.4
			c1.8-1.4,3.9-3.5,3.9-5.7V184.7z"/>
		<path class="st36" d="M84.9,221.2c7.9-8.2,21.6-24.4,21.1-37.7c-0.6-18.6-22-46.3-22-46.3c2,12.3,4.2,24.7,6,29.9
			C93.3,177,87.1,210,84.9,221.2z"/>
		<path class="st36" d="M172.4,133.8c0,0,0.1,0.1,0.2,0.2c8.4,5.3,16.2,9.8,16.2,11.9c1.1-3.6-9.8-18.7-13.4-21.7
			C171.8,121,172.4,133.8,172.4,133.8z"/>
		<path class="st36" d="M113.4,76.6c0,0,17.2,71.9,14.4,99c0,0-6.3-29-21.5-52.7c0,0,5.5-4.9,5.2-6.7c0,0-4.1-1.2-8.1-0.4
			c0,0,0.4-31,2.9-34.3C108.9,78.3,113.4,76.6,113.4,76.6z"/>
		<path class="st36" d="M140.4,79c-0.3-0.2,17,70.3,18.5,92.8c0,0-1.7-40.1-1.6-51.6c0,0-7.1-3.8-7.1-5.1c0-1.3,7.6-4.9,7.6-4.9
			s-4.8-24.7-7.4-27.4C147.7,80,140.4,79,140.4,79z"/>
		<polygon class="st41" points="189,175.3 203.5,164.5 203.8,170.1 203.2,185.5 191.2,184.2 		"/>
		<path class="st26" d="M221,166.5c-3.9,2.3-18.5,4.2-18.5,4.2s-9.8,10.5-9,12.5c0.8,1.9,1.4,1.3,3,2.8c1.6,1.5,5,2.7,5,2.7
			s2.8,2,5.6,0.9c2.8-1.1,8.6-9.5,11.7-10.7c0.6-0.3,3.3-1.3,7.2-2.9L221,166.5z"/>
		<path class="st41" d="M203.5,164.5c0,0,9.8,5.5,9.2,6.9c-0.6,1.4-9.9-0.8-9.9-0.8L203.5,164.5z"/>
		<path class="st41" d="M219,179.5c0,0-9.2-2.7-9.9-1.1c-0.7,1.6,4.3,3.4,4.3,3.4s-5.2-1.5-5.9-0.7c-0.7,0.7,4,3.2,4,3.2
			s-5.1-1.9-6.2-1c-1.1,0.9,3.8,4.8,3.8,4.8S220.2,183.7,219,179.5z"/>
		<polygon class="st38" points="184.2,176.7 191.6,173.3 195.3,184.4 187.9,191.6 		"/>
		<polygon class="st36" points="188.5,174.7 184.2,176.7 187.9,191.6 193.4,186.2 		"/>
		<path class="st0" d="M80,106c0,0-5.9,11.3-1,34c3.4,15.8,58.7,72.3,58.7,72.3l52.2-18.1l-4.3-18.2l-38.8,7.9L80,106z"/>
	</g>
</g>
</svg>
