<?xml version="1.0" encoding="utf-8"?>
<!-- Generator: Adobe Illustrator 22.0.1, SVG Export Plug-In . SVG Version: 6.00 Build 0)  -->
<svg version="1.1" id="Layer_1" xmlns="http://www.w3.org/2000/svg" xmlns:xlink="http://www.w3.org/1999/xlink" x="0px" y="0px"
	 viewBox="0 0 829.2 340" style="enable-background:new 0 0 829.2 340;" xml:space="preserve">
<style type="text/css">
	.st0{fill:#0082CB;}
	.st1{fill:#230044;}
	.st2{fill:#1D1C22;}
	.st3{fill:#FC7575;}
	.st4{fill:#FD5E5A;}
	.st5{fill:#E85553;}
	.st6{fill:#2DB1FF;}
	.st7{opacity:0.53;fill:#1A0033;}
	.st8{fill:#1A0033;}
	.st9{fill:#002C4B;}
	.st10{fill:#53587D;}
	.st11{fill:#375866;}
	.st12{opacity:0.57;fill:#1A0033;}
	.st13{fill:#3B1B36;}
	.st14{fill:#00608D;}
	.st15{opacity:0.53;fill:#A992C0;}
	.st16{opacity:0.57;fill:#262943;}
	.st17{fill:#70497A;}
	.st18{fill:#2E162B;}
	.st19{fill:#172866;}
	.st20{fill:#2F499F;}
	.st21{fill:#FFFFFF;}
	.st22{fill:#363A68;}
	.st23{fill:#452140;}
	.st24{fill:#5C2C55;}
	.st25{fill:#284758;}
	.st26{fill:#FFB27D;}
	.st27{fill:#C45446;}
	.st28{fill:#E37970;}
	.st29{fill:#22407A;}
	.st30{fill:#F3F4FF;}
	.st31{fill:#CCCCCC;}
	.st32{fill:#0077C1;}
	.st33{fill:#163560;}
	.st34{fill:#ED975D;}
	.st35{fill:#E7F1FD;}
	.st36{fill:#233862;}
	.st37{fill:#E2915A;}
	.st38{fill:#E9F3FE;}
	.st39{fill:#D9E9F9;}
	.st40{fill:#29A6E5;}
	.st41{fill:#F9A369;}
	.st42{fill:#F8FBFF;}
	.st43{fill:#E7F1FB;}
	.st44{fill:#DEEDFF;}
	.st45{fill:#82B378;}
	.st46{fill:#A8D29F;}
	.st47{fill:#D1A586;}
	.st48{fill:#E5BD9E;}
	.st49{fill:#DFB697;}
	.st50{fill:#A0795F;}
	.st51{fill:#6BB7BF;}
	.st52{fill:#F99746;}
	.st53{fill:#8AD8DB;}
	.st54{fill:#ED9F4A;}
	.st55{fill:#1C468A;}
	.st56{fill:#0279AD;}
	.st57{fill:#F4A269;}
	.st58{fill:#599DAD;}
	.st59{fill:#B5453C;}
	.st60{fill:#4A75CB;}
	.st61{fill:#C69D7F;}
	.st62{fill:#E0B594;}
</style>
<g>
	<path class="st42" d="M797.8,330.6H34.5c0,0-0.7-6.3-0.9-16.5c-0.1-5.9-0.1-13.2,0.4-21.3c0-0.7,0.1-1.3,0.1-2
		c0.2-3.7,0.5-7.6,0.9-11.6c0-0.4,0.1-0.7,0.1-1.1c0.4-4.2,1-8.5,1.7-13c0.6-3.6,1.2-7.3,1.9-11.1c0.1-0.3,0.1-0.5,0.2-0.8
		c0.4-1.9,0.8-3.8,1.2-5.8c0.2-0.8,0.4-1.5,0.5-2.3c0.4-1.5,0.7-3,1.1-4.5c0.9-3.7,2-7.4,3.2-11.1c0.1-0.4,0.2-0.8,0.4-1.1
		c0.5-1.7,1.1-3.3,1.7-5c0.9-2.5,1.8-5.1,2.8-7.6c0.6-1.6,1.3-3.2,2-4.7c6.4-15,15-29.6,26.4-42.7c26.2-30.1,67.5-52.1,132.3-51.4
		c13,0.1,25.1-0.2,36.4-1h0c3.4-0.2,6.8-0.5,10.1-0.8l0,0c74.9-6.9,112.4-32.6,146.5-57.6c1.2-0.9,2.4-1.8,3.7-2.7
		c11.9-8.8,23.6-17.4,36.4-25c3.3-1.9,6.7-3.8,10.1-5.6c21.3-11.1,46.6-19.1,81.4-20.8c3.4-0.2,6.7-0.1,9.9,0.1
		c1.2,0.1,2.5,0.2,3.7,0.3c13.6,1.5,25.5,6.3,35.6,13.9c26.1,19.9,39.1,58.7,32.3,107.2c-4.6,32.9,5.8,50.7,23.6,62.3
		C689.8,219.7,795.9,204.7,797.8,330.6z"/>
	<polygon class="st43" points="428.8,204.9 428.8,189.9 425.3,189.9 425.3,164.1 406.4,164.1 406.4,189.9 388.8,189.9 388.8,147.8 
		369.3,147.8 369.3,175.1 364.9,175.1 364.9,142.6 345.4,142.6 345.4,203.6 320.8,203.6 320.8,239.2 311.7,239.2 311.7,223.4 
		290.5,223.4 290.5,232.7 278.4,232.7 278.4,190.8 263.4,190.8 263.4,221.8 248.5,221.8 248.5,335.7 263.4,335.7 276.3,335.7 
		278.4,335.7 290.5,335.7 297.4,335.7 308.4,335.7 311.7,335.7 320.8,335.7 329.5,335.7 345.4,335.7 350.3,335.7 360.1,335.7 
		364.9,335.7 369.3,335.7 379.5,335.7 386.4,335.7 388.8,335.7 406.4,335.7 424.9,335.7 425.3,335.7 428.8,335.7 443.8,335.7 
		443.8,204.9 	"/>
	<polygon class="st43" points="639.9,256.4 639.9,335.7 451.1,335.7 451.1,266.7 465.6,266.7 465.6,247.9 480.1,247.9 480.1,273.3 
		491.8,273.3 491.8,267.6 512.2,267.6 512.2,277.2 521.1,277.2 521.1,255.7 544.8,255.7 544.8,218.7 563.6,218.7 563.6,238.4 
		567.9,238.4 567.9,221.9 586.7,221.9 586.7,247.3 603.8,247.3 603.8,231.7 622,231.7 622,247.3 625.4,247.3 625.4,256.4 	"/>
	<polygon class="st43" points="250.4,225.3 250.4,335.3 78.3,335.3 78.3,239.6 91.5,239.6 91.5,213.5 104.7,213.5 104.7,248.8 
		115.4,248.8 115.4,240.9 134,240.9 134,254.2 142.1,254.2 142.1,224.3 163.7,224.3 163.7,173 180.9,173 180.9,200.4 184.8,200.4 
		184.8,177.4 201.9,177.4 201.9,212.7 217.4,212.7 217.4,191.1 234.1,191.1 234.1,212.7 237.2,212.7 237.2,225.3 	"/>
	<path class="st44" d="M453.9,24.4V335h-10.1V30C447.1,28.1,450.5,26.2,453.9,24.4z"/>
	<polygon class="st44" points="257.2,115.3 257.2,330.6 257.2,335 247.1,335 247.1,330.6 247.1,116.1 	"/>
</g>
<path class="st0" d="M407.3,55v24.1c0,3-0.8,5.5-1.7,5.5h-0.2c-0.9,0-1.7-2.5-1.7-5.5V57.7C404.9,56.8,406.1,55.9,407.3,55z"/>
<path class="st0" d="M404.6,75c-13.3,0-24.2,11.4-24.2,25.5h48.3C428.7,86.4,417.9,75,404.6,75z"/>
<path class="st6" d="M406.5,75.3c-0.7-0.2-1.4-0.2-2.1-0.2c-8.7,0-15.7,11.4-15.7,25.5h4.2C392.9,87.6,398.8,76.9,406.5,75.3z"/>
<path class="st0" d="M549,4v69.4c0,0.6,0,1.2,0,1.8c-0.1,5.4-0.8,9.6-1.7,9.6H547c-0.8,0-1.5-3.6-1.7-8.4c0-0.4,0-0.8,0-1.2
	c0,0,0-0.1,0-0.1c0-0.5,0-1.1,0-1.6V3.6C546.5,3.7,547.8,3.8,549,4z"/>
<path class="st0" d="M546.2,75c-13.3,0-24.2,11.4-24.2,25.5h48.3C570.4,86.4,559.5,75,546.2,75z"/>
<path class="st6" d="M548.1,75.3c-0.7-0.2-1.4-0.2-2.1-0.2c-8.7,0-15.7,11.4-15.7,25.5h4.2C534.5,87.6,540.4,76.9,548.1,75.3z"/>
<path class="st44" d="M797.8,335.3H639.9v0h-55.3V17.9c26.1,20.2,39.1,59.6,32.3,108.9c-4.6,33.4,5.8,51.4,23.6,63.3
	C689.8,222.7,795.9,207.5,797.8,335.3z"/>
<g>
	<path class="st45" d="M700.3,297.8c0,0-6.1-7.1-0.4-11.6c0,0,4.2-2.5,7.6-2.3c0,0-4.8,8.1-3.3,8.9c1.6,0.8,4.7-9.4,4.7-9.4
		s9.5-0.9,12.6,0.5c0,0-8.1,6.6-6.4,7c1.7,0.4,10.5-6.1,10.5-6.1s8.8,1.5,8.4,6.9c-0.5,5.4-3.5,7.1-4.9,6.9c-1.3-0.1-9.2-3.1-9.3-2
		c-0.2,1.1,4.5,4.7,7.8,4.9c0,0-6.2,6.9-10.4,4.9c-4.1-2-4.5-5.1-7.1-6.3c-2.6-1.2-4.8-1.2-3.7,0c1.1,1.2,5.7,2.4,7.2,5
		c1.5,2.6,2.8,4.4-1.5,3.7c-4.3-0.6-11.3-3.8-11.6-7.4C700.3,297.8,700.3,297.8,700.3,297.8z"/>
	<g>
		<path class="st45" d="M729.6,291.9c0,0-24-0.9-29.3,5.9c0,0-1.2,3.5-4.8,6.7l-0.6,1.5c0,0,4.2-4.4,5.7-4.7
			C700.6,301.4,698.2,292.9,729.6,291.9z"/>
		<path class="st45" d="M695.5,304.5c0,0-5.2,3.8-5.5,10.6l0.9,0.1c0,0,1.6-7,4.6-9.8C698.5,302.7,695.5,304.5,695.5,304.5z"/>
	</g>
</g>
<g>
	<path class="st46" d="M679,288.9c0,0,9.7-5.4,5.2-12.8c0,0-3.6-4.5-7.5-5.7c0,0,2.1,11,0,11.2c-2.1,0.3-1.4-12.4-1.4-12.4
		s-10.2-4.9-14.2-4.5c0,0,6.3,10.7,4.3,10.5c-2.1-0.3-9.2-11.1-9.2-11.1s-10.5-1.9-12.1,4.3c-1.7,6.2,1,9.3,2.6,9.7
		c1.6,0.4,11.5,0.3,11.2,1.6c-0.3,1.3-7,3.4-10.7,2.2c0,0,4.1,10.2,9.6,9.7c5.4-0.5,7.1-3.9,10.5-4.1c3.4-0.3,5.8,0.6,4.1,1.6
		c-1.7,0.9-7.4,0.3-10.1,2.6c-2.7,2.3-4.9,3.7,0.1,4.8c5,1,14.1,0.4,15.9-3.5C679,288.9,679,288.9,679,288.9z"/>
	<g>
		<path class="st45" d="M648.7,270.3c0,0,27.1,8.8,30.2,18.6c0,0-0.1,4.4,2.6,9.4v1.9c0,0-2.8-6.6-4.4-7.5
			C677.2,292.8,683.2,284.2,648.7,270.3z"/>
		<path class="st45" d="M681.5,298.3c0,0,4.2,6.4,1.8,14.1l-1.1-0.3c0,0,1-8.5-1.1-12.8C678.9,295,681.5,298.3,681.5,298.3z"/>
	</g>
</g>
<g>
	<path class="st46" d="M694.4,281.4c0,0-12.8-7.2-6.8-16.9c0,0,4.8-6,9.9-7.5c0,0-2.7,14.5,0,14.8c2.7,0.3,1.9-16.4,1.9-16.4
		s13.5-6.5,18.7-6c0,0-8.3,14.1-5.6,13.8c2.7-0.3,12.1-14.6,12.1-14.6s13.8-2.6,16,5.6c2.2,8.2-1.4,12.3-3.4,12.8
		c-2,0.5-15.2,0.3-14.8,2c0.3,1.7,9.2,4.4,14.1,2.9c0,0-5.5,13.5-12.6,12.8s-9.4-5.1-13.8-5.5c-4.4-0.3-7.7,0.9-5.5,2
		s9.7,0.4,13.3,3.4c3.6,3,6.5,4.9-0.2,6.3s-18.6,0.5-21-4.6C694.4,281.4,694.4,281.4,694.4,281.4z"/>
	<g>
		<path class="st45" d="M734.2,256.9c0,0-35.8,11.6-39.9,24.5c0,0,0.2,5.8-3.4,12.4v2.6c0,0,3.7-8.7,5.8-9.9
			C696.8,286.5,688.8,275.3,734.2,256.9z"/>
		<path class="st45" d="M691,293.8c0,0-5.5,8.4-2.4,18.6l1.4-0.4c0,0-1.4-11.2,1.5-16.9S691,293.8,691,293.8z"/>
	</g>
</g>
<path class="st6" d="M694,334.5c13.8,0,25-11.2,25-25h-50C668.9,323.3,680.1,334.5,694,334.5z"/>
<path class="st0" d="M700.1,334.3c-1,0.1-2.1,0.2-3.1,0.2c-13.8,0-25-11.2-25-25h6.2C678.2,322.3,687.8,332.8,700.1,334.3z"/>
<path class="st6" d="M719.3,335.8h-50.7l0,0c0-1.7,1.4-3.1,3.1-3.1h44.6C717.9,332.7,719.3,334.1,719.3,335.8L719.3,335.8z"/>
<rect x="668.1" y="309.5" class="st0" width="51.4" height="0.8"/>
<g>
	<path class="st47" d="M588.8,257.4c0.5-11,1.4-20.6,2.6-27.3c1.9-10.7,3.6-16.8,3.6-16.9c0.2-0.9,3.8-4.7,11.7-4.6
		c7.9,0.1,7.2,5.1,7.2,5.1l0,0c0,0.2,0,0.3-0.1,0.4c-0.1,0.3-7.3,26.2-7,59.8c0,0.5,0.1,1.3,0,1.8c0,0-18.3,0.5-18.3,0
		C587.8,272.8,588.1,264.7,588.8,257.4z"/>
	<path class="st48" d="M586.5,273.7c0,0.5,0.3,0.8,0.6,0.8h0c0.3,0,0.5-0.4,0.6-0.8h15.7c0,0.5,0.3,0.8,0.6,0.8h0
		c0.3,0,0.6-0.4,0.6-0.9c-0.1-9.6,0.5-18.6,1.3-26.5c2.1-19.7,5.9-32.9,6-33.1c0-0.1,0.1-0.3,0.1-0.4c0,0,0.8-5-7.2-5.1
		c-7.9-0.1-11.5,3.7-11.7,4.6c0,0-1,3.5-2.2,9.8c-0.4,2.1-0.9,4.4-1.3,7.1c-1.2,6.7-2.2,16.3-2.6,27.3
		C586,264.7,585.8,270.8,586.5,273.7z"/>
	<path class="st49" d="M586.5,273.7c0,0.5,0.3,0.8,0.6,0.8h0c0.3,0,0.5-0.4,0.6-0.8h15.7c0,0.5,0.3,0.8,0.6,0.8h0
		c0.3,0,0.6-0.4,0.6-0.9c-0.1-9.6,0.5-18.6,1.3-26.5c-2.6-12.5-12.6-22.1-15-24.2c-0.4,2.1-0.9,4.4-1.3,7.1
		c-1.2,6.7-2.2,16.3-2.6,27.3C586,264.7,585.8,270.8,586.5,273.7z"/>
	<g>
		<path class="st47" d="M602.3,273.6L602.3,273.6c-0.1,0-0.1,0-0.1-0.1l0,0c0-0.1,0-0.2-0.1-0.3c-0.5-0.5-2.4-0.5-4.8-0.5
			c-2.6,0-5.9,0.1-9.2-0.5c-1.7-0.3-0.5-13.1,0.7-25.1c0.2-2,0.4-3.6,0.4-4.6c0.8-10.2,5.3-28.3,5.3-28.4c0.2-0.8,2.9-3.6,8.8-3.5
			c2.2,0,3.8,0.6,4.7,1.6c0.9,1.1,0.7,2.2,0.7,2.3c0,0.1,0,0.2,0,0.3c0,0.1-4.1,23.5-4.8,29.1c-1.1,9.3-1.5,28.4-1.6,29.5
			c0,0,0,0,0,0L602.3,273.6L602.3,273.6z M598.8,272.5c1.8,0,3,0.1,3.4,0.5c0,0,0,0,0,0c0-0.4,0-1.3,0.1-2.8
			c0.1-1.8,0.1-4.7,0.3-7.9c0.2-5.6,0.6-13.4,1.2-18.4c0.7-5.8,4.7-29.1,4.8-29.2c0-0.1,0-0.2,0-0.3c0,0,0.2-1.1-0.7-2.1
			c-0.9-1-2.4-1.5-4.6-1.6c-5.8-0.1-8.4,2.6-8.6,3.4c0,0.2-4.5,18.2-5.3,28.4c-0.1,0.9-0.2,2.6-0.4,4.6c-0.8,8-2.5,24.6-0.8,24.9
			c3.2,0.6,6.5,0.5,9.1,0.5C597.8,272.5,598.3,272.5,598.8,272.5z"/>
	</g>
	<path class="st48" d="M605.6,274.6H544c0,0,1.4-5.7,37.1-4.9C606.3,270.3,605.6,274.6,605.6,274.6z"/>
	<g>
		<path class="st47" d="M610.6,334.4c-7.1-35.7-5.3-57.5-5.3-57.8c0-0.5-1-1-1.6-1.1c-0.6,0-3-0.2-3.3,0.3
			c-0.4,0.6-1.8,27.6,8.8,58.6H610.6z"/>
	</g>
	<g>
		<path class="st47" d="M553.1,334.4c7.1-35.7,5.3-57.5,5.3-57.8c0-0.5,1-1,1.6-1.1c0.6,0,3-0.2,3.3,0.3c0.4,0.6,1.8,27.6-8.8,58.6
			H553.1z"/>
	</g>
	<g>
		<path class="st50" d="M541.7,334.4c7.1-35.7,5.3-57.5,5.3-57.8c0-0.5,1-1,1.6-1.1c0.6,0,3-0.2,3.3,0.3c0.4,0.6,1.8,27.6-8.8,58.6
			H541.7z"/>
	</g>
	<g>
		<path class="st50" d="M599.1,334.4c-7.1-35.7-5.3-57.5-5.3-57.8c0-0.5-1-1-1.6-1.1c-0.6,0-3-0.2-3.3,0.3
			c-0.4,0.6-1.8,27.6,8.8,58.6H599.1z"/>
	</g>
	<path class="st47" d="M544,276.4h61.5c0.7,0,1.3-0.6,1.3-1.3v-0.7c0-0.7-0.6-1.3-1.3-1.3H544c-0.7,0-1.3,0.6-1.3,1.3v0.7
		C542.7,275.8,543.3,276.4,544,276.4z"/>
</g>
<g>
	<path class="st47" d="M355.7,256.3c0.5-11.2,1.4-20.9,2.6-27.7c1.9-10.8,3.6-17,3.6-17.1c0.2-1,3.8-4.8,11.7-4.7
		c7.9,0.1,7.2,5.2,7.2,5.2l0,0c0,0.2,0,0.3-0.1,0.4c-0.1,0.3-7.3,26.6-7,60.6c0,0.5,0.1,1.3,0,1.9c0,0-18.3,0.5-18.3,0
		C354.7,271.9,355,263.7,355.7,256.3z"/>
	<path class="st48" d="M353.4,272.9c0,0.5,0.3,0.9,0.6,0.9h0c0.3,0,0.5-0.4,0.6-0.9h15.7c0,0.5,0.3,0.9,0.6,0.9h0
		c0.3,0,0.6-0.4,0.6-0.9c-0.1-9.7,0.5-18.8,1.3-26.8c2.1-20,5.9-33.4,6-33.6c0-0.1,0.1-0.3,0.1-0.4c0,0,0.8-5-7.2-5.2
		c-7.9-0.1-11.5,3.7-11.7,4.7c0,0-1,3.6-2.2,9.9c-0.4,2.1-0.9,4.5-1.3,7.2c-1.2,6.8-2.2,16.5-2.6,27.7
		C352.9,263.7,352.7,269.9,353.4,272.9z"/>
	<path class="st49" d="M353.4,272.9c0,0.5,0.3,0.9,0.6,0.9h0c0.3,0,0.5-0.4,0.6-0.9h15.7c0,0.5,0.3,0.9,0.6,0.9h0
		c0.3,0,0.6-0.4,0.6-0.9c-0.1-9.7,0.5-18.8,1.3-26.8c-2.6-12.7-12.6-22.4-15-24.6c-0.4,2.1-0.9,4.5-1.3,7.2
		c-1.2,6.8-2.2,16.5-2.6,27.7C352.9,263.7,352.7,269.9,353.4,272.9z"/>
	<g>
		<path class="st47" d="M369.2,272.7L369.2,272.7c-0.1,0-0.1,0-0.1-0.1l0,0c0-0.1,0-0.2-0.1-0.3c-0.5-0.5-2.4-0.5-4.8-0.5
			c-2.6,0-5.9,0.1-9.2-0.5c-1.7-0.3-0.5-13.3,0.6-25.4c0.2-2.1,0.4-3.7,0.4-4.7c0.8-10.3,5.3-28.7,5.3-28.8c0.2-0.8,2.9-3.6,8.8-3.5
			c2.2,0,3.8,0.6,4.7,1.6c0.9,1.1,0.7,2.3,0.7,2.3c0,0.1,0,0.2,0,0.3c0,0.1-4.1,23.8-4.8,29.5c-1.1,9.4-1.5,28.8-1.6,29.9
			c0,0,0,0,0,0L369.2,272.7L369.2,272.7z M365.7,271.6c1.8,0,3,0.1,3.4,0.5c0,0,0,0,0,0c0-0.4,0-1.3,0.1-2.9c0.1-1.9,0.1-4.8,0.3-8
			c0.2-5.7,0.6-13.6,1.2-18.6c0.7-5.8,4.7-29.5,4.8-29.6c0-0.1,0-0.2,0-0.3c0,0,0.2-1.2-0.7-2.2c-0.9-1-2.4-1.5-4.5-1.6
			c-0.1,0-0.2,0-0.3,0c-5.6,0-8.2,2.7-8.4,3.4c0,0.2-4.5,18.4-5.3,28.8l-0.1,0l0.1,0c-0.1,1-0.2,2.6-0.4,4.7
			c-0.8,8.1-2.5,24.9-0.8,25.2c3.2,0.6,6.5,0.5,9.1,0.5C364.7,271.6,365.2,271.6,365.7,271.6z"/>
	</g>
	<path class="st48" d="M372.5,273.7h-61.6c0,0,1.4-5.8,37.1-4.9C373.2,269.4,372.5,273.7,372.5,273.7z"/>
	<g>
		<path class="st47" d="M377.5,334.4c-7.1-36.2-5.3-58.3-5.3-58.6c0-0.6-1-1.1-1.6-1.1c-0.6,0-3-0.2-3.3,0.3
			c-0.4,0.6-1.8,28,8.8,59.4H377.5z"/>
	</g>
	<g>
		<path class="st47" d="M320,334.4c7.1-36.2,5.3-58.3,5.3-58.6c0-0.6,1-1.1,1.6-1.1c0.6,0,3-0.2,3.3,0.3c0.4,0.6,1.8,28-8.8,59.4
			H320z"/>
	</g>
	<g>
		<path class="st50" d="M308.6,334.4c7.1-36.2,5.3-58.3,5.3-58.6c0-0.6,1-1.1,1.6-1.1c0.6,0,3-0.2,3.3,0.3c0.4,0.6,1.8,28-8.8,59.4
			H308.6z"/>
	</g>
	<g>
		<path class="st50" d="M366,334.4c-7.1-36.2-5.3-58.3-5.3-58.6c0-0.6-1-1.1-1.6-1.1c-0.6,0-3-0.2-3.3,0.3c-0.4,0.6-1.8,28,8.8,59.4
			H366z"/>
	</g>
	<path class="st47" d="M310.9,275.6h61.5c0.7,0,1.3-0.6,1.3-1.3v-0.7c0-0.7-0.6-1.3-1.3-1.3h-61.5c-0.7,0-1.3,0.6-1.3,1.3v0.7
		C309.6,275,310.2,275.6,310.9,275.6z"/>
</g>
<g>
	<path class="st51" d="M395.9,227c0,0,5.1,2.1,8.7-3.1C404.6,223.9,398.7,222.9,395.9,227z"/>
	<path class="st51" d="M395.5,224.9c0,0-0.4-1.8-2.5-1.9C393,223,393.8,224.8,395.5,224.9z"/>
	<path class="st51" d="M396.6,214.2c0,0,2.5,0.3,3.4-2.4C400,211.8,397.3,212.1,396.6,214.2z"/>
	<g>
		<path class="st51" d="M402.4,178.5c-5-1.1-5.1-5.1-5.1-5.1C403.2,175.2,402.4,178.5,402.4,178.5z"/>
		<path class="st51" d="M402.8,177.5c0,0,3.1,1.3,5.3-1.9C408.1,175.6,404.5,175,402.8,177.5z"/>
		<g>
			<path class="st51" d="M396,238.9l-0.6,0.7c-0.1,0.1-0.3,0-0.3-0.1c0-21,2.7-39.6,4.9-50.6c2.4-12,4.9-19.1,4.9-19.2l0,0
				c0,0.1-2.3,7.3-4.7,19.2c-2.2,11-4.8,25.4-4.2,49.6C396.1,238.7,396,238.8,396,238.9z"/>
		</g>
		<path class="st52" d="M404.9,167c-0.8,0.6-3.8,3.4-0.9,5.5c0,0,2.3,0.7,3-1c0.6-1.3,0.7-2.8,0.8-3.4c0-0.2-0.1-0.3-0.3-0.3
			c-0.2,0-0.4-0.1-0.6-0.1c-0.3-0.1-0.4-0.5-0.8-0.6c-0.2-0.1-0.5-0.1-0.8-0.1C405.1,166.8,405,166.9,404.9,167z"/>
		<path class="st51" d="M403.2,171.7c0,0,0.9,0.7,0.6,1.9l0,0.4c0,0,0.2-1.1,1.3-1.4C405.1,172.6,404.1,172.7,403.2,171.7z"/>
		<path class="st53" d="M402.4,178.5c-5-1.1-5.1-5.1-5.1-5.1S401.3,175.5,402.4,178.5z"/>
	</g>
	<g>
		<path class="st51" d="M397.6,175.7c0,0-3.1,1.2-5.3-2C392.4,173.7,396,173.1,397.6,175.7z"/>
		<g>
			<path class="st51" d="M403.2,237.2l0.6,0.8c0.1,0.1,0.3,0,0.3-0.1c0.4-21-1.9-39.6-3.9-50.7c-2.2-12-4.5-19.2-4.6-19.2l0,0
				c0,0.1,2.1,7.3,4.3,19.3c2,11.1,4.3,25.5,3.2,49.7C403.1,237,403.2,237.1,403.2,237.2z"/>
		</g>
		<path class="st52" d="M395.8,165.1c0.8,0.7,3.8,3.4,0.8,5.5c0,0-2.3,0.7-3-1.1c-0.5-1.3-0.7-2.8-0.7-3.5c0-0.2,0.1-0.3,0.3-0.3
			c0.2,0,0.4,0,0.6-0.1c0.3-0.1,0.4-0.5,0.8-0.6c0.2-0.1,0.5-0.1,0.8-0.1C395.5,164.9,395.6,165,395.8,165.1z"/>
		<path class="st51" d="M397.4,169.8c0,0-0.9,0.7-0.6,1.9l0,0.4c0,0-0.2-1.1-1.3-1.4C395.4,170.7,396.4,170.8,397.4,169.8z"/>
	</g>
	<g>
		<path class="st51" d="M399,172c0,0,3.3,0.6,4.8-3C403.7,169,400.1,169.2,399,172z"/>
		<g>
			<path class="st51" d="M405.7,233.4l-0.5,0.9c-0.1,0.1-0.3,0.1-0.3,0c-4.5-20.5-6-39.2-6.2-50.4c-0.2-12.2,0.6-19.7,0.6-19.8l0,0
				c0,0.1-0.6,7.6-0.4,19.8c0.2,11.2,0.9,25.8,6.8,49.3C405.8,233.2,405.8,233.3,405.7,233.4z"/>
		</g>
		<path class="st52" d="M398.7,161.2c-0.6,0.8-3,4.1,0.3,5.5c0,0,2.4,0.2,2.7-1.7c0.3-1.4,0.1-2.9,0-3.5c0-0.2-0.2-0.3-0.3-0.2
			c-0.2,0-0.4,0-0.7,0c-0.3,0-0.5-0.4-0.9-0.4c-0.2,0-0.5,0-0.8,0.1C398.9,161,398.8,161.1,398.7,161.2z"/>
		<path class="st51" d="M398.1,166.2c0,0,1,0.5,1,1.7l0.1,0.4c0,0,0-1.1,1-1.7C400.1,166.7,399.2,167,398.1,166.2z"/>
	</g>
	<path class="st51" d="M401.7,168.3c0,0,0-2.6,2.3-3.4C404,164.9,404.5,167.1,401.7,168.3z"/>
	<path class="st54" d="M396.4,164.1c0,0,0.1-2-1.8-2.6C394.6,161.5,394.2,163.4,396.4,164.1z"/>
	<path class="st54" d="M402.5,176.1c0.1,0.1,1-1.9-0.9-3.6C401.6,172.6,400.8,174.7,402.5,176.1z"/>
	<path class="st51" d="M403.7,176c-0.1,0,0-1,0.9-1.1C404.7,174.8,404.8,175.7,403.7,176z"/>
	<path class="st51" d="M394.3,172.6c0,0-0.8-1.7-3.4-1.4C390.9,171.2,391.3,173,394.3,172.6z"/>
</g>
<path class="st0" d="M408.4,241.4H392c-1.1,0-1.9-1-1.8-2.1l7.6-52.7c0.1-0.5,0.5-0.9,1-0.9h2.4c0.5,0,1,0.4,1.1,0.9l7.8,52.7
	C410.3,240.4,409.5,241.4,408.4,241.4z"/>
<g>
	<path class="st6" d="M395.7,239.8l4.1-54c-0.4,0.1-0.8,0.4-0.9,0.8l-7.6,52.7c-0.2,1.1,0.7,2.1,1.8,2.1h3.3
		C395.9,241,395.6,240.4,395.7,239.8z"/>
</g>
<path class="st26" d="M556.6,235.6c0,0-11.3,12.9-13.6,12.7c-2.4-0.2-3.8-1-5.8,0c-1.5,0.7-6.1,4.4-4.9,4.2c1.2-0.2,3.5-0.5,4.1-0.6
	c0.8-0.1,2.1-0.1,3-0.3c0.6-0.1,2.6-0.2,3.3-0.2c3-0.1,17-8.3,17-8.3L556.6,235.6z"/>
<path class="st0" d="M538.1,221.9c-0.4-0.3-1.3-0.2-1.9,0v-0.9c0-0.2,0-0.4,0-0.6h-9.5c0,0.2,0,0.4,0,0.6v1.9c0,2.6,2.1,4.8,4.8,4.8
	c1.4,0,2.7-0.6,3.6-1.6l0,0c0,0,2.3-0.6,3-1.4C538.6,223.7,538.9,222.4,538.1,221.9z M537.6,223.6c-0.2,0.6-1.3,0.9-1.8,1.1
	c0.2-0.5,0.3-1,0.4-1.6c0.3-0.4,0.8-0.7,1.2-0.6C537.7,222.5,537.9,222.8,537.6,223.6z"/>
<path class="st6" d="M527.4,220.9v1.9c0,2.6,2.1,4.8,4.8,4.8c0.2,0,0.4,0,0.6,0c-2.3-0.3-4.1-2.3-4.1-4.7v-1.9c0-0.2,0-0.4,0-0.6
	h-1.3C527.4,220.5,527.4,220.7,527.4,220.9z"/>
<rect x="529.4" y="227.2" class="st0" width="3.9" height="0.6"/>
<path class="st55" d="M564.4,170.3c0,0,0.5-6.5,9.8-4.8c2.5,0.4,4.1-3.9,8.2-2.4c8.7,3.4,9.2-1.1,11.7,5.2c1,2.6,7.7,5.6,5.7,10.1
	c-2,4.5,1.4,7.5-1,11.1c-1.2,1.8-0.7,5.1-6.6,5.2c-2.9,0.1-7.4,5.4-10.7,6.4c-3.3,1-13.1-0.4-12.7-4.9c0.3-3.5-3.8-3.2-6.3-7.2
	c-2.2-3.5,1.7-4.4-0.4-10.1C560.6,174.8,564.6,173.8,564.4,170.3z"/>
<path class="st26" d="M513.4,329.2c0.2,2.2-2.8,2.7-6.3,2.9c-3.5,0.2-2.4,0.9-7.2,1.8c-4.8,0.9-6.7-0.4-7-1.1
	c-0.3-0.6,1.9-1.5,4.3-2.5c0.3-0.1,0.6-0.3,0.9-0.4c2.7-1.2,4.2-3.6,6.2-5.8c2-2.1,3.8-8.8,3.8-8.8l6.5-1.4c0,0-1.8,6-2.5,8.6
	c-0.4,1.5,0.2,3.2,0.7,4.5C513,327.7,513.3,328.5,513.4,329.2z"/>
<path class="st36" d="M507.1,332.1c-3.5,0.2-2.4,0.9-7.2,1.8c-4.8,0.9-6.7-0.4-7-1.1c-0.3-0.6,1.9-1.5,4.3-2.5l0,0
	c0,0,3.4,1.1,7.2,0.1c3.2-0.9,6.2-2.7,8.4-3.4c0.3,0.7,0.5,1.4,0.6,2.2C513.6,331.4,510.6,331.9,507.1,332.1z"/>
<path class="st56" d="M570.8,247.4c0,0-36,1.6-44.1,6.7c-8.1,5.1-21.1,64.8-21.1,64.8s0.8,0.6,2.6,0.8c1.7,0.2,5.3-0.8,5.3-0.8
	s18.7-26.7,20-33.4c1.3-6.7,1-12.7,4-12.9c3-0.2,40.4,4.5,46.1-5.4C589.3,257.3,570.8,247.4,570.8,247.4z"/>
<path class="st26" d="M528.2,329.5c0.2,2.2-2.8,2.7-6.3,2.9c-3.5,0.2-2.4,0.9-7.2,1.8c-4.8,0.9-6.7-0.4-7-1.1
	c-0.3-0.6,1.9-1.5,4.3-2.5c0.3-0.1,0.6-0.3,0.9-0.4c2.7-1.2,4.2-3.6,6.2-5.8c2-2.1,3.8-8.8,3.8-8.8l6.5-1.4c0,0-1.8,6-2.5,8.6
	c-0.4,1.5,0.2,3.2,0.7,4.5C527.9,328,528.1,328.7,528.2,329.5z"/>
<path class="st36" d="M521.9,332.3c-3.5,0.2-2.4,0.9-7.2,1.8c-4.8,0.9-6.7-0.4-7-1.1c-0.3-0.6,1.9-1.5,4.3-2.5l0,0
	c0,0,3.4,1.1,7.2,0.1c3.2-0.9,6.2-2.7,8.4-3.4c0.3,0.7,0.5,1.4,0.6,2.2C528.4,331.6,525.4,332.2,521.9,332.3z"/>
<path class="st0" d="M584.8,248.3c0,0-38.3,1.8-46.2,7.2c-7.9,5.4-18.6,65.6-18.6,65.6s0.8,0.6,2.6,0.7c1.7,0.1,5.3-1,5.3-1
	s17.7-27.4,18.7-34.2c1.1-6.8,0.5-12.8,3.5-13c3-0.3,40.6,3,45.8-7.2C601.2,256.2,584.8,248.3,584.8,248.3z"/>
<path class="st26" d="M596.2,199.3C596.2,199.3,596.2,199.3,596.2,199.3c-0.4-0.4-0.7-0.7-1.1-1l0,0c0,0,0,0,0,0
	c-3.1-2.2-8.7-2.7-8.7-2.7v0v0c0,0,0,0,0,0c0,0-0.6-0.1-1.6-0.1c-0.7-1.9-1.6-4.7-1.8-8.8l-0.6,0.1l-9.3,2.5c0,0,0.4,3,0.6,5.8
	c0,0.6,0.1,1.2,0.1,1.8c-0.3,0.1-6.1,0.9-7.3,2.3c-1.3,1.4-3.8,10.4-4.4,12l35.9,0.6C597.9,211.8,598.8,202.4,596.2,199.3z"/>
<path class="st6" d="M597.5,263.5c-4.2,0.4-18.6-8.2-23.3-11.1c-0.1,0-0.2-0.1-0.2-0.1c-2-1.2-4.8-1.7-7.4-2.2
	c-3.4-0.6-6.5-0.9-7.6-2.1c-1.2-1.4,2.3-3,5.2-4.7c1.4-0.8,2.7-1.7,3.1-2.5c0.3-0.7,0.3-2.1,0.1-4v0c0-0.4-0.1-0.7-0.1-1.1
	c-0.2,0.5-0.5,1-0.9,1.5c-0.8,1.3-1.9,2.5-3,3.6c-1.4,1.3-2.7,2.2-3.5,2.4c-0.6,0.1-1.1,0.1-1.7-0.2c-1.5-0.6-2.9-2.2-4.1-3.8
	c-0.3-0.4-0.5-0.7-0.8-1.1c-0.8-1.2-1.3-2.2-1.5-2.4c-0.6-0.7,2.6-2.1,3.9-3.1c1.3-1,6.5-21.4,6.5-21.4c0.6-1.6,3.2-10.6,4.4-12
	c0,0,4.9,6,11.3,5.7c6.3-0.3,17.2-6.4,17.3-6.5c0.6,0.3,1.1,1,1.1,1c2.6,3.1,1.7,12.4,1.7,12.4s-5,21.9-5,24.1c0,4,3.3,13.3,4.9,20
	C598.9,260.2,599.2,263.4,597.5,263.5z"/>
<path class="st57" d="M573.1,189.4c0,0,0.4,3,0.6,5.8c5.3-0.5,7.7-5.5,8.7-8.3L573.1,189.4z"/>
<path class="st26" d="M571.5,192.2c0,0,12.5-0.6,12-8.4c-0.5-7.8,0.8-13.1-7.3-13c-8,0.1-9.4,3.1-9.8,5.8
	C566,179.2,568.2,192.1,571.5,192.2z"/>
<path class="st55" d="M571,173.5c0,0,3-0.7,4,0.8c1,1.5,0.3,2.3,2.5,2.9c2.2,0.6,2.9,0.6,2.7,2.1c-0.2,1.5,2.2,2.7,2.3,3.9
	c0.1,1.2,1.1,1.8,2.1,1.9c1,0.1,0.5-15.8-3.2-16.5s-7.3,0.1-8.4,1C571.8,170.5,571,173.5,571,173.5z"/>
<path class="st55" d="M571,173.5c0,0-2.9-0.2-3.4,1.5c-0.5,1.7,0.2,2.1-0.6,3.1c-0.7,1-0.3,2.8-0.3,2.8s-5.8-10.6,0.3-11.3
	C573,168.8,572.9,170,571,173.5z"/>
<path class="st40" d="M567.2,233.2c-0.8,2.5-2.3,5.2-3.9,7.5c-1.4,1.3-2.7,2.2-3.5,2.4c-0.6,0.1-1.1,0.1-1.7-0.2
	c-1.5-0.6-2.9-2.2-4.1-3.8c-0.3-0.4-0.5-0.7-0.8-1.1c4-3.2,11.5-10.5,12.3-20.5C566.6,204,567.2,233.8,567.2,233.2z"/>
<path class="st58" d="M558.1,243c1.4-2.1,4.2-4.2,8.3-5.8c-1.9,2.8-5.1,5.6-6.6,6C559.2,243.3,558.6,243.2,558.1,243z"/>
<path class="st40" d="M591.2,216.7c0,0-3.1,31.4-17,35.7c-0.1,0-0.2-0.1-0.2-0.1c-2-1.2-4.8-1.7-7.4-2.2c-3.4-0.6-6.5-0.9-7.6-2.1
	c-1.2-1.4,2.3-3,5.2-4.7c1.4-0.8,2.7-1.7,3.1-2.5c0.3-0.7,0.3-2.1,0.1-4v0C580.7,231.8,591.2,216.7,591.2,216.7z"/>
<path class="st26" d="M594.7,207.4c-1.4-6.5-8-2.8-8-2.8c-2.3-0.5-19,26.6-20.3,27.2c-1.1,0.5-16.5-4-21.2-5.3
	c-1.2-0.9-5.5-4.2-6.2-4.3c-0.9-0.1-6.7,1.4-6.6,2.3c0,0.9,1.4,2.3,3.5,2.6c1.6,0.3,4.4,1.3,6.1,1.6l0,0c0,0,17,11.6,24.3,13
	C572.7,243.1,596.1,214,594.7,207.4z"/>
<path class="st6" d="M556.1,229.6c0,0-3.9,10.1,0.8,13.9c4.7,3.8,14.9,2.5,26.1-13c11.2-15.6,15.7-24.1,9.9-26.5
	c-5.8-2.5-10.6,1.4-13.6,7.5c-3.1,6.3-8.8,15-12.2,15.3C563.7,227.1,556.1,229.6,556.1,229.6z"/>
<path class="st26" d="M457.8,134.9l0,1.5c0,0-0.4,4.8,5.4,5.5c5.9,0.7,10.7,0.6,10.5-3.1c-0.5-2.8-1.5-7.3-1.5-9.6
	c0-0.9,0-1.8,0.2-2.8l-11.4-0.2l-3.3,0.5L457.8,134.9z"/>
<path class="st37" d="M457.8,126.7l0,8.2c1.2,0.6,2.6,0.9,4.1,0.9c5.2,0,8.6-3.8,10.4-6.6c0-0.9,0-1.8,0.2-2.8l-11.4-0.2
	L457.8,126.7z"/>
<path class="st26" d="M473.3,124.5c-1.3,7.1-10.5,6.9-14.4,6.4c-1.1-0.1-1.8-0.3-1.8-0.3c-1.3-0.3-2-2.3-2.3-4.9
	c-0.6-5.1,0.2-12.6,1-14.6c1.3-2.9,3.8-6,13-3.8C478,109.7,475,115.4,473.3,124.5z"/>
<path class="st36" d="M480.8,334.4h-13c0.1-0.7,0.4-2.7,1-4.7c0.2-0.7,0.5-1.3,0.7-1.9c1.3-2.5,9.3-0.9,9.3-0.9s0.7,0.6,1.3,3.1
	C480.5,331.1,480.7,332.5,480.8,334.4z"/>
<path class="st36" d="M441.7,330.3c0,1.8-0.3,3.4-0.9,4.1h-25.6c0.3-0.9,1.2-2.3,3.9-2.7c3-0.5,7.7-1.9,10.4-4.8c1-1,1.7-2.2,2-3.6
	c1.2-5.4,10,1.6,10,1.6S441.7,327.7,441.7,330.3z"/>
<path class="st0" d="M458.7,272.2c-0.4,2-0.6,3.6-0.6,4.7c-0.8,15.9-13.4,52.2-15.6,53.1c-3.5,1.3-9-1.5-11.8-2.4
	c-1.2-0.4-2-1.6-1.7-2.8c6.2-28.6,8.5-69.8,9.3-94.2c0.4-12.3,2.5-20.8,2.5-20.8s30.6-8.2,30.8,2.2
	C471.8,221.2,461.4,257.1,458.7,272.2z"/>
<path class="st36" d="M458.7,272.2l-20.5-41.5c0.4-12.3,2.5-20.8,2.5-20.8s30.6-8.2,30.8,2.2C471.8,221.2,461.4,257.1,458.7,272.2z"
	/>
<path class="st0" d="M451.9,212.1l16.2,117.4c0,0,7.1,1.7,12.6,0.3c0,0,4.7-62.4,4.3-77.5c-0.4-15.1,3.4-40.4-0.9-43.2
	C479.9,206.4,451.9,212.1,451.9,212.1z"/>
<path class="st36" d="M453,104.5c0,0,4.1-0.3,8.8-2.4c3.9-1.7,8.8,0.2,10.4,1c0-0.3-0.1-0.6-0.4-1c0,0,0.7,0.5,0.8,1.2
	c0.1,0.1,0.1,0.1,0.1,0.1c0,0,0.8-0.1,1.3,0.1c0,0-0.4-0.1-0.5,0.2c0,0,0,0-0.1,0.1c6.1,2.9,6.6,12.5,4.7,14.7
	c-2.3,2.7-5.2,8.7-5.2,8.7s-1-1.4-0.6-3.8c0.4-2.3-1.6-2.3-4.2-3.4c-2.6-1.1-0.4-4-2.7-5.9c-2.2-1.8-10.4-0.7-10.3-2.1
	C452.3,110.9,453,104.8,453,104.5z"/>
<path class="st38" d="M475.2,140.8l-3.7,80c0,0-31.1,0.5-30.2-6.5c0.9-7,11.2-71,11.2-71L475.2,140.8z"/>
<path class="st0" d="M486.3,186.2c-1.9,5.6,1.6,24.2,2.9,30.5c0.3,1.3,0.5,2.1,0.5,2.1c-4.3,7-20.1,6.9-20.1,6.9
	c-3-13.4-4.6-34.8-4.6-34.8l12.1-53.1l15.2,14.1c0,0-1.2,8.6-2.6,17.3C488.5,176.2,487.3,183.3,486.3,186.2z"/>
<path class="st21" d="M460.4,125.7c0,0-0.3,0.9-2.6,0.6c0,0-1.9-0.3-1.8-1.3C456,125,457.9,124.4,460.4,125.7z"/>
<path class="st0" d="M442.9,142C442.9,142,442.9,142,442.9,142c-0.7,0.7-21.5,20.9-25.6,28.8c-4.1,8,18.7,24,18.7,24
	s1.5,0.6,2.5,0.4c-1.1,8.9-2.3,17-1.6,20.5c1.3,6.3,7.1,8.4,7.1,7.9c0-0.2,2.1-22.9,3.3-34.8c2.5-25.5,8.7-50.8,8.7-50.8
	C449.3,138.7,442.9,142,442.9,142z M430.5,174.3c0,0,0-0.1,0-0.1c0-1.2,4.4-3.7,9.2-6.7c0.1-0.1,0.1-0.1,0.1-0.1c0,0,0,0,0,0
	c-0.1,2.5-0.1,4.9,0.1,7.1c0.3,4.2,0,9.1-0.5,14.2C437,185.1,430.9,175.6,430.5,174.3z"/>
<path class="st39" d="M476,137.8c0-0.8-3.6-1.8-3.6-1.8s-4.1,5.7-11,5.8c0,0,1.9,3.8,4.2,4.8C465.7,146.6,475.8,142.3,476,137.8z"/>
<path class="st39" d="M461.5,141.7c0,0-3.6-2.1-3.6-4.5c0,0-2.3-0.3-3.4,0.8c0,0-0.9,4,0.3,6.3C454.8,144.3,460,143.5,461.5,141.7z"
	/>
<path class="st6" d="M463.9,141.3l-4.9-1.2c0,0-0.6,0.1-0.6,0.9c0,0.8,1.4,3.1,2,3.3C461,144.5,465.1,142.9,463.9,141.3z"/>
<path class="st38" d="M475.5,137.4c0-0.8-2.4-2.3-2.4-2.3s-4.7,5.5-11.6,5.6c0,0,1.9,3.8,4.2,4.8
	C465.7,145.4,475.2,141.9,475.5,137.4z"/>
<path class="st38" d="M461.5,140.7c0,0-3.7-1.9-3.7-4.3c0,0-2.2,1-3.2,2.1c0,0-0.9,2.5,0.2,4.8C454.8,143.3,460,142.5,461.5,140.7z"
	/>
<path class="st6" d="M451.9,195.9c0.2,1.9,1,3.6,2.4,4.9l2.2,2c0.5,0.5,1.4,0.4,1.9-0.1l2.7-3.4c0.7-0.9,1.1-2.1,0.9-3.2
	c-0.3-2.6-0.7-7.6-1.1-12.4c-0.3-3.9-0.5-7.7-0.6-10c-0.1-7.3,1.4-30.8,1.4-30.8l-1.8,0.1c0,0-4.4,9.1-6.7,21.5
	c-0.6,3-1,6.3-1.2,9.6C452.1,174,451.2,187.4,451.9,195.9z"/>
<path class="st40" d="M451.9,195.9c0.2,1.9,1,3.6,2.4,4.9l2.2,2c0.5,0.5,1.4,0.4,1.9-0.1l2.7-3.4c0.7-0.9,1.1-2.1,0.9-3.2
	c-0.3-2.6-0.7-7.6-1.1-12.4c-4.9-5.5-6.8-13-7.6-19.2c-0.6,3-1,6.3-1.2,9.6C452.1,174,451.2,187.4,451.9,195.9z"/>
<path class="st26" d="M434.6,196.1c0-2,1.8-3.7,3.8-3.4c0.6,0.1,1.1,0.3,1.4,0.8c1.4,1.8,2.7,7.2,0.2,7.5c-1,0.1-2.3-0.6-3.3-1.4
	c-1-0.8-2.2-2-2.2-3.2V196.1z"/>
<path class="st36" d="M489.2,216.7c-4.5-4.6-12.2-13.8-11.9-21.3c0.4-10.5,12.4-26.1,12.4-26.1c-1.1,6.9-2.4,14-3.4,16.9
	C484.4,191.8,487.9,210.4,489.2,216.7z"/>
<path class="st26" d="M489,198.4c0,0-3.2,1.6-5.2,0.8c-1.9-0.8-4.2-1.4-6.4,1.1c-2.2,2.5-2.6,4.2-2.2,5.1c0.5,0.9,5.5,0.6,6.4,0
	c0.8-0.6,2.2-2,3-1.7c2.3,0.7,4.3-1.1,5.4-2.5C490.7,200.3,488.9,199.9,489,198.4z"/>
<path class="st0" d="M477,137.9c0,0,12.8,1.4,15.8,7c3,5.6,18.7,28.1,18.2,37.5c-0.5,9.4-21.4,19.9-21.4,19.9s-4.6-2-4.7-4.1
	c-0.1-2.1,14.4-14.7,13.5-17c-0.9-2.3-16.8-20.9-18.4-27C478.5,148.1,477,137.9,477,137.9z"/>
<path class="st36" d="M439.7,167.3C439.7,167.3,439.7,167.4,439.7,167.3c-4.9,3.1-9.3,5.6-9.3,6.8c-0.6-2,5.6-10.5,7.6-12.3
	C440.1,160.1,439.7,167.3,439.7,167.3z"/>
<path class="st36" d="M473.1,135c0,0-9.7,40.6-8.2,55.9c0,0,3.6-16.4,12.2-29.8c0,0-3.1-2.8-3-3.8c0,0,2.3-0.7,4.6-0.2
	c0,0-0.2-17.5-1.7-19.4C475.6,136,473.1,135,473.1,135z"/>
<path class="st36" d="M457.8,136.4c0.2-0.1-9.6,39.7-10.4,52.4c0,0,1-22.6,0.9-29.2c0,0,4-2.1,4-2.9c0-0.7-4.3-2.8-4.3-2.8
	s2.7-13.9,4.2-15.5C453.7,137,457.8,136.4,457.8,136.4z"/>
<path class="st26" d="M331.6,312.4c0.5,0.6,0.6,1.2,0.3,1.9c0,0,0,0,0,0c-0.5,1.3-2,2.7-3.8,4.2c-0.2,0.2-0.4,0.4-0.6,0.5
	c0,0-0.1,0.1-0.1,0.1c0,0-0.1,0.1-0.1,0.1c-1.7,1.5-1,1.9-4.1,5c-3.4,3.6-5.8,3.6-6.5,3.3c-0.6-0.3,0.6-2.2,1.9-4.3
	c0.1-0.1,0.1-0.2,0.2-0.3c0.2-0.3,0.3-0.6,0.5-0.9c1.5-2.6,1.1-3.8,0.8-7.6c-0.3-3.1-4.8-17.4-4.8-17.4l6.6-1.1c0,0,2,11.3,4.2,13.1
	c1.2,0.9,2.5,0.9,3.6,1.6c0.1,0,0.2,0.1,0.2,0.1C330.4,311.4,331.1,311.9,331.6,312.4z"/>
<path class="st36" d="M331.6,312.4c0.5,0.6,0.6,1.2,0.3,1.9c0,0,0,0,0,0c-0.6,1.3-2.1,2.7-3.8,4.2c-0.2,0.2-0.4,0.4-0.6,0.5
	c0,0-0.1,0.1-0.1,0.1c0,0-0.1,0.1-0.1,0.1c-1.7,1.5-1,1.9-4.1,5c-3.4,3.6-5.8,3.6-6.5,3.3c-0.6-0.3,0.6-2.2,1.9-4.3
	c0.7-0.2,3.8-1.5,6.1-4.5c2.1-2.6,3.5-6,4.9-8c0.1,0,0.2,0.1,0.2,0.1C330.4,311.4,331.1,311.9,331.6,312.4z"/>
<path class="st26" d="M278.4,308.3c-0.4,2-3.3,1.7-6.5,0.9s-2.5,0.1-7.1-0.4c-4.6-0.5-6-2.2-6.2-2.9c-0.1-0.6,2.2-0.8,4.6-1.1
	c0.3,0,0.6-0.1,0.9-0.1c2.8-0.3,4.8-2.1,7.3-3.6c2.4-1.4,5.9-7,5.9-7l6.3,0.5c0,0-3.3,5-4.6,7.2c-0.8,1.3-0.7,3-0.6,4.3
	C278.5,306.9,278.6,307.6,278.4,308.3z"/>
<path class="st36" d="M271.9,309.2c-3.2-0.8-2.5,0.1-7.1-0.4c-4.6-0.5-6-2.2-6.2-2.9c-0.1-0.6,2.2-0.8,4.6-1.1l0,0
	c0,0,2.8,2,6.6,2.1c3.1,0.1,6.4-0.8,8.6-0.8c0,0.7,0.1,1.4,0,2.2C278,310.4,275.1,310,271.9,309.2z"/>
<path class="st26" d="M292.5,215.4c0,0-1.5-3.7-3.2-3.8c-1.7-0.2-6.9-1-7.3-0.2c-0.4,0.8,0,3.5,1.1,4.4c1.1,1,8.1,2.6,8.1,2.6
	L292.5,215.4z"/>
<path class="st56" d="M302.7,267.9l13.6,36.7c0,0,2.1,0.2,4.1-0.4c1.8-0.5,4-1.9,4-1.9s-3.4-35.2-9.6-42.6
	C308.6,252.4,302.7,267.9,302.7,267.9z"/>
<path class="st0" d="M356.6,253c0,0-39.2-13.2-47.9-10.4c-8.7,2.8-35,55-35,55s0.6,0.8,2.2,1.4c1.5,0.6,5.1,0.5,5.1,0.5
	s23.7-20.3,26.5-26.2c2.8-5.9,3.9-11.6,6.8-11c2.8,0.6,36.4,13.8,44,5.9c7.6-7.9,5.6-18.1,5.6-18.1L356.6,253z"/>
<path class="st59" d="M332.7,191.4c-0.6-1.3-1.3-3.6-1.7-7.7c0.1,0.4,0.8,5.6,2.7,8.5c8.1,5.3,23.8,23.2,23.5,26.6
	c0,0,5.5-9.3,5.6-9.4c0,0,10.1-12.9-1.9-20.3c-6.1-3.8-6.1-8.6-5.8-12.8c0.3-4.2-1.7-22.2-13.9-17.5c0,0-2-0.9-2.8-0.7
	c0,0,0.7,0.1,1.1,0.5c-1.4-0.1-3.4,0-5.1,1C329.8,162.2,325.8,185.1,332.7,191.4z"/>
<path class="st26" d="M334.2,192.5c0,0,3.9,2.1,6.9,1.3c2.8-0.8,4.6-4.4,4.6-4.4c-1.2-0.2-1.5-1.9-1.5-8.9l-0.5,0.1l-9.1,1.8
	c0,0,0.2,2.8,0.2,5.5C334.9,190.1,334.7,192.2,334.2,192.5z"/>
<path class="st34" d="M334.7,182.3c0,0,0.2,2.8,0.2,5.5c5.1-0.1,7.7-4.8,8.8-7.3L334.7,182.3z"/>
<path class="st59" d="M344.7,179.5c0,0,2.7-4.2,3.3-7.8c0.5-2.6-0.8-12.1-10.4-10.7c0,0-2.8,0.3-5.4,2c-2.1,1.4-5.1,4.4-1.7,12.7
	l0.9,2.8L344.7,179.5z"/>
<path class="st26" d="M333,184.9c0,0,12,0.2,12-7.3c0-7.5,1.6-12.5-6.1-12.9c-7.7-0.4-9.1,2.4-9.8,4.9
	C328.5,172.1,329.9,184.6,333,184.9z"/>
<path class="st59" d="M333.4,164.5c0,0,3.3,8.8,8.3,10.1c5,1.3,7.2-0.1,7.2-0.1s-3.9-3.1-4.7-8.4
	C344.3,166.1,335.9,160.3,333.4,164.5z"/>
<path class="st59" d="M334.2,165.2c0,0-2.5,2-3,3.9c-0.6,1.9-0.9,5.8-2,5.7c0,0-2.5-6,0.3-9.3C332.4,161.9,334.2,165.2,334.2,165.2z
	"/>
<path class="st6" d="M365.8,253.2c-0.6,1.8-2.6,2.3-5.3,1.9c-5.1-0.6-12.6-4-18-6.3c-8.3-3.6-12-0.2-14.7-2.5
	c-2.6-2.3,3-7.4-1.9-30.9c-1.7-8,8.8-25.1,8.8-25.1s0.9,5,11-1c0.4-0.2,4.3,5.6,8.1,12.9c4.2,8,8.2,17.6,7,22.5
	C358.7,234.2,367.7,248,365.8,253.2z"/>
<path class="st6" d="M334.8,190.3l-6.2,25.4c0,0-0.8,1.4-2,3.3c-2.8,4.6-8.1,12.4-11.4,13.2c-1.7,0.4-5.2-1-9.1-3
	c-7.4-3.7-16.1-9.6-16.1-9.6c-0.6-3.4,2.4-6.1,2.4-6.1s17.7,6.6,19.4,6.8c3.8,0.3,7.7-18.2,11.3-24.3
	C325.7,191.5,334.8,190.3,334.8,190.3z"/>
<path class="st21" d="M335.6,180.3c0,0-0.2,0.9-2.6,0.8c0,0-2-0.1-1.9-1.2C331.1,180,333.1,179.2,335.6,180.3z"/>
<path class="st40" d="M365.8,253.2c-0.6,1.8-2.6,2.3-5.3,1.9c-3.5-1.5-18.7-7.4-18.5-11.4c0.3-5.9,2.9-6.1,1-13.3
	c-1.5-5.8,12.5-16.7,14.7-19c4.2,8,4.3,8.3,3.1,13.3C358.7,234.2,367.7,248,365.8,253.2z"/>
<path class="st60" d="M326.6,219.1c-2.8,4.6-8.1,12.4-11.4,13.2c-1.7,0.4-5.2-1-9.1-3c2.8,0.7,5.6,0.7,8.3,0.5
	c2.9-0.3,3.8-3.9,8.4-9.2C325.8,217,326.5,217.9,326.6,219.1z"/>
<path class="st26" d="M340.7,230.3c0,0-2.5-2-4.9-1.5c-2.4,0.5-3.6,2.1-3.5,2.9c0.1,0.8,1.4,2.9,3.2,3.1c1.8,0.2,7-1.1,7-1.1
	L340.7,230.3z"/>
<path class="st6" d="M345.8,189.3c0,0,9.8,0.6,13.1,5.3c4.8,6.6,13,33.7,10.8,39.9l-29.7-0.1c0,0-0.7-3.4,0.3-5c1-1.6,17.3-4.3,18-5
	c0.8-0.8-9.4-14.7-9.4-16.9C348.9,205.3,345.8,189.3,345.8,189.3z"/>
<g>
	<g>
		<polygon class="st55" points="338.1,241.4 302.1,241.4 295.7,218.8 331.6,218.8 		"/>
		<rect x="302.3" y="240.5" class="st33" width="47" height="0.9"/>
	</g>
	<path class="st33" d="M313.6,229.8c-0.2-0.8,0.2-1.4,1-1.4s1.6,0.6,1.9,1.4c0.2,0.8-0.2,1.4-1,1.4
		C314.6,231.2,313.8,230.5,313.6,229.8z"/>
</g>
<path class="st26" d="M225.1,190.1c0,0,3.9-3.2,5.3-3.2c1.4,0,4.1-0.7,4-0.3c-0.1,0.5-2.4,1.1-2,1.3c0.4,0.2,3.7-0.7,4.6-0.1
	c0.9,0.5,3.1,2.7,1.3,3.7c-1.7,1-6.9,2.5-8.3,2.3c-1.3-0.2-4.4-0.4-4.4-0.4L225.1,190.1z"/>
<polygon class="st26" points="174.8,309.6 178.1,323.5 183.1,323.5 183.3,309.6 "/>
<polygon class="st26" points="216.4,310.2 225.8,323.5 229.4,318.8 223.8,308.4 "/>
<path class="st33" d="M197.2,142.2C197.2,142.2,197.2,142.2,197.2,142.2c0,0,0-0.1,0-0.1c-0.1-0.7-0.1-1.4-0.2-2.1c0,0,0,0,0,0
	c-0.3-2.1-0.7-4.1-1.2-5.9c-0.3-1-0.6-2-0.9-2.8c-0.1-0.1-0.1-0.3-0.1-0.4l0,0c-0.8-2-1.7-3.4-2.7-3.9c-1.7-1-3.7-1.1-5.2-1
	c0.4-0.4,1.1-0.5,1.1-0.5c-0.9-0.1-2.9,0.7-2.9,0.7c-12.3-4.8-14.3,13.4-14,17.6c0.3,4.2-4.1,5.6-10.6,8.9
	c-12.2,6.3-13.3,14.8-13.3,14.8c0.1,0.1,0.2,0.1,0.3,0.2c0.6-1,1.9-3,2.9-3.3c0,0.1-1.2,2.7-1.7,4.1c1.5,1.2,3.7,3,6,5c0,0,0,0,0,0
	c3.1,2.7,6.4,5.7,9.1,8.2c0-0.8,0-2,0.3-2.7l0.5,3.1l0.1,0.4c1.7,1.6,3.1,2.8,3.8,3.5c0.1,0.1,0.1,0.1,0.2,0.2
	c0.2,0.2,0.3,0.3,0.3,0.3c-0.1-1.1,1.4-3.6,3.8-6.8c0.2-0.2,0.3-0.4,0.5-0.7c0.8-1,1.6-2,2.5-3.1c0.3-0.4,0.7-0.8,1-1.2c0,0,0,0,0,0
	c0.3-0.3,0.5-0.6,0.8-0.9l0,0c0.7-0.8,1.4-1.5,2.1-2.3c1.8-2,3.7-3.9,5.5-5.7c2.7-2.6,5.3-4.8,7.4-6.1c0.1-0.1,0.2-0.2,0.2-0.4
	c0.4-0.6,0.7-1.3,1-2.1c0.1-0.2,0.2-0.4,0.2-0.7c0.8-2.4,1.2-4.8,1.3-5.3c-0.2,2.4-0.5,4.1-0.9,5.4c-0.1,0.3-0.2,0.6-0.2,0.8v0
	c-0.2,0.6-0.4,1-0.5,1.4c0.4-0.3,0.7-0.7,1-1.1c0.2-0.3,0.4-0.6,0.6-0.9C197.2,153.5,197.7,147.8,197.2,142.2z"/>
<path class="st26" d="M192.1,160.2c0,0-4,2.1-7,1.3c-2.8-0.8-4.7-4.4-4.6-4.5c1.2-0.2,1.5-1.9,1.5-9l0.5,0.1l9.1,1.8
	c0,0-0.2,2.9-0.2,5.6C191.4,157.8,191.5,159.9,192.1,160.2z"/>
<path class="st6" d="M181.7,130c0,0,4.5-4.8,10.1-0.2C191.9,129.8,188.6,129.2,181.7,130z"/>
<path class="st34" d="M191.6,149.9c0,0-0.2,2.9-0.2,5.6c-5.1-0.1-7.8-4.8-8.9-7.4L191.6,149.9z"/>
<path class="st33" d="M181.6,147.1c0,0-2.7-4.2-3.3-7.8c-0.5-2.6,0.9-12.1,10.5-10.8c0,0,2.8,0.3,5.4,2c2.1,1.4,5.1,4.4,1.7,12.8
	l-0.9,2.8L181.6,147.1z"/>
<path class="st0" d="M228,315.2l-4.8,0.1l-5.2,0.2c0,0-12.1-13.5-18.9-35c-0.2-0.5-0.3-1-0.5-1.5c-3.7-10.8-11.4-24.4-15.5-36.7
	c-0.6-2-1.2-3.8-1.7-5.5c-0.2-0.6-0.3-1.1-0.5-1.6c-3-10.4-3.9-17.2-4.6-24.5l29.3,0.2C205.5,210.8,210.2,260.5,228,315.2z"/>
<path class="st35" d="M201.4,194c-0.1,13.9,2,19.9,2,19.9s-12.5,6.4-27.4,1.7c-0.2-0.1-12.3-2.8-12.3-2.8c0.2-0.6,2.5-9.9,2.7-10.5
	c3.1-6.8,5.5-9.7,5.9-11.8c0.7-3.9,0.7-7.9,0.4-11.7c-0.9-10-3.6-18.3-3.6-18.3c4.1-0.9,7.9-2.5,12.1-4.1c1,1.2,3.9,2.5,6.5,2.4
	c3-0.1,3.9-1.3,3.8-2.7c3.2,1.8,5.7,3.4,5.7,3.4c2.7,4.7,8.1,9.2,8.5,16.4C205.7,177.6,201.4,193.6,201.4,194z"/>
<path class="st26" d="M193.3,152.5c0,0-12.1,0.2-12.1-7.3c0-7.5-1.6-12.6,6.1-13c7.7-0.4,9.2,2.4,9.8,4.9
	C197.8,139.6,196.5,152.2,193.3,152.5z"/>
<path class="st33" d="M192.9,132c0,0-3.3,8.8-8.4,10.1c-5.1,1.3-7.3-0.1-7.3-0.1s3.9-3.1,4.7-8.5C181.9,133.6,190.4,127.8,192.9,132
	z"/>
<path class="st33" d="M192.1,132.7c0,0,2.5,2,3.1,3.9c0.6,1.9,0.9,5.9,2,5.7c0,0,2.5-6-0.3-9.4C193.9,129.3,192.1,132.7,192.1,132.7
	z"/>
<path class="st26" d="M178,322.7c0,0,0.4,2.8-0.6,5.7c0,0-0.8,3.7,2.8,3.8c3.6,0.1,4.5-0.3,4.1-2.5c-0.4-2.3-1.2-6.2-1.2-6.2
	L178,322.7z"/>
<path class="st36" d="M184.8,334.4h-7.9c-0.3-1.6,0.4-5.1,0.5-5.8c0-0.1,0-0.1,0-0.1c0,0,0,0,0,0c4.1,3.8,6.7-0.1,6.7-0.1
	c0,0,0,0,0,0C184.6,329.8,184.8,333.8,184.8,334.4z"/>
<path class="st26" d="M238.2,330c0,0-6.7-7.4-8.7-11.2l-5,2.5l11.1,10.4l2.6-0.3L238.2,330z"/>
<path class="st36" d="M242.4,334.4c0,0-8.3,0-8.4,0c-1.2,0-2.2-2.1-3.6-4.7c-0.5-1.1-1.8-1.7-3-2l0,6.7h-1.9l-1.8-7.1
	c-1.2-2.2-0.1-4.2,0.7-5.9c1,0,3.6,0.7,8.5,6.2c1.6,1.8,3.4,2.5,5.2,2.4c0,0,0,0,0.1,0C242.4,331.9,242.4,334.4,242.4,334.4z"/>
<path class="st36" d="M223.1,315.3l-5.2,0.2c0,0-12.1-13.5-18.9-35c-0.2-0.5-0.3-1-0.5-1.5c-3.7-10.8-11.4-24.4-15.5-36.7
	c-0.6-2-1.2-3.8-1.7-5.5c-0.2-0.6-0.3-1.1-0.5-1.6l4.3-3.3c0,0,12.9,21,16.9,40.7C205.6,289.6,219.5,310.2,223.1,315.3z"/>
<path class="st0" d="M185.6,274.3c0.1,9.6-0.4,31.6-1.7,40.8h-4.6c-2.6,0-3.8,0-3.8,0c-3.1-15.9-5.4-29-7-40.3
	c-1.3-9.3-2.5-17.2-3.4-24.1c-0.9-6.9-1.6-12.7-1.8-17.5c0-0.8-0.1-1.5-0.1-2.2c0-0.7,0-1.4,0-2.1l25.3-2.5
	C188.2,243,185.6,268.7,185.6,274.3z"/>
<path class="st36" d="M179.3,315c-2.6,0-3.8,0-3.8,0c-3.1-15.9-5.4-29-7-40.3c-1.3-9.3-2.5-17.2-3.4-24.1
	c-0.9-6.9-1.6-12.7-1.8-17.5l9.3,5.5c0,0-5.9,2.1-3.7,17.9C171.2,272.2,176.2,312.8,179.3,315z"/>
<path class="st6" d="M180.5,232.9c0,0-1.8,6.4-7.9,5.6c-6.2-0.8-14.9-4.5-14.9-4.5s2.6-8.3,5.9-19.3c4-13.2,5-31.8,7.3-42.6
	c0.6-3,5-4,5.2-5.8l5.1-9.9c0,0,7.6,17.1,8,21.4C189.5,182.2,180.5,232.9,180.5,232.9z"/>
<path class="st0" d="M176.2,190.6c-0.3,7-2.7,18.9-12.5,24.1c0,0-0.1,0-0.1,0.1c4-13.2,3.9-25.9,6.2-36.7
	C175.1,177,176.4,186.7,176.2,190.6z"/>
<path class="st0" d="M240,186.4h-9.5c0,0,0,0.2,0,0.5c0,0.9-0.1,2.5-0.1,2.7c0.1,2,1.5,3.1,2.9,3.6h0c0,0,0,0,0,0
	c0.3,0.1,0.6,0.2,0.9,0.3c0.2,0,0.4,0.1,0.6,0.1c0.1,0,0.3,0,0.4,0c0.7,0,1.3-0.1,1.9-0.4c1.7-0.7,2.8-2.4,2.8-4.4V187
	C240,186.8,240,186.6,240,186.4z"/>
<path class="st6" d="M239.2,186.4h-1.3c0,0.2,0,0.4,0,0.6v1.9c0,1.3-0.5,2.5-1.4,3.3c-0.4,0.4-0.9,0.8-1.5,1
	c-0.3,0.1-0.6,0.2-0.9,0.3c-0.1,0-0.3,0.1-0.4,0.1c0.2,0,0.4,0,0.6,0c0.1,0,0.3,0,0.4,0c0.5,0,1.1-0.2,1.5-0.4
	c0.9-0.4,1.6-1.1,2.1-1.9c0,0,0,0,0,0c0.2-0.3,0.4-0.7,0.5-1.1c0.1-0.4,0.2-0.9,0.2-1.4V187C239.2,186.8,239.2,186.6,239.2,186.4z"
	/>
<rect x="233.3" y="193.2" transform="matrix(-1 -1.224647e-16 1.224647e-16 -1 470.4478 386.972)" class="st0" width="3.9" height="0.6"/>
<path class="st26" d="M165.4,206.1c0,0,4.4-1,5.5,0.3c1.1,1.3,1.8,3.3,0.6,4c-1.1,0.7-4.4-1.2-5.6-0.4c-0.8,0.6-1.1,2-2,1.5
	c-0.8-0.5-1.7-3.7-1.7-3.7L165.4,206.1z"/>
<path class="st6" d="M181.1,156.4c0,0-11.9,0.5-14.7,3.2c-2.9,2.7-20,23.1-20.2,28.5c-0.3,5.4,15,20.6,15,20.6s4.2-1,6.1-3.7
	c0,0-9.5-16.9-8.9-17.6c0.6-0.7,16.6-13.9,17.9-11C177.3,179,181.1,156.4,181.1,156.4z"/>
<path class="st6" d="M226.3,188.4c0,0-13.6,4.5-15.3,4.1c-1.7-0.4-4.1-18.8-5.4-25.1c-1.7-8.1-8.1-9.7-8.1-9.7l-6.1-1.6
	c0,0,7,17.3,7.2,20.7c0.2,3.5,0.8,57.1,0.8,57.1s-0.4,2.5,4.3,1.4c4.7-1,6-2.1,6-2.1s-2-15-3-28.3c4.8-0.8,20.3-8.7,20.3-8.7
	C229.4,192.6,226.3,188.4,226.3,188.4z"/>
<g>
	<g>
		<path class="st61" d="M264.2,246.2l-2.5,14v0l-6.8,38.7l-6.1,34.6c-0.1,0.5-0.6,0.9-1.1,0.9c-0.5,0-0.9-0.4-0.8-0.9l5.3-39.2
			l5.6-41.9l0.8-6.3L264.2,246.2z"/>
	</g>
	<g>
		<path class="st61" d="M291.2,246.2l-2.5,14v0l-6.8,38.7l-6.1,34.6c-0.1,0.5-0.6,0.9-1.1,0.9c-0.5,0-0.9-0.4-0.8-0.9l5.3-39.2
			l5.6-41.9l0.8-6.3L291.2,246.2z"/>
	</g>
	<path class="st50" d="M261.7,260.2c0.3-6-3.9-7.8-3.9-7.8l0.8-6.3l5.6,0.2L261.7,260.2z"/>
	<g>
		<g>
			<path class="st61" d="M497.2,334.4c-0.5,0-1-0.4-1.1-0.9l-5.4-30.7l-7.8-44.2l-2.2-12.4l5.6-0.2l1,7.2l6.8,50.4l4,29.9
				C498,334,497.7,334.4,497.2,334.4z"/>
		</g>
		<path class="st50" d="M487.2,253.2c-3.6,1.6-4.3,5.3-4.3,5.3l-2.2-12.4l5.6-0.2L487.2,253.2z"/>
	</g>
	<g>
		<g>
			<path class="st61" d="M528.3,334.4c-0.5,0-1-0.4-1.1-0.9l-5.4-30.7l-7.8-44.2l-2.2-12.4l5.6-0.2l1,7.2l6.8,50.4l4,29.9
				C529.2,334,528.8,334.4,528.3,334.4z"/>
		</g>
		<path class="st50" d="M518.3,253.2c-3.6,1.6-4.3,5.3-4.3,5.3l-2.2-12.4l5.6-0.2L518.3,253.2z"/>
	</g>
	<path class="st62" d="M528.6,251.1H236.9c-2.1,0-3.8-1.7-3.8-3.8v-2.1c0-2.1,1.7-3.8,3.8-3.8h291.7c2.1,0,3.8,1.7,3.8,3.8v2.1
		C532.4,249.4,530.6,251.1,528.6,251.1z"/>
</g>
<path class="st0" d="M295.5,235.5c-0.4-0.3-1.3-0.2-1.9,0v-0.9c0-0.2,0-0.4,0-0.6H284c0,0.2,0,0.4,0,0.6v1.9c0,2.6,2.1,4.8,4.8,4.8
	c1.4,0,2.7-0.6,3.6-1.6l0,0c0,0,2.3-0.6,3-1.4C296,237.4,296.2,236,295.5,235.5z M295,237.3c-0.2,0.6-1.3,0.9-1.8,1.1
	c0.2-0.5,0.3-1,0.4-1.6c0.3-0.4,0.8-0.7,1.2-0.6C295.1,236.2,295.3,236.5,295,237.3z"/>
<path class="st6" d="M284.7,234.6v1.9c0,2.6,2.1,4.8,4.8,4.8c0.2,0,0.4,0,0.6,0c-2.3-0.3-4.1-2.3-4.1-4.7v-1.9c0-0.2,0-0.4,0-0.6
	h-1.3C284.8,234.2,284.7,234.4,284.7,234.6z"/>
<rect x="286.8" y="240.8" class="st0" width="3.9" height="0.6"/>
<path class="st0" d="M429.9,235.5c-0.4-0.3-1.3-0.2-1.9,0v-0.9c0-0.2,0-0.4,0-0.6h-9.5c0,0.2,0,0.4,0,0.6v1.9c0,2.6,2.1,4.8,4.8,4.8
	c1.4,0,2.7-0.6,3.6-1.6l0,0c0,0,2.3-0.6,3-1.4C430.5,237.4,430.7,236,429.9,235.5z M429.4,237.3c-0.2,0.6-1.3,0.9-1.8,1.1
	c0.2-0.5,0.3-1,0.4-1.6c0.3-0.4,0.8-0.7,1.2-0.6C429.5,236.2,429.7,236.5,429.4,237.3z"/>
<path class="st6" d="M419.2,234.6v1.9c0,2.6,2.1,4.8,4.8,4.8c0.2,0,0.4,0,0.6,0c-2.3-0.3-4.1-2.3-4.1-4.7v-1.9c0-0.2,0-0.4,0-0.6
	h-1.3C419.2,234.2,419.2,234.4,419.2,234.6z"/>
<rect x="421.3" y="240.8" class="st0" width="3.9" height="0.6"/>
<path class="st44" d="M78.3,168.5v165.9H34.5c0,0-0.7-6.4-0.9-16.9c-0.1-6.1-0.1-13.5,0.4-21.8c0-0.7,0.1-1.4,0.1-2
	c0.2-3.8,0.5-7.8,0.9-11.8c0-0.4,0.1-0.7,0.1-1.1c0.4-4.3,1-8.7,1.7-13.3c0.6-3.7,1.2-7.5,1.9-11.3c0.1-0.3,0.1-0.5,0.2-0.8
	c0.4-2,0.8-3.9,1.2-5.9c0.2-0.8,0.4-1.6,0.5-2.3c0.4-1.5,0.7-3.1,1.1-4.6c0.9-3.8,2-7.6,3.2-11.4c0.1-0.4,0.2-0.8,0.4-1.2
	c0.5-1.7,1.1-3.4,1.7-5.1c0.9-2.6,1.8-5.2,2.8-7.8c0.6-1.6,1.3-3.2,2-4.9C58.3,196.9,66.9,181.9,78.3,168.5z"/>
<path class="st0" d="M817.5,337.1H13.6c-0.6,0-1.1-0.5-1.1-1.1v-0.6c0-0.6,0.5-1.1,1.1-1.1h803.8c0.6,0,1.1,0.5,1.1,1.1v0.6
	C818.6,336.6,818.1,337.1,817.5,337.1z"/>
</svg>
