<?xml version="1.0" encoding="utf-8"?>
<!-- Generator: Adobe Illustrator 22.0.1, SVG Export Plug-In . SVG Version: 6.00 Build 0)  -->
<svg version="1.1" xmlns="http://www.w3.org/2000/svg" xmlns:xlink="http://www.w3.org/1999/xlink" x="0px" y="0px"
	 viewBox="0 0 750 500" style="enable-background:new 0 0 750 500;" xml:space="preserve">
<style type="text/css">
	.st0{display:none;}
	.st1{display:inline;fill:#EBEBEB;}
	.st2{fill:#F8FAFF;}
	.st3{fill:#E8F0F9;}
	.st4{fill:#E1EBFD;}
	.st5{fill:#263238;}
	.st6{fill:#EB996E;}
	.st7{fill:#455A64;}
	.st8{fill:#F9F9F9;}
	.st9{fill:#EBEBEB;}
	.st10{fill:#E0E0E0;}
	.st11{fill:#F5F5F5;}
	.st12{fill:#FAFAFA;}
	.st13{fill:#304886;}
	.st14{fill:#6AAFFC;}
	.st15{opacity:0.3;}
	.st16{fill:#2E3B61;}
	.st17{fill:#FFFFFF;}
	.st18{fill:#4981C7;}
	.st19{fill:#FFBE9D;}
	.st20{fill:#2DB1FF;}
	.st21{opacity:0.2;}
	.st22{fill:#E8505B;}
	.st23{fill:#B78876;}
	.st24{fill:#AA6550;}
	.st25{fill:#9D473F;}
	.st26{opacity:0.5;fill:#FFFFFF;}
	.st27{fill:#4981C7;stroke:#6AAFFC;stroke-miterlimit:10;}
	.st28{opacity:0.7;}
	.st29{opacity:0.8;}
	.st30{opacity:0.5;}
	.st31{opacity:0.6;}
	.st32{opacity:0.4;}
	.st33{fill:#C8E5FC;}
	.st34{fill:#9FD6FF;}
</style>
<g id="Background_Complete">
</g>
<g id="Background_Simple" class="st0">
	<path class="st1" d="M622.9,135.2l-1.7-3.9C601.7,87.1,559.3,56.8,511,54.1c-4.5-0.2-9-0.3-13.5,0c-43.2,2.3-84.3,27.2-105.4,63.9
		c-12.4,21.6-18.8,47.6-38.5,63.2c-25.6,20.4-63,15.5-95.6,9.5c-32.6-5.9-79-16.4-104.5,4c-15.9,12.8-31.9,39.3-34.3,59.4
		c-9.6,81.8,24.5,106.2,67.6,142.4c41.9,35.2,123.8,36,178.8,33.8c76.9-3.2,154-32.1,206-87C623.6,288.5,647.1,206.6,622.9,135.2z"
		/>
</g>
<g id="Floor">
</g>
<g id="Plant">
</g>
<g id="Speech_Bubble">
</g>
<g id="Bullseye">
</g>
<g id="Graphics">
</g>
<g id="Character_2">
</g>
<g id="Character_1">
	<path class="st8" d="M71.3,431.4C56.1,221.3,195.8,53.9,364.9,53.9S705,213.6,683.7,431.4"/>
	<g>
		<path class="st25" d="M537.4,104.8c-4.5-2.6-9.9-2.8-13.6-2.6c1-1,2.9-1.4,2.9-1.4c-2.3-0.3-7.5,2-7.5,2
			c-32.5-12.5-37.6,35.3-36.9,46.4c0.7,11.1,0.8,23.9-15.4,33.9c-31.9,19.6-5,53.8-5,53.8c0.3,0.1,14.8,24.9,14.8,24.9
			c-0.8-9,40.6-56.3,62.2-70.5c5.3-7.7,7.1-21.4,7.3-22.5c-0.9,10.8-2.8,16.9-4.4,20.4C559.9,172.2,549.3,111.5,537.4,104.8z"/>
		<path class="st25" d="M502.2,152.5c0,0-7-11.1-8.7-20.6c-1.2-6.8,2.3-32,27.5-28.3c0,0,7.3,0.7,14.3,5.4
			c5.5,3.7,13.4,11.7,4.6,33.7l-2.3,7.4L502.2,152.5z"/>
		<g>
			<g>
				<g>
					<g>
						<rect x="283.4" y="37.4" class="st17" width="135.1" height="90.5"/>
					</g>
				</g>
				<g>
					<g>
						<g>
							<path class="st10" d="M418.6,127.9c0,0,0-0.6,0-1.6c0-1.1,0-2.7,0-4.8c0-4.2,0-10.3,0-18.2c0-15.7-0.1-38.3-0.1-65.9l0.2,0.2
								c-37.2,0-84.2,0-135.1,0h0l0.2-0.2c0,32.2,0,62.9,0,90.5l-0.2-0.2c39.8,0,73.5,0.1,97.4,0.1c11.9,0,21.4,0,27.8,0.1
								c3.2,0,5.7,0,7.4,0c0.8,0,1.5,0,1.9,0C418.3,127.9,418.6,127.9,418.6,127.9s-0.2,0-0.6,0c-0.4,0-1.1,0-1.9,0
								c-1.7,0-4.1,0-7.4,0c-6.5,0-15.9,0-27.8,0.1c-23.9,0-57.7,0.1-97.5,0.1l-0.2,0v-0.2c0-27.6,0-58.2,0-90.5l0-0.2h0.2h0
								c50.9,0,97.9,0,135.1,0l0.2,0l0,0.2c0,27.6-0.1,50.2-0.1,66c0,7.8,0,14,0,18.2c0,2.1,0,3.7,0,4.7
								C418.6,127.3,418.6,127.9,418.6,127.9z"/>
						</g>
					</g>
				</g>
			</g>
			<g>
				<g>
					<g>
						<path class="st10" d="M283.4,45.5c0-0.1,30.2-0.2,67.5-0.2c37.3,0,67.5,0.1,67.5,0.2c0,0.1-30.2,0.2-67.5,0.2
							C313.7,45.7,283.4,45.6,283.4,45.5z"/>
					</g>
				</g>
			</g>
			<g>
				<g class="st15">
					<g>
						<path class="st10" d="M288.8,41.4c0,0.6-0.5,1.1-1.1,1.1c-0.6,0-1.1-0.5-1.1-1.1c0-0.6,0.5-1.1,1.1-1.1
							C288.3,40.3,288.8,40.8,288.8,41.4z"/>
					</g>
				</g>
				<g class="st15">
					<g>
						<path class="st10" d="M292.5,41.4c0,0.6-0.5,1.1-1.1,1.1c-0.6,0-1.1-0.5-1.1-1.1c0-0.6,0.5-1.1,1.1-1.1
							C292,40.3,292.5,40.8,292.5,41.4z"/>
					</g>
				</g>
				<g class="st15">
					<g>
						<path class="st10" d="M296.1,41.4c0,0.6-0.5,1.1-1.1,1.1c-0.6,0-1.1-0.5-1.1-1.1c0-0.6,0.5-1.1,1.1-1.1
							C295.6,40.3,296.1,40.8,296.1,41.4z"/>
					</g>
				</g>
			</g>
			<g>
				<g>
					<rect x="295" y="54.9" class="st10" width="36" height="36"/>
				</g>
			</g>
			<g>
				<g>
					<g>
						<path class="st10" d="M400,65.1c0,0.1-14.1,0.2-31.4,0.2c-17.3,0-31.4-0.1-31.4-0.2c0-0.1,14.1-0.2,31.4-0.2
							C386,64.8,400,65,400,65.1z"/>
					</g>
				</g>
			</g>
			<g>
				<g>
					<g>
						<path class="st10" d="M400,71.8c0,0.1-14.1,0.2-31.4,0.2c-17.3,0-31.4-0.1-31.4-0.2c0-0.1,14.1-0.2,31.4-0.2
							C386,71.5,400,71.6,400,71.8z"/>
					</g>
				</g>
			</g>
			<g>
				<g>
					<g>
						<path class="st10" d="M400,78.5c0,0.1-14.1,0.2-31.4,0.2c-17.3,0-31.4-0.1-31.4-0.2c0-0.1,14.1-0.2,31.4-0.2
							C386,78.2,400,78.3,400,78.5z"/>
					</g>
				</g>
			</g>
			<g>
				<g>
					<g>
						<path class="st10" d="M374.3,85.2c0,0-0.5,0.1-1.5,0.1c-1,0-2.4,0-4,0.1c-3.4,0-8,0.1-13.1,0.1c-5.1,0-9.8,0-13.1-0.1
							c-1.6,0-3-0.1-4-0.1c-0.9,0-1.5-0.1-1.5-0.1s0.5-0.1,1.5-0.1c1,0,2.4,0,4-0.1c3.4,0,8-0.1,13.1-0.1c5.1,0,9.8,0,13.1,0.1
							c1.6,0,3,0.1,4,0.1C373.8,85.1,374.3,85.1,374.3,85.2z"/>
					</g>
				</g>
			</g>
			<g>
				<g>
					<rect x="297.3" y="103.1" class="st10" width="16.9" height="16.9"/>
				</g>
			</g>
			<g>
				<g>
					<rect x="328" y="103.1" class="st10" width="16.9" height="16.9"/>
				</g>
			</g>
			<g>
				<g>
					<rect x="358.7" y="103.1" class="st10" width="16.9" height="16.9"/>
				</g>
			</g>
			<g>
				<g>
					<rect x="389.5" y="103.1" class="st10" width="16.9" height="16.9"/>
				</g>
			</g>
		</g>
		<path class="st13" d="M342.3,113.8c0,0,1.2-15.8,24-11.7c6,1.1,10.1-9.6,20-5.8c21.2,8.2,22.4-2.6,28.5,12.6
			c2.6,6.4,18.9,13.8,13.9,24.8c-5,11,3.4,18.4-2.5,27.1c-3,4.5-1.8,12.5-16.1,12.7c-7.1,0.1-18.2,13.3-26.2,15.7
			c-8,2.4-32-1.1-31-12c0.7-8.5-9.3-7.8-15.4-17.7c-5.4-8.6,4.2-10.7-0.9-24.6C332.9,124.7,342.6,122.3,342.3,113.8z"/>
		<g>
			<g>
				<g>
					<path class="st10" d="M672.5,302.1c0-0.2,0.9-0.3,1.9-0.3c1.1,0,1.9,0.1,1.9,0.3c0,0.2-0.9,0.3-1.9,0.3
						C673.4,302.4,672.5,302.3,672.5,302.1z"/>
				</g>
				<g>
					<path class="st10" d="M664.8,302.1c0-0.2,0.9-0.3,1.9-0.3c1.1,0,1.9,0.1,1.9,0.3c0,0.2-0.9,0.3-1.9,0.3
						C665.7,302.4,664.8,302.3,664.8,302.1z"/>
				</g>
				<g>
					<path class="st10" d="M657.1,302.1c0-0.2,0.9-0.3,1.9-0.3c1.1,0,1.9,0.1,1.9,0.3c0,0.2-0.9,0.3-1.9,0.3
						C658,302.4,657.1,302.3,657.1,302.1z"/>
				</g>
				<g>
					<path class="st10" d="M649.4,302.1c0-0.2,0.9-0.3,1.9-0.3c1.1,0,1.9,0.1,1.9,0.3c0,0.2-0.9,0.3-1.9,0.3
						C650.3,302.4,649.4,302.3,649.4,302.1z"/>
				</g>
				<g>
					<path class="st10" d="M641.7,302.1c0-0.2,0.9-0.3,1.9-0.3c1.1,0,1.9,0.1,1.9,0.3c0,0.2-0.9,0.3-1.9,0.3
						C642.6,302.4,641.7,302.3,641.7,302.1z"/>
				</g>
				<g>
					<path class="st10" d="M634,302.1c0-0.2,0.9-0.3,1.9-0.3c1.1,0,1.9,0.1,1.9,0.3c0,0.2-0.9,0.3-1.9,0.3
						C634.8,302.4,634,302.3,634,302.1z"/>
				</g>
				<g>
					<path class="st10" d="M626.3,302.1c0-0.2,0.9-0.3,1.9-0.3c1.1,0,1.9,0.1,1.9,0.3c0,0.2-0.9,0.3-1.9,0.3
						C627.1,302.4,626.3,302.3,626.3,302.1z"/>
				</g>
				<g>
					<path class="st10" d="M618.6,302.1c0-0.2,0.9-0.3,1.9-0.3c1.1,0,1.9,0.1,1.9,0.3c0,0.2-0.9,0.3-1.9,0.3
						C619.4,302.4,618.6,302.3,618.6,302.1z"/>
				</g>
				<g>
					<path class="st10" d="M610.9,302.1c0-0.2,0.9-0.3,1.9-0.3c1.1,0,1.9,0.1,1.9,0.3c0,0.2-0.9,0.3-1.9,0.3
						C611.7,302.4,610.9,302.3,610.9,302.1z"/>
				</g>
				<g>
					<path class="st10" d="M603.2,302.1c0-0.2,0.9-0.3,1.9-0.3c1.1,0,1.9,0.1,1.9,0.3c0,0.2-0.9,0.3-1.9,0.3
						C604,302.4,603.2,302.3,603.2,302.1z"/>
				</g>
				<g>
					<path class="st10" d="M595.4,302.1c0-0.2,0.9-0.3,1.9-0.3c1.1,0,1.9,0.1,1.9,0.3c0,0.2-0.9,0.3-1.9,0.3
						C596.3,302.4,595.4,302.3,595.4,302.1z"/>
				</g>
				<g>
					<path class="st10" d="M587.7,302.1c0-0.2,0.9-0.3,1.9-0.3c1.1,0,1.9,0.1,1.9,0.3c0,0.2-0.9,0.3-1.9,0.3
						C588.6,302.4,587.7,302.3,587.7,302.1z"/>
				</g>
				<g>
					<path class="st10" d="M582.2,299.9c0.2,0,0.3,0.9,0.3,1.9c0,0.1,0,0.2,0,0.3l-0.3-0.3c0.9,0,1.6,0.2,1.6,0.3
						c0,0.2-0.7,0.3-1.6,0.3l-0.3,0l0-0.3c0-0.1,0-0.2,0-0.3C581.9,300.7,582.1,299.9,582.2,299.9z"/>
				</g>
				<g>
					<path class="st10" d="M582.2,292.2c0.2,0,0.3,0.9,0.3,1.9c0,1.1-0.1,1.9-0.3,1.9s-0.3-0.9-0.3-1.9
						C581.9,293,582.1,292.2,582.2,292.2z"/>
				</g>
				<g>
					<path class="st10" d="M582.2,284.5c0.2,0,0.3,0.9,0.3,1.9c0,1.1-0.1,1.9-0.3,1.9s-0.3-0.9-0.3-1.9
						C581.9,285.3,582.1,284.5,582.2,284.5z"/>
				</g>
				<g>
					<path class="st10" d="M582.2,276.8c0.2,0,0.3,0.9,0.3,1.9c0,1.1-0.1,1.9-0.3,1.9s-0.3-0.9-0.3-1.9
						C581.9,277.6,582.1,276.8,582.2,276.8z"/>
				</g>
				<g>
					<path class="st10" d="M582.2,269.1c0.2,0,0.3,0.9,0.3,1.9c0,1.1-0.1,1.9-0.3,1.9s-0.3-0.9-0.3-1.9
						C581.9,269.9,582.1,269.1,582.2,269.1z"/>
				</g>
				<g>
					<path class="st10" d="M582.2,261.3c0.2,0,0.3,0.9,0.3,1.9c0,1.1-0.1,1.9-0.3,1.9s-0.3-0.9-0.3-1.9
						C581.9,262.2,582.1,261.3,582.2,261.3z"/>
				</g>
				<g>
					<path class="st10" d="M582.2,253.6c0.2,0,0.3,0.9,0.3,1.9c0,1.1-0.1,1.9-0.3,1.9s-0.3-0.9-0.3-1.9
						C581.9,254.5,582.1,253.6,582.2,253.6z"/>
				</g>
				<g>
					<path class="st10" d="M582.2,245.9c0.2,0,0.3,0.9,0.3,1.9c0,1.1-0.1,1.9-0.3,1.9s-0.3-0.9-0.3-1.9
						C581.9,246.8,582.1,245.9,582.2,245.9z"/>
				</g>
				<g>
					<path class="st10" d="M582.2,238.2c0.2,0,0.3,0.9,0.3,1.9c0,1.1-0.1,1.9-0.3,1.9s-0.3-0.9-0.3-1.9
						C581.9,239.1,582.1,238.2,582.2,238.2z"/>
				</g>
				<g>
					<path class="st10" d="M582.2,230.5c0.2,0,0.3,0.9,0.3,1.9c0,1.1-0.1,1.9-0.3,1.9s-0.3-0.9-0.3-1.9
						C581.9,231.4,582.1,230.5,582.2,230.5z"/>
				</g>
				<g>
					<path class="st10" d="M582.2,222.8c0.2,0,0.3,0.9,0.3,1.9c0,1.1-0.1,1.9-0.3,1.9s-0.3-0.9-0.3-1.9
						C581.9,223.7,582.1,222.8,582.2,222.8z"/>
				</g>
				<g>
					<path class="st10" d="M582.2,215.1c0.2,0,0.3,0.9,0.3,1.9c0,1.1-0.1,1.9-0.3,1.9s-0.3-0.9-0.3-1.9
						C581.9,216,582.1,215.1,582.2,215.1z"/>
				</g>
				<g>
					<path class="st10" d="M582.8,208c0,0.1-0.2,0.2-0.6,0.2l0.2-0.2c0.1,0.3,0.1,0.8,0.1,1.3c0,1.1-0.1,1.9-0.3,1.9
						s-0.3-0.9-0.3-1.9c0-0.5,0-1,0.1-1.3l0-0.3l0.2,0C582.6,207.8,582.8,207.9,582.8,208z"/>
				</g>
				<g>
					<path class="st10" d="M590.5,208c0,0.2-0.9,0.3-1.9,0.3c-1.1,0-1.9-0.1-1.9-0.3c0-0.2,0.9-0.3,1.9-0.3
						C589.7,207.6,590.5,207.8,590.5,208z"/>
				</g>
				<g>
					<path class="st10" d="M598.2,208c0,0.2-0.9,0.3-1.9,0.3c-1.1,0-1.9-0.1-1.9-0.3c0-0.2,0.9-0.3,1.9-0.3
						C597.4,207.6,598.2,207.8,598.2,208z"/>
				</g>
				<g>
					<path class="st10" d="M605.9,208c0,0.2-0.9,0.3-1.9,0.3c-1.1,0-1.9-0.1-1.9-0.3c0-0.2,0.9-0.3,1.9-0.3
						C605.1,207.6,605.9,207.8,605.9,208z"/>
				</g>
				<g>
					<path class="st10" d="M613.7,208c0,0.2-0.9,0.3-1.9,0.3c-1.1,0-1.9-0.1-1.9-0.3c0-0.2,0.9-0.3,1.9-0.3
						C612.8,207.6,613.7,207.8,613.7,208z"/>
				</g>
				<g>
					<path class="st10" d="M621.4,208c0,0.2-0.9,0.3-1.9,0.3c-1.1,0-1.9-0.1-1.9-0.3c0-0.2,0.9-0.3,1.9-0.3
						C620.5,207.6,621.4,207.8,621.4,208z"/>
				</g>
				<g>
					<ellipse class="st10" cx="627.1" cy="208" rx="1.9" ry="0.3"/>
				</g>
				<g>
					<path class="st10" d="M636.8,208c0,0.2-0.9,0.3-1.9,0.3c-1.1,0-1.9-0.1-1.9-0.3c0-0.2,0.9-0.3,1.9-0.3
						C635.9,207.6,636.8,207.8,636.8,208z"/>
				</g>
				<g>
					<path class="st10" d="M644.5,208c0,0.2-0.9,0.3-1.9,0.3c-1.1,0-1.9-0.1-1.9-0.3c0-0.2,0.9-0.3,1.9-0.3
						C643.6,207.6,644.5,207.8,644.5,208z"/>
				</g>
				<g>
					<path class="st10" d="M652.2,208c0,0.2-0.9,0.3-1.9,0.3c-1.1,0-1.9-0.1-1.9-0.3c0-0.2,0.9-0.3,1.9-0.3
						C651.3,207.6,652.2,207.8,652.2,208z"/>
				</g>
				<g>
					<path class="st10" d="M659.9,208c0,0.2-0.9,0.3-1.9,0.3c-1.1,0-1.9-0.1-1.9-0.3c0-0.2,0.9-0.3,1.9-0.3
						C659,207.6,659.9,207.8,659.9,208z"/>
				</g>
				<g>
					<path class="st10" d="M667.6,208c0,0.2-0.9,0.3-1.9,0.3c-1.1,0-1.9-0.1-1.9-0.3c0-0.2,0.9-0.3,1.9-0.3
						C666.7,207.6,667.6,207.8,667.6,208z"/>
				</g>
				<g>
					<path class="st10" d="M675.3,208c0,0.2-0.9,0.3-1.9,0.3c-1.1,0-1.9-0.1-1.9-0.3c0-0.2,0.9-0.3,1.9-0.3
						C674.4,207.6,675.3,207.8,675.3,208z"/>
				</g>
				<g>
					<path class="st10" d="M676.4,214.6c-0.2,0-0.3-0.9-0.3-1.9c0-1.1,0.1-1.9,0.3-1.9c0.2,0,0.3,0.9,0.3,1.9
						C676.7,213.8,676.6,214.6,676.4,214.6z"/>
				</g>
				<g>
					<path class="st10" d="M676.4,222.3c-0.2,0-0.3-0.9-0.3-1.9c0-1.1,0.1-1.9,0.3-1.9c0.2,0,0.3,0.9,0.3,1.9
						C676.7,221.5,676.6,222.3,676.4,222.3z"/>
				</g>
				<g>
					<path class="st10" d="M676.4,230c-0.2,0-0.3-0.9-0.3-1.9c0-1.1,0.1-1.9,0.3-1.9c0.2,0,0.3,0.9,0.3,1.9
						C676.7,229.2,676.6,230,676.4,230z"/>
				</g>
				<g>
					<path class="st10" d="M676.4,237.7c-0.2,0-0.3-0.9-0.3-1.9c0-1.1,0.1-1.9,0.3-1.9c0.2,0,0.3,0.9,0.3,1.9
						C676.7,236.9,676.6,237.7,676.4,237.7z"/>
				</g>
				<g>
					<path class="st10" d="M676.4,245.4c-0.2,0-0.3-0.9-0.3-1.9c0-1.1,0.1-1.9,0.3-1.9c0.2,0,0.3,0.9,0.3,1.9
						C676.7,244.6,676.6,245.4,676.4,245.4z"/>
				</g>
				<g>
					<path class="st10" d="M676.4,253.2c-0.2,0-0.3-0.9-0.3-1.9c0-1.1,0.1-1.9,0.3-1.9c0.2,0,0.3,0.9,0.3,1.9
						C676.7,252.3,676.6,253.2,676.4,253.2z"/>
				</g>
				<g>
					<path class="st10" d="M676.4,260.9c-0.2,0-0.3-0.9-0.3-1.9c0-1.1,0.1-1.9,0.3-1.9c0.2,0,0.3,0.9,0.3,1.9
						C676.7,260,676.6,260.9,676.4,260.9z"/>
				</g>
				<g>
					<path class="st10" d="M676.4,268.6c-0.2,0-0.3-0.9-0.3-1.9c0-1.1,0.1-1.9,0.3-1.9c0.2,0,0.3,0.9,0.3,1.9
						C676.7,267.7,676.6,268.6,676.4,268.6z"/>
				</g>
				<g>
					<path class="st10" d="M676.4,276.3c-0.2,0-0.3-0.9-0.3-1.9c0-1.1,0.1-1.9,0.3-1.9c0.2,0,0.3,0.9,0.3,1.9
						C676.7,275.4,676.6,276.3,676.4,276.3z"/>
				</g>
				<g>
					<path class="st10" d="M676.4,284c-0.2,0-0.3-0.9-0.3-1.9c0-1.1,0.1-1.9,0.3-1.9c0.2,0,0.3,0.9,0.3,1.9
						C676.7,283.1,676.6,284,676.4,284z"/>
				</g>
				<g>
					<path class="st10" d="M676.4,291.7c-0.2,0-0.3-0.9-0.3-1.9c0-1.1,0.1-1.9,0.3-1.9c0.2,0,0.3,0.9,0.3,1.9
						C676.7,290.8,676.6,291.7,676.4,291.7z"/>
				</g>
				<g>
					<path class="st10" d="M676.4,299.4c-0.2,0-0.3-0.9-0.3-1.9c0-1.1,0.1-1.9,0.3-1.9c0.2,0,0.3,0.9,0.3,1.9
						C676.7,298.5,676.6,299.4,676.4,299.4z"/>
				</g>
			</g>
			<rect x="672.9" y="297.7" class="st10" width="7" height="7"/>
			<rect x="578.8" y="298.6" class="st10" width="7" height="7"/>
			<rect x="672.9" y="203.8" class="st10" width="7" height="7"/>
			<rect x="578.8" y="204.5" class="st10" width="7" height="7"/>
		</g>
		<g>
			<g>
				<g>
					<g>
						<g>
							<polygon class="st10" points="73.7,40.8 176.4,40.8 176.4,189.7 74.4,189.7 							"/>
						</g>
					</g>
				</g>
				<g>
					<g>
						<g>
							
								<rect x="66" y="41.5" transform="matrix(-1 -1.224647e-16 1.224647e-16 -1 233.7086 230.5152)" class="st17" width="101.7" height="147.5"/>
						</g>
					</g>
					<g>
						<g>
							<path class="st10" d="M168.4,40.8v148.9H65.3V40.8H168.4z M167,188.3V42.2H66.7v146.1H167z"/>
						</g>
					</g>
				</g>
				<g>
					<g>
						<g>
							<g>
								<rect x="78.6" y="57.5" class="st17" width="76.5" height="115.5"/>
							</g>
						</g>
					</g>
					<g>
						<g>
							<g>
								<g>
									<path class="st10" d="M78.6,57.5c0,0,0,0.2,0,0.6c0,0.4,0,0.9,0,1.6c0,1.5,0,3.6,0,6.3c0,5.5,0.1,13.6,0.1,23.8
										c0,20.4,0.1,49.2,0.2,83.2l-0.3-0.3c23.4,0,49.2,0,76.5,0h0l-0.4,0.4c0-43.6,0.1-83.8,0.1-115.5l0.3,0.3
										c-23.3-0.1-42.3-0.1-55.6-0.2c-6.6,0-11.8-0.1-15.4-0.1c-1.8,0-3.1,0-4,0C79.1,57.5,78.6,57.5,78.6,57.5s0.4,0,1.3,0
										c0.9,0,2.3,0,4,0c3.5,0,8.7,0,15.3-0.1c13.3,0,32.5-0.1,55.8-0.2l0.3,0l0,0.3c0,31.8,0,72,0.1,115.5l0,0.4h-0.4h0
										c-27.2,0-53.1,0-76.5,0l-0.3,0l0-0.3c0.1-34,0.1-63,0.2-83.4c0-10.2,0.1-18.2,0.1-23.7c0-2.7,0-4.8,0-6.3
										c0-0.7,0-1.2,0-1.6C78.6,57.7,78.6,57.5,78.6,57.5z"/>
								</g>
							</g>
						</g>
					</g>
				</g>
				<g>
					<g>
						<g>
							<g>
								<path class="st10" d="M65.7,189c-0.1-0.1,0.6-1,1.6-2.5c1.1-1.5,2.6-3.6,4.4-5.8c1.8-2.2,3.5-4.2,4.7-5.5
									c1.3-1.4,2.1-2.2,2.2-2.1c0.2,0.1-2.8,3.7-6.3,8.1C68.8,185.6,65.9,189.1,65.7,189z"/>
							</g>
						</g>
					</g>
				</g>
				<g>
					<g>
						<g>
							<g>
								<path class="st10" d="M66,41.5c0.2-0.1,3.1,3.4,6.6,7.8c3.5,4.4,6.2,8.1,6,8.2c-0.2,0.1-3.1-3.3-6.6-7.8
									C68.5,45.3,65.8,41.6,66,41.5z"/>
							</g>
						</g>
					</g>
				</g>
				<g>
					<g>
						<g>
							<g>
								<path class="st17" d="M167.7,41.6c-4.4,5.5-8.9,11-13.3,16.4"/>
							</g>
						</g>
					</g>
					<g>
						<g>
							<g>
								<g>
									<path class="st10" d="M154.4,58.1c-0.2-0.1,2.7-3.9,6.4-8.5c3.7-4.5,6.8-8.1,6.9-8c0.2,0.1-2.7,3.9-6.4,8.5
										C157.7,54.6,154.6,58.2,154.4,58.1z"/>
								</g>
							</g>
						</g>
					</g>
				</g>
				<g>
					<g>
						<g>
							<g>
								<path class="st10" d="M167.7,189c-0.2,0.1-3.1-3.3-6.5-7.7c-3.5-4.4-6.1-8-6-8.1c0.2-0.1,3.1,3.3,6.5,7.7
									C165.2,185.2,167.9,188.9,167.7,189z"/>
							</g>
						</g>
					</g>
				</g>
			</g>
			<g>
				<g>
					<path class="st10" d="M121.8,116.9h-13.5l-1.6,3.7c-0.5,1.2-0.8,2.3-0.8,3.1c0,1.1,0.4,1.9,1.3,2.4c0.5,0.3,1.8,0.5,3.7,0.7v1
						H98.3v-1c1.4-0.2,2.5-0.8,3.4-1.7c0.9-0.9,2-2.8,3.3-5.7l13.6-30.4h0.5l13.7,31.2c1.3,3,2.4,4.8,3.2,5.6c0.6,0.6,1.5,0.9,2.7,1
						v1h-18.4v-1h0.8c1.5,0,2.5-0.2,3.1-0.6c0.4-0.3,0.6-0.7,0.6-1.3c0-0.3-0.1-0.7-0.2-1c0-0.2-0.3-0.9-0.8-2.1L121.8,116.9z
						 M120.8,114.9l-5.7-13.1l-5.8,13.1H120.8z"/>
				</g>
			</g>
		</g>
		<g>
			<g>
				<g>
					<path class="st10" d="M459.5,68.6c0-0.1,0.5-0.1,1.2-0.1c0.1,0,0.3,0,0.4,0l-0.1,0.1c0-0.5,0.1-0.8,0.1-0.8
						c0.1,0,0.1,0.3,0.1,0.8l0,0.1l-0.1,0c-0.1,0-0.3,0-0.4,0C460.1,68.7,459.5,68.7,459.5,68.6z"/>
				</g>
				<g>
					<path class="st10" d="M456.4,68.6c0-0.1,0.4-0.1,0.8-0.1c0.4,0,0.8,0.1,0.8,0.1c0,0.1-0.4,0.1-0.8,0.1
						C456.7,68.7,456.4,68.7,456.4,68.6z"/>
				</g>
				<g>
					<path class="st10" d="M453.2,68.6c0-0.1,0.4-0.1,0.8-0.1c0.4,0,0.8,0.1,0.8,0.1c0,0.1-0.4,0.1-0.8,0.1
						C453.6,68.7,453.2,68.7,453.2,68.6z"/>
				</g>
				<g>
					<path class="st10" d="M450.1,68.6c0-0.1,0.4-0.1,0.8-0.1c0.4,0,0.8,0.1,0.8,0.1c0,0.1-0.4,0.1-0.8,0.1
						C450.4,68.7,450.1,68.7,450.1,68.6z"/>
				</g>
				<g>
					<path class="st10" d="M446.9,68.6c0-0.1,0.4-0.1,0.8-0.1c0.4,0,0.8,0.1,0.8,0.1c0,0.1-0.4,0.1-0.8,0.1
						C447.3,68.7,446.9,68.7,446.9,68.6z"/>
				</g>
				<g>
					<path class="st10" d="M443.8,68.6c0-0.1,0.4-0.1,0.8-0.1c0.4,0,0.8,0.1,0.8,0.1c0,0.1-0.4,0.1-0.8,0.1
						C444.1,68.7,443.8,68.7,443.8,68.6z"/>
				</g>
				<g>
					<path class="st10" d="M440.6,68.6c0-0.1,0.4-0.1,0.8-0.1s0.8,0.1,0.8,0.1c0,0.1-0.4,0.1-0.8,0.1S440.6,68.7,440.6,68.6z"/>
				</g>
				<g>
					<path class="st10" d="M437.5,68.6c0-0.1,0.4-0.1,0.8-0.1c0.4,0,0.8,0.1,0.8,0.1c0,0.1-0.4,0.1-0.8,0.1
						C437.8,68.7,437.5,68.7,437.5,68.6z"/>
				</g>
				<g>
					<path class="st10" d="M434.3,68.6c0-0.1,0.4-0.1,0.8-0.1c0.4,0,0.8,0.1,0.8,0.1c0,0.1-0.4,0.1-0.8,0.1
						C434.7,68.7,434.3,68.7,434.3,68.6z"/>
				</g>
				<g>
					<path class="st10" d="M431.2,68.6c0-0.1,0.4-0.1,0.8-0.1c0.4,0,0.8,0.1,0.8,0.1c0,0.1-0.4,0.1-0.8,0.1
						C431.5,68.7,431.2,68.7,431.2,68.6z"/>
				</g>
				<g>
					<path class="st10" d="M428,68.6c0-0.1,0.4-0.1,0.8-0.1c0.4,0,0.8,0.1,0.8,0.1c0,0.1-0.4,0.1-0.8,0.1
						C428.4,68.7,428,68.7,428,68.6z"/>
				</g>
				<g>
					<path class="st10" d="M424.9,68.6c0-0.1,0.4-0.1,0.8-0.1c0.4,0,0.8,0.1,0.8,0.1c0,0.1-0.4,0.1-0.8,0.1
						C425.2,68.7,424.9,68.7,424.9,68.6z"/>
				</g>
				<g>
					<path class="st10" d="M421.7,68.6c0-0.1,0.4-0.1,0.8-0.1c0.4,0,0.8,0.1,0.8,0.1c0,0.1-0.4,0.1-0.8,0.1
						C422.1,68.7,421.7,68.7,421.7,68.6z"/>
				</g>
				<g>
					<path class="st10" d="M418.6,68.6c0-0.1,0.4-0.1,0.8-0.1c0.4,0,0.8,0.1,0.8,0.1c0,0.1-0.4,0.1-0.8,0.1
						C418.9,68.7,418.6,68.7,418.6,68.6z"/>
				</g>
				<g>
					<path class="st10" d="M415.4,68.6c0-0.1,0.4-0.1,0.8-0.1c0.4,0,0.8,0.1,0.8,0.1c0,0.1-0.4,0.1-0.8,0.1
						C415.8,68.7,415.4,68.7,415.4,68.6z"/>
				</g>
				<g>
					<path class="st10" d="M412.3,68.6c0-0.1,0.4-0.1,0.8-0.1c0.4,0,0.8,0.1,0.8,0.1c0,0.1-0.4,0.1-0.8,0.1
						C412.6,68.7,412.3,68.7,412.3,68.6z"/>
				</g>
				<g>
					<path class="st10" d="M409.1,68.6c0-0.1,0.4-0.1,0.8-0.1c0.4,0,0.8,0.1,0.8,0.1c0,0.1-0.4,0.1-0.8,0.1
						C409.5,68.7,409.1,68.7,409.1,68.6z"/>
				</g>
				<g>
					<path class="st10" d="M406,68.6c0-0.1,0.4-0.1,0.8-0.1c0.4,0,0.8,0.1,0.8,0.1c0,0.1-0.4,0.1-0.8,0.1
						C406.3,68.7,406,68.7,406,68.6z"/>
				</g>
				<g>
					<path class="st10" d="M405,66.4c0.1,0,0.1,0.4,0.1,0.8c0,0.4-0.1,0.8-0.1,0.8c-0.1,0-0.1-0.4-0.1-0.8
						C404.8,66.8,404.9,66.4,405,66.4z"/>
				</g>
				<g>
					<path class="st10" d="M405,63.3c0.1,0,0.1,0.4,0.1,0.8c0,0.4-0.1,0.8-0.1,0.8c-0.1,0-0.1-0.4-0.1-0.8
						C404.8,63.6,404.9,63.3,405,63.3z"/>
				</g>
				<g>
					<path class="st10" d="M405,60.1c0.1,0,0.1,0.4,0.1,0.8c0,0.4-0.1,0.8-0.1,0.8c-0.1,0-0.1-0.4-0.1-0.8
						C404.8,60.5,404.9,60.1,405,60.1z"/>
				</g>
				<g>
					<path class="st10" d="M405,57c0.1,0,0.1,0.4,0.1,0.8c0,0.4-0.1,0.8-0.1,0.8c-0.1,0-0.1-0.4-0.1-0.8C404.8,57.3,404.9,57,405,57
						z"/>
				</g>
				<g>
					<path class="st10" d="M405,53.8c0.1,0,0.1,0.4,0.1,0.8c0,0.4-0.1,0.8-0.1,0.8c-0.1,0-0.1-0.4-0.1-0.8
						C404.8,54.2,404.9,53.8,405,53.8z"/>
				</g>
				<g>
					<path class="st10" d="M405,50.6c0.1,0,0.1,0.4,0.1,0.8c0,0.4-0.1,0.8-0.1,0.8c-0.1,0-0.1-0.4-0.1-0.8
						C404.8,51,404.9,50.6,405,50.6z"/>
				</g>
				<g>
					<path class="st10" d="M405,47.5c0.1,0,0.1,0.4,0.1,0.8c0,0.4-0.1,0.8-0.1,0.8c-0.1,0-0.1-0.4-0.1-0.8
						C404.8,47.8,404.9,47.5,405,47.5z"/>
				</g>
				<g>
					<path class="st10" d="M405,44.3c0.1,0,0.1,0.4,0.1,0.8c0,0.4-0.1,0.8-0.1,0.8c-0.1,0-0.1-0.4-0.1-0.8
						C404.8,44.7,404.9,44.3,405,44.3z"/>
				</g>
				<g>
					<path class="st10" d="M405,41.2c0.1,0,0.1,0.4,0.1,0.8c0,0.4-0.1,0.8-0.1,0.8c-0.1,0-0.1-0.4-0.1-0.8
						C404.8,41.5,404.9,41.2,405,41.2z"/>
				</g>
				<g>
					<path class="st10" d="M405,38c0.1,0,0.1,0.4,0.1,0.8c0,0.4-0.1,0.8-0.1,0.8c-0.1,0-0.1-0.4-0.1-0.8C404.8,38.4,404.9,38,405,38
						z"/>
				</g>
				<g>
					<path class="st10" d="M405,34.9c0.1,0,0.1,0.4,0.1,0.8c0,0.4-0.1,0.8-0.1,0.8c-0.1,0-0.1-0.4-0.1-0.8
						C404.8,35.2,404.9,34.9,405,34.9z"/>
				</g>
				<g>
					<path class="st10" d="M405,31.7c0.1,0,0.1,0.4,0.1,0.8c0,0.4-0.1,0.8-0.1,0.8c-0.1,0-0.1-0.4-0.1-0.8
						C404.8,32.1,404.9,31.7,405,31.7z"/>
				</g>
				<g>
					<path class="st10" d="M405,28.6c0.1,0,0.1,0.4,0.1,0.8c0,0.4-0.1,0.8-0.1,0.8c-0.1,0-0.1-0.4-0.1-0.8
						C404.8,28.9,404.9,28.6,405,28.6z"/>
				</g>
				<g>
					<path class="st10" d="M405,25.4c0.1,0,0.1,0.4,0.1,0.8c0,0.4-0.1,0.8-0.1,0.8c-0.1,0-0.1-0.4-0.1-0.8
						C404.8,25.8,404.9,25.4,405,25.4z"/>
				</g>
				<g>
					<path class="st10" d="M405,22.3c0.1,0,0.1,0.4,0.1,0.8c0,0.4-0.1,0.8-0.1,0.8c-0.1,0-0.1-0.4-0.1-0.8
						C404.8,22.6,404.9,22.3,405,22.3z"/>
				</g>
				<g>
					<path class="st10" d="M405,19.1c0.1,0,0.1,0.4,0.1,0.8c0,0.4-0.1,0.8-0.1,0.8c-0.1,0-0.1-0.4-0.1-0.8
						C404.8,19.5,404.9,19.1,405,19.1z"/>
				</g>
				<g>
					<path class="st10" d="M405,16c0.1,0,0.1,0.4,0.1,0.8c0,0.4-0.1,0.8-0.1,0.8c-0.1,0-0.1-0.4-0.1-0.8C404.8,16.3,404.9,16,405,16
						z"/>
				</g>
				<g>
					<path class="st10" d="M405,12.8c0.1,0,0.1,0.4,0.1,0.8c0,0.4-0.1,0.8-0.1,0.8c-0.1,0-0.1-0.4-0.1-0.8
						C404.8,13.2,404.9,12.8,405,12.8z"/>
				</g>
				<g>
					<path class="st10" d="M407.7,12.4c0,0.1-0.4,0.1-0.8,0.1c-0.4,0-0.8-0.1-0.8-0.1c0-0.1,0.4-0.1,0.8-0.1
						C407.4,12.3,407.7,12.4,407.7,12.4z"/>
				</g>
				<g>
					<path class="st10" d="M410.9,12.4c0,0.1-0.4,0.1-0.8,0.1c-0.4,0-0.8-0.1-0.8-0.1c0-0.1,0.4-0.1,0.8-0.1
						C410.5,12.3,410.9,12.4,410.9,12.4z"/>
				</g>
				<g>
					<path class="st10" d="M414,12.4c0,0.1-0.4,0.1-0.8,0.1c-0.4,0-0.8-0.1-0.8-0.1c0-0.1,0.4-0.1,0.8-0.1
						C413.7,12.3,414,12.4,414,12.4z"/>
				</g>
				<g>
					<path class="st10" d="M417.2,12.4c0,0.1-0.4,0.1-0.8,0.1c-0.4,0-0.8-0.1-0.8-0.1c0-0.1,0.4-0.1,0.8-0.1
						C416.8,12.3,417.2,12.4,417.2,12.4z"/>
				</g>
				<g>
					<path class="st10" d="M420.3,12.4c0,0.1-0.4,0.1-0.8,0.1c-0.4,0-0.8-0.1-0.8-0.1c0-0.1,0.4-0.1,0.8-0.1
						C420,12.3,420.3,12.4,420.3,12.4z"/>
				</g>
				<g>
					<path class="st10" d="M423.5,12.4c0,0.1-0.4,0.1-0.8,0.1c-0.4,0-0.8-0.1-0.8-0.1c0-0.1,0.4-0.1,0.8-0.1
						C423.1,12.3,423.5,12.4,423.5,12.4z"/>
				</g>
				<g>
					<path class="st10" d="M426.6,12.4c0,0.1-0.4,0.1-0.8,0.1s-0.8-0.1-0.8-0.1c0-0.1,0.4-0.1,0.8-0.1S426.6,12.4,426.6,12.4z"/>
				</g>
				<g>
					<path class="st10" d="M429.8,12.4c0,0.1-0.4,0.1-0.8,0.1c-0.4,0-0.8-0.1-0.8-0.1c0-0.1,0.4-0.1,0.8-0.1
						C429.4,12.3,429.8,12.4,429.8,12.4z"/>
				</g>
				<g>
					<path class="st10" d="M433,12.4c0,0.1-0.4,0.1-0.8,0.1c-0.4,0-0.8-0.1-0.8-0.1c0-0.1,0.4-0.1,0.8-0.1
						C432.6,12.3,433,12.4,433,12.4z"/>
				</g>
				<g>
					<path class="st10" d="M436.1,12.4c0,0.1-0.4,0.1-0.8,0.1c-0.4,0-0.8-0.1-0.8-0.1c0-0.1,0.4-0.1,0.8-0.1
						C435.8,12.3,436.1,12.4,436.1,12.4z"/>
				</g>
				<g>
					<path class="st10" d="M439.3,12.4c0,0.1-0.4,0.1-0.8,0.1c-0.4,0-0.8-0.1-0.8-0.1c0-0.1,0.4-0.1,0.8-0.1
						C438.9,12.3,439.3,12.4,439.3,12.4z"/>
				</g>
				<g>
					<path class="st10" d="M442.4,12.4c0,0.1-0.4,0.1-0.8,0.1c-0.4,0-0.8-0.1-0.8-0.1c0-0.1,0.4-0.1,0.8-0.1
						C442.1,12.3,442.4,12.4,442.4,12.4z"/>
				</g>
				<g>
					<path class="st10" d="M445.6,12.4c0,0.1-0.4,0.1-0.8,0.1c-0.4,0-0.8-0.1-0.8-0.1c0-0.1,0.4-0.1,0.8-0.1
						C445.2,12.3,445.6,12.4,445.6,12.4z"/>
				</g>
				<g>
					<path class="st10" d="M448.7,12.4c0,0.1-0.4,0.1-0.8,0.1c-0.4,0-0.8-0.1-0.8-0.1c0-0.1,0.4-0.1,0.8-0.1
						C448.4,12.3,448.7,12.4,448.7,12.4z"/>
				</g>
				<g>
					<path class="st10" d="M451.9,12.4c0,0.1-0.4,0.1-0.8,0.1c-0.4,0-0.8-0.1-0.8-0.1c0-0.1,0.4-0.1,0.8-0.1
						C451.5,12.3,451.9,12.4,451.9,12.4z"/>
				</g>
				<g>
					<path class="st10" d="M455,12.4c0,0.1-0.4,0.1-0.8,0.1c-0.4,0-0.8-0.1-0.8-0.1c0-0.1,0.4-0.1,0.8-0.1
						C454.7,12.3,455,12.4,455,12.4z"/>
				</g>
				<g>
					<path class="st10" d="M458.2,12.4c0,0.1-0.4,0.1-0.8,0.1c-0.4,0-0.8-0.1-0.8-0.1c0-0.1,0.4-0.1,0.8-0.1
						C457.8,12.3,458.2,12.4,458.2,12.4z"/>
				</g>
				<g>
					<path class="st10" d="M461.1,12.6c0,0-0.1-0.1-0.1-0.2l0.1,0.1c-0.1,0-0.4,0-0.6,0c-0.4,0-0.8-0.1-0.8-0.1
						c0-0.1,0.4-0.1,0.8-0.1c0.2,0,0.4,0,0.6,0l0.1,0l0,0.1C461.2,12.6,461.2,12.6,461.1,12.6z"/>
				</g>
				<g>
					<path class="st10" d="M461.1,15.8c-0.1,0-0.1-0.4-0.1-0.8c0-0.4,0.1-0.8,0.1-0.8c0.1,0,0.1,0.4,0.1,0.8
						C461.3,15.4,461.2,15.8,461.1,15.8z"/>
				</g>
				<g>
					<path class="st10" d="M461.1,18.9c-0.1,0-0.1-0.4-0.1-0.8c0-0.4,0.1-0.8,0.1-0.8c0.1,0,0.1,0.4,0.1,0.8
						C461.3,18.6,461.2,18.9,461.1,18.9z"/>
				</g>
				<g>
					<path class="st10" d="M461.1,22.1c-0.1,0-0.1-0.4-0.1-0.8c0-0.4,0.1-0.8,0.1-0.8c0.1,0,0.1,0.4,0.1,0.8
						C461.3,21.7,461.2,22.1,461.1,22.1z"/>
				</g>
				<g>
					<path class="st10" d="M461.1,25.2c-0.1,0-0.1-0.4-0.1-0.8c0-0.4,0.1-0.8,0.1-0.8c0.1,0,0.1,0.4,0.1,0.8
						C461.3,24.9,461.2,25.2,461.1,25.2z"/>
				</g>
				<g>
					<path class="st10" d="M461.1,28.4c-0.1,0-0.1-0.4-0.1-0.8c0-0.4,0.1-0.8,0.1-0.8c0.1,0,0.1,0.4,0.1,0.8
						C461.3,28,461.2,28.4,461.1,28.4z"/>
				</g>
				<g>
					<path class="st10" d="M461.1,31.5c-0.1,0-0.1-0.4-0.1-0.8c0-0.4,0.1-0.8,0.1-0.8c0.1,0,0.1,0.4,0.1,0.8
						C461.3,31.2,461.2,31.5,461.1,31.5z"/>
				</g>
				<g>
					<path class="st10" d="M461.1,34.7c-0.1,0-0.1-0.4-0.1-0.8c0-0.4,0.1-0.8,0.1-0.8c0.1,0,0.1,0.4,0.1,0.8
						C461.3,34.3,461.2,34.7,461.1,34.7z"/>
				</g>
				<g>
					<path class="st10" d="M461.1,37.8c-0.1,0-0.1-0.4-0.1-0.8c0-0.4,0.1-0.8,0.1-0.8c0.1,0,0.1,0.4,0.1,0.8
						C461.3,37.5,461.2,37.8,461.1,37.8z"/>
				</g>
				<g>
					<path class="st10" d="M461.1,41c-0.1,0-0.1-0.4-0.1-0.8c0-0.4,0.1-0.8,0.1-0.8c0.1,0,0.1,0.4,0.1,0.8
						C461.3,40.6,461.2,41,461.1,41z"/>
				</g>
				<g>
					<path class="st10" d="M461.1,44.2c-0.1,0-0.1-0.4-0.1-0.8c0-0.4,0.1-0.8,0.1-0.8c0.1,0,0.1,0.4,0.1,0.8
						C461.3,43.8,461.2,44.2,461.1,44.2z"/>
				</g>
				<g>
					<path class="st10" d="M461.1,47.3c-0.1,0-0.1-0.4-0.1-0.8c0-0.4,0.1-0.8,0.1-0.8c0.1,0,0.1,0.4,0.1,0.8
						C461.3,47,461.2,47.3,461.1,47.3z"/>
				</g>
				<g>
					<path class="st10" d="M461.1,50.5c-0.1,0-0.1-0.4-0.1-0.8s0.1-0.8,0.1-0.8c0.1,0,0.1,0.4,0.1,0.8S461.2,50.5,461.1,50.5z"/>
				</g>
				<g>
					<path class="st10" d="M461.1,53.6c-0.1,0-0.1-0.4-0.1-0.8c0-0.4,0.1-0.8,0.1-0.8c0.1,0,0.1,0.4,0.1,0.8
						C461.3,53.3,461.2,53.6,461.1,53.6z"/>
				</g>
				<g>
					<path class="st10" d="M461.1,56.8c-0.1,0-0.1-0.4-0.1-0.8c0-0.4,0.1-0.8,0.1-0.8c0.1,0,0.1,0.4,0.1,0.8
						C461.3,56.4,461.2,56.8,461.1,56.8z"/>
				</g>
				<g>
					<path class="st10" d="M461.1,59.9c-0.1,0-0.1-0.4-0.1-0.8c0-0.4,0.1-0.8,0.1-0.8c0.1,0,0.1,0.4,0.1,0.8
						C461.3,59.6,461.2,59.9,461.1,59.9z"/>
				</g>
				<g>
					<path class="st10" d="M461.1,63.1c-0.1,0-0.1-0.4-0.1-0.8c0-0.4,0.1-0.8,0.1-0.8c0.1,0,0.1,0.4,0.1,0.8
						C461.3,62.7,461.2,63.1,461.1,63.1z"/>
				</g>
				<g>
					<path class="st10" d="M461.1,66.2c-0.1,0-0.1-0.4-0.1-0.8c0-0.4,0.1-0.8,0.1-0.8c0.1,0,0.1,0.4,0.1,0.8
						C461.3,65.9,461.2,66.2,461.1,66.2z"/>
				</g>
			</g>
			<rect x="459" y="65.9" class="st10" width="4.2" height="4.2"/>
			<rect x="402.9" y="66.5" class="st10" width="4.2" height="4.2"/>
			<rect x="459" y="9.9" class="st10" width="4.2" height="4.2"/>
			<rect x="402.9" y="10.3" class="st10" width="4.2" height="4.2"/>
		</g>
		<g>
			<g>
				<g>
					<g>
						<g>
							<g>
								<path class="st9" d="M660.6,67.6h-3.4l-7.3-10.2v-6.7c0,0-5.2-0.3-4.6,8.5c0.6,8.8,0,6.6,0,6.6s-11,0-12,1
									c-0.7,0.7-1,11.7-1.1,17.6c-0.1,3,1.8,5.8,4.6,6.5c0.4,0.1,0.8,0.2,1.2,0.2c2.8,0,16.8-2.2,16.8-2.2h5.8V67.6z"/>
							</g>
						</g>
					</g>
				</g>
				<g>
					<g>
						<g>
							<g>
								<polygon class="st9" points="670.3,65.8 668.2,88.8 662.4,88.8 662.4,66.2 								"/>
							</g>
						</g>
					</g>
				</g>
			</g>
		</g>
		<g>
			<path class="st5" d="M679.8,432.5c0,0.1-137.1,0.3-306.2,0.3c-169.2,0-306.3-0.1-306.3-0.3s137.1-0.3,306.3-0.3
				C542.6,432.2,679.8,432.4,679.8,432.5z"/>
		</g>
		<path class="st18" d="M551.8,315.3c1-0.2,9.2,37.2,8.1,51.7c-1.1,14.5-8.1,65.1-8.1,65.1h-33.6l-6.1-71.5l1.1,71.5h-45.2
			c0,0-10.5-49.1-8.6-64c1.9-14.9,11.8-54,11.8-54L551.8,315.3z"/>
		<g>
			<path class="st7" d="M515.5,323.9c0,0,0.1,0.5,0.1,1.4c0,0.9,0,2.2,0,3.8c-0.1,3.2-0.3,7.7-0.7,12.5c-0.4,4.9-1,9.3-1.4,12.5
				c-0.2,1.6-0.4,2.9-0.6,3.8c-0.2,0.9-0.3,1.4-0.3,1.4c0,0,0-0.5,0.1-1.4c0.1-1,0.3-2.3,0.4-3.8c0.4-3.2,0.9-7.6,1.3-12.5
				c0.4-4.9,0.7-9.3,0.8-12.5c0.1-1.5,0.1-2.8,0.2-3.8C515.4,324.4,515.5,323.9,515.5,323.9z"/>
		</g>
		<g>
			<path class="st7" d="M521.6,326.9c0,0,0.3-0.1,0.7,0c0.5,0.1,1.2,0.4,1.7,1.1c0.3,0.3,0.5,0.8,0.7,1.3c0.1,0.5,0.1,1.1-0.1,1.7
				c-0.4,1.1-1.6,2.1-3,2.1c-1.4,0-2.6-1.1-2.9-2.2c-0.2-0.6-0.2-1.2-0.1-1.7c0.2-0.5,0.4-0.9,0.7-1.3c0.6-0.6,1.4-0.9,1.9-0.9
				c0.5,0,0.7,0.1,0.7,0.2c0,0-0.3,0-0.7,0.1c-0.4,0.1-1.1,0.3-1.6,0.9c-0.5,0.6-0.9,1.6-0.5,2.5c0.3,0.9,1.3,1.9,2.5,1.9
				c1.2,0,2.2-0.8,2.6-1.8c0.4-1,0.1-1.9-0.4-2.6c-0.5-0.6-1.1-1-1.5-1.1C521.8,327,521.6,327,521.6,326.9z"/>
		</g>
		<g>
			<path class="st7" d="M556.8,333.2c0,0-0.3,0.2-0.9,0.3c-0.6,0.2-1.4,0.4-2.5,0.5c-2.2,0.2-5.3,0-8.3-1.5c-3-1.4-5.2-3.7-6.4-5.5
				c-0.6-0.9-1-1.7-1.2-2.3c-0.2-0.6-0.3-0.9-0.3-0.9c0.1,0,0.6,1.2,1.8,2.9c1.2,1.7,3.4,3.9,6.3,5.2c2.9,1.4,5.9,1.7,8.1,1.6
				C555.5,333.5,556.8,333.1,556.8,333.2z"/>
		</g>
		<path class="st14" d="M522.9,191.7c0,0,20.7,6.1,22.8,9.4c2,3.3,8.5,41.8,8.5,41.8l-12.7,45.4c0,0,10.5,17,11.1,25.5
			c-23.5,15.2-50.1,10.9-77.9-1.2l-2-44.4l-2.6-70.9l17.1-6L522.9,191.7z"/>
		<g>
			<path class="st14" d="M545.7,201.2l20.8,56.5l14-27.8l18.3,3.7l-10.5,43.9c-1.1,7.8-7,14-14.7,15.6l0,0
				c-6.4,1.3-13.1-0.8-17.5-5.7l-6.5-7.2L545.7,201.2z"/>
			<g>
				<path class="st14" d="M566.1,293.3c0,0-0.1-0.5-0.2-1.4c-0.1-0.9-0.1-2.2-0.2-3.9c-0.1-3.3-0.2-7.8,0-12.8
					c0.1-5,0.5-9.5,0.8-12.8c0.2-1.6,0.3-2.9,0.4-3.9c0.1-0.9,0.2-1.4,0.2-1.4c0,0,0,0.5,0,1.4c-0.1,1-0.1,2.3-0.2,3.9
					c-0.2,3.3-0.5,7.8-0.6,12.8c-0.1,5-0.2,9.5-0.1,12.8c0,1.6,0,2.9,0,3.9C566.1,292.8,566.1,293.3,566.1,293.3z"/>
			</g>
			<g>
				<path class="st14" d="M593,258.8c-0.1,0.1-5.2-1.7-11.4-4.1c-6.3-2.4-11.3-4.4-11.2-4.5c0.1-0.1,5.2,1.7,11.4,4.1
					C588,256.7,593,258.7,593,258.8z"/>
			</g>
		</g>
		<polygon class="st19" points="603.1,227.1 594.4,233.5 584.6,231.2 587,228.6 		"/>
		<polygon class="st12" points="634.8,148.5 563.9,179.2 564.3,199.7 556.2,208.1 583.3,232.3 591.2,223.5 612.3,220.5 		"/>
		<g>
			<path class="st5" d="M634.8,148.5c-0.6,2-9.2,29.7-22.3,72.1l0,0.1l-0.1,0c-6.7,0.9-13.8,1.9-21.1,3l0.2-0.1
				c-2.5,2.8-5.2,5.8-7.9,8.9l-0.2,0.2l-0.2-0.2c-4.4-4-9.1-8.1-13.8-12.4c-4.5-4-8.9-8-13.3-11.9l-0.2-0.2l0.2-0.2
				c2.7-2.8,5.4-5.6,8-8.4l-0.1,0.2c-0.1-7.1-0.2-14-0.3-20.5l0-0.2l0.1-0.1C605.4,161.1,632.8,149.3,634.8,148.5
				c-2,0.9-29.3,12.8-70.8,30.9l0.1-0.2c0.1,6.6,0.2,13.4,0.4,20.5l0,0.1l-0.1,0.1c-2.6,2.8-5.3,5.6-8,8.4l0-0.4
				c4.3,3.9,8.8,7.8,13.3,11.8c4.7,4.2,9.4,8.4,13.8,12.4l-0.4,0c2.7-3,5.4-6,7.9-8.8l0.1-0.1l0.1,0c7.3-1,14.4-2,21.1-2.9l-0.2,0.2
				C625.4,178.1,634.2,150.5,634.8,148.5z"/>
		</g>
		<path class="st18" d="M606,198.8c-4.1,4.6-11.1,5-15.7,0.9c-4.6-4.1-5-11.1-0.9-15.7c4.1-4.6,11.1-5,15.7-0.9
			C609.7,187.2,610.1,194.2,606,198.8z"/>
		<path class="st5" d="M634.8,148.5c0.1,0.1-8.1,9.8-18.3,21.6c-10.2,11.8-18.6,21.4-18.7,21.3c-0.1-0.1,8.1-9.8,18.3-21.6
			C626.3,157.9,634.7,148.4,634.8,148.5z"/>
		<path class="st7" d="M416.5,393.4L416.5,393.4c-7.3-6.5-7.9-17.6-1.5-24.9l133.3-150.8l26.4,23.6L441.5,391.9
			C435,399.3,423.8,399.9,416.5,393.4z"/>
		
			<rect x="559.3" y="203.4" transform="matrix(0.6664 -0.7456 0.7456 0.6664 21.7808 497.1823)" class="st18" width="14.5" height="41.7"/>
		<g>
			
				<rect x="630.3" y="145" transform="matrix(0.7664 0.6423 -0.6423 0.7664 243.7244 -372.5406)" class="st14" width="7.7" height="7.7"/>
			<g>
				<g>
					<path class="st14" d="M683.1,188.5c-0.3,0.3-22.9-18.2-50.5-41.4c-27.6-23.2-49.8-42.2-49.6-42.5c0.3-0.3,22.9,18.2,50.5,41.4
						C661.1,169.1,683.3,188.2,683.1,188.5z"/>
				</g>
				<path class="st14" d="M684.2,189.4c-0.8,1-2.3,1.1-3.2,0.3c-1-0.8-1.1-2.3-0.3-3.2c0.8-1,2.3-1.1,3.2-0.3
					C684.9,187,685,188.5,684.2,189.4z"/>
				<path class="st14" d="M584.7,106.1c-0.8,1-2.3,1.1-3.2,0.3c-1-0.8-1.1-2.3-0.3-3.2s2.3-1.1,3.2-0.3
					C585.4,103.7,585.5,105.1,584.7,106.1z"/>
			</g>
		</g>
		<polygon class="st15" points="548.3,217.6 574.7,241.3 571.1,245.3 547,219.1 		"/>
		<polygon class="st26" points="564.3,212.6 564.3,231.5 568.1,235.4 568.1,216 		"/>
		<g>
			<g>
				<g>
					<g>
						<path class="st19" d="M596,203.8l9.7,3.9l2.1,7.8l-4.7,11.6l-17.1,2.5l5-5.1l-0.6-4.5c0,0-4.8-1.5-4.9-2.2
							c-0.1-0.7,0.6-3.2,1.3-3.3c0.7-0.1,5.7,1.7,5.7,1.7s-5.9-4.7-5.8-5.5c0.2-0.8,0.8-2.7,2-2.9c1.2-0.2,10.8,4.3,10.8,4.3
							l1.6,3.5l1.4-5.7C602.4,210,593.9,207.6,596,203.8z"/>
					</g>
				</g>
			</g>
			<g>
				<g>
					<g>
						<g>
							<path class="st6" d="M594.8,222.1c0.1,0,0.2-0.3,0.3-1c0.1-0.6,0-1.5-0.3-2.4c-0.3-0.9-0.9-1.6-1.4-2
								c-0.5-0.4-0.8-0.6-0.9-0.5c-0.1,0.1,1.2,1,1.8,2.7C595,220.5,594.6,222.1,594.8,222.1z"/>
						</g>
					</g>
				</g>
			</g>
			<g>
				<g>
					<g>
						<g>
							<path class="st6" d="M599.4,220.4c0.1,0-0.3-0.9-0.4-2.5c-0.1-0.8-0.1-1.8-0.5-2.8c-0.2-0.5-0.5-1.1-0.9-1.5
								c-0.4-0.5-1-0.8-1.6-1c-2.3-0.8-4.4-1.5-5.9-2c-1.5-0.5-2.5-0.8-2.5-0.7c0,0.1,0.9,0.5,2.4,1c1.5,0.6,3.6,1.3,5.9,2.1
								c0.6,0.2,1.1,0.5,1.4,0.9c0.4,0.4,0.6,0.8,0.8,1.3c0.4,1,0.4,1.9,0.6,2.7C598.9,219.5,599.3,220.4,599.4,220.4z"/>
						</g>
					</g>
				</g>
			</g>
			<g>
				<g>
					<g>
						<g>
							<path class="st6" d="M601.6,218.6c0.1,0,0.1-0.9-0.1-1.9c-0.2-1-0.4-1.9-0.6-1.8c-0.1,0-0.1,0.9,0.1,1.9
								C601.2,217.8,601.5,218.7,601.6,218.6z"/>
						</g>
					</g>
				</g>
			</g>
		</g>
		<g>
			<g>
				<g>
					<g>
						<path class="st19" d="M528.9,287.9c0,0,15.6-5.3,15.9-5.5c0.4-0.2,11-5.1,10.1-8c0,0,3-2.4,2.1-3.7l-4.3,1.8c0,0,6-3.9,5-7.4
							c0,0,0.6-1.2,0-1.9c-0.6-0.7-3.8,1.5-6.1,2.9l-4.5,1.8c-2,0.8-4.1,0.9-6.1,0.3l0,0c-1-0.3-1.6-1.3-1.3-2.3
							c0.5-2.2,1.1-5.6-0.3-10.5c0,0-1.1,0.4-1.9,2.8c-1,3.1-4.1,5.4-5.2,7.5c-0.6,1.2-1.7,3-2.4,4.4c-0.6,1.1-1.7,2-2.9,2.3
							l1.1,8.1L528.9,287.9z"/>
					</g>
				</g>
			</g>
			<g>
				<g>
					<g>
						<g>
							<path class="st6" d="M545.7,273.3c0,0,0.2,0,0.5-0.2c0.3-0.1,0.8-0.3,1.4-0.6c1.2-0.5,2.8-1.3,4.4-2.4c1.7-1.1,3.1-2.2,4-3.1
								c0.5-0.4,0.9-0.8,1.1-1.1c0.3-0.3,0.4-0.4,0.4-0.4c0,0-0.2,0.1-0.4,0.4c-0.3,0.2-0.7,0.6-1.2,1c-1,0.8-2.4,1.9-4,3
								c-1.6,1.1-3.2,1.9-4.4,2.5c-0.6,0.3-1.1,0.5-1.4,0.7C545.9,273.1,545.7,273.2,545.7,273.3z"/>
						</g>
					</g>
				</g>
			</g>
			<g>
				<g>
					<g>
						<g>
							<path class="st6" d="M546,276.4c0,0,0.5-0.1,1.1-0.4c0.7-0.3,1.6-0.7,2.6-1.3c1-0.6,1.8-1.2,2.4-1.6c0.6-0.5,0.9-0.8,0.9-0.8
								c0-0.1-1.5,1-3.4,2.2c-1,0.6-1.9,1.1-2.5,1.4C546.4,276.1,546,276.3,546,276.4z"/>
						</g>
					</g>
				</g>
			</g>
			<g>
				<g>
					<g>
						<g>
							<path class="st6" d="M545.9,280.1c0,0,0.6-0.2,1.5-0.6c0.9-0.4,2.1-1,3.3-1.8c1.2-0.8,2.3-1.6,3.1-2.2c0.7-0.6,1.2-1,1.2-1.1
								c0,0-0.5,0.3-1.3,0.9c-0.8,0.6-1.8,1.4-3.1,2.1c-1.2,0.8-2.4,1.4-3.3,1.9C546.4,279.8,545.8,280,545.9,280.1z"/>
						</g>
					</g>
				</g>
			</g>
		</g>
		<g>
			<path class="st14" d="M528.9,287.9l-57.7,17.4c-13.3-6-21.4-19.9-20.1-34.4c1.8-20.4,4.2-47.2,4.9-54
				c1.2-11.2,14.1-19.5,14.1-19.5c17.7,1.2,13.8,36.2,13.8,36.2l-7.1,40.3l50.2-2L528.9,287.9z"/>
			<g>
				<path class="st14" d="M476.7,273.8c0,0,0-0.6,0.1-1.6c0.1-1,0.2-2.5,0.4-4.4c0.5-3.7,1.2-8.7,2.3-14.3c1-5.6,2.1-10.6,2.9-14.2
					c0.4-1.8,0.7-3.3,1-4.3c0.3-1,0.4-1.6,0.4-1.5c0,0-0.1,0.6-0.2,1.6c-0.2,1.1-0.5,2.6-0.8,4.3c-0.7,3.6-1.7,8.6-2.7,14.2
					c-1,5.6-1.9,10.6-2.4,14.3c-0.2,1.8-0.5,3.2-0.6,4.3C476.8,273.2,476.7,273.8,476.7,273.8z"/>
			</g>
			<g>
				<path class="st14" d="M526.9,271.8c0,0-0.2,0-0.5,0.1c-0.4,0-0.9,0.1-1.6,0.1c-1.4,0.1-3.3,0.2-5.8,0.4
					c-4.9,0.3-11.6,0.5-19.1,0.7c-7.4,0.2-14.1,0.4-19.1,0.5c-2.4,0.1-4.3,0.1-5.8,0.2c-0.6,0-1.2,0-1.6,0c-0.4,0-0.5,0-0.6,0
					c0,0,0.2,0,0.5-0.1c0.4,0,0.9-0.1,1.6-0.1c1.4-0.1,3.3-0.2,5.8-0.3c4.9-0.3,11.6-0.5,19.1-0.7c7.4-0.2,14.1-0.4,19.1-0.5
					c2.4-0.1,4.3-0.1,5.8-0.2c0.6,0,1.2,0,1.6,0C526.7,271.8,526.9,271.8,526.9,271.8z"/>
			</g>
			<g>
				<path class="st14" d="M478.9,258.5c0,0-0.4,0-1.1,0c-0.8-0.1-1.8-0.1-2.9-0.2c-2.4-0.2-5.8-0.4-9.5-0.6
					c-3.7-0.2-7.1-0.2-9.5-0.2c-1.1,0-2.1,0-2.9,0c-0.7,0-1.1,0-1.1-0.1c0,0,0.4-0.1,1.1-0.1c0.7-0.1,1.7-0.1,2.9-0.1
					c2.4-0.1,5.8-0.1,9.5,0.1c3.7,0.2,7.1,0.4,9.5,0.7c1.2,0.1,2.2,0.3,2.9,0.4C478.5,258.4,478.9,258.5,478.9,258.5z"/>
			</g>
			<g>
				<path class="st14" d="M483.8,230.8c0,0.1-6.5,0-14.6-0.4c-8.1-0.3-14.6-0.7-14.6-0.9c0-0.1,6.5,0,14.6,0.4
					C477.3,230.2,483.8,230.6,483.8,230.8z"/>
			</g>
			<g>
				<path class="st14" d="M456.4,292c0,0,0.2-0.3,0.6-0.9c0.4-0.6,1-1.4,1.7-2.4c1.5-2,3.8-4.5,6.6-7.1c2.8-2.6,5.6-4.6,7.7-5.9
					c1-0.7,1.9-1.2,2.5-1.5c0.6-0.3,1-0.5,1-0.5c0,0.1-1.3,0.9-3.3,2.3c-2,1.4-4.7,3.5-7.5,6c-2.8,2.5-5.1,5.1-6.7,6.9
					C457.4,290.8,456.5,292,456.4,292z"/>
			</g>
			<g>
				<path class="st14" d="M497.9,297.5c-0.1,0-1.1-5.4-2.2-12.1c-1.1-6.7-1.8-12.2-1.7-12.2c0.1,0,1.1,5.4,2.2,12.1
					C497.3,292,498,297.5,497.9,297.5z"/>
			</g>
		</g>
		<g class="st15">
			<path d="M470.8,305.3l64.6-19.6c-4.8,6.4-14.3,12.3-21.4,16c-7.1,3.7-14.7,6.3-22.3,8.8c-4.1,1.4-8.3,2.8-12.7,2.8
				c-4.4,0-8.6-1.3-10.9-5L470.8,305.3z"/>
		</g>
		<g>
			<g>
				<g>
					<path class="st19" d="M491.6,122.2l0,4.7l-1,70.7c-0.1,8.2,6.8,14.8,15.6,14.9h0c8.9,0.1,16.3-6.6,16.5-14.9
						c0.3-8.7,0.7-17.9,0.7-17.9s11.3-1.6,14-16.1c1.4-7.2,1.3-19.2,1-28.9c-0.3-8.8-7.9-15.6-16.6-14.9L491.6,122.2z"/>
				</g>
			</g>
		</g>
		<g>
			<g>
				<g>
					<path class="st6" d="M523.4,179.8c0,0-9.9,0.4-19.4-5.8c0,0,4.5,10.2,19.2,9.2L523.4,179.8z"/>
				</g>
			</g>
		</g>
		<path class="st27" d="M343,313.7c-1-0.2-9.1,37.7-8,52.4c1.1,14.7,8,66,8,66H426c0,0,10.4-49.9,8.5-65
			c-1.8-15.1-11.7-54.8-11.7-54.8L343,313.7z"/>
		<g>
			<g>
				<g>
					<g>
						<g>
							<path class="st19" d="M332.4,242l-11.8-53.4l-0.7-8.8c0,0-2.7-19.8-2.7-21.7c0-2.2-1.1-2.8-1.9-2.7c-1.3,0.1-2.2,1.7-2.2,3.6
								c0,0.7,0.2,11.1,0.2,11.1s-0.5-0.9-2.1-2.8s-5.2-3-9-2.9c-3.7,0.2-4.8,0.5-4.8,2c0,0.6,0.3,1,0.7,1.4
								c0.7,0.6,1.6,0.8,2.5,0.8c6-0.2,7.6,3,7.6,3l0.1,1.2c0,0-3.7-2.6-6.5-1.4c-0.5,0.2-0.8,0.4-1.1,0.7c-1.6,0-3.1,0.9-4,2.3
								c-0.8,1.4-0.9,3.3,0,4.7c0.4,0.7,1.1,1.3,1.9,1.2c0.4-0.1,0.7-0.4,1.1-0.7c0.2-0.1,0.3-0.3,0.5-0.4l0.7,3.2
								c0,0,2,7.1,2.5,10.3l3.2,52.9c0.4,7.3,6.8,12.9,14.1,12.3h0C328.6,257.3,334.2,249.8,332.4,242z"/>
						</g>
					</g>
				</g>
			</g>
			<g>
				<g>
					<g>
						<g>
							<g>
								<path class="st19" d="M318.9,187.9c-1.1,0.3-2.2-0.5-2.8-1.4c-0.6-1-0.9-2.1-1.4-3.1c-1.6-3-5.4-4.4-6.8-7.5
									c-0.2-0.4-0.3-1,0.1-1.3c0.3-0.3,0.8-0.1,1.2,0.1c3.3,1.8,6.6,3.6,9.9,5.4"/>
							</g>
						</g>
					</g>
				</g>
				<g>
					<g>
						<g>
							<g>
								<g>
									<path class="st6" d="M319,180c0,0-0.3-0.3-1-0.7c-0.7-0.4-1.7-1-2.9-1.7c-1.3-0.7-2.7-1.5-4.3-2.4
										c-0.4-0.2-0.8-0.5-1.2-0.7c-0.4-0.2-0.9-0.6-1.6-0.4c-0.4,0.1-0.6,0.5-0.6,0.9c0,0.3,0.1,0.6,0.2,0.9
										c0.2,0.5,0.5,1,0.9,1.4c1.4,1.8,3.2,2.9,4.4,4.1c0.7,0.6,1.2,1.3,1.6,2c0.4,0.7,0.6,1.4,0.9,2.1c0.5,1.3,1.5,2.2,2.3,2.4
										c0.8,0.2,1.3,0,1.2-0.1c0-0.1-0.5,0.1-1.2-0.2c-0.7-0.3-1.5-1.1-2-2.4c-0.3-0.6-0.5-1.4-0.9-2.2c-0.4-0.8-1-1.5-1.6-2.2
										c-1.3-1.4-3.1-2.5-4.4-4.1c-0.3-0.4-0.6-0.8-0.8-1.3c-0.2-0.4-0.2-0.9,0.1-0.9c0.3-0.1,0.7,0.2,1.1,0.4
										c0.4,0.2,0.8,0.4,1.3,0.7c1.6,0.8,3.1,1.6,4.4,2.3c1.2,0.6,2.3,1.2,3,1.5C318.6,179.9,319,180.1,319,180z"/>
								</g>
							</g>
						</g>
					</g>
				</g>
			</g>
			<g>
				<g>
					<g>
						<g>
							<g>
								<path class="st6" d="M308.5,172.8c-0.1,0,0-0.9-0.7-2c-0.4-0.5-1-1-1.8-1.3c-0.8-0.3-1.8-0.4-2.8-0.4c-1,0-2.1,0-3-0.2
									c-0.9-0.2-1.7-0.6-2.2-1.1c-0.5-0.5-0.7-1.2-0.6-1.5c0.1-0.4,0.2-0.6,0.2-0.6c0,0,0,0.2,0,0.6c0,0.4,0.1,0.9,0.6,1.3
									c0.5,0.4,1.2,0.7,2.1,0.9c0.9,0.2,1.8,0.2,2.9,0.2c1,0,2.1,0.1,3,0.4c0.9,0.3,1.6,0.9,2,1.5c0.4,0.6,0.5,1.2,0.5,1.6
									C308.6,172.6,308.5,172.8,308.5,172.8z"/>
							</g>
						</g>
					</g>
				</g>
			</g>
			<g>
				<g>
					<g>
						<g>
							<g>
								<path class="st6" d="M313.1,158.2c0.1,0,0.1,0.8,0.1,2.1c0,1.4,0,3.1,0,5c0,1.9,0.1,3.6,0.1,5c0,1.3,0,2.1,0,2.1
									c-0.1,0-0.2-0.8-0.3-2.1c-0.1-1.3-0.2-3.1-0.2-5c0-2,0-3.7,0.1-5C312.9,159,313,158.2,313.1,158.2z"/>
							</g>
						</g>
					</g>
				</g>
			</g>
			<g>
				<g>
					<g>
						<g>
							<g>
								<path class="st6" d="M306.2,175.2c0,0-0.2-0.1-0.6-0.2c-0.4-0.1-1-0.4-1.6-0.1c-0.3,0.1-0.5,0.5-0.5,0.9
									c0,0.4,0,0.9,0.1,1.4c0.1,0.5,0.1,1.1-0.2,1.6c-0.3,0.5-1,0.8-1.6,0.8c-0.6,0-1.2-0.3-1.6-0.7c-0.4-0.4-0.7-0.9-0.8-1.4
									c-0.2-1-0.1-1.9,0-2.7c0.1-0.8,0.3-1.4,0.5-1.7c0.2-0.4,0.4-0.5,0.4-0.5c0,0-0.1,0.2-0.3,0.6c-0.2,0.4-0.3,1-0.4,1.7
									c-0.1,0.7-0.1,1.6,0.1,2.6c0.2,0.9,1,1.8,2,1.8c0.5,0,1-0.3,1.3-0.7c0.3-0.4,0.3-0.9,0.2-1.4c-0.1-0.5-0.1-1-0.1-1.4
									c0-0.5,0.3-0.9,0.7-1.1c0.8-0.3,1.5,0,1.8,0.2C306,175.1,306.2,175.2,306.2,175.2z"/>
							</g>
						</g>
					</g>
				</g>
			</g>
			<g>
				<g>
					<g>
						<g>
							<g>
								<path class="st6" d="M300.2,178.6c0,0,0.1,0.2-0.1,0.6c-0.1,0.4-0.5,0.9-1.2,1.1c-0.7,0.2-1.6,0-2.3-0.7
									c-0.7-0.7-1-1.7-1.1-2.7c0-1.1,0.3-2.1,0.9-2.8c0.5-0.8,1.2-1.2,1.9-1.5c0.6-0.3,1.2-0.4,1.6-0.4c0.4,0,0.6,0,0.6,0.1
									c0,0.1-0.9,0-2,0.6c-0.6,0.3-1.2,0.8-1.7,1.5c-0.5,0.7-0.8,1.6-0.8,2.6c0,1,0.3,1.9,0.9,2.5c0.6,0.6,1.4,0.8,2,0.7
									c0.6-0.1,1-0.6,1.1-0.9C300.2,178.9,300.2,178.6,300.2,178.6z"/>
							</g>
						</g>
					</g>
				</g>
			</g>
			<g>
				<g>
					<g>
						<g>
							<g>
								<path class="st6" d="M307.5,185.6c0,0,0.4-0.1,1,0c0.6,0.1,1.5,0.5,2.2,1.3l-0.4,0.1c0-0.4,0.1-0.9,0.2-1.4
									c0.6-2.7,2-4.5,2.1-4.4c0.1,0.1-1.2,1.9-1.7,4.5c-0.1,0.5-0.2,0.9-0.2,1.4l-0.1,0.5l-0.3-0.4c-0.6-0.7-1.4-1.1-2-1.3
									C307.9,185.6,307.5,185.6,307.5,185.6z"/>
							</g>
						</g>
					</g>
				</g>
			</g>
			<g>
				<g>
					<g>
						<g>
							<g>
								<path class="st6" d="M307.1,167.7c0.1,0-0.3,0.8-1.2,1.2c-0.9,0.4-1.7,0.2-1.7,0.1c0-0.1,0.7-0.1,1.5-0.5
									C306.5,168.2,307,167.7,307.1,167.7z"/>
							</g>
						</g>
					</g>
				</g>
			</g>
		</g>
		<path class="st14" d="M427.5,196.7c4.3,0,14.8,12.3,16.6,31.1c0.8,8.6,5.1,43.7,7.2,60.6c0.8,6.1-1.9,12.1-6.9,15.7
			c-11.2,8.2-33.7,21-63.6,20.6l-18.1-15.2l58.8-24.8l0-1.3l2.6-2.8l-7.3-45C416.8,235.5,409.9,196.7,427.5,196.7z"/>
		<g>
			<g>
				<g>
					<g>
						<g>
							<g>
								<path class="st19" d="M374,190c0-6.8-0.1-13.4-0.1-13.4c0,0-10.8-1.8-13-15.9c-1.1-7-0.7-18.5-0.1-27.9
									c0.6-8.5,6.2-18.8,14.6-17.9l26.3,6.7c2.6,0.3,4.5,2.5,4.4,5l0,0l-2.4,63.8c-0.3,8.1-7,14.5-15.1,14.3l0,0
									C380.5,204.6,374.1,198.1,374,190z"/>
							</g>
						</g>
					</g>
				</g>
			</g>
		</g>
		<g>
			<g>
				<g>
					<g>
						<g>
							<g>
								<path class="st6" d="M373.9,176.6c0,0,9.5,0.6,18.9-5c-0.2,0-5.2,9.8-18.7,8.3L373.9,176.6z"/>
							</g>
						</g>
					</g>
				</g>
			</g>
		</g>
		<path class="st14" d="M428.7,196.9l-25-6.4h-29.8c0,0-15.4,0.9-24,8.5c-0.2,0.2-2.9,2.6-4.7,7.7L332,236.9l-6.8-38l-23.8,3.4
			l3.8,65.4c1.4,13.9,11.6,25.3,25.3,28.2l13.5-15.2c1.6,12.4,2.9,23.1,3.1,22.9c0.3-0.3,74.1-4.8,74.1-4.8l-7.5-25.2L428.7,196.9z"
			/>
		<path class="st14" d="M334.2,112.2c0.1-9.4-7.5-17.1-16.9-17.2c-9.4-0.1-17.1,7.5-17.2,16.9c-0.1,6.8,3.9,12.7,9.6,15.5
			c0,2,0,4.3,0,4.3l14.9,0.2c0,0,0.1-2.4,0.2-4.6C330.3,124.5,334.2,118.8,334.2,112.2z"/>
		<path class="st5" d="M319.2,131.7c0,0,0-0.1,0-0.2c0-0.1,0-0.4,0.1-0.6c0.1-0.5,0.2-1.3,0.3-2.4c0.2-1,0.4-2.3,0.7-3.7
			c0.3-1.4,0.8-3,1.6-4.7c0.4-0.8,0.8-1.7,1.4-2.5c0.3-0.4,0.7-0.8,1.2-1c0.5-0.2,1.1-0.2,1.6,0.1c0.2,0.1,0.5,0.4,0.5,0.7
			c0.1,0.3,0.1,0.6-0.1,0.9c-0.3,0.5-0.8,0.9-1.3,1.1c-1.1,0.4-2.4,0.3-3.5-0.3c-1.1-0.6-2-1.6-2.4-2.9c-0.2-0.6-0.3-1.3-0.1-2
			c0.2-0.7,0.8-1.2,1.6-1.2c0.4,0,0.7,0.3,0.9,0.6c0.2,0.3,0.2,0.7,0.1,1.1c-0.2,0.7-0.7,1.2-1.2,1.7c-1.1,0.9-2.6,1.4-4,1.1
			c-1.4-0.2-2.7-1.2-3.3-2.5c-0.3-0.6-0.4-1.4-0.1-2.1c0.1-0.3,0.4-0.6,0.8-0.7c0.3-0.1,0.7-0.1,1,0.1c0.3,0.2,0.6,0.4,0.7,0.8
			c0.2,0.3,0.2,0.7,0.2,1c0,0.7-0.1,1.3-0.3,1.9c-0.4,1.2-1.3,2.3-2.4,2.8c-1.1,0.6-2.4,0.7-3.5,0.4c-0.6-0.1-1.1-0.4-1.5-0.8
			c-0.4-0.5-0.5-1.2-0.1-1.6c0.2-0.2,0.5-0.3,0.8-0.4c0.3,0,0.6,0,0.8,0.2c0.5,0.3,0.8,0.7,1,1.2c0.4,0.9,0.8,1.8,1.1,2.7
			c1.3,3.5,2.3,6.3,2.9,8.3c0.3,1,0.5,1.8,0.7,2.3c0.1,0.3,0.1,0.5,0.2,0.6c0,0.1,0.1,0.2,0.1,0.2s0-0.1-0.1-0.2
			c0-0.1-0.1-0.3-0.2-0.6c-0.2-0.5-0.4-1.3-0.7-2.3c-0.7-2-1.6-4.8-3-8.2c-0.3-0.9-0.7-1.8-1.1-2.7c-0.2-0.4-0.5-0.9-1-1.1
			c-0.4-0.2-1-0.2-1.4,0.2c-0.3,0.4-0.2,1,0.1,1.4c0.3,0.4,0.9,0.6,1.4,0.8c1.1,0.3,2.3,0.1,3.4-0.4c1.1-0.5,1.9-1.5,2.3-2.7
			c0.2-0.6,0.3-1.2,0.3-1.9c0-0.6-0.3-1.3-0.9-1.6c-0.3-0.1-0.6-0.2-0.9-0.1c-0.3,0.1-0.5,0.3-0.6,0.6c-0.2,0.6-0.2,1.3,0.1,1.9
			c0.5,1.2,1.8,2.1,3.1,2.4c1.4,0.2,2.8-0.2,3.8-1.1c0.5-0.4,1-0.9,1.1-1.6c0.1-0.3,0-0.6-0.1-0.9c-0.1-0.3-0.4-0.5-0.7-0.5
			c-0.3,0-0.6,0.1-0.9,0.3c-0.2,0.2-0.4,0.5-0.5,0.8c-0.2,0.6-0.1,1.3,0.1,1.9c0.4,1.2,1.2,2.2,2.3,2.8c1.1,0.5,2.3,0.6,3.4,0.3
			c0.5-0.2,1-0.6,1.2-1c0.3-0.5,0.1-1.1-0.4-1.3c-0.4-0.3-1-0.3-1.5-0.1c-0.5,0.2-0.8,0.6-1.1,1c-0.6,0.8-1,1.7-1.4,2.5
			c-0.8,1.7-1.3,3.3-1.6,4.7c-0.4,1.4-0.6,2.7-0.8,3.7c-0.2,1-0.3,1.8-0.4,2.3c0,0.3-0.1,0.5-0.1,0.6
			C319.3,131.6,319.2,131.7,319.2,131.7z"/>
		<path class="st5" d="M323.5,134.6l-12.8-0.1c-0.5,0-1-0.4-1-1l0,0c0-0.5,0.4-1,1-1l12.8,0.1c0.5,0,1,0.4,1,1l0,0
			C324.4,134.2,324,134.6,323.5,134.6z"/>
		<path class="st5" d="M323.5,135.4l-12.8-0.1c-0.5,0-1,0.4-1,1c0,0.5,0.4,1,1,1l1.4,0l1.8,3.6c0.2,0.4,0.6,0.7,1.1,0.7l4.6,0
			c0.5,0,0.9-0.3,1.1-0.7l1.9-3.5l1,0c0.5,0,1-0.4,1-1C324.4,135.9,324,135.4,323.5,135.4z"/>
		<g class="st21">
			<path class="st17" d="M306.3,101.1c1.2-1,2.4-1.8,3.4-2.2c1.1-0.5,2-0.7,2.6-0.7c0.6-0.1,1,0,1,0.1c0.1,0.3-1.2,0.8-3,1.9
				c-1.7,1.1-3.9,3.1-5.3,5.9c-1.3,2.8-1.5,5.8-1.3,7.8c0.2,2.1,0.7,3.4,0.4,3.5c-0.1,0.1-0.4-0.2-0.8-0.7c-0.4-0.5-0.8-1.4-1.1-2.5
				c-0.3-1.1-0.5-2.5-0.4-4.1c0.1-1.6,0.5-3.3,1.2-4.9"/>
		</g>
		<g class="st21">
			<path class="st17" d="M317.5,99c-1.1,0-2-0.3-2.1-0.9c0-0.3,0.2-0.6,0.6-0.8c0.4-0.2,1-0.4,1.6-0.4c0.6,0,1.2,0.2,1.6,0.4
				c0.4,0.2,0.6,0.6,0.5,0.8"/>
		</g>
		<g>
			<path class="st7" d="M320.4,141.2c0,0-0.3-0.1-0.9-0.3c-0.5-0.2-1.3-0.3-2.2-0.3c-0.9,0-1.6,0.2-2.2,0.4
				c-0.5,0.2-0.9,0.3-0.9,0.3c0,0,0.3-0.2,0.8-0.5c0.5-0.2,1.3-0.4,2.2-0.4c0.9,0,1.7,0.2,2.2,0.4
				C320.1,141,320.4,141.2,320.4,141.2z"/>
		</g>
		<g>
			<path class="st7" d="M322.5,137.4c0,0.1-2.3,0.1-5.2,0.1c-2.9,0-5.2-0.1-5.2-0.2c0-0.1,2.3-0.1,5.2-0.1
				C320.2,137.3,322.5,137.3,322.5,137.4z"/>
		</g>
		<g>
			<path class="st7" d="M321.7,138.9c0,0-0.5,0.1-1.3,0.1c-0.8,0-1.9,0.1-3.1,0.1c-1.2,0-2.3,0-3.1-0.1c-0.8,0-1.3-0.1-1.3-0.1
				c0,0,0.5,0,1.3,0c0.8,0,1.9,0,3.1,0c1.2,0,2.2,0,3.1,0C321.2,138.9,321.7,138.9,321.7,138.9z"/>
		</g>
		<path class="st5" d="M346.9,254.7c0,0-0.3-0.3-0.8-0.9c-0.4-0.6-1-1.6-1.3-3c-0.8-2.7-0.7-6.6,0.6-10.6c1.3-4,3.1-7.3,4.1-9.8
			c0.5-1.3,0.9-2.3,1.1-3c0.2-0.7,0.4-1.1,0.4-1.1c0,0,0,0.4-0.2,1.2c-0.2,0.7-0.5,1.8-1,3.1c-0.9,2.6-2.6,6-3.9,9.9
			c-1.3,3.9-1.4,7.7-0.8,10.3C345.8,253.3,347,254.6,346.9,254.7z"/>
		<path class="st5" d="M415.9,228.9c0,0,0.1,0.2,0.1,0.5c0.1,0.4,0.2,0.9,0.3,1.5c0.3,1.4,0.6,3.2,1,5.5c0.8,4.7,1.9,11.1,3.1,18.2
			c1.2,7.1,2.1,13.6,2.8,18.3c0.3,2.3,0.6,4.2,0.7,5.6c0.1,0.6,0.1,1.1,0.1,1.5c0,0.3,0,0.5,0,0.5c0,0-0.1-0.2-0.1-0.5
			c-0.1-0.4-0.1-0.9-0.2-1.5c-0.2-1.4-0.5-3.3-0.9-5.5c-0.8-4.7-1.8-11.2-2.9-18.2c-1.1-7.1-2.2-13.5-2.9-18.2
			c-0.4-2.3-0.6-4.2-0.9-5.5c-0.1-0.6-0.2-1.1-0.2-1.5C415.9,229.1,415.9,228.9,415.9,228.9z"/>
		<path class="st5" d="M331.3,255.7c-0.1,0,0-1.1,0.2-2.8c0.1-1.7,0.3-4.1,0.4-6.7c0.1-2.6,0-5,0-6.7c-0.1-1.7-0.1-2.8,0-2.8
			c0.1,0,0.2,1,0.4,2.8c0.2,1.7,0.3,4.1,0.2,6.7c-0.1,2.6-0.3,5-0.5,6.7C331.6,254.6,331.4,255.7,331.3,255.7z"/>
		<path class="st5" d="M432.9,287.1c-0.1,0-0.2-0.7-0.7-1.6c-0.5-1-1.3-2.2-2.6-3.2c-1.3-1-2.8-1.4-3.9-1.6
			c-1.1-0.2-1.8-0.1-1.8-0.2c0-0.1,0.7-0.2,1.8-0.2c1.1,0.1,2.7,0.5,4.1,1.5c1.4,1,2.3,2.4,2.7,3.5C433,286.4,433,287.1,432.9,287.1
			z"/>
		<path class="st5" d="M427.4,290.1c-0.1,0.1-0.9-1.7-2.6-3.3c-1.7-1.6-3.5-2.2-3.5-2.3c0-0.1,2,0.3,3.8,1.9
			C427,288.1,427.6,290.1,427.4,290.1z"/>
		<path class="st5" d="M409,290.1c-0.1-0.1,2.8-1.3,6.2-2.8c3.5-1.5,6.2-2.8,6.3-2.7c0.1,0.1-2.6,1.7-6.1,3.2
			C412,289.3,409.1,290.2,409,290.1z"/>
		<path class="st18" d="M311.8,248c0,0,14.4,68.4,14.4,67.5c0-0.8,72.5,3.1,85.4,3.7l2.7-0.7l20.5-18.8l-23.5-1.9l-8.4-48.1
			L311.8,248z"/>
		<g>
			<path class="st7" d="M402.8,249.6c0.1,0,2.8,15.4,6,34.4c3.2,19,5.6,34.4,5.5,34.5c-0.1,0-2.8-15.4-6-34.4
				C405.1,265.1,402.6,249.6,402.8,249.6z"/>
		</g>
		<g>
			<path class="st7" d="M403,249.7c0,0-0.2,0.2-0.5,0.5c-0.3,0.3-0.9,0.7-1.5,1.4c-0.3,0.3-0.6,0.8-0.4,1.3c0.1,0.6,0.2,1.1,0.3,1.8
				c0.2,1.3,0.5,2.7,0.8,4.3c1.1,6.4,2.6,15.2,4.2,24.9c1.6,9.7,3,18.5,4.1,24.9c0.5,3.2,0.9,5.7,1.2,7.6c0.1,0.9,0.2,1.5,0.3,2.1
				c0.1,0.5,0.1,0.7,0.1,0.7c0,0-0.1-0.2-0.2-0.7c-0.1-0.5-0.2-1.2-0.4-2c-0.3-1.8-0.8-4.4-1.3-7.5c-1.1-6.4-2.6-15.2-4.2-24.9
				c-1.6-9.7-3-18.5-4.1-24.9c-0.3-1.6-0.5-3-0.7-4.3c-0.1-0.6-0.2-1.2-0.3-1.8c-0.2-0.6,0.2-1.1,0.5-1.5c0.6-0.7,1.2-1.1,1.6-1.4
				C402.8,249.8,403,249.6,403,249.7z"/>
		</g>
		<g>
			<path class="st7" d="M400.4,252.2c0,0-0.3,0-0.9,0c-0.6,0-1.5,0-2.6,0c-2.3,0-5.5-0.1-9.4-0.1c-8-0.1-18.9-0.3-31.1-0.5
				c-12.1-0.2-23.1-0.4-31.1-0.5c-3.9-0.1-7.1-0.1-9.4-0.1c-1.1,0-1.9,0-2.6-0.1c-0.6,0-0.9,0-0.9-0.1c0,0,0.3,0,0.9-0.1
				c0.6,0,1.5,0,2.6,0c2.2,0,5.4,0,9.4,0c8,0,18.9,0.1,31.1,0.4c12.1,0.2,23.1,0.5,31.1,0.7c3.9,0.1,7.1,0.2,9.4,0.3
				c1.1,0,1.9,0.1,2.6,0.1C400.1,252.1,400.4,252.1,400.4,252.2z"/>
		</g>
		<g>
			<path class="st7" d="M411.1,299.7c0,0,0.5,0,1.4,0c1,0,2.3,0.1,3.8,0.2c3.2,0.2,7.7,0.4,12.7,0.7l0.6,0l-0.5,0.4
				c-0.3,0.2-0.6,0.5-0.9,0.8c-4,3.4-7.7,6.5-10.3,8.7c-1.3,1-2.3,1.9-3.2,2.6c-0.8,0.6-1.2,0.9-1.2,0.9c0,0,0.4-0.4,1.1-1
				c0.8-0.7,1.8-1.6,3.1-2.7c2.6-2.3,6.2-5.4,10.2-8.8c0.3-0.3,0.6-0.5,0.9-0.8l0.2,0.5c-5-0.3-9.4-0.6-12.7-0.9
				c-1.5-0.1-2.8-0.2-3.8-0.3C411.6,299.8,411.1,299.7,411.1,299.7z"/>
		</g>
		<path class="st19" d="M348.1,317.6L348.1,317.6l-0.9-11.1c0,0,3.7-0.5,4,3.6v-6.9c0,0,4.2-0.9,5.2,4.6c0.9,5.6,2.3,8.6,2.3,8.6
			l2.3,1.2l-2.1-12.9c0,0,4.5,0.4,5.3,4.6c0.8,4.2,2,7.2,2,7.2l7.1,2c0,0-4.1-3.6-3.7-4.8c0.4-1.2,0.1-1.1,0.9-1.3
			c0.8-0.2,2.6,0.4,3.8,1c1.3,0.7,8.8,5.1,8.8,5.1v5.5c0,0-17.5,1.3-21.4,0.5l-7.6-1.8C351.2,322.2,349,320.2,348.1,317.6z"/>
		<path class="st12" d="M364.8,281c0.5,2.9-1.2,5.7-3.9,6.1c-2.6,0.4-5.1-1.6-5.6-4.5c-0.5-2.9,1.2-5.7,3.9-6.1
			C361.7,276,364.3,278,364.8,281z"/>
		<path d="M424,280.2c3-0.9,6.3-1,9.1,0.3c2.8,1.3,5.1,3.9,5.5,7c0.1,0.7,0.1,1.5-0.2,2.1c-0.2,0.7-0.8,1.3-1.5,1.5
			c-1.1,0.3-2.3-0.4-2.9-1.4c-0.6-1-0.9-2.1-1.3-3.2c-1.4-3.6-5.2-6.2-9-6.3c0.2,0,0.3,0.1,0.5,0.1"/>
		<path class="st19" d="M374.4,194.2c0.5-1.9,0-3.9-0.2-5.8c-0.3-1.9-0.3-4.2,0.8-5.6c1.1-1.5,2.9-1.6,4.6-1.7
			c6.8-0.4,13.5-0.7,20.3-1.1c1.4-0.1,3,0,3.9,1.3c0.5,0.8,0.9,2,0.7,3c-1,4.6-0.7,8.5,0.8,11.7"/>
		<g>
			<path class="st5" d="M404.7,189.3c0,0-0.4,0.3-1.1,0.9c-0.7,0.5-1.8,1.3-3.2,2c-2.8,1.5-7,3.2-11.9,3.6c-2.4,0.2-4.8,0.2-6.9-0.1
				c-2.1-0.3-3.9-0.9-5.3-1.7c-1.4-0.8-2.4-1.7-2.9-2.4c-0.3-0.3-0.5-0.6-0.6-0.8c-0.1-0.2-0.2-0.3-0.2-0.3c0.1-0.1,1,1.8,3.9,3.2
				c1.4,0.7,3.2,1.3,5.2,1.6c2.1,0.3,4.4,0.3,6.7,0.1c4.8-0.4,8.9-2,11.7-3.4C403.1,190.4,404.7,189.2,404.7,189.3z"/>
		</g>
		<path class="st7" d="M278.6,328.5c0,5.1,3,103.8,3,103.8l-42-0.2l-7.3-43.9l-1.9,43.9h-40.3l4.4-108.3L278.6,328.5z"/>
		<path class="st14" d="M154.8,287.6l-21.5-32l15.9-12.9l26.9,25c0,0,11.6-65,23-68.9l-0.9,100.8l0,0
			C182.8,306.9,164.3,301.8,154.8,287.6z"/>
		<polygon class="st18" points="110.8,136.9 115.4,199.2 190.2,342.5 233.4,317.5 159.7,177.4 		"/>
		<g class="st28">
			<path class="st14" d="M160.4,177.7c-1.2,2.2-4.5,2.8-6.4,1.3c1.1,4.5-0.9,9.6-4.8,12c-3.9,2.5-9.4,2.2-12.9-0.7
				c-0.6,4.5-3.8,8.6-8,10.3c-4.2,1.7-9.4,1-12.9-1.9l-4.5-61.8L160.4,177.7z"/>
		</g>
		<path class="st18" d="M112.6,162c0,0,10.1,6.4,18.2-8.5l-20-16.6L112.6,162z"/>
		<path class="st17" d="M206.6,330.8c-0.1,0.1-16-31.3-35.5-70.1c-19.5-38.8-35.2-70.2-35-70.3c0.1-0.1,16,31.3,35.5,70.1
			C191.1,299.3,206.8,330.8,206.6,330.8z"/>
		<path class="st17" d="M224.6,320.1c-0.1,0.1-16-31.3-35.5-70.1c-19.5-38.8-35.2-70.2-35-70.3c0.1-0.1,16,31.3,35.5,70.1
			C209,288.5,224.7,320,224.6,320.1z"/>
		<g>
			<g>
				<path class="st19" d="M136.7,220.4l-9.7,3.9l-2.1,7.8l3.3,13l7.8,8.3l5.3-4.4l0.3-8l0.6-4.5c0,0,4.8-1.5,4.9-2.2
					c0.1-0.7-0.6-3.2-1.3-3.3c-0.7-0.1-5.7,1.7-5.7,1.7s5.9-4.7,5.8-5.5c-0.2-0.8-0.8-2.7-2-2.9c-1.2-0.2-10.8,4.3-10.8,4.3
					l-1.6,3.5l-1.4-5.7C130.3,226.6,138.8,224.2,136.7,220.4z"/>
			</g>
		</g>
		<g>
			<g>
				<g>
					<path class="st24" d="M137.9,238.7c-0.1,0-0.2-0.3-0.3-1c-0.1-0.6,0-1.5,0.3-2.4c0.3-0.9,0.9-1.6,1.4-2
						c0.5-0.4,0.8-0.6,0.9-0.5c0.1,0.1-1.2,1-1.8,2.7C137.7,237.1,138.1,238.7,137.9,238.7z"/>
				</g>
			</g>
		</g>
		<g>
			<g>
				<g>
					<path class="st24" d="M133.3,237c-0.1,0,0.3-0.9,0.4-2.5c0.1-0.8,0.1-1.8,0.5-2.8c0.2-0.5,0.5-1.1,0.9-1.5c0.4-0.5,1-0.8,1.6-1
						c2.3-0.8,4.4-1.5,5.9-2c1.5-0.5,2.5-0.8,2.5-0.7c0,0.1-0.9,0.5-2.4,1c-1.5,0.6-3.6,1.3-5.9,2.1c-0.6,0.2-1.1,0.5-1.4,0.9
						c-0.4,0.4-0.6,0.8-0.8,1.3c-0.4,1-0.4,1.9-0.6,2.7C133.8,236.1,133.4,237,133.3,237z"/>
				</g>
			</g>
		</g>
		<g>
			<g>
				<g>
					<path class="st24" d="M131.1,235.2c-0.1,0-0.1-0.9,0.1-1.9c0.2-1,0.4-1.9,0.6-1.8c0.1,0,0.1,0.9-0.1,1.9
						C131.5,234.4,131.2,235.3,131.1,235.2z"/>
				</g>
			</g>
		</g>
		<path class="st14" d="M262.2,180.1l-8.5-2.9l-31.8,7.3l-2.8,2.3l-16.8,155.7c7.2,7.4,30,8.9,42.9,6.7L262.2,180.1z"/>
		<path class="st14" d="M262.8,180.4l-4.1-2c0,0-9,39.6-9,65.8s-5.7,121.1-5.7,121.1l42.9-1.1V259.3L262.8,180.4z"/>
		<path class="st14" d="M202.3,366.9l-16.2-4.8l5.7-76.7l-1.1-55.6l8.5-31l20.2-12.5C219.3,186.3,203.4,357.6,202.3,366.9z"/>
		<g>
			<path class="st19" d="M236.2,199.2L236.2,199.2c-8.1-0.7-14.3-7.5-14.3-15.6l0.1-13.9c0,0-12.9-2-13-14.9
				c-0.2-12.9,2.1-42.4,2.1-42.4l0,0c14.9-6.4,32.1-4.2,44.9,5.6l1.9,1.5l-4.7,65.2C252.5,193.5,244.9,200,236.2,199.2z"/>
		</g>
		<g>
			<path class="st24" d="M221.9,169.5c0,0,8.1,0.7,16.8-4.8c0,0-4,9.3-16.8,8.1L221.9,169.5z"/>
		</g>
		<g>
			<g>
				<path class="st19" d="M256.2,132.8c0.2-0.1,8.8-2.6,8.6,6.2c-0.3,8.8-9.1,6.7-9.1,6.4C255.7,145.2,256.2,132.8,256.2,132.8z"/>
			</g>
		</g>
		<g>
			<g>
				<g>
					<path class="st24" d="M258.5,142.2c0,0,0.1,0.1,0.4,0.2c0.2,0.1,0.7,0.2,1.1,0.1c0.9-0.3,1.8-1.8,1.9-3.3
						c0-0.8-0.1-1.6-0.4-2.2c-0.2-0.7-0.6-1.1-1.1-1.2c-0.5-0.1-0.8,0.1-0.9,0.4c-0.1,0.2-0.1,0.4-0.1,0.4c0,0-0.2-0.2-0.1-0.5
						c0-0.2,0.2-0.4,0.4-0.5c0.2-0.2,0.5-0.2,0.9-0.2c0.7,0.1,1.3,0.7,1.6,1.4c0.3,0.7,0.5,1.6,0.5,2.5c-0.1,1.8-1.1,3.4-2.4,3.7
						c-0.6,0.1-1.1-0.1-1.4-0.3C258.5,142.4,258.5,142.2,258.5,142.2z"/>
				</g>
			</g>
		</g>
		<path class="st5" d="M204.7,104.3c-0.1-1.6,0.5-3.3,1.8-4.2c1.3-0.9,3.3-0.9,4.4,0.3c-0.6-2.1,1.2-4.6,3.4-4.8
			c2.1-0.1,3.9,1.5,5.9,2c2,0.5,4.1,0.1,6-0.7c1.9-0.8,3.7-1.8,5.6-2.5c4-1.5,8.6-1.3,12.5,0.5c3.9,1.8,7,5.2,8.5,9.2
			c2.8-0.9,6,0.5,7.7,2.9c1.7,2.4,2.2,5.5,1.8,8.4c-0.2,2-0.8,3.9-1.5,5.8c0,0.2,0,0.3,0,0.5c-0.1,7.1-0.9,15.4-4,15.4
			c-5.3,0.1-4-9.8-4-9.8c-6.5-2.5-4.1-12.2-5.7-13.6c-1.6-1.5-5-4.9-18.5,2c-5.2,2.7-12.2,2.6-16,1.7c-0.1,0-0.2,0-0.3-0.1
			c0,0-0.1,0-0.1,0c0,0-0.1,0-0.1,0c-1.2-0.3-2.4-0.8-3.5-1.5c-1.2-0.8-2.3-1.8-2.9-3.2c-0.5-1.4-0.3-3,0.7-4
			C205.7,107.4,204.9,105.9,204.7,104.3z"/>
		<g>
			<path class="st7" d="M247.7,112.4c0,0,0.1-0.6,0-1.6c-0.1-1-0.7-2.4-2-3.6c-1.3-1.2-3.4-2-5.8-1.9c-2.4,0-4.9,0.8-7.5,1.7
				c-1.3,0.4-2.6,0.8-3.9,1.1c-1.3,0.3-2.6,0.4-3.8,0.5c-2.4,0.1-4.6-0.3-6.3-0.8c-1.7-0.5-3.1-1.2-4-1.7c-0.4-0.2-0.8-0.5-1-0.6
				c-0.2-0.2-0.3-0.2-0.3-0.2c0,0,0.5,0.3,1.4,0.7c0.9,0.5,2.2,1.1,4,1.6c1.7,0.5,3.9,0.8,6.3,0.7c1.2,0,2.4-0.2,3.7-0.5
				c1.3-0.3,2.5-0.7,3.9-1.1c2.6-0.9,5.2-1.7,7.6-1.7c2.4,0,4.7,0.8,6,2.1c1.4,1.3,1.9,2.8,2,3.8C248,111.9,247.7,112.4,247.7,112.4
				z"/>
		</g>
		<g>
			<path class="st7" d="M257.7,134.2c0,0-0.1-0.1-0.2-0.3c-0.1-0.2-0.2-0.5-0.4-0.8c-0.3-0.7-0.7-1.8-1-3.2c-0.3-1.4-0.5-3.1-0.3-5
				c0.1-1.9,0.7-3.9,1.1-6c0.5-2.1,0.6-4.2,0-5.9c-0.3-0.9-0.7-1.6-1.2-2.2c-0.5-0.6-1.2-1-1.8-1.2c-1.3-0.5-2.5-0.3-3.2,0.1
				c-0.7,0.4-1,0.7-1,0.7c0,0,0.2-0.4,0.9-0.8c0.7-0.4,1.9-0.7,3.3-0.2c0.7,0.2,1.4,0.6,2,1.3c0.6,0.6,1,1.4,1.3,2.3
				c0.6,1.8,0.5,4,0,6.1c-0.4,2.1-1,4.1-1.2,5.9c-0.2,1.8,0,3.5,0.2,4.9c0.3,1.4,0.6,2.5,0.9,3.2
				C257.6,133.8,257.8,134.2,257.7,134.2z"/>
		</g>
		<g>
			<path class="st7" d="M249,111.4c0,0,0-0.2,0-0.5c0-0.4,0-0.9,0.1-1.5c0-1.3,0.1-3.2-0.6-5.3c-0.3-1.1-0.9-2.2-1.7-3.2
				c-0.8-1-2-1.9-3.4-2.3c-1.4-0.4-3-0.3-4.6,0.2c-1.6,0.4-3.1,1.2-4.6,2.1c-1.5,0.9-3,1.7-4.6,2.3c-1.6,0.6-3.2,0.9-4.7,0.9
				c-1.5,0-3-0.2-4.3-0.5c-1.3-0.4-2.5-0.9-3.5-1.4c-2-1.2-3.3-2.5-4.1-3.5c-0.4-0.5-0.7-0.9-0.8-1.2c-0.2-0.3-0.3-0.4-0.2-0.5
				c0,0,0.1,0.1,0.3,0.4c0.2,0.3,0.5,0.7,0.9,1.2c0.8,1,2.2,2.3,4.2,3.4c1,0.5,2.2,1,3.4,1.4c1.3,0.3,2.7,0.5,4.2,0.5
				c1.5,0,3.1-0.4,4.6-0.9c1.5-0.6,3-1.5,4.5-2.3c1.5-0.9,3.1-1.7,4.7-2.1c1.6-0.4,3.3-0.6,4.8-0.2c1.5,0.4,2.7,1.4,3.6,2.4
				c0.9,1.1,1.4,2.3,1.7,3.4c0.6,2.2,0.5,4.1,0.5,5.4c0,0.6-0.1,1.1-0.1,1.5C249,111.2,249,111.4,249,111.4z"/>
		</g>
		<path class="st7" d="M303.9,302.7c0,0-0.5,0.1-1.5,0.3c-1.1,0.2-2.5,0.4-4.2,0.7c-3.6,0.6-8.5,1.4-14,2.2c-5.5,0.8-10.4,1.5-14,2
			c-3.6,0.5-5.8,0.7-5.8,0.6c0.4-0.1,0.9-0.1,1.5-0.3c1.1-0.2,2.5-0.4,4.2-0.7c3.7-0.6,8.6-1.3,14-2.2c5.5-0.8,10.4-1.5,14-2
			c1.7-0.2,3.2-0.4,4.2-0.6C303.3,302.7,303.9,302.7,303.9,302.7z"/>
		<path class="st7" d="M320.5,298.8c0,0.1-1.2,0.1-3.1,0s-4.5-0.2-7.4-0.4c-1.4-0.1-2.8-0.2-4,0c-1.2,0.3-2.1,0.9-2.6,1.7
			c-0.5,0.8-0.5,1.6-0.4,2c0.1,0.5,0.3,0.7,0.3,0.8c0,0-0.3-0.2-0.5-0.7c-0.2-0.5-0.2-1.4,0.2-2.3c0.5-0.9,1.5-1.6,2.8-1.9
			c1.3-0.3,2.7-0.2,4.1-0.1c2.9,0.2,5.5,0.4,7.4,0.6C319.3,298.6,320.5,298.7,320.5,298.8z"/>
		<path class="st7" d="M314.1,306c0,0.1-2.5-0.5-5.6-1.4c-3-0.9-5.5-1.7-5.4-1.9c0-0.1,2.5,0.5,5.6,1.4
			C311.7,305,314.1,305.8,314.1,306z"/>
		<path class="st7" d="M289.8,254.8c0.1,0,3.3,9.9,7,22.2c3.7,12.3,6.7,22.3,6.5,22.4c-0.1,0-3.3-9.9-7-22.2
			C292.6,264.9,289.7,254.9,289.8,254.8z"/>
		<path class="st7" d="M312.7,223.4c0,0.1-1.8,0.4-4.5,1.4c-2.7,1-6.3,3-9.5,6.2c-3.1,3.2-5.1,6.8-6.1,9.5c-1,2.7-1.3,4.6-1.4,4.5
			c0,0,0-0.5,0.1-1.3c0.1-0.8,0.4-2,0.9-3.4c0.9-2.8,2.9-6.5,6.1-9.8c3.2-3.2,6.9-5.2,9.7-6.2c1.4-0.5,2.6-0.8,3.4-0.9
			C312.3,223.4,312.7,223.3,312.7,223.4z"/>
		<path class="st7" d="M191,217.6c0,0,0,0.2,0.1,0.7c0,0.5,0,1.2,0.1,2c0,1.8,0.1,4.3,0.1,7.3c0.1,6.2,0.2,14.8,0.3,24.2
			c0.1,9.4,0.1,18,0.1,24.2c0,3.1,0,5.5,0,7.3c0,0.8,0,1.5,0,2c0,0.5,0,0.7,0,0.7c0,0,0-0.2-0.1-0.7c0-0.5,0-1.2-0.1-2
			c0-1.8-0.1-4.3-0.1-7.3c-0.1-6.2-0.2-14.8-0.3-24.2c-0.1-9.4-0.1-17.9-0.1-24.2c0-3.1,0-5.5,0-7.3c0-0.8,0-1.5,0-2
			C191,217.8,191,217.6,191,217.6z"/>
		<path class="st5" d="M239.4,430.8c0,0-0.1-0.3-0.2-0.7c-0.1-0.5-0.3-1.3-0.5-2.2c-0.4-1.9-1-4.6-1.7-8c-1.4-6.8-3.1-16.2-4.8-26.6
			c-1.7-10.4-2.9-19.9-3.7-26.8c-0.4-3.4-0.7-6.2-0.9-8.1c-0.1-0.9-0.2-1.7-0.2-2.2c0-0.5-0.1-0.8,0-0.8c0,0,0.1,0.3,0.1,0.8
			c0.1,0.6,0.2,1.3,0.3,2.2c0.3,2,0.6,4.7,1.1,8.1c0.9,6.9,2.2,16.3,3.9,26.7c1.7,10.4,3.4,19.8,4.6,26.6c0.6,3.4,1.1,6.1,1.5,8
			c0.2,0.9,0.3,1.6,0.4,2.2C239.4,430.5,239.4,430.8,239.4,430.8z"/>
		<path class="st7" d="M315.3,332c0,0.1-11.3,1-25.2,1.9c-13.9,0.9-25.2,1.5-25.2,1.4c0-0.1,11.3-1,25.2-1.9
			C304,332.5,315.3,331.8,315.3,332z"/>
		<g>
			<path class="st14" d="M621.1,404.7c-7.8-4.5-12-15.1-12.4-23.8c-0.3-8.7,3.3-17.7,10.4-22.7c7.5-5.2,18.1-5.1,25.8-0.2
				c7.7,4.9,12.2,14.2,11.8,23.3c-0.3,9.1-5.3,17.8-12.7,23.2"/>
		</g>
		<g>
			<g>
				<path class="st17" d="M633.6,405.5c-0.1,0-0.1-0.7-0.1-2c0-1.4-0.1-3.2-0.2-5.4c-0.1-4.6-0.3-10.9-0.6-17.8
					c-0.3-7-0.7-13.2-1-17.8c-0.1-2.2-0.2-4-0.3-5.4c-0.1-1.3-0.1-2,0-2c0.1,0,0.2,0.7,0.3,2c0.2,1.3,0.3,3.1,0.6,5.4
					c0.4,4.5,0.9,10.8,1.2,17.8c0.3,7,0.4,13.3,0.4,17.8c0,2.3,0,4.1-0.1,5.4C633.7,404.8,633.6,405.5,633.6,405.5z"/>
			</g>
		</g>
		<g>
			<g>
				<path class="st5" d="M611,379c0,0.2-1.3,0.3-2.8,0.1c-1.5-0.1-2.8-0.4-2.7-0.6c0-0.2,1.3-0.3,2.8-0.1
					C609.8,378.5,611,378.8,611,379z"/>
			</g>
		</g>
		<g>
			<g>
				<path class="st5" d="M611.4,371.2c-0.1,0.2-1.2-0.1-2.4-0.7c-1.2-0.6-2.2-1.2-2.1-1.3c0.1-0.2,1.2,0.1,2.4,0.7
					C610.6,370.4,611.5,371,611.4,371.2z"/>
			</g>
		</g>
		<g>
			<g>
				<path class="st5" d="M615.4,365.4c-0.1,0.2-1.3-0.4-2.6-1.4c-1.3-1-2.1-2.1-1.9-2.3c0.2-0.1,1.2,0.7,2.4,1.7
					C614.6,364.4,615.6,365.2,615.4,365.4z"/>
			</g>
		</g>
		<g>
			<g>
				<path class="st5" d="M619.5,360c-0.2,0.1-0.8-0.8-1.3-2c-0.5-1.2-0.8-2.2-0.6-2.3c0.2-0.1,0.8,0.8,1.3,2
					C619.4,358.9,619.7,359.9,619.5,360z"/>
			</g>
		</g>
		<g>
			<g>
				<path class="st5" d="M625.8,356.1c-0.2,0.1-0.8-0.9-1.2-2.2c-0.4-1.3-0.5-2.5-0.3-2.5c0.2,0,0.6,1,1,2.3
					C625.7,355,626,356,625.8,356.1z"/>
			</g>
		</g>
		<g>
			<g>
				<path class="st5" d="M636.3,351.8c0.2,0.1,0.1,0.9-0.3,1.8c-0.3,1-0.8,1.7-1,1.6c-0.2-0.1-0.1-0.9,0.3-1.8
					C635.7,352.4,636.1,351.7,636.3,351.8z"/>
			</g>
		</g>
		<g>
			<g>
				<path class="st5" d="M644.1,355.1c0.1,0.1-0.4,0.8-1.1,1.5c-0.8,0.7-1.5,1.1-1.6,1c-0.1-0.1,0.4-0.8,1.1-1.5
					C643.2,355.4,644,355,644.1,355.1z"/>
			</g>
		</g>
		<g>
			<g>
				<path class="st5" d="M651,359.6c0.1,0.2-0.5,0.8-1.4,1.4c-0.9,0.6-1.7,0.9-1.8,0.8c-0.1-0.2,0.5-0.8,1.4-1.4
					C650.1,359.7,650.9,359.4,651,359.6z"/>
			</g>
		</g>
		<g>
			<g>
				<path class="st5" d="M655.9,366.2c0.1,0.2-0.9,0.8-2.1,1.3c-1.3,0.5-2.4,0.8-2.4,0.6c-0.1-0.2,0.9-0.8,2.1-1.3
					C654.7,366.3,655.8,366,655.9,366.2z"/>
			</g>
		</g>
		<g>
			<g>
				<path class="st5" d="M657.8,373.4c0,0.2-1,0.5-2.2,0.6c-1.2,0.2-2.3,0.1-2.3-0.1c0-0.2,1-0.5,2.2-0.6
					C656.7,373.2,657.8,373.2,657.8,373.4z"/>
			</g>
		</g>
		<g>
			<g>
				<path class="st5" d="M658.8,382.3c-0.1,0.2-1.1-0.1-2.3-0.6c-1.2-0.5-2.1-1.1-2-1.3c0.1-0.2,1.1,0.1,2.3,0.6
					C658,381.5,658.9,382.1,658.8,382.3z"/>
			</g>
		</g>
		<g>
			<g>
				<path class="st5" d="M657.9,389.9c-0.1,0.2-1.4-0.1-2.8-1c-1.4-0.9-2.2-2-2.1-2.1c0.1-0.1,1.2,0.7,2.5,1.5
					C656.8,389.1,658,389.7,657.9,389.9z"/>
			</g>
		</g>
		<g>
			<g>
				<path class="st5" d="M653.9,396.8c-0.1,0.2-1.2-0.5-2.2-1.5c-1-1.1-1.5-2.2-1.4-2.3c0.2-0.1,1,0.7,1.9,1.8
					C653.3,395.8,654.1,396.7,653.9,396.8z"/>
			</g>
		</g>
		<g>
			<g>
				<path class="st5" d="M616.2,397.7c0.1,0.2-1,0.9-2.5,1.7c-1.5,0.8-2.7,1.2-2.8,1c-0.1-0.2,1-0.9,2.5-1.7
					C614.9,397.9,616.1,397.5,616.2,397.7z"/>
			</g>
		</g>
		<g>
			<g>
				<path class="st5" d="M612.8,391.4c0.1,0.2-0.8,0.8-2,1.3c-1.2,0.5-2.2,0.8-2.3,0.6c-0.1-0.2,0.8-0.8,2-1.3
					C611.7,391.5,612.7,391.2,612.8,391.4z"/>
			</g>
		</g>
		<g>
			<g>
				<path class="st5" d="M610.3,385.8c0,0.2-1.1,0.5-2.4,0.7c-1.4,0.2-2.5,0.2-2.5,0c0-0.2,1.1-0.5,2.4-0.7
					C609.1,385.6,610.2,385.6,610.3,385.8z"/>
			</g>
		</g>
		<g>
			<g>
				<path class="st5" d="M618.6,382.8c0.1,0.2-1,0.7-2.4,0.8c-1.4,0.2-2.6-0.1-2.5-0.3c0-0.2,1.1-0.3,2.5-0.4
					C617.4,382.7,618.5,382.6,618.6,382.8z"/>
			</g>
		</g>
		<g>
			<g>
				<path class="st5" d="M625.5,375.9c0.1,0.2-0.8,0.6-1.9,0.7c-1.1,0.1-2.1-0.1-2-0.3c0-0.2,0.9-0.3,2-0.4
					C624.5,375.8,625.4,375.7,625.5,375.9z"/>
			</g>
		</g>
		<g>
			<g>
				<path class="st5" d="M626.8,370.4c-0.1,0.2-1,0-2-0.3c-1.1-0.4-1.9-0.8-1.8-1c0.1-0.2,1,0,2,0.3
					C626,369.7,626.8,370.2,626.8,370.4z"/>
			</g>
		</g>
		<g>
			<g>
				<path class="st5" d="M629.3,364.8c-0.1,0.1-0.8-0.3-1.2-1.1c-0.5-0.8-0.5-1.5-0.3-1.6c0.2-0.1,0.5,0.5,0.9,1.2
					C629.1,364.1,629.5,364.7,629.3,364.8z"/>
			</g>
		</g>
		<g>
			<g>
				<path class="st5" d="M626.3,387.6c0,0.2-0.7,0.6-1.8,0.8c-0.6,0.1-1.1,0.2-1.5,0.2l-0.1-0.4c0.3,0,0.4,0,0.5,0
					c0,0.1-0.1,0.2-0.3,0.4l-0.1-0.4c0.3-0.2,0.8-0.3,1.4-0.5C625.3,387.4,626.2,387.4,626.3,387.6z"/>
			</g>
		</g>
		<g>
			<g>
				<path class="st5" d="M627.7,397.3c0.1,0.2-0.9,0.8-2.3,1.3c-1.3,0.5-2.5,0.8-2.5,0.6c-0.1-0.2,0.9-0.8,2.3-1.3
					C626.5,397.4,627.6,397.2,627.7,397.3z"/>
			</g>
		</g>
		<g>
			<g>
				<path class="st5" d="M619.9,393c0.1,0.2-0.6,0.6-1.5,0.9c-0.9,0.3-1.7,0.4-1.7,0.2c-0.1-0.2,0.6-0.6,1.5-0.9
					C619,392.9,619.8,392.8,619.9,393z"/>
			</g>
		</g>
		<g>
			<g>
				<path class="st5" d="M620.5,373.2c0,0.2-1.2,0.1-2.6-0.4c-1.4-0.5-2.3-1.1-2.3-1.3c0.1-0.2,1.2,0.1,2.5,0.6
					C619.5,372.5,620.5,373,620.5,373.2z"/>
			</g>
		</g>
		<g>
			<g>
				<path class="st5" d="M639.3,371c0.1,0.2-0.5,0.8-1.5,1.4c-0.9,0.6-1.8,1-1.9,0.8c-0.1-0.2,0.5-0.8,1.5-1.4
					C638.4,371.2,639.2,370.8,639.3,371z"/>
			</g>
		</g>
		<g>
			<g>
				<path class="st5" d="M640.4,380.8c0,0.2-0.7,0.5-1.5,0.7c-0.9,0.2-1.7,0.2-1.7,0c0-0.2,0.7-0.5,1.5-0.7
					C639.6,380.6,640.3,380.6,640.4,380.8z"/>
			</g>
		</g>
		<g>
			<g>
				<path class="st5" d="M641.6,391.8c-0.1,0.2-1.1-0.1-2.2-0.6c-1.1-0.5-2-1.1-1.9-1.3c0.1-0.2,1.1,0.1,2.2,0.6
					C640.8,391,641.6,391.6,641.6,391.8z"/>
			</g>
		</g>
		<g>
			<g>
				<path class="st5" d="M639,402.5c-0.2,0.1-0.8-0.4-1.4-1.2c-0.6-0.8-1-1.5-0.9-1.7c0.2-0.1,0.8,0.4,1.4,1.2
					C638.8,401.7,639.2,402.4,639,402.5z"/>
			</g>
		</g>
		<g>
			<g>
				<path class="st5" d="M638.5,363.8c0.1,0.2-0.3,0.7-1,1.1c-0.7,0.4-1.4,0.4-1.5,0.2c-0.1-0.2,0.5-0.5,1.1-0.9
					C637.8,363.9,638.4,363.6,638.5,363.8z"/>
			</g>
		</g>
		<g>
			<g>
				<path class="st5" d="M647.8,373.7c0.1,0.2-0.8,0.7-2,0.8c-1.2,0.2-2.1-0.1-2.1-0.3c0-0.2,0.9-0.3,2-0.5
					C646.8,373.6,647.7,373.5,647.8,373.7z"/>
			</g>
		</g>
		<g>
			<g>
				<path class="st5" d="M645.9,364.8c0.1,0.2-0.8,0.8-2,1.2c-1.2,0.4-2.2,0.4-2.3,0.2c0-0.2,0.9-0.5,2.1-0.9
					C644.9,364.9,645.8,364.6,645.9,364.8z"/>
			</g>
		</g>
		<g>
			<g>
				<path class="st5" d="M649.8,387.4c0,0.2-1.5,0.3-3.2,0c-1.8-0.3-3.1-0.9-3-1.1c0.1-0.2,1.4,0.1,3.1,0.4
					C648.4,387,649.8,387.2,649.8,387.4z"/>
			</g>
		</g>
		<g>
			<g>
				<path class="st5" d="M646.3,400.3c-0.1,0.2-1.2-0.5-2.3-1.5c-1.1-1.1-1.7-2.1-1.5-2.3c0.2-0.1,1,0.7,2.1,1.7
					C645.6,399.3,646.5,400.1,646.3,400.3z"/>
			</g>
		</g>
		<g>
			<g>
				<path class="st17" d="M631.2,354.3c0.1,0.2-2.9,1.4-6.4,5.1c-3.5,3.6-7.1,10-8,17.7c-0.4,3.8-0.1,7.6,0.5,10.9
					c0.6,3.3,1.3,6.3,2,8.7c0.7,2.5,1.4,4.4,1.8,5.8c0.4,1.4,0.7,2.1,0.6,2.1c0,0-0.4-0.7-0.9-2c-0.5-1.3-1.2-3.3-2-5.7
					c-0.8-2.4-1.6-5.4-2.2-8.8c-0.6-3.3-1-7.1-0.5-11.1c0.9-7.9,4.7-14.4,8.4-18c1.8-1.8,3.6-3.1,4.8-3.8c0.6-0.4,1.1-0.6,1.5-0.8
					C631.1,354.4,631.2,354.3,631.2,354.3z"/>
			</g>
		</g>
		<g>
			<g>
				<path class="st17" d="M641.3,405.2c-0.2-0.1,1.7-2.9,3.3-7.9c1.7-5,3.1-12.3,2-20.3c-0.5-4-1.7-7.7-3.1-10.8
					c-1.5-3.1-3.4-5.7-5.3-7.4c-2-1.7-3.9-2.7-5.2-3.3c-1.4-0.6-2.2-0.7-2.2-0.8c0,0,0.2,0,0.6,0c0.4,0.1,1,0.2,1.7,0.4
					c1.4,0.5,3.4,1.4,5.5,3.2c2,1.8,4,4.3,5.6,7.5c1.5,3.2,2.7,7,3.2,11c1.2,8.1-0.4,15.6-2.2,20.6c-0.4,1.3-0.9,2.4-1.3,3.3
					c-0.5,0.9-0.9,1.8-1.2,2.4C641.7,404.5,641.3,405.2,641.3,405.2z"/>
			</g>
		</g>
		<polygon class="st5" points="612.8,403.4 653.3,403.4 653.6,411.6 612.8,411.6 		"/>
		<polygon class="st5" points="616.2,407.5 618.6,432.3 648.2,432.3 650.6,407.8 		"/>
		<g>
			<path class="st7" d="M653.6,411.6c0,0.2-9.1,0.4-20.4,0.4c-11.3,0-20.4-0.2-20.4-0.4s9.1-0.4,20.4-0.4
				C644.4,411.3,653.6,411.4,653.6,411.6z"/>
		</g>
		<g>
			<path class="st7" d="M649.5,419.2c0,0-0.2,0.6-0.9,1.5c-0.6,0.9-1.6,2.3-3.1,3.7l-0.2,0.2l-0.2-0.2c-2-2-4.6-4.6-7.9-7l0.4,0
				c-1.1,1-2.3,2-3.5,3.1c-1.4,1.3-2.8,2.5-4.2,3.6l-0.2,0.2l-0.2-0.2c-2.5-2.1-4.8-4.1-6.8-5.7l0.4,0c-1.4,1.7-2.6,3.1-3.5,4.3
				c-0.8,1-1.3,1.5-1.4,1.5c0,0,0.4-0.6,1.1-1.7c0.9-1.2,2-2.7,3.3-4.4l0.2-0.2l0.2,0.2c2,1.6,4.3,3.5,6.9,5.6l-0.5,0
				c1.3-1.2,2.7-2.4,4.1-3.6c1.2-1.1,2.4-2.1,3.5-3.1l0.2-0.2l0.2,0.2c3.3,2.5,6,5,7.9,7.2l-0.4,0
				C648.1,421.3,649.3,419.1,649.5,419.2z"/>
		</g>
		<g>
			<g>
				<path class="st11" d="M513.7,73.8l11.5,12c0.8,0.8,2,0.8,2.8,0.1l45.7-43.9c0.8-0.8,0.8-2,0-2.8l-11.5-12
					c-0.8-0.8-2-0.8-2.8-0.1l-45.7,43.9C513,71.7,513,73,513.7,73.8z"/>
			</g>
			<g>
				<g>
					<path class="st5" d="M513.7,73.8c0,0-0.1-0.1-0.3-0.3c-0.2-0.2-0.4-0.7-0.3-1.3c0-0.3,0.1-0.6,0.3-0.9c0.2-0.3,0.5-0.6,0.8-0.8
						c0.6-0.6,1.3-1.3,2.1-2c3.1-3,7.7-7.4,13.3-12.8c5.6-5.4,12.3-11.9,19.7-19c1.9-1.8,3.8-3.6,5.7-5.5c1-0.9,2-1.9,2.9-2.8
						c0.5-0.5,1-1,1.5-1.4c0.6-0.5,1.5-0.5,2.2-0.2c0.3,0.1,0.7,0.4,0.9,0.7l0.7,0.8c0.5,0.5,1,1,1.5,1.5c1,1,2,2.1,3,3.1
						c2,2.1,4,4.2,6.1,6.4c0.6,0.6,0.8,1.5,0.5,2.2c-0.1,0.4-0.4,0.7-0.7,1l-0.8,0.8c-1.1,1-2.1,2-3.2,3c-2.1,2-4.2,4-6.2,5.9
						c-4.1,3.9-8,7.6-11.7,11.2c-7.4,7.1-14.2,13.6-19.8,19c-1.4,1.3-2.8,2.6-4,3.8c-0.7,0.6-1.8,0.7-2.5,0.2
						c-0.4-0.2-0.6-0.6-0.9-0.8c-0.3-0.3-0.5-0.6-0.8-0.9c-2.1-2.2-4-4.2-5.5-5.8c-1.5-1.6-2.7-2.8-3.5-3.6c-0.4-0.4-0.7-0.7-0.9-1
						C513.8,73.9,513.7,73.8,513.7,73.8s0.1,0.1,0.3,0.3c0.2,0.2,0.5,0.5,0.9,0.9c0.8,0.8,2,2,3.5,3.6c1.5,1.6,3.4,3.5,5.5,5.7
						c0.3,0.3,0.5,0.6,0.8,0.9c0.3,0.3,0.5,0.6,0.9,0.8c0.7,0.4,1.6,0.4,2.2-0.2c1.3-1.2,2.6-2.5,4-3.9c5.6-5.4,12.3-11.9,19.7-19
						c3.7-3.6,7.6-7.3,11.7-11.2c2-1.9,4.1-3.9,6.2-5.9c1-1,2.1-2,3.2-3l0.8-0.8c0.3-0.2,0.5-0.5,0.6-0.8c0.2-0.6,0.1-1.4-0.4-1.9
						c-2.1-2.1-4.1-4.3-6.1-6.4c-1-1-2-2.1-3-3.1c-0.5-0.5-1-1-1.5-1.5l-0.7-0.8c-0.2-0.3-0.5-0.5-0.8-0.6c-0.6-0.3-1.3-0.2-1.8,0.2
						c-0.5,0.4-1,0.9-1.5,1.4c-1,1-2,1.9-3,2.8c-1.9,1.9-3.9,3.7-5.7,5.5c-7.4,7.1-14.2,13.6-19.8,19c-5.6,5.4-10.2,9.7-13.4,12.8
						c-0.8,0.8-1.5,1.4-2.1,2c-0.3,0.3-0.6,0.5-0.8,0.8c-0.2,0.3-0.3,0.6-0.3,0.9c-0.1,0.6,0.1,1,0.3,1.2
						C513.6,73.7,513.8,73.8,513.7,73.8z"/>
				</g>
			</g>
		</g>
		<g>
			
				<rect x="556.2" y="30.3" transform="matrix(0.7167 -0.6974 0.6974 0.7167 132.2003 402.9162)" class="st22" width="11.6" height="16.9"/>
		</g>
		<g>
			
				<rect x="529.2" y="56.6" transform="matrix(0.7167 -0.6974 0.6974 0.7167 106.1985 391.5155)" class="st22" width="11.6" height="16.9"/>
		</g>
		<g>
			
				<rect x="538.2" y="47.8" transform="matrix(0.7167 -0.6974 0.6974 0.7167 114.8755 395.3199)" class="st22" width="11.6" height="16.9"/>
		</g>
		<g>
			
				<rect x="547.3" y="39" transform="matrix(0.7167 -0.6974 0.6974 0.7167 123.5595 399.1275)" class="st22" width="11.6" height="16.9"/>
		</g>
		<g class="st29">
			<rect x="556.2" y="30.3" transform="matrix(0.7167 -0.6974 0.6974 0.7167 132.2003 402.9162)" width="11.6" height="16.9"/>
		</g>
		<g class="st30">
			<rect x="529.2" y="56.6" transform="matrix(0.7167 -0.6974 0.6974 0.7167 106.1985 391.5155)" width="11.6" height="16.9"/>
		</g>
		<g class="st31">
			<rect x="538.2" y="47.8" transform="matrix(0.7167 -0.6974 0.6974 0.7167 114.8755 395.3199)" width="11.6" height="16.9"/>
		</g>
		<g class="st28">
			<rect x="547.3" y="39" transform="matrix(0.7167 -0.6974 0.6974 0.7167 123.5595 399.1275)" width="11.6" height="16.9"/>
		</g>
		<g>
			<g>
				<path class="st11" d="M514.5,71.7l8,14.5c0.5,1,1.7,1.3,2.7,0.8l54.7-30.2c0.9-0.5,1.3-1.7,0.7-2.7l-8-14.5
					c-0.5-1-1.7-1.3-2.7-0.8L515.2,69C514.3,69.5,514,70.7,514.5,71.7z"/>
			</g>
			<g>
				<g>
					<path class="st5" d="M514.5,71.7c0,0-0.1-0.1-0.2-0.4c-0.1-0.3-0.2-0.7,0-1.3c0.1-0.3,0.3-0.6,0.5-0.8c0.3-0.2,0.6-0.4,1-0.6
						c0.7-0.4,1.6-0.9,2.5-1.4c3.8-2.1,9.2-5.1,16-8.9c6.8-3.7,14.8-8.2,23.7-13.1c2.2-1.2,4.5-2.5,6.9-3.8c1.2-0.6,2.3-1.3,3.5-2
						l0.9-0.5c0.3-0.2,0.6-0.4,1-0.5c0.7-0.2,1.5,0,2.1,0.5c0.3,0.3,0.4,0.6,0.6,0.9l0.5,0.9c0.3,0.6,0.7,1.2,1,1.8
						c0.7,1.2,1.4,2.5,2.1,3.7c1.4,2.5,2.8,5.1,4.2,7.6c0.4,0.7,0.4,1.6-0.1,2.3c-0.2,0.3-0.6,0.6-0.9,0.8l-1,0.5
						c-1.3,0.7-2.5,1.4-3.8,2.1c-2.5,1.4-5,2.8-7.4,4.1c-4.9,2.7-9.5,5.3-14,7.7c-8.9,4.9-17,9.4-23.7,13.1
						c-1.7,0.9-3.3,1.8-4.8,2.6c-0.9,0.4-1.9,0-2.4-0.7c-0.5-0.7-0.8-1.4-1.2-2.1c-1.5-2.7-2.7-5-3.8-6.9c-1-1.9-1.8-3.4-2.4-4.4
						c-0.3-0.5-0.5-0.9-0.6-1.1C514.6,71.9,514.5,71.7,514.5,71.7s0.1,0.1,0.2,0.4c0.2,0.3,0.4,0.6,0.6,1.1c0.6,1,1.4,2.5,2.4,4.3
						c1.1,1.9,2.3,4.2,3.8,6.9c0.4,0.7,0.7,1.4,1.2,2c0.5,0.6,1.4,0.9,2.2,0.6c1.5-0.8,3.1-1.7,4.8-2.7c6.8-3.7,14.8-8.2,23.7-13.1
						c4.5-2.5,9.1-5.1,14-7.8c2.4-1.3,4.9-2.7,7.4-4.1c1.3-0.7,2.5-1.4,3.8-2.1l1-0.5c0.3-0.2,0.6-0.4,0.8-0.6
						c0.4-0.6,0.4-1.3,0.1-1.9c-1.4-2.6-2.8-5.1-4.2-7.6c-0.7-1.3-1.4-2.5-2.1-3.7c-0.3-0.6-0.7-1.2-1-1.8l-0.5-0.9
						c-0.2-0.3-0.3-0.6-0.5-0.8c-0.5-0.4-1.1-0.6-1.7-0.5c-0.3,0.1-0.6,0.3-0.9,0.4l-0.9,0.5c-1.2,0.7-2.4,1.3-3.5,2
						c-2.3,1.3-4.6,2.6-6.9,3.8c-8.9,4.9-17,9.4-23.7,13.1c-6.8,3.7-12.2,6.7-16,8.8c-0.9,0.5-1.8,1-2.5,1.4c-0.4,0.2-0.7,0.4-1,0.6
						c-0.3,0.2-0.4,0.5-0.5,0.8c-0.2,0.5-0.1,1,0,1.3C514.4,71.6,514.5,71.7,514.5,71.7z"/>
				</g>
			</g>
		</g>
		<g>
			
				<rect x="562.9" y="43.2" transform="matrix(0.8722 -0.4891 0.4891 0.8722 47.4028 284.7055)" class="st22" width="11.6" height="16.9"/>
		</g>
		<g>
			
				<rect x="530" y="61.6" transform="matrix(0.8722 -0.4891 0.4891 0.8722 34.1779 270.9738)" class="st22" width="11.6" height="16.9"/>
		</g>
		<g>
			
				<rect x="540.9" y="55.5" transform="matrix(0.8722 -0.4891 0.4891 0.8722 38.5939 275.5625)" class="st22" width="11.6" height="16.9"/>
		</g>
		<g>
			
				<rect x="551.9" y="49.3" transform="matrix(0.8722 -0.4891 0.4891 0.8722 43.0095 280.1457)" class="st22" width="11.6" height="16.9"/>
		</g>
		<g class="st30">
			<rect x="562.9" y="43.2" transform="matrix(0.8722 -0.4891 0.4891 0.8722 47.4028 284.7055)" width="11.6" height="16.9"/>
		</g>
		<g class="st21">
			<rect x="530" y="61.6" transform="matrix(0.8722 -0.4891 0.4891 0.8722 34.1779 270.9738)" width="11.6" height="16.9"/>
		</g>
		<g class="st15">
			<rect x="540.9" y="55.5" transform="matrix(0.8722 -0.4891 0.4891 0.8722 38.5939 275.5625)" width="11.6" height="16.9"/>
		</g>
		<g class="st32">
			<rect x="551.9" y="49.3" transform="matrix(0.8722 -0.4891 0.4891 0.8722 43.0095 280.1457)" width="11.6" height="16.9"/>
		</g>
		<g>
			<g>
				<path class="st11" d="M512.5,71.6l3.5,16.2c0.2,1.1,1.3,1.8,2.4,1.5l64.1-14c1.1-0.2,1.8-1.3,1.6-2.4l-3.5-16.2
					c-0.2-1.1-1.3-1.8-2.4-1.5l-64.1,14C513,69.4,512.3,70.5,512.5,71.6z"/>
			</g>
			<g>
				<g>
					<path class="st5" d="M512.5,71.6c0,0-0.1-0.1-0.1-0.5c0-0.3,0.1-0.8,0.4-1.3c0.2-0.2,0.4-0.5,0.8-0.6c0.3-0.1,0.7-0.2,1.2-0.3
						c0.8-0.2,1.8-0.4,2.9-0.7c4.4-1,10.7-2.4,18.5-4.1c7.8-1.7,17.2-3.8,27.5-6c2.6-0.6,5.2-1.1,7.9-1.7c1.4-0.3,2.7-0.6,4.1-0.9
						c0.7-0.2,1.4-0.3,2.1-0.5c0.3-0.1,0.8-0.1,1.1-0.1c0.4,0.1,0.7,0.2,1,0.5c0.3,0.3,0.5,0.6,0.6,1c0.1,0.4,0.2,0.7,0.2,1.1
						c0.2,0.7,0.3,1.4,0.5,2.1c0.3,1.4,0.6,2.9,0.9,4.3c0.6,2.9,1.3,5.9,1.9,8.8c0.2,0.8-0.2,1.7-0.8,2.2c-0.3,0.3-0.7,0.4-1.1,0.5
						l-1.1,0.2c-1.5,0.3-2.9,0.6-4.4,1c-2.9,0.6-5.8,1.3-8.6,1.9c-5.6,1.2-11.1,2.4-16.2,3.5c-10.4,2.2-19.7,4.3-27.5,6
						c-2,0.4-3.8,0.8-5.6,1.2c-0.2,0-0.4,0.1-0.7,0.1c-0.2,0-0.5,0-0.7,0c-0.5-0.1-0.9-0.3-1.2-0.7c-0.3-0.3-0.5-0.8-0.5-1.2
						c-0.1-0.4-0.2-0.8-0.3-1.2c-0.7-3.1-1.2-5.8-1.7-8c-0.5-2.2-0.8-3.9-1.1-5c-0.1-0.6-0.2-1-0.3-1.3
						C512.5,71.7,512.5,71.6,512.5,71.6s0,0.1,0.1,0.4c0.1,0.3,0.2,0.7,0.3,1.3c0.3,1.2,0.6,2.9,1.1,5c0.5,2.2,1.1,4.9,1.8,8
						c0.1,0.4,0.2,0.8,0.3,1.2c0.1,0.4,0.2,0.8,0.5,1.1c0.3,0.3,0.6,0.5,1,0.6c0.4,0.1,0.8,0,1.3-0.1c1.8-0.4,3.6-0.8,5.6-1.2
						c7.8-1.7,17.2-3.8,27.5-6c5.2-1.1,10.6-2.3,16.2-3.6c2.8-0.6,5.7-1.2,8.6-1.9c1.5-0.3,2.9-0.6,4.4-1l1.1-0.2
						c0.4-0.1,0.7-0.2,1-0.4c0.6-0.4,0.8-1.2,0.7-1.9c-0.7-3-1.3-5.9-1.9-8.8c-0.3-1.5-0.6-2.9-0.9-4.3c-0.2-0.7-0.3-1.4-0.5-2.1
						c-0.1-0.3-0.1-0.7-0.2-1c-0.1-0.3-0.3-0.6-0.5-0.8c-0.5-0.4-1.2-0.6-1.9-0.4c-0.7,0.2-1.4,0.3-2.1,0.5
						c-1.4,0.3-2.8,0.6-4.1,0.9c-2.7,0.6-5.4,1.2-8,1.7c-10.4,2.2-19.7,4.3-27.5,6c-7.8,1.7-14.2,3.1-18.6,4
						c-1.1,0.2-2.1,0.4-2.9,0.6c-0.4,0.1-0.8,0.1-1.1,0.3c-0.3,0.1-0.6,0.4-0.8,0.6c-0.4,0.5-0.4,0.9-0.5,1.2
						C512.5,71.4,512.5,71.6,512.5,71.6z"/>
				</g>
			</g>
		</g>
		<g>
			<g>
				<path class="st5" d="M512.4,71.7c0,0.1-0.8,0-2.2,0.3c-1.4,0.3-3.4,0.9-5.4,2.6c-1.9,1.6-3.7,4.3-4,7.7c-0.3,3.3,1,7.1,4,9.6
					c1.5,1.3,3.2,2,5,2.4c1.8,0.4,3.6,0.2,5.2-0.2c1.6-0.4,3-1.2,4.2-2.1c1.2-0.9,2-2,2.7-3.1c1.3-2.2,1.6-4.3,1.6-5.7
					c0-0.4,0-0.7,0-1c0-0.3-0.1-0.5-0.1-0.7c0-0.4,0-0.6,0-0.6c0,0,0.1,0.2,0.2,0.6c0,0.2,0.1,0.4,0.1,0.7c0,0.3,0.1,0.6,0.1,1
					c0.1,1.4-0.1,3.7-1.4,6c-0.6,1.2-1.5,2.3-2.7,3.3c-1.2,1-2.7,1.8-4.4,2.3c-1.7,0.5-3.6,0.6-5.5,0.2c-1.9-0.4-3.7-1.2-5.3-2.5
					c-0.8-0.6-1.4-1.4-2-2.2c-0.6-0.8-1-1.7-1.4-2.6c-0.7-1.8-0.9-3.7-0.8-5.4c0.2-1.8,0.7-3.4,1.5-4.7c0.8-1.4,1.8-2.4,2.8-3.3
					c2.1-1.7,4.2-2.2,5.6-2.4c0.7-0.1,1.3-0.1,1.7-0.1C512.2,71.6,512.4,71.6,512.4,71.7z"/>
			</g>
		</g>
		<g>
			<path class="st5" d="M525.1,78.2c0.3,1.4-0.6,2.7-1.9,3c-1.4,0.3-2.7-0.6-3-1.9c-0.3-1.4,0.6-2.7,1.9-3
				C523.4,75.9,524.8,76.8,525.1,78.2z"/>
		</g>
		<g>
			
				<rect x="569" y="58.4" transform="matrix(0.9769 -0.2135 0.2135 0.9769 -1.012 124.259)" class="st13" width="11.6" height="16.9"/>
		</g>
		<g>
			
				<rect x="556.8" y="61" transform="matrix(0.9769 -0.2135 0.2135 0.9769 -1.8661 121.7015)" class="st22" width="11.6" height="16.9"/>
		</g>
		<g>
			
				<rect x="544.5" y="63.7" transform="matrix(0.9769 -0.2135 0.2135 0.9769 -2.724 119.1361)" class="st22" width="11.6" height="16.9"/>
		</g>
		<g>
			
				<rect x="532.2" y="66.4" transform="matrix(0.9769 -0.2135 0.2135 0.9769 -3.5809 116.5773)" class="st22" width="11.6" height="16.9"/>
		</g>
		<g>
			
				<rect x="532.2" y="66.4" transform="matrix(0.9769 -0.2135 0.2135 0.9769 -3.5809 116.5773)" class="st33" width="11.6" height="16.9"/>
		</g>
		<g>
			
				<rect x="544.5" y="63.7" transform="matrix(0.9769 -0.2135 0.2135 0.9769 -2.724 119.1361)" class="st34" width="11.6" height="16.9"/>
		</g>
		<g>
			
				<rect x="556.8" y="61" transform="matrix(0.9769 -0.2135 0.2135 0.9769 -1.8661 121.7015)" class="st14" width="11.6" height="16.9"/>
		</g>
		<polygon class="st5" points="228.7,39.2 231.9,55.9 234.4,51.2 240,59.5 242.7,57.6 237.2,49.4 242.3,48.6 		"/>
		<path class="st13" d="M373.7,117.5c0,0,7.1-1.6,9.4,1.8c2.3,3.4,0.7,5.3,5.8,6.7c5.2,1.4,6.9,1.3,6.4,4.8s5.2,6.2,5.4,9
			c0.2,2.8,2.6,4.2,4.9,4.4c2.3,0.2,1.2-36.5-7.6-38.1c-8.8-1.6-17.3,0.3-19.9,2.3C375.7,110.5,373.7,117.5,373.7,117.5z"/>
		<path class="st13" d="M373.7,117.5c0,0-6.7-0.5-7.9,3.4c-1.2,3.8,0.4,4.7-1.3,7.1c-1.7,2.3-0.7,6.4-0.7,6.4s-13.3-24.5,0.7-26.1
			C378.5,106.7,378.1,109.5,373.7,117.5z"/>
		<g>
			<path class="st14" d="M184.2,223.6l-6.1,79l-6.8,63l110.2-1.4l2.7-63.3l0.9-43.1l7,57.5l43.6-4l-12-75.7
				c-1.5-9.2-5.2-18.1-11.5-25.2c-7.5-8.5-17.1-13.7-28-17.6c-4.8-1.7-14.3-3.3-20.5-3.7l0.4-12.7c0,0-19.6,1.8-24.8,14
				c0,0-6.5-14.5-19.1-15.7l0.1,13.8c-7.5,0.4-22.1,0.4-46.9,14.5"/>
		</g>
		<g>
			<g>
				<path class="st12" d="M249.4,361.7c0.1,0.1,1.6-2,3-6.3c1.4-4.3,2.2-10.8,1.9-18.8c-0.1-4-0.5-8.3-0.7-12.9
					c-0.2-4.6-0.1-9.5,0.3-14.6c0.9-10.3,3.3-21.4,5.9-33.2c2.6-11.8,4.7-23.2,5.1-33.8c0.3-10.6-0.6-19.9-0.1-27.6
					c0.4-7.8,2-13.9,3.6-17.9c1.6-4,3.1-6.1,2.8-6.2c-0.1-0.1-1.9,1.7-4,5.7c-2.1,4-4.1,10.3-4.8,18.3c-0.8,8-0.2,17.4-0.6,27.7
					c-0.5,10.3-2.7,21.5-5.3,33.2c-2.6,11.7-5,23.1-5.7,33.6c-0.3,5.3-0.3,10.3,0,15c0.4,4.6,0.7,8.9,1.1,12.8
					c0.6,7.8,0.3,14.1-0.7,18.3C250.2,359.3,249.1,361.5,249.4,361.7z"/>
			</g>
		</g>
		<g>
			<g>
				<path class="st12" d="M204,364.7c0.2,0,0.6-2.4,1.1-6.8c0.5-4.5,1.2-10.8,2-18.5c1.7-15.6,4.2-37.2,7.8-61
					c1.8-11.9,3.7-23.2,5.5-33.4c1.8-10.2,3.5-19.5,4.5-27.4c1-7.9,1.2-14.3,1.1-18.7c-0.1-4.4-0.5-6.9-0.7-6.9
					c-0.5,0-0.2,9.8-2.8,25.2c-1.2,7.7-3.2,16.9-5.2,27.1c-2,10.2-4,21.6-5.8,33.5c-3.6,23.8-5.8,45.5-6.9,61.2
					c-0.6,7.9-0.9,14.2-1,18.6C203.7,362.3,203.8,364.7,204,364.7z"/>
			</g>
		</g>
		<g>
			<g>
				<path class="st12" d="M206.5,190.8c-0.3,0-0.4,2.5-1.1,6.8c-0.7,4.3-2.3,10.5-4.7,18c-1.2,3.8-2.5,8-3.6,12.6
					c-1.1,4.6-1.9,9.6-2.4,14.9c-1,10.6-0.8,22.1-1.5,34.1c-1.2,24.1-3.7,45.8-5.3,61.6c-0.8,7.9-1.5,14.3-1.9,18.7
					c-0.4,4.4-0.5,6.9-0.2,6.9c0.2,0,0.8-2.4,1.5-6.7c0.8-4.4,1.8-10.7,2.9-18.6c2.2-15.7,5-37.5,6.3-61.7c0.7-12.1,0.5-23.7,1.2-34
					c0.4-5.2,1-10,2-14.5c0.9-4.5,2.1-8.7,3.1-12.5c2.1-7.7,3.4-14,3.7-18.5C207,193.2,206.7,190.8,206.5,190.8z"/>
			</g>
		</g>
		<g>
			<g>
				<path class="st12" d="M223.8,190.2c1-0.2,1.1-2.9,1.9-5.7c0.8-2.8,2.2-5.2,1.4-5.9c-0.4-0.3-1.2,0-2.1,0.8
					c-0.9,0.8-2,2.3-2.6,4.2c-0.5,1.9-0.4,3.7,0,4.8C222.8,189.6,223.4,190.2,223.8,190.2z"/>
			</g>
		</g>
		<g>
			<g>
				<path class="st12" d="M258.6,191.3c0.4,0.2,1.2-0.5,1.7-1.8c0.5-1.3,0.7-3.4,0.1-5.5c-0.6-2.1-1.9-3.8-3-4.7
					c-1.2-0.9-2.1-1-2.4-0.7c-0.5,0.8,1.4,3,2.2,6.2C258.2,188,257.7,190.9,258.6,191.3z"/>
			</g>
		</g>
		<g>
			<g>
				<path class="st12" d="M224.2,363.7c0.3-0.1-0.2-2.5,0-6.8c0.2-4.3,1.6-10.4,4.3-17.8c1.3-3.7,2.8-7.8,4.1-12.3
					c1.3-4.5,2.5-9.3,3.5-14.5c2-10.3,3.4-21.6,4.9-33.5c3.1-23.8,5.6-45.3,7.3-61c0.8-7.8,1.5-14.1,1.8-18.5
					c0.4-4.4,0.4-6.8,0.2-6.8s-0.8,2.4-1.5,6.7c-0.8,4.3-1.7,10.6-2.9,18.4c-2.3,15.5-5.3,37.1-8.3,60.8
					c-1.6,11.9-2.8,23.2-4.6,33.4c-0.9,5.1-1.9,9.9-3.1,14.3c-1.2,4.4-2.6,8.5-3.7,12.3c-2.4,7.5-3.5,14-3.3,18.5
					C223,361.5,224,363.8,224.2,363.7z"/>
			</g>
		</g>
		<g>
			<g>
				<path class="st12" d="M269.1,361.4c0.5,0,1.3-6.5,2.5-17c1.2-10.5,2.9-25,4.7-41.1c1.7-16.1,3-30.7,3.5-41.3
					c0.5-10.6,0.4-17.2,0-17.2c-0.5,0-1.2,6.5-2.3,17c-1.2,10.7-2.7,25.1-4.4,41.1c-1.7,16.1-3.1,30.6-3.7,41.2
					C268.6,354.8,268.7,361.3,269.1,361.4z"/>
			</g>
		</g>
		<g>
			<g>
				<path class="st12" d="M327.9,312c0.5-0.1-0.8-7-3.2-18c-2.4-11-6-26.2-10.1-43c-2.1-8.4-4.1-16.3-5.9-23.6
					c-1.8-7.2-3.7-13.9-6.7-19c-3-5.1-6.8-8.3-9.7-9.9c-2.9-1.6-4.8-1.8-4.9-1.6c-0.1,0.3,1.6,0.8,4.2,2.7c2.5,1.8,5.8,5,8.3,9.9
					c2.6,4.9,4.2,11.3,5.8,18.6c1.7,7.3,3.7,15.3,5.7,23.6c4.1,16.7,8,31.9,11,42.8C325.3,305.4,327.4,312.1,327.9,312z"/>
			</g>
		</g>
		<g>
			<g>
				<path class="st12" d="M276.4,205.6c-0.2,0.2,1,1.3,2.3,3.8c1.3,2.5,2.7,6.4,4,11.3c0.6,2.5,1.3,5.2,2,8.1
					c0.7,2.9,1.2,6.1,1.9,9.4c0.7,3.4,1.6,6.9,3.1,10.5c1.4,3.5,3.2,7,5.1,10.5c1.8,3.5,3.7,6.9,5.1,10.2c1.4,3.2,2.2,6.6,2.8,9.9
					c1.2,6.6,1.6,12.7,1.9,17.8c0.4,10.2,0.3,16.6,0.8,16.6c0.4,0,1.4-6.3,1.6-16.7c0-5.2-0.1-11.4-1.2-18.2
					c-0.6-3.4-1.4-7-2.9-10.6c-1.5-3.5-3.4-6.9-5.2-10.4c-1.8-3.5-3.6-6.8-5-10.2c-1.4-3.3-2.3-6.7-3.1-10c-0.8-3.3-1.4-6.5-2.3-9.4
					c-0.8-3-1.6-5.6-2.4-8.1c-1.6-5-3.4-8.9-5.1-11.3C278.1,206.2,276.5,205.4,276.4,205.6z"/>
			</g>
		</g>
		<g>
			<g>
				<path class="st5" d="M287.1,195.5c0,0-0.3,0-0.7,0.2c-0.4,0.2-1.1,0.5-1.9,0.9c-1.6,0.9-3.7,2.5-5.6,5c-2,2.5-3.8,5.9-4.7,10
					c-1,4.1-1,8.7-0.3,13.4c0.7,4.7,2,9.1,3.4,13c1.3,3.9,2.7,7.3,3.7,10.3c1.1,2.9,1.8,5.3,2.3,7c0.5,1.7,0.8,2.6,0.9,2.6
					c0.1,0-0.1-1-0.4-2.7c-0.4-1.7-1-4.1-2-7.1c-1.8-5.9-5.3-13.9-6.8-23.2c-0.7-4.6-0.7-9.1,0.2-13.1c0.9-3.9,2.6-7.3,4.4-9.7
					C283.3,197,287.3,195.7,287.1,195.5z"/>
			</g>
		</g>
		<g>
			<g>
				<path class="st5" d="M182.6,261.5c0.1,0,0.2-0.9,0.5-2.6c0.2-1.9,0.5-4.2,0.9-7c0.8-6.1,1.8-14.2,2.9-23
					c1.1-8.9,2.1-16.9,2.9-23c0.3-2.8,0.6-5.1,0.9-7c0.2-1.6,0.3-2.6,0.2-2.6c-0.1,0-0.3,0.9-0.6,2.5c-0.3,1.6-0.7,4-1.2,6.9
					c-0.9,5.9-2.1,14-3.2,23c-1.1,9-2,17.2-2.6,23.1c-0.3,3-0.5,5.4-0.6,7C182.5,260.6,182.5,261.5,182.6,261.5z"/>
			</g>
		</g>
		<g>
			<g>
				<path class="st5" d="M242.7,185.9c0,0.2,1.6-0.7,3.7,0.5c1,0.5,2,1.6,2.6,2.9c0.3,0.7,0.6,1.5,0.8,2.3c0.1,0.4,0.2,0.8,0.3,1.3
					c0.1,0.4,0.2,1,0.7,1.5c0.2,0.2,0.6,0.4,1,0.5c0.4,0,0.7-0.1,0.9-0.2c0.5-0.2,0.8-0.4,1.3-0.6c0.8-0.4,1.6-0.7,2.3-1.1
					c1.3-0.7,2.6-1.3,3.9-1.9c2.2-1.1,3.5-1.9,3.5-2c-0.1-0.1-1.5,0.4-3.8,1.3c-1.3,0.5-2.6,1.1-4,1.7c-0.8,0.3-1.5,0.7-2.3,1
					c-0.4,0.2-0.8,0.4-1.2,0.5c-0.4,0.1-0.5,0.1-0.7,0c-0.4-0.4-0.5-1.5-0.8-2.3c-0.3-0.8-0.6-1.7-0.9-2.4c-0.7-1.5-1.9-2.7-3.2-3.2
					c-1.2-0.6-2.3-0.5-3-0.3C242.9,185.6,242.6,185.9,242.7,185.9z"/>
			</g>
		</g>
		<g>
			<g>
				<path class="st5" d="M219.6,188.1c-0.2,0.2,3.6,3.2,8.5,6.9l0.7,0.5l0.2-0.9c0.1-0.3,0.1-0.7,0.2-1.1c0.5-3.2,1.6-5.9,3.2-7.3
					c1.5-1.5,2.9-1.6,2.9-1.8c0-0.1-1.6-0.2-3.4,1.2c-0.9,0.7-1.8,1.8-2.4,3.1c-0.6,1.3-1,2.9-1.3,4.5c-0.1,0.4-0.1,0.7-0.2,1.1
					l0.9-0.3C223.8,190.5,219.8,187.8,219.6,188.1z"/>
			</g>
		</g>
		<g>
			<g>
				<path class="st5" d="M293.7,313.7c0.1,0.1,2.1-0.5,5.3-1.4c3.2-1,7.7-2.2,12.7-3.5c5-1.2,9.5-2.1,12.8-2.8
					c3.3-0.6,5.4-1,5.3-1.2c0-0.1-2.1,0-5.5,0.4c-3.4,0.4-8,1.3-13,2.5c-5,1.2-9.5,2.6-12.6,3.8
					C295.5,312.7,293.6,313.6,293.7,313.7z"/>
			</g>
		</g>
		<g>
			<g>
				<path class="st5" d="M326.2,300.5c0-0.1-2,0.2-5.2,1c-3.2,0.8-7.5,2.1-12.2,3.7c-2.4,0.8-4.6,1.6-6.6,2.4
					c-2,0.8-3.9,1.5-5.3,2.4c-3,1.7-3.6,4-3.5,3.9c0.1,0.1,1-1.8,3.9-3.3c1.4-0.8,3.2-1.4,5.2-2.1c2.1-0.7,4.3-1.5,6.6-2.3
					c4.7-1.6,9-3,12.1-4C324.4,301.2,326.3,300.6,326.2,300.5z"/>
			</g>
		</g>
		<g>
			<g>
				<path class="st5" d="M215.7,369.4c0,0,0.1-0.6,0.3-1.7c0.2-1.2,0.4-2.8,0.6-4.9c0.5-4.3,1.2-10.4,2.1-17.9
					c1.8-15.1,4.3-35.9,7.2-58.9c2.9-23,5.8-43.8,8.1-58.8c1.2-7.5,2.1-13.6,2.9-17.8c0.3-2,0.6-3.6,0.8-4.8
					c0.2-1.1,0.2-1.7,0.2-1.7c0,0-0.2,0.6-0.4,1.7c-0.2,1.2-0.6,2.8-1,4.8c-0.9,4.2-1.9,10.2-3.2,17.7c-2.5,15-5.5,35.8-8.5,58.8
					c-2.9,23-5.3,43.8-6.9,59c-0.7,7.5-1.4,13.6-1.8,17.9c-0.2,2-0.3,3.7-0.4,4.9C215.7,368.8,215.7,369.4,215.7,369.4z"/>
			</g>
		</g>
		<g>
			<g>
				<path class="st5" d="M229.9,238.4c0.1,0,0.3-0.9-0.8-1.7c-0.5-0.4-1.4-0.6-2.2-0.2c-0.8,0.4-1.5,1.3-1.3,2.4
					c0.2,1.1,1.3,1.7,2.2,1.7c1,0,1.7-0.7,1.8-1.3c0.2-0.6,0-1.1-0.2-1.4c-0.2-0.3-0.4-0.3-0.4-0.3c-0.1,0.1,0.3,0.7-0.1,1.4
					c-0.2,0.4-0.6,0.7-1.1,0.6c-0.5,0-1-0.4-1.1-0.9c-0.1-0.5,0.2-1.1,0.7-1.3c0.4-0.3,0.9-0.2,1.3,0
					C229.5,237.7,229.7,238.4,229.9,238.4z"/>
			</g>
		</g>
		<g>
			<g>
				<path class="st5" d="M223.4,274.9c0.1,0,0.3-0.9-0.8-1.7c-0.5-0.4-1.4-0.6-2.2-0.2c-0.8,0.4-1.5,1.3-1.3,2.4
					c0.2,1.1,1.3,1.7,2.2,1.7c1,0,1.7-0.7,1.8-1.3c0.2-0.6,0-1.1-0.2-1.4c-0.2-0.3-0.4-0.3-0.4-0.3c-0.1,0.1,0.3,0.7-0.1,1.4
					c-0.2,0.4-0.6,0.7-1.1,0.6c-0.5,0-1-0.4-1.1-0.9c-0.1-0.5,0.2-1.1,0.7-1.3c0.4-0.3,0.9-0.2,1.3,0
					C223,274.3,223.2,275,223.4,274.9z"/>
			</g>
		</g>
		<path class="st19" d="M243,329.4c4,1,21.3,1,21.3,1v-20.5c0,0-7.5-3.2-9.6-5.1c-2.1-1.9-8-12.9-8-12.9s-3.6,2-2.7,6.3
			c1,4.5,2.8,5.1,3,6.9c0,0,0.2,0.5,0.2,0.5c0.4,2.5-2,4.7-2,4.7c0.1,0-2-1.3-2.6-1.3c-3.6-0.4-8,2.2-8,3.6c0,0-0.1,3.9,0,4.5
			c0.1,0.6,2,1.4,2,1.4s-0.6,2.6,0,3.8c0.6,1.2,2.5,2,2.5,2S240.8,328.8,243,329.4z"/>
		<path class="st14" d="M336.2,306.5c1.4,12.8-8.1,24.3-21,25.5c-20.8,1.9-50.9,4.4-50.9,2.7v-26.1l39.1-5.8"/>
		<path class="st24" d="M247.2,326.1c0,0.1-1.9,0.3-4.2-0.2c-2.3-0.5-3.9-1.4-3.9-1.5c0.1-0.1,1.8,0.5,4,1
			C245.4,325.8,247.2,325.9,247.2,326.1z"/>
		<path class="st24" d="M246.2,319.9c0,0.1-2.1,0.6-4.7,0.2c-2.6-0.3-4.6-1.4-4.5-1.5c0.1-0.1,2,0.6,4.6,1
			C244.1,320,246.2,319.8,246.2,319.9z"/>
		<path class="st24" d="M245.6,302.3c0.1,0,0.7,0.9,1.4,2.5c0.2,0.4,0.3,0.9,0.4,1.4c0.1,0.5,0.2,1.2,0,1.8c-0.3,1.2-1.3,2.3-2.5,3
			c-0.6,0.4-1.3,0.6-1.9,0.8c-0.7,0.1-1.3,0.2-1.9,0.2c-1.2,0-2.2,0-3.1,0c-1.8,0-2.8,0.3-2.9,0.2c0-0.1,1-0.5,2.8-0.6
			c0.9-0.1,2-0.1,3.1-0.2c0.6,0,1.2-0.1,1.8-0.2c0.6-0.1,1.2-0.4,1.8-0.7c1.1-0.7,2-1.6,2.3-2.7c0.2-0.5,0.1-1,0.1-1.5
			c-0.1-0.5-0.2-1-0.4-1.4C246.1,303.3,245.5,302.3,245.6,302.3z"/>
		<path class="st25" d="M522,111.8c0,0-8.7,23.2-22.1,26.7c-13.4,3.4-19.1-0.1-19.1-0.1s10.2-8.1,12.4-22.3
			C493.2,116,515.4,100.8,522,111.8z"/>
		<path class="st25" d="M518.1,116.3c0,0,7.3,4,9.7,8.7c2.4,4.7,4.9,14.8,7.8,13.9c0,0,3.7-16.7-5.1-24.2
			C521.3,106.7,518.1,116.3,518.1,116.3z"/>
		<g>
			<g>
				<path class="st5" d="M99.4,411.7c0,0,0-0.1,0.1-0.3c0.1-0.2,0.3-0.6,0.4-1c0.4-0.8,0.9-2.1,1.3-3.8c0.9-3.4,1.2-8.6-0.1-14.8
					c-0.6-3.1-1.6-6.4-2.7-9.9c-1.2-3.5-2.5-7.3-3.6-11.3c-1.1-4-1.9-8.4-1.8-13c0.2-4.6,1.5-9.2,3-13.7c1.5-4.6,3-9,3.5-13.5
					c0.5-4.5-0.4-8.9-2.5-12.5c-2-3.6-4.5-6.8-6.3-10c-1.9-3.2-3.1-6.5-3.8-9.6c-1.4-6.2-0.9-11.4-0.2-14.9c0.7-3.5,1.6-5.3,1.6-5.3
					c0,0,0,0.1-0.1,0.3c-0.1,0.2-0.2,0.6-0.3,1c-0.3,0.9-0.6,2.2-1,3.9c-0.6,3.4-1.1,8.6,0.4,14.8c0.7,3,1.9,6.3,3.8,9.5
					c1.9,3.2,4.4,6.3,6.4,10c2.1,3.7,3.1,8.2,2.6,12.8c-0.5,4.6-2,9.1-3.5,13.6c-1.5,4.6-2.8,9.1-3,13.6c-0.2,4.5,0.7,8.8,1.7,12.9
					c1.1,4,2.4,7.8,3.6,11.3c1.2,3.5,2.1,6.9,2.7,10c1.3,6.2,0.9,11.5,0,14.9c-0.5,1.7-1,3-1.4,3.8c-0.2,0.4-0.4,0.7-0.5,0.9
					C99.5,411.6,99.4,411.7,99.4,411.7z"/>
			</g>
			<g>
				<path class="st14" d="M93.3,310.9c0,0-3.8-12.1,3-19.2c0.2-0.2,0.7-0.1,0.7,0.2C97.4,293.9,97.8,300,93.3,310.9z"/>
			</g>
			<g>
				<g>
					<path class="st5" d="M95.6,295.8c0.1,0,0,0.9-0.3,2.2c-0.2,1.5-0.5,3.3-0.9,5.3c-0.3,2-0.6,3.8-0.8,5.3
						c-0.2,1.4-0.3,2.2-0.4,2.2c-0.1,0-0.1-0.9,0.1-2.3c0.1-1.4,0.4-3.3,0.7-5.4c0.3-2.1,0.7-4,1-5.3
						C95.3,296.6,95.5,295.8,95.6,295.8z"/>
				</g>
			</g>
			<g>
				<path class="st14" d="M97.7,339.5c0,0,2.3-12.5,11.6-15.6c0.3-0.1,0.6,0.2,0.5,0.5C109.3,326.4,106.9,332,97.7,339.5z"/>
			</g>
			<g>
				<g>
					<path class="st5" d="M106.8,327.2c0.1,0-0.4,0.7-1.3,1.9c-0.9,1.2-2,2.7-3.3,4.3c-1.2,1.6-2.3,3.1-3.2,4.3
						c-0.8,1.1-1.3,1.8-1.4,1.8c-0.1,0,0.4-0.8,1.1-2c0.8-1.2,1.9-2.7,3.1-4.4c1.3-1.7,2.5-3.2,3.4-4.2
						C106.2,327.7,106.8,327.1,106.8,327.2z"/>
				</g>
			</g>
			<g>
				<path class="st14" d="M95.2,370.8c0,0-1.4-12.6,6.6-18.3c0.3-0.2,0.7,0,0.7,0.3C102.5,354.9,101.8,361,95.2,370.8z"/>
			</g>
			<g>
				<g>
					<path class="st5" d="M100.3,356.3c0.1,0-0.2,0.8-0.7,2.1c-0.5,1.5-1.2,3.2-1.9,5.1c-0.7,1.9-1.3,3.6-1.9,5.1
						c-0.5,1.3-0.7,2.1-0.8,2.1c-0.1,0,0.1-0.9,0.5-2.2c0.4-1.3,1-3.2,1.7-5.1c0.7-2,1.5-3.8,2-5
						C99.9,357.1,100.3,356.3,100.3,356.3z"/>
				</g>
			</g>
			<g>
				<path class="st14" d="M102.2,402.3c0,0-1-12.7,7.3-18c0.3-0.2,0.7,0,0.7,0.4C110.1,386.6,109.1,392.7,102.2,402.3z"/>
			</g>
			<g>
				<g>
					<path class="st5" d="M107.9,388c0.1,0-0.2,0.8-0.8,2.1c-0.6,1.4-1.3,3.1-2,5c-0.8,1.9-1.4,3.6-2,5c-0.5,1.3-0.8,2.1-0.9,2.1
						c-0.1,0,0.1-0.9,0.6-2.2c0.4-1.3,1.1-3.1,1.9-5.1c0.8-2,1.6-3.7,2.2-5C107.4,388.7,107.8,388,107.9,388z"/>
				</g>
			</g>
			<path class="st14" d="M87.9,300.3c0,0-11.2-5.9-11.5-15.7c0-0.3,0.4-0.6,0.7-0.4C78.7,285.4,83.3,289.4,87.9,300.3z"/>
			<g>
				<path class="st5" d="M78.7,288c0.1,0,0.6,0.6,1.4,1.8c0.9,1.3,2,2.7,3.2,4.4c1.2,1.6,2.3,3.1,3.2,4.4c0.8,1.1,1.3,1.8,1.3,1.8
					c0,0-0.7-0.6-1.5-1.6c-0.9-1.1-2.1-2.6-3.3-4.3c-1.2-1.7-2.3-3.3-3.1-4.5C79.1,288.8,78.7,288,78.7,288z"/>
			</g>
			<g>
				<path class="st14" d="M99.9,326.3c0,0-11.6-5.2-12.4-15c0-0.3,0.3-0.6,0.6-0.4C89.9,312,94.8,315.7,99.9,326.3z"/>
			</g>
			<g>
				<g>
					<path class="st5" d="M90.1,314.6c0.1,0,0.6,0.6,1.5,1.7c1,1.2,2.1,2.6,3.4,4.2c1.3,1.6,2.4,3,3.4,4.2c0.9,1.1,1.4,1.7,1.4,1.8
						c0,0-0.7-0.5-1.6-1.5c-1-1-2.2-2.5-3.6-4.1c-1.3-1.6-2.5-3.2-3.3-4.3C90.5,315.3,90,314.6,90.1,314.6z"/>
				</g>
			</g>
			<g>
				<path class="st14" d="M93.3,355.3c0,0-8-9.9-4.2-19c0.1-0.3,0.6-0.4,0.7-0.1C90.9,338,93.5,343.5,93.3,355.3z"/>
			</g>
			<g>
				<g>
					<path class="st5" d="M89.8,340.4c0.1,0,0.3,0.8,0.6,2.2c0.3,1.5,0.7,3.3,1.1,5.3c0.4,2,0.8,3.8,1.2,5.3
						c0.3,1.3,0.5,2.2,0.4,2.2c-0.1,0-0.4-0.8-0.8-2.1c-0.4-1.3-0.9-3.2-1.3-5.3c-0.4-2.1-0.8-4-1-5.3
						C89.9,341.2,89.8,340.4,89.8,340.4z"/>
				</g>
			</g>
			<g>
				<path class="st14" d="M101.1,389.4c0,0-11.5-5.4-12.1-15.2c0-0.3,0.3-0.6,0.6-0.4C91.4,375,96.2,378.7,101.1,389.4z"/>
			</g>
			<g>
				<g>
					<path class="st5" d="M91.5,377.5c0.1,0,0.6,0.6,1.5,1.7c1,1.2,2.1,2.7,3.4,4.2c1.3,1.6,2.4,3,3.4,4.2c0.9,1.1,1.4,1.7,1.4,1.8
						c0,0-0.7-0.5-1.6-1.6c-0.9-1-2.2-2.5-3.5-4.2c-1.3-1.7-2.5-3.2-3.3-4.3C91.9,378.3,91.4,377.6,91.5,377.5z"/>
				</g>
			</g>
			<g>
				<g>
					<path class="st5" d="M124,339.6c0,0,0,0.1,0,0.3c0,0.2,0,0.5,0,0.8c0,0.8-0.1,1.8-0.1,3.1c-0.1,2.7-0.4,6.5-0.6,11l0,0l0,0
						c-0.8,4.6-3.2,9.7-6.3,14.6c-2.3,3.6-4.7,6.9-6.8,10c-2.1,3.1-3.9,5.9-5.1,8.4c-1.2,2.5-2,4.7-2.4,6.2
						c-0.2,0.8-0.4,1.3-0.4,1.8c-0.1,0.4-0.2,0.6-0.2,0.6c0,0,0-0.2,0.1-0.6c0.1-0.4,0.2-1,0.4-1.8c0.4-1.5,1-3.7,2.3-6.3
						c1.2-2.6,3-5.4,5-8.5c2.1-3.1,4.5-6.4,6.8-10c3.1-4.9,5.5-9.9,6.3-14.4l0,0c0.3-4.5,0.6-8.3,0.8-11c0.1-1.3,0.2-2.3,0.2-3.1
						c0-0.3,0.1-0.6,0.1-0.8C124,339.7,124,339.6,124,339.6z"/>
				</g>
			</g>
			<g>
				<g>
					<path class="st14" d="M117.2,368.4c0,0,4.9-11.7-1.3-19.4c-0.2-0.3-0.6-0.2-0.7,0.1C114.7,351.1,113.7,357.1,117.2,368.4z"/>
				</g>
			</g>
			<g>
				<g>
					<g>
						<path class="st5" d="M116.3,353.1c0.1,0,0.2,0.8,0.4,2.2c0.2,1.4,0.4,3.3,0.5,5.4c0.2,2.1,0.2,4,0.2,5.4
							c0,1.4-0.1,2.2-0.1,2.2c-0.1,0-0.1-0.9-0.2-2.2c-0.1-1.6-0.2-3.4-0.4-5.4c-0.1-2-0.3-3.8-0.4-5.4
							C116.3,354,116.2,353.1,116.3,353.1z"/>
					</g>
				</g>
			</g>
			<g class="st15">
				<g>
					<path d="M117.2,368.4c0,0,4.9-11.7-1.3-19.4c-0.2-0.3-0.6-0.2-0.7,0.1C114.7,351.1,113.7,357.1,117.2,368.4z"/>
				</g>
			</g>
			<g>
				<g>
					<path class="st14" d="M102.1,396.7c0,0,3.9-12.1-2.8-19.2c-0.2-0.3-0.7-0.1-0.7,0.2C98.2,379.6,97.7,385.7,102.1,396.7z"/>
				</g>
			</g>
			<g>
				<g>
					<g>
						<path class="st5" d="M100,381.5c0.1,0,0.3,0.8,0.6,2.2c0.3,1.4,0.6,3.2,1,5.3c0.3,2.1,0.5,4,0.7,5.4c0.1,1.4,0.1,2.2,0,2.3
							c-0.1,0-0.2-0.8-0.4-2.2c-0.2-1.5-0.5-3.3-0.8-5.3c-0.3-2-0.6-3.8-0.8-5.3C100,382.3,99.9,381.5,100,381.5z"/>
					</g>
				</g>
			</g>
			<g class="st15">
				<g>
					<path d="M102.1,396.7c0,0,3.9-12.1-2.8-19.2c-0.2-0.3-0.7-0.1-0.7,0.2C98.2,379.6,97.7,385.7,102.1,396.7z"/>
				</g>
			</g>
			<g>
				<g>
					<path class="st14" d="M123.4,354.1c0,0,10.4-7.3,9.3-17c0-0.3-0.4-0.5-0.7-0.3C130.5,338.1,126.4,342.7,123.4,354.1z"/>
				</g>
			</g>
			<g class="st15">
				<g>
					<path d="M123.4,354.1c0,0,10.4-7.3,9.3-17c0-0.3-0.4-0.5-0.7-0.3C130.5,338.1,126.4,342.7,123.4,354.1z"/>
				</g>
			</g>
			<g>
				<g>
					<g>
						<path class="st5" d="M130.9,340.7c0.1,0-0.3,0.8-0.9,2.1c-0.6,1.3-1.5,3-2.5,4.8c-1,1.9-2,3.5-2.7,4.7
							c-0.7,1.2-1.3,1.9-1.3,1.8c-0.1,0,0.4-0.8,1-2c0.7-1.4,1.6-3,2.6-4.7c1-1.8,1.8-3.4,2.6-4.8
							C130.4,341.4,130.8,340.7,130.9,340.7z"/>
					</g>
				</g>
			</g>
			<g>
				<g>
					<path class="st14" d="M106.3,384.7c0,0,12.5-2,15.9-11.2c0.1-0.3-0.2-0.6-0.5-0.6C119.7,373.5,114.1,375.8,106.3,384.7z"/>
				</g>
			</g>
			<g class="st15">
				<g>
					<path d="M106.3,384.7c0,0,12.5-2,15.9-11.2c0.1-0.3-0.2-0.6-0.5-0.6C119.7,373.5,114.1,375.8,106.3,384.7z"/>
				</g>
			</g>
			<g>
				<g>
					<g>
						<path class="st5" d="M118.9,375.9c0,0.1-0.6,0.6-1.7,1.5c-1.1,0.9-2.6,2-4.3,3.3c-1.7,1.2-3.3,2.3-4.5,3c-1.2,0.7-2,1.1-2,1.1
							c0-0.1,0.7-0.5,1.8-1.3c1.3-0.9,2.8-2,4.4-3.1c1.6-1.2,3.1-2.2,4.4-3.1C118.1,376.4,118.9,375.9,118.9,375.9z"/>
					</g>
				</g>
			</g>
			<g>
				<g>
					<polygon class="st16" points="94.3,407.8 90.7,432.4 113.5,432.4 110.5,407.8 					"/>
				</g>
			</g>
			<g>
				<g>
					<g>
						<path class="st17" d="M111.4,415.4c0,0.1-4.1,0.2-9.2,0.2c-5.1,0-9.2-0.1-9.2-0.2c0-0.1,4.1-0.2,9.2-0.2
							C107.3,415.1,111.4,415.2,111.4,415.4z"/>
					</g>
				</g>
			</g>
			<g>
				<g>
					<g>
						<path class="st17" d="M111.9,417.3c0,0.1-4.2,0.2-9.5,0.2c-5.2,0-9.5-0.1-9.5-0.2c0-0.1,4.2-0.2,9.5-0.2
							C107.6,417.1,111.9,417.2,111.9,417.3z"/>
					</g>
				</g>
			</g>
		</g>
	</g>
</g>
</svg>
