<?xml version="1.0" encoding="utf-8"?>
<!-- Generator: Adobe Illustrator 22.0.1, SVG Export Plug-In . SVG Version: 6.00 Build 0)  -->
<svg version="1.1" xmlns="http://www.w3.org/2000/svg" xmlns:xlink="http://www.w3.org/1999/xlink" x="0px" y="0px"
	 viewBox="0 0 750 500" style="enable-background:new 0 0 750 500;" xml:space="preserve">
<style type="text/css">
	.st0{display:none;}
	.st1{display:inline;fill:#EBEBEB;}
	.st2{fill:#F8FAFF;}
	.st3{fill:#E8F0F9;}
	.st4{fill:#E1EBFD;}
	.st5{fill:#263238;}
	.st6{fill:#EB996E;}
	.st7{fill:#455A64;}
	.st8{fill:#F9F9F9;}
	.st9{fill:#EBEBEB;}
	.st10{fill:#E0E0E0;}
	.st11{fill:#F5F5F5;}
	.st12{fill:#FAFAFA;}
	.st13{fill:#304886;}
	.st14{fill:#6AAFFC;}
	.st15{opacity:0.3;}
	.st16{fill:#2E3B61;}
	.st17{fill:#FFFFFF;}
	.st18{fill:#4981C7;}
	.st19{fill:#FFBE9D;}
	.st20{fill:#2DB1FF;}
	.st21{opacity:0.2;}
	.st22{fill:#E8505B;}
	.st23{fill:#B78876;}
	.st24{fill:#AA6550;}
	.st25{fill:#9D473F;}
	.st26{opacity:0.5;fill:#FFFFFF;}
	.st27{fill:#4981C7;stroke:#6AAFFC;stroke-miterlimit:10;}
	.st28{opacity:0.7;}
	.st29{opacity:0.8;}
	.st30{opacity:0.5;}
	.st31{opacity:0.6;}
	.st32{opacity:0.4;}
	.st33{fill:#C8E5FC;}
	.st34{fill:#9FD6FF;}
</style>
<g id="Background_Complete">
</g>
<g id="Background_Simple" class="st0">
	<path class="st1" d="M622.9,135.2l-1.7-3.9C601.7,87.1,559.3,56.8,511,54.1c-4.5-0.2-9-0.3-13.5,0c-43.2,2.3-84.3,27.2-105.4,63.9
		c-12.4,21.6-18.8,47.6-38.5,63.2c-25.6,20.4-63,15.5-95.6,9.5c-32.6-5.9-79-16.4-104.5,4c-15.9,12.8-31.9,39.3-34.3,59.4
		c-9.6,81.8,24.5,106.2,67.6,142.4c41.9,35.2,123.8,36,178.8,33.8c76.9-3.2,154-32.1,206-87C623.6,288.5,647.1,206.6,622.9,135.2z"
		/>
</g>
<g id="Floor">
</g>
<g id="Plant">
</g>
<g id="Speech_Bubble">
</g>
<g id="Bullseye">
</g>
<g id="Graphics">
</g>
<g id="Character_2">
</g>
<g id="Character_1">
	<path class="st8" d="M53,434.3C36.5,206.5,187.9,25,371.3,25s368.7,173.1,345.6,409.3"/>
	<g>
		<g>
			<g>
				<g>
					<path class="st9" d="M449,350.2h39.1c2.8,0,5-2.2,5-5v-12c0-4.6-3.8-8.4-8.4-8.4h-36L449,350.2z"/>
				</g>
			</g>
			<g>
				<g>
					<g>
						<g>
							<path class="st9" d="M487.4,357.8h-76.9c-2.1,0-3.8-1.7-3.8-3.8l0,0c0-2.1,1.7-3.8,3.8-3.8h76.9c2.1,0,3.8,1.7,3.8,3.8l0,0
								C491.2,356.1,489.5,357.8,487.4,357.8z"/>
						</g>
					</g>
					<g>
						<g>
							<path class="st10" d="M394.9,249.3l42.3-0.7L464,350l-57.2,0.6l-21.6-88.9C383.7,255.3,388.4,249.3,394.9,249.3z"/>
						</g>
					</g>
					<g>
						<g>
							<polygon class="st9" points="416,357.8 403.3,431.3 406.8,431.3 423.4,357.8 							"/>
						</g>
					</g>
					<g>
						<g>
							<polygon class="st10" points="445.8,357.8 432.3,431.3 435.8,431.3 453.2,357.8 							"/>
						</g>
					</g>
					<g>
						<g>
							<polygon class="st9" points="478.8,357.8 493.8,431.3 490.3,431.3 471.3,357.8 							"/>
						</g>
					</g>
				</g>
			</g>
			<g>
				<g>
					<path class="st9" d="M432.3,248.5l20.9,101.5h16l-16.8-89.7c-1.3-6.8-7.2-11.8-14.2-11.8H432.3z"/>
				</g>
			</g>
		</g>
	</g>
	<g>
		<g>
			<g>
				<g>
					<g>
						
							<rect x="497.3" y="282.7" transform="matrix(-1 -1.224647e-16 1.224647e-16 -1 1052.387 568.1312)" class="st9" width="57.9" height="2.8"/>
					</g>
				</g>
				<g>
					<g>
						<polygon class="st9" points="564.1,285.5 575,244.8 529.8,244.8 519.9,285.5 						"/>
					</g>
				</g>
			</g>
			<g>
				<g>
					<polygon class="st10" points="522.6,282.4 563,282.4 572.4,246.7 531.8,246.7 					"/>
				</g>
			</g>
		</g>
		<g>
			<g>
				<g>
					<g>
						<rect x="485.8" y="293.8" class="st11" width="2.9" height="139.5"/>
					</g>
				</g>
				<g>
					<g>
						<rect x="488.7" y="294.2" class="st9" width="2.9" height="139.1"/>
					</g>
				</g>
			</g>
			<g>
				<g>
					<g>
						<rect x="665.9" y="293.8" class="st9" width="2.9" height="139.5"/>
					</g>
				</g>
				<g>
					<g>
						<rect x="668.8" y="294.2" class="st10" width="2.9" height="139.1"/>
					</g>
				</g>
			</g>
			<g>
				<g>
					<rect x="473.2" y="285.7" class="st10" width="222" height="11.4"/>
				</g>
			</g>
			<g>
				<g>
					<rect x="569.6" y="297.1" class="st9" width="97.7" height="18.9"/>
				</g>
			</g>
			<g>
				<g>
					<path class="st10" d="M622.8,305.3c0,1.2-1,2.2-2.2,2.2c-1.2,0-2.2-1-2.2-2.2c0-1.2,1-2.2,2.2-2.2
						C621.8,303.1,622.8,304.1,622.8,305.3z"/>
				</g>
			</g>
		</g>
	</g>
	<g>
		<g>
			<g>
				<path class="st9" d="M316.9,341.7c4.8-2.5,10.5-2.8,15.9-1.9c2.9,0.5,5.9,1.3,7.9,3.5c2,2.2,2.3,6,0.1,7.8
					c-1.3,1.1-3.2,1.3-5,1.3c-4.2,0-8.9-0.8-12.2,1.7c-1.9,1.4-3.2,3.8-5.5,4.5c-2.2,0.7-4.8-0.6-6-2.7c-1.2-2-1.2-4.5-0.7-6.8
					C311.4,349.2,312,344.2,316.9,341.7z"/>
			</g>
			<g>
				<path class="st9" d="M305.8,320.3c3,4.2,8.7,2.8,11.4,0.2c2.7-2.6,3.8-6.3,4.8-9.9c2.3-8.1,4.7-16.7,3-25
					c-0.5-2.5-1.4-4.9-3.2-6.8c-1.7-1.8-4.4-2.9-6.9-2.3c-2.9,0.8-4.7,3.6-6,6.3c-3.8,7.9-5.9,16.7-5.9,25.5
					C303,312.6,303.5,316.9,305.8,320.3"/>
			</g>
			<g>
				<path class="st9" d="M297.7,326.4c3.2-3.8,3.8-9.4,2.4-14.1c-1.4-4.8-4.7-8.8-8.4-12.1c-4.4-3.9-9.5-6.9-15-8.8
					c-2.2-0.8-4.5-1.4-6.7-1.1c-2.3,0.2-4.6,1.4-5.7,3.4c-1.6,3-0.1,6.7,1.6,9.6c2.9,5.2,6.2,10.3,9.8,15c3,3.8,6.3,7.6,10.8,9.3
					c4.5,1.7,9.2,1.5,11.6-1.6"/>
			</g>
			<g>
				<g>
					<path class="st10" d="M305.6,384c0.1,0,0.1-0.7,0.3-1.9c0.1-1.4,0.3-3.2,0.5-5.2c0.2-2.2,0.6-4.8,1.2-7.7
						c0.6-2.8,1.6-5.9,2.8-9.1c1.3-3.1,2.8-5.9,4.6-8.2c1.8-2.3,3.9-3.9,5.9-4.9c2-1,3.7-1.4,4.9-1.5c1.2-0.1,1.9-0.2,1.9-0.3
						c0-0.1-0.7-0.1-1.9,0c-1.2,0.1-3.1,0.4-5.1,1.3c-2.1,0.9-4.3,2.6-6.2,4.9c-1.9,2.3-3.5,5.2-4.8,8.4c-1.2,3.2-2.2,6.3-2.8,9.2
						c-0.6,2.9-0.8,5.6-1,7.8c-0.2,2.2-0.2,4-0.3,5.3C305.5,383.3,305.6,384,305.6,384z"/>
				</g>
			</g>
			<g>
				<g>
					<path class="st10" d="M306,380c0,0,0-0.3,0.1-0.9c0-0.7,0-1.5,0-2.5c0-2.2,0-5.4,0.1-9.4c0.2-7.9,0.9-16.4,2.2-28.4
						c1.2-11.3,2.9-24.4,4.7-32.9c0.4-1.9,0.8-3.7,1.1-5.2c0.3-1.5,0.6-2.9,0.9-3.9c0.2-1,0.4-1.8,0.6-2.5c0.1-0.6,0.2-0.9,0.2-0.9
						c0,0-0.1,0.3-0.3,0.8c-0.2,0.6-0.4,1.4-0.7,2.4c-0.3,1.1-0.7,2.4-1,3.9c-0.4,1.5-0.8,3.3-1.2,5.2c-1.7,7.7-3.6,18.5-4.9,30.5
						c-1.3,12-1.9,22.9-2,30.9c0,4,0,7.2,0.1,9.4c0.1,1,0.1,1.9,0.2,2.5C305.9,379.7,306,380,306,380z"/>
				</g>
			</g>
			<g>
				<g>
					<path class="st10" d="M306,358.9c0.1,0,0-0.9,0-2.7c-0.1-1.7-0.3-4.2-0.8-7.2c-0.5-3-1.2-6.6-2.3-10.5c-0.5-1.8-1.6-6-4.4-12.4
						c-3.6-8.6-8.6-15.7-12.9-20.1c-1-1.2-2.1-2-3-2.8c-0.5-0.4-0.9-0.8-1.3-1.1c-0.4-0.3-0.8-0.6-1.2-0.8c-1.4-1-2.2-1.5-2.2-1.4
						c-0.1,0.2,3.2,2.1,7.3,6.5c4.1,4.4,9,11.4,12.6,20c2,4.6,3.4,8.8,4.4,12.3c1.2,3.9,1.9,7.4,2.5,10.4c0.5,3,0.9,5.4,1.1,7.1
						C305.9,358,306,358.9,306,358.9z"/>
				</g>
			</g>
		</g>
		<g>
			<polygon class="st10" points="285.7,396.1 287.8,425 324.9,425 327.1,396.1 			"/>
		</g>
		<g>
			<rect x="282.1" y="384.7" class="st10" width="49.4" height="11.4"/>
		</g>
		<g>
			<polygon class="st9" points="282.1,423.9 282.1,427.1 284.4,427.1 330.7,427.1 330.7,423.9 			"/>
		</g>
		<g>
			<polygon class="st10" points="286.7,432.7 284.4,427.1 328.9,427.1 326.3,432.7 			"/>
		</g>
		<g>
			<g>
				<path class="st11" d="M326.4,405.6c0,0-0.1,0.1-0.2,0.3c-0.1,0.2-0.3,0.4-0.6,0.7c-0.5,0.7-1.3,1.6-2.2,2.8l-0.1,0.1l-0.1-0.1
					c-1.4-1.9-3.2-4.4-5.3-7.4h0.3c-1.6,2.2-3.3,4.7-5.2,7.4l-0.2,0.2l-0.2-0.2c-1.9-2.3-4-4.8-6.2-7.4l0.4,0
					c-0.1,0.1-0.2,0.3-0.3,0.4c-1.9,2.4-3.8,4.8-5.6,7l-0.2,0.2l-0.2-0.2c-1.9-2.7-3.6-5.2-5.2-7.4l0.3,0c-2.6,2.9-4.8,5.4-6.5,7.4
					l-0.1,0.1l-0.1-0.1c-0.9-1.4-1.5-2.6-2-3.4c-0.2-0.4-0.4-0.7-0.5-0.9c-0.1-0.2-0.2-0.3-0.2-0.3c0,0,0.1,0.1,0.2,0.3
					c0.2,0.2,0.3,0.5,0.6,0.9c0.5,0.8,1.2,1.9,2.1,3.3l-0.2,0c1.7-1.9,3.8-4.5,6.4-7.4l0.2-0.2l0.1,0.2c1.6,2.2,3.4,4.7,5.3,7.4
					l-0.4,0c1.8-2.2,3.6-4.6,5.5-7c0.1-0.1,0.2-0.3,0.3-0.4l0.2-0.2l0.2,0.2c2.2,2.6,4.3,5.1,6.2,7.4l-0.3,0
					c1.9-2.7,3.7-5.2,5.3-7.4l0.2-0.2l0.2,0.2c2.1,3,3.9,5.5,5.2,7.4l-0.2,0c0.9-1.1,1.7-2,2.3-2.7c0.2-0.3,0.4-0.5,0.6-0.7
					C326.3,405.6,326.4,405.6,326.4,405.6z"/>
			</g>
		</g>
		<g>
			<g>
				<path class="st11" d="M327.6,395.9c0,0.1-9.3,0.2-20.8,0.2c-11.5,0-20.8-0.1-20.8-0.2c0-0.1,9.3-0.2,20.8-0.2
					C318.3,395.7,327.6,395.8,327.6,395.9z"/>
			</g>
		</g>
		<g>
			<g>
				<path class="st11" d="M329.5,427.4c0,0.1-10.1,0.2-22.6,0.2c-12.5,0-22.6-0.1-22.6-0.2c0-0.1,10.1-0.2,22.6-0.2
					C319.3,427.2,329.5,427.3,329.5,427.4z"/>
			</g>
		</g>
	</g>
	<g>
		<g>
			<path class="st5" d="M668.2,433.7c0,0.1-127.1,0.3-284,0.3c-156.9,0-284-0.1-284-0.3c0-0.1,127.1-0.3,284-0.3
				C541,433.5,668.2,433.6,668.2,433.7z"/>
		</g>
	</g>
	<g>
		<g>
			<path class="st12" d="M600.4,160.4H486.5c-2.7,0-4.9-2.2-4.9-4.9v-107c0-2.7,2.2-4.9,4.9-4.9h113.9c2.7,0,4.9,2.2,4.9,4.9v107
				C605.4,158.2,603.1,160.4,600.4,160.4z"/>
		</g>
		<g>
			<g>
				<path class="st5" d="M600.4,160.4c0,0,0.4,0,1.2-0.2c0.8-0.2,1.9-0.7,2.8-2c0.4-0.6,0.8-1.5,0.8-2.4c0-1,0-2,0-3.2
					c0-2.3,0-5,0-8c0-12,0-29.3-0.1-50.7c0-10.7,0-22.4,0-35c0-3.1,0-6.3,0-9.6c0-0.8,0-1.6-0.2-2.4c-0.2-0.7-0.7-1.4-1.2-2
					c-0.6-0.5-1.3-0.9-2-1.1c-0.8-0.2-1.6-0.1-2.4-0.2c-6.7,0-13.6,0-20.7,0c-28.3,0-59.4,0-92,0c-2,0-3.8,1.3-4.4,3.1
					c-0.3,0.9-0.3,1.9-0.3,2.9l0,3c0,4,0,8,0,12c0,7.9,0,15.8,0,23.5c0,15.4,0,30.2,0,44.4c0,7.1,0,14,0,20.7c0,0.8,0,1.7,0,2.5
					c0.1,0.8,0.4,1.6,0.8,2.2c0.9,1.3,2.4,2.1,4,2.1c3.2,0,6.4,0,9.6,0c12.6,0,24.3,0,35,0c21.4,0,38.7,0.1,50.7,0.1
					c6,0,10.6,0,13.8,0c1.6,0,2.8,0,3.6,0C600,160.4,600.4,160.4,600.4,160.4s-0.4,0-1.2,0c-0.8,0-2,0-3.6,0c-3.2,0-7.8,0-13.8,0
					c-12,0-29.3,0-50.7,0.1c-10.7,0-22.4,0-35,0c-3.1,0-6.3,0-9.6,0c-1.7,0-3.4-0.8-4.4-2.3c-0.5-0.7-0.8-1.6-0.9-2.4
					c0-0.9,0-1.7,0-2.5c0-6.7,0-13.6,0-20.7c0-14.1,0-29,0-44.4c0-7.7,0-15.5,0-23.5c0-4,0-8,0-12l0-3l0-1.5c0-0.5,0.1-1.1,0.3-1.6
					c0.7-2,2.7-3.5,4.9-3.5c32.6,0,63.7,0,92,0c7.1,0,14,0,20.7,0l1.3,0c0.4,0,0.9,0.1,1.3,0.2c0.8,0.2,1.6,0.7,2.2,1.3
					c0.6,0.6,1.1,1.3,1.4,2.2c0.3,0.8,0.2,1.7,0.2,2.5c0,3.2,0,6.4,0,9.6c0,12.6,0,24.3,0,35c0,21.4-0.1,38.7-0.1,50.7
					c0,3,0,5.6,0,8c0,1.2,0,2.2,0,3.2c-0.1,1-0.4,1.8-0.9,2.5c-0.9,1.3-2.1,1.8-2.9,2C600.8,160.4,600.4,160.4,600.4,160.4z"/>
			</g>
		</g>
	</g>
	<path class="st13" d="M568.6,160.7c0,0,0.6-7.9,12-5.9c3,0.5,5.1-4.8,10-2.9c10.6,4.1,11.2-1.3,14.3,6.3c1.3,3.2,9.5,6.9,7,12.5
		c-2.5,5.5,1.7,9.2-1.3,13.6c-1.5,2.2-0.9,6.2-8.1,6.4c-3.6,0.1-9.1,6.7-13.1,7.9c-4,1.2-16-0.5-15.6-6c0.4-4.3-4.6-3.9-7.7-8.9
		c-2.7-4.3,2.1-5.4-0.5-12.4C563.9,166.2,568.8,165,568.6,160.7z"/>
	<g>
		<g>
			<path class="st5" d="M113.9,412.6c0,0,0-0.1,0.1-0.3c0.1-0.2,0.3-0.6,0.4-1c0.4-0.8,0.9-2.1,1.3-3.8c0.9-3.4,1.2-8.6-0.1-14.8
				c-0.6-3.1-1.6-6.4-2.7-9.9c-1.2-3.5-2.5-7.3-3.6-11.3c-1.1-4-1.9-8.4-1.8-13c0.2-4.6,1.5-9.2,3-13.7c1.5-4.6,3-9,3.5-13.5
				c0.5-4.5-0.4-8.9-2.5-12.5c-2-3.6-4.5-6.8-6.3-10c-1.9-3.2-3.1-6.5-3.8-9.6c-1.4-6.2-0.9-11.4-0.2-14.9c0.7-3.5,1.6-5.3,1.6-5.3
				c0,0,0,0.1-0.1,0.3c-0.1,0.2-0.2,0.6-0.3,1c-0.3,0.9-0.6,2.2-1,3.9c-0.6,3.4-1.1,8.6,0.4,14.8c0.7,3,1.9,6.3,3.8,9.5
				c1.9,3.2,4.4,6.3,6.4,10c2.1,3.7,3.1,8.2,2.6,12.8c-0.5,4.6-2,9.1-3.5,13.6c-1.5,4.6-2.8,9.1-3,13.6c-0.2,4.5,0.7,8.8,1.7,12.9
				c1.1,4,2.4,7.8,3.6,11.3c1.2,3.5,2.1,6.9,2.7,10c1.3,6.2,0.9,11.5,0,14.9c-0.5,1.7-1,3-1.4,3.8c-0.2,0.4-0.4,0.7-0.5,0.9
				C114,412.5,113.9,412.6,113.9,412.6z"/>
		</g>
		<g>
			<path class="st14" d="M107.8,311.8c0,0-3.8-12.1,3-19.2c0.2-0.2,0.7-0.1,0.7,0.2C111.9,294.8,112.4,300.9,107.8,311.8z"/>
		</g>
		<g>
			<g>
				<path class="st5" d="M110.1,296.7c0.1,0,0,0.9-0.3,2.2c-0.2,1.5-0.5,3.3-0.9,5.3c-0.3,2-0.6,3.8-0.8,5.3
					c-0.2,1.4-0.3,2.2-0.4,2.2c-0.1,0-0.1-0.9,0.1-2.3c0.1-1.4,0.4-3.3,0.7-5.4c0.3-2.1,0.7-4,1-5.3
					C109.8,297.5,110,296.7,110.1,296.7z"/>
			</g>
		</g>
		<g>
			<path class="st14" d="M112.3,340.4c0,0,2.3-12.5,11.6-15.6c0.3-0.1,0.6,0.2,0.5,0.5C123.8,327.3,121.4,332.9,112.3,340.4z"/>
		</g>
		<g>
			<g>
				<path class="st5" d="M121.4,328.1c0.1,0-0.4,0.7-1.3,1.9c-0.9,1.2-2,2.7-3.3,4.3c-1.2,1.6-2.3,3.1-3.2,4.3
					c-0.8,1.1-1.3,1.8-1.4,1.8c-0.1,0,0.4-0.8,1.1-2c0.8-1.2,1.9-2.7,3.1-4.4c1.3-1.7,2.5-3.2,3.4-4.2
					C120.7,328.6,121.3,328,121.4,328.1z"/>
			</g>
		</g>
		<g>
			<path class="st14" d="M109.8,371.7c0,0-1.4-12.6,6.6-18.3c0.3-0.2,0.7,0,0.7,0.3C117,355.8,116.3,361.9,109.8,371.7z"/>
		</g>
		<g>
			<g>
				<path class="st5" d="M114.9,357.2c0.1,0-0.2,0.8-0.7,2.1c-0.5,1.5-1.2,3.2-1.9,5.1c-0.7,1.9-1.3,3.6-1.9,5.1
					c-0.5,1.3-0.7,2.1-0.8,2.1c-0.1,0,0.1-0.9,0.5-2.2c0.4-1.3,1-3.2,1.7-5.1c0.7-2,1.5-3.8,2-5C114.4,358,114.8,357.2,114.9,357.2z
					"/>
			</g>
		</g>
		<g>
			<path class="st14" d="M116.8,403.2c0,0-1-12.7,7.3-18c0.3-0.2,0.7,0,0.7,0.4C124.6,387.5,123.7,393.6,116.8,403.2z"/>
		</g>
		<g>
			<g>
				<path class="st5" d="M122.4,388.9c0.1,0-0.2,0.8-0.8,2.1c-0.6,1.4-1.3,3.1-2,5c-0.8,1.9-1.4,3.6-2,5c-0.5,1.3-0.8,2.1-0.9,2.1
					c-0.1,0,0.1-0.9,0.6-2.2c0.4-1.3,1.1-3.1,1.9-5.1c0.8-2,1.6-3.7,2.2-5C121.9,389.6,122.4,388.9,122.4,388.9z"/>
			</g>
		</g>
		<path class="st14" d="M102.4,301.2c0,0-11.2-5.9-11.5-15.7c0-0.3,0.4-0.6,0.7-0.4C93.2,286.3,97.9,290.3,102.4,301.2z"/>
		<g>
			<path class="st5" d="M93.3,288.9c0.1,0,0.6,0.6,1.4,1.8c0.9,1.3,2,2.7,3.2,4.4c1.2,1.6,2.3,3.1,3.2,4.4c0.8,1.1,1.3,1.8,1.3,1.8
				c0,0-0.7-0.6-1.5-1.6c-0.9-1.1-2.1-2.6-3.3-4.3c-1.2-1.7-2.3-3.3-3.1-4.5C93.6,289.7,93.2,288.9,93.3,288.9z"/>
		</g>
		<g>
			<path class="st14" d="M114.5,327.2c0,0-11.6-5.2-12.4-15c0-0.3,0.3-0.6,0.6-0.4C104.4,312.9,109.3,316.6,114.5,327.2z"/>
		</g>
		<g>
			<g>
				<path class="st5" d="M104.6,315.5c0.1,0,0.6,0.6,1.5,1.7c1,1.2,2.1,2.6,3.4,4.2c1.3,1.6,2.4,3,3.4,4.2c0.9,1.1,1.4,1.7,1.4,1.8
					c0,0-0.7-0.5-1.6-1.5c-1-1-2.2-2.5-3.6-4.1c-1.3-1.6-2.5-3.2-3.3-4.3C105,316.2,104.6,315.5,104.6,315.5z"/>
			</g>
		</g>
		<g>
			<path class="st14" d="M107.8,356.2c0,0-8-9.9-4.2-19c0.1-0.3,0.6-0.4,0.7-0.1C105.4,338.9,108,344.4,107.8,356.2z"/>
		</g>
		<g>
			<g>
				<path class="st5" d="M104.4,341.3c0.1,0,0.3,0.8,0.6,2.2c0.3,1.5,0.7,3.3,1.1,5.3c0.4,2,0.8,3.8,1.2,5.3
					c0.3,1.3,0.5,2.2,0.4,2.2c-0.1,0-0.4-0.8-0.8-2.1c-0.4-1.3-0.9-3.2-1.3-5.3c-0.4-2.1-0.8-4-1-5.3
					C104.4,342.1,104.3,341.3,104.4,341.3z"/>
			</g>
		</g>
		<g>
			<path class="st14" d="M115.7,390.3c0,0-11.5-5.4-12.1-15.2c0-0.3,0.3-0.6,0.6-0.4C105.9,375.9,110.7,379.6,115.7,390.3z"/>
		</g>
		<g>
			<g>
				<path class="st5" d="M106,378.4c0.1,0,0.6,0.6,1.5,1.7c1,1.2,2.1,2.7,3.4,4.2c1.3,1.6,2.4,3,3.4,4.2c0.9,1.1,1.4,1.7,1.4,1.8
					c0,0-0.7-0.5-1.6-1.6c-0.9-1-2.2-2.5-3.5-4.2c-1.3-1.7-2.5-3.2-3.3-4.3C106.4,379.2,106,378.5,106,378.4z"/>
			</g>
		</g>
		<g>
			<g>
				<path class="st5" d="M138.6,340.5c0,0,0,0.1,0,0.3c0,0.2,0,0.5,0,0.8c0,0.8-0.1,1.8-0.1,3.1c-0.1,2.7-0.4,6.5-0.6,11l0,0l0,0
					c-0.8,4.6-3.2,9.7-6.3,14.6c-2.3,3.6-4.7,6.9-6.8,10c-2.1,3.1-3.9,5.9-5.1,8.4c-1.2,2.5-2,4.7-2.4,6.2c-0.2,0.8-0.4,1.3-0.4,1.8
					c-0.1,0.4-0.2,0.6-0.2,0.6c0,0,0-0.2,0.1-0.6c0.1-0.4,0.2-1,0.4-1.8c0.4-1.5,1-3.7,2.3-6.3c1.2-2.6,3-5.4,5-8.5
					c2.1-3.1,4.5-6.4,6.8-10c3.1-4.9,5.5-9.9,6.3-14.4l0,0c0.3-4.5,0.6-8.3,0.8-11c0.1-1.3,0.2-2.3,0.2-3.1c0-0.3,0.1-0.6,0.1-0.8
					C138.5,340.6,138.6,340.5,138.6,340.5z"/>
			</g>
		</g>
		<g>
			<g>
				<path class="st14" d="M131.7,369.3c0,0,4.9-11.7-1.3-19.4c-0.2-0.3-0.6-0.2-0.7,0.1C129.2,352,128.2,358.1,131.7,369.3z"/>
			</g>
		</g>
		<g>
			<g>
				<g>
					<path class="st5" d="M130.8,354c0.1,0,0.2,0.8,0.4,2.2c0.2,1.4,0.4,3.3,0.5,5.4c0.2,2.1,0.2,4,0.2,5.4c0,1.4-0.1,2.2-0.1,2.2
						c-0.1,0-0.1-0.9-0.2-2.2c-0.1-1.6-0.2-3.4-0.4-5.4c-0.1-2-0.3-3.8-0.4-5.4C130.8,354.9,130.8,354,130.8,354z"/>
				</g>
			</g>
		</g>
		<g class="st15">
			<g>
				<path d="M131.7,369.3c0,0,4.9-11.7-1.3-19.4c-0.2-0.3-0.6-0.2-0.7,0.1C129.2,352,128.2,358.1,131.7,369.3z"/>
			</g>
		</g>
		<g>
			<g>
				<path class="st14" d="M116.7,397.6c0,0,3.9-12.1-2.8-19.2c-0.2-0.3-0.7-0.1-0.7,0.2C112.7,380.5,112.2,386.6,116.7,397.6z"/>
			</g>
		</g>
		<g>
			<g>
				<g>
					<path class="st5" d="M114.5,382.4c0.1,0,0.3,0.8,0.6,2.2c0.3,1.4,0.6,3.2,1,5.3c0.3,2.1,0.5,4,0.7,5.4c0.1,1.4,0.1,2.2,0,2.3
						c-0.1,0-0.2-0.8-0.4-2.2c-0.2-1.5-0.5-3.3-0.8-5.3c-0.3-2-0.6-3.8-0.8-5.3C114.6,383.2,114.5,382.4,114.5,382.4z"/>
				</g>
			</g>
		</g>
		<g class="st15">
			<g>
				<path d="M116.7,397.6c0,0,3.9-12.1-2.8-19.2c-0.2-0.3-0.7-0.1-0.7,0.2C112.7,380.5,112.2,386.6,116.7,397.6z"/>
			</g>
		</g>
		<g>
			<g>
				<path class="st14" d="M137.9,355c0,0,10.4-7.3,9.3-17c0-0.3-0.4-0.5-0.7-0.3C145.1,339.1,141,343.6,137.9,355z"/>
			</g>
		</g>
		<g class="st15">
			<g>
				<path d="M137.9,355c0,0,10.4-7.3,9.3-17c0-0.3-0.4-0.5-0.7-0.3C145.1,339.1,141,343.6,137.9,355z"/>
			</g>
		</g>
		<g>
			<g>
				<g>
					<path class="st5" d="M145.4,341.6c0.1,0-0.3,0.8-0.9,2.1c-0.6,1.3-1.5,3-2.5,4.8c-1,1.9-2,3.5-2.7,4.7
						c-0.7,1.2-1.3,1.9-1.3,1.8c-0.1,0,0.4-0.8,1-2c0.7-1.4,1.6-3,2.6-4.7c1-1.8,1.8-3.4,2.6-4.8
						C144.9,342.3,145.3,341.6,145.4,341.6z"/>
				</g>
			</g>
		</g>
		<g>
			<g>
				<path class="st14" d="M120.8,385.6c0,0,12.5-2,15.9-11.2c0.1-0.3-0.2-0.6-0.5-0.6C134.3,374.4,128.6,376.7,120.8,385.6z"/>
			</g>
		</g>
		<g class="st15">
			<g>
				<path d="M120.8,385.6c0,0,12.5-2,15.9-11.2c0.1-0.3-0.2-0.6-0.5-0.6C134.3,374.4,128.6,376.7,120.8,385.6z"/>
			</g>
		</g>
		<g>
			<g>
				<g>
					<path class="st5" d="M133.4,376.9c0,0.1-0.6,0.6-1.7,1.5c-1.1,0.9-2.6,2-4.3,3.3c-1.7,1.2-3.3,2.3-4.5,3c-1.2,0.7-2,1.1-2,1.1
						c0-0.1,0.7-0.5,1.8-1.3c1.3-0.9,2.8-2,4.4-3.1c1.6-1.2,3.1-2.2,4.4-3.1C132.7,377.3,133.4,376.8,133.4,376.9z"/>
				</g>
			</g>
		</g>
		<g>
			<g>
				<polygon class="st16" points="108.9,408.7 105.2,433.3 128,433.3 125.1,408.7 				"/>
			</g>
		</g>
		<g>
			<g>
				<g>
					<path class="st17" d="M126,416.3c0,0.1-4.1,0.2-9.2,0.2c-5.1,0-9.2-0.1-9.2-0.2c0-0.1,4.1-0.2,9.2-0.2
						C121.9,416,126,416.2,126,416.3z"/>
				</g>
			</g>
		</g>
		<g>
			<g>
				<g>
					<path class="st17" d="M126.4,418.2c0,0.1-4.2,0.2-9.5,0.2c-5.2,0-9.5-0.1-9.5-0.2c0-0.1,4.2-0.2,9.5-0.2
						C122.2,418,126.4,418.1,126.4,418.2z"/>
				</g>
			</g>
		</g>
	</g>
	<g>
		<g>
			<g>
				<path class="st5" d="M124.6,170.4c0,0,0.2,0.1,0.4,0.4c0.3,0.3,0.7,0.7,1.2,1.2c1.1,1,2.9,2.4,5.4,3.7c0.7,0.3,1.3,0.6,2.1,0.9
					c0.4,0.1,0.8,0.3,1.1,0.4c0.4,0.1,0.8,0.2,1.2,0.3c0.8,0.2,1.7,0.3,2.6,0.5c0.5,0,0.9,0.1,1.4,0.1c0.5,0,1,0,1.5,0
					c4,0,8.5-1.3,12.6-4.1l0.1-0.1l0.1,0c3.4,0.7,7.2,1.4,11.1,2.1l-0.2,0.4c-2-2.2-4-4.6-6.1-7l-0.1-0.1l0.1-0.2
					c1-1.5,2-3.1,2.7-4.8c0.7-1.7,1.2-3.6,1.4-5.5c0.5-3.8,0-7.9-1.7-11.6c-2.1-4.8-5.9-8.7-10.3-10.9c-4.4-2.2-9.4-2.9-13.9-2
					c-2.2,0.4-4.4,1.1-6.3,2.1c-1.9,1-3.6,2.2-5.1,3.7c-3,2.8-4.8,6.2-5.8,9.5c-1,3.3-1.2,6.5-0.8,9.2c0.3,2.7,1.2,5,2,6.7
					c0.2,0.4,0.4,0.8,0.6,1.2c0.2,0.4,0.4,0.7,0.6,1c0.4,0.6,0.7,1.2,1,1.6c0.3,0.4,0.5,0.7,0.7,0.9
					C124.5,170.2,124.6,170.4,124.6,170.4c0,0-0.1-0.1-0.3-0.3c-0.2-0.2-0.4-0.5-0.7-0.9c-0.3-0.4-0.7-0.9-1.1-1.5
					c-0.2-0.3-0.4-0.6-0.6-1c-0.2-0.4-0.4-0.8-0.6-1.2c-0.8-1.8-1.7-4-2.1-6.8c-0.4-2.8-0.3-6,0.8-9.4c1-3.3,2.9-6.8,5.9-9.7
					c2.9-2.9,7-5.1,11.5-6c4.6-0.9,9.7-0.2,14.2,2c4.5,2.3,8.4,6.2,10.6,11.2c1.7,3.8,2.2,8,1.7,11.9c-0.3,2-0.8,3.8-1.5,5.6
					c-0.7,1.8-1.7,3.4-2.7,4.9l0-0.3c2.1,2.4,4.2,4.8,6.1,7.1l0.4,0.5l-0.7-0.1c-3.9-0.8-7.7-1.5-11.1-2.2l0.2,0
					c-4.1,2.9-8.8,4.1-12.8,4.1c-0.5,0-1,0-1.5,0c-0.5,0-1-0.1-1.4-0.1c-0.9-0.2-1.8-0.3-2.7-0.5c-0.4-0.1-0.8-0.2-1.2-0.3
					c-0.4-0.1-0.8-0.3-1.2-0.4c-0.8-0.2-1.4-0.6-2.1-0.9c-2.6-1.3-4.3-2.8-5.4-3.8c-0.5-0.5-0.9-1-1.2-1.3
					C124.7,170.5,124.6,170.4,124.6,170.4z"/>
			</g>
		</g>
		<g>
			<polygon class="st5" points="141.2,151.1 144.9,149.8 148.7,148.6 147.9,152.4 147.1,156.3 145,154.5 136.2,164.4 134.4,162.8 
				143.2,152.9 			"/>
		</g>
	</g>
	<g>
		<circle class="st18" cx="246" cy="83.8" r="49.1"/>
	</g>
	<g>
		<path class="st17" d="M246,124.7c-22.6,0-40.9-18.3-40.9-40.9s18.3-40.9,40.9-40.9s40.9,18.3,40.9,40.9S268.6,124.7,246,124.7z
			 M246,49.9c-18.7,0-33.9,15.2-33.9,33.9c0,18.7,15.2,33.9,33.9,33.9s33.9-15.2,33.9-33.9C279.9,65.1,264.7,49.9,246,49.9z"/>
	</g>
	<g>
		<path class="st17" d="M245.7,97.8c-8.3,0-15.1-6.8-15.1-15.1c0-8.3,6.8-15.1,15.1-15.1c8.3,0,15.1,6.8,15.1,15.1
			C260.8,91,254,97.8,245.7,97.8z M245.7,74.6c-4.4,0-8.1,3.6-8.1,8.1c0,4.4,3.6,8.1,8.1,8.1c4.4,0,8.1-3.6,8.1-8.1
			C253.8,78.3,250.2,74.6,245.7,74.6z"/>
	</g>
	<g>
		<polygon class="st16" points="245.7,82.7 226.7,82.7 230,88.6 185.2,109.1 186.7,111.6 231.7,91.3 234.8,97.2 		"/>
	</g>
	<g>
		<path class="st16" d="M185.2,109.1l-0.5-0.5c-2.3-2.3-5.7-3.1-8.9-2.2l-17.9,5.2l10,4.4l-4,10.6l16.8-6c3.8-1.3,6.2-5,6-9l0,0
			L185.2,109.1z"/>
	</g>
	<g>
		<rect x="503.2" y="90.3" class="st14" width="6.7" height="57.3"/>
	</g>
	<g>
		<rect x="533.5" y="85.7" class="st14" width="6.7" height="62"/>
	</g>
	<g>
		<rect x="564.9" y="77.8" class="st14" width="6.7" height="69.9"/>
	</g>
	<g>
		<rect x="550.2" y="119.7" class="st16" width="6.7" height="27.9"/>
	</g>
	<g>
		<rect x="510.9" y="84.2" class="st18" width="6.7" height="63.5"/>
	</g>
	<g>
		<rect x="541.8" y="70.9" class="st18" width="6.7" height="76.8"/>
	</g>
	<g>
		<rect x="582.1" y="70.9" class="st16" width="6.7" height="76.8"/>
	</g>
	<g>
		<rect x="573.8" y="55.7" class="st18" width="6.7" height="92"/>
	</g>
	<g>
		<rect x="519.1" y="107.4" class="st16" width="6.7" height="40.3"/>
	</g>
	<g>
		<g>
			<path class="st5" d="M598.3,151.1c0,0.1-23.8,0.3-53.2,0.3c-29.4,0-53.2-0.1-53.2-0.3c0-0.1,23.8-0.3,53.2-0.3
				C574.5,150.9,598.3,151,598.3,151.1z"/>
		</g>
	</g>
	<g>
		<rect x="488.9" y="137.5" class="st5" width="4.1" height="1.5"/>
	</g>
	<g>
		<rect x="488.9" y="117.1" class="st5" width="4.1" height="1.5"/>
	</g>
	<g>
		<rect x="488.9" y="78.7" class="st5" width="4.1" height="1.5"/>
	</g>
	<g>
		<rect x="488.9" y="59.4" class="st5" width="4.1" height="1.5"/>
	</g>
	<g>
		<rect x="489.1" y="97.9" class="st5" width="4.1" height="1.5"/>
	</g>
	<g>
		<g>
			<rect x="269" y="86.2" class="st17" width="230.3" height="179.3"/>
		</g>
		<g>
			<g>
				<path class="st5" d="M499.4,265.5c0-1.8-0.1-71.1-0.2-179.3l0.2,0.2c-65.6,0-144.9,0-230.3,0h0l0.3-0.3c0,64.6,0,125.7,0,179.3
					l-0.2-0.2C405.7,265.4,497.3,265.5,499.4,265.5c-2.1,0-93.6,0.1-230.3,0.2l-0.2,0v-0.2c0-53.5,0-114.7,0-179.3V86h0.3h0
					c85.4,0,164.8,0,230.3,0h0.2l0,0.2C499.5,194.4,499.4,263.7,499.4,265.5z"/>
			</g>
		</g>
	</g>
	<g>
		<g>
			<path class="st5" d="M337.1,243.6c-0.1,0-0.3-18.1-0.3-40.4c0-22.3,0.1-40.4,0.3-40.4s0.3,18.1,0.3,40.4
				C337.4,225.5,337.3,243.6,337.1,243.6z"/>
		</g>
	</g>
	<g>
		<g>
			<path class="st5" d="M429.9,243.6c-0.1,0-0.3-18.1-0.3-40.4c0-22.3,0.1-40.4,0.3-40.4s0.3,18.1,0.3,40.4
				C430.2,225.5,430.1,243.6,429.9,243.6z"/>
		</g>
	</g>
	<g>
		<g>
			<path class="st5" d="M368.8,243.6c-0.1,0-0.3-23.1-0.3-51.6c0-28.5,0.1-51.7,0.3-51.7c0.1,0,0.3,23.1,0.3,51.7
				C369.1,220.4,369,243.6,368.8,243.6z"/>
		</g>
	</g>
	<g>
		<g>
			<path class="st5" d="M304.6,243.6c-0.1,0-0.3-23.1-0.3-51.6c0-28.5,0.1-51.7,0.3-51.7c0.1,0,0.3,23.1,0.3,51.7
				C304.8,220.4,304.7,243.6,304.6,243.6z"/>
		</g>
	</g>
	<g>
		<g>
			<path class="st5" d="M466.4,243.6c-0.1,0-0.3-23.1-0.3-51.6c0-28.5,0.1-51.7,0.3-51.7c0.1,0,0.3,23.1,0.3,51.7
				C466.6,220.4,466.5,243.6,466.4,243.6z"/>
		</g>
	</g>
	<g>
		<g>
			<path class="st5" d="M396.6,243.6c-0.1,0-0.3-26.7-0.3-59.6c0-32.9,0.1-59.6,0.3-59.6s0.3,26.7,0.3,59.6
				C396.9,216.9,396.7,243.6,396.6,243.6z"/>
		</g>
	</g>
	<g>
		<path class="st5" d="M337.9,162.8c0,0.4-0.3,0.8-0.8,0.8s-0.8-0.3-0.8-0.8s0.3-0.8,0.8-0.8S337.9,162.3,337.9,162.8z"/>
	</g>
	<g>
		<path class="st5" d="M369.6,140.3c0,0.4-0.3,0.8-0.8,0.8s-0.8-0.3-0.8-0.8c0-0.4,0.3-0.8,0.8-0.8S369.6,139.8,369.6,140.3z"/>
	</g>
	<g>
		<path class="st14" d="M368.8,143c-1.5,0-2.7-1.2-2.7-2.7s1.2-2.7,2.7-2.7c1.5,0,2.7,1.2,2.7,2.7S370.3,143,368.8,143z
			 M368.8,137.8c-1.3,0-2.4,1.1-2.4,2.4c0,1.3,1.1,2.4,2.4,2.4c1.3,0,2.4-1.1,2.4-2.4C371.3,138.9,370.2,137.8,368.8,137.8z"/>
	</g>
	<g>
		<circle class="st5" cx="396.6" cy="124.3" r="0.8"/>
	</g>
	<g>
		<path class="st5" d="M430.7,163.5c0,0.4-0.3,0.8-0.8,0.8s-0.8-0.3-0.8-0.8c0-0.4,0.3-0.8,0.8-0.8S430.7,163.1,430.7,163.5z"/>
	</g>
	<g>
		<path class="st5" d="M467.1,140.3c0,0.4-0.3,0.8-0.8,0.8c-0.4,0-0.8-0.3-0.8-0.8c0-0.4,0.3-0.8,0.8-0.8
			C466.8,139.5,467.1,139.8,467.1,140.3z"/>
	</g>
	<g>
		<path class="st5" d="M305.3,141c0,0.4-0.3,0.8-0.8,0.8s-0.8-0.3-0.8-0.8s0.3-0.8,0.8-0.8S305.3,140.6,305.3,141z"/>
	</g>
	<g>
		<g>
			<path class="st18" d="M473.5,176.8c0,0.1-0.8,0.2-2.3,0.8c-1.5,0.6-3.4,1.9-5.5,4.2c-2.1,2.2-4.1,5.4-6.7,8.9
				c-1.3,1.7-2.8,3.6-4.6,5.3c-0.9,0.9-1.9,1.7-3,2.5c-1.1,0.7-2.3,1.4-3.6,2c-2.6,1.1-5.6,1.6-8.6,1.5c-1.5-0.1-3.1-0.2-4.7-0.6
				c-1.6-0.3-3.1-1-4.5-2c-1.4-1-2.6-2.3-3.5-3.7c-1-1.4-1.8-2.9-2.7-4.4c-1.7-3-3.4-6-5.4-9.1c-1.9-3.1-3.7-6.3-5.7-9.5
				c-2-3.2-4.2-6.3-7-9c-1.4-1.3-2.9-2.5-4.7-3.3c-0.8-0.5-1.8-0.7-2.7-1.1c-0.5-0.1-0.9-0.2-1.4-0.3l-0.7-0.2c-0.2,0-0.5,0-0.7-0.1
				c-3.9-0.3-7.9,0.5-11.4,2.4c-3.5,2-6.3,5-8.7,8.2c-2.4,3.2-4.4,6.7-6.3,10.1c-3.8,6.9-8,13.5-13.6,18.4c-2.8,2.4-6,4.4-9.4,5.3
				c-1.7,0.5-3.5,0.6-5.2,0.6c-1.7-0.1-3.4-0.4-5-0.9c-3.2-1-5.9-2.7-8.4-4.4c-2.5-1.7-4.7-3.5-7-5.1c-2.2-1.6-4.4-3-6.6-4
				c-2.2-1-4.4-1.6-6.5-1.9c-2.1-0.2-4.1-0.1-5.9,0.4c-0.5,0.1-0.9,0.3-1.3,0.4c-0.4,0.2-0.8,0.3-1.2,0.5c-0.7,0.4-1.5,0.7-2.1,1.1
				c-1.3,0.8-2.3,1.7-3.1,2.5c-0.8,0.9-1.5,1.6-2,2.2c-1,1.3-1.5,1.9-1.6,1.9c0,0,0.4-0.7,1.3-2.1c0.4-0.7,1.1-1.4,1.9-2.3
				c0.9-0.8,1.8-1.8,3.1-2.7c0.6-0.5,1.4-0.8,2.1-1.2c0.4-0.2,0.8-0.3,1.2-0.5c0.4-0.1,0.9-0.4,1.3-0.5c1.8-0.5,3.9-0.7,6.2-0.5
				c2.2,0.2,4.5,0.8,6.8,1.8c2.3,1,4.6,2.4,6.8,4c2.3,1.6,4.5,3.3,7,5c2.5,1.6,5.1,3.2,8.1,4.2c1.5,0.5,3,0.8,4.6,0.8
				c1.6,0,3.2-0.1,4.8-0.6c3.2-0.8,6.2-2.7,8.8-5c5.3-4.7,9.4-11.2,13.2-18.1c1.9-3.4,3.9-7,6.4-10.3c2.5-3.3,5.4-6.4,9.2-8.6
				c3.8-2.1,8.2-3,12.4-2.6c0.3,0,0.5,0,0.8,0.1l0.8,0.2c0.5,0.1,1,0.2,1.6,0.3c1,0.4,2,0.7,2.9,1.2c1.9,0.9,3.5,2.2,5,3.6
				c2.9,2.8,5.2,6.1,7.2,9.3c2,3.2,3.8,6.5,5.7,9.6c1.9,3.1,3.7,6.2,5.3,9.2c1.7,3,3.3,5.9,5.8,7.7c1.2,0.9,2.6,1.5,4.1,1.8
				c1.4,0.4,2.9,0.5,4.4,0.6c2.9,0.2,5.7-0.3,8.2-1.3c1.2-0.5,2.4-1.1,3.4-1.8c1-0.7,2-1.5,2.9-2.3c1.8-1.6,3.2-3.4,4.6-5.1
				c2.6-3.4,4.8-6.5,6.9-8.8c2.1-2.3,4.3-3.5,5.8-4.1c0.8-0.3,1.4-0.4,1.8-0.5C473.3,176.8,473.5,176.8,473.5,176.8z"/>
		</g>
	</g>
	<g>
		<rect x="303.8" y="109.8" class="st5" width="37.3" height="2.1"/>
	</g>
	<g>
		<rect x="303.8" y="114.7" class="st5" width="18.4" height="2.1"/>
	</g>
	<g>
		<rect x="269" y="81" class="st5" width="230.3" height="14.4"/>
	</g>
	<polygon class="st19" points="603.6,378 637.1,419 645.6,408.6 620.2,372 	"/>
	<g>
		<path class="st16" d="M636.4,420l-1-0.9l9.8-11.5l4.2,3.8l-0.6,0.7c-2.6,3.2-13.6,16-16.1,17.5C629.9,431.3,636.4,420,636.4,420z"
			/>
	</g>
	<g>
		<path class="st17" d="M645.5,415.3c-0.8-1-1.2-2.3-1-3.6c0.1-1.3,0.6-2.4,1.6-3.3l3.1,2.8L645.5,415.3z"/>
	</g>
	<path class="st17" d="M633.4,425.7c0,0-2.1,4.1-1.2,4.2c0.9,0.1,12.5-12.5,17.1-18.5l-0.3-0.2L635.7,426
		C635.7,426,634,425.1,633.4,425.7z"/>
	<g>
		<path class="st5" d="M649.2,411.1c0,0,0,0.1-0.2,0.2c-0.1,0.2-0.3,0.4-0.5,0.6c-0.5,0.6-1.1,1.3-1.8,2.1c-1.5,1.7-3.6,4.1-6,6.7
			c-2.4,2.6-4.6,4.9-6.2,6.5c-0.8,0.8-1.4,1.4-1.9,1.9c-0.2,0.2-0.4,0.4-0.5,0.5c-0.1,0.1-0.2,0.2-0.2,0.2c0,0,0.1-0.1,0.2-0.2
			c0.2-0.2,0.3-0.3,0.5-0.5c0.5-0.5,1.1-1.2,1.9-2c1.6-1.7,3.8-4,6.2-6.5c2.4-2.6,4.5-4.9,6-6.7c0.7-0.8,1.3-1.5,1.8-2
			c0.2-0.2,0.3-0.4,0.5-0.6C649.1,411.1,649.2,411,649.2,411.1z"/>
	</g>
	<g>
		<path class="st5" d="M635.8,426.2c0,0-0.5-0.4-1.3-0.5c-0.8-0.2-1.4,0-1.4,0c0,0,0.6-0.3,1.4-0.2
			C635.4,425.6,635.9,426.1,635.8,426.2z"/>
	</g>
	<g>
		<path class="st5" d="M637.2,421.4c0,0-0.3,0-0.7,0c-0.4-0.1-0.7-0.2-0.7-0.2c0,0,0.3,0,0.7,0C636.9,421.2,637.2,421.3,637.2,421.4
			z"/>
	</g>
	<g>
		<path class="st5" d="M637.5,420.1c0,0-0.3,0.1-0.6,0.1c-0.3,0-0.6,0-0.6,0c0,0,0.3-0.1,0.6-0.1C637.2,420,637.5,420,637.5,420.1z"
			/>
	</g>
	<g>
		<path class="st5" d="M637,418.5c0,0-0.2,0.3-0.5,0.6c-0.3,0.3-0.6,0.6-0.6,0.5c0,0,0.2-0.3,0.5-0.6
			C636.7,418.7,637,418.5,637,418.5z"/>
	</g>
	<g>
		<path class="st5" d="M636.5,417.7c0,0-0.1,0.4-0.4,0.8c-0.3,0.4-0.7,0.6-0.7,0.6c0,0,0.3-0.3,0.6-0.7
			C636.2,418,636.4,417.7,636.5,417.7z"/>
	</g>
	<g>
		<path class="st5" d="M635.9,420.9c0,0-0.2,0.3-0.7,0.7c-0.2,0.2-0.5,0.4-0.9,0.6c-0.2,0.1-0.3,0.2-0.6,0.3c-0.1,0-0.2,0-0.4,0
			c-0.1-0.1-0.2-0.2-0.2-0.4c0.3-1,1.3-1.3,1.9-1.3c0.3,0,0.5,0.1,0.7,0.2c0.1,0.1,0.2,0.1,0.2,0.2c0,0-0.3-0.2-0.9-0.2
			c-0.3,0-0.6,0.1-0.9,0.2c-0.3,0.2-0.7,0.5-0.7,0.9c0,0.2,0.2,0.3,0.3,0.2c0.2,0,0.4-0.2,0.5-0.2c0.3-0.2,0.6-0.4,0.9-0.6
			C635.6,421.1,635.9,420.9,635.9,420.9z"/>
	</g>
	<g>
		<path class="st5" d="M635.7,421.1c0,0-0.3,0-0.6-0.4c-0.1-0.2-0.3-0.4-0.3-0.7c0-0.3-0.1-0.6,0.2-0.9c0.2-0.1,0.4-0.1,0.5,0.1
			c0.1,0.1,0.2,0.3,0.2,0.4c0.1,0.3,0.1,0.5,0.1,0.7C635.9,420.8,635.8,421,635.7,421.1c0-0.1,0-0.3,0-0.7c0-0.2-0.1-0.4-0.2-0.7
			c-0.1-0.2-0.3-0.5-0.5-0.4c-0.2,0.2-0.2,0.5-0.1,0.7c0.1,0.3,0.2,0.5,0.3,0.6C635.5,421,635.8,421.1,635.7,421.1z"/>
	</g>
	<g>
		<path class="st5" d="M646,408.5c0,0-0.3,0.3-0.7,0.8c-0.4,0.5-0.8,1.4-0.9,2.4c-0.1,1,0.2,2,0.5,2.6c0.3,0.6,0.6,0.9,0.6,0.9
			c0,0-0.1-0.1-0.2-0.2c-0.1-0.1-0.3-0.4-0.5-0.7c-0.4-0.6-0.7-1.5-0.6-2.6c0.1-1.1,0.5-2,1-2.5c0.2-0.3,0.4-0.5,0.6-0.6
			C645.9,408.6,646,408.5,646,408.5z"/>
	</g>
	<g>
		<path class="st5" d="M643.2,415.8c0,0-0.5,0.8-1.3,1.7c-0.8,0.9-1.6,1.5-1.6,1.5c0,0,0.7-0.7,1.5-1.6
			C642.6,416.5,643.2,415.7,643.2,415.8z"/>
	</g>
	<g>
		<path class="st5" d="M645.2,413.6c0.1,0,0.1,0.2,0.2,0.4c0.1,0.2,0.2,0.4,0.2,0.4c0,0-0.2-0.1-0.3-0.4
			C645.1,413.8,645.1,413.6,645.2,413.6z"/>
	</g>
	<g>
		<path class="st5" d="M644.9,411.8c0.1,0,0.1,0.2,0.1,0.4c0,0.2,0,0.4-0.1,0.4s-0.1-0.2-0.1-0.4C644.8,412,644.9,411.8,644.9,411.8
			z"/>
	</g>
	<g>
		<path class="st5" d="M645.5,410.3c0,0-0.1,0.2-0.2,0.4c-0.1,0.2-0.1,0.4-0.2,0.4c0,0-0.1-0.2,0-0.5
			C645.3,410.3,645.5,410.2,645.5,410.3z"/>
	</g>
	<g>
		<path class="st5" d="M646.1,409.2c0,0,0,0.1,0,0.3c0,0.1-0.1,0.2-0.2,0.2c0,0,0-0.1,0-0.3C646,409.3,646,409.2,646.1,409.2z"/>
	</g>
	<g>
		<g>
			<g>
				<polygon class="st19" points="546.9,411.3 543.9,429.4 559.4,429.4 563,414.6 				"/>
			</g>
		</g>
	</g>
	<g>
		<path class="st16" d="M544.4,429.8l0-1.4l15.1-0.1l-0.2,5.7l-0.9,0c-4.1,0.1-21,0.1-23.8-0.8C531.6,432.2,544.4,429.8,544.4,429.8
			z"/>
	</g>
	<g>
		<path class="st17" d="M553.9,433.7c0.3-1.2,1-2.4,2-3.1c1-0.7,2.3-1.1,3.5-1l-0.1,4.2L553.9,433.7z"/>
	</g>
	<path class="st17" d="M538.2,431.2c0,0-4.5,1.1-4,1.9c0.5,0.8,17.6,1.4,25.2,1l0-0.3l-19.9-0.5C539.4,433.2,539,431.3,538.2,431.2z
		"/>
	<g>
		<path class="st5" d="M559.6,433.7c0,0-0.1,0-0.3,0c-0.2,0-0.5,0-0.7,0c-0.7,0-1.6,0-2.7,0c-2.3,0-5.5,0-9-0.2
			c-3.5-0.1-6.7-0.3-9-0.5c-1.1-0.1-2-0.2-2.7-0.2c-0.3,0-0.5,0-0.7-0.1c-0.2,0-0.3,0-0.3,0c0,0,0.1,0,0.3,0c0.2,0,0.5,0,0.7,0
			c0.7,0,1.6,0.1,2.7,0.2c2.3,0.1,5.5,0.3,9,0.4c3.5,0.1,6.7,0.2,9,0.2c1.1,0,2,0,2.7,0c0.3,0,0.5,0,0.7,0
			C559.5,433.7,559.6,433.7,559.6,433.7z"/>
	</g>
	<g>
		<path class="st5" d="M539.4,433.4c-0.1,0-0.1-0.6-0.5-1.3c-0.4-0.7-0.9-1-0.9-1.1c0,0,0.6,0.3,1,1
			C539.5,432.7,539.5,433.4,539.4,433.4z"/>
	</g>
	<g>
		<path class="st5" d="M543.9,431.3c0,0-0.2-0.2-0.5-0.6c-0.2-0.4-0.3-0.7-0.3-0.7c0,0,0.2,0.2,0.5,0.6
			C543.8,431,544,431.3,543.9,431.3z"/>
	</g>
	<g>
		<path class="st5" d="M545.1,430.7c0,0-0.3-0.1-0.5-0.4c-0.2-0.2-0.4-0.5-0.4-0.5c0,0,0.3,0.1,0.5,0.4
			C545,430.5,545.2,430.7,545.1,430.7z"/>
	</g>
	<g>
		<path class="st5" d="M546,429.3c0,0.1-0.4,0.1-0.8,0.1c-0.4,0-0.8-0.1-0.8-0.1c0-0.1,0.4-0.1,0.8-0.1
			C545.6,429.2,546,429.3,546,429.3z"/>
	</g>
	<g>
		<path class="st5" d="M546.3,428.4c0,0-0.4,0.2-0.9,0.2c-0.5,0-0.9-0.1-0.9-0.2c0-0.1,0.4,0,0.9,0
			C545.9,428.4,546.2,428.3,546.3,428.4z"/>
	</g>
	<g>
		<path class="st5" d="M543.5,430c0,0-0.4,0.1-1,0c-0.3,0-0.6-0.1-1-0.3c-0.2-0.1-0.4-0.1-0.6-0.3c-0.1-0.1-0.2-0.2-0.2-0.3
			c0-0.1,0-0.3,0.2-0.4c0.9-0.4,1.8,0.1,2.2,0.6c0.2,0.2,0.3,0.5,0.3,0.7c0,0.2,0,0.3,0,0.3c0,0-0.1-0.4-0.4-0.8
			c-0.2-0.2-0.4-0.4-0.8-0.6c-0.3-0.1-0.8-0.2-1.1,0c-0.2,0.1-0.1,0.3,0.1,0.4c0.2,0.1,0.4,0.2,0.5,0.2c0.4,0.1,0.7,0.2,1,0.3
			C543.1,430,543.5,430,543.5,430z"/>
	</g>
	<g>
		<path class="st5" d="M543.2,430c0,0-0.1-0.2-0.1-0.7c0-0.2,0.1-0.5,0.3-0.7c0.2-0.2,0.4-0.5,0.8-0.5c0.2,0,0.3,0.3,0.3,0.5
			c0,0.2-0.1,0.3-0.2,0.4c-0.2,0.2-0.3,0.4-0.5,0.6C543.5,429.9,543.3,430,543.2,430c0.1,0,0.3-0.2,0.6-0.5c0.1-0.1,0.3-0.3,0.4-0.6
			c0.1-0.2,0.2-0.6,0-0.6c-0.2,0-0.5,0.2-0.6,0.4c-0.2,0.2-0.3,0.4-0.3,0.6C543.2,429.8,543.2,430,543.2,430z"/>
	</g>
	<g>
		<path class="st5" d="M559.4,429.6c0,0-0.4-0.1-1.1,0c-0.7,0.1-1.6,0.3-2.4,0.9c-0.8,0.6-1.3,1.4-1.6,2.1c-0.3,0.6-0.3,1.1-0.3,1.1
			c0,0,0-0.1,0-0.3c0-0.2,0.1-0.5,0.2-0.8c0.2-0.7,0.7-1.5,1.6-2.2c0.9-0.6,1.9-0.9,2.5-0.9c0.3,0,0.6,0,0.8,0.1
			C559.3,429.6,559.4,429.6,559.4,429.6z"/>
	</g>
	<g>
		<path class="st5" d="M552.1,432.2c0,0-1,0.2-2.2,0.1c-1.2,0-2.2-0.2-2.2-0.3c0-0.1,1,0,2.2,0.1
			C551.1,432.2,552.1,432.2,552.1,432.2z"/>
	</g>
	<g>
		<path class="st5" d="M555,432.3c0,0-0.1,0.2-0.2,0.4c-0.1,0.2-0.2,0.4-0.2,0.4c0,0-0.1-0.2,0.1-0.5
			C554.8,432.4,555,432.3,555,432.3z"/>
	</g>
	<g>
		<path class="st5" d="M556.2,431c0,0-0.1,0.2-0.2,0.3c-0.2,0.2-0.3,0.2-0.4,0.2c0,0,0.1-0.2,0.2-0.3C556,431,556.2,430.9,556.2,431
			z"/>
	</g>
	<g>
		<path class="st5" d="M557.8,430.4c0,0.1-0.2,0-0.4,0.1c-0.2,0.1-0.4,0.2-0.4,0.1c0,0,0.1-0.2,0.4-0.3
			C557.6,430.3,557.8,430.4,557.8,430.4z"/>
	</g>
	<g>
		<path class="st5" d="M558.9,430.1c0,0-0.1,0.1-0.2,0.2c-0.1,0-0.2,0-0.3,0c0,0,0.1-0.1,0.2-0.2
			C558.8,430.1,558.9,430.1,558.9,430.1z"/>
	</g>
	<g>
		<g>
			<path class="st20" d="M605.8,194.6l-25.4,2.2c0,0-7.6,0.2-15.9,19.5l-5.7,11.3l11.2,7.1l0,0l0.5,7l1,28.3l47.2-3.5
				c-1.1-6.4-6.1-14.9-7.8-20.3c1.7-4.3,11.7-21.8,11.7-30.8C622.4,196.2,605.8,194.6,605.8,194.6"/>
		</g>
	</g>
	<g>
		<g>
			<path class="st5" d="M570.3,241.7c-0.1,0,0.3-1.6-0.1-4.2c-0.2-1.3-0.6-2.8-1.1-4.4c-0.5-1.7-1-3.5-1.3-5.5c-0.3-2-0.1-4,0.6-5.6
				c0.7-1.6,1.7-2.9,2.6-3.8c0.9-1,1.7-1.7,2.2-2.1c0.6-0.5,0.9-0.7,0.9-0.7c0.1,0.1-1.1,1.1-2.8,3.1c-0.8,1-1.8,2.2-2.4,3.8
				c-0.7,1.6-0.8,3.4-0.6,5.4c0.2,1.9,0.8,3.7,1.2,5.4c0.5,1.7,0.8,3.2,1,4.5c0.2,1.3,0.1,2.4,0,3.1
				C570.5,241.3,570.4,241.7,570.3,241.7z"/>
		</g>
	</g>
	<g>
		<g>
			<path class="st18" d="M571.3,270c0,0-11.4,34.9-15.7,68.6c-4.3,33.7-9.6,80.1-9.6,80.1l15.6,0.3l28.9-90.5l29.5-41.7l-2.9-25.4
				L571.3,270z"/>
		</g>
		<g>
			<polyline class="st18" points="572.7,274.3 583.5,363.7 627.7,408.5 637.4,395.1 606.1,345.4 613.1,267.3 570.9,275.3 			"/>
		</g>
		<g>
			<g>
				<path class="st18" d="M602.8,313c0,0-0.1,0.2-0.3,0.5c-0.2,0.3-0.5,0.8-0.9,1.3c-0.8,1.1-2.2,2.6-3.9,4.3c-1.8,1.7-4,3.7-6,6.2
					c-2,2.5-3.5,5.8-4.5,9.4c-1.1,3.6-2,7.1-2.7,10.3c-0.7,3.2-1.1,6.1-1.9,8.5c-0.8,2.4-1.5,4.2-1.8,5.5c-0.4,1.3-0.6,2.1-0.6,2.1
					c0,0,0-0.2,0.1-0.6c0.1-0.4,0.2-0.9,0.3-1.6c0.3-1.3,1-3.2,1.7-5.6c0.7-2.3,1.1-5.3,1.8-8.5c0.6-3.2,1.6-6.7,2.6-10.3
					c1.1-3.6,2.6-7,4.7-9.6c2.1-2.6,4.3-4.5,6.1-6.2c1.8-1.7,3.2-3.1,4-4.2C602.4,313.6,602.8,313,602.8,313z"/>
			</g>
		</g>
		<g>
			<g>
				<path class="st18" d="M606.5,344.8c0.1,0.1-1.7,1-3.2,2.7c-1.6,1.7-2.4,3.4-2.5,3.4c-0.1,0,0.4-2,2.1-3.7
					C604.5,345.4,606.4,344.7,606.5,344.8z"/>
			</g>
		</g>
		<g>
			<g>
				<path class="st18" d="M605.9,345.4c0,0.2-1.5,0.1-3.3,0.3c-1.8,0.2-3.3,0.5-3.3,0.4c0-0.1,1.4-0.7,3.3-0.9
					C604.4,345,605.9,345.3,605.9,345.4z"/>
			</g>
		</g>
	</g>
	<g>
		<g>
			<polygon class="st16" points="535.5,234.1 533,244.7 565.3,246.7 			"/>
		</g>
		<g class="st15">
			<polygon class="st16" points="535.5,234.1 533,244.7 565.3,246.7 			"/>
		</g>
		<g>
			<g>
				<path class="st16" d="M644.4,265c0,0-4.5-3.4-5.1-3.5c-0.5-0.1-3.8,2.5-3.8,2.5s1.1-4.5-0.9-6.7c-1.9-2.3-5-2.3-8.7,0
					c-3.6,2.4-11.1,3.5-11.1,3.5s-1.2-1.8-2.4-3.6c-1.2-1.8-2.6-1.1-7.5-1c-4.9,0.1-17.9-6.9-17.9-6.9s-7.2-5.2-15.9-11.6l2-2.5
					c1.2-1.5,0.9-3.7-0.6-4.9l0,0c-1.5-1.2-3.7-0.9-4.9,0.6l-0.2,0.3c0.5-1,0.2-2.3-0.7-3.1c-1.1-0.9-2.7-0.7-3.5,0.4l-1,1.2
					c0.1-0.8-0.3-1.6-1-2.1c-1-0.8-2.5-0.7-3.4,0.2c-5.1-3.8-9.8-7.4-12.8-9.9c-10.9-8.8-13.6-25.2-13.6-25.2c-4,1-4,3.6-4,6.4
					c0,0.7,0,1.4,0,1.9c-3.1-1.1-6.5-1.3-9.7-0.4c-2.6,0.7-4.9,2.2-6.7,4.2c0.7-1.3,0.7-2.9-0.2-4.2c-1.3-1.9-3.8-2.5-5.7-1.2
					c-1.9,1.3-2.5,3.8-1.2,5.7c1.3,1.9,3.8,2.5,5.7,1.2c0.1-0.1,0.2-0.2,0.3-0.3c-0.8,1.1-1.4,2.2-1.9,3.5
					c-1.5,4.3-0.6,9.4,2.5,12.8l1.5,0.5c-0.8,0.3-1.7,0.5-2.9,0.9c-2.7,0.9-5.2,1.6-4.9,5.8c0,0,16.4-2.3,28.1,5.5
					c3.2,2.1,7.7,5.3,12.7,8.9l-0.2,0.3c-0.9,1.1-0.7,2.7,0.4,3.5c0.7,0.5,1.5,0.7,2.3,0.4l-0.9,1.2c-0.9,1.1-0.7,2.7,0.4,3.5
					c0.9,0.7,2.2,0.7,3.1,0l-0.2,0.3c-1.2,1.5-0.9,3.7,0.6,4.9c1.5,1.2,3.7,0.9,4.9-0.6l3-3.8c8.9,6.5,16.3,12.1,16.3,12.1
					s10.6,10.3,11.9,15s1.1,6.2,3.2,6.8c2.1,0.6,4.2,1.2,4.2,1.2s1.2,7.5,0,11.6c-1.2,4.2-0.2,7.1,2.6,8.3c2.7,1.2,6.7-1.2,6.7-1.2
					s-1.5,3.9-1.2,4.4c0.3,0.5,4.8,3.8,4.8,3.8l19-26.1l-0.8,1.2L644.4,265z"/>
			</g>
			<g>
				<g>
					<path class="st16" d="M527.6,198.1c0,0,0.1,0.5,0.1,1.4c0,0.9,0,2.2-0.2,3.7c-0.1,0.8-0.3,1.6-0.7,2.5
						c-0.4,0.9-1.1,1.7-2.1,2.2c-1.9,1-4.4,0.9-6.2,2.4c-0.9,0.7-1.2,1.8-1.2,2.9c0,1.1,0.2,2.2,0.2,3.2c0,1.1-0.2,2.1-0.7,2.9
						c-0.5,0.8-1.2,1.4-1.8,1.9c-1.4,0.8-2.5,1.5-3.3,1.8c-0.8,0.3-1.3,0.4-1.3,0.4c0,0,0.5-0.2,1.2-0.6c0.8-0.4,1.9-1.1,3.2-1.9
						c0.6-0.5,1.2-1,1.7-1.8c0.5-0.8,0.7-1.7,0.6-2.7c0-1-0.2-2.1-0.2-3.3c0-1.1,0.4-2.5,1.4-3.3c1-0.8,2.2-1.2,3.3-1.5
						c1.1-0.3,2.2-0.5,3-1c0.9-0.5,1.5-1.2,1.9-2c0.4-0.8,0.6-1.6,0.8-2.4c0.3-1.5,0.3-2.8,0.4-3.7
						C527.5,198.6,527.5,198.1,527.6,198.1z"/>
				</g>
			</g>
			<g>
				<g>
					<path class="st16" d="M547.2,248.5c-0.1-0.1,0.8-1.1,2.2-2.7c1.4-1.7,3.3-4,5.4-6.6c2-2.6,3.8-5.1,5-6.9c1.2-1.8,2-2.9,2.1-2.9
						c0,0-0.1,0.3-0.4,0.9c-0.3,0.5-0.8,1.3-1.3,2.2c-1.2,1.8-2.9,4.3-4.9,7c-2,2.6-4,4.9-5.5,6.5c-0.7,0.8-1.4,1.4-1.8,1.9
						C547.4,248.3,547.2,248.6,547.2,248.5z"/>
				</g>
			</g>
			<g>
				<g>
					<path class="st16" d="M567.8,230.8c0,0-0.2,0.4-0.6,0.9c-0.4,0.6-1,1.4-1.8,2.4c-1.5,2-3.7,4.8-6.1,7.9
						c-2.4,3.1-4.6,5.8-6.3,7.8c-1.6,2-2.7,3.2-2.7,3.1c0,0,0.2-0.3,0.6-0.9c0.5-0.7,1.1-1.5,1.8-2.4c1.6-2,3.7-4.8,6.1-7.9
						c2.4-3.1,4.6-5.8,6.2-7.8c0.8-0.9,1.4-1.7,1.9-2.3C567.5,231.1,567.7,230.8,567.8,230.8z"/>
				</g>
			</g>
			<g>
				<g>
					<path class="st16" d="M558.1,254.4c-0.1-0.1,0.7-1,2-2.4c1.3-1.5,3-3.5,4.8-5.9c1.8-2.3,3.3-4.5,4.4-6.1
						c1.1-1.6,1.8-2.6,1.8-2.6c0.1,0-0.5,1.1-1.5,2.8c-1,1.7-2.5,3.9-4.3,6.2c-1.8,2.4-3.6,4.4-4.9,5.8
						C559,253.6,558.2,254.4,558.1,254.4z"/>
				</g>
			</g>
			<g>
				<g>
					<path class="st16" d="M637.1,261.4c0,0-0.1,0.2-0.3,0.5c-0.3,0.4-0.6,0.8-1,1.3c-0.9,1.2-2.2,2.9-3.8,4.9
						c-3.2,4.1-7.6,9.8-12.3,16.3c-4.7,6.4-8.9,12.3-11.9,16.6c-1.5,2.1-2.7,3.8-3.5,5.1c-0.4,0.6-0.7,1-1,1.4
						c-0.2,0.3-0.4,0.5-0.4,0.5c0,0,0.1-0.2,0.3-0.5c0.2-0.4,0.5-0.8,0.9-1.4c0.8-1.2,1.9-3,3.4-5.2c2.9-4.3,7-10.3,11.8-16.7
						c4.7-6.4,9.2-12.1,12.4-16.2c1.6-2,3-3.7,3.9-4.8c0.4-0.5,0.8-0.9,1.1-1.3C637,261.6,637.1,261.4,637.1,261.4z"/>
				</g>
			</g>
		</g>
		<g>
			<g>
				<path class="st16" d="M522.4,225.4c-0.2-0.8,0-1.7,0.9-1.8l0,0c0.5,0.1,0.8,0.6,0.9,0.9l2.2,7.7l0,0l-1.1-5.8
					c-0.2-0.8,0.1-1.7,0.8-1.6c0.4,0.1,0.7,0.6,0.8,0.9l1.8,6.5l-0.8-4.2c-0.2-1,0-1.4,0.5-1.5c0.5-0.1,0.9,0.5,1,0.8l1.4,4.7
					c0.7,0.6,3.2,2.4,3.2,4.3c0,0.1,0.3,0.2,0.3,0.3l0.7,0.2l-1,4.1c0,0-6.5-4.5-8.2-6.1c-1.5-1.3-1.8-2.6-2-3.3L522.4,225.4z"/>
			</g>
		</g>
	</g>
	<g>
		<g>
			<path class="st19" d="M602.6,158.8l0,2.5l-0.5,37.5c-0.1,4.3-3.8,7.8-8.5,7.7h0c-4.7-0.1-8.5-3.7-8.5-8.1c0-4.6-0.1-9.5-0.1-9.5
				s-5.9-1-7.2-8.7c-0.6-3.9-0.4-10.2-0.1-15.3c0.3-4.7,4.4-8.1,9-7.6L602.6,158.8z"/>
		</g>
	</g>
	<g>
		<g>
			<path class="st6" d="M584.9,188.9c0,0,5.2,0.3,10.4-2.8c0,0-2.5,5.3-10.3,4.6L584.9,188.9z"/>
		</g>
	</g>
	<g>
		<g>
			<path class="st12" d="M622.8,213.7c-0.1,0.1-0.9-0.9-2.6-2.1c-1.6-1.2-4.2-2.6-7.3-3.1c-3.1-0.5-5.9-0.1-7.9,0.4
				c-2,0.6-3.1,1.2-3.1,1.1c0,0,0.2-0.2,0.8-0.5c0.5-0.3,1.3-0.6,2.3-1c2-0.7,4.9-1.2,8.1-0.6c3.2,0.6,5.8,2,7.4,3.3
				c0.8,0.7,1.4,1.2,1.8,1.7C622.7,213.4,622.9,213.7,622.8,213.7z"/>
		</g>
	</g>
	<g>
		<g>
			<g>
				<path class="st14" d="M556.4,238.7l-4.8,16.3c0,0,23.6,9.6,37.1,9.4c12.7-0.2,16.6-4.3,21.5-12.5c5.8-9.6,10.2-21.8,11.3-28.6
					c0,0,7.2-31.2-20.2-28.4l-0.7,24.4c0,0-3,10-3.2,10.6c-2,5.4-4.7,13.3-7.2,14.3C587.6,245.1,556.4,238.7,556.4,238.7z"/>
			</g>
		</g>
	</g>
	<g>
		<g>
			<path class="st14" d="M556.4,238.7c0,0,0.2,0,0.7,0.1c0.5,0.1,1.1,0.2,1.9,0.3c1.7,0.3,4.1,0.8,7.1,1.4c3,0.6,6.6,1.5,10.6,2.2
				c4,0.7,8.6,1.3,13.4,1.2l-0.2,0.2c0.5-1.3,1-2.7,1.6-4.2c3.6-10.1,6.4-19.4,8.7-26c1.1-3.3,2.1-6,2.8-7.8
				c0.3-0.9,0.6-1.6,0.8-2.1c0.2-0.5,0.3-0.7,0.3-0.7c0,0-0.1,0.3-0.2,0.8c-0.2,0.5-0.4,1.2-0.8,2.1c-0.7,1.8-1.6,4.5-2.7,7.9
				c-2.2,6.7-4.9,15.9-8.5,26c-0.5,1.4-1.1,2.9-1.6,4.2l-0.1,0.2l-0.2,0c-4.9,0.1-9.4-0.5-13.5-1.2c-4.1-0.8-7.6-1.6-10.6-2.3
				c-3-0.7-5.4-1.2-7.1-1.6c-0.8-0.2-1.4-0.3-1.9-0.4C556.7,238.8,556.4,238.7,556.4,238.7z"/>
		</g>
	</g>
	<g>
		<g>
			<path class="st14" d="M551.7,255c0,0,0.3,0.1,0.8,0.2c0.5,0.2,1.3,0.4,2.2,0.7c1.9,0.6,4.6,1.5,8.1,2.5c3.4,1,7.6,2,12.1,3.1
				c4.6,1.1,9.6,2.3,15.1,2.6c1.4,0,2.7,0,4-0.1c1.3-0.1,2.6-0.4,3.8-0.8c2.4-0.8,4.5-2.2,6.2-3.8c3.5-3.2,5.7-6.8,7.5-9.9
				c1.7-3.1,2.9-5.8,3.7-7.6c0.4-0.9,0.7-1.6,1-2.1c0.2-0.5,0.3-0.7,0.4-0.7c0,0-0.1,0.3-0.3,0.8c-0.2,0.5-0.5,1.2-0.9,2.1
				c-0.8,1.8-1.9,4.5-3.6,7.7c-1.7,3.1-3.9,6.9-7.5,10.1c-1.8,1.6-3.9,3-6.4,3.9c-1.2,0.4-2.5,0.7-3.9,0.8c-1.3,0.2-2.7,0.2-4.1,0.1
				c-5.5-0.3-10.6-1.5-15.2-2.7c-4.6-1.2-8.7-2.2-12.1-3.3c-3.4-1-6.2-1.9-8.1-2.6c-0.9-0.3-1.7-0.6-2.1-0.8
				C551.9,255.2,551.7,255,551.7,255z"/>
		</g>
	</g>
	<g class="st21">
		<g>
			<path class="st14" d="M569.7,241.3c4.7,0.1,9.3,0.2,14,0.3c1.1,0,2.3,0,3.3-0.4c1.5-0.6,2.4-2.1,3.2-3.4c2.5-4,4.7-8.2,6.7-12.5
				c0,0-3.7,11.7-6,16.8c-0.7,1.5-1.7,1.9-3.3,1.7C581.5,243.9,575.5,243,569.7,241.3z"/>
		</g>
	</g>
	<g class="st21">
		<path class="st14" d="M611.9,249.6c0,0-4.7,18-16.8,17.6c-12.1-0.4-23.6-5.6-23.6-5.6l0.5-0.6c0,0,20.6,4.4,26.3,1.6
			C609.2,257.5,611.9,249.6,611.9,249.6z"/>
	</g>
	<g>
		<g>
			<g>
				<g>
					<path class="st19" d="M552.2,253.4l-3.8,0c-3.5-0.3-5.4-0.4-6.4-1.3c-1.3-1.2,0.5-2.5,0.5-2.5s-2.5-0.9-2.3-2.4
						c0.2-1,1.4-1.2,1.4-1.2s-2.2-0.9-2.7-1.8c-0.6-1.3,1-1.9,1-1.9c-3-1.9-2.8-3.7-2.1-3.9c0.7-0.2,3.1,0.9,3.1,0.9
						c2,0.6,7.4,2.2,5.4-0.8c-2-3-2.4-6.1-2-7c0.5-0.9,1.9-0.6,2.1,0.5c0.1,0.9,0.8,2.3,1.4,3.4c0.5,0.9,1.1,1.6,1.8,2.3
						c0.9,0.8,1.6,1.4,2.3,1.9l3.4,3.3L552.2,253.4z"/>
				</g>
			</g>
		</g>
	</g>
	<g>
		<g>
			<path class="st19" d="M293.2,175.6c0.4,0.8,0.4,1.8,0,2.6l-20.9,37.4c-3.8,6-11.6,8-17.7,4.5l-11.7-6.6l8.1-14.1l8.7,5.2l21-27.8
				c0.1-0.5,0.3-2.1,0.3-4.7c0-0.8-0.2-1.6-0.4-2.3c-0.3-0.9-0.8-2.1-1.3-2.7c-0.6-0.7,0-1.8,0.8-1.6c0.8,0.2,2.5,2.1,3.2,5
				c0.8,2.9,2.7-1.4,3.4-2.9c0.7-1.5,3.2-6.2,3.8-6.3c0.9-0.2,1.4,0.8,0.6,2.3c-0.8,1.5-2.7,6.2-1.9,6.6c0,0,1.5,0.3,1.8,1.2
				L293.2,175.6z"/>
		</g>
		<g>
			<g>
				<path class="st6" d="M290.6,170.8c0.1,0-0.1,0.7-0.4,1.8c-0.2,0.6-0.4,1.2-0.6,1.9c-0.1,0.4-0.2,0.7-0.4,1.1
					c-0.1,0.2-0.1,0.4-0.3,0.6c-0.2,0.3-0.7,0.2-0.9,0.1c-0.2-0.1-0.4-0.2-0.6-0.4c-0.2-0.1-0.4-0.3-0.4-0.6
					c-0.1-0.6,0.2-0.9,0.3-1.3c0.2-0.6,0.5-1.2,0.7-1.8c0.4-1,0.7-1.7,0.8-1.6c0.1,0-0.1,0.7-0.4,1.8c-0.2,0.6-0.4,1.2-0.6,1.9
					c-0.1,0.3-0.3,0.7-0.2,1c0,0.2,0.4,0.5,0.7,0.7c0.2,0.1,0.2,0.1,0.3,0c0.1-0.1,0.2-0.3,0.2-0.4c0.1-0.4,0.3-0.7,0.4-1.1
					c0.2-0.6,0.5-1.2,0.7-1.8C290.2,171.4,290.5,170.7,290.6,170.8z"/>
			</g>
		</g>
		<g>
			<g>
				<path class="st6" d="M291.4,173.9c0.1,0-0.1,0.6-0.4,1.6c-0.2,0.6-0.4,1.1-0.5,1.7l-0.2,0.5c-0.1,0.2-0.1,0.4-0.4,0.6
					c-0.2,0.2-0.6,0.1-0.8,0c-0.2-0.1-0.4-0.2-0.5-0.3c-0.2-0.1-0.3-0.3-0.4-0.5c-0.1-0.2-0.1-0.5,0-0.7c0.1-0.4,0.2-0.7,0.4-1
					c0.2-0.6,0.4-1.1,0.7-1.6c0.4-0.9,0.7-1.5,0.7-1.5c0.1,0-0.1,0.6-0.4,1.6c-0.2,0.6-0.4,1.1-0.6,1.7c-0.1,0.3-0.2,0.7-0.3,1
					c-0.1,0.3,0,0.5,0.3,0.7c0.3,0.2,0.6,0.4,0.7,0.3c0.1-0.1,0.3-0.5,0.4-0.8c0.2-0.6,0.4-1.1,0.6-1.6
					C291,174.5,291.3,173.9,291.4,173.9z"/>
			</g>
		</g>
		<g>
			<g>
				<path class="st6" d="M292.8,175.7c0.1,0-0.1,0.6-0.4,1.6c-0.2,0.6-0.4,1.1-0.5,1.7l-0.2,0.5c-0.1,0.2-0.1,0.4-0.4,0.6
					c-0.2,0.2-0.6,0.1-0.8,0c-0.2-0.1-0.4-0.2-0.5-0.3c-0.2-0.1-0.3-0.3-0.4-0.5c-0.1-0.2-0.1-0.5,0-0.7c0.1-0.4,0.2-0.7,0.4-1
					c0.2-0.6,0.4-1.1,0.7-1.6c0.4-0.9,0.7-1.5,0.7-1.5c0.1,0-0.1,0.6-0.4,1.6c-0.2,0.6-0.4,1.1-0.6,1.7c-0.1,0.3-0.2,0.7-0.3,1
					c-0.1,0.3,0,0.5,0.3,0.7c0.3,0.2,0.6,0.4,0.7,0.3c0.1-0.1,0.3-0.5,0.4-0.8c0.2-0.6,0.4-1.1,0.6-1.6
					C292.4,176.2,292.7,175.6,292.8,175.7z"/>
			</g>
		</g>
		<g>
			<g>
				<path class="st6" d="M286.5,179.3c-0.2,0,0.2-1.4-0.4-3.1c-0.5-1.6-1.6-2.6-1.5-2.7c0-0.1,0.4,0.1,0.8,0.5
					c0.4,0.4,0.9,1.1,1.2,2c0.3,0.9,0.3,1.7,0.2,2.3C286.7,179,286.5,179.3,286.5,179.3z"/>
			</g>
		</g>
	</g>
	<g>
		<path class="st5" d="M220.2,127c-2.5-2.6-6.6-3.3-9.8-1.8c-1.5,0.7-2.8,1.8-4.4,2.2c-1.9,0.5-3.9-0.1-5.8-0.3
			c-2-0.2-4.3,0-5.3,1.7c-0.7,1.1-0.7,2.5-1.6,3.4c-1.2,1.2-3.3,0.7-5,1.2c-1.6,0.5-2.9,2-3.2,3.7c-0.3,1.7,0.4,3.5,1.6,4.7
			c0.7,0.7,1.6,1.3,2,2.1c0.5,1.2,0.1,2.5-0.1,3.8c-0.2,1.3,0,2.8,1.1,3.4c0.6,0.3,1.4,0.2,1.9-0.2c0.5-0.4,0.7-1.2,0.5-1.8
			l24.2-7.8c3.7,0,4.8-3.3,5.4-4.4C223.3,133.8,222.7,129.6,220.2,127z"/>
	</g>
	<g>
		<path class="st19" d="M191.3,135.5l0.1,2.6l0.5,39.2c0.1,4.6,4,8.1,8.9,8h0c4.9-0.1,8.9-3.9,8.9-8.5c0-4.8,0.1-9.9,0.1-9.9
			s6.2-1,7.5-9.1c0.6-4,0.4-10.7,0.1-16.1c-0.3-4.9-4.6-8.5-9.5-8L191.3,135.5z"/>
	</g>
	<g>
		<path class="st6" d="M209.8,166.9c0,0-5.5,0.4-10.9-2.9c0,0,2.6,5.6,10.8,4.8L209.8,166.9z"/>
	</g>
	<g>
		<g>
			<path class="st5" d="M217.7,138.1c0,0-4.1,2.2-9.7-0.4c-3.7-1.7-7.9-2.4-8.8-1.7c-0.9,0.8-1,4.5-4.5,5.7c0,0,0.5,7.1-2.4,6.9
				s-2.4-14.3-2.4-14.3l7.8-0.4l7.5-1.7l7.1,0.8l5.5,1.3L217.7,138.1z"/>
		</g>
	</g>
	<g>
		<g>
			<g>
				<path class="st5" d="M189.8,132.2c0-0.1,0.6-0.4,1.4-0.1c0.8,0.3,1.1,0.9,1,1c-0.1,0.1-0.5-0.3-1.2-0.6
					C190.4,132.3,189.8,132.3,189.8,132.2z"/>
			</g>
		</g>
	</g>
	<g>
		<g>
			<g>
				<path class="st5" d="M192.1,129.8c0.1,0,0.1,0.8,0.2,1.8c0.1,1,0.6,1.7,0.5,1.7c-0.1,0.1-0.7-0.6-0.9-1.7
					C191.8,130.6,192,129.8,192.1,129.8z"/>
			</g>
		</g>
	</g>
	<g>
		<g>
			<g>
				<g>
					<path class="st19" d="M192.5,145.7c-0.1-0.1-4.7-1.6-4.7,3.1c0,4.7,4.7,3.8,4.7,3.7C192.5,152.3,192.5,145.7,192.5,145.7z"/>
				</g>
			</g>
		</g>
		<g>
			<g>
				<g>
					<g>
						<path class="st6" d="M191.1,150.7c0,0-0.1,0.1-0.2,0.1c-0.1,0.1-0.4,0.1-0.6,0c-0.5-0.2-0.9-1-0.9-1.8c0-0.4,0.1-0.8,0.2-1.2
							c0.1-0.3,0.4-0.6,0.6-0.6c0.3-0.1,0.4,0.1,0.5,0.2c0.1,0.1,0,0.2,0.1,0.2c0,0,0.1-0.1,0.1-0.3c0-0.1-0.1-0.2-0.2-0.3
							c-0.1-0.1-0.3-0.1-0.5-0.1c-0.4,0-0.7,0.4-0.9,0.7c-0.2,0.4-0.3,0.8-0.3,1.3c0,1,0.5,1.9,1.2,2.1c0.3,0.1,0.6,0,0.8-0.1
							C191.1,150.8,191.1,150.7,191.1,150.7z"/>
					</g>
				</g>
			</g>
		</g>
	</g>
	<g>
		<g>
			<path class="st14" d="M211.1,177.1c3.5,0.2,9.3,0.7,20.8,7.4c2.5,1.5,28.4,18.8,28.4,18.8L248.9,218l-21.1-11.9l2.8,25.3l3.2,30
				l-51.1-0.6l-1.3-30.2l-0.4-20.5l-3.2,27.4l-20.2-1.9l5.6-36.1c0.7-4.4,2.4-8.6,5.3-12c3.5-4.1,7.9-6.5,13-8.4
				c2.2-0.8,6.6-1.6,9.5-1.7l-0.2-6c0,0,9.1,0.9,11.5,6.7c0,0,3-6.9,8.9-7.5L211.1,177.1z"/>
		</g>
		<g>
			<g>
				<path class="st12" d="M197.4,259.4c-0.1,0-0.8-0.9-1.4-3c-0.7-2-1-5.2-0.9-8.9c0.1-1.9,0.2-3.9,0.3-6.1c0.1-2.2,0.1-4.5-0.1-6.9
					c-0.4-4.9-1.5-10.2-2.7-15.8c-1.2-5.6-2.2-11-2.4-16.1c-0.1-5,0.3-9.5,0.1-13.2c-0.2-3.7-0.9-6.6-1.7-8.5
					c-0.8-1.9-1.4-2.9-1.3-3c0.1-0.1,0.9,0.8,1.9,2.7c1,1.9,1.9,4.9,2.2,8.7c0.4,3.8,0.1,8.3,0.3,13.2c0.2,4.9,1.2,10.2,2.4,15.8
					c1.2,5.6,2.3,11,2.7,16c0.2,2.5,0.2,4.9,0,7.1c-0.2,2.2-0.3,4.2-0.5,6.1c-0.3,3.7-0.1,6.7,0.3,8.7
					C197.1,258.3,197.6,259.4,197.4,259.4z"/>
			</g>
		</g>
		<g>
			<g>
				<path class="st12" d="M218.5,260.9c-0.1,0-0.3-1.1-0.5-3.2c-0.2-2.1-0.6-5.1-0.9-8.8c-0.8-7.5-2-17.7-3.6-29
					c-0.8-5.7-1.7-11-2.5-15.9c-0.8-4.9-1.6-9.3-2.1-13c-0.5-3.7-0.6-6.8-0.5-8.9c0.1-2.1,0.2-3.3,0.3-3.3c0.2,0,0.1,4.7,1.3,12
					c0.6,3.7,1.5,8.1,2.4,12.9c0.9,4.9,1.8,10.3,2.7,15.9c1.7,11.3,2.7,21.7,3.2,29.2c0.3,3.7,0.4,6.8,0.5,8.9
					C218.6,259.7,218.6,260.9,218.5,260.9z"/>
			</g>
		</g>
		<g>
			<g>
				<path class="st12" d="M217.4,178c0.1,0,0.2,1.2,0.5,3.2c0.3,2.1,1.1,5,2.2,8.6c0.5,1.8,1.2,3.8,1.7,6c0.5,2.2,0.9,4.6,1.1,7.1
					c0.4,5,0.4,10.5,0.7,16.2c0.6,11.5,1.7,21.8,2.5,29.3c0.4,3.8,0.7,6.8,0.9,8.9c0.2,2.1,0.2,3.3,0.1,3.3c-0.1,0-0.4-1.1-0.7-3.2
					c-0.4-2.1-0.8-5.1-1.4-8.8c-1-7.5-2.3-17.8-2.9-29.4c-0.3-5.8-0.2-11.3-0.6-16.2c-0.2-2.5-0.5-4.8-0.9-6.9c-0.4-2.1-1-4.1-1.5-6
					c-1-3.6-1.6-6.7-1.7-8.8C217.1,179.2,217.3,178,217.4,178z"/>
			</g>
		</g>
		<g>
			<g>
				<path class="st12" d="M209.3,177.7c-0.4-0.1-0.5-1.4-0.9-2.7c-0.4-1.3-1-2.5-0.7-2.8c0.2-0.1,0.5,0,1,0.4c0.4,0.4,0.9,1.1,1.2,2
					c0.2,0.9,0.2,1.8,0,2.3C209.8,177.4,209.5,177.7,209.3,177.7z"/>
			</g>
		</g>
		<g>
			<g>
				<path class="st12" d="M193.2,178.2c-0.2,0.1-0.5-0.2-0.8-0.9c-0.3-0.6-0.3-1.6-0.1-2.6c0.3-1,0.9-1.8,1.4-2.2
					c0.5-0.4,1-0.5,1.1-0.3c0.3,0.4-0.6,1.4-1,3C193.4,176.7,193.6,178,193.2,178.2z"/>
			</g>
		</g>
		<g>
			<g>
				<path class="st12" d="M209.2,260.4c-0.1,0,0.1-1.2,0-3.2c-0.1-2.1-0.7-5-2-8.5c-0.6-1.8-1.3-3.7-1.9-5.8
					c-0.6-2.1-1.2-4.4-1.6-6.9c-0.9-4.9-1.6-10.3-2.3-16c-1.4-11.3-2.6-21.6-3.4-29c-0.4-3.7-0.7-6.7-0.9-8.8
					c-0.2-2.1-0.2-3.2-0.1-3.3c0.1,0,0.4,1.1,0.7,3.2s0.8,5.1,1.3,8.8c1.1,7.4,2.4,17.7,3.9,29c0.7,5.7,1.3,11.1,2.1,15.9
					c0.4,2.4,0.9,4.7,1.5,6.8c0.5,2.1,1.2,4,1.7,5.8c1.1,3.6,1.6,6.7,1.5,8.8C209.7,259.3,209.2,260.4,209.2,260.4z"/>
			</g>
		</g>
		<g>
			<g>
				<path class="st12" d="M188.3,259.3c-0.2,0-0.6-3.1-1.2-8.1c-0.6-5-1.4-11.9-2.2-19.6c-0.8-7.7-1.4-14.6-1.6-19.7
					c-0.2-5-0.2-8.2,0-8.2c0.2,0,0.6,3.1,1.1,8.1c0.5,5.1,1.3,12,2.1,19.6c0.8,7.7,1.4,14.6,1.7,19.6
					C188.5,256.1,188.5,259.3,188.3,259.3z"/>
			</g>
		</g>
		<g>
			<g>
				<path class="st12" d="M161,235.7c-0.2-0.1,0.4-3.3,1.5-8.6c1.1-5.3,2.8-12.5,4.7-20.5c1-4,1.9-7.8,2.8-11.2
					c0.8-3.4,1.7-6.6,3.1-9c1.4-2.4,3.1-4,4.5-4.7c1.4-0.8,2.2-0.8,2.3-0.8c0,0.1-0.8,0.4-1.9,1.3c-1.2,0.9-2.7,2.4-3.9,4.7
					c-1.2,2.3-1.9,5.4-2.7,8.9c-0.8,3.5-1.7,7.3-2.6,11.3c-1.9,8-3.7,15.2-5.1,20.4C162.2,232.6,161.2,235.8,161,235.7z"/>
			</g>
		</g>
		<g>
			<g>
				<path class="st12" d="M184.9,185c0.1,0.1-0.5,0.6-1.1,1.8c-0.6,1.2-1.2,3-1.8,5.4c-0.3,1.2-0.6,2.5-0.9,3.9
					c-0.3,1.4-0.6,2.9-0.9,4.5c-0.3,1.6-0.8,3.3-1.4,5c-0.7,1.7-1.5,3.3-2.3,5c-0.9,1.7-1.7,3.3-2.4,4.8c-0.6,1.5-1,3.2-1.3,4.7
					c-0.6,3.1-0.7,6-0.9,8.5c-0.2,4.9-0.1,7.9-0.4,7.9c-0.2,0-0.7-3-0.7-7.9c0-2.5,0-5.4,0.5-8.7c0.3-1.6,0.6-3.3,1.3-5.1
					c0.7-1.7,1.6-3.3,2.4-5c0.9-1.7,1.7-3.3,2.3-4.9c0.6-1.6,1.1-3.2,1.4-4.7c0.4-1.6,0.7-3.1,1-4.5c0.4-1.4,0.8-2.7,1.1-3.9
					c0.7-2.4,1.6-4.2,2.4-5.4C184.1,185.4,184.9,185,184.9,185z"/>
			</g>
		</g>
		<g>
			<g>
				<path class="st12" d="M255.7,208.6c-0.1,0.2-2.1-0.5-4.9-2.1c-2.9-1.6-6.7-4.1-10.6-7.5c-1.9-1.7-3.5-3.5-5-5
					c-1.5-1.5-3-2.7-4.4-3.6c-2.7-1.7-4.7-2.2-4.6-2.4c0-0.1,0.5-0.1,1.5,0.1c0.9,0.2,2.2,0.6,3.7,1.4c1.5,0.8,3.1,2,4.8,3.5
					c1.7,1.5,3.3,3.3,5.1,4.9c3.7,3.3,7.4,5.9,10.1,7.7C254.1,207.4,255.8,208.4,255.7,208.6z"/>
			</g>
		</g>
		<g>
			<g>
				<path class="st12" d="M251,215.3c-0.1,0.2-1.5-0.6-3.7-1.9c-2.2-1.3-5.2-3.1-8.5-5.2c-3.3-2.1-6.2-4.2-8.2-5.8
					c-2-1.7-3.1-2.9-2.9-3c0.1-0.2,1.5,0.7,3.6,2.1c2.1,1.4,5.1,3.3,8.4,5.4c3.3,2.1,6.3,4.1,8.3,5.6
					C249.9,214.1,251.1,215.2,251,215.3z"/>
			</g>
		</g>
		<g>
			<g>
				<path class="st5" d="M179.9,180.3c0,0,0.1,0,0.3,0.1c0.2,0.1,0.5,0.2,0.9,0.4c0.7,0.4,1.7,1.2,2.6,2.4c0.9,1.2,1.8,2.8,2.2,4.7
					c0.5,1.9,0.5,4.1,0.1,6.4c-0.3,2.3-0.9,4.3-1.6,6.2c-0.6,1.9-1.2,3.5-1.7,4.9c-0.5,1.4-0.8,2.5-1.1,3.3
					c-0.2,0.8-0.4,1.2-0.4,1.2c0,0,0-0.5,0.2-1.3c0.2-0.8,0.5-2,0.9-3.4c0.8-2.8,2.5-6.6,3.1-11c0.3-2.2,0.3-4.4-0.1-6.2
					c-0.4-1.9-1.2-3.5-2-4.6C181.7,181,179.9,180.4,179.9,180.3z"/>
			</g>
		</g>
		<g>
			<g>
				<path class="st5" d="M228.4,211.7c0,0-0.1-0.4-0.2-1.2c-0.1-0.9-0.3-2-0.4-3.3c-0.4-2.9-0.8-6.7-1.3-11c-0.5-4.2-1-8.1-1.3-11
					c-0.2-1.3-0.3-2.4-0.4-3.3c-0.1-0.8-0.1-1.2-0.1-1.2c0,0,0.1,0.4,0.3,1.2c0.1,0.8,0.3,1.9,0.6,3.3c0.4,2.8,1,6.7,1.5,11
					c0.5,4.3,0.9,8.2,1.2,11c0.1,1.4,0.2,2.6,0.3,3.3C228.5,211.3,228.5,211.7,228.4,211.7z"/>
			</g>
		</g>
		<g>
			<g>
				<path class="st5" d="M200.6,175.7c0,0.1-0.7-0.3-1.7,0.2c-0.5,0.3-0.9,0.7-1.2,1.4c-0.2,0.3-0.3,0.7-0.4,1.1
					c-0.1,0.2-0.1,0.4-0.2,0.6c-0.1,0.2-0.1,0.5-0.3,0.7c-0.1,0.1-0.3,0.2-0.4,0.2c-0.2,0-0.3,0-0.4-0.1c-0.2-0.1-0.4-0.2-0.6-0.3
					c-0.4-0.2-0.7-0.4-1.1-0.5c-0.6-0.3-1.2-0.6-1.8-0.9c-1-0.5-1.6-0.9-1.6-1c0-0.1,0.7,0.2,1.8,0.6c0.6,0.3,1.2,0.5,1.8,0.8
					c0.4,0.2,0.7,0.3,1.1,0.5c0.2,0.1,0.4,0.2,0.6,0.3c0.2,0.1,0.2,0.1,0.3,0c0.2-0.2,0.2-0.7,0.4-1.1c0.1-0.4,0.3-0.8,0.4-1.1
					c0.3-0.7,0.9-1.3,1.5-1.5c0.6-0.3,1.1-0.3,1.4-0.2C200.4,175.5,200.6,175.7,200.6,175.7z"/>
			</g>
		</g>
		<g>
			<g>
				<path class="st5" d="M211.2,176.7c0.1,0.1-1.7,1.5-3.9,3.3l-0.3,0.2l-0.1-0.4c0-0.2-0.1-0.3-0.1-0.5c-0.2-1.5-0.7-2.8-1.5-3.5
					c-0.7-0.7-1.4-0.8-1.3-0.8c0-0.1,0.7-0.1,1.6,0.6c0.4,0.3,0.8,0.9,1.1,1.5c0.3,0.6,0.5,1.4,0.6,2.2c0,0.2,0.1,0.4,0.1,0.5
					l-0.4-0.2C209.3,177.9,211.2,176.6,211.2,176.7z"/>
			</g>
		</g>
		<g>
			<g>
				<path class="st5" d="M176.9,236.6c0,0.1-1-0.2-2.4-0.7c-1.5-0.5-3.6-1.1-5.9-1.7c-2.3-0.6-4.4-1-6-1.3c-1.5-0.3-2.5-0.5-2.5-0.6
					c0-0.1,1,0,2.5,0.2c1.6,0.2,3.7,0.6,6,1.2c2.3,0.6,4.4,1.3,5.9,1.8C176,236.1,176.9,236.5,176.9,236.6z"/>
			</g>
		</g>
		<g>
			<g>
				<path class="st5" d="M161.8,230.3c0-0.1,0.9,0.1,2.4,0.5c1.5,0.4,3.5,1,5.7,1.7c1.1,0.4,2.1,0.8,3.1,1.1
					c0.9,0.4,1.8,0.7,2.4,1.1c1.4,0.8,1.7,1.9,1.6,1.9c-0.1,0-0.5-0.9-1.8-1.6c-0.7-0.4-1.5-0.7-2.4-1c-1-0.3-2-0.7-3.1-1.1
					c-2.2-0.8-4.2-1.4-5.6-1.9C162.7,230.6,161.8,230.3,161.8,230.3z"/>
			</g>
		</g>
		<g>
			<g>
				<path class="st5" d="M250.5,214.1c-0.1,0,0.3-0.8,0.9-1.9c0.6-1.2,1.5-2.7,2.7-4.4c1.1-1.6,2.3-3.1,3.1-4c0.9-1,1.5-1.5,1.5-1.5
					c0.1,0.1-2,2.6-4.2,5.8C252.2,211.3,250.6,214.2,250.5,214.1z"/>
			</g>
		</g>
		<g>
			<g>
				<path class="st5" d="M249,211.7c-0.1,0,0.2-0.7,0.9-1.8c0.6-1,1.7-2.4,3-3.7c1.3-1.3,2.7-2.3,3.7-2.9c1-0.6,1.7-0.9,1.8-0.9
					c0.1,0.1-2.5,1.6-5.1,4.2C250.6,209.2,249.1,211.8,249,211.7z"/>
			</g>
		</g>
		<g>
			<g>
				<path class="st5" d="M213.1,263.1c0,0-0.1-0.3-0.1-0.8c-0.1-0.6-0.2-1.3-0.3-2.3c-0.2-2.1-0.6-5-1-8.5c-0.8-7.2-2-17.1-3.3-28.1
					c-1.4-11-2.7-20.9-3.8-28c-0.5-3.6-1-6.5-1.3-8.5c-0.2-1-0.3-1.7-0.4-2.3c-0.1-0.5-0.1-0.8-0.1-0.8c0,0,0.1,0.3,0.2,0.8
					c0.1,0.6,0.3,1.3,0.5,2.3c0.4,2,0.9,4.9,1.5,8.4c1.2,7.1,2.6,17,3.9,28c1.4,11,2.5,20.9,3.2,28.1c0.3,3.6,0.6,6.5,0.8,8.5
					c0.1,1,0.1,1.7,0.2,2.3C213.1,262.8,213.1,263.1,213.1,263.1z"/>
			</g>
		</g>
		<g>
			<g>
				<path class="st5" d="M206.5,200.7c-0.1,0-0.1-0.4,0.4-0.8c0.2-0.2,0.6-0.3,1-0.1c0.4,0.2,0.7,0.6,0.6,1.1
					c-0.1,0.5-0.6,0.8-1,0.8c-0.5,0-0.8-0.3-0.9-0.6c-0.1-0.3,0-0.5,0.1-0.7c0.1-0.1,0.2-0.2,0.2-0.1c0.1,0-0.1,0.3,0.1,0.7
					c0.1,0.2,0.3,0.3,0.5,0.3c0.2,0,0.5-0.2,0.5-0.4c0-0.2-0.1-0.5-0.3-0.6c-0.2-0.1-0.4-0.1-0.6,0
					C206.7,200.4,206.6,200.7,206.5,200.7z"/>
			</g>
		</g>
		<g>
			<g>
				<path class="st5" d="M209.5,218.1c-0.1,0-0.1-0.4,0.4-0.8c0.2-0.2,0.6-0.3,1-0.1c0.4,0.2,0.7,0.6,0.6,1.1
					c-0.1,0.5-0.6,0.8-1,0.8c-0.5,0-0.8-0.3-0.9-0.6c-0.1-0.3,0-0.5,0.1-0.7c0.1-0.1,0.2-0.2,0.2-0.1c0.1,0-0.1,0.3,0.1,0.7
					c0.1,0.2,0.3,0.3,0.5,0.3c0.2,0,0.5-0.2,0.5-0.4c0-0.2-0.1-0.5-0.3-0.6c-0.2-0.1-0.4-0.1-0.6,0
					C209.7,217.8,209.6,218.1,209.5,218.1z"/>
			</g>
		</g>
	</g>
	<g>
		<g>
			<g>
				<path class="st16" d="M201.9,429l-0.2-8.9l-16.7,0.3l0.2,13l1,0c4.6,0.2,23.4,0.6,26.5-0.4C216.1,432,201.9,429,201.9,429z"/>
			</g>
		</g>
	</g>
	<g>
		<g>
			<path class="st17" d="M208.8,430.7c0,0,5,1.4,4.4,2.2c-0.6,0.8-19.7,1.1-28.1,0.5l0-0.4l22.2-0.2
				C207.4,432.9,207.9,430.8,208.8,430.7z"/>
		</g>
	</g>
	<g>
		<g>
			<g>
				<path class="st5" d="M184.9,433c0,0,0.1,0,0.3,0c0.2,0,0.5,0,0.8,0c0.8,0,1.8,0.1,3,0.1c2.6,0.1,6.1,0.1,10,0
					c3.9-0.1,7.5-0.2,10-0.3c1.2-0.1,2.2-0.1,3-0.2c0.3,0,0.6,0,0.8-0.1c0.2,0,0.3,0,0.3,0c0,0-0.1,0-0.3,0c-0.2,0-0.5,0-0.8,0
					c-0.8,0-1.8,0.1-3,0.1c-2.6,0.1-6.1,0.2-10,0.3c-3.9,0.1-7.4,0.1-10,0c-1.2,0-2.2,0-3,0c-0.3,0-0.6,0-0.8,0
					C185,433,184.9,433,184.9,433z"/>
			</g>
		</g>
	</g>
	<g>
		<g>
			<g>
				<path class="st5" d="M207.4,433.1c0.1,0,0.1-0.7,0.5-1.5c0.4-0.7,1.1-1.1,1-1.2c0-0.1-0.7,0.3-1.2,1.1
					C207.3,432.4,207.3,433.2,207.4,433.1z"/>
			</g>
		</g>
	</g>
	<g>
		<g>
			<g>
				<path class="st5" d="M202.4,430.7c0,0,0.3-0.3,0.5-0.6c0.2-0.4,0.4-0.7,0.3-0.8c0,0-0.3,0.3-0.5,0.6
					C202.5,430.4,202.4,430.7,202.4,430.7z"/>
			</g>
		</g>
	</g>
	<g>
		<g>
			<g>
				<path class="st5" d="M201.1,430c0,0,0.3-0.1,0.6-0.4c0.3-0.3,0.5-0.5,0.4-0.5c0,0-0.3,0.1-0.6,0.4
					C201.2,429.7,201,430,201.1,430z"/>
			</g>
		</g>
	</g>
	<g>
		<g>
			<g>
				<path class="st5" d="M200.2,428.5c0,0.1,0.4,0.1,0.9,0.1s0.9,0,0.9-0.1c0-0.1-0.4-0.1-0.9-0.1
					C200.6,428.4,200.2,428.4,200.2,428.5z"/>
			</g>
		</g>
	</g>
	<g>
		<g>
			<g>
				<path class="st5" d="M199.9,427.4c0,0.1,0.4,0.2,1,0.3c0.6,0,1-0.1,1-0.1c0-0.1-0.5,0-1-0.1
					C200.3,427.4,199.9,427.3,199.9,427.4z"/>
			</g>
		</g>
	</g>
	<g>
		<g>
			<g>
				<path class="st5" d="M203,429.3c0,0,0.4,0.1,1.1,0c0.3,0,0.7-0.1,1.1-0.3c0.2-0.1,0.4-0.1,0.6-0.3c0.1-0.1,0.2-0.2,0.3-0.3
					c0-0.2,0-0.3-0.2-0.4c-1-0.5-2.1,0.1-2.4,0.6c-0.2,0.3-0.3,0.5-0.3,0.7c0,0.2,0,0.3,0,0.3c0,0,0.1-0.4,0.5-0.9
					c0.2-0.2,0.5-0.5,0.9-0.6c0.4-0.1,0.9-0.2,1.3,0.1c0.2,0.1,0.1,0.3-0.1,0.4c-0.2,0.1-0.4,0.2-0.6,0.3c-0.4,0.1-0.8,0.2-1.1,0.3
					C203.4,429.2,203,429.2,203,429.3z"/>
			</g>
		</g>
	</g>
	<g>
		<g>
			<g>
				<path class="st5" d="M203.3,429.3c0,0,0.2-0.3,0.1-0.7c0-0.2-0.1-0.5-0.3-0.8c-0.2-0.2-0.4-0.6-0.9-0.5c-0.2,0-0.4,0.3-0.3,0.5
					c0,0.2,0.1,0.3,0.2,0.5c0.2,0.3,0.3,0.5,0.5,0.6C202.9,429.2,203.1,429.3,203.3,429.3c-0.1,0-0.3-0.2-0.6-0.5
					c-0.1-0.2-0.3-0.4-0.5-0.6c-0.2-0.2-0.3-0.6,0-0.7c0.3,0,0.5,0.2,0.7,0.4c0.2,0.2,0.3,0.5,0.3,0.7
					C203.3,429,203.2,429.3,203.3,429.3z"/>
			</g>
		</g>
	</g>
	<g>
		<g>
			<g>
				<path class="st5" d="M185.2,428.5c0,0,0.5-0.1,1.2,0c0.7,0.1,1.8,0.4,2.7,1.1c0.9,0.7,1.5,1.6,1.7,2.3c0.3,0.7,0.3,1.2,0.3,1.2
					c0,0,0-0.1,0-0.3c0-0.2-0.1-0.5-0.2-0.9c-0.2-0.7-0.8-1.7-1.7-2.5c-1-0.7-2-1-2.8-1c-0.4,0-0.7,0-0.9,0
					C185.3,428.4,185.2,428.5,185.2,428.5z"/>
			</g>
		</g>
	</g>
	<g>
		<g>
			<g>
				<path class="st5" d="M186.8,421.5c-0.1,0-0.1,1.5-0.1,3.4c0,1.9,0.1,3.4,0.1,3.4c0.1,0,0.1-1.5,0.1-3.4
					C186.9,423,186.8,421.5,186.8,421.5z"/>
			</g>
		</g>
	</g>
	<g>
		<g>
			<g>
				<path class="st5" d="M193.3,431.5c0,0.1,1.1,0.2,2.4,0.2c1.4,0,2.4-0.2,2.4-0.2c0-0.1-1.1,0-2.4,0
					C194.4,431.5,193.3,431.5,193.3,431.5z"/>
			</g>
		</g>
	</g>
	<g>
		<g>
			<g>
				<path class="st5" d="M190,431.6c0,0,0.1,0.2,0.2,0.5c0.1,0.2,0.2,0.5,0.2,0.5c0.1,0,0.1-0.3-0.1-0.6
					C190.3,431.7,190,431.5,190,431.6z"/>
			</g>
		</g>
	</g>
	<g>
		<g>
			<g>
				<path class="st5" d="M188.7,430.1c0,0,0.1,0.2,0.2,0.4c0.2,0.2,0.3,0.3,0.4,0.2c0,0-0.1-0.2-0.2-0.4
					C189,430.1,188.8,430,188.7,430.1z"/>
			</g>
		</g>
	</g>
	<g>
		<g>
			<g>
				<path class="st5" d="M187,429.4c0,0.1,0.2,0.1,0.5,0.1c0.2,0.1,0.4,0.2,0.5,0.2c0,0-0.1-0.3-0.4-0.4
					C187.2,429.2,186.9,429.3,187,429.4z"/>
			</g>
		</g>
	</g>
	<g>
		<g>
			<g>
				<path class="st5" d="M185.7,429.1c0,0.1,0.1,0.1,0.2,0.2c0.1,0.1,0.3,0.1,0.3,0c0-0.1-0.1-0.1-0.2-0.2
					C185.9,429,185.7,429,185.7,429.1z"/>
			</g>
		</g>
	</g>
	<polygon points="185.2,428 201.9,427.5 201.8,425.5 185,427 	"/>
	<g>
		<g>
			<g>
				<path class="st16" d="M240.6,429.2l-0.2-8.9l-16.7,0.4l0.2,13l1,0c4.6,0.2,23.5,0.5,26.5-0.5
					C254.8,432.1,240.6,429.2,240.6,429.2z"/>
			</g>
		</g>
	</g>
	<g>
		<g>
			<path class="st17" d="M247.5,430.9c0,0,5,1.3,4.4,2.2c-0.6,0.8-19.7,1.2-28.1,0.7l0-0.4l22.2-0.3
				C246.1,433,246.6,430.9,247.5,430.9z"/>
		</g>
	</g>
	<g>
		<g>
			<g>
				<path class="st5" d="M223.6,433.3c0,0,0.1,0,0.3,0c0.2,0,0.5,0,0.8,0c0.8,0,1.8,0,3,0.1c2.6,0,6.1,0,10,0
					c3.9-0.1,7.5-0.2,10-0.4c1.2-0.1,2.2-0.1,3-0.2c0.3,0,0.6,0,0.8-0.1c0.2,0,0.3,0,0.3,0c0,0-0.1,0-0.3,0c-0.2,0-0.5,0-0.8,0
					c-0.8,0-1.8,0.1-3,0.1c-2.6,0.1-6.1,0.2-10,0.3c-3.9,0.1-7.4,0.1-10,0.1c-1.2,0-2.2,0-3,0c-0.3,0-0.6,0-0.8,0
					C223.7,433.3,223.6,433.3,223.6,433.3z"/>
			</g>
		</g>
	</g>
	<g>
		<g>
			<g>
				<path class="st5" d="M246.1,433.3c0.1,0,0.1-0.7,0.5-1.5c0.4-0.7,1-1.1,1-1.2c0-0.1-0.7,0.3-1.2,1.1
					C246,432.5,246.1,433.3,246.1,433.3z"/>
			</g>
		</g>
	</g>
	<g>
		<g>
			<g>
				<path class="st5" d="M241.1,430.9c0,0,0.3-0.3,0.5-0.7c0.2-0.4,0.4-0.7,0.3-0.8c0,0-0.3,0.3-0.5,0.7
					C241.2,430.5,241.1,430.9,241.1,430.9z"/>
			</g>
		</g>
	</g>
	<g>
		<g>
			<g>
				<path class="st5" d="M239.8,430.2c0,0,0.3-0.1,0.6-0.4c0.3-0.3,0.5-0.5,0.4-0.6c0,0-0.3,0.1-0.6,0.4
					C239.9,429.9,239.7,430.2,239.8,430.2z"/>
			</g>
		</g>
	</g>
	<g>
		<g>
			<g>
				<path class="st5" d="M238.9,428.7c0,0.1,0.4,0.1,0.9,0.1c0.5,0,0.9-0.1,0.9-0.1c0-0.1-0.4-0.1-0.9-0.1
					C239.3,428.6,238.9,428.6,238.9,428.7z"/>
			</g>
		</g>
	</g>
	<g>
		<g>
			<g>
				<path class="st5" d="M238.6,427.6c0,0.1,0.4,0.2,1,0.3c0.6,0,1-0.1,1-0.2c0-0.1-0.5,0-1,0C239,427.6,238.6,427.5,238.6,427.6z"
					/>
			</g>
		</g>
	</g>
	<g>
		<g>
			<g>
				<path class="st5" d="M241.7,429.4c0,0,0.4,0.1,1.1,0c0.3,0,0.7-0.1,1.1-0.3c0.2-0.1,0.4-0.1,0.6-0.3c0.1-0.1,0.2-0.2,0.3-0.3
					c0-0.2,0-0.3-0.2-0.4c-1-0.5-2.1,0.1-2.4,0.6c-0.2,0.3-0.3,0.5-0.3,0.7c0,0.2,0,0.3,0,0.3c0,0,0.1-0.4,0.5-0.9
					c0.2-0.2,0.5-0.5,0.9-0.6c0.4-0.1,0.9-0.2,1.3,0.1c0.2,0.1,0.1,0.3-0.1,0.4c-0.2,0.1-0.4,0.2-0.6,0.3c-0.4,0.1-0.8,0.2-1.1,0.3
					C242.1,429.4,241.7,429.4,241.7,429.4z"/>
			</g>
		</g>
	</g>
	<g>
		<g>
			<g>
				<path class="st5" d="M241.9,429.5c0,0,0.2-0.3,0.1-0.7c0-0.2-0.1-0.5-0.3-0.8c-0.2-0.2-0.4-0.6-0.9-0.5c-0.2,0-0.4,0.3-0.3,0.5
					c0,0.2,0.1,0.3,0.2,0.5c0.2,0.3,0.3,0.5,0.5,0.6C241.6,429.4,241.8,429.5,241.9,429.5c-0.1,0-0.3-0.2-0.6-0.5
					c-0.2-0.2-0.3-0.4-0.5-0.6c-0.2-0.2-0.3-0.6,0-0.7c0.3,0,0.5,0.2,0.7,0.4c0.2,0.2,0.3,0.5,0.3,0.7
					C242,429.2,241.9,429.5,241.9,429.5z"/>
			</g>
		</g>
	</g>
	<g>
		<g>
			<g>
				<path class="st5" d="M223.9,428.7c0,0,0.5-0.1,1.2,0c0.7,0.1,1.8,0.4,2.7,1.1c0.9,0.7,1.5,1.6,1.7,2.3c0.3,0.7,0.3,1.2,0.3,1.2
					c0,0,0-0.1,0-0.3c0-0.2-0.1-0.5-0.2-0.9c-0.2-0.7-0.8-1.7-1.7-2.5c-1-0.7-2.1-1-2.8-1c-0.4,0-0.7,0-0.9,0
					C224,428.7,223.9,428.7,223.9,428.7z"/>
			</g>
		</g>
	</g>
	<g>
		<g>
			<g>
				<path class="st5" d="M225.4,421.8c-0.1,0-0.1,1.5-0.1,3.4c0,1.9,0.1,3.4,0.1,3.4c0.1,0,0.1-1.5,0.1-3.4
					C225.6,423.3,225.5,421.8,225.4,421.8z"/>
			</g>
		</g>
	</g>
	<g>
		<g>
			<g>
				<path class="st5" d="M232,431.8c0,0.1,1.1,0.2,2.4,0.2c1.4,0,2.4-0.2,2.4-0.2c0-0.1-1.1,0-2.4,0
					C233.1,431.8,232,431.7,232,431.8z"/>
			</g>
		</g>
	</g>
	<g>
		<g>
			<g>
				<path class="st5" d="M228.7,431.8c0,0,0.1,0.2,0.2,0.5c0.1,0.2,0.2,0.5,0.2,0.5c0.1,0,0.1-0.3-0.1-0.6
					C229,431.9,228.7,431.8,228.7,431.8z"/>
			</g>
		</g>
	</g>
	<g>
		<g>
			<g>
				<path class="st5" d="M227.4,430.3c0,0,0.1,0.2,0.2,0.4c0.2,0.2,0.4,0.3,0.4,0.2c0,0-0.1-0.2-0.2-0.4
					C227.6,430.4,227.5,430.3,227.4,430.3z"/>
			</g>
		</g>
	</g>
	<g>
		<g>
			<g>
				<path class="st5" d="M225.7,429.6c0,0.1,0.2,0,0.5,0.1c0.2,0.1,0.4,0.2,0.5,0.2c0,0-0.1-0.3-0.4-0.4
					C225.9,429.5,225.6,429.6,225.7,429.6z"/>
			</g>
		</g>
	</g>
	<g>
		<g>
			<g>
				<path class="st5" d="M224.4,429.3c0,0.1,0.1,0.1,0.2,0.2c0.1,0.1,0.3,0,0.3,0c0-0.1-0.1-0.1-0.2-0.2
					C224.5,429.3,224.4,429.3,224.4,429.3z"/>
			</g>
		</g>
	</g>
	<polygon points="223.9,428.3 240.5,427.7 240.5,425.6 223.7,427.2 	"/>
	<g>
		<g>
			<g>
				<polygon class="st18" points="181.9,258 181.9,426.8 208.2,426.8 210.5,280.4 219.8,426.8 246.1,426.8 234.3,260.9 				"/>
			</g>
		</g>
		<g>
			<g>
				<path class="st18" d="M212.8,259.3c0.1,0,0.1,1,0.2,2.7c0.1,1.7,0.1,4,0.2,6.6c0,1.3,0,2.5,0,3.6c0,1.1-0.1,2.2-0.5,3
					c-0.4,0.8-1,1.3-1.5,1.5c-0.5,0.2-0.8,0.2-0.8,0.2c0,0,0.3-0.1,0.7-0.4c0.4-0.3,0.9-0.8,1.3-1.5c0.3-0.7,0.4-1.7,0.4-2.8
					c0-1.1,0-2.3-0.1-3.6c0-2.6,0-4.9,0-6.6C212.7,260.3,212.7,259.3,212.8,259.3z"/>
			</g>
		</g>
		<g>
			<g>
				<path class="st18" d="M208.1,261.2c0,0.1-0.4,0.3-0.4,0.8c0,0.3,0.1,0.6,0.4,0.8c0.3,0.2,0.7,0.2,1.1-0.1
					c0.5-0.3,0.4-0.9,0.1-1.2C208.8,261.2,208.4,261.2,208.1,261.2L208.1,261.2c0.3,0,0.4,0.1,0.4,0.1
					C208.4,261.3,208.3,261.3,208.1,261.2l-0.2,0L208.1,261.2c0.2-0.3,0.9-0.4,1.4,0c0.3,0.2,0.5,0.5,0.5,0.9c0,0.4-0.2,0.8-0.6,1
					c-0.5,0.3-1.2,0.4-1.6,0c-0.4-0.3-0.5-0.8-0.5-1.1c0.1-0.3,0.3-0.6,0.4-0.7C207.9,261.2,208,261.2,208.1,261.2z"/>
			</g>
		</g>
	</g>
	<g>
		<path class="st19" d="M226.7,228.3c-0.7-0.9-9,0.5-9,0.5l3-2.3c-1.5-2.7-6.9,0.6-8.6,2.2c-0.4,0.4-0.7,1-0.8,1.7l-33.5,7.1
			l-18.7-1.9c0,0-0.4,3.2-1.3,9.3c-0.9,5.8,8.6,11.4,14.4,10.6c5.4-0.8,38.1-10.1,43.7-11.7l0,0l0,0c0.5-0.1,0.8-0.2,0.8-0.2l0,0
			c1.8-0.6,6.1-2.2,6.6-2.9c0.6-1,0.4-8.8,0.4-8.8l3.1-1.4C226.8,230.4,227.4,229.2,226.7,228.3z"/>
	</g>
	<path class="st13" d="M584.8,160c0,0,4.2-1,5.6,1.1c1.4,2.1,0.4,3.2,3.5,4.1c3.1,0.9,4.1,0.8,3.8,3c-0.3,2.2,3.1,3.8,3.2,5.5
		c0.1,1.7,1.6,2.6,2.9,2.7c1.4,0.1,0.7-22.2-4.5-23.2c-5.2-1-10.3,0.2-11.8,1.4C586,155.7,584.8,160,584.8,160z"/>
	<path class="st13" d="M584.8,160c0,0-4.1-0.3-4.8,2.1c-0.7,2.3,0.2,2.9-0.8,4.3c-1,1.4-0.4,3.9-0.4,3.9s-8.1-15,0.4-15.9
		C587.8,153.4,587.5,155.1,584.8,160z"/>
</g>
</svg>
