<svg width="42" height="42" viewBox="0 0 42 42" fill="none" xmlns="http://www.w3.org/2000/svg">
<path d="M21 6.15234C18.9646 6.15234 17.3086 7.80835 17.3086 9.84375C17.3086 11.8792 18.9646 13.5352 21 13.5352C23.0354 13.5352 24.6914 11.8792 24.6914 9.84375C24.6914 7.80835 23.0354 6.15234 21 6.15234Z" fill="#2DB1FF"/>
<path d="M21 0C15.5722 0 11.1562 4.41591 11.1562 9.84375C11.1562 11.7052 11.6789 13.5185 12.6681 15.0877L21 28.3828L29.3319 15.0877C30.3211 13.5185 30.8438 11.7052 30.8438 9.84375C30.8438 4.41591 26.4278 0 21 0ZM21 15.9961C17.6079 15.9961 14.8477 13.2359 14.8477 9.84375C14.8477 6.45163 17.6079 3.69141 21 3.69141C24.3921 3.69141 27.1523 6.45163 27.1523 9.84375C27.1523 13.2359 24.3921 15.9961 21 15.9961Z" fill="#2DB1FF"/>
<path d="M15.0112 42H26.9843L26.038 34.5352H15.9338L15.0112 42Z" fill="#2DB1FF"/>
<path d="M16.2417 32.0742H20.4182L16.9329 26.5464L16.2417 32.0742Z" fill="#2DB1FF"/>
<path d="M28.2047 32.0742H37.8988L34.8226 24.6914H27.2578L28.2047 32.0742Z" fill="#2DB1FF"/>
<path d="M4.10107 32.0742H13.7615L14.6844 24.6914H7.17725L4.10107 32.0742Z" fill="#2DB1FF"/>
<path d="M20.582 32.0742H24.7227L24.0232 26.6172L20.582 32.0742Z" fill="#2DB1FF"/>
<path d="M13.4541 34.5352H3.07585L0 42H12.5316L13.4541 34.5352Z" fill="#2DB1FF"/>
<path d="M38.9242 34.5352H28.52L29.4666 42H42.0001L38.9242 34.5352Z" fill="#2DB1FF"/>
</svg>
