<svg xmlns="http://www.w3.org/2000/svg" viewBox="0 0 677.45 609.26"><g style="isolation:isolate"><g id="a242c900-0cc1-46c3-bd23-a38a90668c46" data-name="Layer 1"><g opacity="0.5"><path d="M676.41,352.94a63.76,63.76,0,0,0-.41-15.51l11.75-5.23a77.23,77.23,0,0,0-14.18-31.84l-11.75,5.23a64,64,0,0,0-11.25-10.67l4.61-12a78,78,0,0,0-32.54-12.5l-4.61,12a64.25,64.25,0,0,0-15.51.4l-5.2-11.68a77.46,77.46,0,0,0-31.81,14.26L570.68,297A63.71,63.71,0,0,0,560,308.27l-12-4.6a76.14,76.14,0,0,0-8.14,15.55,78.14,78.14,0,0,0-4.38,17l12,4.6a64.76,64.76,0,0,0,.41,15.51l-11.74,5.23a77.23,77.23,0,0,0,14.18,31.84l11.74-5.23a64.15,64.15,0,0,0,11.26,10.68l-4.61,12a77.64,77.64,0,0,0,32.54,12.5l4.61-12a64.26,64.26,0,0,0,15.51-.42l5.2,11.69a77.78,77.78,0,0,0,31.81-14.26l-5.17-11.61a64.44,64.44,0,0,0,10.68-11.25l12,4.59A75.88,75.88,0,0,0,684,374.52a77.45,77.45,0,0,0,4.39-17Zm-31.9,6.42a34.86,34.86,0,1,1-20.06-45A34.87,34.87,0,0,1,644.51,359.36Z" transform="translate(-10.97 -11.31)" fill="#1f3999"/></g><path d="M585.36,312.89C549,367.26,471.55,535.42,490.61,597.83l-278,.06S172.42,568,133.39,516c-7.1-9.45-14.15-19.64-20.91-30.5a380.15,380.15,0,0,1-20.26-36.77c-18.09-37.67-31-81.32-31.53-129.56-1.82-167,142.73-322.24,339.37-259.6S621.66,258.52,585.36,312.89Z" transform="translate(-10.97 -11.31)" fill="#1f3999" opacity="0.15"/><g opacity="0.7"><path d="M411.41,600.46a1.91,1.91,0,0,1-1.49-.72L261.65,415.4a1.91,1.91,0,0,1,3-2.4L412.9,597.35a1.9,1.9,0,0,1-.3,2.68A1.85,1.85,0,0,1,411.41,600.46Z" transform="translate(-10.97 -11.31)" fill="#460f84"/></g><g opacity="0.7"><path d="M181.42,600.46a1.92,1.92,0,0,1-1.49-3.11L328.2,413a1.91,1.91,0,1,1,3,2.4L182.91,599.74A1.91,1.91,0,0,1,181.42,600.46Z" transform="translate(-10.97 -11.31)" fill="#7d1acf"/></g><g opacity="0.7"><path d="M329.69,600.46a1.91,1.91,0,0,1-1.49-.72L179.93,415.4a1.91,1.91,0,0,1,3-2.4L331.17,597.35a1.89,1.89,0,0,1-.29,2.68A1.85,1.85,0,0,1,329.69,600.46Z" transform="translate(-10.97 -11.31)" fill="#7d1acf"/></g><path d="M207.69,419.09H138.81a4.89,4.89,0,0,1-4.89-4.89h0a4.89,4.89,0,0,1,4.89-4.89h68.88a4.9,4.9,0,0,1,4.9,4.89h0A4.9,4.9,0,0,1,207.69,419.09Z" transform="translate(-10.97 -11.31)" fill="#1f3999"/><path d="M405.88,419.09H209a4.89,4.89,0,0,1-4.9-4.89h0a4.89,4.89,0,0,1,4.9-4.89H405.88Z" transform="translate(-10.97 -11.31)" fill="#4a7ae5"/><g opacity="0.7"><path d="M260.9,506.37a5.35,5.35,0,1,1-5.35-5.34A5.34,5.34,0,0,1,260.9,506.37Z" transform="translate(-10.97 -11.31)" fill="#460f84"/></g><path d="M342.62,506.37a5.35,5.35,0,1,1-5.35-5.34A5.34,5.34,0,0,1,342.62,506.37Z" transform="translate(-10.97 -11.31)" fill="#ffc947"/><rect x="184.92" y="187.86" width="81.81" height="64.02" rx="3.99" fill="#4a7ae5"/><rect x="289.4" y="152.5" width="81.81" height="64.02" rx="3.99" fill="#1f3999"/><path d="M257.12,221H426a1.66,1.66,0,0,1,1.66,1.66v6.21a0,0,0,0,1,0,0H255.46a0,0,0,0,1,0,0v-6.21A1.66,1.66,0,0,1,257.12,221Z" fill="#fff"/><path d="M255.46,228.82H427.64a0,0,0,0,1,0,0v88.71a3.09,3.09,0,0,1-3.09,3.09h-166a3.09,3.09,0,0,1-3.09-3.09V228.82A0,0,0,0,1,255.46,228.82Z" fill="#1e50c1"/><path d="M430.35,236.2a1.21,1.21,0,1,1-1.21-1.21A1.21,1.21,0,0,1,430.35,236.2Z" transform="translate(-10.97 -11.31)" fill="#1f3999"/><path d="M422,236.2a1.21,1.21,0,1,1-1.21-1.21A1.21,1.21,0,0,1,422,236.2Z" transform="translate(-10.97 -11.31)" fill="#1f3999"/><path d="M413.7,236.2a1.21,1.21,0,1,1-1.21-1.21A1.21,1.21,0,0,1,413.7,236.2Z" transform="translate(-10.97 -11.31)" fill="#1f3999"/><path d="M371,252.54H275.35a1.66,1.66,0,0,1-1.66-1.67h0a1.66,1.66,0,0,1,1.66-1.66H371a1.66,1.66,0,0,1,1.66,1.66h0A1.67,1.67,0,0,1,371,252.54Z" transform="translate(-10.97 -11.31)" fill="#1f3999"/><path d="M371,263.13H275.35a1.66,1.66,0,0,1-1.66-1.67h0a1.66,1.66,0,0,1,1.66-1.66H371a1.66,1.66,0,0,1,1.66,1.66h0A1.67,1.67,0,0,1,371,263.13Z" transform="translate(-10.97 -11.31)" fill="#1f3999"/><path d="M325.35,273.72h-50a1.66,1.66,0,0,1-1.66-1.67h0a1.66,1.66,0,0,1,1.66-1.66h50a1.66,1.66,0,0,1,1.67,1.66h0A1.67,1.67,0,0,1,325.35,273.72Z" transform="translate(-10.97 -11.31)" fill="#1f3999"/><path d="M371,294.9H275.35a1.66,1.66,0,0,1-1.66-1.67h0a1.66,1.66,0,0,1,1.66-1.66H371a1.66,1.66,0,0,1,1.66,1.66h0A1.67,1.67,0,0,1,371,294.9Z" transform="translate(-10.97 -11.31)" fill="#1f3999"/><path d="M325.35,305.49h-50a1.66,1.66,0,0,1-1.66-1.67h0a1.66,1.66,0,0,1,1.66-1.66h50a1.66,1.66,0,0,1,1.67,1.66h0A1.67,1.67,0,0,1,325.35,305.49Z" transform="translate(-10.97 -11.31)" fill="#1f3999"/><path d="M325.35,316.08h-50a1.66,1.66,0,0,1-1.66-1.67h0a1.66,1.66,0,0,1,1.66-1.66h50a1.66,1.66,0,0,1,1.67,1.66h0A1.67,1.67,0,0,1,325.35,316.08Z" transform="translate(-10.97 -11.31)" fill="#4a7ae5"/><path d="M371,273.72H335a1.67,1.67,0,0,1-1.66-1.67h0a1.66,1.66,0,0,1,1.66-1.66H371a1.66,1.66,0,0,1,1.66,1.66h0A1.67,1.67,0,0,1,371,273.72Z" transform="translate(-10.97 -11.31)" fill="#4a7ae5"/><g opacity="0.5"><path d="M87.21,303.74a42.3,42.3,0,0,0-8.8-5.13l1.13-8.36a50.55,50.55,0,0,0-22.68-3.08l-1.14,8.37a42,42,0,0,0-9.84,2.6l-5.11-6.72a50.94,50.94,0,0,0-18.22,13.85L27.66,312a41.82,41.82,0,0,0-5.12,8.8l-8.33-1.13a51,51,0,0,0-3,22.69l8.27,1.12a42.24,42.24,0,0,0,2.59,9.85l-6.69,5.1a49.89,49.89,0,0,0,5.87,9.92,51.92,51.92,0,0,0,8,8.31l6.72-5.12a41.86,41.86,0,0,0,8.8,5.13L43.58,385a51.69,51.69,0,0,0,11.17,2.83,51.05,51.05,0,0,0,11.51.24l1.14-8.36a42.4,42.4,0,0,0,9.85-2.6l5.11,6.72a50.37,50.37,0,0,0,9.9-5.9,49.83,49.83,0,0,0,8.32-8l-5.11-6.72a42.33,42.33,0,0,0,5.12-8.8l8.32,1.12a51,51,0,0,0,3-22.69l-8.27-1.12a41.91,41.91,0,0,0-2.6-9.85l6.7-5.1a50.1,50.1,0,0,0-5.87-9.91,51.08,51.08,0,0,0-8-8.31Zm-7.43,20a22.89,22.89,0,1,1-32.08-4.35A22.88,22.88,0,0,1,79.78,323.78Z" transform="translate(-10.97 -11.31)" fill="#1f3999"/><path d="M56.22,234.37a25.54,25.54,0,0,0-4-2l.2-6.82a31,31,0,0,0-16.34-.51l-.21,6.84A24.26,24.26,0,0,0,28,236.13l-5.81-3.6a30.16,30.16,0,0,0-8.6,13.91l5.81,3.6A24.42,24.42,0,0,0,19.1,259l-6,3.25a31,31,0,0,0,7.76,14.39l6-3.23a24.74,24.74,0,0,0,3.58,2.71,23.92,23.92,0,0,0,4,2l-.2,6.83a31.19,31.19,0,0,0,16.34.51l.2-6.84a24.59,24.59,0,0,0,7.88-4.24l5.81,3.59a30.78,30.78,0,0,0,5.26-6.36A31.14,31.14,0,0,0,73.08,264l-5.82-3.6a24.26,24.26,0,0,0,.28-8.94l6-3.24a31,31,0,0,0-7.76-14.39l-6,3.23A24.8,24.8,0,0,0,56.22,234.37Zm-3.16,26.88a11.45,11.45,0,1,1-3.72-15.75A11.45,11.45,0,0,1,53.06,261.25Z" transform="translate(-10.97 -11.31)" fill="#1f3999"/></g><circle cx="404.55" cy="298" r="14.98" transform="translate(10.29 611.57) rotate(-76.66)" fill="#ff6224"/><path d="M402.59,308.44a8.49,8.49,0,1,1-8.48-8.48A8.48,8.48,0,0,1,402.59,308.44Z" transform="translate(-10.97 -11.31)" fill="#20c3c5"/><polyline points="255.46 317.37 255.46 341.62 283.3 319.33" fill="#1e50c1"/><polygon points="225.82 349.81 286.91 349.81 309 392.32 247.91 392.32 225.82 349.81" fill="#3158c4"/><path d="M260.12,400.49l-18.29-35.2a1.1,1.1,0,0,1,1-1.62h52.84a1.12,1.12,0,0,1,1,.59l18.29,35.2a1.11,1.11,0,0,1-1,1.62H261.1A1.11,1.11,0,0,1,260.12,400.49Z" transform="translate(-10.97 -11.31)" fill="#fff"/><rect x="247.91" y="392.32" width="49.47" height="5.67" fill="#4a7ae5"/><path d="M350.85,403.63H302a2.84,2.84,0,0,0-2.84,2.84h0a2.84,2.84,0,0,0,2.84,2.84h48.81a2.84,2.84,0,0,0,2.84-2.84h0A2.84,2.84,0,0,0,350.85,403.63Z" transform="translate(-10.97 -11.31)" fill="#3158c4"/><path d="M258.88,403.63l-22.09-42.51-1.11.83a1.82,1.82,0,0,0-.51,2.3l23.71,45.06Z" transform="translate(-10.97 -11.31)" fill="#4a7ae5"/><rect x="264.71" y="394.97" width="5.45" height="0.94" fill="#9fccc9"/><rect x="271.55" y="394.97" width="5.45" height="0.94" fill="#9fccc9"/><rect x="278.4" y="394.97" width="5.45" height="0.94" fill="#9fccc9"/><path d="M370.24,486.84s-50.66,39.45-58.7,49.47c-3,3.79-8.31,10.44-13.79,17.25-9,11.2-18.53,22.86-19.66,23.14-1.81.46-17-11.12-17.47-13.61-.28-1.56,13.56-25.32,25.54-44.42,7.3-11.61,13.9-21.52,16.21-23.65,6.13-5.68,43.82-25.65,43.82-25.65Z" transform="translate(-10.97 -11.31)" fill="#1e50c1"/><path d="M273.55,568.28s47.34-67.37,71.1-78.72" transform="translate(-10.97 -11.31)" fill="none" stroke="#000" stroke-linecap="round" stroke-miterlimit="10" stroke-width="0.82" opacity="0.15" style="mix-blend-mode:overlay"/><path d="M423.05,313.84c-.54,1.23-1.15,2.5-1.84,3.8-3.7,7.08-1,14.17-5.19,16a6.06,6.06,0,0,1-.85.27c-5.45,1.21-18-6.05-18.56-9.68s3.87-9.84,0-10.6-6,5.76-6,5.76c-3.18.33-4.31-5-9.53-5a8.72,8.72,0,0,0-2.17.28,15.39,15.39,0,0,0-6,3.29,16.58,16.58,0,0,0-1.61,1.53,10.34,10.34,0,0,1-4.43-8.73c.37-9.18,3.76-15.88,11.92-17.24.9-10.22,9.31-15.67,20.54-16,9.84-.31,11.32,8.54,11.55,10.75-.09-1.65-.55-7-2.89-10.75,4.93-.22,9.27,3.3,8.13,14.76,1.14-3.41,5.11-5.57,8.17-3.07-2.83,0-5.56,4.76-5.56,4.76a19.19,19.19,0,0,1,5.59,6.06C426.27,303.25,425.56,308.05,423.05,313.84Z" transform="translate(-10.97 -11.31)" fill="#382424"/><path d="M416,333.62l-.13,1.68-.43,6s-9.07,7.75-14.21,0a1.58,1.58,0,0,0-.12-.15c-1.59-2.37-3-3.2-4.34-3.35-2.84-.35-5.13,2.43-7.5-.58-6.77-8.59-9.47-18.55-10.34-22.53a8.72,8.72,0,0,1,2.17-.28c5.22,0,6.35,5.33,9.53,5,0,0,2.09-6.51,6-5.76s-.54,7,0,10.6c.25,1.62,2.88,4,6.22,6,3.88,2.33,8.72,4.17,11.79,3.82l.55-.09A6.06,6.06,0,0,0,416,333.62Z" transform="translate(-10.97 -11.31)" fill="#ffad94"/><path d="M417.43,344.71c-4.09,2.79-11.57,3.25-11.57,3.25l-6.13-.91s-2.56-3.72-1.36-5.79a7,7,0,0,1,1.62-1.63,43.92,43.92,0,0,1,7-4.51c2.82-1.46,5.74-2.62,7.84-2.75C420,332.08,421.52,341.91,417.43,344.71Z" transform="translate(-10.97 -11.31)" opacity="0.25" style="mix-blend-mode:overlay"/><path d="M416.22,444c-9.11,1.76-28.41-3.62-37.64-7.77-2.72-1.22-4.58-2.34-5-3.13-1.77-3.12,0-5.51,4.41-15.42.5-1.12,1-2.33,1.58-3.64,3-7,3-22,3-34.88,0-11-.09-20.56,1.67-22.26,3.8-3.66,22.8-15.67,22.8-15.67L410.77,361s2.14,10,4.4,23.07C419.32,408.1,423.88,442.55,416.22,444Z" transform="translate(-10.97 -11.31)" fill="#4a7ae5"/><path d="M422.58,452.8c0,.91-9.08,22.08-16.7,25.11s-53.5-.3-53.5-.3l-22.69,14.83,4.75,44.7,3.31,31.14.1,1c-6.94,4.53-24.42,5.76-26.31,1.85v0c-1.82-3.93-29.66-87.75-18.76-102.27s80.78-35.71,80.78-35.71a38.64,38.64,0,0,0,6.24,3.13c7.77,3.19,17.64,5.19,25.15,6.36,2.89.44,5.43.77,7.36,1,2.45.3,3.92.41,3.92.41S422.58,451.89,422.58,452.8Z" transform="translate(-10.97 -11.31)" fill="#3158c4"/><path d="M340.73,598.49h-59a3.47,3.47,0,0,1,1-3.17c2.4-2.88,8.39-5.77,14.17-8.27,5.49-2.37,10.76-4.4,12.53-5.8,4.17-3.3,2.25-9.72,2.13-10.11.64,1.31,3,2.05,6.23,2.26,6.25.45,15.48-1.11,20.08-4.11l-.1-1c1.75,3.37,2.58,20,2.86,27C340.69,597.26,340.73,598.49,340.73,598.49Z" transform="translate(-10.97 -11.31)" fill="#1f3999"/><path d="M317.77,573.4c-.18,2.82-.59,7.38-1.4,8.6-1.21,1.82-14.23,8.17-16,7.56a10.67,10.67,0,0,1-3.46-2.51c5.49-2.37,10.76-4.4,12.53-5.8,4.17-3.3,2.25-9.72,2.13-10.11C312.18,572.45,314.58,573.19,317.77,573.4Z" transform="translate(-10.97 -11.31)" fill="#4a7ae5"/><path d="M340.73,598.49h-59a3.47,3.47,0,0,1,1-3.17h57.9C340.69,597.26,340.73,598.49,340.73,598.49Z" transform="translate(-10.97 -11.31)" fill="#4a7ae5"/><path d="M278.09,576.7s-4.48,11.82-8.37,18.07c-1.54,2.49-3,4.11-4,3.72-3.63-1.37-40.1-32.37-36.61-34.64a5.86,5.86,0,0,1,2.34-.69c3.17-.4,8.43,0,13.3.54,4.17.43,8.06.9,10.08.9,5.14,0,5.82-1.51,5.82-1.51.11.6,1.08,1.73,2.52,3.11C267.65,570.47,276.71,577,278.09,576.7Z" transform="translate(-10.97 -11.31)" fill="#1f3999"/><path d="M263.14,566.2c-7.73,5.11-15.79,2-17.38.86a3.49,3.49,0,0,1-1-3.36c4.17.43,8.06.9,10.08.9,5.14,0,5.82-1.51,5.82-1.51C260.73,563.69,261.7,564.82,263.14,566.2Z" transform="translate(-10.97 -11.31)" fill="#4a7ae5"/><path d="M269.72,594.77c-1.54,2.49-3,4.11-4,3.72-3.63-1.37-40.1-32.37-36.61-34.64a5.86,5.86,0,0,1,2.34-.69Z" transform="translate(-10.97 -11.31)" fill="#4a7ae5"/><path d="M378.61,405.41c-2.85,4-8,10-12.16,9.42l-.52-.09c-8-1.41-55.2-13.24-57.43-13.68s-18.15-.6-17.24-2.27,10-7,12.4-6.83,12,2.89,21.48,2.59,34.5,0,34.5,0l1.2-2.09,1.79-3.08C362.13,398.62,373.27,406.16,378.61,405.41Z" transform="translate(-10.97 -11.31)" fill="#ffad94"/><path d="M378.61,439.87s-2.18,11.57,6.29,15.43" transform="translate(-10.97 -11.31)" fill="none" stroke="#000" stroke-linecap="round" stroke-miterlimit="10" stroke-width="0.82" opacity="0.15" style="mix-blend-mode:overlay"/><path d="M374.16,449.17s-56,23.9-58.73,31.32,14.26,87.79,14.26,87.79" transform="translate(-10.97 -11.31)" fill="none" stroke="#000" stroke-linecap="round" stroke-miterlimit="10" stroke-width="0.82" opacity="0.15" style="mix-blend-mode:overlay"/><path d="M422.58,452.8c0,.91-9.08,22.08-16.7,25.11s-53.5-.3-53.5-.3l-22.69,14.83,4.75,44.7s-9.59-51.05-9.59-54.39c0-2.85,63.38-21.07,80.09-40.13,6.55,1,11.28,1.41,11.28,1.41S422.58,451.89,422.58,452.8Z" transform="translate(-10.97 -11.31)" opacity="0.15" style="mix-blend-mode:overlay"/><path d="M392.69,398.64c-3.93,5.57-10.27,12.65-14.73,19.07.5-1.12,1-2.33,1.58-3.64,3-7,3-22,3-34.88l13.58-9S399.05,389.63,392.69,398.64Z" transform="translate(-10.97 -11.31)" opacity="0.25" style="mix-blend-mode:overlay"/><path d="M381.09,403.69c-.58.54-1.18,1.07-1.78,1.57a3.77,3.77,0,0,1-.7.15c-5.34.75-16.48-6.79-16-16a13.48,13.48,0,0,1,1.47-3.86c4.56-9.19,18.28-29.66,20.8-28.71,0,0,8.81,1.36,11.2,13.39C398.34,381.5,390.26,395.2,381.09,403.69Z" transform="translate(-10.97 -11.31)" fill="#1f3999"/><path d="M412.3,443.62c-1.93-.23-4.47-.56-7.36-1-7.51-1.17-17.38-3.17-25.15-6.36,6.85-.24,21.51-4.75,23.28-38.3a164.67,164.67,0,0,0,3.69,19.45A263.21,263.21,0,0,1,412.3,443.62Z" transform="translate(-10.97 -11.31)" opacity="0.25" style="mix-blend-mode:overlay"/><path d="M408.68,332.94a24.45,24.45,0,0,0-1.66,2.18,43.92,43.92,0,0,0-7,4.51,5.09,5.09,0,0,0-3.2-1.87l6-7.6A33.26,33.26,0,0,0,408.68,332.94Z" transform="translate(-10.97 -11.31)" opacity="0.25" style="mix-blend-mode:overlay"/><path d="M378.61,405.41c-2.85,4-8,10-12.16,9.42l-.52-.09c-5.2-7.51-5.39-17.35-5.09-22.28l1.79-3.08C362.13,398.62,373.27,406.16,378.61,405.41Z" transform="translate(-10.97 -11.31)" opacity="0.25" style="mix-blend-mode:overlay"/><path d="M423.05,313.84c-.54,1.23-1.15,2.5-1.84,3.8-1.82,3.47-2.07,6.94-2.38,9.8a18,18,0,0,0-1.86-1.27,33.3,33.3,0,0,0-8.29,6.77v0c-5.55-2-11.67-6.24-12.06-8.75-.54-3.63,3.87-9.84,0-10.6s-6,5.76-6,5.76c-3.18.33-4.31-5-9.53-5a8.72,8.72,0,0,0-2.17.28,15.39,15.39,0,0,0-6,3.29s5.88-8.26,15.11-6.59c0,0-1.35-2.57-7.56-2.27,13-4.24,21.33-2.57,25.34,2.12C409.13,315,416.81,319.77,423.05,313.84Z" transform="translate(-10.97 -11.31)" opacity="0.25" style="mix-blend-mode:overlay"/><path d="M449.51,492.44h-45.4s36-10.59,36-82c0-.92,0-1.82,0-2.73-.37-47.72-10.57-74-23.14-81.54a54.67,54.67,0,0,1,16.09-6.1,85.1,85.1,0,0,1,10-1.62c31.08-3.17,55.91,9,58.86,22.81S486.71,492.44,449.51,492.44Z" transform="translate(-10.97 -11.31)" fill="#4a7ae5"/><path d="M440.12,410.44c0,71.41-36,82-36,82H329.69l3.09-2.2,19.6-12.63,39.33-2.73c2.11-8.77,7.87-9.06,16.64-10,5.11-.52,5.61-9.14,4-20.54a258.23,258.23,0,0,0-5.64-26.95A164.67,164.67,0,0,1,403.07,398a167.68,167.68,0,0,1-1.41-21,176.74,176.74,0,0,1,3.65-37.21c.18-.9.37-1.77.56-2.6,0,0,0-.06,0-.08a18.43,18.43,0,0,1,2.79-4.14v0a33.3,33.3,0,0,1,8.29-6.77,18,18,0,0,1,1.86,1.27c11.7,8.92,20.92,34.93,21.28,80.27C440.12,408.62,440.12,409.52,440.12,410.44Z" transform="translate(-10.97 -11.31)" fill="#1f3999"/><path d="M425.76,598.49H372.18A1.93,1.93,0,0,1,371,595l13.41-10.5a24.58,24.58,0,0,0,9.42-19.35V492.44h10.29v72.75a24.57,24.57,0,0,0,9.44,19.35L426.94,595A1.93,1.93,0,0,1,425.76,598.49Z" transform="translate(-10.97 -11.31)" fill="#3158c4"/><g opacity="0.25" style="mix-blend-mode:overlay"><path d="M466.63,321.19s.25.65.68,1.93" transform="translate(-10.97 -11.31)" fill="none" stroke="#000" stroke-linecap="round" stroke-miterlimit="10" stroke-width="0.82"/><path d="M468.53,327a236.11,236.11,0,0,1,7,35.29c5,38.2-.24,92.07-34.39,125.37" transform="translate(-10.97 -11.31)" fill="none" stroke="#000" stroke-linecap="round" stroke-miterlimit="10" stroke-width="0.82" stroke-dasharray="4.11 4.11"/><path d="M439.64,489.13l-1.51,1.38" transform="translate(-10.97 -11.31)" fill="none" stroke="#000" stroke-linecap="round" stroke-miterlimit="10" stroke-width="0.82"/></g><path d="M404.11,492.44v19.87a72.56,72.56,0,0,1-10.29,4.33v-24.2Z" transform="translate(-10.97 -11.31)" opacity="0.15" style="mix-blend-mode:overlay"/><path d="M418.34,461.58c-2.42,7.56-17.54,6.21-19.37,11.8-3.89,11.87-6.05,6.65-21,8.16-8.56.87-14.77,6.36-18.52,10.9H329.69l3.09-2.2,19.6-12.63,39.33-2.73c2.11-8.77,7.87-9.06,16.64-10,5.11-.52,5.61-9.14,4-20.54a258.23,258.23,0,0,0-5.64-26.95A164.67,164.67,0,0,1,403.07,398a167.68,167.68,0,0,1-1.41-21C407.47,407.32,420.13,456,418.34,461.58Z" transform="translate(-10.97 -11.31)" opacity="0.15" style="mix-blend-mode:overlay"/><path d="M440.12,410.44c0-.92,0-1.82,0-2.73-.37-47.72-10.57-74-23.14-81.54a54.67,54.67,0,0,1,16.09-6.1c-2.08,3-4.24,7.49-3.23,12.29,1.83,8.49,22.4,41.17,14.53,93.51-5.68,37.77-3.79,57.42,2.14,66.57H404.11S440.12,481.85,440.12,410.44Z" transform="translate(-10.97 -11.31)" opacity="0.15" style="mix-blend-mode:overlay"/><path d="M180.4,371.54a24.26,24.26,0,0,1-.48,4.61H165.31c-4.29-2.85-11.29-8.49-15.5-17,3.91,4.25,10.59,9.43,17.38,11C173.13,371.58,177.55,371,180.4,371.54Z" transform="translate(-10.97 -11.31)" opacity="0.25" style="mix-blend-mode:overlay"/><path d="M214.32,313.55c-1.63,5.92-9.1,17.41-15.93,29.71-7.46,13.42-14.13,27.8-11.52,36.93a20.19,20.19,0,0,1,.94,5.18c0,4-3,2.74-6,.48a55.75,55.75,0,0,1-6.25-5.66l.23-17.7s-10-9.22-1.79-29.39c.52-1.28,1.12-2.6,1.79-4,11.35-22.92,28.36-47,12.25-53.78C210.25,274,217.73,301.16,214.32,313.55Z" transform="translate(-10.97 -11.31)" fill="#3158c4"/><g opacity="0.53" style="mix-blend-mode:overlay"><path d="M188,275.34a16.46,16.46,0,0,1,10.08,7.28,22.23,22.23,0,0,1,1.54,2.79c.21.49.39,1,.59,1.48a9.89,9.89,0,0,1,.5,1.51l.43,1.54c.14.52.2,1.05.3,1.57l.28,1.57c0,.53.07,1.07.09,1.6a25.84,25.84,0,0,1-1,6.31,62,62,0,0,1-1.94,6.07c-1.49,4-3.21,7.88-5,11.73-3.55,7.71-7.39,15.29-10.78,23.06a106.28,106.28,0,0,0-4.49,11.87,38.58,38.58,0,0,0-1.34,6.15,13.5,13.5,0,0,0,.41,6.11h0a.41.41,0,0,1-.25.53.41.41,0,0,1-.52-.26h0a14.13,14.13,0,0,1-.4-6.48,38,38,0,0,1,1.42-6.27,105.26,105.26,0,0,1,4.61-11.9c3.46-7.77,7.36-15.32,11-23,1.81-3.84,3.56-7.71,5.07-11.66a59.18,59.18,0,0,0,2-6,26,26,0,0,0,1-6.24c0-.52-.06-1.05-.08-1.58l-.26-1.56c-.1-.52-.16-1.05-.29-1.56l-.42-1.53a8.87,8.87,0,0,0-.49-1.51c-.19-.49-.36-1-.56-1.48a22.82,22.82,0,0,0-1.52-2.79A16.43,16.43,0,0,0,188,275.34Z" transform="translate(-10.97 -11.31)"/></g><path d="M204.11,349.32c-6.8,17.93,0,31.53-10.21,33.46-4.68.89-6.74-2.57-7.59-6.59a36.45,36.45,0,0,1-.35-10.3,34.86,34.86,0,0,1,5.38-8.74C194.3,353.65,198.52,350.24,204.11,349.32Z" transform="translate(-10.97 -11.31)" fill="#1f3999"/><path d="M180.4,371.54c0,4.18-1,7.72-2.92,9.57a4.93,4.93,0,0,1-.56.5c-4.82,3.91-7.9-3.25-7.9-3.25s-12.84-6.32-19.21-19.17c-4.87-9.87-6-23.6,5.52-41.25,1.68,12.57,8.57,21.13,15.39,29.25v0l2.54,3C178,355.89,180.46,364.6,180.4,371.54Z" transform="translate(-10.97 -11.31)" fill="#4a7ae5"/><g opacity="0.7" style="mix-blend-mode:overlay"><path d="M155.32,318a56.09,56.09,0,0,0-.92,16.45,35.72,35.72,0,0,0,5,15.55c2.85,4.72,6.8,8.61,10.37,12.83a31.35,31.35,0,0,1,4.66,6.92,16.38,16.38,0,0,1,1.5,8.25.41.41,0,0,1-.82-.07h0a15.5,15.5,0,0,0-1.33-7.88,30.78,30.78,0,0,0-4.48-6.82c-3.49-4.24-7.43-8.21-10.25-13a35.9,35.9,0,0,1-4.85-15.74A56.2,56.2,0,0,1,155.32,318Z" transform="translate(-10.97 -11.31)"/></g><g opacity="0.7" style="mix-blend-mode:overlay"><path d="M204.11,349.32c-2,2.24-3.79,4.6-5.54,7s-3.4,4.89-4.9,7.46a65,65,0,0,0-4,8,37.7,37.7,0,0,0-2.41,8.49h0a.41.41,0,0,1-.46.35.42.42,0,0,1-.35-.47h0a38.86,38.86,0,0,1,2.65-8.61,66.76,66.76,0,0,1,4.21-7.93c1.56-2.55,3.29-5,5.09-7.37S202.1,351.52,204.11,349.32Z" transform="translate(-10.97 -11.31)"/></g><path d="M200,380.63l-4.35,26.74a2.4,2.4,0,0,1-2.34,1.94H166.15a2.38,2.38,0,0,1-2.34-1.94l-3.54-21.71-.82-5a2.39,2.39,0,0,1,2.35-2.81h35.84A2.38,2.38,0,0,1,200,380.63Z" transform="translate(-10.97 -11.31)" fill="#1f3999"/><path d="M204.11,386.08H155.33l1.28-7.28a3.22,3.22,0,0,1,3.16-2.65h39.91a3.2,3.2,0,0,1,3.14,2.65Z" transform="translate(-10.97 -11.31)" fill="#1e50c1"/><path d="M186,365.89a36.63,36.63,0,0,0,.33,10.26h-6.37a24.26,24.26,0,0,0,.48-4.61c.06-6.94-2.42-15.65-7.14-21.32l-2.54-3v0A40.18,40.18,0,0,1,174,333.1c.37,6.43,1.94,17.61,8.36,18.79,4.88.89,11.23-3.95,16.07-8.63-2.56,4.6-5,9.31-7,13.89A34.86,34.86,0,0,0,186,365.89Z" transform="translate(-10.97 -11.31)" opacity="0.25" style="mix-blend-mode:overlay"/><path d="M182.35,409.31h-16.2a2.38,2.38,0,0,1-2.34-1.94l-3.48-21.29h14c-.35,3-.77,8.55.29,12.86A19.12,19.12,0,0,0,182.35,409.31Z" transform="translate(-10.97 -11.31)" opacity="0.25" style="mix-blend-mode:overlay"/><rect x="201.37" y="96.6" width="81.81" height="64.02" rx="3.99" fill="#3158c4"/><path d="M282,127H224.45a1.9,1.9,0,0,1-1.9-1.9h0a1.9,1.9,0,0,1,1.9-1.9H282a1.9,1.9,0,0,1,1.9,1.9h0A1.9,1.9,0,0,1,282,127Z" transform="translate(-10.97 -11.31)" fill="#95b3ef"/><path d="M261.47,135.23h-37a1.9,1.9,0,0,1-1.9-1.9h0a1.9,1.9,0,0,1,1.9-1.9h37a1.9,1.9,0,0,1,1.9,1.9h0A1.9,1.9,0,0,1,261.47,135.23Z" transform="translate(-10.97 -11.31)" fill="#95b3ef"/><path d="M261.47,144.1h-37a1.9,1.9,0,0,1-1.9-1.9h0a1.9,1.9,0,0,1,1.9-1.9h37a1.9,1.9,0,0,1,1.9,1.9h0A1.9,1.9,0,0,1,261.47,144.1Z" transform="translate(-10.97 -11.31)" fill="#95b3ef"/><path d="M370.7,184.54H313.13a1.91,1.91,0,0,1-1.9-1.9h0a1.9,1.9,0,0,1,1.9-1.9H370.7a1.9,1.9,0,0,1,1.9,1.9h0A1.91,1.91,0,0,1,370.7,184.54Z" transform="translate(-10.97 -11.31)" fill="#95b3ef"/><path d="M350.14,192.8h-37a1.91,1.91,0,0,1-1.9-1.9h0a1.9,1.9,0,0,1,1.9-1.9h37a1.9,1.9,0,0,1,1.9,1.9h0A1.91,1.91,0,0,1,350.14,192.8Z" transform="translate(-10.97 -11.31)" fill="#95b3ef"/><path d="M350.14,201.66h-37a1.9,1.9,0,0,1-1.9-1.9h0a1.9,1.9,0,0,1,1.9-1.9h37a1.9,1.9,0,0,1,1.9,1.9h0A1.9,1.9,0,0,1,350.14,201.66Z" transform="translate(-10.97 -11.31)" fill="#95b3ef"/><path d="M264.91,221.87H207.34a1.9,1.9,0,0,1-1.9-1.9h0a1.9,1.9,0,0,1,1.9-1.9h57.57a1.9,1.9,0,0,1,1.9,1.9h0A1.9,1.9,0,0,1,264.91,221.87Z" transform="translate(-10.97 -11.31)" fill="#95b3ef"/><path d="M244.35,230.13h-37a1.9,1.9,0,0,1-1.9-1.9h0a1.9,1.9,0,0,1,1.9-1.9h37a1.9,1.9,0,0,1,1.9,1.9h0A1.9,1.9,0,0,1,244.35,230.13Z" transform="translate(-10.97 -11.31)" fill="#95b3ef"/><path d="M244.35,239h-37a1.9,1.9,0,0,1-1.9-1.9h0a1.9,1.9,0,0,1,1.9-1.9h37a1.9,1.9,0,0,1,1.9,1.9h0A1.9,1.9,0,0,1,244.35,239Z" transform="translate(-10.97 -11.31)" fill="#95b3ef"/><path d="M173,189.34H113.09a3.8,3.8,0,0,1-3.8-3.8h0a3.8,3.8,0,0,1,3.8-3.8H173a3.8,3.8,0,0,1,3.8,3.8h0A3.8,3.8,0,0,1,173,189.34Z" transform="translate(-10.97 -11.31)" fill="#1f3999"/><path d="M150.35,205.88H113.09a3.81,3.81,0,0,1-3.8-3.81h0a3.8,3.8,0,0,1,3.8-3.8h37.26a3.8,3.8,0,0,1,3.8,3.8h0A3.81,3.81,0,0,1,150.35,205.88Z" transform="translate(-10.97 -11.31)" fill="#3158c4"/><path d="M150.35,223.63H113.09a3.81,3.81,0,0,1-3.8-3.81h0a3.8,3.8,0,0,1,3.8-3.8h37.26a3.8,3.8,0,0,1,3.8,3.8h0A3.81,3.81,0,0,1,150.35,223.63Z" transform="translate(-10.97 -11.31)" fill="#4a7ae5"/><path d="M529.64,465.05a185.73,185.73,0,0,1-12.85,28.81C500.68,523.28,482,542,481.28,569.44a164.19,164.19,0,0,1-1.15-55.3c2.61-16.54,8.52-34.21,20.6-49.09,33.63-41.35,28.65-79,28.65-79S546.24,416.93,529.64,465.05Z" transform="translate(-10.97 -11.31)" fill="#1f3999"/><g opacity="0.25" style="mix-blend-mode:overlay"><path d="M490.24,537.21a42.24,42.24,0,0,1,0-10.05,64.17,64.17,0,0,1,1.79-9.85,92.81,92.81,0,0,1,7.13-18.66c.75-1.49,1.48-3,2.34-4.41s1.63-2.91,2.52-4.32l5.41-8.36a116.63,116.63,0,0,0,8.8-17.78,172.92,172.92,0,0,0,6.27-18.86c1.76-6.39,3.19-12.88,4.32-19.42.56-3.27,1.05-6.55,1.44-9.84s.71-6.6.9-9.92a97.11,97.11,0,0,0,.1-9.95c-.05-.82-.08-1.65-.17-2.48l-.12-1.24-.19-1.23a15.85,15.85,0,0,0-1.37-4.76,15.47,15.47,0,0,1,1.41,4.76l.2,1.23.13,1.24c.1.82.13,1.65.19,2.48a97.32,97.32,0,0,1,0,10c-.15,3.32-.43,6.63-.81,9.93s-.83,6.6-1.37,9.87q-1.62,9.84-4.17,19.5a171.91,171.91,0,0,1-6.15,19,117,117,0,0,1-8.71,18l-5.37,8.39c-.88,1.4-1.66,2.86-2.5,4.29s-1.57,2.9-2.31,4.38a91.73,91.73,0,0,0-7,18.49,68.5,68.5,0,0,0-1.78,9.73,41.81,41.81,0,0,0,0,9.81v0a.41.41,0,0,1-.35.46A.41.41,0,0,1,490.24,537.21Z" transform="translate(-10.97 -11.31)"/></g><path d="M516.79,493.86C500.68,523.28,482,542,481.28,569.44a164.19,164.19,0,0,1-1.15-55.3C490.57,509.88,505.25,502.92,516.79,493.86Z" transform="translate(-10.97 -11.31)" opacity="0.25" style="mix-blend-mode:overlay"/><path d="M501.29,599.93s-15.66-17.25,6.45-47.28,36.66-66.64,27-91.75c-19.67,35.77-79.89,93.31-49.13,142.33Z" transform="translate(-10.97 -11.31)" fill="#4a7ae5"/><g opacity="0.25" style="mix-blend-mode:overlay"><path d="M535,462.46a68.43,68.43,0,0,1-2.36,9.35c-1,3.07-2.12,6.07-3.33,9.05a141.45,141.45,0,0,1-8.7,17.2,192.15,192.15,0,0,1-10.77,16,86.85,86.85,0,0,0-5.15,8.12,96,96,0,0,0-4.32,8.6A104.4,104.4,0,0,0,491.4,568a73.61,73.61,0,0,0,1.49,19.09,43.39,43.39,0,0,0,7.69,17.33.42.42,0,0,1-.07.58.43.43,0,0,1-.58-.07h0a44.05,44.05,0,0,1-7.74-17.68A74.15,74.15,0,0,1,490.78,568,105,105,0,0,1,500,530.63a95.33,95.33,0,0,1,4.38-8.61,86.28,86.28,0,0,1,5.21-8.13A192.49,192.49,0,0,0,520.39,498a141.19,141.19,0,0,0,8.78-17.14c1.23-3,2.41-6,3.38-9A68.33,68.33,0,0,0,535,462.46Z" transform="translate(-10.97 -11.31)"/></g><path d="M91.1,452.8s-14.52-13.24-22.24-46.33c44.48,37.71,55.37,71.29,55.37,71.29Z" transform="translate(-10.97 -11.31)" fill="#1f3999"/><g opacity="0.25" style="mix-blend-mode:overlay"><path d="M68.86,406.47q9.24,13.3,18,26.92,4.39,6.83,8.57,13.76a140.39,140.39,0,0,1,7.71,14.3.41.41,0,0,1-.21.54.42.42,0,0,1-.54-.2h0a142.19,142.19,0,0,0-7.49-14.31c-2.71-4.66-5.52-9.27-8.38-13.85Q77.94,419.9,68.86,406.47Z" transform="translate(-10.97 -11.31)"/></g><path d="M123.33,471.41c-8-7.21-19.84-14.35-31.11-22-15-10.23-29-21.46-31.54-35.17C54.8,463.69,112.36,486,112.36,486l.12.17,20.91,30.5S141.93,488.2,123.33,471.41Z" transform="translate(-10.97 -11.31)" fill="#4a7ae5"/><g opacity="0.7" style="mix-blend-mode:overlay"><path d="M60.68,414.2a38.48,38.48,0,0,0,3.93,15.88,48.86,48.86,0,0,0,9.61,13.28,81.42,81.42,0,0,0,13,10.05c4.6,3,9.28,5.91,13.83,9a117.1,117.1,0,0,1,13,10.17,68.71,68.71,0,0,1,5.77,5.93,58.11,58.11,0,0,1,5,6.61c6.15,9.26,9,20.46,9,31.5a.41.41,0,0,1-.41.41.41.41,0,0,1-.41-.41h0c.08-10.92-2.63-22-8.64-31.16a58.28,58.28,0,0,0-4.91-6.58,69.11,69.11,0,0,0-5.69-5.92,114.66,114.66,0,0,0-12.91-10.21c-4.51-3.13-9.17-6.06-13.76-9.11a81.62,81.62,0,0,1-13-10.15,48.92,48.92,0,0,1-9.55-13.39A38.36,38.36,0,0,1,60.68,414.2Z" transform="translate(-10.97 -11.31)"/></g><path d="M533.16,620.58H146.39a11,11,0,0,1-11-11.05h0a11,11,0,0,1,11-11H533.16a11,11,0,0,1,11.05,11h0A11.05,11.05,0,0,1,533.16,620.58Z" transform="translate(-10.97 -11.31)" fill="#1f3999"/><g opacity="0.5"><path d="M506.78,11.32a81.21,81.21,0,0,0-57.11,137.75A67,67,0,0,1,468.29,187H547.6a65.4,65.4,0,0,1,18.32-37.57A81.2,81.2,0,0,0,506.78,11.32Z" transform="translate(-10.97 -11.31)" fill="#1f3999"/><path d="M468.85,205h78.2v18.37h-78.2Z" transform="translate(-10.97 -11.31)" fill="#1f3999"/><path d="M469,241.43a39.09,39.09,0,0,0,77.9,0Z" transform="translate(-10.97 -11.31)" fill="#1f3999"/></g></g></g></svg>