<svg width="499" height="478" viewBox="0 0 499 478" fill="none" xmlns="http://www.w3.org/2000/svg">
<circle cx="435" cy="239.502" r="35" fill="#0082CB"/>
<path d="M454.2 245.444V247.702C454.2 251.794 450.727 256.026 446.494 256.026H423.705C419.418 256.026 416 251.863 416 247.7V245.444H454.2Z" fill="#ECEFF1"/>
<path d="M430.704 223.502C432.585 223.493 434.428 224.196 436.008 225.524C437.587 226.853 438.836 228.75 439.602 230.984C440.432 230.245 441.416 229.851 442.423 229.856C443.709 229.839 444.948 230.481 445.872 231.643C446.796 232.805 447.331 234.393 447.36 236.064C449.13 236.33 450.776 237.379 452.021 239.036C453.266 240.693 454.036 242.856 454.2 245.162V246.008C454.2 250.172 450.727 254.333 446.439 254.333H423.705C419.418 254.333 416 250.17 416 246.008V245.162C416.089 243.258 416.604 241.43 417.481 239.901C418.358 238.372 419.559 237.209 420.937 236.554V236.199C420.932 234.53 421.181 232.875 421.67 231.332C422.159 229.788 422.878 228.386 423.786 227.205C424.694 226.025 425.773 225.09 426.96 224.454C428.147 223.819 429.42 223.495 430.704 223.502Z" fill="white"/>
<path d="M425.549 238.246L423 249.817H424.518L425.116 246.995H427.72L428.266 249.817H429.779L427.391 238.246H425.549ZM425.333 245.519L426.424 239.804L427.455 245.519H425.333Z" fill="#0082CB"/>
<path d="M436.184 247.348H436.131L434.937 238.246H433.417L432.278 247.277H432.224L431.03 238.246H429.619L431.356 249.886H432.983L434.123 241.14H434.177L435.316 249.886H436.999L438.79 238.246H437.325L436.184 247.348Z" fill="#0082CB"/>
<path d="M443.401 243.539L442.424 243.115C441.448 242.622 441.068 242.051 441.068 241.07C441.05 240.847 441.068 240.622 441.121 240.409C441.174 240.197 441.261 240.001 441.376 239.834C441.492 239.668 441.632 239.535 441.79 239.444C441.947 239.353 442.117 239.306 442.289 239.306C442.461 239.306 442.632 239.353 442.789 239.444C442.946 239.535 443.087 239.668 443.202 239.834C443.317 240.001 443.404 240.197 443.457 240.409C443.51 240.622 443.528 240.847 443.51 241.07V241.281H444.922V240.999C444.922 239.8 444.705 237.966 442.372 237.966C442.017 237.905 441.655 237.947 441.312 238.088C440.97 238.229 440.656 238.466 440.392 238.782C440.128 239.098 439.92 239.486 439.783 239.918C439.647 240.349 439.585 240.815 439.602 241.281C439.571 242.019 439.746 242.747 440.095 243.33C440.444 243.913 440.943 244.313 441.501 244.456L442.478 244.88C442.853 244.944 443.196 245.191 443.438 245.57C443.68 245.949 443.802 246.434 443.78 246.925C443.786 247.156 443.754 247.385 443.688 247.599C443.621 247.812 443.52 248.005 443.392 248.165C443.264 248.324 443.112 248.447 442.945 248.526C442.779 248.604 442.601 248.636 442.424 248.619C441.448 248.619 440.959 247.914 440.959 246.503V246.221H439.548V246.503C439.504 246.98 439.543 247.465 439.664 247.919C439.784 248.374 439.983 248.787 440.244 249.127C440.506 249.467 440.823 249.725 441.173 249.882C441.522 250.038 441.895 250.09 442.262 250.031C444.052 250.031 445.246 249.043 445.246 246.574C445.253 245.87 445.074 245.183 444.738 244.631C444.402 244.078 443.93 243.692 443.401 243.539Z" fill="#0082CB"/>
<circle cx="464" cy="35.5021" r="35" fill="#0082CB"/>
<path d="M463.778 22.5054C460.732 22.4405 457.751 23.3227 455.31 25.011C452.869 26.6993 451.108 29.0965 450.31 31.82C450.384 31.7936 450.23 31.8362 450.31 31.82C444.658 35.266 444.591 42.775 449.951 46.6019L449.957 46.5918L449.946 46.6343C451.659 47.8303 453.748 48.4734 455.894 48.4652H463.436L463.482 48.5017H471.053C480.807 48.5757 484.726 36.881 476.648 31.82C475.955 29.4426 474.525 27.3052 472.536 25.6717L472.473 25.7295L472.479 25.6606C470.071 23.6924 466.99 22.5746 463.78 22.5044L463.778 22.5054ZM463.254 28.1096C465.065 28.0518 466.928 28.606 468.335 29.6608C469.205 30.3322 469.9 31.1758 470.37 32.1295C470.841 33.0831 471.074 34.1225 471.052 35.1707V35.8729C476.202 35.7776 476.202 42.9817 471.052 42.8864H463.481L463.47 42.8966V42.8439H455.894C455.358 42.8439 454.828 42.7385 454.338 42.5328C451.929 41.5247 451.353 38.5904 453.222 36.8547C455.096 35.1241 458.257 35.6571 459.351 37.8892L463.744 33.8201C462.284 32.0572 460.179 30.8488 457.825 30.4217C457.854 30.4116 457.882 30.3903 457.905 30.3954C458.587 29.7012 459.412 29.1411 460.332 28.7486C461.252 28.3561 462.248 28.1391 463.26 28.1106L463.254 28.1096Z" fill="white"/>
<circle cx="405" cy="139.502" r="35" fill="#0082CB"/>
<path d="M391 125.502V156.127H421.625V125.502H391ZM407.406 149.291C407.406 152.272 405.645 153.726 403.096 153.726C400.793 153.726 399.457 152.533 398.779 151.094L401.122 149.676C401.574 150.478 401.917 151.156 402.904 151.156C403.724 151.156 404.398 150.786 404.398 149.347V139.721H407.406V149.291ZM414.197 153.657C411.525 153.657 409.798 152.451 408.955 150.786L411.302 149.428C411.917 150.435 412.721 151.107 414.139 151.107C415.331 151.107 416.024 150.579 416.024 149.757C416.024 148.77 415.311 148.421 413.995 147.843L413.276 147.534C411.199 146.65 409.822 145.54 409.822 143.196C409.822 141.038 411.466 139.462 414.036 139.462C415.866 139.462 417.18 140.03 418.127 141.696L415.882 143.139C415.389 142.255 414.857 141.908 414.033 141.908C413.19 141.908 412.655 142.443 412.655 143.139C412.655 144.002 413.19 144.351 414.423 144.886L415.142 145.194C417.589 146.243 418.966 147.314 418.966 149.717C418.967 152.308 416.932 153.657 414.197 153.657Z" fill="white"/>
<circle cx="305" cy="134.502" r="35" fill="#2DB1FF"/>
<path d="M312.627 145.182C311.469 145.076 309.983 144.852 308.548 143.284V146.51C311.185 148.224 315.722 147.91 317.303 145.849C318.243 144.624 318.631 142.984 317.935 141.125C316.295 137.822 312.399 137.617 311.266 135.532C310.014 132.153 315.177 131.543 317.657 133.819V130.787C316.6 130.104 314.92 130.031 313.741 130.094C310.63 130.262 308.539 132.07 308.57 134.763C308.436 138.522 312.728 139.49 314.884 141.229C316.348 142.471 316.243 145.483 312.627 145.182ZM300.343 147.337V132.743H295.641V130.33H307.649V132.743H302.938V147.337H300.343ZM321.012 119.89V150.515H290.387V119.89H321.012ZM323.199 117.702H288.199V152.702H323.199V117.702Z" fill="white"/>
<ellipse cx="264" cy="340.278" rx="35" ry="34.1094" fill="#0082CB"/>
<g clip-path="url(#clip0)">
<path d="M272.876 327.609H278.594L264.298 354.482L250.002 327.609H260.938L264.298 333.84L267.586 327.609H272.876Z" fill="white"/>
<path d="M250.002 327.609L264.298 354.482L278.594 327.609H272.876L264.298 343.733L255.649 327.609H250.002Z" fill="white"/>
<path d="M255.65 327.609L264.3 343.811L272.877 327.609H267.588L264.3 333.84L260.94 327.609H255.65Z" fill="#ECEFF1"/>
</g>
<ellipse cx="63.9995" cy="340.278" rx="35" ry="34.1094" fill="#0082CB"/>
<path d="M64.1004 343.482C65.9816 343.482 67.5066 342.004 67.5066 340.181C67.5066 338.358 65.9816 336.88 64.1004 336.88C62.2193 336.88 60.6943 338.358 60.6943 340.181C60.6943 342.004 62.2193 343.482 64.1004 343.482Z" fill="white"/>
<path d="M54.5633 346.744L53.8096 346.557C48.211 345.187 44.9995 342.857 44.9995 340.173C44.9995 337.488 48.2129 335.16 53.8096 333.789L54.5633 333.604L54.7752 334.327C55.341 336.221 56.066 338.066 56.9429 339.844L57.1051 340.173L56.9429 340.503C56.0651 342.283 55.3381 344.129 54.7752 346.023L54.5633 346.744ZM53.4623 335.472C49.209 336.634 46.5967 338.405 46.5967 340.173C46.5967 341.938 49.2071 343.711 53.4623 344.871C53.9833 343.265 54.613 341.695 55.3419 340.173C54.6077 338.649 53.9797 337.078 53.4623 335.472ZM73.6357 346.744L73.4258 346.019C72.8584 344.126 72.1328 342.28 71.2562 340.501L71.094 340.173L71.2562 339.842C72.1339 338.065 72.8571 336.218 73.4258 334.324L73.6357 333.603L74.3894 333.787C79.9899 335.158 83.1995 337.486 83.1995 340.173C83.1995 342.859 79.988 345.187 74.3894 346.557L73.6357 346.744ZM72.8533 340.173C73.6166 341.775 74.252 343.351 74.7367 344.871C78.992 343.711 81.6043 341.938 81.6043 340.173C81.6043 338.405 78.9939 336.636 74.7367 335.472C74.2163 337.078 73.5871 338.648 72.8533 340.173Z" fill="white"/>
<path d="M53.4509 335.465L53.241 334.744C51.6649 329.366 52.1419 325.514 54.552 324.171C56.9086 322.849 60.7001 324.412 64.6711 328.36L65.213 328.9L64.6711 329.438C63.2607 330.86 61.9716 332.39 60.8165 334.014L60.6009 334.313L60.2269 334.343C58.1958 334.497 56.1811 334.812 54.2028 335.284L53.4509 335.465ZM56.4697 325.24C56.0423 325.24 55.6644 325.331 55.3458 325.508C53.7658 326.39 53.4872 329.462 54.5749 333.609C56.2751 333.244 57.9905 332.983 59.7193 332.837C60.7202 331.461 61.8121 330.15 62.9881 328.911C60.5017 326.568 58.1546 325.24 56.4697 325.24ZM71.7295 356.65C69.4625 356.65 66.5506 354.993 63.5281 351.986L62.9881 351.448L63.5281 350.911C64.9387 349.487 66.2284 347.955 67.3845 346.33L67.5982 346.034L67.9684 345.999C70.0002 345.847 72.0157 345.534 73.9945 345.062L74.7482 344.877L74.96 345.6C76.5286 350.974 76.0534 354.832 73.6472 356.175C73.063 356.495 72.401 356.66 71.7295 356.65ZM65.213 351.435C67.6975 353.778 70.0464 355.107 71.7295 355.107C72.1588 355.107 72.5366 355.015 72.8534 354.839C74.4353 353.955 74.7158 350.878 73.6243 346.732C71.926 347.098 70.2086 347.36 68.476 347.507C67.4794 348.885 66.3893 350.197 65.213 351.435Z" fill="white"/>
<path d="M74.7482 335.464L73.9944 335.281C72.0158 334.808 70.0003 334.493 67.9684 334.34L67.5982 334.308L67.3845 334.009C66.2299 332.384 64.9401 330.854 63.528 329.433L62.988 328.895L63.528 328.359C67.4971 324.412 71.2867 322.85 73.6471 324.17C76.0553 325.515 76.5342 329.367 74.96 334.743L74.7482 335.464ZM68.476 332.836C70.2964 332.994 72.0214 333.258 73.6242 333.608C74.7138 329.461 74.4352 326.389 72.8533 325.505C71.281 324.623 68.3214 325.973 65.213 328.91C66.3884 330.149 67.4799 331.459 68.476 332.836ZM56.4696 356.649C55.7982 356.658 55.1363 356.494 54.5519 356.174C52.1419 354.831 51.6648 350.975 53.2391 345.599L53.4452 344.876L54.1989 345.061C56.0384 345.51 58.0649 345.826 60.225 345.998L60.5951 346.033L60.8108 346.329C61.9633 347.953 63.2532 349.486 64.6653 350.91L65.2072 351.447L64.6653 351.985C61.6446 354.994 58.7328 356.649 56.4696 356.649ZM54.5748 346.732C53.4871 350.879 53.7657 353.956 55.3457 354.84C56.92 355.709 59.87 354.369 62.988 351.434C61.8125 350.194 60.7206 348.883 59.7193 347.507C57.9887 347.359 56.2702 347.1 54.5748 346.732Z" fill="white"/>
<path d="M64.1005 347.704C62.7896 347.704 61.4443 347.65 60.0933 347.541L59.7193 347.509L59.5037 347.21C58.7418 346.148 58.025 345.057 57.3551 343.938C56.69 342.817 56.0719 341.67 55.5022 340.5L55.3419 340.173L55.5022 339.842C56.0728 338.673 56.6891 337.526 57.3551 336.406C58.0172 335.303 58.7404 334.201 59.5037 333.132L59.7193 332.836L60.0933 332.803C62.7588 332.587 65.4383 332.587 68.1039 332.803L68.4741 332.838L68.6897 333.134C70.2158 335.259 71.5562 337.503 72.6969 339.844L72.8553 340.175L72.6969 340.502C71.5594 342.844 70.2189 345.089 68.6897 347.212L68.4741 347.511L68.1039 347.543C66.7567 347.648 65.4095 347.704 64.1005 347.704ZM60.6009 346.032C62.9575 346.204 65.2435 346.204 67.5982 346.032C68.9127 344.166 70.0813 342.208 71.094 340.173C70.0848 338.136 68.9162 336.178 67.5982 334.314C65.2692 334.14 62.9299 334.14 60.6009 334.314C59.2818 336.177 58.1131 338.136 57.1051 340.173C58.12 342.207 59.2884 344.165 60.6009 346.032Z" fill="white"/>
<ellipse cx="34.9995" cy="241.746" rx="35" ry="34.1094" fill="#2DB1FF"/>
<path d="M24.4725 250.003C24.4725 250.894 25.3432 251.621 26.4145 251.621H28.6344V256.204C28.6344 257.365 29.7513 258.313 31.1234 258.313C32.5 258.313 33.6123 257.369 33.6123 256.204V251.617H37.487V256.201C37.487 257.362 38.6038 258.309 39.9759 258.309C41.3526 258.309 42.4649 257.365 42.4649 256.201V251.617H44.6848C45.7561 251.617 46.6267 250.89 46.6267 249.999V234.955H24.4725V250.003ZM40.7509 227.159L42.7976 224.685C42.9161 224.54 42.8888 224.346 42.7292 224.251C42.5697 224.16 42.3418 224.205 42.2233 224.35L40.099 226.923C38.6996 226.463 37.1406 226.208 35.5041 226.208C33.8676 226.208 32.3086 226.463 30.9091 226.923L28.7849 224.354C28.6663 224.209 28.4384 224.16 28.2789 224.255C28.1193 224.346 28.092 224.537 28.2105 224.689L30.2573 227.163C27.0025 228.427 24.7233 230.821 24.4315 233.619H46.5857C46.2849 230.818 44.0011 228.423 40.7509 227.159ZM30.8271 231.061C30.5845 231.061 30.3475 231.001 30.1458 230.889C29.9442 230.776 29.787 230.616 29.6942 230.429C29.6014 230.242 29.5771 230.036 29.6244 229.837C29.6717 229.639 29.7885 229.456 29.96 229.313C30.1315 229.17 30.35 229.072 30.5878 229.033C30.8257 228.993 31.0723 229.014 31.2963 229.091C31.5204 229.169 31.7119 229.3 31.8466 229.468C31.9814 229.637 32.0533 229.835 32.0533 230.037C32.0525 230.309 31.923 230.569 31.6932 230.761C31.4634 230.952 31.152 231.061 30.8271 231.061ZM40.3269 231.061C40.0844 231.061 39.8473 231.001 39.6457 230.889C39.444 230.776 39.2869 230.616 39.194 230.429C39.1012 230.242 39.0769 230.036 39.1243 229.837C39.1716 229.639 39.2884 229.456 39.4599 229.313C39.6313 229.17 39.8498 229.072 40.0877 229.033C40.3256 228.993 40.5721 229.014 40.7962 229.091C41.0203 229.169 41.2118 229.3 41.3465 229.468C41.4812 229.637 41.5532 229.835 41.5532 230.037C41.5523 230.309 41.4229 230.569 41.1931 230.761C40.9633 230.952 40.6519 231.061 40.3269 231.061ZM50.5106 234.895C49.1339 234.895 48.0216 235.839 48.0216 237.003V245.241C48.0216 246.402 49.1385 247.35 50.5106 247.35C51.8872 247.35 52.9995 246.406 52.9995 245.241V237C53.0041 235.835 51.8918 234.895 50.5106 234.895ZM20.4884 234.895C19.1118 234.895 17.9995 235.839 17.9995 237.003V245.241C17.9995 246.402 19.1163 247.35 20.4884 247.35C21.8651 247.35 22.9774 246.406 22.9774 245.241V237C22.9774 235.835 21.8605 234.895 20.4884 234.895Z" fill="white"/>
<ellipse cx="164" cy="340.278" rx="35" ry="34.1094" fill="#2DB1FF"/>
<path d="M145.8 329.559L163.067 323.906L180.8 329.458L177.928 350.452L163.067 358.015L148.438 350.552L145.8 329.559Z" fill="#0082CB"/>
<path d="M180.8 329.458L163.067 323.906V358.015L177.928 350.464L180.8 329.458Z" fill="#0082CB"/>
<path d="M163.094 327.888L152.335 349.887L156.354 349.824L158.514 344.861H168.167L170.532 349.887L174.374 349.95L163.094 327.888ZM163.122 334.936L166.758 341.922H159.922L163.122 334.936Z" fill="white"/>
<ellipse cx="135" cy="241.746" rx="35" ry="34.1094" fill="#0082CB"/>
<path d="M143.573 241.603C143.557 239.207 144.751 237.401 147.161 236.069C145.813 234.312 143.774 233.346 141.085 233.16C138.54 232.977 135.755 234.509 134.735 234.509C133.657 234.509 131.193 233.223 129.254 233.223C125.252 233.279 121 236.125 121 241.916C121 243.627 121.343 245.395 122.031 247.215C122.95 249.612 126.264 255.483 129.721 255.388C131.529 255.35 132.808 254.222 135.16 254.222C137.443 254.222 138.625 255.388 140.641 255.388C144.129 255.343 147.127 250.005 148 247.602C143.322 245.595 143.573 241.726 143.573 241.603ZM139.513 230.886C141.472 228.771 141.294 226.845 141.236 226.153C139.506 226.244 137.505 227.225 136.365 228.43C135.11 229.723 134.372 231.322 134.53 233.124C136.4 233.255 138.107 232.38 139.513 230.886Z" fill="white"/>
<ellipse cx="335" cy="240.611" rx="35" ry="34.1094" fill="#0082CB"/>
<path d="M339.835 244.383C339.835 247.611 336.732 247.537 336.404 247.537H330.085V241.317H336.404C339.729 241.317 339.835 243.746 339.835 244.383ZM335.917 238.815C335.97 238.815 338.921 238.891 338.921 236.05C338.921 234.868 338.646 233.319 335.917 233.319H330.085V238.815H335.917ZM352 228.755V251.494C351.995 253 351.379 254.444 350.286 255.509C349.193 256.574 347.712 257.174 346.166 257.179H322.833C321.287 257.174 319.806 256.574 318.713 255.509C317.62 254.444 317.004 253 317 251.494V228.755C317.004 227.248 317.62 225.805 318.713 224.739C319.806 223.674 321.287 223.074 322.833 223.069H346.166C347.712 223.074 349.193 223.674 350.286 224.739C351.379 225.805 351.995 227.248 352 228.755ZM343.41 244.834C343.41 243.192 342.89 240.396 339.578 239.706V239.651C341.367 238.906 342.495 237.5 342.495 235.414C342.495 234.881 342.651 230.482 336.432 230.482H326.51V250.379C336.528 250.379 337.438 250.507 339.292 249.944C340.402 249.608 343.41 248.575 343.41 244.834Z" fill="white"/>
<ellipse cx="135" cy="443.278" rx="35" ry="34.1094" fill="#2DB1FF"/>
<path d="M118 428.659H153L149.817 459.306L135.463 462.769L121.187 459.304L118 428.659ZM146.484 434.93L124.518 434.927L124.872 438.652L141.748 438.656L141.324 442.516H130.256L130.657 446.173H140.961L140.351 451.181L135.501 452.323L130.576 451.171L130.26 448.172H125.912L126.396 453.652L135.501 456.07L144.455 453.896L146.484 434.93Z" fill="white"/>
<ellipse cx="435" cy="438.746" rx="35" ry="34.1094" fill="#0082CB"/>
<path d="M447.868 445.609L442.097 444.285L440.56 441.422L448.113 434.947C449.21 435.353 450.155 436.076 450.822 437.02C451.488 437.964 451.845 439.084 451.845 440.232C451.845 442.646 450.211 444.849 447.868 445.609ZM443.527 452.284C442.628 452.284 441.749 451.987 441.03 451.451L442.172 445.631L447.411 446.834C447.577 447.275 447.663 447.745 447.663 448.237C447.663 448.768 447.556 449.295 447.348 449.786C447.14 450.277 446.835 450.723 446.451 451.099C446.067 451.475 445.611 451.773 445.109 451.977C444.607 452.18 444.069 452.285 443.525 452.285L443.527 452.284ZM439.681 451.451C438.89 452.595 437.824 453.531 436.577 454.177C435.329 454.824 433.939 455.16 432.527 455.157C427.75 455.157 423.865 451.356 423.865 446.686C423.865 446.111 423.922 445.545 424.036 444.999L431.567 438.334L439.259 441.761L440.962 444.947L439.681 451.451ZM419.557 438.631C419.557 436.217 421.185 434.014 423.528 433.254L429.287 434.59L430.641 437.414L423.277 443.928C422.181 443.518 421.239 442.792 420.574 441.846C419.91 440.901 419.555 439.78 419.557 438.632V438.631ZM427.869 426.578C428.779 426.578 429.658 426.869 430.384 427.406L429.235 433.242L423.983 432.035C423.816 431.583 423.731 431.107 423.732 430.626C423.733 429.553 424.17 428.524 424.945 427.766C425.721 427.007 426.772 426.58 427.869 426.578ZM431.749 427.416C432.544 426.284 433.607 425.358 434.849 424.718C436.09 424.078 437.472 423.744 438.875 423.743C443.635 423.743 447.508 427.535 447.508 432.197C447.508 432.768 447.456 433.31 447.342 433.857L439.618 440.483L431.96 437.068L430.464 433.942L431.749 427.416ZM453.199 440.247C453.203 438.856 452.766 437.499 451.95 436.361C451.134 435.223 449.977 434.36 448.64 433.891C448.764 433.285 448.825 432.669 448.823 432.052C448.823 426.718 444.388 422.374 438.937 422.374C437.372 422.374 435.83 422.738 434.437 423.436C433.044 424.134 431.84 425.146 430.926 426.388C430.023 425.708 428.919 425.333 427.779 425.32C426.64 425.307 425.527 425.657 424.609 426.317C423.69 426.977 423.016 427.912 422.688 428.979C422.36 430.047 422.395 431.19 422.789 432.237C420.068 433.198 418.199 435.765 418.199 438.622C418.196 440.016 418.634 441.378 419.453 442.519C420.273 443.661 421.434 444.525 422.776 444.995C422.656 445.601 422.594 446.216 422.593 446.834C422.593 452.157 427.021 456.483 432.461 456.483C434.028 456.485 435.572 456.12 436.964 455.419C438.357 454.718 439.558 453.7 440.467 452.452C441.382 453.161 442.516 453.547 443.683 453.547C444.53 453.547 445.364 453.346 446.114 452.963C446.864 452.579 447.508 452.023 447.991 451.344C448.474 450.664 448.782 449.879 448.889 449.058C448.995 448.236 448.897 447.402 448.603 446.625C451.323 445.663 453.197 443.097 453.197 440.246L453.199 440.247Z" fill="white"/>
<ellipse cx="235" cy="241.746" rx="35" ry="34.1094" fill="#2DB1FF"/>
<path d="M219.918 240.957C218.276 238.374 217.942 235.965 219.109 234.146C220.672 231.703 224.593 230.852 229.551 231.664C229.835 231.702 230.032 231.948 229.983 232.203C229.971 232.264 229.944 232.322 229.906 232.374C229.868 232.425 229.818 232.469 229.76 232.503C229.703 232.537 229.638 232.56 229.57 232.571C229.502 232.581 229.433 232.58 229.366 232.565C224.784 231.814 221.289 232.576 219.993 234.602C219.036 236.093 219.319 238.175 220.801 240.501C220.838 240.553 220.863 240.612 220.873 240.673C220.884 240.735 220.881 240.798 220.865 240.858C220.848 240.918 220.818 240.975 220.776 241.024C220.734 241.074 220.682 241.115 220.622 241.146C220.563 241.177 220.497 241.196 220.428 241.203C220.36 241.211 220.291 241.205 220.225 241.187C220.159 241.17 220.098 241.14 220.045 241.101C219.993 241.061 219.949 241.012 219.918 240.957ZM243.5 232.309C246.402 232.342 248.489 233.155 249.434 234.624C250.731 236.645 249.718 239.744 246.716 242.938C246.668 242.983 246.631 243.037 246.606 243.095C246.582 243.154 246.571 243.216 246.575 243.279C246.578 243.341 246.596 243.403 246.626 243.459C246.657 243.515 246.7 243.565 246.753 243.606C246.976 243.778 247.315 243.745 247.488 243.533C250.736 240.078 251.872 236.599 250.31 234.167C249.161 232.375 246.741 231.429 243.518 231.39C243.448 231.386 243.379 231.395 243.313 231.416C243.248 231.437 243.188 231.47 243.137 231.512C243.086 231.555 243.045 231.607 243.017 231.664C242.99 231.722 242.975 231.784 242.975 231.846C242.973 231.909 242.986 231.971 243.013 232.028C243.039 232.086 243.079 232.138 243.129 232.181C243.179 232.225 243.238 232.258 243.303 232.28C243.367 232.302 243.437 232.311 243.506 232.308L243.5 232.309ZM240.573 254.018C240.457 253.955 240.319 253.936 240.188 253.966C240.057 253.995 239.944 254.07 239.874 254.174C238.398 256.389 236.583 257.591 234.718 257.591C232.124 257.591 229.649 255.247 228.081 251.296C228.035 251.182 227.94 251.089 227.818 251.037C227.696 250.986 227.556 250.98 227.429 251.021C227.302 251.063 227.199 251.148 227.142 251.258C227.084 251.368 227.078 251.494 227.124 251.608C228.816 255.877 231.595 258.508 234.718 258.508C236.991 258.508 239.097 257.112 240.745 254.646C240.813 254.542 240.834 254.417 240.801 254.299C240.769 254.181 240.686 254.08 240.572 254.017L240.573 254.018ZM252.199 250.323C252.194 252.109 249.958 253.138 248.346 252.104C244.468 254.163 237.053 253.117 230.076 249.483C227.106 247.936 224.5 246.077 222.493 244.091C222.446 244.046 222.408 243.993 222.384 243.936C222.36 243.878 222.348 243.816 222.35 243.755C222.353 243.693 222.369 243.632 222.398 243.576C222.426 243.52 222.467 243.47 222.518 243.428C222.568 243.387 222.628 243.355 222.692 243.335C222.757 243.315 222.825 243.307 222.893 243.311C222.961 243.315 223.028 243.332 223.088 243.36C223.149 243.387 223.203 243.426 223.247 243.473C225.179 245.388 227.699 247.19 230.582 248.687C237.17 252.115 244.104 253.133 247.649 251.403C247.465 251.111 247.358 250.785 247.335 250.45C247.313 250.114 247.376 249.779 247.521 249.469C247.665 249.159 247.887 248.884 248.168 248.663C248.449 248.443 248.783 248.284 249.143 248.198C249.504 248.112 249.882 248.101 250.248 248.168C250.614 248.234 250.958 248.376 251.253 248.581C251.549 248.787 251.788 249.051 251.952 249.353C252.116 249.655 252.201 249.988 252.199 250.324V250.323ZM222.067 250.323C222.073 252.021 220.024 253.077 218.399 252.215C216.775 251.358 216.806 249.227 218.455 248.408C218.084 244.307 222.864 238.815 230.089 235.053C233.09 233.495 236.215 232.387 239.148 231.82C239.777 231.742 239.969 232.555 239.363 232.716C236.536 233.261 233.509 234.336 230.595 235.849C223.797 239.388 219.302 244.491 219.456 248.141C219.517 248.136 219.573 248.131 219.635 248.131C220.98 248.131 222.067 249.116 222.067 250.323ZM232.287 226.51C232.398 223.695 237.041 223.695 237.152 226.51C237.152 226.544 237.146 226.578 237.146 226.606C241.179 228.486 243.975 234.886 243.975 242.282C243.975 245.326 243.506 248.242 242.623 250.774C242.548 251.024 242.259 251.175 241.98 251.097C241.701 251.019 241.554 250.746 241.653 250.501C242.499 248.059 242.956 245.232 242.956 242.282C242.956 235.314 240.387 229.327 236.88 227.518C235.706 229.56 232.28 228.809 232.286 226.51H232.287ZM234.349 240.728C233.398 240.917 232.792 241.758 232.996 242.615C233.2 243.472 234.139 244.018 235.09 243.834C237.387 243.389 236.639 240.284 234.349 240.729V240.728Z" fill="white"/>
<ellipse cx="364" cy="35.2651" rx="35" ry="34.1094" fill="#0082CB"/>
<path d="M367.617 17.7229L346 34.7088L352.69 39.9662L380.999 17.723L367.617 17.7229Z" fill="#ECEFF1"/>
<path d="M367.466 33.3866L355.892 42.4812L362.608 47.8372L369.287 42.5896L380.999 33.3866H367.466Z" fill="#ECEFF1"/>
<path d="M362.608 47.8373L367.692 51.8322H380.999L369.287 42.5896L362.608 47.8373Z" fill="#0082CB"/>
<path d="M355.817 42.5403L362.508 37.2828L369.287 42.5895L362.608 47.8372L355.817 42.5403Z" fill="#2DB1FF"/>
<path d="M362.608 47.8373L368.169 46.3873L368.722 43.0336L362.608 47.8373Z" fill="url(#paint0_linear)" fill-opacity="0.8"/>
<ellipse cx="205" cy="138.611" rx="35" ry="34.1094" fill="#0082CB"/>
<path d="M187 121.069L190.148 151.678L204.497 155.179L218.789 151.678L222 121.069H187ZM216.142 149.792L204.497 152.645L192.8 149.792L190.095 123.505H218.899L216.142 149.792ZM193.487 127.342L193.568 128.338L194.651 138.731H204.502V138.727H209.888L209.344 143.585L204.459 144.721V144.729H204.421L199.536 143.593L199.226 140.592H194.885L195.424 146.524L204.421 148.656H204.502V148.64L213.456 146.52L213.537 145.852L214.548 135.923L214.701 134.926H204.459V134.935H198.682L198.291 131.073H215.087L215.168 130.273L215.397 128.338L215.478 127.342H204.459H193.487Z" fill="white"/>
<ellipse cx="335" cy="441.278" rx="35" ry="34.1094" fill="#2DB1FF"/>
<path d="M335.699 426.044L337.152 425.275C336.968 425.159 336.743 425.066 336.493 425.002C336.243 424.938 335.973 424.906 335.699 424.906C335.426 424.906 335.156 424.938 334.906 425.002C334.656 425.066 334.431 425.159 334.247 425.275L335.699 426.044ZM335.699 455.604L334.152 456.307C334.336 456.442 334.571 456.551 334.839 456.627C335.107 456.702 335.402 456.741 335.699 456.741C335.997 456.741 336.291 456.702 336.559 456.627C336.827 456.551 337.062 456.442 337.247 456.307L335.699 455.604ZM324.373 447.277L322.826 447.982L324.373 447.277ZM325.342 432.572L323.889 431.801L325.342 432.568V432.572ZM346.057 432.572L347.51 431.804L346.057 432.57V432.572ZM347.026 447.277L348.573 447.982L347.026 447.277ZM337.668 459.015V426.044H333.731V459.015H337.668ZM337.247 454.902L325.92 446.577L322.826 447.982L334.152 456.309L337.247 454.904V454.902ZM326.79 433.338L337.156 426.812L334.243 425.275L323.889 431.801L326.787 433.338H326.79ZM334.247 426.812L344.608 433.338L347.51 431.804L337.152 425.278L334.243 426.81L334.247 426.812ZM345.478 446.575L334.152 454.902L337.247 456.307L348.573 447.98L345.478 446.575ZM344.608 433.341C347.445 435.129 349.089 437.442 349.248 439.866C349.407 442.29 348.069 444.667 345.475 446.575L348.573 447.98C351.744 445.648 353.379 442.742 353.184 439.779C352.989 436.816 350.978 433.989 347.51 431.804L344.608 433.338V433.341ZM325.92 446.575C323.326 444.667 321.989 442.289 322.149 439.865C322.308 437.441 323.953 435.129 326.79 433.341L323.889 431.801C320.421 433.987 318.41 436.814 318.215 439.777C318.02 442.74 319.655 445.646 322.826 447.978L325.92 446.572V446.575Z" fill="white"/>
<ellipse cx="235" cy="442.746" rx="35" ry="34.1094" fill="#0082CB"/>
<path d="M242.71 429.831C242.505 429.831 242.369 429.864 242.231 429.905V429.93H242.252C242.348 430.142 242.505 430.306 242.627 430.503C242.723 430.724 242.805 430.951 242.894 431.173L242.921 431.14C243.085 431 243.168 430.78 243.168 430.444C243.1 430.346 243.085 430.24 243.025 430.149C242.957 430.01 242.806 429.938 242.71 429.831ZM224.096 457.441H222.476C222.427 454.359 222.27 451.28 222.005 448.213H221.992L219.524 457.441H218.286L215.838 448.213H215.817C215.627 451.285 215.513 454.362 215.476 457.441H214C214.079 453.572 214.319 449.709 214.717 445.867H216.727L219.065 454.369H219.078L221.436 445.867H223.35C223.774 450.086 224.027 453.943 224.102 457.441H224.096ZM231.123 448.901C230.467 453.184 229.591 456.299 228.519 458.236C227.671 459.731 226.748 460.483 225.743 460.483C225.476 460.483 225.148 460.384 224.752 460.188V459.158C224.95 459.191 225.176 459.215 225.429 459.215C225.9 459.215 226.277 459.052 226.564 458.749C226.906 458.372 227.078 457.948 227.078 457.482C227.078 457.156 226.948 456.501 226.675 455.505L224.904 448.901H226.498L227.769 453.838C228.057 454.966 228.18 455.743 228.125 456.192C228.829 453.968 229.314 451.533 229.589 448.901H231.123ZM252.697 457.441H248.09V445.867H249.642V456.02H252.697V457.441ZM246.887 457.721L245.109 456.674C245.267 456.519 245.416 456.348 245.554 456.151C246.313 455.097 246.69 453.519 246.69 451.443C246.69 447.609 245.432 445.698 242.916 445.698C241.685 445.698 240.722 446.179 240.031 447.152C239.279 448.215 238.896 449.784 238.896 451.853C238.896 453.888 239.23 455.376 239.901 456.332C240.517 457.182 241.439 457.616 242.677 457.616C243.135 457.616 243.559 457.55 243.943 457.412L246.26 459.03L246.896 457.722L246.887 457.721ZM241.124 455.12C240.728 454.369 240.536 453.159 240.536 451.49C240.536 448.573 241.275 447.118 242.759 447.118C243.532 447.118 244.105 447.469 244.468 448.165C244.857 448.924 245.056 450.119 245.056 451.77C245.056 454.704 244.31 456.184 242.833 456.184C242.054 456.184 241.487 455.833 241.118 455.138L241.124 455.12ZM238.225 454.238C238.225 455.219 237.925 456.029 237.315 456.649C236.714 457.278 235.914 457.597 234.895 457.597C233.945 457.597 233.035 457.237 232.14 456.517L232.558 455.52C233.323 455.979 234.013 456.208 234.643 456.208C235.225 456.208 235.683 456.053 236.011 455.75C236.339 455.439 236.537 455.006 236.537 454.458C236.537 453.771 236.134 453.182 235.402 452.692C234.725 452.244 233.365 451.319 233.365 451.319C232.626 450.674 232.264 449.987 232.264 448.851C232.264 447.91 232.537 447.159 233.084 446.586C233.638 445.997 234.341 445.712 235.217 445.712C236.088 445.703 236.942 446.001 237.671 446.57L237.296 447.567C236.709 447.258 236.077 447.094 235.436 447.085C234.937 447.085 234.554 447.232 234.287 447.518C234.021 447.804 233.857 448.163 233.857 448.614C233.857 449.301 234.268 449.889 235.019 450.395C235.709 450.844 237.096 451.793 237.096 451.793C237.855 452.43 238.232 453.118 238.232 454.237L238.225 454.238ZM254.64 441.986C253.703 441.961 252.978 442.075 252.37 442.386C252.2 442.468 251.919 442.468 251.891 442.73C251.987 442.844 252 443.025 252.083 443.179C252.226 443.456 252.466 443.833 252.692 444.029C252.939 444.258 253.184 444.488 253.437 444.684C253.896 445.02 254.409 445.216 254.859 445.55C255.112 445.746 255.372 445.999 255.624 446.204C255.754 446.311 255.835 446.5 256 446.564V446.523C255.917 446.401 255.897 446.22 255.814 446.074C255.698 445.935 255.582 445.812 255.465 445.674C255.123 445.131 254.713 444.654 254.249 444.26C253.873 443.957 253.053 443.532 252.902 443.017L252.881 442.984C253.134 442.959 253.435 442.844 253.68 442.763C254.077 442.64 254.445 442.664 254.856 442.541C255.045 442.483 255.232 442.418 255.417 442.345V442.223C255.205 441.97 255.048 441.627 254.829 441.39C254.225 440.758 253.58 440.184 252.901 439.673C252.532 439.387 252.067 439.206 251.677 438.97C251.541 438.888 251.302 438.847 251.226 438.707C251.014 438.397 250.891 437.996 250.74 437.628C250.397 436.83 250.078 436.017 249.783 435.192C249.572 434.644 249.449 434.104 249.189 433.597C247.985 431.218 246.673 429.781 244.663 428.367C244.233 428.072 243.713 427.949 243.165 427.794C242.871 427.778 242.584 427.753 242.29 427.737C242.098 427.638 241.915 427.378 241.751 427.246C241.081 426.739 239.358 425.652 238.872 427.091C238.557 428.006 239.337 428.897 239.611 429.355C239.809 429.682 240.063 430.043 240.206 430.402C240.288 430.647 240.308 430.901 240.391 431.154C240.576 431.768 240.753 432.453 241 433.026C241.13 433.321 241.266 433.63 241.43 433.892C241.526 434.048 241.69 434.114 241.724 434.366C241.56 434.652 241.547 435.07 241.458 435.413C241.034 436.998 241.198 438.952 241.793 440.121C241.984 440.473 242.428 441.242 243.024 440.947C243.55 440.694 243.435 439.9 243.584 439.197C243.618 439.026 243.597 438.919 243.667 438.805V438.838C243.838 439.23 244.002 439.607 244.153 439.999C244.508 440.686 245.143 441.397 245.67 441.871C245.951 442.124 246.169 442.559 246.518 442.713V442.672H246.49C246.415 442.549 246.32 442.491 246.224 442.394C246.002 442.131 245.796 441.85 245.608 441.553C245.122 440.768 244.685 439.902 244.302 439.01C244.118 438.57 243.949 438.12 243.797 437.662C243.729 437.499 243.729 437.245 243.612 437.163C243.435 437.466 243.175 437.727 243.051 438.111C242.826 438.707 242.805 439.451 242.717 440.22C242.676 440.236 242.696 440.22 242.676 440.253C242.301 440.139 242.171 439.68 242.033 439.288C241.677 438.292 241.622 436.697 241.924 435.553C242.007 435.258 242.354 434.335 242.218 434.057C242.143 433.787 241.911 433.632 241.787 433.42C241.63 433.158 241.472 432.824 241.363 432.529C241.082 431.744 240.946 430.878 240.639 430.093C240.502 429.734 240.256 429.357 240.057 429.023C239.832 428.646 239.586 428.378 239.414 427.935C239.353 427.78 239.271 427.527 239.367 427.362C239.388 427.248 239.435 427.207 239.531 427.174C239.682 427.018 240.119 427.215 240.27 427.304C240.701 427.508 241.063 427.704 241.425 427.999C241.589 428.139 241.766 428.4 241.979 428.473H242.226C242.601 428.572 243.018 428.498 243.368 428.629C243.99 428.866 244.55 429.209 245.056 429.584C246.601 430.771 247.858 432.423 248.699 434.374C248.842 434.693 248.904 434.988 249.034 435.322C249.273 436.017 249.581 436.711 249.827 437.373C250.072 438.036 250.306 438.706 250.66 439.254C250.837 439.549 251.536 439.702 251.856 439.85C252.088 439.98 252.45 440.095 252.655 440.242C253.058 440.537 253.454 440.872 253.831 441.198C254.023 441.353 254.604 441.705 254.638 441.983L254.64 441.986Z" fill="white"/>
<ellipse cx="105" cy="135.265" rx="35" ry="34.1094" fill="#2DB1FF"/>
<path d="M90.7812 121.397C91.5407 120.619 92.4519 119.997 93.4614 119.567C94.471 119.137 95.5584 118.908 96.66 118.893H115.03C117.031 118.893 118.899 119.749 120.618 121.397C121.419 122.107 122.061 122.971 122.505 123.933C122.949 124.895 123.185 125.937 123.199 126.992V145.142C123.199 147.047 122.385 148.812 120.749 150.443C119.984 151.231 119.064 151.864 118.045 152.303C117.026 152.743 115.928 152.98 114.814 153.002H96.7617C94.5579 152.983 92.435 152.191 90.7812 150.771C89.2073 149.377 88.3487 147.361 88.1999 144.658V127.035C88.1877 125.97 88.4121 124.914 88.8576 123.94C89.3031 122.967 89.9593 122.099 90.7812 121.395V121.397ZM99.8952 133.189L111.458 147.49H114.551C115.264 147.401 115.833 147.207 116.254 146.879C116.693 146.552 116.984 146.081 117.189 145.458V138.436C117.309 137.087 118.169 136.248 119.77 135.949C118.169 135.383 117.31 134.499 117.189 133.306V126.599C117.019 125.972 116.711 125.461 116.254 125.078C115.816 124.688 115.257 124.451 114.665 124.406H111.533V138.902L99.8952 124.395H96.6414C95.8266 124.535 95.2283 124.822 94.8181 125.245C94.4145 125.672 94.1455 126.354 94.0317 127.275V134.171C93.5188 135.153 92.7225 135.737 91.6288 135.948C92.8636 136.175 93.6675 136.813 94.0317 137.879V144.659C94.0613 145.442 94.3216 146.08 94.8181 146.607C95.3027 147.118 95.8375 147.362 96.4248 147.318H99.8646L99.8952 133.189Z" fill="white"/>
<ellipse cx="364" cy="340.278" rx="35" ry="34.1094" fill="#0082CB"/>
<path d="M364.757 354.896C364.619 354.896 364.481 354.851 364.356 354.777L363.096 353.927C362.906 353.807 362.998 353.762 363.064 353.74C363.313 353.643 363.365 353.621 363.635 353.442C363.661 353.427 363.7 353.434 363.726 353.449L364.698 354.106C364.73 354.128 364.783 354.128 364.816 354.106L368.609 351.614C368.642 351.592 368.668 351.547 368.668 351.495V346.52C368.668 346.468 368.648 346.423 368.609 346.401L364.816 343.917C364.783 343.895 364.737 343.895 364.698 343.917L360.905 346.401C360.865 346.423 360.845 346.475 360.845 346.52V351.495C360.845 351.54 360.872 351.585 360.905 351.607L361.941 352.286C362.506 352.606 362.854 352.226 362.854 351.853V346.938C362.854 346.871 362.9 346.811 362.965 346.811H363.444C363.503 346.811 363.556 346.863 363.556 346.938V351.853C363.556 352.711 363.149 353.196 362.434 353.196C362.217 353.196 362.04 353.196 361.561 352.927L360.563 352.278C360.32 352.114 360.163 351.816 360.163 351.495V346.52C360.163 346.199 360.314 345.894 360.563 345.737L364.356 343.246C364.599 343.089 364.914 343.089 365.15 343.246L368.944 345.737C369.186 345.901 369.344 346.199 369.344 346.52V351.495C369.344 351.816 369.193 352.122 368.944 352.278L365.15 354.769C365.039 354.851 364.901 354.896 364.757 354.896ZM367.821 349.988C367.821 349.056 367.27 348.81 366.102 348.631C364.921 348.452 364.803 348.362 364.803 348.049C364.803 347.788 364.901 347.445 365.774 347.445C366.555 347.445 366.844 347.639 366.962 348.236C366.975 348.295 367.014 348.333 367.067 348.333H367.559C367.592 348.333 367.618 348.318 367.638 348.295C367.657 348.265 367.67 348.236 367.664 348.198C367.585 347.169 366.988 346.692 365.774 346.692C364.691 346.692 364.048 347.214 364.048 348.079C364.048 349.026 364.691 349.28 365.728 349.399C366.968 349.541 367.067 349.742 367.067 350.018C367.067 350.503 366.725 350.704 365.925 350.704C364.921 350.704 364.698 350.421 364.625 349.854C364.619 349.795 364.573 349.75 364.514 349.75H364.022C363.963 349.75 363.91 349.802 363.91 349.877C363.91 350.6 364.258 351.465 365.918 351.465C367.132 351.465 367.821 350.928 367.821 349.988ZM371.398 346.252C371.398 346.707 371.07 347.08 370.67 347.08C370.269 347.08 369.941 346.707 369.941 346.252C369.941 345.782 370.282 345.424 370.67 345.424C371.063 345.416 371.398 345.782 371.398 346.252ZM371.28 346.252C371.28 345.864 371.004 345.558 370.663 345.558C370.328 345.558 370.053 345.864 370.053 346.252C370.053 346.64 370.328 346.953 370.663 346.953C371.004 346.945 371.28 346.632 371.28 346.252ZM370.985 346.714H370.814C370.807 346.669 370.781 346.431 370.781 346.423C370.768 346.371 370.755 346.341 370.696 346.341H370.551V346.714H370.394V345.782H370.676C370.775 345.782 370.965 345.782 370.965 346.028C370.965 346.199 370.866 346.237 370.807 346.259C370.919 346.267 370.925 346.349 370.945 346.468C370.952 346.543 370.965 346.669 370.985 346.714ZM370.801 346.058C370.801 345.931 370.722 345.931 370.683 345.931H370.551V346.192H370.676C370.781 346.192 370.801 346.11 370.801 346.058ZM353.01 335.429C353.01 335.228 352.918 335.049 352.767 334.952L348.744 332.319C348.679 332.274 348.6 332.252 348.521 332.244H348.482C348.403 332.244 348.331 332.274 348.259 332.319L344.242 334.952C344.091 335.049 344 335.235 344 335.429L344.006 342.515C344.006 342.612 344.052 342.701 344.124 342.754C344.196 342.806 344.288 342.806 344.367 342.754L346.756 341.195C346.907 341.09 346.999 340.911 346.999 340.717V337.406C346.999 337.212 347.09 337.025 347.241 336.928L348.259 336.265C348.337 336.212 348.416 336.19 348.501 336.19C348.587 336.19 348.672 336.212 348.744 336.265L349.761 336.928C349.912 337.025 350.004 337.212 350.004 337.406V340.717C350.004 340.911 350.096 341.098 350.247 341.195L352.636 342.754C352.708 342.806 352.806 342.806 352.879 342.754C352.951 342.709 352.997 342.612 352.997 342.515L353.01 335.429ZM375.007 327.695V340.852C375.007 341.046 374.915 341.232 374.765 341.329L370.742 343.969C370.591 344.066 370.407 344.066 370.256 343.969L366.233 341.329C366.082 341.232 365.99 341.046 365.99 340.852V335.571C365.99 335.377 366.082 335.191 366.233 335.094L370.256 332.453C370.407 332.356 370.591 332.356 370.742 332.453L371.746 333.11C371.857 333.184 372.002 333.087 372.002 332.946V325.934C372.002 325.726 372.199 325.591 372.363 325.696L374.758 327.217C374.909 327.307 375.007 327.493 375.007 327.695ZM371.989 337.309C371.989 337.257 371.962 337.212 371.93 337.189L370.551 336.28C370.512 336.257 370.466 336.257 370.427 336.28L369.049 337.189C369.009 337.212 368.99 337.257 368.99 337.309V339.121C368.99 339.173 369.016 339.218 369.049 339.241L370.427 340.143C370.466 340.165 370.512 340.165 370.545 340.143L371.923 339.241C371.962 339.218 371.982 339.173 371.982 339.121V337.309H371.989ZM385.757 337.257C385.908 337.16 386 336.973 386 336.779V335.504C386 335.31 385.908 335.123 385.757 335.026L381.76 332.386C381.609 332.289 381.425 332.289 381.275 332.386L377.252 335.026C377.101 335.123 377.009 335.31 377.009 335.504V340.785C377.009 340.986 377.101 341.165 377.252 341.262L381.248 343.85C381.393 343.947 381.576 343.947 381.727 343.85L384.142 342.321C384.306 342.217 384.306 341.948 384.142 341.844L380.093 339.203C380.015 339.151 379.969 339.062 379.969 338.965V337.309C379.969 337.212 380.015 337.122 380.093 337.07L381.353 336.242C381.425 336.19 381.524 336.19 381.596 336.242L382.856 337.07C382.928 337.122 382.981 337.212 382.981 337.309V338.607C382.981 338.815 383.184 338.95 383.348 338.845L385.757 337.257ZM380.684 337.518C380.658 337.54 380.638 337.57 380.638 337.607V338.622C380.638 338.659 380.658 338.696 380.684 338.711L381.458 339.218C381.485 339.241 381.524 339.241 381.55 339.218L382.325 338.711C382.351 338.689 382.37 338.659 382.37 338.622V337.607C382.37 337.57 382.351 337.533 382.325 337.518L381.55 337.01C381.524 336.988 381.485 336.988 381.458 337.01L380.684 337.518ZM364.002 340.762V335.511C364.002 335.317 363.897 335.131 363.746 335.034L359.736 332.408C359.599 332.319 359.408 332.304 359.251 332.408L355.241 335.034C355.09 335.131 354.985 335.31 354.985 335.511V340.762C354.985 340.971 355.11 341.15 355.248 341.239L359.264 343.865C359.421 343.969 359.605 343.962 359.75 343.865L363.753 341.239C363.871 341.165 363.956 341.038 363.989 340.889C363.995 340.852 364.002 340.807 364.002 340.762ZM359.126 331.446L359.074 331.484H359.146L359.126 331.446ZM364.127 341.157L364.1 341.105V341.172L364.127 341.157Z" fill="white"/>
<ellipse cx="264" cy="34.2651" rx="35" ry="34.1094" fill="#0082CB"/>
<path d="M252.886 19.6139C252.886 19.6139 252.759 19.8099 252.88 20.1C252.953 20.279 253.177 20.495 253.423 20.7233C253.423 20.7233 256 23.1551 256.316 23.5069C257.745 25.1009 258.366 26.6701 258.423 28.835C258.458 30.2237 258.182 31.4458 257.509 32.8669C256.302 35.4113 253.758 38.2181 249.831 41.3381L250.406 41.1529C250.778 40.886 251.281 40.599 252.468 39.9709C255.202 38.5267 258.272 37.1966 262.043 35.8264C267.468 33.856 276.392 31.543 281.471 30.7915L282 30.7128L281.92 30.5894C281.454 29.892 281.138 29.4615 280.755 29.0047C279.642 27.6731 278.293 26.5868 276.641 25.6934C274.372 24.4636 271.427 23.5085 267.703 22.7925C266.541 22.5812 265.375 22.3883 264.206 22.2139C262.115 21.9039 260.027 21.5747 257.943 21.2264C257.265 21.1106 256.251 20.9471 255.579 20.8067C255.061 20.7002 254.549 20.5673 254.045 20.4086C253.617 20.2466 253.016 20.0892 252.886 19.6139ZM254.38 21.0165C254.385 21.0134 254.481 21.0428 254.599 21.0813C254.816 21.1523 255.103 21.2356 255.439 21.3267C255.672 21.3884 255.929 21.4563 256.203 21.5226C256.551 21.609 256.84 21.6831 256.843 21.6877C256.881 21.7294 257.467 23.5363 257.667 24.2291C257.743 24.4945 257.801 24.7151 257.796 24.7198C257.74 24.6529 257.692 24.5804 257.652 24.5037C256.976 23.3526 255.901 22.1815 254.661 21.2387C254.565 21.168 254.471 21.0939 254.38 21.0165ZM257.237 21.7788C257.342 21.7885 257.446 21.806 257.549 21.8312C258.537 22.0411 260.302 22.3713 261.435 22.5565C261.625 22.5873 261.78 22.6182 261.78 22.629C261.734 22.6691 261.681 22.7014 261.624 22.7246C261.434 22.8172 260.663 23.2632 260.406 23.4298C259.819 23.8025 259.268 24.2265 258.762 24.6966C258.659 24.7979 258.555 24.8967 258.447 24.9929C258.42 24.9241 258.398 24.8535 258.382 24.7815C258.111 23.8417 257.764 22.9238 257.344 22.0365C257.302 21.9535 257.264 21.8685 257.231 21.7819C257.231 21.7803 257.231 21.7788 257.237 21.7788ZM262.26 22.7015C262.292 22.7123 262.356 22.9021 262.466 23.3249C262.721 24.3218 262.803 25.3525 262.71 26.3754L262.691 26.4341L262.393 26.3415C261.566 26.0911 260.735 25.8545 259.9 25.6317C259.598 25.557 259.3 25.4695 259.006 25.3694C259.006 25.3354 259.723 24.6426 260.031 24.3788C260.62 23.8757 262.204 22.6845 262.26 22.7015ZM262.659 22.757C262.677 22.7416 265.06 23.1397 266.142 23.3403C266.95 23.49 268.117 23.7261 268.187 23.7554C268.222 23.7677 268.101 23.8325 267.713 24.0023C266.18 24.6688 265.044 25.2675 263.914 25.9974C263.617 26.1887 263.37 26.3461 263.365 26.3461C263.358 26.3461 263.355 26.1856 263.355 25.9912C263.355 24.9265 263.133 23.851 262.731 22.9422C262.701 22.8828 262.677 22.8208 262.659 22.757ZM268.82 23.9359C268.838 23.9529 268.76 24.4081 268.693 24.6766C268.482 25.5098 267.923 26.7504 267.234 27.9154C267.161 28.0468 267.08 28.1735 266.991 28.2949C266.87 28.2452 266.753 28.1858 266.642 28.1175C265.968 27.7364 265.205 27.3768 264.367 27.042C264.217 26.985 264.069 26.9233 263.924 26.8568C263.885 26.8229 265.748 25.6301 266.736 25.0577C267.526 24.5994 268.798 23.9143 268.82 23.9359ZM269.261 24.0023C269.314 24.0023 270.37 24.28 270.916 24.4389C272.278 24.8324 273.848 25.3863 274.866 25.8338L275.289 26.019L274.991 26.0853C272.499 26.6408 270.362 27.2781 268.306 28.0851C268.136 28.153 267.987 28.2085 267.976 28.2085C268.005 28.1094 268.045 28.0137 268.096 27.9231C268.715 26.6532 269.114 25.32 269.218 24.189C269.227 24.0856 269.247 24.0023 269.261 24.0023ZM258.758 26.3353C258.774 26.3199 259.579 26.5019 260.018 26.6208C260.677 26.7997 262.08 27.2534 262.08 27.2889C262.08 27.2951 261.925 27.4262 261.737 27.579C260.922 28.2414 260.132 28.9327 259.37 29.6512C259.212 29.8041 259.048 29.9508 258.878 30.091C258.867 30.091 258.862 30.0555 258.869 30.0139C259.001 29.0711 258.972 27.8613 258.789 26.63C258.771 26.5332 258.76 26.4352 258.757 26.3368L258.758 26.3353ZM275.693 26.3507C275.704 26.3631 275.32 26.9448 275.08 27.2765C274.729 27.761 274.223 28.3968 273.068 29.8025L271.545 31.6572C271.406 31.8316 271.263 32.0029 271.116 32.171C271.111 32.171 271.036 32.0692 270.951 31.9457C270.299 31.0045 269.508 30.1599 268.605 29.4383C268.463 29.3237 268.32 29.2115 268.174 29.1019C268.131 29.074 268.091 29.0414 268.056 29.0047C268.056 28.9893 269.041 28.5819 269.792 28.2857C271.249 27.7197 272.728 27.2101 274.226 26.7581C274.932 26.5498 275.682 26.3415 275.693 26.3507ZM276.137 26.4634C276.253 26.5014 276.364 26.5532 276.467 26.6177C277.875 27.3971 279.176 28.3425 280.343 29.4321C280.652 29.7253 281.407 30.486 281.396 30.4922L280.817 30.5369C278.375 30.7144 275.253 31.2159 272.246 31.9149C272.041 31.9611 271.866 32.0013 271.853 32.0013C271.842 32.0013 272.065 31.7852 272.349 31.5198C274.116 29.8796 274.921 28.8442 275.869 26.9926C276.009 26.718 276.129 26.4788 276.134 26.4649H276.137V26.4634ZM263.228 27.7441C263.309 27.7595 264.062 28.099 264.631 28.3736C265.149 28.6251 265.936 29.031 265.976 29.0664C265.981 29.0711 265.705 29.2099 265.36 29.3766C264.337 29.8675 263.337 30.4014 262.363 30.9767C262.083 31.1418 261.852 31.276 261.844 31.276C261.82 31.276 261.828 31.256 261.984 30.9813C262.523 30.0094 262.92 28.9698 263.162 27.8922C263.185 27.7965 263.21 27.7379 263.228 27.7425V27.7441ZM262.469 27.8737C262.485 27.8891 262.291 28.5835 262.166 28.9538C261.829 29.9281 261.382 30.8636 260.833 31.7436L260.69 31.9704L260.366 31.6664C260.05 31.3558 259.686 31.0954 259.287 30.8949C259.188 30.8517 259.094 30.799 259.006 30.7375C259.006 30.6912 259.995 29.8225 260.758 29.1976C261.306 28.7501 262.457 27.8598 262.469 27.8737ZM267.079 29.7068L267.362 29.8842C268.011 30.2916 268.779 30.8394 269.365 31.31C269.693 31.5754 270.33 32.1278 270.461 32.2605L270.531 32.333L270.062 32.4595C267.663 33.0922 265.293 33.8253 262.959 34.6568C262.791 34.7192 262.621 34.7768 262.449 34.8296C262.415 34.8296 262.382 34.8589 262.98 34.3266C264.512 32.9641 265.864 31.4627 266.875 30.0031L267.079 29.7068ZM265.868 30C265.882 30.0139 265.082 31.0955 264.608 31.7065C264.04 32.4364 263.028 33.6585 262.332 34.4531C262.154 34.6626 261.97 34.8669 261.78 35.0657C261.764 35.0703 261.756 34.9885 261.754 34.8605C261.754 34.1815 261.576 33.4563 261.263 32.8422C261.13 32.583 261.108 32.5213 261.135 32.4966C261.244 32.4009 262.934 31.4689 263.999 30.9181C264.731 30.5385 265.855 29.9861 265.868 30ZM258.541 31.7359C259.005 31.9507 259.44 32.2191 259.837 32.5351C259.85 32.5429 259.699 32.6632 259.502 32.8005C258.952 33.1848 258.114 33.7942 257.63 34.1677C257.119 34.5611 257.102 34.5735 257.159 34.4871C257.542 33.9208 257.734 33.6014 257.935 33.1909C258.115 32.8268 258.292 32.3947 258.42 32.0182C258.446 31.9188 258.488 31.8236 258.543 31.7359H258.541ZM260.493 33.2172C260.521 33.2125 260.557 33.2604 260.715 33.4872C261.046 33.9655 261.299 34.6012 261.365 35.1197L261.378 35.2323L260.584 35.5286C259.366 35.9814 258.16 36.465 256.968 36.979C256.72 37.0901 256.284 37.2907 255.999 37.4296C255.713 37.5685 255.48 37.6765 255.48 37.6703C255.48 37.6641 255.659 37.533 255.879 37.3802C257.614 36.1612 259.111 34.8281 260.24 33.4934C260.359 33.3514 260.47 33.228 260.484 33.2187C260.487 33.2171 260.49 33.216 260.493 33.2156V33.2172ZM259.593 33.4332C259.617 33.4548 258.953 34.18 258.506 34.6213C257.427 35.6938 256.218 36.6372 254.905 37.4311C254.733 37.5376 254.577 37.6317 254.554 37.6441C254.518 37.6657 254.567 37.6101 255.17 36.9744C255.55 36.5748 255.841 36.243 256.173 35.8279C256.326 35.6138 256.522 35.4322 256.751 35.2941C257.608 34.6954 259.571 33.41 259.593 33.4316V33.4332ZM261.188 15.7487C261.06 15.7332 258.999 16.4507 257.676 16.9692C255.884 17.6743 254.49 18.3486 253.632 18.9319C253.313 19.1479 252.91 19.5383 252.853 19.688C252.83 19.7488 252.819 19.8131 252.819 19.8778L253.598 20.5876L255.447 21.1585L259.85 21.9207L264.883 22.757L264.934 22.3404L264.889 22.3327L264.227 22.2309L264.091 22.0025C263.407 20.8358 262.78 19.6387 262.212 18.415C261.881 17.6796 261.599 16.9245 261.367 16.1545C261.258 15.7795 261.247 15.7564 261.188 15.7487ZM261.09 16.0357H261.098C261.103 16.0403 261.126 16.1977 261.149 16.3828C261.248 17.1667 261.43 17.9259 261.714 18.7437C261.928 19.3609 261.932 19.3254 261.676 19.2559C261.086 19.097 258.433 18.6572 256.514 18.3996C256.324 18.3761 256.134 18.3488 255.945 18.3178C255.921 18.2946 257.328 17.5818 257.952 17.2994C258.752 16.9414 260.932 16.065 261.09 16.0357ZM255.501 18.5477L255.726 18.6218C256.958 19.026 260.045 19.5969 261.751 19.7327C261.943 19.7482 262.106 19.7651 262.11 19.7698C262.115 19.7744 261.951 19.8593 261.746 19.958C260.924 20.3561 260.018 20.8422 259.391 21.2217C259.207 21.3328 259.039 21.4223 259.015 21.4208C258.925 21.4085 258.834 21.3946 258.744 21.3791L258.514 21.3436L257.932 20.7959C256.909 19.8392 256.111 19.0985 255.801 18.8208L255.501 18.5477ZM255.273 18.7236L256.088 19.708C256.538 20.2481 256.988 20.7866 257.087 20.9023C257.188 21.0181 257.265 21.1153 257.26 21.1184C257.237 21.1353 256.079 20.9178 255.464 20.7804C255.032 20.6916 254.604 20.5824 254.182 20.4533L253.863 20.3546L253.865 20.279C253.87 19.9009 254.363 19.3423 255.199 18.773L255.273 18.7236ZM262.219 20.0645C262.243 20.066 262.27 20.1139 262.342 20.2666C262.54 20.6863 263.156 21.822 263.304 22.0411C263.352 22.1136 263.432 22.1182 262.613 21.9902C260.65 21.6846 260.013 21.5813 260.013 21.5689C260.053 21.5354 260.098 21.5073 260.146 21.4856C260.772 21.1459 261.363 20.7496 261.912 20.3021L262.192 20.0753C262.201 20.0676 262.211 20.0629 262.219 20.0645ZM269.097 33.0382L261.422 35.4576L254.751 38.306L252.883 38.7844C251.894 39.6888 250.867 40.5546 249.806 41.3797C249.255 41.8206 248.745 42.3086 248.285 42.8379C247.755 43.4767 247.34 44.1556 247.161 44.6787C246.842 45.6199 246.997 46.5735 247.616 47.453C248.406 48.5764 249.978 49.7182 251.806 50.4959C252.74 50.8909 254.312 51.4032 255.493 51.6902C257.461 52.1716 261.261 52.6931 263.355 52.7703C263.78 52.7857 264.345 52.7857 264.372 52.7672C264.417 52.7379 264.744 52.1423 265.122 51.3939C266.409 48.8541 267.339 46.4717 267.84 44.438C268.144 43.2051 268.38 41.5633 268.533 39.6161C268.58 38.622 268.589 37.6265 268.559 36.6319C268.519 35.7493 268.421 34.8701 268.267 33.9995C268.246 33.924 268.24 33.8457 268.247 33.768C268.27 33.7526 268.342 33.7294 269.285 33.464L269.097 33.0382ZM267.341 34.0334C267.413 34.0334 267.596 35.7523 267.646 36.8417C267.655 37.0747 267.654 37.2228 267.639 37.2228C267.595 37.2228 266.658 36.6905 265.992 36.2878C265.364 35.9053 264.746 35.5081 264.137 35.0966C264.082 35.0533 264.088 35.0518 264.562 34.8944C265.368 34.6259 267.282 34.0334 267.342 34.0334H267.341ZM263.433 35.2725C263.481 35.2725 263.617 35.345 263.936 35.5379C265.133 36.2631 266.755 37.1349 267.448 37.4281C267.665 37.5206 267.689 37.4836 267.192 37.8092C266.136 38.5035 264.821 39.1856 263.207 39.8799C263.033 39.957 262.856 40.03 262.679 40.099C262.69 39.9941 262.713 39.8907 262.747 39.7904C263.138 38.394 263.358 36.9821 263.365 35.8495C263.368 35.291 263.368 35.2879 263.424 35.274H263.433V35.2725ZM262.629 35.5703C262.663 35.6042 262.639 36.8571 262.597 37.1997C262.476 38.1641 262.252 39.1139 261.93 40.0342C261.908 40.0604 261.114 39.3121 260.851 39.0158C260.434 38.5586 260.075 38.0546 259.783 37.5145C259.652 37.2645 259.442 36.7676 259.461 36.7538C259.55 36.692 262.607 35.5502 262.629 35.5703ZM258.838 37.0145C258.845 37.0145 258.851 37.0161 258.854 37.0207C258.89 37.0856 258.92 37.1532 258.944 37.2228C259.19 37.8153 259.513 38.3753 259.904 38.8893C260.377 39.4943 260.922 40.0433 261.528 40.5249C261.564 40.5557 261.576 40.5496 260.631 40.8952C259.421 41.3362 258.2 41.7478 256.969 42.1296C256.447 42.2932 256.005 42.4305 255.988 42.4382C255.935 42.4552 255.951 42.4243 256.104 42.1944C256.786 41.1668 257.817 39.1547 258.395 37.732C258.494 37.4851 258.589 37.2383 258.607 37.1827C258.631 37.1025 258.656 37.0747 258.735 37.0408C258.767 37.0245 258.802 37.0155 258.838 37.0145ZM257.676 37.4774C257.692 37.4913 257.399 38.0916 257.108 38.6362C256.492 39.7876 255.825 40.9125 255.108 42.0077L254.818 42.4521C254.789 42.4938 254.776 42.4799 254.687 42.3071C254.478 41.8954 254.328 41.4584 254.24 41.0079C254.158 40.4528 254.169 39.8885 254.272 39.3368C254.347 38.9865 254.344 38.9942 254.514 38.9109C255.252 38.5452 257.652 37.4574 257.676 37.4774ZM267.681 37.8709V38.1085C267.664 39.6551 267.528 41.1983 267.274 42.7252C266.221 42.4316 265.205 42.0269 264.244 41.5186C263.679 41.2192 262.864 40.7363 262.888 40.7131C262.892 40.707 263.133 40.5851 263.421 40.44C264.56 39.8691 265.647 39.2519 266.594 38.6409C266.948 38.4125 267.48 38.0406 267.598 37.9403L267.681 37.8709ZM253.297 39.5266C253.321 39.5266 253.314 39.5698 253.277 39.775C253.246 39.9745 253.224 40.1753 253.212 40.3768C253.164 41.1976 253.303 41.8025 253.723 42.6296C253.841 42.861 253.933 43.0524 253.929 43.0554C253.886 43.0909 250.05 44.1757 248.843 44.4951L248.149 44.6802C248.106 44.6926 248.103 44.6833 248.117 44.5877C248.25 43.7652 248.899 42.6867 249.806 41.7794C250.409 41.1776 250.891 40.8196 251.713 40.3675C252.236 40.0778 252.764 39.7975 253.297 39.5266ZM262.345 41.0927C262.348 41.0896 262.49 41.1622 262.659 41.2578C263.9 41.9506 265.628 42.6003 267.101 42.9258L267.235 42.9567L267.052 43.0539C266.283 43.4674 263.746 44.4874 261.156 45.4255C260.882 45.5242 260.61 45.624 260.337 45.7249C260.296 45.7445 260.252 45.7585 260.206 45.7665C260.206 45.7603 260.313 45.5628 260.444 45.3252C261.172 44.0106 261.896 42.4135 262.27 41.3057C262.307 41.193 262.34 41.0973 262.345 41.0927ZM261.422 41.3859C261.395 41.4748 261.361 41.5619 261.322 41.6467C260.733 42.991 260.061 44.2998 259.309 45.5659C259.181 45.7922 259.047 46.015 258.907 46.2341C258.899 46.2341 258.725 46.1322 258.517 46.0103C257.288 45.282 256.2 44.3871 255.485 43.5153L255.383 43.3918L255.913 43.2514C257.65 42.8022 259.351 42.2334 261.004 41.5495C261.231 41.4569 261.419 41.3813 261.422 41.3859ZM267.152 43.3193C267.154 43.3193 267.156 43.3208 267.156 43.3239C267.156 43.4474 266.864 44.6015 266.619 45.4379C266.415 46.1368 266.243 46.6846 265.925 47.6552C265.844 47.917 265.755 48.1764 265.657 48.4329C264.019 48.1621 262.414 47.7272 260.869 47.1352C260.522 47.0041 260.182 46.8584 259.849 46.6985C259.839 46.6877 260.189 46.5288 260.624 46.3436C263.266 45.2311 266.002 43.9627 266.937 43.418C267.002 43.3733 267.075 43.3399 267.152 43.3193ZM253.925 43.756C253.94 43.7699 253.201 44.7913 252.17 46.1878L251.233 47.4577C251.078 47.6721 250.842 48.0101 250.708 48.2107L250.463 48.5748L250.205 48.3634C249.818 48.035 249.457 47.6792 249.124 47.2987C248.626 46.6985 248.29 46.0674 248.155 45.4872C248.095 45.2188 248.092 45.083 248.151 45.066C249.178 44.8264 250.207 44.5923 251.238 44.3639L253.313 43.8933C253.646 43.8161 253.922 43.7544 253.925 43.756ZM254.668 44.0306L254.854 44.2328C255.634 45.0888 256.554 45.8154 257.577 46.3837C257.689 46.4373 257.793 46.5036 257.889 46.5812C255.592 47.3863 253.288 48.1733 250.977 48.942C250.938 48.9192 250.899 48.8945 250.862 48.868L250.756 48.7939L250.923 48.5594C251.466 47.7987 252.149 46.9624 253.645 45.2234L254.668 44.0306ZM259.296 47.2293C259.301 47.2247 259.56 47.3126 259.874 47.4268C260.629 47.6999 261.221 47.8774 262.024 48.0718C263.009 48.311 264.434 48.5501 265.277 48.618C265.405 48.6273 265.472 48.6427 265.453 48.655C265.413 48.6797 264.559 48.9544 263.931 49.1457C261.472 49.869 259.005 50.5701 256.532 51.2489C256.476 51.2597 256.281 51.2103 256.281 51.1871C256.281 51.1733 256.42 51.0035 256.589 50.8076C257.433 49.8306 258.22 48.8085 258.945 47.7462C259.062 47.5735 259.179 47.4012 259.296 47.2293ZM258.272 47.2571C258.28 47.2648 257.868 47.9021 257.145 49.0038C256.838 49.4682 256.492 49.999 256.374 50.1796C256.254 50.3616 256.08 50.6394 255.988 50.7968L255.817 51.0822L255.731 51.0606C255.523 51.0066 254.056 50.5051 253.67 50.357C253.209 50.1808 252.758 49.9804 252.32 49.7568C251.858 49.5161 251.274 49.1581 251.319 49.1442L253.083 48.6782C255.624 48.0085 257.03 47.6243 257.951 47.345C258.125 47.2941 258.268 47.254 258.27 47.2571H258.272ZM265.491 48.8942H265.5C265.524 48.9529 264.583 51.4711 264.24 52.2703C264.161 52.4493 264.134 52.4941 264.093 52.491C263.329 52.3977 262.566 52.2948 261.805 52.1824C260.359 51.9694 257.938 51.5606 257.327 51.4263L257.185 51.3954L258.051 51.2072C259.909 50.8029 260.802 50.5854 261.707 50.3169C262.873 49.9698 264.013 49.545 265.119 49.0454C265.24 48.9885 265.364 48.938 265.491 48.8942Z" fill="white"/>
<ellipse cx="164" cy="35.2651" rx="35" ry="34.1094" fill="#0082CB"/>
<path d="M164.5 17.7229C154.851 17.7229 147 25.3486 147 34.7776C147 44.1809 154.824 51.8323 164.5 51.8323C174.148 51.8323 182 44.2066 182 34.7776C182 25.3486 174.148 17.7229 164.5 17.7229ZM176.316 37.766C176.316 38.7965 175.708 39.6983 174.518 39.9043C172.456 40.265 168.121 40.4711 164.5 40.4711C160.878 40.4711 156.542 40.265 154.481 39.9043C153.291 39.6983 152.683 38.7965 152.683 37.766V31.1194C152.683 30.0889 153.503 29.1357 154.481 28.981C155.089 28.878 156.516 28.775 157.627 28.775C158.049 28.775 158.393 29.0841 158.393 29.5737V34.2367L164.526 34.1078L170.659 34.2367V29.5737C170.659 29.0841 171.003 28.775 171.426 28.775C172.536 28.775 173.963 28.878 174.571 28.981C175.576 29.1356 176.369 30.0889 176.369 31.1194C176.316 33.3092 176.316 35.5505 176.316 37.766Z" fill="white"/>
<defs>
<linearGradient id="paint0_linear" x1="362.85" y1="44.3302" x2="366.956" y2="46.2133" gradientUnits="userSpaceOnUse">
<stop/>
<stop offset="1" stop-opacity="0"/>
</linearGradient>
<clipPath id="clip0">
<rect width="28.6" height="26.8978" fill="white" transform="translate(250 327.609)"/>
</clipPath>
</defs>
</svg>
