<?xml version="1.0" encoding="UTF-8"?><svg id="a" xmlns="http://www.w3.org/2000/svg" viewBox="0 0 910.08 470.56"><defs><style>.b{fill:#0082cb;opacity:.5;}.c{fill:none;stroke:#30b2ff;stroke-dasharray:0 0 0 3.24;stroke-linecap:round;stroke-miterlimit:10;stroke-width:2.16px;}</style></defs><g><path class="c" d="M362.96,1.13c.79-.08-.83-.06,0,0"/><path class="c" d="M553.33,76.81c.11,.15-.09-.13,0,0"/><path class="c" d="M196.6,27.89c-1.66,.19-3.26,.28-4.87,0"/><path class="c" d="M363.69,54.66c0-.17-.02-.15-.08,0"/><line class="c" x1="370.17" y1="1.13" x2="370.17" y2="1.13"/><line class="c" x1="216.29" y1="1.13" x2="258.06" y2="1.13"/><line class="c" x1="349.57" y1="1.13" x2="362.96" y2="1.13"/><line class="c" x1="343.52" y1="1.13" x2="308.73" y2="1.13"/><line class="c" x1="279.3" y1="7.82" x2="285.14" y2="7.82"/><line class="c" x1="289.73" y1="7.82" x2="296.97" y2="7.82"/><line class="c" x1="221.53" y1="7.82" x2="225.25" y2="7.82"/><line class="c" x1="253.21" y1="7.82" x2="227.88" y2="7.82"/><line class="c" x1="341.47" y1="7.82" x2="299.68" y2="7.82"/><line class="c" x1="368" y1="7.82" x2="361.85" y2="7.82"/><line class="c" x1="392.56" y1="7.82" x2="382.53" y2="7.82"/><line class="c" x1="354.76" y1="7.82" x2="357.16" y2="7.82"/><line class="c" x1="191.52" y1="7.82" x2="204.41" y2="7.82"/><line class="c" x1="189.33" y1="14.51" x2="195.84" y2="14.51"/><line class="c" x1="571.82" y1="14.51" x2="564.85" y2="14.51"/><line class="c" x1="556.24" y1="14.51" x2="540.54" y2="14.51"/><line class="c" x1="674.57" y1="14.51" x2="660.9" y2="14.51"/><line class="c" x1="583.96" y1="14.51" x2="577.42" y2="14.51"/><line class="c" x1="377.84" y1="14.51" x2="255.22" y2="14.51"/><line class="c" x1="227.42" y1="14.51" x2="243.18" y2="14.51"/><line class="c" x1="205.41" y1="14.51" x2="211.93" y2="14.51"/><line class="c" x1="691.05" y1="21.2" x2="685.62" y2="21.2"/><line class="c" x1="664.08" y1="21.2" x2="676.29" y2="21.2"/><line class="c" x1="191.17" y1="21.2" x2="206" y2="21.2"/><line class="c" x1="378.44" y1="21.2" x2="255.14" y2="21.2"/><line class="c" x1="242.9" y1="21.2" x2="237.25" y2="21.2"/><line class="c" x1="227.32" y1="21.2" x2="215.78" y2="21.2"/><line class="c" x1="458.85" y1="21.2" x2="452.4" y2="21.2"/><line class="c" x1="157.76" y1="21.2" x2="166.42" y2="21.2"/><line class="c" x1="493.51" y1="21.2" x2="476.05" y2="21.2"/><line class="c" x1="470.33" y1="27.89" x2="467.62" y2="27.89"/><line class="c" x1="476.19" y1="27.89" x2="489.98" y2="27.89"/><line class="c" x1="172.64" y1="27.89" x2="156.95" y2="27.89"/><line class="c" x1="202.91" y1="27.89" x2="210.93" y2="27.89"/><line class="c" x1="146.87" y1="27.89" x2="137.33" y2="27.89"/><line class="c" x1="249.93" y1="27.89" x2="370.93" y2="27.89"/><line class="c" x1="232.66" y1="27.89" x2="215.47" y2="27.89"/><line class="c" x1="196.6" y1="27.89" x2="191.72" y2="27.89"/><line class="c" x1="681.14" y1="27.89" x2="692.95" y2="27.89"/><line class="c" x1="177.56" y1="27.89" x2="180.99" y2="27.89"/><line class="c" x1="168.45" y1="34.59" x2="165.78" y2="34.59"/><line class="c" x1="470.33" y1="34.59" x2="461.34" y2="34.59"/><line class="c" x1="175.89" y1="34.59" x2="171.21" y2="34.59"/><line class="c" x1="693.76" y1="34.59" x2="684.03" y2="34.59"/><line class="c" x1="145.55" y1="34.59" x2="140.21" y2="34.59"/><line class="c" x1="114.37" y1="34.59" x2="127.33" y2="34.59"/><line class="c" x1="197.94" y1="34.59" x2="224.14" y2="34.59"/><line class="c" x1="487.78" y1="34.59" x2="478.71" y2="34.59"/><line class="c" x1="248.81" y1="34.59" x2="374.17" y2="34.59"/><line class="c" x1="699.43" y1="41.28" x2="662.47" y2="41.28"/><line class="c" x1="175.05" y1="41.28" x2="168.16" y2="41.28"/><line class="c" x1="139.56" y1="41.28" x2="128.16" y2="41.28"/><line class="c" x1="582.99" y1="41.28" x2="598.35" y2="41.28"/><line class="c" x1="376.18" y1="41.28" x2="379" y2="41.28"/><line class="c" x1="153.48" y1="41.28" x2="145.23" y2="41.28"/><line class="c" x1="269.18" y1="41.28" x2="372.42" y2="41.28"/><line class="c" x1="187.1" y1="41.28" x2="221.83" y2="41.28"/><line class="c" x1="113.12" y1="41.28" x2="124.25" y2="41.28"/><line class="c" x1="159.5" y1="41.28" x2="163.54" y2="41.28"/><line class="c" x1="277.08" y1="47.97" x2="375.78" y2="47.97"/><line class="c" x1="574.38" y1="47.97" x2="589.61" y2="47.97"/><line class="c" x1="180.3" y1="47.97" x2="187.78" y2="47.97"/><line class="c" x1="698.52" y1="47.97" x2="646.91" y2="47.97"/><line class="c" x1="153.59" y1="47.97" x2="134.94" y2="47.97"/><line class="c" x1="809.56" y1="47.97" x2="800.83" y2="47.97"/><line class="c" x1="222.36" y1="47.97" x2="192.04" y2="47.97"/><line class="c" x1="776.3" y1="47.97" x2="788.34" y2="47.97"/><line class="c" x1="16.51" y1="54.66" x2="76.16" y2="54.66"/><line class="c" x1="280.06" y1="54.66" x2="363.61" y2="54.66"/><line class="c" x1="782.7" y1="54.66" x2="792.13" y2="54.66"/><line class="c" x1="566.63" y1="54.66" x2="582.42" y2="54.66"/><line class="c" x1="373.95" y1="54.66" x2="368" y2="54.66"/><line class="c" x1="184.7" y1="54.66" x2="195.14" y2="54.66"/><line class="c" x1="204.94" y1="54.66" x2="210.15" y2="54.66"/><line class="c" x1="696.51" y1="54.66" x2="632.16" y2="54.66"/><line class="c" x1="131.22" y1="54.66" x2="105.31" y2="54.66"/><line class="c" x1="227.07" y1="54.66" x2="220" y2="54.66"/><line class="c" x1="159.03" y1="54.66" x2="153.71" y2="54.66"/><line class="c" x1="705.5" y1="54.66" x2="710.29" y2="54.66"/><line class="c" x1="174.23" y1="54.66" x2="165.82" y2="54.66"/><line class="c" x1="7.42" y1="61.35" x2="86.92" y2="61.35"/><line class="c" x1="712.06" y1="61.35" x2="633.38" y2="61.35"/><line class="c" x1="619.68" y1="61.35" x2="614.16" y2="61.35"/><line class="c" x1="576.91" y1="61.35" x2="557.32" y2="61.35"/><line class="c" x1="621.54" y1="61.35" x2="626.61" y2="61.35"/><line class="c" x1="281.75" y1="61.35" x2="364.15" y2="61.35"/><line class="c" x1="140.4" y1="61.35" x2="104.03" y2="61.35"/><line class="c" x1="184.9" y1="61.35" x2="191.28" y2="61.35"/><line class="c" x1="210.6" y1="61.35" x2="205.28" y2="61.35"/><line class="c" x1="612.27" y1="61.35" x2="601.73" y2="61.35"/><line class="c" x1="178.16" y1="61.35" x2="165.6" y2="61.35"/><line class="c" x1="163.05" y1="61.35" x2="150.87" y2="61.35"/><line class="c" x1="368.66" y1="61.35" x2="368.66" y2="61.35"/><line class="c" x1="790.89" y1="61.35" x2="779.62" y2="61.35"/><line class="c" x1="145.79" y1="61.35" x2="148.02" y2="61.35"/><line class="c" x1="777.52" y1="68.04" x2="811.52" y2="68.04"/><line class="c" x1="357.99" y1="68.04" x2="292.47" y2="68.04"/><line class="c" x1="2.9" y1="68.04" x2="93.16" y2="68.04"/><line class="c" x1="624.42" y1="68.04" x2="602.24" y2="68.04"/><line class="c" x1="716.31" y1="68.04" x2="625.79" y2="68.04"/><line class="c" x1="369.97" y1="68.04" x2="360.56" y2="68.04"/><line class="c" x1="202.99" y1="68.04" x2="243.32" y2="68.04"/><line class="c" x1="572.53" y1="68.04" x2="558.01" y2="68.04"/><line class="c" x1="183.42" y1="68.04" x2="186.46" y2="68.04"/><line class="c" x1="883.66" y1="68.04" x2="890.89" y2="68.04"/><line class="c" x1="167.46" y1="68.04" x2="125.69" y2="68.04"/><line class="c" x1="173.78" y1="74.73" x2="178.01" y2="74.73"/><line class="c" x1="602.58" y1="74.73" x2="608.49" y2="74.73"/><line class="c" x1="1.08" y1="74.73" x2="92.36" y2="74.73"/><line class="c" x1="211.48" y1="74.73" x2="210.53" y2="74.73"/><line class="c" x1="184.6" y1="74.73" x2="192.05" y2="74.73"/><line class="c" x1="361.13" y1="74.73" x2="288.6" y2="74.73"/><line class="c" x1="857.03" y1="74.73" x2="847.55" y2="74.73"/><line class="c" x1="222.87" y1="74.73" x2="255.39" y2="74.73"/><line class="c" x1="829.05" y1="74.73" x2="614.77" y2="74.73"/><line class="c" x1="577.74" y1="74.73" x2="585.06" y2="74.73"/><line class="c" x1="167.23" y1="74.73" x2="124.74" y2="74.73"/><line class="c" x1="470.55" y1="74.73" x2="476.63" y2="74.73"/><line class="c" x1="511.98" y1="74.73" x2="516.12" y2="74.73"/><line class="c" x1="481.36" y1="74.73" x2="504.66" y2="74.73"/><line class="c" x1="286.11" y1="81.42" x2="342.12" y2="81.42"/><line class="c" x1="104.84" y1="81.42" x2="135" y2="81.42"/><line class="c" x1="254.28" y1="81.42" x2="222.28" y2="81.42"/><line class="c" x1="209.2" y1="81.42" x2="210.25" y2="81.42"/><line class="c" x1="553.97" y1="81.42" x2="601.4" y2="81.42"/><line class="c" x1="457.98" y1="81.42" x2="464.37" y2="81.42"/><line class="c" x1="511.22" y1="81.42" x2="467.78" y2="81.42"/><line class="c" x1="544.11" y1="81.42" x2="536.35" y2="81.42"/><line class="c" x1="179.31" y1="81.42" x2="169.45" y2="81.42"/><line class="c" x1="865.33" y1="81.42" x2="617.26" y2="81.42"/><line class="c" x1="1.2" y1="81.42" x2="90.62" y2="81.42"/><line class="c" x1="197.57" y1="81.42" x2="187.2" y2="81.42"/><line class="c" x1="208.99" y1="88.11" x2="153.48" y2="88.11"/><line class="c" x1="465.83" y1="88.11" x2="508.43" y2="88.11"/><line class="c" x1="600.97" y1="88.11" x2="539.3" y2="88.11"/><line class="c" x1="616.76" y1="88.11" x2="886.36" y2="88.11"/><line class="c" x1="139.06" y1="88.11" x2="11.9" y2="88.11"/><line class="c" x1="223.24" y1="88.11" x2="270.22" y2="88.11"/><line class="c" x1="906.32" y1="88.11" x2="898.9" y2="88.11"/><line class="c" x1="290.9" y1="88.11" x2="333.58" y2="88.11"/><line class="c" x1="364.16" y1="94.8" x2="390.93" y2="94.8"/><line class="c" x1="225.31" y1="94.8" x2="252.19" y2="94.8"/><line class="c" x1="489.75" y1="94.8" x2="514.03" y2="94.8"/><line class="c" x1="909" y1="94.8" x2="889.26" y2="94.8"/><line class="c" x1="460.54" y1="94.8" x2="481.49" y2="94.8"/><line class="c" x1="209.11" y1="94.8" x2="14.27" y2="94.8"/><line class="c" x1="328.62" y1="94.8" x2="292.88" y2="94.8"/><line class="c" x1="877.14" y1="94.8" x2="527.14" y2="94.8"/><line class="c" x1="521.89" y1="101.49" x2="493.83" y2="101.49"/><line class="c" x1="446.59" y1="101.49" x2="475.45" y2="101.49"/><line class="c" x1="298.86" y1="101.49" x2="323.42" y2="101.49"/><line class="c" x1="363.27" y1="101.49" x2="387.15" y2="101.49"/><line class="c" x1="878.2" y1="101.49" x2="523.02" y2="101.49"/><line class="c" x1="16.79" y1="101.49" x2="186.29" y2="101.49"/><line class="c" x1="204.29" y1="101.49" x2="219.34" y2="101.49"/><line class="c" x1="249.75" y1="101.49" x2="227.27" y2="101.49"/><line class="c" x1="255.34" y1="101.49" x2="258.11" y2="101.49"/><line class="c" x1="230.44" y1="108.18" x2="256.32" y2="108.18"/><line class="c" x1="882.59" y1="108.18" x2="847.86" y2="108.18"/><line class="c" x1="13.05" y1="108.18" x2="194.63" y2="108.18"/><line class="c" x1="316.05" y1="108.18" x2="300.4" y2="108.18"/><line class="c" x1="841.78" y1="108.18" x2="497.5" y2="108.18"/><line class="c" x1="472.45" y1="108.18" x2="440.27" y2="108.18"/><line class="c" x1="824.84" y1="114.87" x2="501.12" y2="114.87"/><line class="c" x1="255.52" y1="114.87" x2="225.15" y2="114.87"/><line class="c" x1="438.27" y1="114.87" x2="470.85" y2="114.87"/><line class="c" x1="865.86" y1="114.87" x2="847.09" y2="114.87"/><line class="c" x1="195.27" y1="114.87" x2="47.83" y2="114.87"/><line class="c" x1="16.73" y1="114.87" x2="35.71" y2="114.87"/><line class="c" x1="854.09" y1="121.56" x2="840.21" y2="121.56"/><line class="c" x1="470.12" y1="121.56" x2="454.15" y2="121.56"/><line class="c" x1="792.9" y1="121.56" x2="493.98" y2="121.56"/><line class="c" x1="15.36" y1="121.56" x2="29.48" y2="121.56"/><line class="c" x1="50.51" y1="121.56" x2="195.88" y2="121.56"/><line class="c" x1="820.32" y1="121.56" x2="804.07" y2="121.56"/><line class="c" x1="272.83" y1="121.56" x2="224.63" y2="121.56"/><line class="c" x1="843.62" y1="128.26" x2="831.3" y2="128.26"/><line class="c" x1="448.45" y1="128.26" x2="452.56" y2="128.26"/><line class="c" x1="411.1" y1="128.26" x2="420.93" y2="128.26"/><line class="c" x1="455.89" y1="128.26" x2="469.92" y2="128.26"/><line class="c" x1="224.43" y1="128.26" x2="277.61" y2="128.26"/><line class="c" x1="484.57" y1="128.26" x2="479.26" y2="128.26"/><line class="c" x1="777.29" y1="128.26" x2="488.5" y2="128.26"/><line class="c" x1="8.65" y1="128.26" x2="23.98" y2="128.26"/><line class="c" x1="197.59" y1="128.26" x2="57.53" y2="128.26"/><line class="c" x1="770.15" y1="134.95" x2="476.77" y2="134.95"/><line class="c" x1="69.45" y1="134.95" x2="204.8" y2="134.95"/><line class="c" x1="457.89" y1="134.95" x2="448.41" y2="134.95"/><line class="c" x1="840.92" y1="134.95" x2="823.42" y2="134.95"/><line class="c" x1="466.7" y1="134.95" x2="463.08" y2="134.95"/><line class="c" x1="223.5" y1="134.95" x2="279.38" y2="134.95"/><line class="c" x1="417.42" y1="134.95" x2="409.06" y2="134.95"/><line class="c" x1="4.26" y1="134.95" x2="18.32" y2="134.95"/><line class="c" x1="412.69" y1="141.64" x2="419.6" y2="141.64"/><line class="c" x1="272.25" y1="141.64" x2="221.14" y2="141.64"/><line class="c" x1="402.36" y1="141.64" x2="407.54" y2="141.64"/><line class="c" x1="772.46" y1="141.64" x2="470.98" y2="141.64"/><line class="c" x1="788.3" y1="141.64" x2="794.77" y2="141.64"/><line class="c" x1="448.55" y1="141.64" x2="454.52" y2="141.64"/><line class="c" x1="85.84" y1="141.64" x2="210.2" y2="141.64"/><line class="c" x1="836.66" y1="141.64" x2="819.12" y2="141.64"/><line class="c" x1="784.88" y1="148.33" x2="798.6" y2="148.33"/><line class="c" x1="399.19" y1="148.33" x2="405.1" y2="148.33"/><line class="c" x1="272.62" y1="148.33" x2="103.42" y2="148.33"/><line class="c" x1="423.03" y1="148.33" x2="410.72" y2="148.33"/><line class="c" x1="779.79" y1="148.33" x2="442.23" y2="148.33"/><line class="c" x1="831.03" y1="148.33" x2="820.69" y2="148.33"/><line class="c" x1="97.22" y1="155.02" x2="103.38" y2="155.02"/><line class="c" x1="779.9" y1="155.02" x2="425.14" y2="155.02"/><line class="c" x1="273.1" y1="155.02" x2="115.28" y2="155.02"/><line class="c" x1="411.92" y1="155.02" x2="419.75" y2="155.02"/><line class="c" x1="798.43" y1="155.02" x2="786.95" y2="155.02"/><line class="c" x1="279.56" y1="155.02" x2="285.68" y2="155.02"/><line class="c" x1="796.4" y1="161.71" x2="785.67" y2="161.71"/><line class="c" x1="777.48" y1="161.71" x2="413.35" y2="161.71"/><line class="c" x1="96.02" y1="161.71" x2="107.23" y2="161.71"/><line class="c" x1="243.06" y1="161.71" x2="115.96" y2="161.71"/><line class="c" x1="270.96" y1="161.71" x2="245.59" y2="161.71"/><line class="c" x1="278.29" y1="161.71" x2="290.08" y2="161.71"/><line class="c" x1="97.23" y1="168.4" x2="272.84" y2="168.4"/><line class="c" x1="792.43" y1="168.4" x2="785.57" y2="168.4"/><line class="c" x1="775.23" y1="168.4" x2="419.15" y2="168.4"/><line class="c" x1="465.5" y1="175.09" x2="772.05" y2="175.09"/><line class="c" x1="458.12" y1="175.09" x2="422.62" y2="175.09"/><line class="c" x1="99.98" y1="175.09" x2="268.05" y2="175.09"/><line class="c" x1="801.87" y1="175.09" x2="783.87" y2="175.09"/><line class="c" x1="471.18" y1="181.78" x2="758.96" y2="181.78"/><line class="c" x1="103.69" y1="181.78" x2="253.96" y2="181.78"/><line class="c" x1="466.3" y1="181.78" x2="454.66" y2="181.78"/><line class="c" x1="432.42" y1="181.78" x2="401.77" y2="181.78"/><line class="c" x1="476.09" y1="188.47" x2="482.32" y2="188.47"/><line class="c" x1="426.76" y1="188.47" x2="401.56" y2="188.47"/><line class="c" x1="107.89" y1="188.47" x2="237.59" y2="188.47"/><line class="c" x1="782.94" y1="188.47" x2="779.11" y2="188.47"/><line class="c" x1="490.57" y1="188.47" x2="732.36" y2="188.47"/><line class="c" x1="755.13" y1="188.47" x2="736.33" y2="188.47"/><line class="c" x1="481.36" y1="195.16" x2="469.92" y2="195.16"/><line class="c" x1="421.18" y1="195.16" x2="404.74" y2="195.16"/><line class="c" x1="754" y1="195.16" x2="738.94" y2="195.16"/><line class="c" x1="492.8" y1="195.16" x2="725.75" y2="195.16"/><line class="c" x1="457" y1="195.16" x2="463.51" y2="195.16"/><line class="c" x1="112.16" y1="195.16" x2="229.23" y2="195.16"/><line class="c" x1="782.43" y1="195.16" x2="776.14" y2="195.16"/><line class="c" x1="773.63" y1="201.85" x2="765.7" y2="201.85"/><line class="c" x1="737.38" y1="201.85" x2="504.27" y2="201.85"/><line class="c" x1="116.02" y1="201.85" x2="227.99" y2="201.85"/><line class="c" x1="753.31" y1="201.85" x2="742.34" y2="201.85"/><line class="c" x1="456.86" y1="201.85" x2="426.38" y2="201.85"/><line class="c" x1="459.24" y1="208.54" x2="395.95" y2="208.54"/><line class="c" x1="119.08" y1="208.54" x2="228.61" y2="208.54"/><line class="c" x1="504.37" y1="208.54" x2="736.44" y2="208.54"/><line class="c" x1="145.43" y1="215.23" x2="229.81" y2="215.23"/><line class="c" x1="122" y1="215.23" x2="132.06" y2="215.23"/><line class="c" x1="470.15" y1="215.23" x2="500.92" y2="215.23"/><line class="c" x1="504.61" y1="215.23" x2="735.31" y2="215.23"/><line class="c" x1="463.57" y1="215.23" x2="387.83" y2="215.23"/><line class="c" x1="125.1" y1="221.92" x2="132.9" y2="221.92"/><line class="c" x1="733.96" y1="221.92" x2="564.65" y2="221.92"/><line class="c" x1="197.55" y1="221.92" x2="230.41" y2="221.92"/><line class="c" x1="186.12" y1="221.92" x2="150.31" y2="221.92"/><line class="c" x1="547.43" y1="221.92" x2="383.9" y2="221.92"/><line class="c" x1="128.59" y1="228.61" x2="138.21" y2="228.61"/><line class="c" x1="177.92" y1="228.61" x2="153.92" y2="228.61"/><line class="c" x1="732.02" y1="228.61" x2="583.81" y2="228.61"/><line class="c" x1="553.18" y1="228.61" x2="381.73" y2="228.61"/><line class="c" x1="204.6" y1="228.61" x2="228.51" y2="228.61"/><line class="c" x1="726.62" y1="235.3" x2="598.06" y2="235.3"/><line class="c" x1="132.87" y1="235.3" x2="143.98" y2="235.3"/><line class="c" x1="556.89" y1="235.3" x2="380.55" y2="235.3"/><line class="c" x1="189.36" y1="235.3" x2="157.27" y2="235.3"/><line class="c" x1="380" y1="242" x2="578.8" y2="242"/><line class="c" x1="733.79" y1="242" x2="730.74" y2="242"/><line class="c" x1="200.51" y1="242" x2="160.77" y2="242"/><line class="c" x1="709.39" y1="242" x2="721.64" y2="242"/><line class="c" x1="700.05" y1="242" x2="604.43" y2="242"/><line class="c" x1="209.34" y1="242" x2="224.05" y2="242"/><line class="c" x1="573.93" y1="248.69" x2="379.84" y2="248.69"/><line class="c" x1="642.41" y1="248.69" x2="607.42" y2="248.69"/><line class="c" x1="241.54" y1="248.69" x2="254.87" y2="248.69"/><line class="c" x1="658.55" y1="248.69" x2="698.21" y2="248.69"/><line class="c" x1="235.76" y1="248.69" x2="230.63" y2="248.69"/><line class="c" x1="164.82" y1="248.69" x2="204.02" y2="248.69"/><line class="c" x1="715.91" y1="248.69" x2="703.74" y2="248.69"/><line class="c" x1="636.8" y1="255.38" x2="610.81" y2="255.38"/><line class="c" x1="698.67" y1="255.38" x2="664.32" y2="255.38"/><line class="c" x1="170.21" y1="255.38" x2="199.55" y2="255.38"/><line class="c" x1="736.91" y1="255.38" x2="731.7" y2="255.38"/><line class="c" x1="240.8" y1="255.38" x2="259.11" y2="255.38"/><line class="c" x1="382.1" y1="255.38" x2="566.42" y2="255.38"/><line class="c" x1="633.33" y1="262.07" x2="614.5" y2="262.07"/><line class="c" x1="700.77" y1="262.07" x2="675.3" y2="262.07"/><line class="c" x1="736.81" y1="262.07" x2="730.02" y2="262.07"/><line class="c" x1="384.93" y1="262.07" x2="557.34" y2="262.07"/><line class="c" x1="179.61" y1="262.07" x2="201.8" y2="262.07"/><line class="c" x1="618.64" y1="268.76" x2="630.68" y2="268.76"/><line class="c" x1="745.27" y1="268.76" x2="732.7" y2="268.76"/><line class="c" x1="189.05" y1="268.76" x2="230.07" y2="268.76"/><line class="c" x1="685.26" y1="268.76" x2="702.88" y2="268.76"/><line class="c" x1="387.99" y1="268.76" x2="551.17" y2="268.76"/><line class="c" x1="198.29" y1="275.45" x2="268.86" y2="275.45"/><line class="c" x1="724.09" y1="275.45" x2="731.19" y2="275.45"/><line class="c" x1="741.16" y1="275.45" x2="735.97" y2="275.45"/><line class="c" x1="703.74" y1="275.45" x2="687.83" y2="275.45"/><line class="c" x1="623.99" y1="275.45" x2="628.41" y2="275.45"/><line class="c" x1="391.31" y1="275.45" x2="556.22" y2="275.45"/><line class="c" x1="747.54" y1="282.14" x2="736.91" y2="282.14"/><line class="c" x1="395.02" y1="282.14" x2="556.6" y2="282.14"/><line class="c" x1="692.34" y1="282.14" x2="696.24" y2="282.14"/><line class="c" x1="211.4" y1="282.14" x2="277.11" y2="282.14"/><line class="c" x1="628.61" y1="282.14" x2="634.4" y2="282.14"/><line class="c" x1="448.38" y1="288.83" x2="552.18" y2="288.83"/><line class="c" x1="683.2" y1="288.83" x2="687.91" y2="288.83"/><line class="c" x1="730.23" y1="288.83" x2="722.85" y2="288.83"/><line class="c" x1="222.15" y1="288.83" x2="283.02" y2="288.83"/><line class="c" x1="746.35" y1="288.83" x2="743.04" y2="288.83"/><line class="c" x1="424.34" y1="288.83" x2="400.4" y2="288.83"/><line class="c" x1="673.12" y1="295.52" x2="681.69" y2="295.52"/><line class="c" x1="727.74" y1="295.52" x2="709.39" y2="295.52"/><line class="c" x1="451.92" y1="295.52" x2="544.67" y2="295.52"/><line class="c" x1="221.16" y1="295.52" x2="287.96" y2="295.52"/><line class="c" x1="691.06" y1="295.52" x2="685.3" y2="295.52"/><line class="c" x1="747.92" y1="302.21" x2="754.22" y2="302.21"/><line class="c" x1="703.16" y1="302.21" x2="728.69" y2="302.21"/><line class="c" x1="676.69" y1="302.21" x2="688.02" y2="302.21"/><line class="c" x1="453.23" y1="302.21" x2="536.55" y2="302.21"/><line class="c" x1="221.04" y1="302.21" x2="292.35" y2="302.21"/><line class="c" x1="530.38" y1="308.9" x2="454.07" y2="308.9"/><line class="c" x1="778.56" y1="308.9" x2="760.95" y2="308.9"/><line class="c" x1="725.59" y1="308.9" x2="704.64" y2="308.9"/><line class="c" x1="681.19" y1="308.9" x2="693.04" y2="308.9"/><line class="c" x1="221.7" y1="308.9" x2="300.26" y2="308.9"/><line class="c" x1="735.02" y1="308.9" x2="729.47" y2="308.9"/><line class="c" x1="738.58" y1="315.59" x2="734.54" y2="315.59"/><line class="c" x1="527.29" y1="315.59" x2="454.7" y2="315.59"/><line class="c" x1="728.45" y1="315.59" x2="732.61" y2="315.59"/><line class="c" x1="694.23" y1="315.59" x2="687.83" y2="315.59"/><line class="c" x1="225.23" y1="315.59" x2="316.92" y2="315.59"/><line class="c" x1="773.16" y1="315.59" x2="797.5" y2="315.59"/><line class="c" x1="527.03" y1="322.28" x2="455.2" y2="322.28"/><line class="c" x1="776.47" y1="322.28" x2="806.55" y2="322.28"/><line class="c" x1="229.39" y1="322.28" x2="329.48" y2="322.28"/><line class="c" x1="694.43" y1="322.28" x2="716.62" y2="322.28"/><line class="c" x1="810" y1="328.98" x2="783.58" y2="328.98"/><line class="c" x1="233.71" y1="328.98" x2="336.87" y2="328.98"/><line class="c" x1="528.1" y1="328.98" x2="455.63" y2="328.98"/><line class="c" x1="702.62" y1="328.98" x2="719.9" y2="328.98"/><line class="c" x1="742.41" y1="328.98" x2="748.65" y2="328.98"/><line class="c" x1="732.38" y1="328.98" x2="736.91" y2="328.98"/><line class="c" x1="237.88" y1="335.67" x2="335.42" y2="335.67"/><line class="c" x1="773.01" y1="335.67" x2="761.94" y2="335.67"/><line class="c" x1="528.82" y1="335.67" x2="456.02" y2="335.67"/><line class="c" x1="528.26" y1="342.36" x2="456.44" y2="342.36"/><line class="c" x1="241.52" y1="342.36" x2="325.12" y2="342.36"/><line class="c" x1="779.27" y1="342.36" x2="758.38" y2="342.36"/><line class="c" x1="553.17" y1="342.36" x2="545.58" y2="342.36"/><line class="c" x1="794.78" y1="342.36" x2="784.19" y2="342.36"/><line class="c" x1="552.89" y1="349.05" x2="541.63" y2="349.05"/><line class="c" x1="794.08" y1="349.05" x2="741.39" y2="349.05"/><line class="c" x1="244.28" y1="349.05" x2="322.02" y2="349.05"/><line class="c" x1="525.82" y1="349.05" x2="456.91" y2="349.05"/><line class="c" x1="552.33" y1="355.74" x2="538.85" y2="355.74"/><line class="c" x1="245.89" y1="355.74" x2="319.07" y2="355.74"/><line class="c" x1="800.24" y1="355.74" x2="735.03" y2="355.74"/><line class="c" x1="457.57" y1="355.74" x2="523.21" y2="355.74"/><line class="c" x1="536.86" y1="362.43" x2="551.13" y2="362.43"/><line class="c" x1="458.69" y1="362.43" x2="520.4" y2="362.43"/><line class="c" x1="805.91" y1="362.43" x2="721.32" y2="362.43"/><line class="c" x1="849.73" y1="362.43" x2="843.06" y2="362.43"/><line class="c" x1="246.16" y1="362.43" x2="316.1" y2="362.43"/><line class="c" x1="546.92" y1="369.12" x2="535.8" y2="369.12"/><line class="c" x1="245.26" y1="369.12" x2="313" y2="369.12"/><line class="c" x1="517.17" y1="369.12" x2="460.21" y2="369.12"/><line class="c" x1="810.73" y1="369.12" x2="715.69" y2="369.12"/><line class="c" x1="814.43" y1="375.81" x2="717.17" y2="375.81"/><line class="c" x1="244.27" y1="375.81" x2="309.71" y2="375.81"/><line class="c" x1="508.39" y1="375.81" x2="462.13" y2="375.81"/><line class="c" x1="505.86" y1="382.5" x2="464.54" y2="382.5"/><line class="c" x1="816.55" y1="382.5" x2="712.44" y2="382.5"/><line class="c" x1="243.31" y1="382.5" x2="306.03" y2="382.5"/><line class="c" x1="242.36" y1="389.19" x2="301.41" y2="389.19"/><line class="c" x1="467.62" y1="389.19" x2="503.13" y2="389.19"/><line class="c" x1="816.66" y1="389.19" x2="713.93" y2="389.19"/><line class="c" x1="471.91" y1="395.88" x2="499.17" y2="395.88"/><line class="c" x1="777.86" y1="395.88" x2="811.87" y2="395.88"/><line class="c" x1="241.41" y1="395.88" x2="282.53" y2="395.88"/><line class="c" x1="716.56" y1="395.88" x2="767.48" y2="395.88"/><line class="c" x1="747" y1="402.57" x2="718.92" y2="402.57"/><line class="c" x1="788.73" y1="402.57" x2="804.77" y2="402.57"/><line class="c" x1="240.46" y1="402.57" x2="275.65" y2="402.57"/><line class="c" x1="239.52" y1="409.26" x2="271.29" y2="409.26"/><line class="c" x1="795.75" y1="409.26" x2="797.35" y2="409.26"/><line class="c" x1="878.81" y1="409.26" x2="869.68" y2="409.26"/><line class="c" x1="238.57" y1="415.95" x2="269.94" y2="415.95"/><line class="c" x1="879.61" y1="415.95" x2="868.87" y2="415.95"/><line class="c" x1="803.72" y1="422.64" x2="794.08" y2="422.64"/><line class="c" x1="237.62" y1="422.64" x2="259.16" y2="422.64"/><line class="c" x1="867.79" y1="429.33" x2="856.79" y2="429.33"/><line class="c" x1="261.74" y1="429.33" x2="242.63" y2="429.33"/><line class="c" x1="802.1" y1="429.33" x2="797.17" y2="429.33"/><line class="c" x1="862.9" y1="436.02" x2="850.22" y2="436.02"/><line class="c" x1="257.39" y1="436.02" x2="240.18" y2="436.02"/><line class="c" x1="258.2" y1="442.71" x2="234.94" y2="442.71"/><line class="c" x1="260.21" y1="449.41" x2="236.71" y2="449.41"/><line class="c" x1="237.09" y1="456.1" x2="262.22" y2="456.1"/><line class="c" x1="239.61" y1="462.79" x2="263.44" y2="462.79"/><line class="c" x1="244.17" y1="469.48" x2="260.09" y2="469.48"/></g><circle class="b" cx="464" cy="285.23" r="7"/><circle class="b" cx="685" cy="202.23" r="7"/><circle class="b" cx="732" cy="295.23" r="7"/><circle class="b" cx="628" cy="222.23" r="23"/><circle class="b" cx="158" cy="161.23" r="49"/><circle class="b" cx="246" cy="292.23" r="7"/><circle class="b" cx="442" cy="171.23" r="7"/><circle class="b" cx="461" cy="168.23" r="7"/><circle class="b" cx="536.09" cy="177.26" r="7"/><circle class="b" cx="483" cy="168.23" r="7"/><circle class="b" cx="516" cy="202.23" r="11"/><circle class="b" cx="421.5" cy="132.73" r="16.5"/><circle class="b" cx="692" cy="301.23" r="11"/><circle class="b" cx="468" cy="124.23" r="11"/><circle class="b" cx="449" cy="148.23" r="7"/><circle class="b" cx="424" cy="162.23" r="7"/><circle class="b" cx="463" cy="95.23" r="7"/><circle class="b" cx="449.12" cy="109.27" r="7"/><circle class="b" cx="493" cy="133.23" r="7"/><circle class="b" cx="698" cy="102.23" r="7"/><circle class="b" cx="721" cy="228.23" r="7"/></svg>