<svg width="48" height="51" viewBox="0 0 48 51" fill="none" xmlns="http://www.w3.org/2000/svg">
<path d="M27.6715 34.3847H19.5577C19.5765 36.6063 21.3888 38.4079 23.6146 38.4079C25.8405 38.4079 27.6528 36.6063 27.6715 34.3847Z" fill="white"/>
<path d="M23.6146 41.3522C19.732 41.3522 16.5637 38.2435 16.4627 34.3847H5.37146C5.4382 34.9869 5.52962 35.5857 5.65008 36.1768C5.79718 36.8986 6.43189 37.4171 7.16846 37.4171H9.97073C10.0518 37.6258 10.1377 37.8327 10.2283 38.0375L8.24625 40.0195C7.72528 40.5404 7.64305 41.3561 8.04976 41.9705C8.79676 43.0992 9.66277 44.1588 10.6239 45.1199C11.5861 46.082 12.6457 46.9481 13.7737 47.6941C14.3878 48.1007 15.2034 48.0182 15.7242 47.4974L17.7061 45.5155C17.911 45.6061 18.1179 45.692 18.3269 45.7731V48.5753C18.3269 49.3119 18.8454 49.9466 19.5671 50.0937C20.8922 50.3636 22.254 50.5006 23.6146 50.5006C24.9751 50.5006 26.3369 50.3637 27.6621 50.0937C28.384 49.9466 28.9025 49.3119 28.9025 48.5753L28.9024 45.7731C29.1113 45.692 29.3182 45.6061 29.5231 45.5156L31.5046 47.4971C32.0253 48.0178 32.8407 48.1001 33.455 47.694C34.5826 46.9483 35.6425 46.0821 36.6052 45.1194C37.5673 44.1573 38.4332 43.0977 39.1792 41.9699C39.5856 41.3557 39.5034 40.5402 38.9825 40.0193L37.0009 38.0377C37.0915 37.833 37.1775 37.6259 37.2586 37.417H40.0602C40.7968 37.417 41.4315 36.8985 41.5786 36.1767C41.6991 35.5856 41.7906 34.9869 41.8573 34.3847H30.7667C30.6657 38.2436 27.4974 41.3522 23.6146 41.3522Z" fill="white"/>
<path fill-rule="evenodd" clip-rule="evenodd" d="M2.99951 0.50061C1.34266 0.50061 -0.000488281 1.84376 -0.000488281 3.50061V26.5006C-0.000488281 28.1575 1.34266 29.5006 2.99951 29.5006L21.8344 29.5006V16.9017L18.8645 19.6977C18.7879 19.7699 18.6839 19.8105 18.5756 19.8105C18.4671 19.8105 18.3633 19.7699 18.2866 19.6977L16.4415 17.96C16.2819 17.8098 16.2819 17.5662 16.4415 17.4159L23.3675 10.8941C23.5271 10.744 23.7858 10.744 23.9454 10.8941L30.8716 17.4159C30.9483 17.488 30.9914 17.5862 30.9912 17.6881C30.9912 17.7903 30.9481 17.8881 30.8714 17.9602L29.026 19.6979C28.8728 19.8423 28.6014 19.8423 28.4482 19.6979L25.4787 16.9014V29.5006L44.3135 29.5006C45.9703 29.5006 47.3135 28.1575 47.3135 26.5006V3.50061C47.3135 1.84376 45.9703 0.50061 44.3135 0.50061H2.99951Z" fill="white"/>
</svg>
