<svg width="42" height="51" viewBox="0 0 42 51" fill="none" xmlns="http://www.w3.org/2000/svg">
<path d="M29.4501 47.5378H25.2378L24.6324 39.5336H16.7457L16.1403 47.5378H11.928C11.1099 47.5378 10.4467 48.2011 10.4467 49.0192C10.4467 49.8373 11.1099 50.5006 11.928 50.5006H29.4501C30.2682 50.5006 30.9315 49.8373 30.9315 49.0192C30.9315 48.2011 30.2682 47.5378 29.4501 47.5378Z" fill="white"/>
<path d="M39.8658 11.5063H36.2908L25.6289 22.1316C25.8895 24.4483 25.1106 26.799 23.4049 28.5044C20.9984 30.9108 13.4628 32.0931 10.0747 32.4734C9.08215 32.565 8.34434 31.7429 8.44221 30.84C8.81956 27.5065 9.99191 19.9291 12.4113 17.5097C14.1494 15.7716 16.5136 15.0299 18.7851 15.2857L22.5507 11.5063H1.51241C0.677913 11.5063 -0.000549316 12.1847 -0.000549316 13.0192V35.0579C-0.000549316 35.8924 0.677913 36.5709 1.51241 36.5709H39.8658C40.7003 36.5709 41.3787 35.8924 41.3787 35.0579V13.0192C41.3787 12.1847 40.7003 11.5063 39.8658 11.5063V11.5063Z" fill="white"/>
<path d="M24.5713 19.003C24.966 18.6096 35.7151 7.89692 39.8934 3.73312C40.6015 2.98454 40.5867 1.7876 39.8569 1.05877C39.1271 0.328958 37.9302 0.313157 37.1816 1.02125C37.1313 1.07171 22.134 16.1213 21.9127 16.3434C22.9617 16.972 23.8983 17.88 24.5713 19.003Z" fill="white"/>
<path d="M21.3103 19.6054C19.4281 17.7232 16.3745 17.7349 14.5059 19.6054C13.2813 20.83 12.192 25.4972 11.631 29.2846C13.8014 28.9628 19.9053 27.8986 21.4159 26.3011C23.1906 24.4091 23.1422 21.4372 21.3103 19.6054Z" fill="white"/>
</svg>
