<svg width="50" height="51" viewBox="0 0 50 51" fill="none" xmlns="http://www.w3.org/2000/svg">
<path d="M45.605 0.50061H4.39404C1.9708 0.50061 -0.000488281 2.4719 -0.000488281 4.89514V34.3873C-0.000488281 36.8106 1.9708 38.7819 4.39404 38.7819H17.5776V41.7115H32.3237V38.7819H45.605C48.0282 38.7819 49.9995 36.8106 49.9995 34.3873V4.89514C49.9995 2.4719 48.0282 0.50061 45.605 0.50061ZM17.1485 26.5363L11.2892 32.3956C10.717 32.9678 9.78994 32.9678 9.21777 32.3956L6.28809 29.4659C5.71582 28.8938 5.71582 27.9668 6.28809 27.3947C6.86025 26.8225 7.7873 26.8225 8.35947 27.3947L10.2534 29.2886L15.0771 24.4649C15.6493 23.8927 16.5764 23.8927 17.1485 24.4649C17.7207 25.037 17.7207 25.9641 17.1485 26.5363ZM17.1485 17.7472L11.2892 23.6066C10.717 24.1787 9.78994 24.1787 9.21777 23.6066L6.28809 20.6769C5.71582 20.1047 5.71582 19.1778 6.28809 18.6056C6.86025 18.0334 7.7873 18.0334 8.35947 18.6056L10.2534 20.4995L15.0771 15.6758C15.6493 15.1036 16.5764 15.1036 17.1485 15.6758C17.7207 16.248 17.7207 17.175 17.1485 17.7472ZM17.1485 8.95813L11.2892 14.8175C10.717 15.3897 9.78994 15.3897 9.21777 14.8175L6.28809 11.8878C5.71582 11.3156 5.71582 10.3887 6.28809 9.81653C6.86025 9.24436 7.7873 9.24436 8.35947 9.81653L10.2534 11.7105L15.0771 6.88674C15.6493 6.31457 16.5764 6.31457 17.1485 6.88674C17.7207 7.45891 17.7207 8.38596 17.1485 8.95813ZM42.6753 29.8951H21.9722C21.1625 29.8951 20.5073 29.24 20.5073 28.4303C20.5073 27.6206 21.1625 26.9655 21.9722 26.9655H42.6753C43.485 26.9655 44.1401 27.6206 44.1401 28.4303C44.1401 29.24 43.485 29.8951 42.6753 29.8951ZM42.6753 21.1061H21.9722C21.1625 21.1061 20.5073 20.4509 20.5073 19.6412C20.5073 18.8316 21.1625 18.1764 21.9722 18.1764H42.6753C43.485 18.1764 44.1401 18.8316 44.1401 19.6412C44.1401 20.4509 43.485 21.1061 42.6753 21.1061ZM42.6753 12.317H21.9722C21.1625 12.317 20.5073 11.6618 20.5073 10.8522C20.5073 10.0425 21.1625 9.38733 21.9722 9.38733H42.6753C43.485 9.38733 44.1401 10.0425 44.1401 10.8522C44.1401 11.6618 43.485 12.317 42.6753 12.317Z" fill="white"/>
<path d="M35.2534 44.6412H14.7456C11.5141 44.6412 8.88623 47.2691 8.88623 50.5006H41.1128C41.1128 47.2691 38.485 44.6412 35.2534 44.6412Z" fill="white"/>
</svg>
