<svg width="521" height="371" viewBox="0 0 521 371" fill="none" xmlns="http://www.w3.org/2000/svg">
<path d="M103.592 31.1228H2.36951V218.863H103.592V31.1228Z" fill="#F9F9F9"/>
<path d="M33.9037 220.659C33.9037 220.659 22.8034 136.201 17.0028 126.914C17.0028 126.914 50.1671 100.522 51.1779 28.9797H0.857788V220.659H33.9037Z" fill="#F5F5F5"/>
<path d="M72.0492 220.292C72.0492 220.292 83.1312 135.824 88.9409 126.547C88.9409 126.547 55.7857 100.145 54.7659 28.6125H105.086V220.292H72.0492Z" fill="#F5F5F5"/>
<path d="M113.261 23.9695H0V225.071H117.96V23.9695H113.261ZM29.7222 128.449V176.272H9.37923V128.449H29.7222ZM9.37923 124.993V75.4997H29.7222V124.993H9.37923ZM60.6919 124.993V75.4997H86.1888V124.993H60.6919ZM86.1888 128.449V176.272H60.6919V128.449H86.1888ZM30.6419 124.993V75.4997H57.441V124.993H30.6419ZM57.441 128.449V176.272H30.6328V128.449H57.441ZM30.6328 74.6116V31.171H57.4319V74.6116H30.6328ZM57.4319 177.131V218.883H30.6328V177.131H57.4319ZM60.6919 177.131H86.1888V218.883H60.6919V177.131ZM60.6919 74.6405V31.171H86.1888V74.6116L60.6919 74.6405ZM87.0448 128.449H108.572V176.272H87.0448V128.449ZM87.0448 124.993V75.4997H108.572V124.993H87.0448ZM108.572 74.6116H87.0448V31.171H108.572V74.6116ZM29.7222 31.171V74.6116H9.37923V31.171H29.7222ZM9.37923 177.131H29.7222V218.883H9.37923V177.131ZM87.0448 218.883V177.131H108.572V218.883H87.0448Z" fill="#EBEBEB"/>
<path d="M434.219 68.3176H126.243V286.988H434.219V68.3176Z" fill="#F5F5F5"/>
<path d="M434.219 68.3176H126.243V90.1634H434.219V68.3176Z" fill="#0082CB"/>
<path d="M139.583 79.2355C139.62 79.7656 139.505 80.295 139.254 80.7549C139.002 81.2147 138.626 81.5836 138.174 81.8135C137.722 82.0433 137.215 82.1235 136.72 82.0435C136.224 81.9635 135.763 81.7271 135.395 81.3651C135.028 81.003 134.773 80.5322 134.662 80.0139C134.551 79.4956 134.59 78.9539 134.774 78.4593C134.957 77.9648 135.277 77.5404 135.692 77.2415C136.106 76.9426 136.596 76.783 137.097 76.7835C137.734 76.7601 138.353 77.005 138.819 77.4647C139.285 77.9243 139.56 78.5612 139.583 79.2355V79.2355Z" fill="#F9F9F9"/>
<path d="M147.615 79.2355C147.652 79.7656 147.537 80.295 147.286 80.7549C147.034 81.2147 146.658 81.5836 146.206 81.8135C145.754 82.0433 145.247 82.1235 144.751 82.0435C144.256 81.9635 143.794 81.7271 143.427 81.3651C143.06 81.003 142.805 80.5322 142.694 80.0139C142.583 79.4956 142.622 78.9539 142.805 78.4593C142.989 77.9648 143.309 77.5404 143.723 77.2415C144.138 76.9426 144.628 76.783 145.129 76.7835C145.765 76.7601 146.384 77.005 146.85 77.4647C147.316 77.9243 147.591 78.5612 147.615 79.2355V79.2355Z" fill="#F9F9F9"/>
<path d="M155.647 79.2355C155.683 79.7656 155.568 80.295 155.317 80.7549C155.066 81.2147 154.689 81.5836 154.237 81.8135C153.785 82.0433 153.278 82.1235 152.783 82.0435C152.287 81.9635 151.826 81.7271 151.459 81.3651C151.092 81.003 150.836 80.5322 150.725 80.0139C150.614 79.4956 150.653 78.9539 150.837 78.4593C151.02 77.9648 151.34 77.5404 151.755 77.2415C152.17 76.9426 152.659 76.783 153.161 76.7835C153.797 76.7601 154.416 77.005 154.882 77.4647C155.348 77.9243 155.623 78.5612 155.647 79.2355V79.2355Z" fill="#F9F9F9"/>
<path d="M500.464 111.527H438.589V197.066L500.464 198.717V111.527Z" fill="#EBEBEB"/>
<path d="M496.394 114.577H442.249V192.152L496.394 194.093V114.577Z" fill="#F9F9F9"/>
<path d="M486.915 128.671L450.982 127.223V181.447H486.915V128.671Z" fill="#EBEBEB"/>
<path d="M450.982 181.447L486.915 153.587L450.982 127.223V181.447Z" fill="#F5F5F5"/>
<path d="M493.644 51.3374L459.205 50.1982V97.8091L493.644 98.7262V51.3374Z" fill="#EBEBEB"/>
<path d="M491.377 53.4123L461.245 51.8967V95.067L491.377 96.1482V53.4123Z" fill="#F9F9F9"/>
<path d="M486.104 59.7356L466.107 58.9343V89.1111H486.104V59.7356Z" fill="#EBEBEB"/>
<path d="M466.107 89.1111L486.104 73.6076L466.107 58.9343V89.1111Z" fill="#F5F5F5"/>
<path d="M284.752 11.0144L281.456 43.4694H323.717L327.223 11.0144H284.752Z" fill="#EBEBEB"/>
<path d="M286.492 13.1482L283.277 41.5487H321.422L324.509 13.1482H286.492Z" fill="#F9F9F9"/>
<path d="M292.911 18.1194L290.935 36.9726H315.003L316.241 18.1194H292.911Z" fill="#EBEBEB"/>
<path d="M339.899 0L335.473 43.4696H392.094L396.793 0H339.899Z" fill="#EBEBEB"/>
<path d="M342.221 2.85742L337.923 40.9017H389.026L393.16 2.85742H342.221Z" fill="#F9F9F9"/>
<path d="M350.826 9.51831L348.176 34.7621H380.421L382.078 9.51831H350.826Z" fill="#EBEBEB"/>
<path d="M417.928 43.4697H253.036V48.4702H417.928V43.4697Z" fill="#EBEBEB"/>
<path d="M281.246 60.6336L274.025 48.4702H284.752V60.6336H281.246Z" fill="#EBEBEB"/>
<path d="M277.513 48.4702L283.896 60.6336H284.752V48.4702H277.513Z" fill="#EBEBEB"/>
<path d="M376.387 60.6336L369.166 48.4702H379.892V60.6336H376.387Z" fill="#EBEBEB"/>
<path d="M372.653 48.4702L379.036 60.6336H379.892V48.4702H372.653Z" fill="#EBEBEB"/>
<path d="M62.7994 333.317C77.9791 322.795 81.831 302.629 81.658 284.422C81.658 281.381 82.0222 278.186 80.7019 275.483C79.3815 272.78 76.2035 270.888 73.5718 272.095C71.3955 273.108 70.3938 275.705 69.1372 277.887C67.4517 280.75 65.0367 283.049 62.171 284.519C60.3043 285.484 58.0005 286.025 56.1975 284.924C53.7297 283.418 53.5203 279.788 53.6022 276.767L54.094 259.883C54.34 256.866 54.1154 253.826 53.4292 250.886C52.6006 247.99 50.6974 245.287 47.9656 244.409C45.2338 243.53 41.8008 245.104 41.1543 248.048C41.0173 249.297 40.9625 250.555 40.9904 251.813C40.8811 253.058 40.2892 254.439 39.1691 254.709C38.0491 254.979 36.8744 254.149 36.0276 253.241C33.1227 250.114 31.1831 246.137 29.3892 242.179C27.5953 238.221 25.8106 234.186 23.1698 230.788C20.529 227.389 16.8684 224.658 12.7343 224.31C8.60011 223.962 4.13814 226.521 3.04541 230.739C1.95269 234.958 4.17456 239.36 6.68784 242.874C10.4109 248.09 14.8242 252.71 19.7915 256.591C20.7626 257.183 21.5288 258.09 21.9769 259.178C22.5597 261.206 20.6929 263.156 18.7716 263.773C16.6043 264.468 14.2732 264.179 12.0149 264.391C9.75658 264.604 7.29794 265.588 6.39644 267.799C5.13981 270.859 7.5347 274.151 9.91138 276.333C14.6902 280.713 20.1416 284.194 26.0291 286.623C28.1326 287.482 30.3454 288.255 32.0209 289.857C33.6964 291.46 34.6707 294.211 33.5871 296.306C32.5035 298.4 29.8354 299.028 27.6136 298.536C25.3917 298.043 23.443 296.74 21.3395 295.842C17.4057 294.172 12.2334 294.336 9.65641 297.86C8.85263 299.069 8.32764 300.462 8.12363 301.925C7.91962 303.389 8.04227 304.883 8.48173 306.287C9.39126 309.086 10.8219 311.663 12.6887 313.865C18.8224 321.947 26.8611 328.168 35.9911 331.898C45.0972 335.47 53.6295 336.59 62.854 333.317" fill="#2DB1FF"/>
<path d="M7.26147 226.704L7.53466 226.994L8.37241 227.824C9.11911 228.538 10.1936 229.6 11.5778 231C15.4529 234.952 19.0417 239.209 22.3138 243.733C24.3991 246.629 26.5572 249.814 28.8155 253.328C31.0738 256.842 33.4596 260.607 35.8181 264.671C38.3175 268.9 40.5974 273.269 42.6476 277.761C43.7039 280.097 44.6418 282.54 45.598 285.03L48.4846 292.599C52.2114 302.177 55.4219 311.971 58.1006 321.936C60.2574 330.076 61.6783 338.416 62.344 346.842C62.7734 352.527 62.7307 358.241 62.2165 363.919C62.0253 365.926 61.8432 367.481 61.6793 368.533C61.6155 369.035 61.5609 369.431 61.5154 369.73C61.5074 369.865 61.5074 370 61.5154 370.135C61.5635 370.009 61.5942 369.875 61.6064 369.74L61.825 368.552C62.0162 367.5 62.2347 365.946 62.4624 363.938C63.0561 358.251 63.1536 352.518 62.7538 346.813C62.1346 338.352 60.7409 329.975 58.5923 321.8C55.9346 311.81 52.73 301.991 48.9945 292.396L46.1079 284.818C45.1518 282.337 44.2048 279.875 43.1302 277.53C41.0744 273.019 38.779 268.636 36.2552 264.401C33.8694 260.337 31.4745 256.572 29.198 253.058C26.9215 249.544 24.7451 246.301 22.6325 243.491C19.3165 238.972 15.6623 234.743 11.7052 230.845C10.312 229.465 9.20107 228.422 8.43616 227.737L7.52555 226.955C7.44544 226.863 7.35699 226.778 7.26147 226.704Z" fill="#212121"/>
<path d="M42.9664 277.5C43.115 277.086 43.2188 276.655 43.276 276.216C43.449 275.386 43.6584 274.18 43.8952 272.683C44.3687 269.681 44.8969 265.52 45.4614 260.925C46.026 256.33 46.5997 252.189 47.1187 249.206C47.3737 247.71 47.5923 246.513 47.7562 245.673C47.8646 245.247 47.9287 244.81 47.9474 244.37C47.7721 244.771 47.6407 245.192 47.5558 245.625C47.3373 246.445 47.055 247.642 46.7545 249.129C46.1353 252.102 45.4979 256.253 44.9333 260.848C44.3687 265.443 43.8952 269.488 43.5218 272.616C43.3397 274.035 43.194 275.222 43.0756 276.178C42.9902 276.613 42.9535 277.056 42.9664 277.5V277.5Z" fill="#212121"/>
<path d="M6.005 269.304C6.48935 269.426 6.98312 269.5 7.48019 269.526C8.39079 269.642 9.81134 269.797 11.5051 270.038C14.8925 270.511 19.5639 271.332 24.6633 272.471C29.7627 273.61 34.3522 274.875 37.6395 275.878C39.2876 276.361 40.608 276.796 41.5277 277.095C41.993 277.282 42.4751 277.418 42.9665 277.5C42.5259 277.253 42.0658 277.046 41.5915 276.882C40.6809 276.525 39.3878 276.033 37.7487 275.492C34.4796 274.392 29.8993 273.079 24.7726 271.921C19.6459 270.762 14.9654 269.99 11.5506 269.642C9.84776 269.449 8.45453 269.353 7.4984 269.304C7.00171 269.255 6.50169 269.255 6.005 269.304V269.304Z" fill="#212121"/>
<path d="M58.1372 321.067C58.2473 320.924 58.3363 320.764 58.4013 320.594L59.066 319.203C59.6488 317.997 60.4319 316.23 61.379 314.02C63.273 309.618 65.7043 303.449 68.2996 296.643C70.8948 289.838 73.2715 283.611 75.0836 279.17C75.9942 277.008 76.6862 275.232 77.2326 273.919L77.8063 272.481C77.8804 272.317 77.9384 272.145 77.9793 271.969C77.8689 272.11 77.777 272.266 77.7061 272.432C77.5331 272.809 77.3055 273.272 77.0414 273.822C76.4677 275.029 75.6846 276.805 74.7375 279.006C72.8435 283.408 70.4122 289.625 67.8078 296.431C65.2035 303.237 62.8359 309.463 61.0329 313.904L58.8839 319.136L58.3102 320.565C58.2309 320.723 58.1726 320.892 58.1372 321.067Z" fill="#212121"/>
<path d="M9.19202 303.188C9.34191 303.287 9.50447 303.361 9.67464 303.41L11.0952 303.951L16.3403 305.882C20.7658 307.513 26.8487 309.83 33.5689 312.407C40.2892 314.985 46.4085 317.234 50.8704 318.769C53.1014 319.541 54.9135 320.14 56.1702 320.526L57.618 320.97C57.7864 321.029 57.9605 321.068 58.1371 321.086C57.9865 320.986 57.8242 320.908 57.6544 320.854L56.2339 320.323L50.9888 318.392C46.5633 316.771 40.4804 314.454 33.7511 311.876C27.0217 309.299 20.9206 307.05 16.4495 305.505C14.2186 304.742 12.4065 304.144 11.1498 303.748L9.70195 303.314C9.53827 303.247 9.36666 303.205 9.19202 303.188V303.188Z" fill="#212121"/>
<path d="M469.177 369.885C469.177 370.03 367.062 370.136 241.116 370.136C115.17 370.136 13.0367 370.03 13.0367 369.885C13.0367 369.74 115.134 369.634 241.116 369.634C367.098 369.634 469.177 369.75 469.177 369.885Z" fill="#212121"/>
<path d="M382.925 93.7964H77.4449C76.1927 93.7964 74.9527 94.015 73.7959 94.4399C72.6392 94.8647 71.5882 95.4873 70.7032 96.2722C69.8182 97.0571 69.1164 97.9888 68.638 99.0141C68.1596 100.039 67.914 101.138 67.9152 102.248V293.415C67.914 294.525 68.1596 295.624 68.638 296.649C69.1164 297.674 69.8182 298.606 70.7032 299.391C71.5882 300.176 72.6392 300.798 73.7959 301.223C74.9527 301.648 76.1927 301.867 77.4449 301.867H194.691C194.691 301.867 194.691 301.867 223.881 301.867H244.91C244.91 301.867 254.373 301.867 269.268 301.867H382.925C385.455 301.867 387.881 300.976 389.67 299.391C391.459 297.806 392.464 295.657 392.464 293.415V102.248C392.464 100.006 391.459 97.8566 389.67 96.2717C387.881 94.6868 385.455 93.7964 382.925 93.7964Z" fill="#0082CB"/>
<path d="M384.559 98.9985H75.7997C74.1552 98.9985 72.822 100.412 72.822 102.155V293.738C72.822 295.481 74.1552 296.895 75.7997 296.895H384.559C386.203 296.895 387.536 295.481 387.536 293.738V102.155C387.536 100.412 386.203 98.9985 384.559 98.9985Z" fill="#ECEFF1"/>
<path d="M377.423 113.139H82.7087C77.1859 113.139 72.7087 117.616 72.7087 123.139V286.535C72.7087 292.058 77.1859 296.535 82.7087 296.535H377.423C382.946 296.535 387.423 292.058 387.423 286.535V123.139C387.423 117.616 382.946 113.139 377.423 113.139Z" fill="#F9F9F9"/>
<path d="M98.5246 106.275C98.5246 106.802 98.3772 107.317 98.101 107.755C97.8249 108.193 97.4323 108.535 96.9731 108.737C96.5139 108.938 96.0085 108.991 95.521 108.888C95.0335 108.785 94.5856 108.532 94.2342 108.159C93.8827 107.786 93.6433 107.312 93.5463 106.795C93.4494 106.278 93.4991 105.742 93.6894 105.255C93.8796 104.769 94.2017 104.352 94.615 104.06C95.0283 103.767 95.5142 103.611 96.0113 103.611C96.6779 103.611 97.3171 103.891 97.7885 104.391C98.2598 104.891 98.5246 105.568 98.5246 106.275V106.275Z" fill="#2DB1FF"/>
<path d="M83.2899 106.275C83.2899 106.802 83.1425 107.317 82.8663 107.755C82.5901 108.193 82.1976 108.535 81.7384 108.737C81.2791 108.938 80.7738 108.991 80.2863 108.888C79.7987 108.785 79.3509 108.532 78.9994 108.159C78.6479 107.786 78.4086 107.312 78.3116 106.795C78.2146 106.278 78.2644 105.742 78.4546 105.255C78.6448 104.769 78.967 104.352 79.3803 104.06C79.7936 103.767 80.2795 103.611 80.7766 103.611C81.4431 103.611 82.0824 103.891 82.5537 104.391C83.0251 104.891 83.2899 105.568 83.2899 106.275V106.275Z" fill="#2DB1FF"/>
<path d="M90.6022 106.275C90.6022 106.802 90.4548 107.317 90.1787 107.755C89.9025 108.193 89.51 108.535 89.0507 108.737C88.5915 108.938 88.0862 108.991 87.5986 108.888C87.1111 108.785 86.6633 108.532 86.3118 108.159C85.9603 107.786 85.7209 107.312 85.624 106.795C85.527 106.278 85.5768 105.742 85.767 105.255C85.9572 104.769 86.2794 104.352 86.6927 104.06C87.106 103.767 87.5919 103.611 88.089 103.611C88.7555 103.611 89.3948 103.891 89.8661 104.391C90.3374 104.891 90.6022 105.568 90.6022 106.275V106.275Z" fill="#2DB1FF"/>
<path d="M227.776 198.534C227.776 198.679 216.248 198.804 202.033 198.804C187.819 198.804 176.281 198.679 176.281 198.534C176.281 198.389 187.809 198.263 202.033 198.263C216.257 198.263 227.776 198.379 227.776 198.534Z" fill="#ECEFF1"/>
<path d="M227.776 205.841C227.776 205.986 216.248 206.112 202.033 206.112C187.819 206.112 176.281 205.986 176.281 205.841C176.281 205.696 187.809 205.561 202.033 205.561C216.257 205.561 227.776 205.687 227.776 205.841Z" fill="#ECEFF1"/>
<path d="M207.142 213.139C207.142 213.294 200.239 213.42 191.716 213.42C183.193 213.42 176.281 213.294 176.281 213.139C176.281 212.985 183.193 212.869 191.716 212.869C200.239 212.869 207.142 212.995 207.142 213.139Z" fill="#ECEFF1"/>
<path d="M200.767 123.873H176.281V127.165H200.767V123.873Z" fill="#ECEFF1"/>
<path d="M230.089 134.482H176.281V189.671H230.089V134.482Z" fill="#ECEFF1"/>
<path d="M180.452 184.941L195.34 156.541L207.515 174.699L214.909 165.055L225.918 184.941H180.452Z" fill="#2DB1FF"/>
<path d="M208.826 155.121C210.963 155.121 212.696 153.285 212.696 151.019C212.696 148.753 210.963 146.916 208.826 146.916C206.689 146.916 204.956 148.753 204.956 151.019C204.956 153.285 206.689 155.121 208.826 155.121Z" fill="#2DB1FF"/>
<path d="M225.918 185.096C225.908 185.022 225.908 184.947 225.918 184.874C225.918 184.7 225.918 184.497 225.918 184.227C225.918 183.638 225.918 182.808 225.918 181.746C225.918 179.555 225.918 176.388 225.863 172.372C225.863 164.312 225.8 152.834 225.754 139.049L225.973 139.28H180.515C180.452 139.338 180.989 138.769 180.761 139.02V151.395C180.761 155.45 180.761 159.427 180.761 163.289C180.761 171.011 180.761 178.329 180.761 185.047L180.534 184.806L213.406 184.932L222.676 184.989H225.135H225.772H225.162H222.74L213.525 185.047L180.506 185.173H180.288V184.932C180.288 178.174 180.288 170.905 180.288 163.173C180.288 159.311 180.288 155.334 180.288 151.28V139.068C180.06 139.3 180.597 138.72 180.552 138.788H226.009H226.228V139.02C226.182 152.863 226.146 164.389 226.118 172.488C226.118 176.485 226.073 179.632 226.055 181.814C226.055 182.856 226.055 183.667 226.055 184.246C226.055 184.507 226.055 184.71 226.055 184.864C226.015 184.945 225.97 185.023 225.918 185.096V185.096Z" fill="#ECEFF1"/>
<path d="M293.376 198.534C293.376 198.679 281.848 198.804 267.624 198.804C253.4 198.804 241.881 198.679 241.881 198.534C241.881 198.389 253.4 198.263 267.624 198.263C281.848 198.263 293.376 198.379 293.376 198.534Z" fill="#ECEFF1"/>
<path d="M293.376 205.841C293.376 205.986 281.848 206.112 267.624 206.112C253.4 206.112 241.881 205.986 241.881 205.841C241.881 205.696 253.4 205.561 267.624 205.561C281.848 205.561 293.376 205.687 293.376 205.841Z" fill="#ECEFF1"/>
<path d="M272.742 213.139C272.742 213.294 265.83 213.42 257.307 213.42C248.784 213.42 241.899 213.294 241.899 213.139C241.899 212.985 248.802 212.869 257.325 212.869C265.848 212.869 272.742 212.995 272.742 213.139Z" fill="#ECEFF1"/>
<path d="M266.367 123.873H241.881V127.165H266.367V123.873Z" fill="#ECEFF1"/>
<path d="M295.689 134.482H241.881V189.671H295.689V134.482Z" fill="#ECEFF1"/>
<path d="M246.052 184.941L260.931 156.541L273.106 174.699L280.509 165.055L291.509 184.941H246.052Z" fill="#2DB1FF"/>
<path d="M278.324 151.019C278.325 151.833 278.099 152.629 277.674 153.307C277.248 153.985 276.642 154.513 275.933 154.826C275.224 155.138 274.443 155.221 273.69 155.062C272.936 154.904 272.244 154.512 271.701 153.936C271.158 153.361 270.789 152.627 270.639 151.828C270.49 151.03 270.567 150.202 270.862 149.45C271.157 148.698 271.656 148.056 272.295 147.605C272.934 147.154 273.685 146.914 274.453 146.916C275.48 146.916 276.464 147.348 277.19 148.118C277.916 148.887 278.324 149.931 278.324 151.019Z" fill="#2DB1FF"/>
<path d="M291.509 185.096C291.509 185.096 291.509 185.018 291.509 184.874C291.509 184.729 291.509 184.497 291.509 184.227C291.509 183.638 291.509 182.808 291.509 181.746C291.509 179.555 291.509 176.388 291.454 172.372C291.454 164.312 291.382 152.834 291.336 139.049L291.555 139.28H246.097C246.033 139.338 246.58 138.769 246.352 139.02V151.395C246.352 155.45 246.352 159.427 246.352 163.289C246.352 171.011 246.352 178.329 246.352 185.047L246.134 184.806L279.006 184.932L288.276 184.989H290.735H291.373H290.753H288.34L279.116 185.047L246.106 185.173H245.879V184.932C245.879 178.174 245.879 170.905 245.879 163.173V139.068C245.642 139.3 246.188 138.72 246.134 138.788H291.591H291.819V139.02C291.764 152.863 291.728 164.389 291.7 172.488C291.7 176.485 291.655 179.632 291.646 181.814C291.646 182.856 291.646 183.667 291.646 184.246C291.646 184.507 291.646 184.71 291.646 184.864C291.613 184.949 291.567 185.027 291.509 185.096Z" fill="#ECEFF1"/>
<path d="M202.488 223.323H178.002V226.615H202.488V223.323Z" fill="#ECEFF1"/>
<path d="M231.81 233.923H178.002V289.112H231.81V233.923Z" fill="#ECEFF1"/>
<path d="M182.173 284.391L197.061 255.991L209.236 274.139L216.63 264.505L227.639 284.391H182.173Z" fill="#2DB1FF"/>
<path d="M214.426 250.469C214.426 251.282 214.199 252.078 213.773 252.754C213.346 253.43 212.74 253.957 212.032 254.268C211.323 254.58 210.543 254.661 209.79 254.502C209.038 254.344 208.347 253.952 207.804 253.377C207.262 252.802 206.892 252.069 206.743 251.271C206.593 250.474 206.67 249.647 206.963 248.895C207.257 248.144 207.754 247.502 208.392 247.05C209.03 246.598 209.78 246.357 210.547 246.357C211.057 246.355 211.562 246.461 212.033 246.667C212.504 246.873 212.932 247.176 213.293 247.558C213.653 247.94 213.939 248.394 214.134 248.894C214.328 249.393 214.428 249.929 214.426 250.469Z" fill="#2DB1FF"/>
<path d="M227.639 284.545C227.639 284.545 227.639 284.459 227.639 284.314C227.639 284.169 227.639 283.937 227.639 283.667C227.639 283.088 227.639 282.258 227.639 281.186C227.639 279.004 227.639 275.838 227.576 271.813C227.576 263.752 227.512 252.274 227.466 238.498L227.685 238.73H182.227L182.482 238.46V241.617C182.482 242.659 182.482 243.702 182.482 244.735V262.777C182.482 270.5 182.482 277.807 182.482 284.536L182.255 284.294L215.128 284.42L224.397 284.478H226.865H227.503C227.575 284.47 227.649 284.47 227.721 284.478H226.911H224.498L215.273 284.545L182.255 284.661H182.036V284.43C182.036 277.672 182.036 270.394 182.036 262.671C182.036 258.809 182.036 254.845 182.036 250.778V238.498L182.3 238.219H227.758H227.976V238.46C227.931 252.303 227.894 263.829 227.867 271.928C227.867 275.925 227.867 279.072 227.812 281.244C227.812 282.296 227.812 283.107 227.812 283.686C227.812 283.937 227.812 284.14 227.812 284.304C227.773 284.398 227.714 284.481 227.639 284.545V284.545Z" fill="#ECEFF1"/>
<path d="M268.134 223.323H243.648V226.615H268.134V223.323Z" fill="#ECEFF1"/>
<path d="M297.455 233.923H243.648V289.112H297.455V233.923Z" fill="#ECEFF1"/>
<path d="M247.818 284.391L262.707 255.991L274.881 274.139L282.275 264.505L293.285 284.391H247.818Z" fill="#2DB1FF"/>
<path d="M280.063 250.469C280.061 251.28 279.832 252.072 279.406 252.746C278.98 253.419 278.375 253.944 277.667 254.253C276.96 254.562 276.182 254.642 275.432 254.482C274.682 254.323 273.993 253.931 273.453 253.357C272.912 252.783 272.545 252.052 272.396 251.256C272.248 250.461 272.325 249.636 272.618 248.887C272.911 248.138 273.407 247.498 274.043 247.047C274.68 246.597 275.428 246.357 276.193 246.357C276.702 246.357 277.206 246.463 277.676 246.67C278.146 246.877 278.573 247.18 278.932 247.562C279.292 247.944 279.577 248.397 279.771 248.896C279.965 249.395 280.064 249.929 280.063 250.469Z" fill="#2DB1FF"/>
<path d="M293.285 284.545C293.278 284.468 293.278 284.391 293.285 284.314C293.285 284.15 293.285 283.937 293.285 283.667C293.285 283.088 293.285 282.258 293.285 281.186C293.285 279.004 293.285 275.838 293.23 271.813C293.23 263.752 293.166 252.274 293.121 238.498L293.339 238.73H247.873L248.128 238.46V250.855C248.128 254.909 248.128 258.874 248.128 262.748C248.128 270.471 248.128 277.778 248.128 284.507L247.9 284.266L280.773 284.391L290.043 284.449H292.502H293.139H293.367H292.556H290.134L280.919 284.517L247.9 284.632H247.673V284.401C247.673 277.643 247.673 270.365 247.673 262.642C247.673 258.78 247.673 254.816 247.673 250.749V238.498L247.928 238.219H293.394H293.613V238.46C293.567 252.303 293.531 263.829 293.503 271.928C293.503 275.925 293.458 279.072 293.44 281.244C293.44 282.296 293.44 283.107 293.44 283.686C293.44 283.937 293.44 284.14 293.44 284.304C293.395 284.389 293.343 284.47 293.285 284.545V284.545Z" fill="#ECEFF1"/>
<path d="M335.865 223.323H311.379V226.615H335.865V223.323Z" fill="#ECEFF1"/>
<path d="M365.186 233.923H311.379V289.112H365.186V233.923Z" fill="#ECEFF1"/>
<path d="M315.549 284.391L330.437 255.991L342.612 274.139L350.006 264.505L361.015 284.391H315.549Z" fill="#2DB1FF"/>
<path d="M347.803 250.469C347.803 251.282 347.575 252.078 347.149 252.754C346.723 253.43 346.117 253.957 345.408 254.268C344.699 254.58 343.919 254.661 343.167 254.502C342.414 254.344 341.723 253.952 341.181 253.377C340.638 252.802 340.269 252.069 340.119 251.271C339.969 250.474 340.046 249.647 340.34 248.895C340.633 248.144 341.131 247.502 341.768 247.05C342.406 246.598 343.156 246.357 343.924 246.357C344.433 246.355 344.938 246.461 345.41 246.667C345.881 246.873 346.309 247.176 346.669 247.558C347.03 247.94 347.315 248.394 347.51 248.894C347.704 249.393 347.804 249.929 347.803 250.469Z" fill="#2DB1FF"/>
<path d="M361.016 284.545C361.016 284.545 361.016 284.459 361.016 284.314C361.016 284.169 361.016 283.937 361.016 283.667C361.016 283.088 361.016 282.258 361.016 281.186C361.016 279.004 361.016 275.838 360.952 271.813C360.952 263.752 360.888 252.274 360.843 238.498L361.061 238.73H315.604L315.859 238.46V262.748C315.859 270.471 315.859 277.778 315.859 284.507L315.631 284.266L348.504 284.391L357.774 284.449H360.242H360.87C360.946 284.441 361.022 284.441 361.098 284.449H360.287H357.874L348.65 284.517L315.631 284.632H315.413V284.401C315.413 277.643 315.413 270.365 315.413 262.642C315.413 258.78 315.413 254.816 315.413 250.749V238.498L315.677 238.219H361.134H361.353V238.46C361.307 252.303 361.271 263.829 361.243 271.928C361.243 275.925 361.198 279.072 361.189 281.244C361.189 282.296 361.189 283.107 361.189 283.686C361.189 283.937 361.189 284.14 361.189 284.304C361.15 284.398 361.091 284.481 361.016 284.545V284.545Z" fill="#ECEFF1"/>
<path d="M360.15 189.661C362.107 189.395 364.081 189.304 366.051 189.391L365.796 189.661V189.044C365.796 188.831 365.796 188.629 365.796 188.426C365.796 188.02 365.796 187.634 365.796 187.248C365.796 186.563 365.796 185.897 365.851 185.259C365.823 184.642 365.885 184.023 366.033 183.425C366.169 184.025 366.228 184.643 366.206 185.259C366.206 185.897 366.206 186.563 366.261 187.248C366.261 187.634 366.261 188.02 366.261 188.426V189.661L365.996 189.941C364.044 190.031 362.088 189.937 360.15 189.661V189.661Z" fill="#ECEFF1"/>
<path d="M333.315 189.662C337.783 189.301 342.27 189.301 346.737 189.662C342.27 190.036 337.782 190.036 333.315 189.662V189.662Z" fill="#ECEFF1"/>
<path d="M313.992 183.407C314.249 185.48 314.334 187.573 314.247 189.662L313.992 189.392H316.296L318.172 189.45C318.754 189.434 319.336 189.499 319.902 189.643C319.338 189.799 318.754 189.864 318.172 189.836L316.296 189.894H315.185H313.992L313.737 189.614C313.658 187.541 313.743 185.465 313.992 183.407Z" fill="#ECEFF1"/>
<path d="M313.992 154.958C314.249 157.319 314.334 159.697 314.247 162.072C314.335 164.444 314.249 166.819 313.992 169.177C313.74 166.819 313.655 164.444 313.737 162.072C313.655 159.697 313.74 157.319 313.992 154.958V154.958Z" fill="#ECEFF1"/>
<path d="M319.902 134.463C317.943 134.735 315.966 134.826 313.992 134.733L314.247 134.463V135.708C314.247 136.104 314.247 136.5 314.247 136.886C314.247 137.571 314.247 138.228 314.192 138.875C314.219 139.492 314.158 140.111 314.01 140.709C313.863 140.111 313.802 139.492 313.828 138.875C313.828 138.228 313.828 137.571 313.774 136.886C313.774 136.5 313.774 136.104 313.774 135.708C313.774 135.506 313.774 135.293 313.774 135.081V134.463L314.029 134.193C315.99 134.108 317.955 134.199 319.902 134.463Z" fill="#ECEFF1"/>
<path d="M346.737 134.463C342.27 134.824 337.783 134.824 333.315 134.463C337.783 134.103 342.27 134.103 346.737 134.463V134.463Z" fill="#ECEFF1"/>
<path d="M366.061 140.738C365.798 138.662 365.709 136.565 365.796 134.473C366.315 135.013 365.942 134.627 366.051 134.743H364.831H363.72L361.844 134.685C361.262 134.713 360.679 134.648 360.114 134.492C360.679 134.336 361.262 134.271 361.844 134.299L363.72 134.241H366.015L366.279 134.512C366.371 136.59 366.298 138.673 366.061 140.738Z" fill="#ECEFF1"/>
<path d="M366.06 169.216C365.797 166.858 365.709 164.483 365.796 162.111C365.709 159.735 365.797 157.357 366.06 154.996C366.312 157.358 366.397 159.736 366.315 162.111C366.398 164.482 366.312 166.857 366.06 169.216V169.216Z" fill="#ECEFF1"/>
<path d="M365.305 198.456C365.305 198.601 353.767 198.727 339.553 198.727C325.338 198.727 313.801 198.601 313.801 198.456C313.801 198.311 325.329 198.186 339.553 198.186C353.776 198.186 365.305 198.302 365.305 198.456Z" fill="#ECEFF1"/>
<path d="M365.305 205.764C365.305 205.909 353.767 206.035 339.553 206.035C325.338 206.035 313.837 205.899 313.837 205.764C313.837 205.629 325.366 205.484 339.589 205.484C353.813 205.484 365.305 205.61 365.305 205.764Z" fill="#ECEFF1"/>
<path d="M338.287 123.796H313.801V127.088H338.287V123.796Z" fill="#ECEFF1"/>
<path d="M151.249 166.744C151.249 172.281 149.7 177.694 146.798 182.297C143.896 186.901 139.772 190.489 134.947 192.608C130.121 194.727 124.812 195.281 119.689 194.201C114.566 193.121 109.861 190.455 106.168 186.54C102.475 182.624 99.9597 177.636 98.9408 172.206C97.9218 166.775 98.4448 161.146 100.444 156.031C102.442 150.915 105.827 146.543 110.17 143.467C114.512 140.391 119.618 138.749 124.841 138.749C131.845 138.749 138.562 141.698 143.514 146.949C148.466 152.199 151.249 159.319 151.249 166.744V166.744Z" fill="#ECEFF1"/>
<path d="M156.466 227.716C156.466 227.861 142.916 227.986 126.207 227.986C109.497 227.986 95.9382 227.861 95.9382 227.716C95.9382 227.571 109.488 227.436 126.207 227.436C142.925 227.436 156.466 227.561 156.466 227.716Z" fill="#ECEFF1"/>
<path d="M156.466 234.859C156.466 235.014 142.916 235.13 126.207 235.13C109.497 235.13 95.9382 235.014 95.9382 234.859C95.9382 234.705 109.488 234.589 126.207 234.589C142.925 234.589 156.466 234.657 156.466 234.859Z" fill="#ECEFF1"/>
<path d="M156.466 241.907C156.466 242.061 142.916 242.177 126.207 242.177C109.497 242.177 95.9382 242.061 95.9382 241.907C95.9382 241.752 109.488 241.617 126.252 241.617C143.017 241.617 156.466 241.762 156.466 241.907Z" fill="#ECEFF1"/>
<path d="M130.714 249.156C130.714 249.311 122.856 249.427 113.167 249.427C103.478 249.427 95.6105 249.311 95.6105 249.156C95.6105 249.001 103.469 248.885 113.167 248.885C122.865 248.885 130.714 249.011 130.714 249.156Z" fill="#ECEFF1"/>
<path d="M95.9383 216.459H137.644V213.226H95.9383V216.459Z" fill="#ECEFF1"/>
<path d="M108.323 188.107C112.97 192.373 118.912 194.721 125.06 194.721C131.207 194.721 137.149 192.373 141.797 188.107C140.394 183.049 136.989 177.045 128.711 175.712C130.567 174.845 132.142 173.42 133.241 171.613C134.34 169.806 134.915 167.697 134.894 165.547C134.894 159.466 130.578 154.523 125.205 154.494C119.833 154.465 115.462 159.379 115.434 165.451C115.397 167.62 115.965 169.753 117.069 171.581C118.172 173.409 119.761 174.85 121.636 175.722C113.222 177.045 109.752 183.078 108.323 188.107Z" fill="#2DB1FF"/>
<path d="M119.323 260.238H95.9382V263.259H119.323V260.238Z" fill="#2DB1FF"/>
<path d="M455.115 116.73L459.103 130.911C459.316 131.548 459.436 132.215 459.459 132.89C459.459 134.889 457.637 136.462 455.816 136.829C453.936 137.045 452.034 136.807 450.252 136.134C449.761 138.171 447.521 139.03 445.563 139.416C436.841 141.136 427.831 139.946 419.774 136.008C423.213 130.789 426.007 125.125 428.088 119.153L448.431 120.119C449.629 120.257 450.841 120.148 452.001 119.8C452.577 119.615 453.092 119.26 453.486 118.776C453.879 118.292 454.135 117.7 454.223 117.068" fill="#212121"/>
<path d="M431.803 144.426C432.058 142.843 431.448 136.182 431.448 136.182C431.448 136.182 425.721 135.536 425.375 129.512C425.029 123.488 425.375 109.587 425.375 109.587L435.81 104.181L447.302 113.4L445.563 143.529L433.133 155.287L431.803 144.426Z" fill="#FFBE9D"/>
<path d="M426.513 119.714C426.511 119.867 426.552 120.017 426.631 120.146C426.71 120.274 426.823 120.375 426.956 120.435C427.089 120.494 427.236 120.511 427.378 120.482C427.52 120.454 427.65 120.381 427.753 120.273C427.856 120.166 427.926 120.028 427.955 119.878C427.984 119.728 427.97 119.572 427.915 119.43C427.86 119.288 427.767 119.167 427.647 119.082C427.527 118.997 427.386 118.951 427.241 118.951C427.146 118.95 427.052 118.968 426.963 119.006C426.875 119.044 426.795 119.1 426.727 119.171C426.659 119.242 426.605 119.327 426.569 119.42C426.532 119.513 426.513 119.613 426.513 119.714V119.714Z" fill="#212121"/>
<path d="M425.848 118.874C425.948 118.98 426.486 118.497 427.269 118.449C428.052 118.401 428.635 118.806 428.717 118.69C428.799 118.575 428.662 118.459 428.407 118.275C428.06 118.033 427.647 117.918 427.232 117.947C426.82 117.969 426.426 118.136 426.112 118.42C425.848 118.642 425.757 118.835 425.848 118.874Z" fill="#212121"/>
<path d="M434.954 119.714C434.952 119.867 434.994 120.018 435.073 120.147C435.153 120.275 435.266 120.376 435.4 120.435C435.533 120.495 435.68 120.511 435.823 120.482C435.965 120.452 436.095 120.378 436.198 120.27C436.3 120.161 436.37 120.023 436.398 119.872C436.425 119.721 436.41 119.565 436.354 119.423C436.298 119.282 436.203 119.161 436.082 119.077C435.961 118.993 435.818 118.949 435.674 118.951C435.483 118.951 435.3 119.031 435.165 119.174C435.03 119.318 434.954 119.512 434.954 119.714V119.714Z" fill="#212121"/>
<path d="M434.49 118.874C434.581 118.98 435.118 118.497 435.901 118.449C436.685 118.401 437.276 118.806 437.358 118.691C437.44 118.575 437.304 118.459 437.04 118.275C436.694 118.036 436.286 117.921 435.874 117.947C435.463 117.974 435.07 118.139 434.754 118.42C434.517 118.642 434.444 118.835 434.49 118.874Z" fill="#212121"/>
<path d="M434.253 126.712C433.057 127.36 431.782 127.827 430.465 128.103C430.756 128.518 431.168 128.82 431.637 128.961C432.107 129.103 432.607 129.076 433.06 128.884C433.276 128.831 433.48 128.731 433.658 128.591C433.837 128.452 433.987 128.274 434.098 128.071C434.21 127.868 434.281 127.642 434.308 127.409C434.335 127.175 434.316 126.938 434.253 126.712V126.712Z" fill="#F9F9F9"/>
<path d="M431.448 136.182C434.15 136.064 436.762 135.13 438.979 133.489C438.979 133.489 437.276 137.91 431.576 137.659L431.448 136.182Z" fill="#EB996E"/>
<path d="M463.839 130.728C463.124 130.757 462.414 130.587 461.781 130.236C460.845 129.696 460.067 128.895 459.531 127.919C458.868 126.703 458.307 125.427 457.856 124.106C456.791 121.306 456.035 118.7 455.443 116.808C455.361 116.509 455.279 116.238 455.206 115.978C455.172 115.698 455.123 115.421 455.06 115.148C451.955 102.598 441.538 100.243 439.48 100.243C437.267 100.243 433.397 98.949 427.76 105.166C426.907 106.092 426.186 107.146 425.62 108.294C424.378 109.952 423.52 111.896 423.116 113.97C422.869 114.942 422.826 115.96 422.989 116.953C423.098 116.953 423.116 115.823 423.553 114.057C423.815 113.03 424.181 112.036 424.646 111.093C424.156 113.414 424.356 115.839 425.22 118.034L427.241 117.435L434.526 114.829C433.861 112.454 434.836 109.5 435.382 108.072H435.437C437.094 117.088 446.464 118.034 446.464 118.034L446 135.15C455.625 132.968 455.752 121.828 455.689 119.057C456.126 120.621 456.69 122.417 457.401 124.299C457.876 125.641 458.468 126.933 459.167 128.16C459.758 129.202 460.626 130.034 461.662 130.554C462.359 130.905 463.14 131.026 463.902 130.902C464.185 130.874 464.455 130.768 464.685 130.593C464.401 130.619 464.118 130.664 463.839 130.728V130.728Z" fill="#212121"/>
<path d="M431.667 125.892C431.252 125.791 430.827 125.742 430.401 125.747C430.201 125.747 430.001 125.747 429.964 125.554C429.936 125.322 429.974 125.087 430.073 124.878C430.246 124.338 430.419 123.768 430.611 123.16C430.984 121.934 431.303 120.824 431.521 120.013C431.672 119.584 431.767 119.136 431.804 118.681C431.59 119.082 431.425 119.51 431.312 119.955C431.039 120.747 430.684 121.886 430.31 123.083L429.791 124.811C429.678 125.084 429.653 125.389 429.718 125.679C429.75 125.752 429.797 125.817 429.855 125.869C429.914 125.92 429.982 125.958 430.055 125.979C430.167 125.992 430.28 125.992 430.392 125.979C430.819 126.004 431.247 125.975 431.667 125.892V125.892Z" fill="#212121"/>
<path d="M444.88 120.988C443.113 120.621 441.62 120.361 441.11 120.322C441.177 120.005 441.214 119.681 441.219 119.357C441.211 118.314 440.892 117.3 440.309 116.461C439.771 115.679 439.021 115.089 438.16 114.771C437.386 114.48 436.553 114.413 435.746 114.578C435.044 114.728 434.387 115.06 433.834 115.543C433.021 116.21 432.451 117.155 432.222 118.217C432.158 118.502 432.124 118.794 432.122 119.086C432.108 119.185 432.108 119.286 432.122 119.386C432.122 119.386 432.122 118.97 432.323 118.256C432.586 117.244 433.159 116.354 433.953 115.727C434.488 115.298 435.113 115.01 435.774 114.887C436.622 114.724 437.496 114.834 438.285 115.203C439.073 115.571 439.74 116.182 440.198 116.955C440.657 117.729 440.886 118.63 440.857 119.544C440.828 120.457 440.542 121.34 440.035 122.079C439.535 122.814 438.837 123.373 438.032 123.681C437.311 123.964 436.531 124.037 435.774 123.894C435.112 123.767 434.488 123.476 433.953 123.044C433.158 122.422 432.584 121.534 432.323 120.525C432.247 120.24 432.196 119.95 432.168 119.656C432.304 119.656 432.395 119.579 432.395 119.54C432.395 119.501 432.286 119.443 432.131 119.414C431.95 119.397 431.767 119.397 431.585 119.414C431.364 119.413 431.144 119.439 430.929 119.492V119.434C430.925 118.39 430.606 117.375 430.019 116.538C429.483 115.758 428.737 115.169 427.879 114.848C427.102 114.557 426.266 114.49 425.457 114.655C424.607 114.837 423.824 115.273 423.199 115.911C422.575 116.549 422.136 117.362 421.933 118.256C421.868 118.541 421.835 118.832 421.832 119.125C421.818 119.224 421.818 119.325 421.832 119.424C421.832 119.424 421.832 119.009 422.033 118.295C422.296 117.283 422.869 116.393 423.663 115.765C424.199 115.337 424.823 115.049 425.484 114.926C426.106 114.805 426.745 114.832 427.356 115.002C427.968 115.173 428.536 115.483 429.022 115.913C429.507 116.342 429.898 116.879 430.166 117.485C430.435 118.092 430.574 118.754 430.574 119.424C430.573 120.36 430.303 121.273 429.798 122.041C429.293 122.809 428.579 123.395 427.751 123.72C427.027 124.003 426.244 124.076 425.484 123.932C424.822 123.806 424.198 123.515 423.663 123.083C422.868 122.46 422.294 121.573 422.033 120.563C421.851 119.849 421.869 119.424 421.832 119.424C421.819 119.527 421.819 119.631 421.832 119.733C421.835 120.023 421.868 120.311 421.933 120.592C422.16 121.658 422.73 122.607 423.544 123.276C424.101 123.753 424.756 124.083 425.457 124.241C426.266 124.406 427.102 124.34 427.879 124.048C428.735 123.724 429.481 123.136 430.019 122.359C430.561 121.588 430.878 120.665 430.929 119.704C431.15 119.762 431.376 119.788 431.603 119.781C431.779 119.793 431.955 119.793 432.131 119.781V119.781C432.133 120.071 432.167 120.359 432.232 120.64C432.428 121.539 432.865 122.357 433.49 122.998C434.116 123.638 434.902 124.074 435.756 124.251C436.562 124.416 437.395 124.349 438.169 124.058C439.028 123.736 439.777 123.147 440.318 122.368C440.692 121.829 440.953 121.21 441.083 120.554C441.565 120.718 443.04 121.085 444.825 121.451C446.131 121.777 447.458 122 448.795 122.117C447.522 121.625 446.213 121.247 444.88 120.988V120.988Z" fill="#212121"/>
<path d="M447.903 125.641C447.813 124.638 447.918 123.626 448.213 122.667C448.363 122.19 448.632 121.765 448.991 121.435C449.35 121.106 449.785 120.885 450.252 120.795C450.793 120.766 451.325 120.946 451.75 121.301C452.175 121.656 452.465 122.162 452.565 122.725C452.631 123.303 452.532 123.887 452.28 124.404C452.029 124.92 451.636 125.345 451.154 125.621C450.668 125.888 450.131 126.035 449.584 126.052C449.037 126.069 448.494 125.955 447.994 125.718" fill="#FFBE9D"/>
<path d="M449.524 124.782C449.524 124.714 449.834 124.859 450.234 124.782C450.485 124.689 450.701 124.515 450.853 124.284C451.005 124.054 451.085 123.779 451.081 123.498C451.106 123.357 451.101 123.212 451.066 123.073C451.032 122.935 450.968 122.806 450.881 122.697C450.707 122.548 450.484 122.479 450.262 122.504C449.834 122.504 449.533 122.658 449.515 122.581C449.497 122.504 449.706 122.301 450.216 122.156C450.372 122.115 450.534 122.111 450.692 122.144C450.849 122.177 450.998 122.247 451.127 122.349C451.277 122.499 451.39 122.686 451.458 122.892C451.527 123.099 451.547 123.32 451.518 123.536C451.504 123.95 451.356 124.345 451.099 124.656C450.885 124.919 450.586 125.087 450.262 125.129C449.77 125.12 449.524 124.782 449.524 124.782Z" fill="#EB996E"/>
<path d="M471.579 354.177L464.722 349.244L473.364 335.574L483.462 342.679L482.98 343.558C480.794 347.477 471.606 363.29 469.32 365.307C466.716 367.547 471.579 354.177 471.579 354.177Z" fill="#2DB1FF"/>
<path d="M468.465 365.153C468.337 365.066 471.497 359.902 475.522 353.627C479.547 347.352 482.898 342.323 483.025 342.41C483.153 342.496 479.984 347.661 475.959 353.994C471.934 360.326 468.583 365.259 468.465 365.153Z" fill="#212121"/>
<path d="M472.826 355.422C472.826 355.577 472.398 355.664 471.916 355.703C471.433 355.741 471.005 355.703 470.96 355.548C470.914 355.393 471.333 355.171 471.87 355.142C472.407 355.113 472.845 355.268 472.826 355.422Z" fill="#212121"/>
<path d="M472.726 356.62C472.726 356.774 472.225 356.794 471.67 356.755C471.115 356.716 470.65 356.639 470.641 356.475C470.632 356.31 471.105 356.156 471.697 356.194C472.289 356.233 472.754 356.465 472.726 356.62Z" fill="#212121"/>
<path d="M480.348 346.502C480.284 346.502 480.111 346.242 479.902 345.749C479.619 345.089 479.455 344.379 479.419 343.654C479.384 342.903 479.589 342.162 480.002 341.55C480.339 341.087 480.667 340.961 480.703 341.019C480.739 341.077 480.53 341.318 480.311 341.762C480.046 342.345 479.921 342.989 479.947 343.635C479.991 344.307 480.094 344.973 480.257 345.624C480.375 346.135 480.421 346.473 480.348 346.502Z" fill="#212121"/>
<path d="M471.515 354.534C471.451 354.399 471.697 354.129 472.034 353.868C472.371 353.607 472.681 353.434 472.79 353.54C472.899 353.646 472.726 354.023 472.344 354.322C471.961 354.621 471.57 354.679 471.515 354.534Z" fill="#212121"/>
<path d="M470.987 353.85C470.869 353.753 470.987 353.318 471.296 352.884C471.606 352.449 471.925 352.16 472.043 352.237C472.162 352.314 472.043 352.749 471.734 353.203C471.424 353.656 471.096 353.946 470.987 353.85Z" fill="#212121"/>
<path d="M390.762 365.413V356.629L406.243 356.522L406.37 369.381L405.405 369.448C401.125 369.728 383.623 370.559 380.746 369.661C377.586 368.657 390.762 365.413 390.762 365.413Z" fill="#2DB1FF"/>
<path d="M380.427 368.851C380.427 368.696 386.237 368.57 393.394 368.57C400.552 368.57 406.361 368.696 406.361 368.851C406.361 369.005 400.561 369.141 393.394 369.141C386.228 369.141 380.427 369.015 380.427 368.851Z" fill="#212121"/>
<path d="M390.489 367.21C390.362 367.287 390.061 366.969 389.752 366.544C389.442 366.119 389.233 365.732 389.333 365.578C389.433 365.423 389.843 365.703 390.171 366.167C390.499 366.631 390.617 367.133 390.489 367.21Z" fill="#212121"/>
<path d="M389.497 367.789C389.36 367.847 389.087 367.451 388.805 366.939C388.523 366.427 388.322 365.973 388.441 365.877C388.559 365.78 388.951 366.109 389.26 366.659C389.57 367.21 389.633 367.731 389.497 367.789Z" fill="#212121"/>
<path d="M401.681 368.793C401.626 368.793 401.754 368.435 402.018 367.982C402.375 367.365 402.835 366.822 403.374 366.379C403.945 365.93 404.64 365.692 405.35 365.704C405.897 365.704 406.188 365.964 406.161 366.022C406.134 366.08 405.824 366.022 405.359 366.099C404.757 366.199 404.185 366.451 403.693 366.833C403.193 367.247 402.732 367.713 402.318 368.223C401.981 368.609 401.744 368.841 401.681 368.793Z" fill="#212121"/>
<path d="M390.444 365.558C390.517 365.423 390.872 365.491 391.254 365.636C391.637 365.781 391.965 365.964 391.937 366.118C391.91 366.273 391.528 366.331 391.081 366.167C390.635 366.003 390.335 365.694 390.444 365.558Z" fill="#212121"/>
<path d="M390.69 364.709C390.69 364.555 391.118 364.429 391.6 364.439C392.083 364.448 392.511 364.584 392.511 364.738C392.511 364.893 392.11 365.009 391.6 365.009C391.09 365.009 390.672 364.864 390.69 364.709Z" fill="#212121"/>
<path d="M429.919 162.575L413.1 156.638C413.1 156.638 405.678 179.304 403.402 179.526C390.799 180.743 377.313 176.312 372.578 174.564C372.104 173.995 371.558 173.309 370.948 172.47C370.424 171.747 370.02 170.934 369.755 170.066C369.391 169.003 369.164 167.892 369.081 166.764C369.101 166.547 369.056 166.329 368.953 166.139C368.851 165.95 368.695 165.8 368.508 165.708C368.321 165.617 368.112 165.59 367.909 165.63C367.707 165.671 367.521 165.777 367.378 165.934C366.841 166.687 366.695 169.545 367.943 172.634C369.19 175.723 364.783 173.261 363.162 172.392C361.541 171.524 356.415 169.11 355.768 169.429C354.858 169.902 355.122 171.06 356.761 171.881C358.4 172.701 363.135 175.53 362.671 176.418C362.206 177.306 354.011 172.779 354.011 172.779C354.011 172.779 352.408 171.514 351.834 172.518C350.796 174.323 359.829 178.445 360.704 178.812C361.305 179.063 360.831 180.048 360.194 179.777C359.556 179.507 352.126 175.076 351.042 176.881C350.223 178.281 358.454 180.337 359.52 182.152C360.585 183.967 353.419 179.922 352.69 181.303C352.417 181.814 352.271 182.268 356.697 183.928C359.946 184.997 363.247 185.877 366.586 186.564V186.612C366.586 186.612 410.796 207.57 420.312 187.375C430.401 165.944 429.919 162.575 429.919 162.575Z" fill="#FFBE9D"/>
<path d="M419.629 212.387C419.629 212.387 408.911 287.897 410.45 291.546C411.989 295.195 467.108 357.189 467.108 357.189L480.002 333.77C480.002 333.77 436.521 282.317 436.848 280.936C437.176 279.556 452.256 206.122 452.256 206.122L419.629 212.387Z" fill="#0082CB"/>
<path d="M421.969 305.649L431.03 284.556L440.09 263.463L424.828 291.507L421.969 305.649Z" fill="#212121"/>
<path d="M427.369 286.834C427.41 287.109 427.428 287.387 427.423 287.665C427.423 288.263 427.423 289.064 427.478 290.059V289.982C430.929 294.113 438.578 303.496 447.411 314.463L462.755 333.634L467.363 339.494C467.873 340.151 468.273 340.691 468.592 341.097C468.747 341.275 468.882 341.473 468.993 341.685C468.817 341.531 468.655 341.36 468.51 341.174L467.208 339.629C466.042 338.23 464.476 336.28 462.473 333.895L446.992 314.83C438.169 303.873 430.602 294.393 427.296 290.136C427.296 289.171 427.296 288.34 427.342 287.742C427.312 287.44 427.321 287.134 427.369 286.834V286.834Z" fill="#212121"/>
<path d="M475.868 328.923C475.995 329.01 472.981 334.078 469.148 340.237C465.314 346.396 462.109 351.329 461.99 351.242C461.872 351.155 464.877 346.087 468.71 339.928C472.544 333.77 475.749 328.837 475.868 328.923Z" fill="#212121"/>
<path d="M415.75 240.749C415.85 239.957 424.409 219.511 424.409 219.511L420.257 213.304L419.519 213.13L415.75 240.749Z" fill="#0082CB"/>
<path d="M428.025 211.663L419.52 213.169L424.41 219.55C416.515 238.49 400.206 278.59 398.248 291.516C395.644 308.642 385.836 362.131 386.82 362.952C387.803 363.773 410.414 362.952 410.414 362.952L424.828 291.516L456.7 232.997C460.664 225.71 461.822 217.082 459.932 208.912L459.295 206.131" fill="#0082CB"/>
<path d="M402.546 355.017C402.551 354.884 402.566 354.752 402.591 354.621C402.591 354.332 402.683 353.946 402.755 353.453L403.457 348.984C404.103 345.074 405.023 339.465 406.188 332.573C407.354 325.68 408.747 317.388 410.286 308.236C411.087 303.661 411.925 298.853 412.79 293.872C413.009 292.636 413.246 291.381 413.473 290.117C413.592 289.48 413.701 288.852 413.837 288.186C413.91 287.868 413.965 287.539 414.056 287.221L414.393 286.255C415.303 283.803 416.342 281.429 417.361 278.928C425.602 259.303 433.27 241.637 438.815 228.856L445.435 213.729C446.209 211.972 446.829 210.601 447.257 209.636C447.457 209.192 447.621 208.835 447.748 208.574C447.797 208.448 447.858 208.329 447.931 208.217L447.794 208.603L447.357 209.684L445.618 213.825C444.06 217.455 441.839 222.668 439.125 229.039C433.661 241.869 426.049 259.554 417.817 279.179C416.797 281.631 415.768 284.064 414.857 286.468L414.53 287.356C414.438 287.665 414.393 287.983 414.32 288.321C414.183 288.939 414.074 289.586 413.947 290.252C413.719 291.517 413.491 292.772 413.264 294.007C412.353 298.979 411.543 303.786 410.732 308.352C409.148 317.504 407.718 325.728 406.516 332.669C405.314 339.61 404.34 345.161 403.666 349.08C403.32 351.011 403.047 352.478 402.865 353.53C402.764 354.013 402.692 354.399 402.637 354.689C402.618 354.802 402.588 354.912 402.546 355.017V355.017Z" fill="#212121"/>
<path d="M411.761 356.079C411.761 356.233 406.298 356.253 399.641 356.079C392.985 355.905 387.521 355.722 387.521 355.567C387.521 355.413 392.985 355.393 399.65 355.519C406.316 355.644 411.77 355.924 411.761 356.079Z" fill="#212121"/>
<path d="M419.519 213.159L419.847 213.98L460.706 210.476L459.267 206.122L419.519 213.159Z" fill="#2DB1FF"/>
<path d="M436.393 142.592L433.661 154.292L433.561 145.874L433.77 144.011L434.016 142.592L430.374 141.289L428.498 144.388H427.952C427.952 144.388 413.245 142.833 408.101 163.434L403.393 175.646L417.644 183.175V184.141L418.554 213.284L459.714 206.218C459.878 199.673 453.576 187.819 454.969 181.891L459.714 161.619L453.494 142.727L449.187 142.872L446.792 139.87L436.439 142.592" fill="#2DB1FF"/>
<path d="M417.899 183.002C417.567 182.904 417.258 182.736 416.988 182.509C416.229 181.956 415.582 181.247 415.085 180.424C414.331 179.191 413.988 177.727 414.111 176.263C414.18 174.474 414.737 172.744 415.713 171.282C416.471 170.136 417.468 169.191 418.627 168.521L418.5 168.695C418.846 166.021 419.155 163.724 419.41 162.092C419.497 161.222 419.65 160.36 419.866 159.515C419.866 160.393 419.805 161.271 419.684 162.14C419.529 163.772 419.283 166.089 418.973 168.763V168.879L418.864 168.946C417.627 169.693 416.587 170.757 415.84 172.04C415.092 173.324 414.66 174.786 414.584 176.292C414.446 177.668 414.734 179.054 415.404 180.241C415.86 181.044 416.445 181.757 417.134 182.345C417.653 182.77 417.908 182.963 417.899 183.002Z" fill="#455A64"/>
<path d="M419.474 163.396C419.356 163.454 418.955 162.836 418.563 162.006C418.172 161.175 417.962 160.451 418.081 160.393C418.199 160.335 418.6 160.953 418.991 161.783C419.383 162.614 419.565 163.28 419.474 163.396Z" fill="#455A64"/>
<path d="M377.367 155.113L506.837 181.476C516.071 183.359 521.881 192.298 520.833 202.482C520.819 202.626 520.794 202.768 520.761 202.907C520.33 205.315 519.452 207.607 518.177 209.652C516.903 211.696 515.258 213.452 513.338 214.816C511.418 216.181 509.261 217.127 506.993 217.6C504.725 218.073 502.391 218.063 500.126 217.571L373.242 190.425L345.26 166.716L377.367 155.113Z" fill="#0082CB"/>
<path d="M377.367 155.113C377.367 155.113 384.434 157.922 382.977 165.104C381.52 172.286 374.681 171.987 374.681 171.987C374.681 171.987 381.329 173.551 379.489 183.62C378.296 190.107 373.242 190.444 373.242 190.444L345.26 166.716L377.367 155.113Z" fill="#EBEBEB"/>
<path d="M351.343 171.871C354.074 170.433 355.03 166.601 354.074 163.541L345.287 166.717L351.343 171.871Z" fill="#455A64"/>
<path d="M505.071 200.001L504.734 199.953L503.732 199.779L499.917 199.055C496.602 198.418 491.822 197.462 485.903 196.256C474.065 193.842 457.774 190.377 439.781 186.438L393.722 176.283L379.763 173.184L375.974 172.325L374.991 172.083C374.875 172.066 374.762 172.033 374.654 171.987C374.771 171.992 374.886 172.008 375 172.035L375.993 172.219L379.799 172.991L393.813 175.945L439.908 185.955C457.893 189.894 474.192 193.418 486.003 195.918L499.981 198.872L503.778 199.692L504.77 199.914C504.874 199.93 504.975 199.959 505.071 200.001Z" fill="#455A64"/>
<path d="M500.126 217.57C502.391 218.062 504.725 218.072 506.993 217.6C509.261 217.127 511.418 216.181 513.338 214.816C515.258 213.452 516.903 211.696 518.177 209.652C519.452 207.607 520.33 205.314 520.761 202.907C520.795 202.767 520.819 202.625 520.834 202.482C521.881 192.298 516.071 183.359 506.838 181.476L500.126 217.57Z" fill="#455A64"/>
<path d="M448.668 160.606C448.668 160.606 440.791 186.95 438.597 187.529C426.322 190.85 412.344 188.736 407.418 187.8C406.862 187.317 406.207 186.718 405.487 186.004C404.866 185.376 404.349 184.642 403.957 183.832C403.436 182.845 403.046 181.786 402.801 180.685C402.792 180.463 402.716 180.249 402.585 180.075C402.454 179.902 402.275 179.776 402.072 179.717C401.87 179.658 401.655 179.669 401.459 179.747C401.263 179.826 401.095 179.968 400.98 180.154C400.552 180.984 400.843 183.832 402.528 186.67C402.528 186.67 392.657 193.312 390.499 193.254C388.34 193.196 382.157 193.032 382.804 193.939C383.45 194.847 390.499 196.092 390.499 196.092L403.247 200.677C403.247 200.677 450.016 214.018 456.417 192.472C460.333 179.266 463.047 171.495 463.657 168.338L448.668 160.606Z" fill="#FFBE9D"/>
<path d="M453.558 142.766C453.558 142.766 463.848 144.697 464.249 162.556C464.439 173.416 462.231 184.174 457.801 193.968L439.699 183.89C443.764 175.265 446.822 166.145 448.805 156.735L453.503 142.757L453.558 142.766Z" fill="#2DB1FF"/>
<path d="M448.276 157.729C448.277 158.099 448.237 158.468 448.158 158.829C448.058 159.524 447.885 160.528 447.63 161.725C446.962 164.937 446.119 168.106 445.107 171.215C444.09 174.323 442.901 177.366 441.547 180.328C441.028 181.467 440.582 182.374 440.254 182.982C440.105 183.324 439.922 183.647 439.708 183.948C439.791 183.59 439.919 183.245 440.09 182.924C440.4 182.181 440.791 181.274 441.246 180.212C442.212 177.914 443.468 174.7 444.661 171.079C445.854 167.459 446.719 164.11 447.302 161.667C447.569 160.528 447.797 159.563 447.985 158.771C448.042 158.413 448.14 158.063 448.276 157.729V157.729Z" fill="#455A64"/>
</svg>
