<svg width="57" height="53" viewBox="0 0 57 53" fill="none" xmlns="http://www.w3.org/2000/svg">
<path d="M39.7174 17.4226C39.9728 16.5286 40.1005 15.5708 40.1005 14.5491C40.1005 13.5273 39.9728 12.6333 39.7174 11.6755L41.5054 10.079C41.7608 9.82366 41.8885 9.37661 41.697 9.05729L39.8451 5.86441C39.6536 5.5451 39.2704 5.35353 38.8873 5.48128L36.6523 6.24754C35.2475 4.9704 33.5234 4.01258 31.6714 3.43778L31.2244 1.13911C31.1606 0.755873 30.8413 0.500488 30.4581 0.500488H26.7545C26.3713 0.500488 26.052 0.755873 25.9882 1.13911L25.5413 3.43799C23.6255 3.94887 21.9653 4.97051 20.6243 6.31157L18.3893 5.54531C18.0062 5.41756 17.6231 5.54531 17.4315 5.92844L15.4519 9.12133C15.2604 9.44064 15.3242 9.88759 15.6435 10.1431L17.3677 11.6756C17.1123 12.5696 16.9846 13.5274 16.9846 14.5492C16.9846 15.5709 17.1123 16.4649 17.3677 17.4227L15.5797 19.0192C15.3243 19.2746 15.1966 19.7216 15.3881 20.0409L17.24 23.2338C17.4315 23.5531 17.8146 23.7447 18.1978 23.617L20.4327 22.8507C21.7737 24.1917 23.4979 25.1496 25.3497 25.7243L25.7967 28.0232C25.8605 28.4063 26.1798 28.6618 26.5629 28.6618H30.2666C30.6497 28.6618 30.969 28.4064 31.0328 28.0232L31.4798 25.7243C33.3955 25.2134 35.0558 24.1918 36.3967 22.8507L38.6317 23.617C39.0148 23.7447 39.398 23.617 39.5895 23.2338L41.4414 20.0409C41.6329 19.7216 41.5691 19.2747 41.2498 19.0192L39.7174 17.4226ZM28.5424 22.7227C24.0724 22.7227 20.3687 19.0829 20.3687 14.5491C20.3687 10.0152 24.0085 6.37539 28.5424 6.37539C33.0124 6.37539 36.7161 10.0152 36.7161 14.5491C36.7161 19.0829 33.0124 22.7227 28.5424 22.7227Z" fill="white"/>
<path d="M28.5425 23.2336C23.7532 23.2336 19.8579 19.3383 19.8579 14.5491C19.8579 9.75983 23.7532 5.8645 28.5425 5.8645C33.3317 5.8645 37.227 9.75983 37.227 14.5491C37.227 19.3383 33.3318 23.2336 28.5425 23.2336ZM28.5425 6.82233C24.3279 6.82233 20.8157 10.2706 20.8157 14.5491C20.8157 18.8275 24.264 22.2758 28.5425 22.2758C32.8209 22.2758 36.2692 18.8275 36.2692 14.5491C36.2692 10.2706 32.757 6.82233 28.5425 6.82233Z" fill="white"/>
<path d="M28.5423 18.6999C30.8347 18.6999 32.693 16.8415 32.693 14.5491C32.693 12.2568 30.8347 10.3984 28.5423 10.3984C26.2499 10.3984 24.3916 12.2568 24.3916 14.5491C24.3916 16.8415 26.2499 18.6999 28.5423 18.6999Z" fill="white"/>
<path d="M51.1588 15.996V47.7438H5.92627V15.996C5.92627 15.6163 6.23026 15.2827 6.63958 15.2827H50.5093C50.8542 15.2827 51.1588 15.5518 51.1588 15.996Z" fill="white" stroke="#2DB1FF"/>
<path d="M55.4995 49.4983H1.49951C0.671085 49.4983 -0.000488281 50.1699 -0.000488281 50.9983C-0.000488281 51.8267 0.671086 52.4983 1.49951 52.4983H55.4995C56.3279 52.4983 56.9995 51.8267 56.9995 50.9983C56.9995 50.1699 56.3279 49.4983 55.4995 49.4983Z" fill="white"/>
<path d="M48.8488 17.3372H8.23584V45.6258H48.8488V17.3372Z" fill="white"/>
<path d="M19.5388 34.1953L18.517 36.4942H16.729L21.199 26.4048H22.987L27.4571 36.4942H25.669L24.6473 34.1953H19.5388ZM23.881 32.6627L22.0292 28.512L20.1774 32.6627H23.881Z" fill="#2DB1FF"/>
<path d="M35.6309 27.2989C36.3334 27.8736 36.6527 28.7676 36.6527 29.9809C36.6527 31.1943 36.2695 32.0883 35.5671 32.663C34.8647 33.2376 33.7791 33.4931 32.2466 33.4931H30.4586V36.4305H28.7344V26.405H32.1826C33.7791 26.4049 34.9285 26.7241 35.6309 27.2989ZM34.4177 31.4496C34.737 31.0665 34.9286 30.5556 34.9286 29.8532C34.9286 29.1508 34.737 28.6399 34.29 28.3845C33.843 28.0652 33.2044 27.9375 32.2466 27.9375H30.5224V31.9605H32.502C33.4598 32.0243 34.0984 31.8328 34.4177 31.4496Z" fill="#2DB1FF"/>
<path d="M38.6958 26.4048H40.356V36.4942H38.6318V26.4048H38.6958Z" fill="#2DB1FF"/>
<path d="M15.6434 21.3601H12.0674V23.3397H15.6434V21.3601Z" fill="#2DB1FF"/>
<path d="M44.6344 21.3601H17.8145V23.3397H44.6344V21.3601Z" fill="#2DB1FF"/>
<path d="M45.0174 39.6423H41.4414V41.6219H45.0174V39.6423Z" fill="#2DB1FF"/>
<path d="M38.919 39.6423H12.0991V41.6219H38.919V39.6423Z" fill="#2DB1FF"/>
</svg>
