<svg width="519" height="411" viewBox="0 0 519 411" fill="none" xmlns="http://www.w3.org/2000/svg">
<path d="M109.774 41.7339H5.53015V230.413H109.774V41.7339Z" fill="#FAFAFA"/>
<path d="M38.0057 232.217C38.0057 232.217 26.5741 147.337 20.6004 138.004C20.6004 138.004 54.7545 111.479 55.7954 39.5801H3.97351V232.217H38.0057Z" fill="#F5F5F5"/>
<path d="M77.2894 231.849C77.2894 231.849 88.7022 146.959 94.6852 137.635C94.6852 137.635 60.5406 111.101 59.4902 39.2114H111.312V231.849H77.2894Z" fill="#F5F5F5"/>
<path d="M119.731 34.5449H3.08984V236.651H124.57V34.5449H119.731ZM33.6991 139.547V187.609H12.749V139.547H33.6991ZM12.749 136.073V86.3327H33.6991V136.073H12.749ZM65.5931 136.073V86.3327H91.851V136.073H65.5931ZM91.851 139.547V187.609H65.5931V139.547H91.851ZM34.6463 136.073V86.3327H62.2452V136.073H34.6463ZM62.2452 139.547V187.609H34.6369V139.547H62.2452ZM34.6369 85.4401V41.7824H62.2358V85.4401H34.6369ZM62.2358 188.472V230.432H34.6369V188.472H62.2358ZM65.5931 188.472H91.851V230.432H65.5931V188.472ZM65.5931 85.4692V41.7824H91.851V85.4401L65.5931 85.4692ZM92.7326 139.547H114.902V187.609H92.7326V139.547ZM92.7326 136.073V86.3327H114.902V136.073H92.7326ZM114.902 85.4401H92.7326V41.7824H114.902V85.4401ZM33.6991 41.7824V85.4401H12.749V41.7824H33.6991ZM12.749 188.472H33.6991V230.432H12.749V188.472ZM92.7326 230.432V188.472H114.902V230.432H92.7326Z" fill="#EBEBEB"/>
<path d="M518.491 122.539H454.769V208.506L518.491 210.165V122.539Z" fill="#EBEBEB"/>
<path d="M514.299 125.605H458.539V203.568L514.299 205.518V125.605Z" fill="#FAFAFA"/>
<path d="M504.537 139.769L467.532 138.314V192.809H504.537V139.769Z" fill="#EBEBEB"/>
<path d="M467.532 192.809L504.537 164.81L467.532 138.314V192.809Z" fill="#F5F5F5"/>
<path d="M511.467 62.0491L476 60.9043V108.753L511.467 109.675V62.0491Z" fill="#EBEBEB"/>
<path d="M509.132 64.135L478.101 62.6118V105.998L509.132 107.084V64.135Z" fill="#FAFAFA"/>
<path d="M503.702 70.4898L483.109 69.6846V100.012H503.702V70.4898Z" fill="#EBEBEB"/>
<path d="M483.109 100.012L503.702 84.4312L483.109 69.6846V100.012Z" fill="#F5F5F5"/>
<path d="M296.341 21.5251L292.946 54.1423H336.469L340.079 21.5251H296.341Z" fill="#EBEBEB"/>
<path d="M298.132 23.6694L294.822 52.2119H334.105L337.284 23.6694H298.132Z" fill="#FAFAFA"/>
<path d="M304.743 28.6658L302.708 47.6132H327.494L328.77 28.6658H304.743Z" fill="#EBEBEB"/>
<path d="M353.133 10.4556L348.575 54.1424H406.887L411.726 10.4556H353.133Z" fill="#EBEBEB"/>
<path d="M355.524 13.3271L351.098 51.5616H403.726L407.984 13.3271H355.524Z" fill="#FAFAFA"/>
<path d="M364.386 20.0215L361.657 45.3915H394.864L396.571 20.0215H364.386Z" fill="#EBEBEB"/>
<path d="M433.492 54.1423H263.678V59.1678H433.492V54.1423Z" fill="#EBEBEB"/>
<path d="M292.73 71.3921L285.294 59.168H296.341V71.3921H292.73Z" fill="#EBEBEB"/>
<path d="M288.885 59.168L295.459 71.3921H296.341V59.168H288.885Z" fill="#E0E0E0"/>
<path d="M390.71 71.3921L383.273 59.168H394.32V71.3921H390.71Z" fill="#EBEBEB"/>
<path d="M386.865 59.168L393.439 71.3921H394.32V59.168H386.865Z" fill="#E0E0E0"/>
<path d="M484.614 376.691H0.202271V376.941H484.614V376.691Z" fill="#EBEBEB"/>
<path d="M436.076 392.817H403.989V393.068H436.076V392.817Z" fill="#EBEBEB"/>
<path d="M321.096 395.544H312.677V395.795H321.096V395.544Z" fill="#EBEBEB"/>
<path d="M403.02 383.517H384.428V383.767H403.02V383.517Z" fill="#EBEBEB"/>
<path d="M92.8702 385.2H51.0267V385.451H92.8702V385.2Z" fill="#EBEBEB"/>
<path d="M107.635 385.2H101.502V385.451H107.635V385.2Z" fill="#EBEBEB"/>
<path d="M218.333 389.43H127.573V389.681H218.333V389.43Z" fill="#EBEBEB"/>
<path d="M229.814 331.989H42.7434C41.2779 331.987 39.8733 331.382 38.8379 330.309C37.8026 329.236 37.2211 327.782 37.2211 326.266V54.2164C37.2338 52.709 37.821 51.2676 38.8549 50.2055C39.8889 49.1433 41.2862 48.546 42.7434 48.5435H229.814C231.281 48.5435 232.688 49.1464 233.725 50.2197C234.763 51.293 235.346 52.7486 235.346 54.2665V326.266C235.346 327.784 234.763 329.24 233.725 330.313C232.688 331.386 231.281 331.989 229.814 331.989V331.989ZM42.7434 48.7439C41.3421 48.7466 39.9991 49.3243 39.0092 50.3503C38.0193 51.3763 37.4633 52.7667 37.4633 54.2164V326.266C37.4633 327.716 38.0193 329.106 39.0092 330.132C39.9991 331.158 41.3421 331.736 42.7434 331.739H229.814C231.216 331.736 232.56 331.159 233.551 330.133C234.543 329.107 235.101 327.717 235.103 326.266V54.2164C235.101 52.7658 234.543 51.3754 233.551 50.3497C232.56 49.324 231.216 48.7466 229.814 48.7439H42.7434Z" fill="#EBEBEB"/>
<path d="M439.38 331.989H252.3C250.834 331.987 249.428 331.383 248.391 330.31C247.354 329.237 246.771 327.783 246.768 326.266V54.2164C246.783 52.7081 247.373 51.2667 248.408 50.2048C249.444 49.1429 250.842 48.546 252.3 48.5435H439.38C440.835 48.5487 442.23 49.1471 443.262 50.209C444.294 51.2709 444.88 52.7107 444.892 54.2164V326.266C444.892 327.781 444.312 329.233 443.279 330.306C442.246 331.379 440.844 331.984 439.38 331.989V331.989ZM252.3 48.7439C250.898 48.7466 249.554 49.324 248.562 50.3497C247.571 51.3754 247.013 52.7658 247.01 54.2164V326.266C247.013 327.717 247.571 329.107 248.562 330.133C249.554 331.159 250.898 331.736 252.3 331.739H439.38C440.782 331.736 442.126 331.159 443.117 330.133C444.109 329.107 444.667 327.717 444.67 326.266V54.2164C444.667 52.7658 444.109 51.3754 443.117 50.3497C442.126 49.324 440.782 48.7466 439.38 48.7439H252.3Z" fill="#EBEBEB"/>
<path d="M422.082 79.3139H429.503C429.775 79.3165 430.035 79.4293 430.227 79.6279C430.419 79.8266 430.528 80.0953 430.53 80.3763V356.074H441.614V80.3763C441.616 80.0953 441.725 79.8266 441.917 79.6279C442.109 79.4293 442.369 79.3165 442.641 79.3139H450.004C450.207 79.3141 450.406 79.2518 450.575 79.1351C450.744 79.0184 450.876 78.8524 450.953 78.6581C451.031 78.4639 451.051 78.2501 451.012 78.0439C450.972 77.8377 450.874 77.6483 450.73 77.4997L436.77 63.0669C436.679 62.9619 436.567 62.8779 436.443 62.8204C436.319 62.7629 436.184 62.7332 436.048 62.7332C435.912 62.7332 435.777 62.7629 435.652 62.8204C435.528 62.8779 435.417 62.9619 435.326 63.0669L421.365 77.4997C421.222 77.6477 421.124 77.8362 421.084 78.0415C421.044 78.2468 421.064 78.4597 421.14 78.6535C421.217 78.8474 421.347 79.0135 421.515 79.131C421.682 79.2484 421.88 79.3121 422.082 79.3139Z" fill="#81D0FF"/>
<path d="M194.458 37.2849V27.0617L189.372 26.5705C188.689 23.2018 187.401 19.9957 185.574 17.119L188.839 13.0397L181.854 5.81324L177.911 9.19094C175.134 7.30163 172.038 5.97199 168.784 5.272L168.3 0H158.418L157.943 5.272C154.689 5.96851 151.592 7.2984 148.817 9.19094L144.864 5.81324L137.879 13.0397L141.144 17.129C139.335 20.0061 138.063 23.2086 137.394 26.5705L132.308 27.0617V37.2849L137.394 37.7761C138.062 41.1319 139.334 44.3279 141.144 47.1975L137.879 51.3069L144.864 58.5333L148.817 55.1556C151.594 57.0441 154.69 58.3737 157.943 59.0746L158.418 64.3366H168.3L168.784 59.0746C172.036 58.37 175.132 57.0407 177.911 55.1556L181.854 58.5333L188.839 51.3069L185.574 47.1975C187.403 44.3254 188.691 41.1223 189.372 37.756L194.458 37.2849ZM163.359 46.0148C160.713 46.0148 158.127 45.2033 155.927 43.6828C153.727 42.1623 152.012 40.0012 150.999 37.4725C149.986 34.9439 149.72 32.1613 150.236 29.4766C150.751 26.7919 152.025 24.3256 153.895 22.3894C155.765 20.4532 158.148 19.1342 160.743 18.5989C163.337 18.0637 166.027 18.3364 168.472 19.3825C170.917 20.4286 173.007 22.2011 174.479 24.4761C175.95 26.751 176.736 29.4261 176.738 32.1633C176.74 33.9818 176.395 35.7828 175.723 37.4633C175.051 39.1438 174.066 40.6708 172.823 41.9572C171.581 43.2436 170.105 44.264 168.481 44.9602C166.857 45.6565 165.117 46.0148 163.359 46.0148Z" fill="#F5F5F5"/>
<path d="M234.5 66.1406V58.1224L230.518 57.7415C229.982 55.1022 228.973 52.5901 227.543 50.3346L230.101 47.1373L224.589 41.4744L221.498 44.1205C219.321 42.6419 216.896 41.5982 214.348 41.0435L213.97 36.9241H206.22L205.842 41.0435C203.293 41.5962 200.868 42.64 198.692 44.1205L195.592 41.4744L190.118 47.1373L192.685 50.3346C191.248 52.5856 190.238 55.0995 189.711 57.7415L185.719 58.1224V66.1406L189.711 66.5215C190.238 69.1636 191.248 71.6774 192.685 73.9284L190.118 77.1257L195.592 82.7886L198.692 80.1425C200.868 81.623 203.293 82.6668 205.842 83.2195L206.22 87.3389H213.97L214.348 83.2195C216.896 82.6648 219.321 81.6211 221.498 80.1425L224.589 82.7886L230.062 77.1257L227.505 73.9284C228.934 71.673 229.943 69.1608 230.479 66.5215L234.5 66.1406ZM210.134 72.9762C208.06 72.9762 206.034 72.3402 204.31 71.1485C202.586 69.9569 201.242 68.2632 200.449 66.2816C199.656 64.3 199.448 62.1195 199.852 60.0158C200.257 57.9121 201.255 55.9798 202.721 54.4631C204.187 52.9465 206.055 51.9136 208.089 51.4952C210.122 51.0767 212.23 51.2915 214.145 52.1123C216.061 52.9331 217.698 54.3231 218.85 56.1065C220.002 57.8899 220.616 59.9866 220.616 62.1315C220.616 65.0077 219.512 67.7661 217.546 69.7999C215.58 71.8336 212.914 72.9762 210.134 72.9762Z" fill="#F5F5F5"/>
<path d="M191.552 89.8848V83.1494L188.199 82.8287C187.752 80.6129 186.904 78.5045 185.7 76.6146L187.851 73.9284L183.258 69.1676L180.652 71.3927C178.825 70.1468 176.787 69.2694 174.646 68.8068L174.336 65.3389H167.835L167.515 68.8068C165.374 69.2713 163.336 70.1485 161.508 71.3927L158.912 69.1676L154.31 73.9284L156.461 76.6146C155.257 78.5045 154.408 80.6129 153.961 82.8287L150.619 83.1494V89.8848L153.961 90.2055C154.41 92.4208 155.258 94.5288 156.461 96.4197L154.31 99.1058L158.912 103.867L161.508 101.642C163.336 102.886 165.374 103.763 167.515 104.227L167.835 107.685H174.336L174.646 104.227C176.787 103.765 178.825 102.887 180.652 101.642L183.258 103.867L187.851 99.1058L185.7 96.4197C186.902 94.5288 187.75 92.4208 188.199 90.2055L191.552 89.8848ZM171.08 95.6279C169.339 95.6279 167.636 95.0935 166.188 94.0924C164.739 93.0913 163.611 91.6684 162.944 90.0036C162.278 88.3389 162.103 86.507 162.443 84.7397C162.783 82.9724 163.621 81.349 164.853 80.0748C166.085 78.8007 167.654 77.933 169.362 77.5814C171.071 77.2299 172.841 77.4103 174.45 78.0999C176.06 78.7894 177.435 79.9572 178.403 81.4554C179.37 82.9537 179.887 84.7152 179.887 86.5171C179.888 87.7139 179.661 88.8992 179.219 90.0052C178.777 91.1112 178.128 92.1161 177.31 92.9623C176.492 93.8086 175.521 94.4796 174.452 94.937C173.383 95.3944 172.237 95.6292 171.08 95.6279V95.6279Z" fill="#F5F5F5"/>
<path d="M456.437 252.602V262.815L461.533 263.316C462.21 266.682 463.495 269.885 465.321 272.758L462.056 276.837L469.041 284.073L472.994 280.686C475.768 282.582 478.865 283.915 482.12 284.615L482.595 289.877H492.525L493 284.615C496.255 283.915 499.352 282.582 502.126 280.686L506.079 284.073L513.064 276.837L509.799 272.758C511.625 269.885 512.91 266.682 513.588 263.316L518.674 262.815V252.602L513.588 252.101C512.91 248.735 511.625 245.532 509.799 242.659L513.064 238.58L506.079 231.343L502.126 234.731C499.35 232.839 496.254 231.506 493 230.802L492.525 225.54H482.643L482.169 230.802C478.915 231.506 475.818 232.839 473.042 234.731L469.089 231.343L462.056 238.57L465.321 242.649C463.487 245.522 462.198 248.729 461.523 252.101L456.437 252.602ZM487.536 243.872C490.18 243.88 492.763 244.698 494.959 246.224C497.154 247.75 498.863 249.914 499.869 252.444C500.876 254.974 501.135 257.756 500.615 260.438C500.094 263.121 498.817 265.583 496.944 267.515C495.071 269.447 492.687 270.761 490.093 271.292C487.499 271.823 484.811 271.546 482.368 270.497C479.926 269.449 477.838 267.674 476.37 265.399C474.901 263.124 474.118 260.449 474.118 257.713C474.118 255.892 474.465 254.089 475.14 252.407C475.815 250.725 476.804 249.198 478.05 247.912C479.297 246.626 480.776 245.607 482.404 244.914C484.032 244.221 485.776 243.867 487.536 243.872Z" fill="#F5F5F5"/>
<path d="M331.947 235.179V243.197L335.929 243.588C336.461 246.232 337.47 248.748 338.903 251.005L336.384 254.172L341.858 259.835L344.948 257.189C347.129 258.668 349.557 259.711 352.108 260.266L352.476 264.385H360.227L360.605 260.266C363.153 259.713 365.579 258.669 367.754 257.189L370.855 259.835L376.329 254.172L373.713 251.005C375.152 248.758 376.161 246.247 376.687 243.608L380.679 243.217V235.199L376.687 234.808C376.161 232.168 375.152 229.658 373.713 227.411L376.28 224.214L370.806 218.541L367.706 221.197C365.532 219.712 363.106 218.668 360.556 218.12L360.178 213.99H352.428L352.06 218.12C349.507 218.67 347.078 219.714 344.9 221.197L341.809 218.541L336.384 224.194L338.942 227.391C337.511 229.642 336.502 232.151 335.967 234.788L331.947 235.179ZM356.313 228.343C358.386 228.343 360.413 228.979 362.138 230.172C363.862 231.364 365.205 233.058 365.998 235.04C366.791 237.022 366.998 239.203 366.593 241.307C366.188 243.411 365.189 245.344 363.722 246.86C362.255 248.376 360.386 249.408 358.352 249.825C356.318 250.243 354.21 250.027 352.294 249.204C350.379 248.382 348.743 246.99 347.592 245.206C346.441 243.421 345.828 241.323 345.83 239.178C345.833 236.303 346.938 233.548 348.904 231.516C350.869 229.484 353.534 228.343 356.313 228.343V228.343Z" fill="#E0E0E0"/>
<path d="M374.895 211.435V218.16L378.247 218.491C378.696 220.706 379.544 222.814 380.746 224.705L378.596 227.391L383.198 232.152L385.794 229.957C387.619 231.203 389.658 232.078 391.801 232.533L392.111 236.001H398.621L398.931 232.533C401.073 232.076 403.112 231.202 404.938 229.957L407.534 232.182L412.136 227.421L410.015 224.705C411.217 222.814 412.065 220.706 412.514 218.491L415.857 218.16V211.435L412.514 211.104C412.064 208.892 411.216 206.788 410.015 204.9L412.165 202.214L407.564 197.453L404.967 199.688C403.141 198.44 401.103 197.562 398.96 197.102L398.65 193.634H392.14L391.83 197.102C389.687 197.56 387.648 198.438 385.823 199.688L383.227 197.453L378.625 202.214L380.776 204.9C379.573 206.791 378.725 208.899 378.276 211.114L374.895 211.435ZM395.366 205.692C397.108 205.692 398.81 206.226 400.259 207.227C401.707 208.228 402.836 209.651 403.502 211.316C404.169 212.981 404.343 214.812 404.003 216.58C403.664 218.347 402.825 219.97 401.593 221.245C400.362 222.519 398.792 223.386 397.084 223.738C395.376 224.089 393.605 223.909 391.996 223.22C390.387 222.53 389.011 221.362 388.044 219.864C387.076 218.366 386.559 216.604 386.559 214.802C386.559 212.386 387.487 210.069 389.139 208.36C390.79 206.651 393.03 205.692 395.366 205.692Z" fill="#E0E0E0"/>
<path d="M81.8292 261.128H98.0085C98.3037 261.126 98.5962 261.185 98.8694 261.301C99.1426 261.416 99.3911 261.587 99.6007 261.802C99.8103 262.017 99.9769 262.272 100.091 262.554C100.205 262.835 100.265 263.138 100.266 263.443V376.851H124.738V263.443C124.741 262.83 124.978 262.242 125.397 261.809C125.816 261.375 126.384 261.13 126.976 261.128H143.156C143.607 261.133 144.049 260.998 144.426 260.74C144.802 260.483 145.095 260.115 145.267 259.683C145.439 259.251 145.482 258.777 145.391 258.319C145.299 257.862 145.078 257.444 144.754 257.119L114.091 225.416C113.882 225.199 113.634 225.027 113.36 224.909C113.087 224.791 112.793 224.731 112.497 224.731C112.201 224.731 111.908 224.791 111.634 224.909C111.361 225.027 111.112 225.199 110.904 225.416L80.2306 257.139C79.9186 257.467 79.707 257.883 79.6221 258.335C79.5373 258.787 79.5829 259.255 79.7534 259.681C79.9239 260.106 80.2116 260.47 80.5807 260.727C80.9499 260.985 81.3841 261.124 81.8292 261.128Z" fill="#81D0FF"/>
<path d="M278.138 380.88L287.701 393.599L291.14 393.058L281.045 380.88H278.138Z" fill="#263238"/>
<path opacity="0.3" d="M278.138 380.88L287.701 393.599L291.14 393.058L281.045 380.88H278.138Z" fill="#0082CB"/>
<path d="M281.045 368.853L290.607 381.572L294.047 381.031L283.951 368.853H281.045Z" fill="#263238"/>
<path opacity="0.3" d="M281.045 368.853L290.607 381.572L294.047 381.031L283.951 368.853H281.045Z" fill="#0082CB"/>
<path d="M308.56 362.338H349.899L340.201 388.829H298.862L308.56 362.338Z" fill="#263238"/>
<path opacity="0.3" d="M308.56 362.338H349.899L340.201 388.829H298.862L308.56 362.338Z" fill="#0082CB"/>
<path d="M276.472 382.214H342.149V378.796H276.472V382.214Z" fill="#0082CB"/>
<path opacity="0.2" d="M316.94 382.214H342.149V378.796H316.94V382.214Z" fill="black"/>
<path d="M280.347 372.191H346.024V368.773H280.347V372.191Z" fill="#0082CB"/>
<path opacity="0.2" d="M320.815 372.191H346.024V368.773H320.815V372.191Z" fill="black"/>
<path d="M349.831 362.519L352.127 365.275L343.408 388.899H339.998L349.831 362.519Z" fill="#0082CB"/>
<path d="M259.905 376.37L255.468 377.513C255.64 376.27 256.15 375.104 256.939 374.151C257.729 373.198 258.764 372.497 259.924 372.13C261.312 371.8 262.769 371.998 264.027 372.688C265.285 373.378 266.26 374.515 266.774 375.889C267.156 376.839 267.26 377.885 267.074 378.896L293.833 395.554C296.963 392.828 300.673 394.882 302.204 397.097L297.786 398.22C297.292 398.35 296.867 398.677 296.604 399.129C296.341 399.581 296.261 400.122 296.381 400.635C296.444 400.891 296.554 401.131 296.706 401.342C296.858 401.554 297.049 401.732 297.267 401.867C297.486 402.002 297.728 402.091 297.98 402.129C298.232 402.167 298.489 402.153 298.736 402.089L303.173 400.946C303.002 402.188 302.491 403.353 301.702 404.304C300.912 405.256 299.876 405.955 298.716 406.318C297.334 406.677 295.873 406.512 294.598 405.851C293.324 405.191 292.32 404.08 291.77 402.72C291.367 401.836 291.232 400.848 291.382 399.884L264.633 383.226C261.988 385.09 257.851 383.737 256.34 381.522L260.816 380.299C261.067 380.237 261.303 380.124 261.511 379.966C261.719 379.808 261.894 379.609 262.027 379.381C262.159 379.152 262.246 378.898 262.283 378.634C262.32 378.37 262.305 378.101 262.24 377.843C262.118 377.328 261.804 376.884 261.367 376.608C260.929 376.332 260.404 376.246 259.905 376.37V376.37Z" fill="#263238"/>
<path opacity="0.6" d="M259.905 376.37L255.468 377.513C255.64 376.27 256.15 375.104 256.939 374.151C257.729 373.198 258.764 372.497 259.924 372.13C261.312 371.8 262.769 371.998 264.027 372.688C265.285 373.378 266.26 374.515 266.774 375.889C267.156 376.839 267.26 377.885 267.074 378.896L293.833 395.554C296.963 392.828 300.673 394.882 302.204 397.097L297.786 398.22C297.292 398.35 296.867 398.677 296.604 399.129C296.341 399.581 296.261 400.122 296.381 400.635C296.444 400.891 296.554 401.131 296.706 401.342C296.858 401.554 297.049 401.732 297.267 401.867C297.486 402.002 297.728 402.091 297.98 402.129C298.232 402.167 298.489 402.153 298.736 402.089L303.173 400.946C303.002 402.188 302.491 403.353 301.702 404.304C300.912 405.256 299.876 405.955 298.716 406.318C297.334 406.677 295.873 406.512 294.598 405.851C293.324 405.191 292.32 404.08 291.77 402.72C291.367 401.836 291.232 400.848 291.382 399.884L264.633 383.226C261.988 385.09 257.851 383.737 256.34 381.522L260.816 380.299C261.067 380.237 261.303 380.124 261.511 379.966C261.719 379.808 261.894 379.609 262.027 379.381C262.159 379.152 262.246 378.898 262.283 378.634C262.32 378.37 262.305 378.101 262.24 377.843C262.118 377.328 261.804 376.884 261.367 376.608C260.929 376.332 260.404 376.246 259.905 376.37V376.37Z" fill="white"/>
<path d="M268.702 410.428H340.201V388.829H268.702V410.428Z" fill="#2DB1FF"/>
<path opacity="0.2" d="M312.086 410.428H340.201V388.829H312.086V410.428Z" fill="black"/>
<path d="M365.313 404.955L368.539 401.608C369.021 402.766 369.171 404.042 368.972 405.286C368.773 406.53 368.232 407.688 367.416 408.624C366.393 409.652 365.046 410.264 363.622 410.347C362.198 410.43 360.793 409.978 359.665 409.075C358.867 408.459 358.256 407.621 357.902 406.659L326.686 406.709C325.359 410.718 321.164 410.949 318.742 409.867L321.968 406.549C322.326 406.174 322.527 405.668 322.527 405.141C322.527 404.614 322.326 404.108 321.968 403.733C321.788 403.546 321.574 403.398 321.339 403.297C321.104 403.197 320.852 403.145 320.597 403.145C320.343 403.145 320.09 403.197 319.855 403.297C319.62 403.398 319.406 403.546 319.226 403.733L316.039 407.06C315.56 405.901 315.412 404.624 315.613 403.381C315.814 402.137 316.355 400.979 317.172 400.044C318.176 398.995 319.511 398.353 320.934 398.237C322.357 398.121 323.773 398.539 324.923 399.413C325.713 399.953 326.325 400.729 326.677 401.638H357.902C359.229 398.631 363.424 397.629 365.846 398.631L362.542 402.069C362.358 402.255 362.211 402.478 362.111 402.725C362.011 402.971 361.959 403.235 361.959 403.502C361.959 403.769 362.011 404.033 362.111 404.28C362.211 404.526 362.358 404.749 362.542 404.935C362.722 405.128 362.936 405.281 363.173 405.386C363.411 405.491 363.666 405.547 363.924 405.548C364.182 405.55 364.438 405.499 364.676 405.397C364.915 405.295 365.132 405.145 365.313 404.955V404.955Z" fill="#263238"/>
<path opacity="0.6" d="M365.313 404.955L368.539 401.608C369.021 402.766 369.171 404.042 368.972 405.286C368.773 406.53 368.232 407.688 367.416 408.624C366.393 409.652 365.046 410.264 363.622 410.347C362.198 410.43 360.793 409.978 359.665 409.075C358.867 408.459 358.256 407.621 357.902 406.659L326.686 406.709C325.359 410.718 321.164 410.949 318.742 409.867L321.968 406.549C322.326 406.174 322.527 405.668 322.527 405.141C322.527 404.614 322.326 404.108 321.968 403.733C321.788 403.546 321.574 403.398 321.339 403.297C321.104 403.197 320.852 403.145 320.597 403.145C320.343 403.145 320.09 403.197 319.855 403.297C319.62 403.398 319.406 403.546 319.226 403.733L316.039 407.06C315.56 405.901 315.412 404.624 315.613 403.381C315.814 402.137 316.355 400.979 317.172 400.044C318.176 398.995 319.511 398.353 320.934 398.237C322.357 398.121 323.773 398.539 324.923 399.413C325.713 399.953 326.325 400.729 326.677 401.638H357.902C359.229 398.631 363.424 397.629 365.846 398.631L362.542 402.069C362.358 402.255 362.211 402.478 362.111 402.725C362.011 402.971 361.959 403.235 361.959 403.502C361.959 403.769 362.011 404.033 362.111 404.28C362.211 404.526 362.358 404.749 362.542 404.935C362.722 405.128 362.936 405.281 363.173 405.386C363.411 405.491 363.666 405.547 363.924 405.548C364.182 405.55 364.438 405.499 364.676 405.397C364.915 405.295 365.132 405.145 365.313 404.955Z" fill="white"/>
<path d="M132.718 334.835L138.744 327.278C139.235 326.654 139.854 326.151 140.556 325.804C141.258 325.458 142.026 325.276 142.803 325.273H148.374C148.694 325.273 149.008 325.364 149.281 325.536C149.554 325.708 149.777 325.954 149.924 326.248C150.071 326.542 150.137 326.872 150.115 327.202C150.093 327.532 149.983 327.85 149.798 328.12L145.923 333.793L132.718 334.835Z" fill="#2DB1FF"/>
<path opacity="0.3" d="M132.718 334.835L138.744 327.278C139.235 326.654 139.854 326.151 140.556 325.804C141.258 325.458 142.026 325.276 142.803 325.273H148.374C148.694 325.273 149.008 325.364 149.281 325.536C149.554 325.708 149.777 325.954 149.924 326.248C150.071 326.542 150.137 326.872 150.115 327.202C150.093 327.532 149.983 327.85 149.798 328.12L145.923 333.793L132.718 334.835Z" fill="black"/>
<path d="M69.0952 333.823L62.3135 310.781H127.089L132.718 334.836L69.0952 333.823Z" fill="#2DB1FF"/>
<path d="M62.3135 310.781L64.6871 307.604C65.2998 306.782 66.0867 306.117 66.987 305.66C67.8873 305.203 68.8771 304.966 69.88 304.968H125.229C125.589 304.968 125.944 305.051 126.27 305.21C126.595 305.369 126.883 305.601 127.112 305.888C127.342 306.175 127.507 306.51 127.597 306.871C127.687 307.232 127.698 307.608 127.632 307.974L127.089 310.741L62.3135 310.781Z" fill="#2DB1FF"/>
<path opacity="0.3" d="M69.0952 333.823L62.3135 310.781H127.089L132.718 334.836L69.0952 333.823Z" fill="black"/>
<path opacity="0.2" d="M62.3135 310.781L64.6871 307.604C65.2998 306.782 66.0867 306.117 66.987 305.66C67.8873 305.203 68.8771 304.966 69.88 304.968H125.229C125.589 304.968 125.944 305.051 126.27 305.21C126.595 305.369 126.883 305.601 127.112 305.888C127.342 306.175 127.507 306.51 127.597 306.871C127.687 307.232 127.698 307.608 127.632 307.974L127.089 310.741L62.3135 310.781Z" fill="black"/>
<path d="M96.3541 275.427L98.9854 276.022C99.1511 276.059 99.2956 276.163 99.3871 276.311C99.4787 276.459 99.5098 276.638 99.4736 276.809L98.7646 280.168L94.8839 279.291L95.5929 275.932C95.6109 275.848 95.6447 275.767 95.6927 275.696C95.7406 275.625 95.8017 275.564 95.8724 275.517C95.9431 275.47 96.022 275.438 96.1046 275.422C96.1873 275.407 96.272 275.409 96.3541 275.427V275.427Z" fill="#2DB1FF"/>
<path d="M103.741 277.107L106.372 277.702C106.454 277.72 106.532 277.756 106.601 277.805C106.67 277.855 106.729 277.918 106.774 277.991C106.819 278.064 106.85 278.146 106.865 278.231C106.88 278.317 106.878 278.405 106.861 278.489L106.151 281.848L102.28 280.973L102.979 277.663C102.997 277.578 103.031 277.498 103.079 277.426C103.127 277.355 103.188 277.294 103.259 277.247C103.329 277.2 103.408 277.168 103.491 277.153C103.574 277.138 103.658 277.139 103.74 277.158L103.741 277.107Z" fill="#2DB1FF"/>
<path d="M111.221 278.81L113.852 279.405C114.018 279.442 114.163 279.546 114.254 279.694C114.346 279.841 114.377 280.021 114.341 280.192L113.632 283.551L109.76 282.676L110.47 279.317C110.505 279.148 110.604 278.999 110.745 278.904C110.886 278.81 111.057 278.776 111.221 278.81V278.81Z" fill="#2DB1FF"/>
<path d="M118.653 280.463L121.285 281.057C121.367 281.076 121.444 281.111 121.513 281.16C121.582 281.21 121.641 281.273 121.687 281.346C121.732 281.419 121.763 281.501 121.778 281.587C121.793 281.672 121.791 281.76 121.773 281.845L121.064 285.203L117.193 284.329L117.904 280.96C117.942 280.793 118.041 280.647 118.181 280.554C118.321 280.461 118.49 280.429 118.653 280.463Z" fill="#2DB1FF"/>
<path d="M126.081 282.145L128.713 282.739C128.878 282.777 129.023 282.881 129.114 283.028C129.206 283.176 129.237 283.355 129.201 283.527L128.492 286.885L124.621 286.011L125.326 282.672C125.341 282.585 125.373 282.503 125.42 282.43C125.466 282.356 125.526 282.293 125.597 282.244C125.667 282.195 125.746 282.161 125.829 282.144C125.913 282.127 125.998 282.127 126.081 282.145V282.145Z" fill="#2DB1FF"/>
<path d="M133.507 283.826L136.139 284.421C136.221 284.439 136.298 284.474 136.367 284.524C136.436 284.574 136.495 284.637 136.54 284.71C136.586 284.783 136.617 284.865 136.632 284.95C136.646 285.036 136.645 285.123 136.627 285.208L135.918 288.567L132.047 287.692L132.756 284.334C132.791 284.164 132.89 284.015 133.031 283.921C133.172 283.826 133.343 283.792 133.507 283.826V283.826Z" fill="#2DB1FF"/>
<path d="M124.302 340.327L121.671 339.732C121.589 339.714 121.511 339.679 121.442 339.629C121.373 339.579 121.314 339.516 121.269 339.443C121.223 339.37 121.193 339.288 121.178 339.203C121.163 339.117 121.164 339.03 121.182 338.945L121.891 335.586L125.763 336.461L125.054 339.82C125.018 339.989 124.919 340.138 124.778 340.233C124.638 340.327 124.466 340.361 124.302 340.327V340.327Z" fill="#2DB1FF"/>
<path d="M116.917 338.643L114.286 338.048C114.12 338.011 113.975 337.907 113.884 337.759C113.792 337.612 113.761 337.432 113.797 337.261L114.507 333.902L118.378 334.778L117.669 338.136C117.633 338.306 117.534 338.454 117.393 338.549C117.252 338.644 117.081 338.678 116.917 338.643V338.643Z" fill="#2DB1FF"/>
<path d="M109.483 336.959L106.851 336.364C106.769 336.345 106.692 336.31 106.623 336.261C106.554 336.211 106.495 336.148 106.45 336.075C106.404 336.002 106.373 335.92 106.358 335.834C106.344 335.749 106.345 335.661 106.363 335.576L107.073 332.218L110.953 333.095L110.244 336.454C110.226 336.539 110.192 336.619 110.144 336.69C110.096 336.762 110.035 336.823 109.964 336.869C109.894 336.916 109.815 336.948 109.732 336.964C109.649 336.979 109.565 336.977 109.483 336.959Z" fill="#2DB1FF"/>
<path d="M102.056 335.284L99.4246 334.689C99.2589 334.652 99.1144 334.548 99.0229 334.4C98.9313 334.252 98.9003 334.073 98.9365 333.901L99.6461 330.543L103.517 331.418L102.808 334.777C102.772 334.947 102.673 335.095 102.532 335.19C102.391 335.285 102.22 335.318 102.056 335.284Z" fill="#2DB1FF"/>
<path d="M94.5704 333.613L91.9391 333.018C91.7734 332.981 91.6289 332.877 91.5373 332.729C91.4457 332.582 91.4146 332.402 91.4508 332.231L92.1598 328.872L96.0405 329.749L95.3315 333.108C95.2953 333.279 95.1948 333.429 95.0521 333.524C94.9093 333.618 94.736 333.65 94.5704 333.613Z" fill="#2DB1FF"/>
<path d="M87.1367 331.927L84.5053 331.333C84.3397 331.295 84.1952 331.191 84.1036 331.044C84.012 330.896 83.9809 330.717 84.0171 330.546L84.7261 327.187L88.6068 328.064L87.8978 331.422C87.8616 331.594 87.7611 331.743 87.6184 331.838C87.4756 331.933 87.3023 331.965 87.1367 331.927Z" fill="#2DB1FF"/>
<g opacity="0.4">
<path opacity="0.4" d="M96.3541 275.427L98.9854 276.022C99.1511 276.059 99.2956 276.163 99.3871 276.311C99.4787 276.459 99.5098 276.638 99.4736 276.809L98.7646 280.168L94.8839 279.291L95.5929 275.932C95.6109 275.848 95.6447 275.767 95.6927 275.696C95.7406 275.625 95.8017 275.564 95.8724 275.517C95.9431 275.47 96.022 275.438 96.1046 275.422C96.1873 275.407 96.272 275.409 96.3541 275.427V275.427Z" fill="white"/>
<path opacity="0.4" d="M103.741 277.107L106.372 277.702C106.454 277.72 106.532 277.756 106.601 277.805C106.67 277.855 106.729 277.918 106.774 277.991C106.819 278.064 106.85 278.146 106.865 278.231C106.88 278.317 106.878 278.405 106.861 278.489L106.151 281.848L102.28 280.973L102.979 277.663C102.997 277.578 103.031 277.498 103.079 277.426C103.127 277.355 103.188 277.294 103.259 277.247C103.329 277.2 103.408 277.168 103.491 277.153C103.574 277.138 103.658 277.139 103.74 277.158L103.741 277.107Z" fill="white"/>
<path opacity="0.4" d="M111.221 278.81L113.852 279.405C114.018 279.442 114.163 279.546 114.254 279.694C114.346 279.841 114.377 280.021 114.341 280.192L113.632 283.551L109.76 282.676L110.47 279.317C110.505 279.148 110.604 278.999 110.745 278.904C110.886 278.81 111.057 278.776 111.221 278.81V278.81Z" fill="white"/>
<path opacity="0.4" d="M118.653 280.463L121.285 281.057C121.367 281.076 121.444 281.111 121.513 281.16C121.582 281.21 121.641 281.273 121.687 281.346C121.732 281.419 121.763 281.501 121.778 281.587C121.793 281.672 121.791 281.76 121.773 281.845L121.064 285.203L117.193 284.329L117.904 280.96C117.942 280.793 118.041 280.647 118.181 280.554C118.321 280.461 118.49 280.429 118.653 280.463Z" fill="white"/>
<path opacity="0.4" d="M126.081 282.145L128.713 282.739C128.878 282.777 129.023 282.881 129.114 283.028C129.206 283.176 129.237 283.355 129.201 283.527L128.492 286.885L124.621 286.011L125.326 282.672C125.341 282.585 125.373 282.503 125.42 282.43C125.466 282.356 125.526 282.293 125.597 282.244C125.667 282.195 125.746 282.161 125.829 282.144C125.913 282.127 125.998 282.127 126.081 282.145V282.145Z" fill="white"/>
<path opacity="0.4" d="M133.507 283.826L136.139 284.421C136.221 284.439 136.298 284.474 136.367 284.524C136.436 284.574 136.495 284.637 136.54 284.71C136.586 284.783 136.617 284.865 136.632 284.95C136.646 285.036 136.645 285.123 136.627 285.208L135.918 288.567L132.047 287.692L132.756 284.334C132.791 284.164 132.89 284.015 133.031 283.921C133.172 283.826 133.343 283.792 133.507 283.826V283.826Z" fill="white"/>
<path opacity="0.4" d="M124.302 340.327L121.671 339.732C121.589 339.714 121.511 339.679 121.442 339.629C121.373 339.579 121.314 339.516 121.269 339.443C121.223 339.37 121.193 339.288 121.178 339.203C121.163 339.117 121.164 339.03 121.182 338.945L121.891 335.586L125.763 336.461L125.054 339.82C125.018 339.989 124.919 340.138 124.778 340.233C124.638 340.327 124.466 340.361 124.302 340.327V340.327Z" fill="white"/>
<path opacity="0.4" d="M116.917 338.643L114.286 338.048C114.12 338.011 113.975 337.907 113.884 337.759C113.792 337.612 113.761 337.432 113.797 337.261L114.507 333.902L118.378 334.778L117.669 338.136C117.633 338.306 117.534 338.454 117.393 338.549C117.252 338.644 117.081 338.678 116.917 338.643V338.643Z" fill="white"/>
<path opacity="0.4" d="M109.483 336.959L106.851 336.364C106.769 336.345 106.692 336.31 106.623 336.261C106.554 336.211 106.495 336.148 106.45 336.075C106.404 336.002 106.373 335.92 106.358 335.834C106.344 335.749 106.345 335.661 106.363 335.576L107.073 332.218L110.953 333.095L110.244 336.454C110.226 336.539 110.192 336.619 110.144 336.69C110.096 336.762 110.035 336.823 109.964 336.869C109.894 336.916 109.815 336.948 109.732 336.964C109.649 336.979 109.565 336.977 109.483 336.959Z" fill="white"/>
<path opacity="0.4" d="M102.056 335.284L99.4246 334.689C99.2589 334.652 99.1144 334.548 99.0229 334.4C98.9313 334.252 98.9003 334.073 98.9365 333.901L99.6461 330.543L103.517 331.418L102.808 334.777C102.772 334.947 102.673 335.095 102.532 335.19C102.391 335.285 102.22 335.318 102.056 335.284Z" fill="white"/>
<path opacity="0.4" d="M94.5704 333.613L91.9391 333.018C91.7734 332.981 91.6289 332.877 91.5373 332.729C91.4457 332.582 91.4146 332.402 91.4508 332.231L92.1598 328.872L96.0405 329.749L95.3315 333.108C95.2953 333.279 95.1948 333.429 95.0521 333.524C94.9093 333.618 94.736 333.65 94.5704 333.613Z" fill="white"/>
<path opacity="0.4" d="M87.1365 331.927L84.5052 331.333C84.3395 331.295 84.195 331.191 84.1035 331.044C84.0119 330.896 83.9808 330.717 84.017 330.546L84.726 327.187L88.6067 328.064L87.8977 331.422C87.8615 331.594 87.761 331.743 87.6182 331.838C87.4755 331.933 87.3022 331.965 87.1365 331.927Z" fill="white"/>
</g>
<path d="M141.261 288.344L92.3359 277.29C90.4749 276.87 88.6368 278.09 88.2304 280.015L79.0169 323.658C78.6105 325.583 79.7896 327.485 81.6506 327.905L130.576 338.959C132.437 339.38 134.275 338.16 134.681 336.235L143.895 292.592C144.301 290.667 143.122 288.765 141.261 288.344Z" fill="#0082CB"/>
<path opacity="0.4" d="M86.3596 328.972L81.6318 327.91C81.1889 327.81 80.7694 327.621 80.3972 327.353C80.025 327.086 79.7075 326.745 79.4627 326.35C79.218 325.955 79.0509 325.515 78.9709 325.053C78.8909 324.591 78.8996 324.118 78.9966 323.66L88.2101 280.071C88.3054 279.612 88.4874 279.177 88.7458 278.791C89.0042 278.406 89.3338 278.077 89.7156 277.823C90.0974 277.57 90.5239 277.397 90.9705 277.315C91.4172 277.233 91.8751 277.243 92.3179 277.345L97.0458 278.407C96.1609 278.203 95.234 278.368 94.4665 278.868C93.6991 279.367 93.1532 280.16 92.9476 281.073L83.7244 324.722C83.6262 325.181 83.6164 325.654 83.6959 326.116C83.7753 326.578 83.9423 327.02 84.1872 327.415C84.4321 327.81 84.7502 328.151 85.123 328.418C85.4959 328.685 85.9161 328.874 86.3596 328.972Z" fill="black"/>
<path d="M113.312 298.764L106.376 316.805L102.714 315.983L103.682 296.629L106.473 297.26L105.436 312.395L110.58 298.112L113.312 298.764Z" fill="#2DB1FF"/>
<path d="M113.08 310.861L111.539 310.51L111.743 309.508C112.121 309.606 112.517 309.605 112.895 309.503C113.273 309.401 113.619 309.203 113.903 308.927L114.872 309.147L112.935 318.428L111.578 318.127L113.08 310.861Z" fill="#2DB1FF"/>
<path d="M114.737 317.406L116.103 317.716L115.802 319.11L114.446 318.799L114.737 317.406Z" fill="#2DB1FF"/>
<path d="M117.653 317.295L117.711 317.025L119.048 317.185L118.98 317.486C118.825 318.228 119.067 318.598 119.571 318.709C119.681 318.738 119.797 318.743 119.909 318.721C120.021 318.699 120.127 318.652 120.219 318.584C120.312 318.515 120.389 318.425 120.444 318.322C120.499 318.219 120.532 318.105 120.54 317.987L120.995 315.842C121.038 315.739 121.057 315.628 121.051 315.516C121.045 315.404 121.015 315.296 120.961 315.198C120.907 315.101 120.833 315.018 120.743 314.956C120.653 314.894 120.55 314.854 120.443 314.84C120.329 314.809 120.209 314.804 120.093 314.824C119.976 314.845 119.865 314.89 119.767 314.959C119.669 315.027 119.586 315.116 119.524 315.22C119.462 315.324 119.422 315.44 119.406 315.562V315.722L118.098 315.421L119.222 310.119L123.098 310.991L122.817 312.324L120.24 311.743L119.755 314.048C119.943 313.864 120.173 313.732 120.424 313.665C120.675 313.598 120.938 313.599 121.189 313.667C121.421 313.714 121.64 313.812 121.833 313.954C122.025 314.096 122.185 314.28 122.303 314.492C122.42 314.704 122.493 314.939 122.514 315.183C122.536 315.426 122.507 315.672 122.429 315.902L121.935 318.238C121.871 318.528 121.753 318.804 121.587 319.047C121.42 319.291 121.209 319.498 120.965 319.657C120.722 319.816 120.45 319.924 120.166 319.975C119.882 320.025 119.591 320.017 119.309 319.952C119.028 319.886 118.762 319.763 118.527 319.591C118.292 319.419 118.091 319.201 117.937 318.948C117.783 318.696 117.679 318.415 117.63 318.121C117.582 317.827 117.589 317.526 117.653 317.235V317.295Z" fill="#2DB1FF"/>
<path d="M77.5488 322.01L78.1235 319.288C78.1597 319.117 78.2602 318.967 78.4029 318.872C78.5457 318.778 78.7189 318.745 78.8846 318.783L82.1406 319.519L81.2931 323.533L78.0465 322.8C77.9634 322.782 77.8845 322.748 77.8144 322.699C77.7442 322.649 77.6842 322.586 77.6379 322.513C77.5916 322.439 77.5598 322.357 77.5446 322.271C77.5293 322.184 77.5307 322.096 77.5488 322.01Z" fill="#2DB1FF"/>
<path d="M79.1718 314.372L79.747 311.65C79.7832 311.478 79.8837 311.329 80.0265 311.234C80.1692 311.139 80.3425 311.107 80.5082 311.145L83.7546 311.879L82.9084 315.884L79.662 315.15C79.4964 315.112 79.3518 315.008 79.2603 314.86C79.1688 314.713 79.1377 314.533 79.1739 314.362L79.1718 314.372Z" fill="#2DB1FF"/>
<path d="M80.7952 306.675L81.3704 303.953C81.3883 303.868 81.4222 303.788 81.4702 303.716C81.5181 303.645 81.5792 303.584 81.6499 303.537C81.7206 303.49 81.7995 303.458 81.8822 303.443C81.9648 303.428 82.0496 303.429 82.1316 303.448L85.378 304.182L84.5298 308.197L81.2834 307.463C81.2013 307.444 81.1236 307.409 81.0547 307.359C80.9858 307.31 80.927 307.247 80.8816 307.173C80.8363 307.1 80.8054 307.019 80.7905 306.933C80.7757 306.848 80.7773 306.76 80.7952 306.675Z" fill="#2DB1FF"/>
<path d="M82.4165 298.998L82.9917 296.276C83.0096 296.191 83.0435 296.111 83.0915 296.04C83.1394 295.968 83.2005 295.907 83.2712 295.861C83.3418 295.814 83.4208 295.782 83.5034 295.766C83.5861 295.751 83.6708 295.753 83.7529 295.771L87.0182 296.51L86.1721 300.514L82.9256 299.78C82.8423 299.764 82.7628 299.731 82.6919 299.683C82.6211 299.635 82.5602 299.572 82.5128 299.5C82.4654 299.427 82.4325 299.345 82.416 299.259C82.3994 299.173 82.3996 299.084 82.4165 298.998V298.998Z" fill="#2DB1FF"/>
<path d="M84.0459 291.258L84.6205 288.536C84.6567 288.364 84.7572 288.215 84.9 288.12C85.0427 288.025 85.216 287.993 85.3817 288.031L88.6282 288.764L87.7807 292.779L84.5341 292.045C84.3684 292.008 84.2239 291.904 84.1323 291.756C84.0408 291.609 84.0097 291.429 84.0459 291.258Z" fill="#2DB1FF"/>
<path d="M85.6593 283.561L86.2339 280.838C86.2701 280.667 86.3706 280.517 86.5134 280.423C86.6561 280.328 86.8294 280.296 86.9951 280.333L90.2416 281.067L89.3941 285.081L86.1475 284.348C85.9818 284.311 85.8373 284.207 85.7457 284.059C85.6542 283.911 85.6231 283.732 85.6593 283.561V283.561Z" fill="#2DB1FF"/>
<g opacity="0.4">
<path opacity="0.4" d="M77.5488 322.01L78.1235 319.288C78.1597 319.117 78.2602 318.967 78.4029 318.872C78.5457 318.778 78.7189 318.745 78.8846 318.783L82.1406 319.519L81.2931 323.533L78.0465 322.8C77.9634 322.782 77.8845 322.748 77.8144 322.699C77.7442 322.649 77.6842 322.586 77.6379 322.513C77.5916 322.439 77.5598 322.357 77.5446 322.271C77.5293 322.184 77.5307 322.096 77.5488 322.01Z" fill="white"/>
<path opacity="0.4" d="M79.1718 314.372L79.747 311.65C79.7832 311.478 79.8837 311.329 80.0265 311.234C80.1692 311.139 80.3425 311.107 80.5082 311.145L83.7546 311.879L82.9084 315.884L79.662 315.15C79.4964 315.112 79.3518 315.008 79.2603 314.86C79.1688 314.713 79.1377 314.533 79.1739 314.362L79.1718 314.372Z" fill="white"/>
<path opacity="0.4" d="M80.7952 306.675L81.3704 303.953C81.3883 303.868 81.4222 303.788 81.4702 303.716C81.5181 303.645 81.5792 303.584 81.6499 303.537C81.7206 303.49 81.7995 303.458 81.8822 303.443C81.9648 303.428 82.0496 303.429 82.1316 303.448L85.378 304.182L84.5298 308.197L81.2834 307.463C81.2013 307.444 81.1236 307.409 81.0547 307.359C80.9858 307.31 80.927 307.247 80.8816 307.173C80.8363 307.1 80.8054 307.019 80.7905 306.933C80.7757 306.848 80.7773 306.76 80.7952 306.675Z" fill="white"/>
<path opacity="0.4" d="M82.4165 298.998L82.9917 296.276C83.0096 296.191 83.0435 296.111 83.0915 296.04C83.1394 295.968 83.2005 295.907 83.2712 295.861C83.3418 295.814 83.4208 295.782 83.5034 295.766C83.5861 295.751 83.6708 295.753 83.7529 295.771L87.0182 296.51L86.1721 300.514L82.9256 299.78C82.8423 299.764 82.7628 299.731 82.6919 299.683C82.6211 299.635 82.5602 299.572 82.5128 299.5C82.4654 299.427 82.4325 299.345 82.416 299.259C82.3994 299.173 82.3996 299.084 82.4165 298.998V298.998Z" fill="white"/>
<path opacity="0.4" d="M84.0459 291.258L84.6205 288.536C84.6567 288.365 84.7572 288.215 84.9 288.12C85.0427 288.026 85.216 287.994 85.3817 288.031L88.6282 288.764L87.7807 292.779L84.5341 292.046C84.3684 292.008 84.2239 291.904 84.1323 291.757C84.0408 291.609 84.0097 291.43 84.0459 291.258Z" fill="white"/>
<path opacity="0.4" d="M85.6593 283.561L86.2339 280.838C86.2701 280.667 86.3706 280.517 86.5134 280.423C86.6561 280.328 86.8294 280.296 86.9951 280.333L90.2416 281.067L89.3941 285.081L86.1475 284.348C85.9818 284.311 85.8373 284.207 85.7457 284.059C85.6542 283.911 85.6231 283.732 85.6593 283.561V283.561Z" fill="white"/>
</g>
<path d="M145.942 333.823H69.0953V410.428H145.942V333.823Z" fill="#2DB1FF"/>
<path opacity="0.2" d="M81.9904 333.823H69.0953V410.428H81.9904V333.823Z" fill="black"/>
<path d="M81.9904 333.823L74.9471 324.893C74.4304 324.243 73.7812 323.719 73.0459 323.358C72.3107 322.998 71.5075 322.81 70.6939 322.808H65.0263C64.6192 322.807 64.2201 322.925 63.8753 323.149C63.5306 323.373 63.2544 323.694 63.0789 324.074C62.9033 324.454 62.8356 324.877 62.8837 325.296C62.9317 325.714 63.0935 326.11 63.3503 326.436L69.0954 333.823H81.9904Z" fill="#2DB1FF"/>
<path d="M265.398 194.686C260.351 197.272 249.81 201.852 239.909 201.121C237.482 200.967 235.093 200.426 232.826 199.517C229.581 198.184 227.517 194.796 226.287 190.306C221.801 174.079 228.079 143.449 228.079 143.449C237.206 144.993 246.022 181.807 249.471 183.821C252.92 185.836 267.598 185.134 267.598 185.134L268.082 189.635C268.192 190.66 267.993 191.695 267.512 192.6C267.032 193.504 266.294 194.232 265.398 194.686V194.686Z" fill="#2DB1FF"/>
<path opacity="0.3" d="M239.909 201.121C237.482 200.967 235.093 200.426 232.827 199.517C229.581 198.184 227.517 194.797 226.287 190.306C226.636 187.881 227.052 186.167 227.052 186.167L243.832 181.156C243.832 181.156 244.53 193.714 239.909 201.121Z" fill="black"/>
<path d="M226.752 402.73L234.861 403.612L236.382 385.521L228.283 384.639L226.752 402.73Z" fill="#FFBE9D"/>
<path d="M186.304 402.109H194.161L194.81 383.286H186.943L186.304 402.109Z" fill="#FFBE9D"/>
<path d="M195.256 401.177H185.713C185.556 401.177 185.404 401.231 185.281 401.331C185.158 401.431 185.071 401.571 185.034 401.728L183.494 408.964C183.461 409.118 183.459 409.278 183.486 409.433C183.513 409.588 183.57 409.736 183.653 409.868C183.735 410.001 183.843 410.115 183.969 410.204C184.095 410.293 184.236 410.356 184.385 410.388C184.469 410.398 184.554 410.398 184.637 410.388C187.728 410.338 189.975 410.137 193.851 410.137C196.244 410.137 203.442 410.398 206.746 410.398C210.05 410.398 210.466 407.03 209.119 406.719C203.064 405.346 198.511 403.462 196.573 401.658C196.207 401.333 195.737 401.162 195.256 401.177Z" fill="#0082CB"/>
<path d="M195.788 402.349C195.753 402.34 195.721 402.319 195.697 402.291C195.673 402.262 195.657 402.227 195.653 402.189C195.643 402.152 195.646 402.112 195.662 402.077C195.678 402.042 195.706 402.014 195.74 401.999C196.021 401.808 198.559 400.205 199.431 400.666C199.528 400.716 199.609 400.794 199.666 400.889C199.722 400.985 199.752 401.095 199.751 401.207C199.771 401.395 199.745 401.585 199.676 401.76C199.606 401.935 199.496 402.09 199.354 402.209C198.913 402.519 198.383 402.664 197.852 402.62C197.157 402.61 196.464 402.519 195.788 402.349V402.349ZM196.331 402.079C197.248 402.395 198.247 402.345 199.131 401.939C199.223 401.853 199.293 401.745 199.335 401.624C199.378 401.503 199.391 401.374 199.373 401.247C199.373 401.087 199.305 401.016 199.257 401.016C199.183 400.974 199.098 400.957 199.015 400.966C198.064 401.144 197.154 401.505 196.331 402.029V402.079Z" fill="#2DB1FF"/>
<path d="M195.74 402.349C195.713 402.331 195.69 402.305 195.675 402.276C195.66 402.246 195.652 402.213 195.653 402.179C195.653 402.059 195.846 399.723 196.757 398.962C196.863 398.861 196.99 398.787 197.127 398.744C197.265 398.7 197.41 398.689 197.552 398.711C197.694 398.711 197.831 398.762 197.941 398.855C198.05 398.948 198.125 399.078 198.152 399.222C198.307 400.074 196.738 401.868 195.934 402.319H195.837C195.808 402.34 195.774 402.35 195.74 402.349V402.349ZM196.999 399.192C196.435 399.916 196.097 400.8 196.031 401.728C196.844 401.096 197.842 399.723 197.736 399.222C197.736 399.172 197.736 399.022 197.474 399.022H197.377C197.237 399.029 197.104 399.085 196.999 399.182V399.192Z" fill="#2DB1FF"/>
<path d="M235.723 400.916H226.18C226.024 400.917 225.872 400.973 225.751 401.075C225.629 401.177 225.545 401.319 225.512 401.478L223.962 408.714C223.929 408.867 223.927 409.026 223.954 409.181C223.981 409.335 224.038 409.482 224.121 409.614C224.204 409.746 224.311 409.859 224.437 409.947C224.563 410.035 224.704 410.096 224.853 410.127H225.105C228.196 410.077 230.443 409.877 234.319 409.877C236.712 409.877 243.92 410.137 247.214 410.137C250.508 410.137 250.944 406.77 249.587 406.459C243.532 405.096 238.93 403.201 236.992 401.397C236.639 401.085 236.188 400.914 235.723 400.916Z" fill="#0082CB"/>
<path d="M236.256 402.039C236.221 402.029 236.189 402.009 236.165 401.98C236.141 401.951 236.125 401.916 236.121 401.878C236.117 401.841 236.123 401.804 236.138 401.77C236.153 401.737 236.178 401.708 236.208 401.688C236.489 401.508 239.027 399.894 239.899 400.355C239.998 400.402 240.081 400.479 240.138 400.575C240.195 400.672 240.223 400.783 240.219 400.896C240.238 401.083 240.213 401.272 240.145 401.447C240.078 401.622 239.97 401.777 239.831 401.898C239.388 402.211 238.854 402.356 238.32 402.309C237.624 402.299 236.932 402.209 236.256 402.039V402.039ZM236.799 401.768C237.716 402.084 238.715 402.034 239.599 401.628C239.691 401.541 239.761 401.434 239.805 401.313C239.849 401.193 239.864 401.064 239.851 400.936C239.851 400.776 239.783 400.706 239.725 400.706C239.654 400.664 239.573 400.647 239.492 400.656C238.535 400.848 237.621 401.225 236.799 401.768Z" fill="#2DB1FF"/>
<path d="M236.208 402.079C236.18 402.061 236.157 402.036 236.142 402.006C236.126 401.976 236.119 401.942 236.121 401.908C236.121 401.798 236.324 399.453 237.235 398.691C237.34 398.592 237.465 398.519 237.6 398.475C237.736 398.432 237.879 398.42 238.019 398.44C238.161 398.44 238.299 398.491 238.409 398.584C238.518 398.678 238.593 398.807 238.62 398.952C238.775 399.804 237.206 401.598 236.402 402.049H236.314C236.282 402.069 236.245 402.08 236.208 402.079ZM237.467 398.922C236.902 399.649 236.564 400.537 236.498 401.467C237.312 400.836 238.31 399.463 238.213 398.952C238.213 398.902 238.213 398.751 237.942 398.751H237.855C237.711 398.761 237.574 398.821 237.467 398.922Z" fill="#2DB1FF"/>
<path opacity="0.2" d="M228.283 384.639L236.382 385.521L235.597 394.852L227.488 393.97L228.283 384.639Z" fill="black"/>
<path opacity="0.2" d="M186.943 383.296H194.81L194.471 393.008H186.604L186.943 383.296Z" fill="black"/>
<path d="M190.189 218.17H231.848C235.81 240.561 248.221 319.811 239.318 390.422L225.202 388.608C225.202 388.608 226.51 294.875 214.041 260.216C212.607 278.758 210.912 298.493 209.429 308.997C205.845 334.846 198.075 391.324 198.075 391.324H183.707C183.707 391.324 186.614 337.261 188.009 311.863C189.491 284.281 190.092 223.833 190.189 218.17Z" fill="#0082CB"/>
<path opacity="0.2" d="M214.089 260.216C216.14 266.291 217.695 272.534 218.74 278.878C219.912 262.37 215.242 244.871 215.242 244.871L214.089 260.216Z" fill="black"/>
<path d="M240.965 393.83L223.497 391.134L224.03 386.132L242.205 388.598L240.965 393.83Z" fill="#2DB1FF"/>
<path opacity="0.6" d="M240.965 393.83L223.497 391.134L224.03 386.132L242.205 388.598L240.965 393.83Z" fill="white"/>
<path d="M199.809 391.445H182.855V386.203L200.448 385.862L199.809 391.445Z" fill="#2DB1FF"/>
<path opacity="0.6" d="M199.809 391.445H182.855V386.203L200.448 385.862L199.809 391.445Z" fill="white"/>
<path d="M189.307 234.306V238.967L235.491 236.632V232.422L189.307 234.306Z" fill="#2DB1FF"/>
<path d="M263.529 187.861C263.529 187.861 263.267 190.086 266.716 192.03H271.124C272.009 192.584 273.002 192.927 274.031 193.033C275.184 192.983 280.706 188.763 281.704 187.851C282.702 186.939 279.979 176.736 279.979 176.736L263.529 187.861Z" fill="#FFBE9D"/>
<path d="M228.079 143.45C228.079 143.45 201.553 142.117 181.799 147.278C181.799 147.278 188.183 206.413 188.222 233.635C188.22 233.916 188.274 234.195 188.38 234.453C188.485 234.712 188.641 234.947 188.836 235.141C189.032 235.336 189.264 235.488 189.518 235.588C189.772 235.687 190.043 235.732 190.315 235.72L234.88 234.116C235.145 234.106 235.405 234.042 235.646 233.927C235.887 233.813 236.103 233.65 236.283 233.449C236.463 233.248 236.603 233.012 236.695 232.755C236.787 232.498 236.828 232.225 236.818 231.951C236.421 220.716 234.222 167.254 228.079 143.45Z" fill="#2DB1FF"/>
<path opacity="0.2" d="M236.818 231.961C236.829 232.235 236.787 232.508 236.695 232.765C236.603 233.022 236.463 233.258 236.283 233.459C236.103 233.66 235.887 233.823 235.646 233.937C235.405 234.052 235.145 234.116 234.88 234.126L190.315 235.73C190.043 235.742 189.772 235.697 189.518 235.598C189.264 235.498 189.032 235.346 188.836 235.151C188.641 234.957 188.485 234.722 188.38 234.464C188.274 234.205 188.22 233.926 188.222 233.645C188.222 228.112 187.941 221.247 187.515 213.83C187.311 210.482 187.088 207.024 186.837 203.516C186.556 199.407 186.236 195.238 185.868 191.128C185.112 181.747 184.289 172.656 183.572 165.209C182.545 154.575 181.76 147.288 181.76 147.288C201.514 142.127 228.041 143.46 228.041 143.46C234.222 167.254 236.421 220.716 236.818 231.961Z" fill="black"/>
<path d="M196.874 144.512C200.749 148.11 210.079 146.777 210.079 146.777C210.079 146.777 215.892 145.113 214.7 143.229C211.251 142.638 209.584 140.974 208.887 138.839C208.513 137.519 208.395 136.137 208.538 134.77C208.596 134.018 208.703 133.246 208.829 132.494L197.203 123.614C198.811 129.478 200.623 140.262 196.874 144.512Z" fill="#FFBE9D"/>
<path opacity="0.2" d="M199.925 129.257C200.39 136.453 206.106 138.438 208.896 138.839C208.523 137.519 208.404 136.137 208.548 134.77L199.925 129.257Z" fill="black"/>
<path d="M219.931 106.516C219.931 106.516 221.578 117.711 215.833 122.021C210.088 126.331 210.088 105.483 210.088 105.483L219.931 106.516Z" fill="#263238"/>
<path d="M199.15 130.921C200.354 132.767 202.11 134.153 204.15 134.865C206.189 135.576 208.398 135.575 210.437 134.86C213.091 133.992 215.325 132.11 216.686 129.598C216.878 129.25 217.052 128.892 217.209 128.526C220.028 121.68 220.929 109.713 213.934 105.223C212.394 104.224 210.633 103.65 208.817 103.555C207.002 103.46 205.194 103.846 203.563 104.678C201.933 105.509 200.536 106.759 199.504 108.306C198.472 109.854 197.84 111.65 197.668 113.521C196.796 121.53 195.905 126.19 199.15 130.921Z" fill="#FFBE9D"/>
<path d="M208.935 117.801C208.79 118.433 209.071 119.024 209.478 119.094C209.885 119.164 210.311 118.703 210.447 118.092C210.582 117.481 210.301 116.859 209.894 116.789C209.488 116.719 209.052 117.15 208.935 117.801Z" fill="#263238"/>
<path d="M215.998 119.044C215.843 119.685 216.134 120.277 216.541 120.347C216.947 120.417 217.364 119.946 217.509 119.345C217.655 118.743 217.364 118.112 216.957 118.042C216.55 117.972 216.095 118.433 215.998 119.044Z" fill="#263238"/>
<path d="M213.702 118.974C214.124 121.065 214.818 123.088 215.766 124.987C215.284 125.226 214.759 125.354 214.226 125.362C213.692 125.371 213.163 125.26 212.675 125.037L213.702 118.974Z" fill="#E58A7B"/>
<path d="M207.133 115.045C207.197 115.07 207.267 115.076 207.334 115.062C207.401 115.048 207.462 115.014 207.511 114.965C207.844 114.626 208.249 114.373 208.692 114.223C209.136 114.074 209.607 114.032 210.069 114.103C210.115 114.116 210.164 114.12 210.212 114.114C210.26 114.107 210.306 114.091 210.347 114.066C210.389 114.04 210.425 114.007 210.454 113.966C210.483 113.926 210.503 113.881 210.515 113.832C210.528 113.783 210.531 113.731 210.524 113.68C210.517 113.63 210.501 113.581 210.476 113.537C210.45 113.493 210.417 113.455 210.377 113.425C210.337 113.394 210.291 113.373 210.243 113.361V113.361C209.666 113.25 209.071 113.284 208.508 113.458C207.946 113.632 207.431 113.943 207.007 114.363C206.973 114.399 206.945 114.441 206.927 114.487C206.908 114.534 206.898 114.584 206.898 114.634C206.898 114.684 206.908 114.734 206.927 114.781C206.945 114.827 206.973 114.869 207.007 114.905V114.905C207.038 114.961 207.081 115.009 207.133 115.045V115.045Z" fill="#263238"/>
<path d="M211.106 128.245C210.189 128.225 209.29 127.977 208.484 127.524C207.678 127.071 206.989 126.424 206.475 125.639C206.45 125.591 206.444 125.535 206.459 125.483C206.473 125.43 206.507 125.386 206.552 125.358C206.595 125.332 206.646 125.323 206.694 125.334C206.743 125.345 206.786 125.376 206.814 125.419C207.301 126.136 207.944 126.726 208.691 127.142C209.437 127.558 210.268 127.788 211.115 127.814C211.167 127.814 211.216 127.835 211.252 127.873C211.289 127.91 211.309 127.961 211.309 128.014C211.309 128.068 211.289 128.119 211.252 128.156C211.216 128.194 211.167 128.215 211.115 128.215L211.106 128.245Z" fill="#263238"/>
<path d="M219.447 117.069C219.516 117.094 219.591 117.094 219.66 117.069C219.754 117.041 219.833 116.976 219.88 116.888C219.928 116.799 219.939 116.695 219.912 116.598V116.598C219.758 116.009 219.47 115.465 219.073 115.014C218.675 114.562 218.179 114.216 217.626 114.002C217.532 113.974 217.431 113.984 217.344 114.031C217.258 114.077 217.192 114.157 217.161 114.253V114.253C217.136 114.35 217.149 114.453 217.196 114.54C217.243 114.628 217.32 114.694 217.413 114.724V114.724C217.846 114.905 218.232 115.187 218.541 115.549C218.851 115.911 219.075 116.342 219.195 116.809C219.212 116.871 219.244 116.928 219.288 116.974C219.332 117.019 219.387 117.052 219.447 117.069V117.069Z" fill="#263238"/>
<path d="M204.924 104.671V108.25C204.315 108.458 203.804 108.897 203.494 109.479C203.185 110.061 203.101 110.743 203.258 111.387C204.004 114.494 201.834 118.884 199.383 120.407C199.383 120.407 199.47 119.114 198.414 119.285C197.358 119.455 196.835 126.18 198.501 129.628C198.501 129.628 195.75 126.351 194.839 119.114C193.986 112.419 194.422 106.987 196.011 104.641L204.924 104.671Z" fill="#263238"/>
<path d="M193.231 119.435C193.789 121.38 195.066 123.019 196.786 123.995C199.073 125.268 200.788 123.294 200.662 120.748C200.497 118.493 199.141 115.035 196.612 114.844C194.083 114.654 192.582 117.039 193.231 119.435Z" fill="#FFBE9D"/>
<path d="M204.924 108.199C204.924 108.199 207.162 110.494 209.342 108.811C209.342 108.811 211.813 110.935 213.818 109.432C214.138 109.975 214.56 110.446 215.059 110.816C215.558 111.187 216.125 111.449 216.725 111.587C216.956 111.625 217.193 111.608 217.417 111.539C217.641 111.47 217.848 111.35 218.022 111.188C218.195 111.025 218.332 110.825 218.421 110.601C218.51 110.377 218.549 110.135 218.536 109.893C218.536 109.893 221.394 111.587 222.412 110.795C223.429 110.003 221.83 106.786 221.83 106.786C221.83 106.786 223.177 106.044 222.315 103.488C221.453 100.933 217.471 101.484 217.471 101.484C217.471 101.484 217.626 99.1085 214.845 96.6329C214.554 96.2908 214.186 96.0279 213.773 95.8673C213.361 95.7066 212.917 95.6532 212.48 95.7115C212.043 95.7699 211.626 95.9384 211.266 96.2021C210.907 96.4658 210.616 96.8168 210.418 97.2242C210.418 97.2242 207.724 93.4556 204.382 93.9568C201.04 94.4579 201.475 96.8233 201.475 96.8233C201.475 96.8233 197.6 94.3477 195.914 96.8233C194.229 99.299 195.914 100.492 195.914 100.492C195.914 100.492 192.039 101.825 192.272 104.501C192.504 107.177 194.432 106.806 194.432 106.806C194.432 106.806 193.328 108.099 195.818 109.191C198.307 110.284 200.662 107.598 200.662 107.598C200.529 107.818 200.445 108.066 200.415 108.324C200.385 108.582 200.411 108.843 200.489 109.09C200.568 109.337 200.698 109.562 200.87 109.751C201.042 109.94 201.252 110.088 201.485 110.184C203.258 111.336 204.924 108.199 204.924 108.199Z" fill="#263238"/>
<path d="M210.088 146.767C210.088 146.767 196.525 137.256 192.252 136.745C187.98 136.233 188.716 141.756 188.716 141.756C188.716 141.756 185.393 141.756 186.672 145.986C187.951 150.215 206.32 152.551 213.101 150.456C219.883 148.361 223.923 144.442 222.79 140.714C221.656 136.985 218.527 140.182 218.527 140.182C218.527 140.182 216.705 136.684 214.08 137.496C211.454 138.308 210.088 146.767 210.088 146.767Z" fill="#2DB1FF"/>
<path d="M209.042 173.217C208.948 173.216 208.856 173.188 208.777 173.134C208.698 173.081 208.635 173.006 208.596 172.917C207.085 169.308 207.715 165.55 208.325 161.892C209.003 157.882 209.633 154.184 207.666 150.676C207.626 150.619 207.598 150.555 207.584 150.486C207.57 150.417 207.57 150.347 207.584 150.278C207.598 150.209 207.626 150.144 207.665 150.088C207.705 150.031 207.756 149.983 207.815 149.948C207.873 149.913 207.938 149.891 208.006 149.883C208.073 149.875 208.141 149.883 208.206 149.904C208.27 149.925 208.33 149.961 208.38 150.007C208.431 150.054 208.472 150.111 208.499 150.175C210.65 154.004 209.953 158.093 209.284 162.062C208.664 165.71 208.083 169.158 209.488 172.486C209.537 172.608 209.538 172.746 209.491 172.869C209.444 172.993 209.353 173.092 209.236 173.147C209.174 173.179 209.109 173.203 209.042 173.217V173.217Z" fill="white"/>
<path d="M218.488 171.133C218.427 171.142 218.365 171.142 218.304 171.133C218.186 171.082 218.092 170.985 218.041 170.864C217.991 170.742 217.988 170.605 218.033 170.481C218.033 170.421 220.387 164.277 218.837 158.294C218.059 154.913 216.35 151.838 213.915 149.443C213.815 149.36 213.751 149.238 213.737 149.106C213.724 148.973 213.762 148.84 213.842 148.737C213.923 148.633 214.041 148.567 214.169 148.553C214.297 148.539 214.425 148.578 214.525 148.662C217.127 151.183 218.95 154.443 219.767 158.033C221.404 164.347 219.04 170.592 218.934 170.852C218.895 170.94 218.832 171.013 218.752 171.063C218.673 171.113 218.581 171.138 218.488 171.133V171.133Z" fill="white"/>
<path d="M234.25 140.213L236.878 139.603C237.044 139.565 237.217 139.596 237.361 139.69C237.504 139.784 237.605 139.933 237.642 140.104L238.369 143.459L234.502 144.355L233.776 141C233.739 140.831 233.768 140.653 233.857 140.506C233.946 140.358 234.087 140.253 234.25 140.213V140.213Z" fill="#2DB1FF"/>
<path d="M241.623 138.496L244.251 137.887C244.416 137.849 244.59 137.88 244.733 137.974C244.876 138.068 244.978 138.217 245.015 138.388L245.741 141.743L241.913 142.63L241.177 139.237C241.152 139.078 241.184 138.916 241.266 138.78C241.348 138.644 241.474 138.543 241.623 138.496V138.496Z" fill="#2DB1FF"/>
<path d="M249.043 136.779L251.671 136.17C251.753 136.151 251.837 136.149 251.92 136.164C252.003 136.179 252.082 136.21 252.153 136.257C252.224 136.303 252.285 136.364 252.334 136.435C252.382 136.506 252.416 136.586 252.435 136.671L253.161 140.026L249.295 140.922L248.568 137.567C248.531 137.398 248.56 137.22 248.649 137.073C248.738 136.925 248.879 136.82 249.043 136.779V136.779Z" fill="#2DB1FF"/>
<path d="M256.474 135.06L259.102 134.45C259.184 134.431 259.269 134.429 259.352 134.444C259.434 134.459 259.513 134.491 259.584 134.537C259.655 134.584 259.717 134.644 259.765 134.715C259.813 134.786 259.848 134.867 259.866 134.951L260.584 138.267L256.717 139.163L255.991 135.809C255.965 135.644 256.001 135.475 256.09 135.336C256.18 135.197 256.317 135.098 256.474 135.06Z" fill="#2DB1FF"/>
<path d="M263.894 133.332L266.522 132.723C266.687 132.685 266.861 132.716 267.004 132.81C267.147 132.904 267.249 133.053 267.286 133.224L268.012 136.579L264.146 137.475L263.419 134.12C263.401 134.036 263.399 133.948 263.413 133.862C263.427 133.777 263.458 133.695 263.503 133.622C263.548 133.548 263.606 133.485 263.675 133.435C263.744 133.385 263.821 133.349 263.903 133.33L263.894 133.332Z" fill="#2DB1FF"/>
<path d="M271.323 131.615L273.914 131.015C274.079 130.977 274.253 131.008 274.396 131.102C274.539 131.196 274.64 131.345 274.677 131.516L275.404 134.87L271.566 135.76L270.839 132.406C270.802 132.234 270.832 132.055 270.923 131.907C271.014 131.759 271.158 131.654 271.323 131.615V131.615Z" fill="#2DB1FF"/>
<path d="M286.05 186.802L283.422 187.411C283.256 187.449 283.083 187.418 282.94 187.324C282.796 187.23 282.695 187.081 282.658 186.91L281.931 183.555L285.798 182.659L286.525 186.014C286.562 186.185 286.532 186.364 286.441 186.512C286.35 186.661 286.206 186.765 286.041 186.804L286.05 186.802Z" fill="#2DB1FF"/>
<path d="M278.627 188.522L275.971 189.138C275.805 189.176 275.632 189.145 275.489 189.051C275.345 188.957 275.244 188.808 275.207 188.637L274.489 185.322L278.356 184.425L279.076 187.751C279.109 187.914 279.081 188.084 278.998 188.227C278.915 188.371 278.782 188.476 278.627 188.522V188.522Z" fill="#2DB1FF"/>
<path d="M271.207 190.253L268.579 190.862C268.413 190.9 268.24 190.869 268.097 190.775C267.953 190.681 267.852 190.532 267.815 190.361L267.088 187.006L270.955 186.11L271.682 189.465C271.719 189.636 271.689 189.815 271.598 189.963C271.507 190.112 271.363 190.216 271.197 190.255L271.207 190.253Z" fill="#2DB1FF"/>
<path d="M263.784 191.973L261.156 192.582C260.991 192.621 260.817 192.59 260.674 192.496C260.531 192.402 260.43 192.253 260.392 192.082L259.666 188.727L263.532 187.831L264.268 191.224C264.305 191.396 264.274 191.575 264.184 191.723C264.093 191.871 263.949 191.976 263.783 192.015L263.784 191.973Z" fill="#2DB1FF"/>
<path d="M256.362 193.692L253.715 194.305C253.549 194.344 253.376 194.313 253.232 194.219C253.089 194.125 252.988 193.976 252.951 193.805L252.224 190.45L256.091 189.554L256.817 192.908C256.854 193.074 256.826 193.249 256.741 193.395C256.657 193.541 256.52 193.647 256.362 193.692V193.692Z" fill="#2DB1FF"/>
<path d="M248.939 195.412L246.311 196.021C246.145 196.06 245.972 196.029 245.829 195.935C245.685 195.841 245.584 195.692 245.547 195.521L244.82 192.166L248.687 191.27L249.414 194.624C249.45 194.794 249.421 194.971 249.332 195.119C249.244 195.266 249.102 195.372 248.939 195.412Z" fill="#2DB1FF"/>
<g opacity="0.4">
<path opacity="0.4" d="M234.25 140.213L236.878 139.603C237.044 139.565 237.217 139.596 237.361 139.69C237.504 139.784 237.605 139.933 237.642 140.104L238.369 143.459L234.502 144.355L233.776 141C233.739 140.831 233.768 140.653 233.857 140.506C233.946 140.358 234.087 140.253 234.25 140.213V140.213Z" fill="black"/>
<path opacity="0.4" d="M241.623 138.496L244.251 137.887C244.416 137.849 244.59 137.88 244.733 137.974C244.876 138.068 244.978 138.217 245.015 138.388L245.741 141.742L241.913 142.63L241.177 139.236C241.152 139.078 241.184 138.916 241.266 138.78C241.348 138.643 241.474 138.543 241.623 138.496V138.496Z" fill="black"/>
<path opacity="0.4" d="M249.043 136.779L251.671 136.17C251.753 136.151 251.837 136.149 251.92 136.163C252.003 136.178 252.082 136.21 252.153 136.256C252.224 136.303 252.285 136.363 252.334 136.435C252.382 136.506 252.416 136.586 252.435 136.671L253.161 140.025L249.295 140.922L248.568 137.567C248.531 137.397 248.56 137.22 248.649 137.072C248.738 136.925 248.879 136.819 249.043 136.779V136.779Z" fill="black"/>
<path opacity="0.4" d="M256.474 135.059L259.102 134.45C259.184 134.431 259.269 134.429 259.351 134.444C259.434 134.459 259.513 134.49 259.584 134.537C259.655 134.583 259.716 134.644 259.765 134.715C259.813 134.786 259.847 134.866 259.866 134.951L260.584 138.266L256.717 139.163L255.991 135.808C255.965 135.643 256.001 135.474 256.09 135.335C256.18 135.197 256.317 135.098 256.474 135.059Z" fill="black"/>
<path opacity="0.4" d="M263.894 133.332L266.522 132.723C266.687 132.685 266.861 132.716 267.004 132.81C267.147 132.904 267.249 133.053 267.286 133.224L268.012 136.578L264.146 137.475L263.419 134.12C263.401 134.035 263.399 133.948 263.413 133.862C263.427 133.777 263.458 133.695 263.503 133.621C263.548 133.548 263.606 133.484 263.675 133.434C263.744 133.384 263.821 133.349 263.903 133.33L263.894 133.332Z" fill="black"/>
<path opacity="0.4" d="M271.323 131.615L273.914 131.015C274.079 130.976 274.252 131.008 274.396 131.101C274.539 131.195 274.64 131.344 274.677 131.516L275.404 134.87L271.566 135.76L270.839 132.405C270.802 132.234 270.832 132.055 270.923 131.906C271.014 131.758 271.158 131.653 271.323 131.615V131.615Z" fill="black"/>
<path opacity="0.4" d="M286.05 186.801L283.422 187.41C283.256 187.449 283.083 187.418 282.94 187.324C282.796 187.23 282.695 187.081 282.658 186.91L281.931 183.555L285.798 182.659L286.525 186.013C286.562 186.184 286.532 186.364 286.441 186.512C286.35 186.66 286.206 186.765 286.041 186.803L286.05 186.801Z" fill="black"/>
<path opacity="0.4" d="M278.627 188.522L275.971 189.138C275.805 189.176 275.632 189.145 275.489 189.051C275.345 188.957 275.244 188.808 275.207 188.637L274.489 185.322L278.356 184.425L279.076 187.751C279.109 187.914 279.081 188.084 278.998 188.227C278.915 188.371 278.782 188.476 278.627 188.522V188.522Z" fill="black"/>
<path opacity="0.4" d="M271.207 190.252L268.579 190.862C268.413 190.9 268.24 190.869 268.096 190.775C267.953 190.681 267.852 190.532 267.815 190.361L267.088 187.006L270.955 186.11L271.681 189.464C271.719 189.636 271.688 189.815 271.598 189.963C271.507 190.111 271.363 190.216 271.197 190.255L271.207 190.252Z" fill="black"/>
<path opacity="0.4" d="M263.784 191.973L261.156 192.582C260.991 192.621 260.817 192.589 260.674 192.495C260.531 192.401 260.43 192.253 260.392 192.081L259.666 188.727L263.532 187.83L264.268 191.224C264.305 191.395 264.274 191.575 264.184 191.723C264.093 191.871 263.949 191.976 263.783 192.014L263.784 191.973Z" fill="black"/>
<path opacity="0.4" d="M256.362 193.692L253.715 194.305C253.549 194.344 253.376 194.312 253.232 194.218C253.089 194.124 252.988 193.976 252.951 193.804L252.224 190.45L256.091 189.553L256.817 192.908C256.854 193.074 256.826 193.248 256.741 193.394C256.657 193.54 256.52 193.647 256.362 193.692V193.692Z" fill="black"/>
<path opacity="0.4" d="M248.939 195.412L246.311 196.021C246.145 196.06 245.972 196.029 245.829 195.935C245.685 195.841 245.584 195.692 245.547 195.521L244.82 192.166L248.687 191.27L249.414 194.624C249.45 194.794 249.421 194.971 249.332 195.119C249.244 195.266 249.102 195.372 248.939 195.412Z" fill="black"/>
</g>
<path d="M280.179 132.337L231.312 143.665C229.453 144.096 228.284 146.004 228.701 147.927L238.142 191.518C238.559 193.441 240.403 194.65 242.262 194.22L291.129 182.891C292.988 182.461 294.157 180.552 293.74 178.63L284.299 135.039C283.882 133.116 282.038 131.906 280.179 132.337Z" fill="#0082CB"/>
<path opacity="0.4" d="M247 193.103L242.273 194.205C241.83 194.307 241.373 194.318 240.927 194.238C240.481 194.157 240.054 193.986 239.672 193.735C239.29 193.483 238.959 193.156 238.699 192.773C238.438 192.389 238.254 191.957 238.155 191.499L228.709 147.91C228.61 147.452 228.6 146.979 228.678 146.518C228.756 146.056 228.921 145.615 229.164 145.219C229.407 144.824 229.723 144.482 230.094 144.212C230.464 143.943 230.883 143.752 231.325 143.65L236.053 142.548C235.159 142.756 234.382 143.322 233.891 144.123C233.401 144.923 233.237 145.892 233.437 146.817L242.883 190.407C242.981 190.864 243.166 191.296 243.427 191.679C243.687 192.063 244.018 192.389 244.4 192.639C244.783 192.89 245.21 193.06 245.656 193.139C246.102 193.219 246.559 193.206 247 193.103Z" fill="black"/>
<path d="M259.12 153.954L260.167 173.308L256.514 174.15L249.481 156.189L252.261 155.537L257.502 169.72L256.388 154.585L259.12 153.954Z" fill="white"/>
<path d="M265.311 170.922L268.004 170.301L268.295 171.624L263.984 172.626L263.722 171.403L265.001 167.675C265.404 166.806 265.546 165.832 265.408 164.878C265.263 164.227 264.895 163.936 264.362 164.057C263.829 164.177 263.625 164.608 263.761 165.259L263.887 165.801L262.579 166.101L262.482 165.67C262.372 165.369 262.327 165.046 262.351 164.725C262.375 164.404 262.467 164.092 262.621 163.812C262.774 163.531 262.985 163.29 263.239 163.103C263.493 162.917 263.784 162.791 264.09 162.734C264.38 162.642 264.686 162.617 264.986 162.661C265.286 162.705 265.573 162.816 265.827 162.987C266.081 163.158 266.296 163.385 266.456 163.651C266.616 163.917 266.718 164.216 266.755 164.528C266.95 165.75 266.781 167.005 266.27 168.126L265.311 170.922Z" fill="white"/>
<path d="M269.245 169.94L270.601 169.629L270.901 171.023L269.545 171.333L269.245 169.94Z" fill="white"/>
<path d="M271.88 168.587L270.785 163.515C270.721 163.22 270.715 162.914 270.765 162.616C270.816 162.318 270.923 162.033 271.08 161.778C271.237 161.522 271.441 161.301 271.68 161.127C271.92 160.953 272.19 160.83 272.476 160.764C272.761 160.698 273.057 160.691 273.345 160.744C273.633 160.796 273.909 160.906 274.156 161.069C274.402 161.231 274.616 161.442 274.784 161.69C274.952 161.938 275.071 162.218 275.135 162.513L276.23 167.525C276.358 168.121 276.252 168.746 275.935 169.262C275.618 169.778 275.116 170.143 274.539 170.276C273.962 170.409 273.358 170.299 272.859 169.971C272.361 169.643 272.008 169.124 271.88 168.527V168.587ZM274.874 167.885L273.779 162.874C273.764 162.753 273.725 162.637 273.664 162.533C273.604 162.429 273.523 162.34 273.427 162.27C273.33 162.2 273.221 162.152 273.106 162.128C272.991 162.105 272.872 162.106 272.758 162.133C272.643 162.16 272.535 162.211 272.441 162.283C272.347 162.355 272.268 162.447 272.21 162.553C272.152 162.659 272.116 162.776 272.104 162.896C272.092 163.017 272.105 163.139 272.141 163.255L273.236 168.266C273.251 168.387 273.29 168.503 273.351 168.607C273.411 168.711 273.492 168.8 273.588 168.87C273.685 168.94 273.794 168.988 273.909 169.012C274.024 169.035 274.143 169.034 274.257 169.007C274.372 168.98 274.48 168.929 274.574 168.857C274.668 168.785 274.747 168.693 274.805 168.587C274.863 168.482 274.899 168.365 274.911 168.244C274.923 168.123 274.91 168.001 274.874 167.885Z" fill="white"/>
<path d="M236.196 190.671L235.607 187.952C235.57 187.781 235.6 187.602 235.691 187.453C235.782 187.305 235.926 187.2 236.091 187.162L239.306 186.417L240.172 190.417L236.958 191.162C236.794 191.2 236.622 191.17 236.48 191.078C236.337 190.986 236.235 190.84 236.196 190.671Z" fill="#2DB1FF"/>
<path d="M234.529 182.987L233.94 180.268C233.903 180.097 233.933 179.918 234.024 179.769C234.115 179.621 234.259 179.516 234.424 179.478L237.667 178.726L238.536 182.736L235.293 183.488C235.127 183.526 234.954 183.495 234.811 183.401C234.668 183.307 234.566 183.158 234.529 182.987V182.987Z" fill="#2DB1FF"/>
<path d="M232.874 175.303L232.285 172.584C232.248 172.413 232.278 172.233 232.369 172.085C232.46 171.937 232.604 171.832 232.769 171.794L236.012 171.042L236.878 175.042L233.636 175.794C233.472 175.832 233.3 175.802 233.157 175.71C233.015 175.618 232.913 175.472 232.874 175.303Z" fill="#2DB1FF"/>
<path d="M231.247 167.62L230.658 164.901C230.621 164.73 230.651 164.55 230.742 164.402C230.832 164.254 230.976 164.149 231.142 164.111L234.299 163.379L235.166 167.379L231.923 168.131C231.77 168.144 231.617 168.1 231.493 168.006C231.368 167.912 231.281 167.775 231.247 167.62V167.62Z" fill="#2DB1FF"/>
<path d="M229.544 159.954L228.955 157.235C228.918 157.064 228.948 156.885 229.039 156.737C229.13 156.588 229.274 156.484 229.439 156.445L232.682 155.694L233.548 159.694L230.343 160.437C230.26 160.462 230.173 160.469 230.087 160.458C230.001 160.447 229.918 160.418 229.844 160.373C229.769 160.328 229.704 160.267 229.652 160.195C229.601 160.123 229.564 160.041 229.544 159.954V159.954Z" fill="#2DB1FF"/>
<path d="M227.877 152.263L227.288 149.544C227.251 149.373 227.281 149.193 227.372 149.045C227.463 148.897 227.607 148.792 227.772 148.754L231.015 148.002L231.881 152.002L228.639 152.754C228.475 152.792 228.303 152.762 228.161 152.67C228.018 152.578 227.916 152.432 227.877 152.263Z" fill="#2DB1FF"/>
<g opacity="0.4">
<path opacity="0.4" d="M236.196 190.671L235.607 187.952C235.57 187.781 235.6 187.602 235.691 187.453C235.782 187.305 235.926 187.2 236.091 187.162L239.306 186.417L240.172 190.417L236.958 191.162C236.794 191.2 236.622 191.17 236.48 191.078C236.337 190.986 236.235 190.84 236.196 190.671Z" fill="black"/>
<path opacity="0.4" d="M234.529 182.987L233.94 180.268C233.903 180.097 233.933 179.918 234.024 179.769C234.115 179.621 234.259 179.516 234.424 179.478L237.667 178.726L238.536 182.736L235.293 183.488C235.127 183.526 234.954 183.495 234.811 183.401C234.668 183.307 234.566 183.158 234.529 182.987V182.987Z" fill="black"/>
<path opacity="0.4" d="M232.874 175.303L232.285 172.584C232.248 172.413 232.278 172.233 232.369 172.085C232.46 171.937 232.604 171.832 232.769 171.794L236.012 171.042L236.878 175.042L233.636 175.794C233.472 175.832 233.3 175.802 233.157 175.71C233.015 175.618 232.913 175.472 232.874 175.303Z" fill="black"/>
<path opacity="0.4" d="M231.247 167.62L230.658 164.901C230.621 164.73 230.651 164.55 230.742 164.402C230.832 164.254 230.976 164.149 231.142 164.111L234.3 163.379L235.166 167.379L231.923 168.131C231.77 168.144 231.617 168.1 231.493 168.006C231.369 167.912 231.281 167.775 231.247 167.62V167.62Z" fill="black"/>
<path opacity="0.4" d="M229.544 159.954L228.955 157.235C228.918 157.064 228.948 156.885 229.039 156.737C229.13 156.588 229.274 156.484 229.439 156.445L232.682 155.694L233.548 159.694L230.343 160.437C230.26 160.462 230.173 160.469 230.087 160.458C230.001 160.447 229.918 160.418 229.844 160.373C229.769 160.328 229.704 160.267 229.652 160.195C229.601 160.123 229.564 160.041 229.544 159.954V159.954Z" fill="black"/>
<path opacity="0.4" d="M227.877 152.262L227.288 149.544C227.251 149.372 227.281 149.193 227.372 149.045C227.463 148.897 227.607 148.792 227.772 148.753L231.015 148.002L231.881 152.002L228.639 152.754C228.475 152.792 228.303 152.761 228.161 152.669C228.018 152.578 227.916 152.431 227.877 152.262Z" fill="black"/>
</g>
<path d="M204.924 206.173L206.862 207.245C206.862 207.245 204.779 222.71 199.906 226.078L197.91 223.703C197.91 223.703 204.828 214.411 204.924 206.173Z" fill="#2DB1FF"/>
<path d="M229.494 204.9L227.052 206.203C227.052 206.203 231.577 221.157 234.493 224.524L236.149 222.149C236.149 222.149 230.598 212.597 229.494 204.9Z" fill="#2DB1FF"/>
<path opacity="0.2" d="M204.682 197.002C204.682 197.002 198.433 210.111 187.515 213.82C187.311 210.472 187.088 207.014 186.836 203.506C186.556 199.397 186.236 195.228 185.868 191.118L204.682 197.002Z" fill="black"/>
<path d="M213.101 186.858L225.696 182.478C225.696 182.478 237.002 172.055 239.492 172.105C241.982 172.155 244.094 178.7 245.237 181.185C246.38 183.671 234.58 188.692 232.817 189.745C231.054 190.797 228.622 189.745 228.622 189.745L215.756 195.558L213.101 186.858Z" fill="#FFBE9D"/>
<path d="M181.799 147.279C170.066 148.892 176.141 194.626 183.736 203.607C190.053 211.114 213.101 200.089 220.552 196.26C221.196 195.922 221.702 195.355 221.977 194.664C222.253 193.972 222.28 193.202 222.053 192.492L219.883 185.756C219.637 185.016 219.13 184.399 218.464 184.028C217.798 183.657 217.022 183.558 216.289 183.752C210.04 185.405 194.975 189.094 193.134 186.879C190.818 184.082 187.757 170.341 188.29 161.611C188.823 152.881 181.799 147.279 181.799 147.279Z" fill="#2DB1FF"/>
<path d="M217.994 183.822L222.034 194.285L225.648 192.02L222.15 182.809L217.994 183.822Z" fill="#2DB1FF"/>
<path opacity="0.3" d="M217.994 183.822L222.034 194.285L225.648 192.02L222.15 182.809L217.994 183.822Z" fill="black"/>
<path d="M413.328 62.5757V351.233C413.328 351.792 413.221 352.346 413.012 352.862C412.804 353.378 412.498 353.846 412.113 354.238C411.728 354.631 411.272 354.941 410.77 355.149C410.268 355.358 409.732 355.461 409.191 355.453H279.369C278.888 355.461 278.411 355.37 277.965 355.184C277.519 354.998 277.113 354.721 276.772 354.37C276.416 354.005 276.134 353.57 275.944 353.089C275.754 352.608 275.66 352.093 275.668 351.574V62.1948C275.65 61.7469 275.717 61.2997 275.867 60.879C276.017 60.4582 276.245 60.0723 276.54 59.7434C276.834 59.4146 277.189 59.1492 277.583 58.9627C277.977 58.7762 278.403 58.6722 278.836 58.6567H315.709C316.225 58.6664 316.726 58.8345 317.148 59.1398C317.571 59.445 317.897 59.8735 318.083 60.3706L319.604 64.2595C319.794 64.7529 320.12 65.1772 320.543 65.4787C320.965 65.7801 321.465 65.9453 321.978 65.9534H367.096C367.607 65.9517 368.105 65.7926 368.528 65.4962C368.951 65.1998 369.279 64.7797 369.469 64.2896L370.99 60.3807C371.177 59.8824 371.502 59.4525 371.924 59.1456C372.347 58.8387 372.848 58.6685 373.364 58.6567H409.705C410.686 58.683 411.618 59.1097 412.297 59.8439C412.976 60.578 413.346 61.56 413.328 62.5757V62.5757Z" fill="#2DB1FF"/>
<path d="M419.141 62.5757V351.233C419.141 351.792 419.034 352.346 418.825 352.862C418.616 353.378 418.311 353.846 417.926 354.238C417.541 354.631 417.084 354.941 416.583 355.149C416.081 355.358 415.545 355.461 415.004 355.453H285.182C284.701 355.461 284.223 355.37 283.777 355.184C283.331 354.998 282.926 354.721 282.585 354.37C282.228 354.005 281.947 353.57 281.757 353.089C281.567 352.608 281.473 352.093 281.481 351.574V62.1948C281.463 61.7469 281.53 61.2997 281.68 60.879C281.83 60.4582 282.058 60.0723 282.353 59.7434C282.647 59.4146 283.002 59.1492 283.396 58.9627C283.79 58.7762 284.216 58.6722 284.649 58.6567H321.522C322.038 58.6664 322.539 58.8345 322.961 59.1398C323.384 59.445 323.709 59.8735 323.896 60.3706L325.417 64.2595C325.606 64.7529 325.933 65.1772 326.356 65.4787C326.778 65.7801 327.277 65.9453 327.791 65.9534H372.909C373.419 65.9517 373.918 65.7926 374.341 65.4962C374.764 65.1998 375.092 64.7797 375.282 64.2896L376.803 60.3807C376.989 59.8824 377.314 59.4525 377.737 59.1456C378.16 58.8387 378.661 58.6685 379.177 58.6567H415.518C416.499 58.683 417.431 59.1097 418.11 59.8439C418.789 60.578 419.159 61.56 419.141 62.5757V62.5757Z" fill="#2DB1FF"/>
<path opacity="0.4" d="M419.141 62.5757V351.233C419.141 351.792 419.034 352.346 418.825 352.862C418.616 353.378 418.311 353.846 417.926 354.238C417.541 354.631 417.084 354.941 416.583 355.149C416.081 355.358 415.545 355.461 415.004 355.453H285.182C284.701 355.461 284.223 355.37 283.777 355.184C283.331 354.998 282.926 354.721 282.585 354.37C282.228 354.005 281.947 353.57 281.757 353.089C281.567 352.608 281.473 352.093 281.481 351.574V62.1948C281.463 61.7469 281.53 61.2997 281.68 60.879C281.83 60.4582 282.058 60.0723 282.353 59.7434C282.647 59.4146 283.002 59.1492 283.396 58.9627C283.79 58.7762 284.216 58.6722 284.649 58.6567H321.522C322.038 58.6664 322.539 58.8345 322.961 59.1398C323.384 59.445 323.709 59.8735 323.896 60.3706L325.417 64.2595C325.606 64.7529 325.933 65.1772 326.356 65.4787C326.778 65.7801 327.277 65.9453 327.791 65.9534H372.909C373.419 65.9517 373.918 65.7926 374.341 65.4962C374.764 65.1998 375.092 64.7797 375.282 64.2896L376.803 60.3807C376.989 59.8824 377.314 59.4525 377.737 59.1456C378.16 58.8387 378.661 58.6685 379.177 58.6567H415.518C416.499 58.683 417.431 59.1097 418.11 59.8439C418.789 60.578 419.159 61.56 419.141 62.5757V62.5757Z" fill="white"/>
<path opacity="0.6" d="M298.58 70.2729H300.499V67.6269H298.58V70.2729Z" fill="white"/>
<path opacity="0.6" d="M295.461 70.2729H297.379V66.7449H295.461V70.2729Z" fill="white"/>
<path opacity="0.6" d="M292.332 70.2827H294.25V65.8727H292.332V70.2827Z" fill="white"/>
<path opacity="0.6" d="M289.212 70.2827H291.13V64.9907H289.212V70.2827Z" fill="white"/>
<path opacity="0.6" d="M401.557 66.6648H400.423V69.3108H401.557V66.6648Z" fill="white"/>
<path opacity="0.6" d="M402.342 70.2827H411.4V65.7023H402.342V70.2827Z" fill="white"/>
<path d="M306.651 278.708H393.961C395.269 278.708 396.523 279.245 397.448 280.202C398.373 281.159 398.893 282.456 398.893 283.809C398.893 285.162 398.373 286.46 397.448 287.417C396.523 288.373 395.269 288.911 393.961 288.911H306.651C305.343 288.911 304.089 288.373 303.164 287.417C302.239 286.46 301.72 285.162 301.72 283.809V283.809C301.72 282.456 302.239 281.159 303.164 280.202C304.089 279.245 305.343 278.708 306.651 278.708V278.708Z" fill="#2DB1FF"/>
<path opacity="0.3" d="M306.651 278.708H393.961C395.269 278.708 396.523 279.245 397.448 280.202C398.373 281.159 398.893 282.456 398.893 283.809C398.893 285.162 398.373 286.46 397.448 287.417C396.523 288.373 395.269 288.911 393.961 288.911H306.651C305.343 288.911 304.089 288.373 303.164 287.417C302.239 286.46 301.72 285.162 301.72 283.809V283.809C301.72 282.456 302.239 281.159 303.164 280.202C304.089 279.245 305.343 278.708 306.651 278.708V278.708Z" fill="black"/>
<path d="M334.873 279.62C335.421 279.592 335.968 279.68 336.482 279.877C336.996 280.075 337.466 280.379 337.863 280.77C338.261 281.162 338.577 281.632 338.793 282.154C339.009 282.675 339.12 283.237 339.12 283.804C339.12 284.372 339.009 284.933 338.793 285.455C338.577 285.976 338.261 286.447 337.863 286.838C337.466 287.23 336.996 287.533 336.482 287.731C335.968 287.929 335.421 288.017 334.873 287.989H306.651C306.103 288.017 305.556 287.929 305.041 287.731C304.527 287.533 304.057 287.23 303.66 286.838C303.263 286.447 302.947 285.976 302.731 285.455C302.515 284.933 302.403 284.372 302.403 283.804C302.403 283.237 302.515 282.675 302.731 282.154C302.947 281.632 303.263 281.162 303.66 280.77C304.057 280.379 304.527 280.075 305.041 279.877C305.556 279.68 306.103 279.592 306.651 279.62H334.873Z" fill="#2DB1FF"/>
<path d="M327.025 126.942C326.626 126.948 326.229 126.87 325.86 126.713C325.49 126.556 325.155 126.324 324.874 126.03C324.587 125.742 324.361 125.395 324.209 125.012C324.058 124.63 323.984 124.218 323.993 123.805V113.622H325.872V123.785C325.869 123.934 325.896 124.082 325.951 124.22C326.006 124.358 326.088 124.483 326.192 124.587C326.295 124.693 326.417 124.777 326.552 124.834C326.687 124.89 326.831 124.919 326.977 124.917C327.121 124.92 327.264 124.892 327.397 124.835C327.531 124.778 327.651 124.694 327.752 124.587C327.856 124.483 327.938 124.358 327.993 124.22C328.048 124.082 328.075 123.934 328.072 123.785V113.622H330.077V123.805C330.086 124.221 330.011 124.634 329.858 125.019C329.705 125.404 329.476 125.751 329.186 126.04C328.902 126.332 328.565 126.562 328.194 126.717C327.823 126.872 327.425 126.949 327.025 126.942Z" fill="#F9F9F9"/>
<path d="M334.815 113.622C335.227 113.601 335.64 113.672 336.024 113.829C336.408 113.986 336.755 114.227 337.043 114.534C337.57 115.148 337.848 115.948 337.818 116.769V118.703C337.825 119.118 337.75 119.53 337.599 119.914C337.447 120.298 337.222 120.647 336.936 120.938C336.662 121.233 336.332 121.467 335.967 121.626C335.603 121.784 335.21 121.864 334.815 121.86H333.7V126.822H331.763V113.622H334.815ZM335.958 116.799C335.968 116.647 335.946 116.494 335.895 116.351C335.843 116.208 335.763 116.078 335.66 115.969C335.557 115.86 335.432 115.775 335.295 115.719C335.158 115.664 335.01 115.639 334.863 115.646H333.7V119.866H334.863C335.008 119.868 335.152 119.839 335.286 119.781C335.419 119.722 335.539 119.635 335.638 119.525C335.741 119.421 335.823 119.296 335.878 119.158C335.933 119.021 335.96 118.872 335.958 118.723V116.799Z" fill="#F9F9F9"/>
<path d="M342.197 126.962C341.797 126.963 341.4 126.883 341.03 126.725C340.66 126.568 340.323 126.336 340.04 126.044C339.756 125.751 339.531 125.404 339.378 125.021C339.224 124.639 339.145 124.229 339.145 123.815V116.628C339.145 116.215 339.224 115.806 339.377 115.424C339.53 115.042 339.754 114.695 340.036 114.403C340.319 114.111 340.654 113.879 341.023 113.721C341.392 113.563 341.788 113.481 342.187 113.481C342.587 113.481 342.982 113.563 343.352 113.721C343.721 113.879 344.056 114.111 344.338 114.403C344.621 114.695 344.845 115.042 344.998 115.424C345.151 115.806 345.229 116.215 345.229 116.628V118.132H343.243V116.588C343.247 116.437 343.22 116.286 343.163 116.146C343.106 116.006 343.021 115.88 342.914 115.776C342.759 115.618 342.562 115.511 342.349 115.469C342.135 115.426 341.914 115.449 341.713 115.536C341.513 115.623 341.341 115.769 341.22 115.956C341.1 116.143 341.035 116.363 341.034 116.588V123.795C341.031 123.944 341.058 124.092 341.113 124.23C341.168 124.368 341.25 124.493 341.354 124.597C341.456 124.704 341.578 124.789 341.713 124.846C341.848 124.903 341.993 124.931 342.139 124.927C342.428 124.93 342.707 124.815 342.914 124.607C343.021 124.503 343.106 124.377 343.163 124.237C343.22 124.097 343.247 123.946 343.243 123.795V121.209H342.197V119.204H345.249V123.805C345.258 124.221 345.183 124.634 345.03 125.019C344.876 125.404 344.648 125.751 344.358 126.04C344.077 126.337 343.741 126.573 343.369 126.731C342.998 126.89 342.599 126.968 342.197 126.962V126.962Z" fill="#F9F9F9"/>
<path d="M349.948 113.622C350.381 113.582 350.818 113.643 351.225 113.801C351.632 113.959 352 114.209 352.302 114.534C352.777 115.171 353.011 115.966 352.961 116.769V118.703C352.968 119.151 352.879 119.595 352.702 120.004C352.524 120.413 352.262 120.776 351.934 121.069L353.358 126.822H351.285L350.122 121.861H348.843V126.822H346.906V113.622H349.948ZM351.091 116.799C351.109 116.643 351.091 116.484 351.038 116.336C350.986 116.188 350.901 116.055 350.789 115.948C350.678 115.841 350.544 115.762 350.398 115.718C350.251 115.674 350.097 115.667 349.948 115.696H348.795V119.916H349.948C350.093 119.92 350.237 119.891 350.371 119.833C350.505 119.774 350.625 119.686 350.723 119.575C350.826 119.471 350.908 119.347 350.963 119.209C351.018 119.071 351.045 118.923 351.042 118.773L351.091 116.799Z" fill="#F9F9F9"/>
<path d="M357.34 123.765L356.875 126.772H354.879L357.04 113.602H359.684L361.816 126.772H359.801L359.345 123.765H357.34ZM358.309 116.638L357.601 121.83H359.026L358.309 116.638Z" fill="#F9F9F9"/>
<path d="M369.469 123.635C369.474 124.05 369.398 124.462 369.245 124.846C369.092 125.231 368.865 125.579 368.578 125.87C368.303 126.166 367.971 126.401 367.605 126.559C367.238 126.718 366.844 126.797 366.447 126.792H363.434V113.612H366.418C366.817 113.605 367.213 113.684 367.581 113.842C367.949 114.001 368.282 114.236 368.559 114.534C368.842 114.825 369.065 115.172 369.217 115.554C369.368 115.936 369.444 116.346 369.44 116.759L369.469 123.635ZM365.352 124.827H366.505C366.65 124.831 366.794 124.803 366.928 124.744C367.062 124.685 367.182 124.597 367.28 124.486C367.382 124.381 367.462 124.256 367.517 124.118C367.572 123.981 367.6 123.833 367.6 123.685V116.789C367.601 116.639 367.574 116.49 367.519 116.351C367.465 116.212 367.385 116.085 367.283 115.978C367.181 115.871 367.06 115.786 366.927 115.727C366.793 115.668 366.65 115.638 366.505 115.636H365.352V124.827Z" fill="#F9F9F9"/>
<path d="M371.155 126.792V113.612H376.619V115.616H373.073V119.214H375.66V121.219H373.073V124.817H376.619V126.822L371.155 126.792Z" fill="#F9F9F9"/>
<g opacity="0.1">
<path opacity="0.1" d="M343.399 65.9531L303.774 219.533L303.329 221.257L302.612 224.023L302.166 225.747L281.472 305.93V208.909L320.225 58.6465H321.494C322.01 58.6561 322.511 58.8243 322.933 59.1295C323.356 59.4347 323.681 59.8632 323.868 60.3604L325.389 64.2492C325.578 64.7427 325.905 65.1669 326.327 65.4684C326.75 65.7699 327.249 65.9351 327.762 65.9431L343.399 65.9531Z" fill="white"/>
<path opacity="0.1" d="M419.141 144.392V241.453L394.417 337.241L393.816 339.566L389.747 355.372H364.703L368.772 339.576L369.431 337.031L372.705 324.342L373.354 321.806L374.672 316.734L375.321 314.199L376.629 309.117L377.278 306.581L397.885 226.739V226.729L398.844 223.041V223.031L419.141 144.392Z" fill="white"/>
<path opacity="0.1" d="M356.972 65.9529L317.589 218.581L317.356 219.493L315.196 227.852L314.963 228.764L282.576 354.29C282.219 353.925 281.937 353.489 281.747 353.008C281.557 352.528 281.463 352.012 281.471 351.493V336.73L309.334 228.764L309.567 227.852L311.718 219.493L311.96 218.581L351.343 65.9529H356.972Z" fill="white"/>
</g>
<path d="M392.818 200.209C392.826 210.316 389.47 220.118 383.314 227.967C377.158 235.816 368.578 241.233 359.016 243.307C353.264 244.539 347.329 244.539 341.577 243.307C333.711 241.606 326.473 237.634 320.699 231.852C314.926 226.069 310.855 218.713 308.958 210.634C307.06 202.556 307.414 194.087 309.979 186.209C312.543 178.33 317.213 171.365 323.447 166.12C329.681 160.874 337.224 157.564 345.202 156.571C353.181 155.579 361.267 156.946 368.525 160.514C375.783 164.082 381.916 169.704 386.212 176.729C390.508 183.755 392.792 191.896 392.799 200.209H392.818Z" fill="#2DB1FF"/>
<path opacity="0.6" d="M372.134 196.551H360.605C360.181 196.551 359.774 196.725 359.474 197.035C359.174 197.345 359.006 197.766 359.006 198.204V243.307C353.254 244.539 347.319 244.539 341.567 243.307V198.204C341.567 197.986 341.526 197.77 341.445 197.569C341.364 197.368 341.245 197.185 341.096 197.031C340.946 196.878 340.769 196.756 340.574 196.674C340.379 196.591 340.17 196.549 339.959 196.551H328.469C328.152 196.549 327.842 196.451 327.579 196.268C327.316 196.085 327.111 195.826 326.99 195.522C326.869 195.219 326.837 194.886 326.898 194.564C326.96 194.243 327.112 193.947 327.335 193.714L349.172 171.133C349.321 170.978 349.498 170.855 349.692 170.772C349.887 170.688 350.095 170.645 350.306 170.645C350.517 170.645 350.725 170.688 350.92 170.772C351.114 170.855 351.291 170.978 351.44 171.133L373.267 193.714C373.491 193.947 373.643 194.243 373.704 194.564C373.765 194.886 373.734 195.219 373.613 195.522C373.491 195.826 373.286 196.085 373.023 196.268C372.76 196.451 372.451 196.549 372.134 196.551V196.551Z" fill="white"/>
<path d="M466.125 381.811C453.793 373.469 450.664 357.482 450.805 343.048C450.805 340.638 450.509 338.105 451.581 335.962C452.654 333.819 455.236 332.319 457.374 333.276C459.142 334.079 459.955 336.138 460.976 337.867C462.346 340.137 464.307 341.96 466.635 343.125C468.152 343.89 470.024 344.319 471.488 343.446C473.493 342.253 473.663 339.375 473.597 336.98L473.197 323.594C472.997 321.202 473.18 318.792 473.737 316.462C474.41 314.166 475.956 312.023 478.176 311.327C480.395 310.63 483.184 311.878 483.709 314.212C483.82 315.202 483.865 316.2 483.842 317.196C483.931 318.184 484.412 319.278 485.322 319.492C486.232 319.707 487.186 319.048 487.874 318.329C490.234 315.849 491.809 312.696 493.267 309.559C494.724 306.421 496.174 303.222 498.319 300.528C500.465 297.834 503.438 295.668 506.797 295.393C510.155 295.117 513.78 297.145 514.668 300.49C515.556 303.834 513.751 307.324 511.709 310.11C508.684 314.245 505.099 317.908 501.064 320.985C500.275 321.454 499.652 322.173 499.288 323.036C498.815 324.643 500.331 326.189 501.892 326.679C503.653 327.23 505.547 327 507.381 327.168C509.216 327.337 511.213 328.117 511.946 329.87C512.967 332.296 511.021 334.906 509.09 336.635C505.208 340.108 500.779 342.867 495.996 344.793C494.288 345.475 492.49 346.087 491.129 347.357C489.768 348.628 488.976 350.809 489.856 352.469C490.737 354.13 492.904 354.628 494.709 354.237C496.514 353.847 498.097 352.814 499.806 352.102C503.002 350.778 507.204 350.908 509.297 353.702C509.95 354.66 510.377 355.764 510.543 356.925C510.708 358.085 510.609 359.269 510.252 360.383C509.513 362.602 508.35 364.645 506.834 366.39C501.851 372.797 495.321 377.729 487.904 380.686C480.506 383.518 473.574 384.406 466.081 381.811" fill="#2DB1FF"/>
<path d="M511.243 297.291L511.021 297.52L510.34 298.179C509.734 298.745 508.861 299.587 507.736 300.696C504.588 303.83 501.673 307.204 499.015 310.791C497.321 313.087 495.567 315.612 493.733 318.398C491.898 321.184 489.96 324.168 488.044 327.39C486.014 330.742 484.161 334.207 482.496 337.768C481.638 339.62 480.876 341.556 480.099 343.531L477.754 349.531C474.727 357.124 472.118 364.889 469.942 372.788C468.19 379.242 467.036 385.853 466.495 392.533C466.146 397.04 466.181 401.571 466.599 406.071C466.754 407.663 466.902 408.895 467.035 409.73C467.087 410.128 467.131 410.441 467.168 410.679C467.175 410.786 467.175 410.893 467.168 411C467.129 410.9 467.104 410.794 467.094 410.686L466.917 409.745C466.761 408.911 466.584 407.679 466.399 406.087C465.917 401.578 465.837 397.034 466.162 392.51C466.665 385.803 467.797 379.162 469.543 372.681C471.702 364.761 474.305 356.977 477.34 349.37L479.685 343.362C480.462 341.395 481.231 339.444 482.104 337.584C483.774 334.008 485.639 330.533 487.689 327.176C489.627 323.954 491.573 320.969 493.422 318.184C495.272 315.398 497.04 312.827 498.756 310.599C501.45 307.016 504.418 303.664 507.633 300.574C508.765 299.48 509.667 298.653 510.289 298.11L511.028 297.49C511.093 297.416 511.165 297.35 511.243 297.291Z" fill="#263238"/>
<path d="M482.237 337.561C482.116 337.233 482.032 336.891 481.985 336.543C481.845 335.885 481.675 334.929 481.482 333.742C481.098 331.362 480.669 328.064 480.21 324.421C479.751 320.778 479.285 317.495 478.864 315.13C478.657 313.944 478.479 312.995 478.346 312.329C478.258 311.992 478.206 311.645 478.191 311.296C478.333 311.614 478.44 311.948 478.509 312.291C478.686 312.941 478.915 313.89 479.16 315.069C479.663 317.426 480.18 320.717 480.639 324.36C481.098 328.003 481.482 331.209 481.786 333.689C481.934 334.814 482.052 335.755 482.148 336.513C482.218 336.857 482.247 337.209 482.237 337.561V337.561Z" fill="#263238"/>
<path d="M512.264 331.064C511.87 331.16 511.469 331.219 511.065 331.24C510.326 331.332 509.172 331.454 507.796 331.645C505.044 332.02 501.249 332.671 497.106 333.574C492.964 334.477 489.235 335.48 486.565 336.276C485.226 336.658 484.153 337.003 483.406 337.24C483.028 337.388 482.636 337.496 482.237 337.561C482.595 337.365 482.969 337.201 483.354 337.071C484.094 336.788 485.144 336.398 486.476 335.969C489.132 335.097 492.853 334.056 497.017 333.138C501.182 332.219 504.985 331.607 507.759 331.332C509.142 331.179 510.274 331.102 511.051 331.064C511.454 331.024 511.86 331.024 512.264 331.064V331.064Z" fill="#263238"/>
<path d="M469.913 372.099C469.823 371.986 469.751 371.86 469.698 371.725L469.158 370.622C468.685 369.666 468.048 368.265 467.279 366.513C465.74 363.023 463.765 358.133 461.657 352.737C459.549 347.342 457.618 342.406 456.146 338.885C455.406 337.171 454.844 335.763 454.4 334.722L453.934 333.582C453.874 333.452 453.826 333.316 453.793 333.176C453.883 333.288 453.958 333.411 454.015 333.543C454.156 333.842 454.341 334.209 454.555 334.645C455.021 335.602 455.657 337.01 456.427 338.755C457.966 342.245 459.941 347.173 462.056 352.569C464.172 357.964 466.095 362.901 467.56 366.421L469.306 370.569L469.772 371.702C469.836 371.827 469.884 371.961 469.913 372.099Z" fill="#263238"/>
<path d="M509.675 357.926C509.553 358.004 509.421 358.063 509.282 358.102L508.128 358.531L503.867 360.061C500.272 361.355 495.331 363.191 489.871 365.235C484.412 367.278 479.441 369.061 475.816 370.278C474.003 370.89 472.531 371.365 471.51 371.671L470.334 372.023C470.197 372.07 470.056 372.101 469.913 372.115C470.035 372.036 470.167 371.974 470.305 371.931L471.459 371.51L475.72 369.98C479.315 368.694 484.256 366.857 489.723 364.814C495.19 362.77 500.146 360.987 503.779 359.763C505.591 359.158 507.063 358.684 508.084 358.37L509.26 358.025C509.393 357.973 509.533 357.939 509.675 357.926V357.926Z" fill="#263238"/>
<path d="M510.212 410.547C510.212 410.715 407.723 410.838 281.316 410.838C154.909 410.838 52.4015 410.715 52.4015 410.547C52.4015 410.379 154.872 410.256 281.316 410.256C407.76 410.256 510.212 410.39 510.212 410.547Z" fill="#263238"/>
</svg>
