<svg width="546" height="450" viewBox="0 0 546 450" fill="none" xmlns="http://www.w3.org/2000/svg">
<path d="M292.108 305.97C292.213 306.065 292.314 306.166 292.409 306.271L293.266 307.158L296.573 310.661L309.052 324.027L353.269 371.702H352.758L402.914 314.254L403.259 313.863L403.545 314.299L407.199 319.802L445.146 376.934L444.62 376.844L481.094 347.706L481.304 347.541L481.485 347.737L509.329 379.309L516.846 387.924L518.801 390.179C519.237 390.691 519.447 390.961 519.447 390.961C519.447 390.961 519.192 390.721 518.741 390.24L516.756 387.924L509.089 379.415L481.064 348.067H481.455L445.071 377.4L444.77 377.641L444.545 377.31L406.552 320.268L402.884 314.75H403.5C385.248 335.649 368.078 355.269 353.284 372.198L353.029 372.484L352.773 372.198C334.611 352.442 319.411 335.934 308.752 324.328L296.423 310.796L293.191 307.218C292.845 306.812 292.574 306.511 292.364 306.286C292.153 306.06 292.093 305.985 292.108 305.97Z" fill="#2DB1FF"/>
<path d="M348.082 372.093C348.073 373.137 348.376 374.161 348.95 375.033C349.525 375.905 350.346 376.587 351.31 376.991C352.273 377.394 353.335 377.502 354.36 377.301C355.385 377.099 356.327 376.597 357.065 375.858C357.804 375.12 358.306 374.178 358.507 373.153C358.709 372.128 358.601 371.067 358.197 370.103C357.793 369.14 357.112 368.318 356.24 367.744C355.367 367.169 354.344 366.867 353.299 366.876C351.918 366.884 350.596 367.436 349.619 368.412C348.642 369.389 348.09 370.712 348.082 372.093Z" fill="#2DB1FF"/>
<path d="M440.2 378.362C440.206 379.404 440.52 380.42 441.104 381.282C441.688 382.144 442.515 382.814 443.479 383.206C444.444 383.599 445.503 383.696 446.523 383.486C447.543 383.276 448.478 382.768 449.209 382.026C449.94 381.285 450.435 380.343 450.63 379.32C450.826 378.297 450.713 377.239 450.307 376.28C449.901 375.321 449.22 374.504 448.349 373.933C447.479 373.361 446.458 373.061 445.417 373.07C444.024 373.082 442.692 373.646 441.714 374.638C440.736 375.63 440.192 376.969 440.2 378.362Z" fill="#2DB1FF"/>
<path d="M476.027 349.391C476.036 350.428 476.353 351.44 476.937 352.298C477.521 353.156 478.346 353.821 479.308 354.21C480.27 354.599 481.326 354.694 482.342 354.483C483.358 354.271 484.289 353.764 485.016 353.023C485.744 352.283 486.235 351.344 486.429 350.325C486.623 349.305 486.51 348.251 486.105 347.296C485.699 346.34 485.02 345.527 484.152 344.958C483.284 344.388 482.267 344.089 481.229 344.098C479.839 344.114 478.511 344.68 477.537 345.671C476.562 346.663 476.019 348 476.027 349.391Z" fill="#2DB1FF"/>
<path d="M397.952 314.961C397.958 316.002 398.273 317.018 398.857 317.881C399.441 318.743 400.267 319.413 401.232 319.805C402.197 320.197 403.256 320.295 404.276 320.085C405.296 319.874 406.231 319.366 406.962 318.625C407.693 317.883 408.187 316.941 408.383 315.918C408.578 314.896 408.466 313.838 408.06 312.879C407.654 311.92 406.972 311.103 406.102 310.531C405.231 309.96 404.211 309.66 403.169 309.669C401.776 309.681 400.445 310.244 399.467 311.236C398.489 312.228 397.944 313.568 397.952 314.961Z" fill="#2DB1FF"/>
<path d="M515.298 391.112C515.304 392.153 515.619 393.169 516.203 394.032C516.786 394.894 517.613 395.564 518.578 395.956C519.542 396.348 520.602 396.445 521.622 396.235C522.642 396.025 523.576 395.517 524.307 394.776C525.038 394.034 525.533 393.092 525.729 392.069C525.924 391.046 525.812 389.989 525.406 389.03C525 388.071 524.318 387.254 523.447 386.682C522.577 386.111 521.556 385.811 520.515 385.82C519.122 385.831 517.791 386.395 516.813 387.387C515.835 388.379 515.29 389.719 515.298 391.112Z" fill="#2DB1FF"/>
<path d="M440.713 235.894H420.544V313.064H440.713V235.894Z" fill="#ECEFF1"/>
<path d="M468.775 252.556H449.483V313.064H468.775V252.556Z" fill="#2DB1FF"/>
<path d="M498.591 266.586H478.421V313.064H498.591V266.586Z" fill="#0082CB"/>
<path d="M201.284 79.187H167.501V127.328H201.284V79.187Z" fill="#E6E6E6"/>
<path d="M509.991 216.602C509.991 216.602 509.808 216.836 509.452 217.253L507.828 219.121L501.651 226.158L479.375 251.352L479.254 251.482L479.115 251.378L464.58 240.24H464.876L444.547 266.008L444.303 266.321L444.156 266.512L443.973 266.347L416.598 242.169H416.902C406.156 256.278 397.051 268.327 390.535 276.85L382.951 286.762L380.927 289.369L380.397 290.038C380.337 290.117 380.274 290.192 380.205 290.264C380.255 290.179 380.31 290.098 380.371 290.02L380.874 289.325L382.847 286.658L390.327 276.676L416.563 241.874L416.702 241.691L416.868 241.839L444.277 265.956H443.947L444.19 265.643L464.546 239.893L464.676 239.728L464.841 239.858L479.349 250.987H479.089L501.477 225.993C504.179 222.996 506.299 220.641 507.749 219.043L509.409 217.218C509.791 216.784 509.991 216.602 509.991 216.602Z" fill="#2DB1FF"/>
<path d="M506.295 234.14C506.288 234.009 506.302 233.878 506.337 233.751L506.545 232.645C506.762 231.617 507.054 230.252 507.38 228.585C508.122 225.129 509.174 220.412 510.384 215.124L510.651 215.383L509.708 215.686C504.476 217.353 499.736 218.831 496.298 219.885L492.217 221.103L491.099 221.414C490.971 221.463 490.835 221.49 490.698 221.492C490.818 221.424 490.944 221.369 491.074 221.327L492.167 220.939L496.206 219.582C499.619 218.45 504.351 216.921 509.558 215.262L510.501 214.969L510.868 214.848L510.776 215.236C509.616 220.55 508.556 225.25 507.722 228.663C507.313 230.313 506.979 231.669 506.737 232.689C506.62 233.112 506.52 233.475 506.445 233.769C506.413 233.899 506.362 234.025 506.295 234.14Z" fill="#2DB1FF"/>
<path d="M389.78 342.723C396.493 342.614 403.088 344.498 408.73 348.137C414.373 351.775 418.809 357.005 421.48 363.166C424.15 369.326 424.933 376.139 423.731 382.745C422.529 389.35 419.396 395.451 414.727 400.276C410.058 405.1 404.063 408.432 397.5 409.85C390.938 411.268 384.102 410.708 377.858 408.241C371.614 405.774 366.241 401.511 362.419 395.99C358.598 390.47 356.499 383.941 356.388 377.228C356.251 368.227 359.69 359.54 365.95 353.071C372.21 346.603 380.78 342.881 389.78 342.723ZM390.592 392.909C393.801 392.849 396.921 391.839 399.557 390.007C402.192 388.175 404.226 385.603 405.401 382.615C406.575 379.628 406.838 376.36 406.155 373.223C405.473 370.086 403.876 367.222 401.567 364.993C399.258 362.763 396.339 361.268 393.181 360.696C390.022 360.125 386.765 360.502 383.821 361.781C380.876 363.06 378.377 365.182 376.639 367.881C374.9 370.579 374.001 373.733 374.054 376.942C374.091 379.077 374.548 381.183 375.4 383.14C376.251 385.098 377.479 386.869 379.015 388.351C380.551 389.834 382.364 391 384.35 391.782C386.337 392.564 388.457 392.947 390.592 392.909Z" fill="#2DB1FF"/>
<path d="M389.72 338.499C399.844 338.354 409.612 342.229 416.883 349.275C424.154 356.321 428.335 365.962 428.509 376.085L405.356 376.687C405.206 366.628 398.395 362.539 390.321 362.028C388.337 361.909 386.35 362.202 384.485 362.889C382.62 363.576 380.917 364.641 379.484 366.018C378.05 367.395 376.918 369.054 376.156 370.89C375.395 372.726 375.022 374.699 375.061 376.687L352.148 377.303C351.991 367.177 355.86 357.402 362.905 350.127C369.95 342.851 379.594 338.669 389.72 338.499Z" fill="#0082CB"/>
<path d="M160.269 336.22C171.957 323.956 187.992 316.769 204.924 316.207C221.856 315.645 238.332 321.751 250.808 333.213C256.936 338.861 261.883 345.67 265.36 353.244C268.838 360.818 270.778 369.007 271.067 377.336C271.357 385.666 269.99 393.969 267.047 401.767C264.103 409.564 259.642 416.699 253.92 422.76C242.232 435.024 226.198 442.21 209.265 442.772C192.333 443.335 175.857 437.228 163.381 425.766C157.253 420.118 152.306 413.31 148.829 405.736C145.351 398.162 143.411 389.973 143.122 381.643C142.832 373.314 144.199 365.01 147.142 357.213C150.086 349.416 154.548 342.28 160.269 336.22ZM229.429 400.177C232.172 397.281 234.311 393.868 235.722 390.137C237.133 386.407 237.788 382.432 237.648 378.446C237.508 374.459 236.576 370.541 234.907 366.918C233.238 363.295 230.864 360.04 227.925 357.344C221.954 351.87 214.071 348.96 205.975 349.241C197.879 349.522 190.218 352.972 184.64 358.847C181.897 361.743 179.758 365.156 178.347 368.887C176.936 372.618 176.281 376.593 176.421 380.579C176.561 384.565 177.493 388.484 179.162 392.107C180.831 395.73 183.205 398.984 186.144 401.681C192.115 407.168 200.005 410.085 208.109 409.804C216.214 409.523 223.882 406.065 229.459 400.177H229.429Z" fill="#F5F5F5"/>
<path d="M160.269 336.22C171.957 323.956 187.992 316.769 204.924 316.207C221.856 315.645 238.332 321.751 250.808 333.213L227.985 357.389C222.014 351.915 214.131 349.005 206.035 349.286C197.939 349.568 190.278 353.017 184.701 358.892C181.958 361.788 179.818 365.201 178.407 368.932C176.996 372.663 176.342 376.638 176.481 380.624C176.621 384.61 177.553 388.529 179.222 392.152C180.891 395.775 183.265 399.029 186.204 401.726L163.351 425.812C157.218 420.161 152.268 413.348 148.789 405.769C145.31 398.189 143.371 389.995 143.084 381.66C142.798 373.325 144.169 365.017 147.119 357.216C150.069 349.416 154.539 342.279 160.269 336.22Z" fill="#0082CB"/>
<path d="M248.192 322.824C279.765 352.037 283.599 399.501 254.055 430.833L221.986 403.185C236.104 388.225 239.171 368.244 224.061 354.277L248.192 322.824Z" fill="#2DB1FF"/>
<path d="M218.649 405.169L237.698 442.846C245.574 439.959 252.672 435.28 258.431 429.18L224.212 401.546L218.649 405.169Z" fill="#E0E0E0"/>
<path d="M348.108 69.4825C358.007 55.7964 371.742 45.3535 387.576 39.475C403.411 33.5966 420.633 32.5467 437.065 36.4581C453.496 40.3696 468.398 49.0666 479.886 61.4491C491.373 73.8315 498.93 89.3429 501.6 106.021C504.271 122.699 501.934 139.794 494.887 155.144C487.839 170.494 476.397 183.409 462.008 192.255C447.619 201.101 430.93 205.481 414.052 204.839C397.173 204.198 380.864 198.566 367.188 188.654C348.887 175.357 336.603 155.347 333.027 133.01C329.451 110.673 334.874 87.8289 348.108 69.4825ZM450.343 143.477C455.074 136.936 457.76 129.139 458.06 121.072C458.361 113.005 456.263 105.03 452.031 98.1548C447.799 91.28 441.624 85.8145 434.286 82.4492C426.948 79.0839 418.777 77.9699 410.806 79.2482C402.835 80.5265 395.422 84.1397 389.505 89.6308C383.587 95.1219 379.43 102.244 377.561 110.098C375.691 117.951 376.191 126.182 379 133.751C381.808 141.32 386.797 147.886 393.336 152.619C402.112 158.956 413.043 161.552 423.73 159.838C434.418 158.124 443.989 152.24 450.343 143.477Z" fill="#0082CB"/>
<path d="M348.108 69.4825C361.399 51.1576 381.417 38.8546 403.769 35.2741C426.122 31.6936 448.981 37.128 467.331 50.3846L441.212 86.4797C432.442 80.1309 421.508 77.5263 410.817 79.2388C400.126 80.9513 390.553 86.8407 384.205 95.6113C377.856 104.382 375.251 115.315 376.964 126.006C378.676 136.697 384.566 146.27 393.336 152.619L367.188 188.654C348.88 175.361 336.591 155.352 333.014 133.012C329.438 110.673 334.866 87.8262 348.108 69.4825Z" fill="#2DB1FF"/>
<path d="M465.301 40.3014C509.92 72.5942 519.603 132.992 487.299 177.602L445.065 147.039C460.514 125.7 454.335 100.36 432.999 84.9329L465.301 40.3014Z" fill="#F0F0F0"/>
<path d="M119.315 356.757L397.907 354.758V358.667L119.315 361.163V356.757Z" fill="#0082CB"/>
<path d="M113.241 73.5192L119.585 359.088L397.907 356.923V68.7231L113.241 73.5192Z" fill="white"/>
<path d="M113.241 73.5194L397.907 68.3926H398.253V68.7384C398.253 151.234 398.253 248.583 398.253 352.443V357.329H397.862L119.54 359.449H119.209V359.118C115.616 187.963 113.271 76.4662 113.196 73.5344C113.196 76.4211 115.872 187.963 119.871 359.088L119.54 358.757L397.862 356.547L397.471 356.938V352.428C397.471 248.568 397.471 151.219 397.471 68.7233L397.817 69.0691L113.241 73.5194Z" fill="#0082CB"/>
<path d="M112.128 75.4286L399.125 73.7898L399.486 61.7471L112.128 63.5362V75.4286Z" fill="#0082CB"/>
<path d="M249.515 366.876C249.034 366.876 248.523 364.636 248.387 361.839C248.252 359.043 248.553 356.757 249.034 356.727C249.515 356.697 250.026 358.952 250.161 361.749C250.297 364.545 250.011 366.876 249.515 366.876Z" fill="#0082CB"/>
<path d="M249.41 364.816C249.41 364.711 249.891 364.681 250.643 364.982C251.096 365.173 251.521 365.426 251.905 365.733C252.423 366.149 252.856 366.659 253.183 367.237C253.629 368.036 253.853 368.94 253.832 369.854C253.811 370.769 253.546 371.662 253.063 372.439C252.774 372.908 252.408 373.324 251.981 373.672C251.535 374.03 251.024 374.301 250.477 374.469C249.315 374.79 248.077 374.699 246.974 374.213C246.416 373.965 245.907 373.618 245.471 373.191C245.037 372.763 244.694 372.251 244.463 371.687C244.047 370.662 243.958 369.533 244.208 368.455C244.393 367.556 244.826 366.727 245.459 366.063C246.091 365.399 246.898 364.925 247.786 364.696C248.923 364.385 250.134 364.492 251.199 364.997C251.921 365.358 252.191 365.733 252.131 365.824C252.071 365.914 251.665 365.824 250.973 365.643C250.032 365.468 249.06 365.551 248.162 365.884C247.583 366.109 247.068 366.47 246.658 366.936C246.189 367.486 245.883 368.156 245.774 368.871C245.665 369.585 245.758 370.316 246.042 370.981C246.369 371.695 246.955 372.259 247.681 372.559C248.403 372.882 249.214 372.951 249.981 372.755C250.686 372.572 251.298 372.132 251.695 371.522C252.087 370.946 252.32 370.277 252.372 369.582C252.417 369.268 252.417 368.949 252.372 368.635C252.323 368.34 252.237 368.052 252.116 367.778C251.73 366.894 251.125 366.122 250.357 365.538C249.801 365.147 249.41 364.937 249.41 364.816Z" fill="#0082CB"/>
<path d="M290.815 229.789C290.815 229.789 290.815 229.789 290.635 229.789H290.124L288.139 229.88L280.486 230.21L252.342 231.263C228.572 232.135 195.721 233.293 159.457 234.54L146.978 234.961H146.693V234.676C144.167 201.494 141.882 171.756 140.303 150.376C139.521 139.702 138.905 131.117 138.469 125.208C138.273 122.201 138.108 119.961 138.003 118.413C138.003 117.631 137.913 117.044 137.898 116.638C137.883 116.233 137.898 116.293 137.898 116.187C137.898 116.082 137.898 116.037 137.898 116.037C137.905 116.087 137.905 116.138 137.898 116.187C137.898 116.293 137.898 116.443 137.898 116.638C137.898 116.834 137.988 117.631 138.063 118.398C138.183 119.901 138.379 122.231 138.634 125.193C139.1 131.102 139.792 139.687 140.649 150.331C142.333 171.65 144.648 201.314 147.204 234.631L146.903 234.36L159.382 233.924C195.646 232.691 228.542 231.594 252.266 230.842L280.426 229.97L288.079 229.759H290.064H290.755L290.815 229.789Z" fill="#455A64"/>
<path d="M190.038 106.791V110.625L229.699 108.731V105.513L190.038 106.791Z" fill="#263238"/>
<path d="M160.014 226.512H173.8L171.635 189.09H158.119L160.014 226.512Z" fill="#2DB1FF"/>
<path d="M185.001 226.527H198.773L196.623 174.221H183.107L185.001 226.527Z" fill="#2DB1FF"/>
<path d="M208.395 224.858H222.182L220.017 156.375H206.516L208.395 224.858Z" fill="#2DB1FF"/>
<path d="M262.069 222.197H275.841L273.691 128.862H260.175L262.069 222.197Z" fill="#2DB1FF"/>
<path d="M235.954 222.512H249.725L247.56 142.197H234.059L235.954 222.512Z" fill="#2DB1FF"/>
<path d="M151.354 179.393C150.993 178.837 175.62 162.419 206.335 142.724C237.051 123.028 262.279 107.513 262.64 108.144C263.001 108.776 238.374 125.118 207.643 144.814C176.913 164.509 151.684 179.95 151.354 179.393Z" fill="#2DB1FF"/>
<path d="M249.004 108.084C248.884 107.422 257.799 105.197 268.955 103.092L271.781 102.566L270.173 104.956L270.082 105.092C263.708 114.564 258.055 121.946 257.528 121.63C257.002 121.314 261.708 113.286 268.053 103.799L268.143 103.663L269.376 105.528C258.235 107.557 249.124 108.73 249.004 108.084Z" fill="#2DB1FF"/>
<path d="M158.119 239.156H172.522L172.973 241.712H158.119V239.156Z" fill="#263238"/>
<path d="M183.618 238.104H198.021L198.472 240.659H183.618V238.104Z" fill="#263238"/>
<path d="M209.868 237.352H224.272L224.723 239.908H209.868V237.352Z" fill="#263238"/>
<path d="M234.465 236.735H248.869L249.32 239.306H234.465V236.735Z" fill="#263238"/>
<path d="M264.941 235.833H279.344L279.795 238.404H264.941V235.833Z" fill="#263238"/>
<path d="M329.544 337.739C354.936 337.739 375.521 317.155 375.521 291.763C375.521 266.371 354.936 245.787 329.544 245.787C304.153 245.787 283.568 266.371 283.568 291.763C283.568 317.155 304.153 337.739 329.544 337.739Z" fill="#2DB1FF"/>
<path opacity="0.3" d="M329.544 337.739C354.936 337.739 375.521 317.155 375.521 291.763C375.521 266.371 354.936 245.787 329.544 245.787C304.153 245.787 283.568 266.371 283.568 291.763C283.568 317.155 304.153 337.739 329.544 337.739Z" fill="black"/>
<path d="M329.544 291.703L284.696 301.791C277.479 268.715 304.151 245.727 329.544 245.727" fill="#2DB1FF"/>
<path d="M329.605 291.703L329.304 245.727C363.162 245.727 379.941 276.683 374.528 301.49L329.605 291.703Z" fill="#2DB1FF"/>
<path d="M329.605 291.703L329.304 245.727C363.162 245.727 379.941 276.683 374.528 301.49L329.605 291.703Z" fill="#2DB1FF"/>
<path opacity="0.1" d="M329.605 291.703L329.304 245.727C363.162 245.727 379.941 276.683 374.528 301.49L329.605 291.703Z" fill="black"/>
<path d="M376.708 182.896C375.815 182.299 374.863 181.795 373.867 181.393C371.09 180.544 368.111 180.628 365.387 181.633C361.869 182.731 358.381 185.527 354.998 189.031C351.615 192.534 347.992 196.773 342.7 199.254C340.146 200.523 337.272 200.999 334.446 200.622C331.896 200.093 329.432 199.213 327.124 198.006C325.092 196.948 322.921 196.184 320.674 195.736C318.72 195.429 316.719 195.679 314.901 196.458C312.225 197.593 310.036 199.638 308.722 202.231C308.299 203.205 307.952 204.21 307.684 205.238C307.731 204.15 307.992 203.083 308.451 202.096C309.71 199.358 311.922 197.172 314.675 195.946C316.561 195.107 318.644 194.81 320.689 195.089C323.01 195.52 325.258 196.28 327.365 197.345C329.612 198.511 332.01 199.361 334.491 199.87C337.165 200.203 339.879 199.743 342.294 198.547C347.376 196.172 350.939 191.962 354.412 188.519C357.885 185.076 361.478 182.175 365.132 181.107C367.969 180.117 371.059 180.117 373.897 181.107C374.654 181.399 375.367 181.794 376.017 182.28C376.272 182.456 376.504 182.663 376.708 182.896Z" fill="#263238"/>
<path d="M380.602 212.605C380.602 212.83 364.275 212.996 344.143 212.996C324.012 212.996 307.684 212.83 307.684 212.605C307.684 212.379 324.012 212.214 344.143 212.214C364.275 212.214 380.602 212.394 380.602 212.605Z" fill="#263238"/>
<path d="M376.543 212.605C376.332 212.605 376.152 203.314 376.152 191.842C376.152 180.371 376.332 171.094 376.543 171.094C376.753 171.094 376.934 180.386 376.934 191.842C376.934 203.299 376.768 212.605 376.543 212.605Z" fill="#263238"/>
<path d="M315.036 195.12C315.036 195.12 314.931 194.969 315.036 194.699C315.105 194.509 315.215 194.337 315.358 194.194C315.501 194.051 315.673 193.941 315.863 193.872C316.149 193.746 316.464 193.7 316.774 193.74C317.084 193.779 317.377 193.903 317.622 194.097C317.887 194.395 318.043 194.773 318.065 195.171C318.088 195.568 317.974 195.961 317.744 196.286C317.513 196.611 317.179 196.848 316.797 196.958C316.414 197.069 316.005 197.046 315.637 196.894C315.379 196.739 315.166 196.518 315.02 196.254C314.875 195.99 314.803 195.692 314.811 195.39C314.807 195.19 314.844 194.991 314.919 194.805C314.994 194.619 315.105 194.45 315.247 194.308C315.472 194.128 315.637 194.128 315.652 194.158C315.668 194.188 315.247 194.594 315.352 195.36C315.373 195.558 315.439 195.747 315.546 195.914C315.653 196.081 315.798 196.221 315.968 196.323C316.179 196.376 316.401 196.364 316.605 196.289C316.81 196.214 316.987 196.08 317.113 195.903C317.24 195.726 317.31 195.515 317.315 195.298C317.32 195.08 317.259 194.866 317.141 194.684C316.99 194.56 316.811 194.475 316.62 194.435C316.429 194.396 316.231 194.404 316.043 194.458C315.277 194.579 315.141 195.15 315.036 195.12Z" fill="#263238"/>
<path d="M364.199 180.04C364.199 180.04 364.199 179.859 364.47 179.709C364.82 179.533 365.224 179.501 365.598 179.619C365.894 179.699 366.163 179.86 366.375 180.082C366.587 180.305 366.734 180.581 366.8 180.882C366.824 181.269 366.715 181.653 366.493 181.972C366.271 182.291 365.949 182.526 365.577 182.639C365.205 182.751 364.807 182.736 364.445 182.594C364.083 182.453 363.78 182.194 363.583 181.859C363.475 181.569 363.447 181.255 363.502 180.951C363.558 180.646 363.695 180.363 363.899 180.13C364.153 179.829 364.514 179.64 364.906 179.604C365.177 179.604 365.312 179.694 365.297 179.739C365.282 179.784 364.726 179.814 364.35 180.461C364.246 180.622 364.181 180.805 364.16 180.995C364.139 181.186 364.163 181.378 364.23 181.558C364.362 181.72 364.539 181.84 364.74 181.9C364.94 181.961 365.154 181.961 365.354 181.9C365.554 181.838 365.731 181.719 365.863 181.556C365.995 181.394 366.075 181.195 366.094 180.987C366.054 180.8 365.971 180.625 365.85 180.476C365.73 180.327 365.577 180.208 365.402 180.13C364.741 179.799 364.275 180.145 364.199 180.04Z" fill="#263238"/>
<path d="M375.25 130.831C375.25 131.042 359.433 131.222 339.933 131.222C320.433 131.222 304.617 131.042 304.617 130.831C304.617 130.621 320.418 130.44 339.933 130.44C359.448 130.44 375.25 130.651 375.25 130.831Z" fill="#263238"/>
<path d="M375.25 140.679C375.25 140.905 359.433 141.07 339.933 141.07C320.433 141.07 304.617 140.905 304.617 140.679C304.617 140.453 320.418 140.288 339.933 140.288C359.448 140.288 375.25 140.469 375.25 140.679Z" fill="#263238"/>
<path d="M375.25 150.497C375.25 150.707 359.433 150.888 339.933 150.888C320.433 150.888 304.617 150.707 304.617 150.497C304.617 150.286 320.418 150.106 339.933 150.106C359.448 150.106 375.25 150.271 375.25 150.497Z" fill="#263238"/>
<path d="M375.25 160.299C375.25 160.525 359.433 160.69 339.933 160.69C320.433 160.69 304.617 160.525 304.617 160.299C304.617 160.074 320.418 159.908 339.933 159.908C359.448 159.908 375.25 160.089 375.25 160.299Z" fill="#263238"/>
<path d="M342.204 112.925H304.617V116.097H342.204V112.925Z" fill="#263238"/>
<path d="M187.046 270.428H149.459V273.601H187.046V270.428Z" fill="#263238"/>
<path d="M252.311 288.816C252.311 289.041 229.504 289.207 201.374 289.207C173.244 289.207 150.421 289.041 150.421 288.816C150.421 288.59 173.229 288.425 201.374 288.425C229.519 288.425 252.311 288.605 252.311 288.816Z" fill="#263238"/>
<path d="M252.913 297.716C252.913 297.927 229.699 298.107 201.073 298.107C172.447 298.107 149.234 297.927 149.234 297.716C149.234 297.506 172.432 297.325 201.073 297.325C229.714 297.325 252.913 297.536 252.913 297.716Z" fill="#263238"/>
<path d="M254.101 306.105C254.101 306.316 230.752 306.496 201.96 306.496C173.169 306.496 149.82 306.316 149.82 306.105C149.82 305.895 173.169 305.714 201.96 305.714C230.752 305.714 254.101 305.88 254.101 306.105Z" fill="#263238"/>
<path d="M204.05 315.036C204.05 315.247 192.022 315.427 177.228 315.427C162.434 315.427 150.421 315.247 150.421 315.036C150.421 314.826 162.449 314.646 177.228 314.646C192.007 314.646 204.05 314.826 204.05 315.036Z" fill="#263238"/>
<path d="M41.2439 445.19V436.147L24.2319 435.996L24.0912 449.29L25.096 449.361C29.7886 449.652 48.9711 450.506 52.1163 449.582C55.6734 448.537 41.2439 445.19 41.2439 445.19Z" fill="#2DB1FF"/>
<path d="M52.5685 448.747C52.5685 448.908 46.2078 449.039 38.36 449.039C30.5122 449.039 24.1415 448.908 24.1415 448.747C24.1415 448.587 30.5122 448.456 38.36 448.456C46.2078 448.456 52.5685 448.587 52.5685 448.747Z" fill="#263238"/>
<path d="M41.5453 447.05C41.4047 446.969 41.5453 446.477 41.887 446.045C42.2286 445.613 42.7009 445.332 42.8014 445.442C42.9019 445.553 42.6808 445.965 42.3492 446.447C42.0176 446.929 41.686 447.13 41.5453 447.05Z" fill="#263238"/>
<path d="M42.6305 447.642C42.4798 447.582 42.5602 447.039 42.8918 446.477C43.2234 445.914 43.6655 445.572 43.7861 445.673C43.9067 445.773 43.7057 446.245 43.3942 446.768C43.0827 447.291 42.7813 447.703 42.6305 447.642Z" fill="#263238"/>
<path d="M29.2561 448.688C29.1858 448.738 28.9245 448.497 28.5528 448.095C28.1002 447.569 27.5989 447.088 27.0555 446.658C26.5137 446.26 25.8822 446.001 25.2167 445.904C24.7042 445.834 24.3726 445.904 24.3425 445.824C24.3123 445.743 24.6339 445.532 25.2267 445.492C26.008 445.47 26.7736 445.714 27.3972 446.185C27.9916 446.641 28.4959 447.203 28.8843 447.843C29.1958 448.316 29.3365 448.637 29.2561 448.688Z" fill="#263238"/>
<path d="M41.5956 445.341C41.676 445.472 41.3745 445.793 40.8922 445.964C40.4099 446.135 39.9778 446.075 39.9577 445.914C39.9376 445.753 40.2692 445.572 40.7013 445.422C41.1334 445.271 41.5052 445.201 41.5956 445.341Z" fill="#263238"/>
<path d="M41.3143 444.457C41.3143 444.618 40.8721 444.758 40.3094 444.768C39.7467 444.779 39.3046 444.648 39.3046 444.487C39.3046 444.326 39.7668 444.196 40.3094 444.186C40.852 444.176 41.3143 444.296 41.3143 444.457Z" fill="#2DB1FF"/>
<path d="M52.5685 448.747C52.5685 448.908 46.2078 449.039 38.36 449.039C30.5122 449.039 24.1415 448.908 24.1415 448.747C24.1415 448.587 30.5122 448.456 38.36 448.456C46.2078 448.456 52.5685 448.587 52.5685 448.747Z" fill="#263238"/>
<path d="M41.5453 447.05C41.4047 446.969 41.5453 446.477 41.887 446.045C42.2286 445.613 42.7009 445.332 42.8014 445.442C42.9019 445.553 42.6808 445.965 42.3492 446.447C42.0176 446.929 41.686 447.13 41.5453 447.05Z" fill="#263238"/>
<path d="M42.6305 447.642C42.4798 447.582 42.5602 447.039 42.8918 446.477C43.2234 445.914 43.6655 445.572 43.7861 445.673C43.9067 445.773 43.7057 446.245 43.3942 446.768C43.0827 447.291 42.7813 447.703 42.6305 447.642Z" fill="#263238"/>
<path d="M29.2561 448.688C29.1858 448.738 28.9245 448.497 28.5528 448.095C28.1002 447.569 27.5989 447.088 27.0555 446.658C26.5137 446.26 25.8822 446.001 25.2167 445.904C24.7042 445.834 24.3726 445.904 24.3425 445.824C24.3123 445.743 24.6339 445.532 25.2267 445.492C26.008 445.47 26.7736 445.714 27.3972 446.185C27.9916 446.641 28.4959 447.203 28.8843 447.843C29.1958 448.316 29.3365 448.637 29.2561 448.688Z" fill="#263238"/>
<path d="M41.5956 445.341C41.676 445.472 41.3745 445.793 40.8922 445.964C40.4099 446.135 39.9778 446.075 39.9577 445.914C39.9376 445.753 40.2692 445.572 40.7013 445.422C41.1334 445.271 41.5052 445.201 41.5956 445.341Z" fill="#263238"/>
<path d="M41.3143 444.457C41.3143 444.618 40.8721 444.758 40.3094 444.768C39.7467 444.779 39.3046 444.648 39.3046 444.487C39.3046 444.326 39.7668 444.196 40.3094 444.186C40.852 444.176 41.3143 444.296 41.3143 444.457Z" fill="#263238"/>
<path d="M59.1904 441.975L61.8733 433.303L45.6552 428.158L41.6358 440.809L42.6406 441.191C47.0318 442.859 65.1089 449.35 68.3847 449.401C71.9821 449.441 59.1904 441.975 59.1904 441.975Z" fill="#2DB1FF"/>
<path d="M68.9575 448.717C68.9575 448.878 62.7877 447.12 55.2916 444.788C47.7955 442.457 41.7563 440.458 41.8066 440.307C41.8568 440.156 47.9663 441.915 55.4725 444.236C62.9786 446.557 69.0077 448.567 68.9575 448.717Z" fill="#263238"/>
<path d="M58.9292 443.834C58.8186 443.713 59.0799 443.291 59.5622 442.94C60.0446 442.588 60.5671 442.497 60.6173 442.638C60.6676 442.779 60.346 443.1 59.9039 443.422C59.4617 443.743 59.0397 443.944 58.9292 443.834Z" fill="#263238"/>
<path d="M59.7833 444.728C59.6627 444.628 59.8938 444.126 60.3862 443.724C60.8786 443.322 61.3911 443.091 61.4815 443.221C61.5719 443.352 61.2303 443.744 60.7781 444.156C60.3259 444.568 59.9139 444.789 59.7833 444.728Z" fill="#263238"/>
<path d="M46.7203 441.774C46.6399 441.774 46.469 441.503 46.2379 441C45.9619 440.366 45.6254 439.761 45.2331 439.191C44.8341 438.652 44.31 438.217 43.7057 437.925C43.2335 437.714 42.8918 437.674 42.8918 437.594C42.8918 437.513 43.2535 437.393 43.8364 437.534C44.5858 437.746 45.2411 438.207 45.6953 438.84C46.1256 439.448 46.4422 440.129 46.6298 440.849C46.7605 441.392 46.7906 441.774 46.7203 441.774Z" fill="#455A64"/>
<path d="M59.4818 442.216C59.4818 442.367 59.1402 442.588 58.6277 442.608C58.1152 442.628 57.7133 442.437 57.7434 442.276C57.7736 442.116 58.1554 442.045 58.6076 442.025C59.0598 442.005 59.4014 442.055 59.4818 442.216Z" fill="#263238"/>
<path d="M59.4818 441.302C59.4818 441.452 58.9794 441.452 58.4267 441.302C57.874 441.151 57.4822 440.88 57.5324 440.729C57.5826 440.578 58.065 440.588 58.5875 440.729C59.11 440.87 59.522 441.141 59.4818 441.302Z" fill="#263238"/>
<path d="M70.736 265.555L48.4084 263.836L14.5854 261.093L18.3636 442.779L47.7352 442.397C47.7352 442.397 47.7352 440.387 47.6648 436.83L64.8878 441.543C64.8878 441.543 81.6687 384.85 87.3863 361.588C92.1593 342.204 70.736 265.555 70.736 265.555ZM47.3433 408.614C46.9011 366.672 46.3887 295.348 47.0016 286.626C47.0016 286.626 63.3605 349.419 63.5112 354.373C63.6117 357.367 54.4978 386.347 47.3433 408.614Z" fill="#455A64"/>
<path d="M47.8959 435.514C47.8959 435.675 41.3243 435.805 33.2252 435.805C25.1262 435.805 18.5444 435.675 18.5444 435.514C18.5444 435.353 25.1161 435.223 33.2252 435.223C41.3343 435.223 47.8959 435.353 47.8959 435.514Z" fill="#455A64"/>
<path d="M47.6347 428.982C48.5534 429.2 49.4538 429.489 50.3277 429.847L57.0501 432.188L63.7725 434.539C64.7232 434.811 65.6453 435.174 66.5258 435.624C65.5441 435.488 64.5782 435.256 63.6419 434.931C61.8934 434.419 59.4918 433.655 56.8592 432.741C54.2265 431.826 51.8349 430.922 50.187 430.228C49.2826 429.933 48.4236 429.514 47.6347 428.982Z" fill="#455A64"/>
<path d="M74.5445 353.81C72.7278 354.233 70.8725 354.469 69.0078 354.513C67.1583 354.75 65.2894 354.793 63.4309 354.644C65.2464 354.213 67.1021 353.974 68.9676 353.931C70.8171 353.695 72.6864 353.654 74.5445 353.81Z" fill="#455A64"/>
<path d="M72.6252 357.106C71.1807 356.984 69.7584 356.673 68.3948 356.182C66.9755 355.872 65.6037 355.375 64.3151 354.705C65.7637 354.814 67.1904 355.122 68.5555 355.619C70.8466 356.282 72.6754 356.945 72.6252 357.106Z" fill="#455A64"/>
<path d="M49.7046 264.068C49.8396 265.215 49.89 266.37 49.8554 267.525C49.8554 269.665 49.8554 272.619 49.8554 275.885C49.8554 277.503 49.8554 279.05 49.7951 280.477C49.8319 281.762 49.592 283.041 49.0917 284.225C48.7353 285.032 48.1655 285.727 47.4437 286.235C47.1976 286.439 46.9038 286.577 46.5896 286.637C46.5896 286.637 46.871 286.456 47.3232 286.074C47.9577 285.53 48.4507 284.841 48.7601 284.064C49.1791 282.913 49.3669 281.691 49.3128 280.467C49.3128 279.03 49.3128 277.452 49.3128 275.865C49.3128 272.599 49.3931 269.645 49.4534 267.514C49.4502 266.361 49.5342 265.209 49.7046 264.068Z" fill="#455A64"/>
<path d="M32.8936 263.042C32.9044 263.19 32.9044 263.337 32.8936 263.485C32.8936 263.806 32.8936 264.238 32.8936 264.791C32.8936 265.957 32.8032 267.645 32.7328 269.815C32.5922 274.186 32.3912 280.466 32.14 288.214C31.6677 303.749 31.1854 325.222 31.0648 348.926C30.9442 372.631 31.2155 394.144 31.527 409.669C31.6979 417.417 31.8285 423.737 31.929 428.068C31.929 430.228 32.0093 431.906 32.0395 433.092C32.0395 433.645 32.0395 434.097 32.0395 434.398C32.0503 434.546 32.0503 434.693 32.0395 434.841C32.0287 434.693 32.0287 434.546 32.0395 434.398C32.0395 434.087 32.0395 433.655 31.9692 433.102C31.9692 431.927 31.8586 430.248 31.7682 428.078C31.5974 423.737 31.3964 417.447 31.1954 409.679C30.7834 394.134 30.4619 372.661 30.5825 348.926C30.7031 325.192 31.2457 303.709 31.8084 288.204C32.0897 280.436 32.351 274.136 32.5721 269.805C32.6826 267.655 32.773 265.977 32.8333 264.781C32.8333 264.228 32.8936 263.776 32.9137 263.475C32.8967 263.331 32.89 263.187 32.8936 263.042Z" fill="#455A64"/>
<path d="M63.4208 267.615C63.4818 267.748 63.5322 267.886 63.5715 268.027C63.662 268.328 63.7926 268.73 63.9534 269.253C64.2749 270.328 64.7874 271.915 65.3501 273.985C66.5057 278.115 68.0632 284.114 69.8016 291.58C71.54 299.046 73.4692 307.949 75.4789 317.877C77.4886 327.805 79.6088 338.738 81.508 350.273C81.7492 351.72 81.9702 353.157 82.1611 354.594C82.1611 354.976 82.2315 355.368 82.2315 355.74L82.0506 356.805C81.92 357.518 81.8195 358.232 81.6587 358.925C81.086 361.718 80.4429 364.452 79.7495 367.124C78.3829 372.47 76.936 377.585 75.5091 382.448C72.6754 392.175 69.9422 400.877 67.621 408.182C65.2999 415.488 63.3605 421.366 61.9939 425.425L60.4063 430.098L59.9742 431.314C59.9367 431.454 59.8827 431.589 59.8134 431.716C59.8397 431.573 59.8766 431.431 59.924 431.294C60.0244 430.992 60.145 430.59 60.3058 430.068L61.803 425.365L67.2694 408.072C69.5403 400.757 72.2333 392.045 75.0469 382.318C76.4536 377.454 77.8906 372.329 79.2571 366.994C79.9404 364.331 80.5835 361.608 81.1563 358.824C81.3171 358.131 81.4075 357.428 81.5281 356.724L81.709 355.669C81.709 355.328 81.6587 354.996 81.6386 354.664C81.4477 353.248 81.2367 351.811 80.9955 350.374C79.0863 338.848 76.9762 327.915 74.9665 317.988C72.9568 308.06 71.138 299.086 69.4499 291.661C67.7617 284.235 66.2444 278.176 65.1491 274.036C64.6266 271.966 64.1443 270.368 63.8529 269.283L63.5213 268.047C63.472 267.907 63.4383 267.762 63.4208 267.615Z" fill="#455A64"/>
<path d="M47.2529 404.927C47.3338 405.394 47.3641 405.869 47.3433 406.344C47.3433 407.348 47.3433 408.665 47.3935 410.222C47.3935 413.589 47.5141 418.06 47.5845 422.994C47.6548 427.928 47.8457 432.399 47.9362 435.765C47.9362 437.323 48.0165 438.629 48.0467 439.644C48.0921 440.115 48.0921 440.59 48.0467 441.061C47.9358 440.6 47.8752 440.128 47.8658 439.654C47.7854 438.74 47.695 437.423 47.5945 435.786C47.3935 432.52 47.2026 427.998 47.0921 423.004C46.9816 418.01 47.0017 413.488 47.0921 410.222C47.0921 408.584 47.1624 407.208 47.2026 406.344C47.1823 405.871 47.1991 405.397 47.2529 404.927Z" fill="#455A64"/>
<path d="M70.736 265.555L48.4084 263.836L14.5854 261.093L18.3636 442.779L47.7352 442.397C47.7352 442.397 47.7352 440.387 47.6648 436.83L64.8878 441.543C64.8878 441.543 81.6687 384.85 87.3863 361.588C92.1593 342.204 70.736 265.555 70.736 265.555ZM47.3433 408.614C46.9011 366.672 46.3887 295.348 47.0016 286.626C47.0016 286.626 63.3605 349.419 63.5112 354.373C63.6117 357.367 54.4978 386.347 47.3433 408.614Z" fill="#0082CB"/>
<path d="M47.8959 435.514C47.8959 435.675 41.3243 435.805 33.2252 435.805C25.1262 435.805 18.5444 435.675 18.5444 435.514C18.5444 435.353 25.1161 435.223 33.2252 435.223C41.3343 435.223 47.8959 435.353 47.8959 435.514Z" fill="#455A64"/>
<path d="M47.6347 428.982C48.5534 429.2 49.4538 429.489 50.3277 429.847L57.0501 432.188L63.7725 434.539C64.7232 434.811 65.6453 435.174 66.5258 435.624C65.5441 435.488 64.5782 435.256 63.6419 434.931C61.8934 434.419 59.4918 433.655 56.8592 432.741C54.2265 431.826 51.8349 430.922 50.187 430.228C49.2826 429.933 48.4236 429.514 47.6347 428.982Z" fill="#455A64"/>
<path d="M74.5445 353.81C72.7278 354.233 70.8725 354.469 69.0078 354.513C67.1583 354.75 65.2894 354.793 63.4309 354.644C65.2464 354.213 67.1021 353.974 68.9676 353.931C70.8171 353.695 72.6864 353.654 74.5445 353.81Z" fill="#455A64"/>
<path d="M72.6252 357.106C71.1807 356.984 69.7584 356.673 68.3948 356.182C66.9755 355.872 65.6037 355.375 64.3151 354.705C65.7637 354.814 67.1904 355.122 68.5555 355.619C70.8466 356.282 72.6754 356.945 72.6252 357.106Z" fill="#455A64"/>
<path d="M49.7046 264.068C49.8396 265.215 49.89 266.37 49.8554 267.525C49.8554 269.665 49.8554 272.619 49.8554 275.885C49.8554 277.503 49.8554 279.05 49.7951 280.477C49.8319 281.762 49.592 283.041 49.0917 284.225C48.7353 285.032 48.1655 285.727 47.4437 286.235C47.1976 286.439 46.9038 286.577 46.5896 286.637C46.5896 286.637 46.871 286.456 47.3232 286.074C47.9577 285.53 48.4507 284.841 48.7601 284.064C49.1791 282.913 49.3669 281.691 49.3128 280.467C49.3128 279.03 49.3128 277.452 49.3128 275.865C49.3128 272.599 49.3931 269.645 49.4534 267.514C49.4502 266.361 49.5342 265.209 49.7046 264.068Z" fill="#455A64"/>
<path d="M32.8936 263.042C32.9044 263.19 32.9044 263.337 32.8936 263.485C32.8936 263.806 32.8936 264.238 32.8936 264.791C32.8936 265.957 32.8032 267.645 32.7328 269.815C32.5922 274.186 32.3912 280.466 32.14 288.214C31.6677 303.749 31.1854 325.222 31.0648 348.926C30.9442 372.631 31.2155 394.144 31.527 409.669C31.6979 417.417 31.8285 423.737 31.929 428.068C31.929 430.228 32.0093 431.906 32.0395 433.092C32.0395 433.645 32.0395 434.097 32.0395 434.398C32.0503 434.546 32.0503 434.693 32.0395 434.841C32.0287 434.693 32.0287 434.546 32.0395 434.398C32.0395 434.087 32.0395 433.655 31.9692 433.102C31.9692 431.927 31.8586 430.248 31.7682 428.078C31.5974 423.737 31.3964 417.447 31.1954 409.679C30.7834 394.134 30.4619 372.661 30.5825 348.926C30.7031 325.192 31.2457 303.709 31.8084 288.204C32.0897 280.436 32.351 274.136 32.5721 269.805C32.6826 267.655 32.773 265.977 32.8333 264.781C32.8333 264.228 32.8936 263.776 32.9137 263.475C32.8967 263.331 32.89 263.187 32.8936 263.042Z" fill="#455A64"/>
<path d="M63.4208 267.615C63.4818 267.748 63.5322 267.886 63.5715 268.027C63.662 268.328 63.7926 268.73 63.9534 269.253C64.2749 270.328 64.7874 271.915 65.3501 273.985C66.5057 278.115 68.0632 284.114 69.8016 291.58C71.54 299.046 73.4692 307.949 75.4789 317.877C77.4886 327.805 79.6088 338.738 81.508 350.273C81.7492 351.72 81.9702 353.157 82.1611 354.594C82.1611 354.976 82.2315 355.368 82.2315 355.74L82.0506 356.805C81.92 357.518 81.8195 358.232 81.6587 358.925C81.086 361.718 80.4429 364.452 79.7495 367.124C78.3829 372.47 76.936 377.585 75.5091 382.448C72.6754 392.175 69.9422 400.877 67.621 408.182C65.2999 415.488 63.3605 421.366 61.9939 425.425L60.4063 430.098L59.9742 431.314C59.9367 431.454 59.8827 431.589 59.8134 431.716C59.8397 431.573 59.8766 431.431 59.924 431.294C60.0244 430.992 60.145 430.59 60.3058 430.068L61.803 425.365L67.2694 408.072C69.5403 400.757 72.2333 392.045 75.0469 382.318C76.4536 377.454 77.8906 372.329 79.2571 366.994C79.9404 364.331 80.5835 361.608 81.1563 358.824C81.3171 358.131 81.4075 357.428 81.5281 356.724L81.709 355.669C81.709 355.328 81.6587 354.996 81.6386 354.664C81.4477 353.248 81.2367 351.811 80.9955 350.374C79.0863 338.848 76.9762 327.915 74.9665 317.988C72.9568 308.06 71.138 299.086 69.4499 291.661C67.7617 284.235 66.2444 278.176 65.1491 274.036C64.6266 271.966 64.1443 270.368 63.8529 269.283L63.5213 268.047C63.472 267.907 63.4383 267.762 63.4208 267.615Z" fill="#455A64"/>
<path d="M47.2529 404.927C47.3338 405.394 47.3641 405.869 47.3433 406.344C47.3433 407.348 47.3433 408.665 47.3935 410.222C47.3935 413.589 47.5141 418.06 47.5845 422.994C47.6548 427.928 47.8457 432.399 47.9362 435.765C47.9362 437.323 48.0165 438.629 48.0467 439.644C48.0921 440.115 48.0921 440.59 48.0467 441.061C47.9358 440.6 47.8752 440.128 47.8658 439.654C47.7854 438.74 47.695 437.423 47.5945 435.786C47.3935 432.52 47.2026 427.998 47.0921 423.004C46.9816 418.01 47.0017 413.488 47.0921 410.222C47.0921 408.584 47.1624 407.208 47.2026 406.344C47.1823 405.871 47.1991 405.397 47.2529 404.927Z" fill="#455A64"/>
<path d="M32.2706 178.355L49.353 179.621C49.5841 177.611 49.9157 169.964 49.9157 169.964C49.9157 169.964 57.04 169.311 57.5625 162.257C58.0851 155.203 57.864 138.914 57.864 138.914C53.9586 136.941 49.5966 136.046 45.2295 136.323C40.8623 136.601 36.6486 138.04 33.0243 140.492L31.929 141.236L32.2706 178.355Z" fill="#E5BAAB"/>
<path d="M55.4323 150.942C55.2969 150.8 55.2063 150.62 55.1717 150.427C55.1371 150.234 55.1599 150.034 55.2375 149.854C55.315 149.673 55.4438 149.519 55.6079 149.411C55.7721 149.303 55.9643 149.245 56.1608 149.245C56.3574 149.245 56.5496 149.303 56.7137 149.411C56.8778 149.519 57.0066 149.673 57.0842 149.854C57.1617 150.034 57.1846 150.234 57.15 150.427C57.1153 150.62 57.0247 150.8 56.8893 150.942C56.7955 151.041 56.6825 151.12 56.5572 151.173C56.432 151.227 56.2971 151.255 56.1608 151.255C56.0245 151.255 55.8897 151.227 55.7644 151.173C55.6392 151.12 55.5262 151.041 55.4323 150.942Z" fill="#263238"/>
<path d="M57.241 149.435C57.1204 149.556 56.4673 148.983 55.4926 148.913C54.5179 148.842 53.7843 149.304 53.6838 149.174C53.5834 149.043 53.7542 148.902 54.0858 148.691C54.5133 148.411 55.0234 148.283 55.5328 148.33C56.046 148.36 56.5342 148.562 56.9194 148.902C57.2108 149.154 57.3013 149.365 57.241 149.435Z" fill="#263238"/>
<path d="M45.9867 149.596C46.1458 149.712 46.2673 149.872 46.3359 150.057C46.4046 150.242 46.4174 150.443 46.3728 150.635C46.3282 150.827 46.2282 151.001 46.0851 151.137C45.9421 151.272 45.7623 151.363 45.5683 151.397C45.3742 151.431 45.1744 151.407 44.9936 151.329C44.8129 151.25 44.6592 151.12 44.5518 150.955C44.4443 150.79 44.3878 150.597 44.3892 150.4C44.3907 150.203 44.45 150.011 44.5598 149.847C44.6353 149.735 44.7326 149.639 44.846 149.565C44.9594 149.491 45.0866 149.441 45.2198 149.418C45.3531 149.394 45.4897 149.398 45.6214 149.428C45.7532 149.459 45.8775 149.516 45.9867 149.596Z" fill="#263238"/>
<path d="M46.6299 149.646C46.5093 149.757 45.8562 149.184 44.8815 149.114C43.9068 149.043 43.1732 149.515 43.0727 149.385C42.9723 149.254 43.1431 149.103 43.4646 148.892C43.9003 148.622 44.41 148.495 44.9216 148.531C45.4333 148.568 45.9195 148.769 46.3083 149.104C46.5997 149.365 46.6902 149.596 46.6299 149.646Z" fill="#263238"/>
<path d="M50.0362 157.906C50.5503 157.747 51.0859 157.669 51.6239 157.675C51.8852 157.675 52.0962 157.624 52.1263 157.484C52.1517 157.224 52.1029 156.963 51.9856 156.73L51.3425 154.72C50.7238 153.002 50.2696 151.229 49.986 149.425C50.7646 151.075 51.387 152.794 51.845 154.56L52.4479 156.569C52.5929 156.902 52.6213 157.274 52.5283 157.624C52.486 157.718 52.4221 157.801 52.3418 157.866C52.2614 157.93 52.1669 157.975 52.066 157.996C51.9226 158.015 51.7774 158.015 51.634 157.996C51.1 158.052 50.5606 158.021 50.0362 157.906Z" fill="#263238"/>
<path d="M46.8107 158.78C45.8059 158.117 49.5037 160.438 51.4933 160.468C51.1319 160.958 50.6148 161.31 50.0269 161.467C49.4389 161.624 48.8151 161.577 48.2577 161.333C46.1877 160.418 46.8107 158.78 46.8107 158.78Z" fill="white"/>
<path d="M49.8755 169.863C46.6127 169.725 43.4647 168.62 40.8319 166.688C40.8319 166.688 42.6909 171.903 49.775 171.712L49.8755 169.863Z" fill="#D78776"/>
<path d="M33.2755 147.495C33.1147 147.435 28.0302 146.772 28.5125 152.781C28.9948 158.79 34.9033 156.308 34.8933 156.137C34.8832 155.966 33.2755 147.495 33.2755 147.495Z" fill="#E5BAAB"/>
<path d="M32.8334 154.178C32.8334 154.178 32.743 154.258 32.5721 154.359C32.3302 154.483 32.0505 154.511 31.7883 154.439C31.3815 154.222 31.0391 153.901 30.7956 153.51C30.5522 153.118 30.4163 152.669 30.4017 152.208C30.3463 151.695 30.4081 151.176 30.5825 150.691C30.6227 150.499 30.7085 150.319 30.8327 150.167C30.9569 150.015 31.1157 149.895 31.296 149.817C31.4147 149.778 31.5428 149.781 31.6595 149.825C31.7763 149.869 31.8748 149.951 31.9391 150.058C32.0295 150.219 32.0094 150.339 32.0396 150.349C32.0697 150.359 32.1601 150.239 32.0396 149.998C31.9976 149.85 31.9052 149.722 31.7783 149.636C31.6001 149.53 31.3887 149.494 31.1854 149.535C30.9461 149.603 30.7281 149.731 30.5522 149.907C30.3763 150.083 30.2484 150.301 30.1806 150.54C29.9639 151.078 29.8845 151.662 29.9495 152.238C29.9606 152.775 30.1308 153.297 30.4385 153.737C30.7462 154.177 31.1775 154.516 31.6778 154.71C31.8425 154.745 32.0129 154.742 32.1763 154.702C32.3398 154.662 32.4922 154.586 32.6224 154.479C32.8334 154.328 32.8635 154.188 32.8334 154.178Z" fill="#D78776"/>
<path d="M58.3162 136.372C58.7229 136.361 59.1217 136.257 59.4816 136.067C59.8416 135.878 60.1531 135.608 60.3921 135.278C60.6311 134.949 60.7912 134.569 60.86 134.168C60.9287 133.767 60.9043 133.356 60.7887 132.966C60.673 132.576 60.4692 132.218 60.1929 131.919C59.9167 131.62 59.5755 131.389 59.1956 131.243C58.8158 131.098 58.4075 131.041 58.0024 131.078C57.5972 131.116 57.2061 131.246 56.8592 131.458C57.6995 130.761 58.3842 129.895 58.8689 128.916C59.1033 128.422 59.1809 127.869 59.091 127.33C59.0012 126.791 58.7483 126.292 58.3665 125.901C57.9243 125.609 57.4128 125.438 56.8835 125.406C56.3542 125.375 55.8259 125.483 55.3519 125.721C53.8547 126.364 52.669 127.63 51.1316 128.162C49.5942 128.695 47.8759 128.434 46.228 128.504C44.3788 128.537 42.5879 129.156 41.1133 130.273C39.8568 131.26 39.0436 132.705 38.8524 134.292C38.6549 134.021 38.4365 133.765 38.1993 133.528C37.4177 132.595 36.3635 131.931 35.1847 131.629C35.1144 131.76 36.491 132.523 37.8074 133.89C38.1657 134.233 38.5014 134.599 38.8122 134.985C36.5212 134.704 33.999 134.684 32.1903 136.111C31.4575 136.764 30.8784 137.571 30.4945 138.474C30.1105 139.378 29.9313 140.355 29.9696 141.336C29.9696 143.285 30.7735 145.144 31.3462 147.013C31.4847 147.543 31.7235 148.041 32.0496 148.48L32.9138 153.504L36.0589 153.444L35.858 142.903C35.858 142.903 35.5364 138.462 39.3548 138.884C43.1732 139.306 48.3984 143.577 55.8142 142.491C57.031 142.424 58.2164 142.08 59.2809 141.487C59.7961 141.16 60.2149 140.702 60.494 140.16C60.7731 139.618 60.9024 139.011 60.8685 138.402C60.7954 137.796 60.4866 137.243 60.0089 136.863C59.5312 136.483 58.9231 136.307 58.3162 136.372Z" fill="#263238"/>
<path d="M122.224 188.393L122.686 185.198C123.159 183.45 123.455 181.659 123.571 179.852C123.646 178.954 123.565 178.049 123.33 177.179C123.093 176.084 122.7 175.028 122.164 174.044C121.581 173.19 122.345 172.034 123.169 172.386C123.993 172.737 125.711 175.008 126.264 178.284C126.816 181.56 129.399 177.018 130.363 175.38C131.328 173.742 134.574 168.809 135.317 168.708C136.403 168.557 136.764 169.713 135.749 171.311C134.735 172.908 132.062 177.983 132.956 178.445C133.626 178.338 134.31 178.372 134.966 178.545C135.071 178.576 135.165 178.64 135.233 178.726C135.302 178.812 135.342 178.918 135.347 179.028C135.344 179.535 135.398 180.04 135.508 180.535C135.508 180.535 136.825 180.234 137.096 180.806C137.279 181.395 137.364 182.009 137.347 182.625C137.347 182.625 138.352 182.283 138.834 182.625C139.839 183.439 138.553 184.836 138.553 184.836C135.594 188.365 132.416 191.704 129.037 194.834L122.114 188.162" fill="#E5BAAB"/>
<path d="M135.106 180.756C134.811 181.377 134.413 181.944 133.931 182.434C133.529 182.917 133.026 183.439 132.433 184.072C132.124 184.401 131.788 184.704 131.429 184.977C131.207 185.153 130.94 185.261 130.658 185.29C130.377 185.318 130.093 185.265 129.841 185.137C129.703 185.057 129.587 184.944 129.501 184.81C129.416 184.675 129.363 184.522 129.349 184.364C129.328 184.08 129.391 183.798 129.529 183.55C129.777 183.176 130.045 182.818 130.333 182.474C130.846 181.831 131.268 181.228 131.62 180.706C131.957 180.115 132.343 179.554 132.775 179.028C132.608 179.696 132.322 180.329 131.931 180.897C131.566 181.543 131.163 182.167 130.725 182.766C130.458 183.086 130.21 183.422 129.982 183.771C129.801 184.102 129.811 184.514 130.102 184.665C130.266 184.734 130.446 184.759 130.622 184.736C130.799 184.713 130.966 184.643 131.107 184.534C131.441 184.282 131.756 184.007 132.052 183.71C132.655 183.148 133.177 182.615 133.609 182.163C134.059 181.644 134.561 181.173 135.106 180.756Z" fill="#D78776"/>
<path d="M136.865 182.816C136.569 183.352 136.189 183.837 135.739 184.253C135.286 184.739 134.791 185.186 134.262 185.589C133.945 185.83 133.609 186.045 133.257 186.233C133.049 186.337 132.825 186.408 132.594 186.444C132.455 186.466 132.312 186.459 132.175 186.423C132.038 186.386 131.91 186.322 131.8 186.233C131.615 186.041 131.498 185.793 131.467 185.528C131.436 185.263 131.493 184.995 131.63 184.765C131.833 184.407 132.072 184.071 132.343 183.761C132.785 183.248 133.197 182.756 133.609 182.263C134.343 181.419 134.825 180.927 134.885 180.967C134.62 181.519 134.282 182.033 133.88 182.494L132.755 184.092C132.518 184.377 132.303 184.679 132.112 184.997C132.034 185.125 131.999 185.274 132.009 185.423C132.02 185.573 132.077 185.715 132.172 185.831C132.353 186.001 132.735 185.931 133.067 185.77C133.396 185.6 133.715 185.408 134.021 185.198C134.543 184.825 135.043 184.422 135.518 183.992C135.918 183.547 136.37 183.152 136.865 182.816Z" fill="#D78776"/>
<path d="M137.277 185.689C137.327 185.689 137.277 186.142 136.804 186.694C136.661 186.865 136.485 187.006 136.287 187.108C136.088 187.21 135.871 187.271 135.649 187.287C135.361 187.29 135.081 187.194 134.855 187.016C134.73 186.911 134.631 186.781 134.563 186.633C134.495 186.485 134.461 186.324 134.463 186.162C134.543 185.65 134.75 185.166 135.066 184.755C135.278 184.423 135.51 184.104 135.759 183.8C136.192 183.278 136.503 183.006 136.563 183.057C136.624 183.107 136.403 183.449 136.061 184.062C135.86 184.413 135.659 184.735 135.478 185.066C135.236 185.421 135.068 185.821 134.986 186.242C134.993 186.413 135.067 186.574 135.19 186.692C135.314 186.81 135.478 186.875 135.649 186.875C135.982 186.865 136.301 186.732 136.543 186.503C136.995 186.021 137.206 185.649 137.277 185.689Z" fill="#D78776"/>
<path d="M121.471 184.243C121.471 184.243 95.1135 210.178 91.4157 210.368C87.1954 210.569 74.2128 192.161 74.2128 192.161C65.9027 179.339 54.9399 177.269 50.9406 176.947V175.36L31.2959 173.752C31.2959 173.752 31.2959 175.44 31.2959 176.917H22.6241C22.6241 176.917 7.04905 176.204 4.71782 197.125L15.9118 205.977L20.5039 223.06C22.1016 229.008 16.3941 238.484 13.671 253.828C13.251 256.386 13.6779 259.011 14.8868 261.304L71.6102 267.825L68.5957 224.456L67.6813 214.408C72.3538 220.789 80.7443 229.812 91.0238 229.611C108.558 229.28 132.916 192.432 132.916 192.432L121.471 184.243Z" fill="#ECEFF1"/>
<path d="M44.3287 175.079C44.4262 175.97 44.4262 176.87 44.3287 177.762C44.1822 179.994 43.88 182.213 43.4244 184.404L43.354 184.735L43.0526 184.574C42.3693 184.213 41.6558 183.831 40.9324 183.409C38.1188 181.751 35.7172 180.043 33.8985 178.857C32.9166 178.259 31.9705 177.605 31.0648 176.897C31.3655 176.985 31.6529 177.114 31.9189 177.279C32.4414 177.571 33.1951 177.993 34.0994 178.545C35.9282 179.651 38.36 181.319 41.1333 182.957C41.8367 183.369 42.5401 183.76 43.2234 184.122L42.8516 184.293C43.4344 181.701 43.7158 179.379 43.9268 177.731C44.007 176.84 44.1412 175.954 44.3287 175.079Z" fill="#FAFAFA"/>
<path d="M51.0009 177.058C50.8747 177.921 50.6866 178.774 50.4382 179.61C50.2473 180.404 50.0463 181.349 49.7047 182.374C49.5268 182.916 49.3154 183.446 49.0716 183.961C49.0013 184.146 48.8748 184.304 48.7099 184.414C48.5954 184.484 48.4605 184.513 48.3273 184.497C48.194 184.48 48.0703 184.419 47.9763 184.323C47.788 184.046 47.6361 183.745 47.5241 183.429C46.5193 181.148 45.7255 179.078 45.1427 177.561C44.7761 176.766 44.4965 175.934 44.3086 175.079C44.778 175.818 45.1719 176.602 45.4843 177.42C46.1575 178.897 47.0519 180.947 48.0065 183.228C48.0992 183.482 48.2134 183.727 48.3481 183.961C48.3984 183.961 48.3481 183.961 48.4385 183.961C48.5142 183.9 48.573 183.821 48.6094 183.73C48.8498 183.236 49.0645 182.73 49.2525 182.213C49.6042 181.208 49.8453 180.284 50.0764 179.51C50.2763 178.656 50.587 177.832 51.0009 177.058Z" fill="#FAFAFA"/>
<path d="M47.3433 247.236C47.2953 247.001 47.2684 246.763 47.2629 246.523C47.2629 246 47.2227 245.331 47.1423 244.513C47.062 242.664 46.9414 240.102 46.8007 236.957C46.5595 230.526 46.2179 221.733 45.8562 212.027C45.4944 202.32 45.2633 193.528 45.0623 187.097C44.992 183.941 44.9317 181.379 44.8815 179.53C44.8815 178.686 44.8815 178.003 44.8815 177.52C44.8555 177.28 44.8555 177.037 44.8815 176.797C44.9278 177.032 44.9513 177.271 44.9518 177.51C44.9518 178.033 45.0322 178.716 45.0824 179.52C45.1628 181.359 45.2834 183.921 45.4241 187.066C45.6652 193.497 45.9968 202.29 46.3686 211.997C46.7404 221.703 46.9514 230.496 47.1625 236.937C47.2328 240.082 47.2931 242.644 47.3433 244.493C47.3433 245.347 47.3433 246.031 47.3433 246.553C47.367 246.78 47.367 247.009 47.3433 247.236Z" fill="#F5F5F5"/>
<path d="M43.766 181.429L45.414 185.971L46.8308 181.097L44.6302 176.214L43.766 181.429Z" fill="#2DB1FF"/>
<path d="M45.7155 184.614L44.6302 235.741L52.3474 251.878L55.3921 233.721L45.7155 184.614Z" fill="#2DB1FF"/>
<path d="M91.6971 216.689C91.6971 216.689 91.6971 216.84 91.6971 217.091L91.6368 217.473L91.466 217.091C91.0771 216.075 90.8532 215.003 90.8028 213.916C90.6366 212.704 90.7818 211.469 91.2248 210.329C91.3755 210.329 91.2248 211.936 91.3253 213.886C91.4057 215.272 91.6268 216.458 91.6971 217.031H91.466C91.5564 216.76 91.6569 216.689 91.6971 216.689Z" fill="#FAFAFA"/>
<path d="M93.958 216.518C93.2085 215.732 92.6513 214.783 92.3301 213.745C91.8466 212.787 91.5823 211.733 91.5564 210.66C92.0679 211.595 92.4853 212.577 92.8024 213.594C93.2816 214.529 93.6686 215.508 93.958 216.518Z" fill="#FAFAFA"/>
<path d="M131.268 194.874C129.095 193.724 127.006 192.421 125.018 190.975C122.934 189.674 120.946 188.227 119.069 186.644C121.241 187.803 123.33 189.112 125.319 190.563C127.402 191.857 129.39 193.297 131.268 194.874Z" fill="#FAFAFA"/>
<path d="M21.7097 203.083C21.7097 203.083 17.5296 232.224 19.5091 233.852C30.4418 243.046 45.635 247.869 51.0612 249.387C51.855 249.196 52.7795 248.944 53.8446 248.603C54.7679 248.31 55.6345 247.861 56.407 247.276C57.3934 246.585 58.2794 245.759 59.0397 244.825C59.1545 244.624 59.3288 244.464 59.5384 244.367C59.7481 244.27 59.9827 244.24 60.21 244.282C60.4373 244.324 60.6459 244.435 60.807 244.601C60.9682 244.767 61.0739 244.978 61.1096 245.206C61.1599 246.211 59.5521 248.794 56.5275 250.683C56.5275 250.683 63.4911 261.887 65.7118 262.902C67.9325 263.917 74.2831 266.77 73.208 267.313C72.1328 267.856 64.4055 265.615 64.4055 265.615L48.73 261.425C48.73 261.425 -3.11997 253.295 0.32664 229.511C2.44686 214.931 4.758 201.797 5.59202 198.471L21.7097 203.083Z" fill="#E5BAAB"/>
<path d="M4.71782 197.115L0.115633 228.878C-0.95955 238.655 5.59203 246.422 14.4045 250.793C27.8192 257.436 47.7352 262.178 47.5644 262.148C47.3935 262.118 48.9108 247.97 48.9108 247.97C48.9108 247.97 20.9862 235.912 20.112 230.687C19.2378 225.461 23.6591 203.757 23.6591 203.757L4.71782 197.115Z" fill="#ECEFF1"/>
<path d="M47.5241 262.148C47.5136 262.065 47.5136 261.981 47.5241 261.897C47.5241 261.696 47.5241 261.455 47.5744 261.164C47.6246 260.47 47.695 259.536 47.7955 258.34C48.0065 255.848 48.318 252.311 48.6898 247.96L48.8003 248.141L34.7325 241.338L30.7131 239.328C29.3566 238.605 27.99 237.811 26.6334 236.937C25.2571 236.049 23.935 235.079 22.6744 234.033C22.0413 233.5 21.4083 232.938 20.8054 232.345C20.4654 232.046 20.1916 231.68 20.0015 231.27C19.895 231.07 19.8171 230.857 19.7704 230.637C19.7044 230.427 19.6573 230.212 19.6297 229.993C19.1775 226.517 20.102 223.241 20.6345 220.116C21.1671 216.991 21.6997 213.946 22.2021 211.072C23.2069 205.304 24.1213 200.119 24.885 195.738C25.2974 193.797 25.5328 191.823 25.5884 189.84C25.6078 188.347 25.2991 186.869 24.6841 185.509C24.2896 184.651 23.7295 183.879 23.0361 183.238C22.5538 182.806 22.2624 182.635 22.2724 182.605C22.5714 182.755 22.8513 182.941 23.1064 183.158C23.8442 183.78 24.4433 184.55 24.8649 185.419C25.5244 186.799 25.8677 188.31 25.8698 189.84C25.8474 191.842 25.6354 193.837 25.2367 195.799C24.5032 200.19 23.629 205.385 22.6643 211.163C22.1719 214.047 21.6595 217.081 21.1269 220.206C20.9963 220.99 20.8556 221.784 20.7149 222.588C20.5742 223.392 20.4235 224.175 20.313 224.979C20.0488 226.604 20.0048 228.257 20.1824 229.893C20.2142 230.093 20.2578 230.291 20.313 230.486C20.3525 230.679 20.4202 230.865 20.514 231.038C20.6795 231.393 20.9193 231.709 21.2173 231.963C21.8102 232.546 22.4232 233.098 23.0462 233.621C24.29 234.657 25.5954 235.616 26.955 236.495C28.2914 237.369 29.6379 238.153 30.9744 238.876L34.9937 240.886L48.951 247.839L49.0616 247.9V248.02C48.6094 252.371 48.2476 255.898 47.9964 258.39C47.8557 259.576 47.7553 260.521 47.6749 261.204C47.6347 261.499 47.6045 261.74 47.5844 261.927C47.5715 262.003 47.5513 262.077 47.5241 262.148Z" fill="#FAFAFA"/>
<path d="M44.9317 246.031C44.9615 246.758 44.9041 247.487 44.7608 248.201C44.59 249.528 44.3087 251.356 43.9369 253.366C43.5651 255.376 43.143 257.185 42.8014 258.481C42.6635 259.195 42.4303 259.888 42.1081 260.541C42.1431 259.814 42.2542 259.094 42.4397 258.39C42.7344 256.876 43.0694 255.168 43.4445 253.266C43.7961 250.827 44.2927 248.411 44.9317 246.031Z" fill="#FAFAFA"/>
<path d="M47.5242 262.148C47.3569 262.147 47.1907 262.12 47.0318 262.068L45.6552 261.736L40.631 260.41C36.3805 259.264 30.472 257.757 24.1415 255.436C21.1624 254.346 18.2617 253.054 15.4596 251.567C13.1705 250.349 10.9859 248.945 8.92814 247.367C7.53971 246.304 6.23 245.142 5.00925 243.89C4.57717 243.448 4.26567 243.096 4.00441 242.885C3.88477 242.767 3.7832 242.631 3.70295 242.483C3.70295 242.483 4.20538 242.956 5.10974 243.79C6.38373 244.976 7.7258 246.086 9.12911 247.116C11.2071 248.61 13.3899 249.954 15.6606 251.135C18.4556 252.587 21.3423 253.856 24.3022 254.933C30.5926 257.245 36.491 258.802 40.7113 260.048L45.7356 261.525L47.0921 261.957C47.2437 262.002 47.389 262.066 47.5242 262.148Z" fill="#FAFAFA"/>
<path d="M47.8658 249.427C47.8718 249.607 47.8241 249.784 47.7289 249.936C47.6337 250.089 47.4952 250.209 47.3312 250.283C47.1672 250.356 46.985 250.379 46.8079 250.348C46.6309 250.318 46.4669 250.235 46.337 250.111C46.2071 249.987 46.1172 249.827 46.0787 249.651C46.0401 249.475 46.0547 249.292 46.1207 249.125C46.1866 248.958 46.3008 248.814 46.4488 248.712C46.5967 248.61 46.7717 248.555 46.9514 248.553C47.1879 248.55 47.416 248.64 47.5869 248.803C47.7578 248.967 47.858 249.191 47.8658 249.427Z" fill="#FAFAFA"/>
</svg>
