<svg viewBox="0 0 96 80" fill="none" xmlns="http://www.w3.org/2000/svg">
<path d="M39.0142 63.9002C52.2427 72.7919 70.2094 69.2995 79.1438 56.0998C88.0783 42.9001 84.5972 24.9915 71.3687 16.0998C58.1401 7.20813 40.1735 10.7005 31.239 23.9002C22.3046 37.0999 25.7856 55.0085 39.0142 63.9002Z" fill="#2DB1FF" fill-opacity="0.25"/>
<path d="M30.5952 60.4619V77.5783" stroke="#0082CB"/>
<path d="M20.3969 60.4619L15.0293 76.607V77.5783M40.7937 60.4619L46.1613 76.607V77.5783L40.7937 60.4619Z" stroke="#0082CB"/>
<path d="M56.8963 32.6475V60.4617H5.36743V32.6475" stroke="#0082CB"/>
<path fill-rule="evenodd" clip-rule="evenodd" d="M1.07349 29.4381V25.6939H23.9255L25.7987 21.9497H35.3155L37.1888 25.6939H60.117V29.4381H1.07349Z" stroke="#0082CB"/>
<path d="M27.9114 25.6938H33.279" stroke="#0082CB"/>
<path d="M0 77.043H61.1905" stroke="#0082CB"/>
<path fill-rule="evenodd" clip-rule="evenodd" d="M24.6909 36.9268C24.9757 36.9268 25.2487 37.0395 25.45 37.2401C25.6514 37.4407 25.7645 37.7128 25.7645 37.9965C25.7645 38.2803 25.6514 38.5524 25.45 38.753C25.2487 38.9536 24.9757 39.0663 24.6909 39.0663C24.4062 39.0663 24.1332 38.9536 23.9319 38.753C23.7305 38.5524 23.6174 38.2803 23.6174 37.9965C23.6174 37.7128 23.7305 37.4407 23.9319 37.2401C24.1332 37.0395 24.4062 36.9268 24.6909 36.9268ZM34.3526 50.8339C34.6375 50.834 34.9106 50.9469 35.1119 51.1477C35.3132 51.3485 35.4263 51.6208 35.4261 51.9047C35.426 52.1886 35.3127 52.4608 35.1112 52.6614C34.9096 52.862 34.6364 52.9746 34.3515 52.9745C34.2105 52.9744 34.0708 52.9467 33.9406 52.8928C33.8103 52.839 33.6919 52.7601 33.5922 52.6606C33.4925 52.5612 33.4135 52.4432 33.3596 52.3133C33.3057 52.1834 33.2779 52.0442 33.278 51.9036C33.2781 51.7631 33.3059 51.6239 33.36 51.4941C33.414 51.3643 33.4932 51.2463 33.593 51.147C33.6928 51.0476 33.8112 50.9689 33.9415 50.9151C34.0719 50.8614 34.2116 50.8338 34.3526 50.8339Z" stroke="#0082CB"/>
<path d="M30.0561 40.3369V38.5204C30.1323 35.9776 28.0701 33.7974 25.397 33.7246C22.7239 33.5791 20.432 35.6139 20.3547 38.1567V44.0426C20.3547 46.5855 18.1411 48.694 15.4659 48.694H9.66138" stroke="#0082CB"/>
<path d="M51.5292 41.2056H44.1037C41.5283 41.2056 39.3963 43.3644 39.3963 45.9725V51.6316C39.3233 54.2387 37.1172 56.3247 34.544 56.175C32.1178 56.1001 30.1318 54.09 30.0588 51.6327V49.6964" stroke="#0082CB"/>
<path d="M48.3081 45.485L51.5287 41.7408L48.3081 37.9966" stroke="#0082CB"/>
<path d="M29.5217 45.4847V47.6243M29.5217 42.2754V44.4149V42.2754Z" stroke="#0082CB"/>
<path d="M7.51465 56.7178H9.66168M7.51465 34.2524H9.66168H7.51465ZM51.5289 34.2524H53.6759H51.5289ZM51.5289 56.7178H53.6759H51.5289Z" stroke="#0082CB"/>
</svg>
