<svg viewBox="0 0 81 80" fill="none" xmlns="http://www.w3.org/2000/svg">
<path d="M24.4818 63.8735C37.6347 72.7799 55.4786 69.3115 64.3373 56.1265C73.196 42.9415 69.715 25.0329 56.5621 16.1265C43.4093 7.22007 25.5654 10.6885 16.7067 23.8735C7.84792 37.0585 11.329 54.9671 24.4818 63.8735Z" fill="#2DB1FF" fill-opacity="0.25"/>
<path fill-rule="evenodd" clip-rule="evenodd" d="M29.1298 52.784C29.1298 51.6252 30.0758 50.7142 31.1936 50.6309C30.8392 48.2787 29.8922 46.0564 28.4426 44.1745C27.5835 45.0023 26.1221 45.0023 25.1751 44.1745C24.3151 43.3458 24.3151 41.9382 25.1751 41.0282C23.1832 39.6194 20.8835 38.711 18.4694 38.3794C18.3825 39.5392 17.2647 40.4492 15.9761 40.367C14.8593 40.2837 13.9983 39.4559 13.9134 38.3794C11.4991 38.7105 9.19937 39.6189 7.20766 41.0282C8.06674 41.8569 8.06674 43.2645 7.20766 44.1745C6.34662 45.0856 4.88521 45.0023 3.93924 44.1745C2.49073 46.0571 1.54394 48.2791 1.18823 50.6309C2.39291 50.7142 3.33789 51.7907 3.25198 53.0328C3.16607 54.1084 2.307 54.9361 1.18823 55.0194C1.54429 57.3714 2.49103 59.5937 3.93924 61.4767C4.7993 60.648 6.2617 60.648 7.20766 61.4767C8.15264 62.3045 8.06674 63.7121 7.20766 64.6231C9.19883 66.0332 11.4989 66.9414 13.9134 67.2709C13.9983 66.1121 15.1161 65.202 16.4057 65.2853C17.5234 65.3686 18.3825 66.1953 18.4694 67.2709C20.8838 66.9408 23.1837 66.0327 25.1751 64.6231C24.3151 63.7954 24.3151 62.3877 25.1751 61.4767C26.0342 60.648 27.4956 60.648 28.4426 61.4767C29.8916 59.5942 30.8381 57.3717 31.1926 55.0194C29.9889 54.8538 29.1298 53.9438 29.1298 52.784V52.784Z" stroke="#0082CB"/>
<path fill-rule="evenodd" clip-rule="evenodd" d="M16.1478 46.2447C19.8981 46.2447 22.9394 49.173 22.9394 52.7843C22.9394 56.3956 19.8981 59.3249 16.1478 59.3249C12.3955 59.3249 9.3562 56.3956 9.3562 52.7843C9.3562 49.173 12.3955 46.2447 16.1478 46.2447ZM45.8085 33.0812C45.8085 31.9213 46.6676 31.0113 47.8723 30.9281C47.6136 29.5224 47.0122 28.198 46.1531 26.9549C45.805 27.1243 45.4222 27.2092 45.0354 27.2028C43.7458 27.2028 42.7129 26.2095 42.7129 24.9674C42.7129 24.6373 42.7998 24.2239 42.9716 23.8918C41.7286 23.0518 40.3215 22.4874 38.8441 22.2363C38.6723 23.3942 37.6414 24.3052 36.3518 24.1396C35.3209 24.0564 34.4599 23.2296 34.375 22.2363C32.9135 22.4842 31.538 23.0641 30.2475 23.8918C30.4193 24.2229 30.5062 24.554 30.5062 24.9674C30.5062 26.2095 29.4733 27.2028 28.1837 27.2028C27.8401 27.2028 27.4106 27.1205 27.0659 26.9549C26.2024 28.1327 25.6144 29.4907 25.3458 30.9281C26.5505 31.0113 27.4974 32.0879 27.4105 33.33C27.3237 34.4056 26.4646 35.2333 25.3468 35.3166C25.6055 36.7242 26.2059 38.0486 27.0659 39.2897C27.4106 39.1241 27.7552 39.0419 28.1837 39.0419C29.4733 39.0419 30.5062 40.0352 30.5062 41.2773C30.5062 41.6093 30.4193 42.0227 30.2475 42.3528C31.538 43.1815 32.9135 43.7605 34.375 44.0083C34.5468 42.8495 35.5777 41.9394 36.8673 42.105C37.8981 42.1883 38.7592 43.015 38.8441 44.0083C40.3075 43.7605 41.683 43.1815 42.9716 42.3528C42.7962 42.022 42.7072 41.652 42.7129 41.2773C42.7129 40.0352 43.7458 39.0419 45.0354 39.0419C45.379 39.0419 45.8085 39.1241 46.1531 39.2897C47.0122 38.0486 47.5286 36.7242 47.8713 35.3166C46.6676 35.0677 45.8075 34.1567 45.8075 33.0812H45.8085Z" stroke="#0082CB"/>
<path d="M26.8083 67.4377H27.5824C39.8761 66.6943 48.0442 55.3508 48.0442 43.3471V41.8562M36.6955 30.1836C38.3564 30.1836 39.7043 31.4802 39.7043 33.0812C39.7043 34.6821 38.3564 35.9778 36.6955 35.9778C35.0347 35.9778 33.6868 34.6821 33.6868 33.0812C33.6868 31.4802 35.0347 30.1836 36.6955 30.1836V30.1836ZM1.01538 42.5194V41.7739C1.79052 29.9348 13.5687 22.0708 26.0341 22.0708H27.5824L1.01538 42.5194Z" stroke="#0082CB"/>
</svg>
