<svg viewBox="0 0 96 81" fill="none" xmlns="http://www.w3.org/2000/svg">
<path d="M53.1233 66.9194C67.9741 59.6776 74.1405 41.769 66.8964 26.9194C59.6522 12.0697 41.7407 5.90229 26.8898 13.144C12.039 20.3858 5.87255 38.2944 13.1167 53.144C20.3609 67.9937 38.2724 74.1611 53.1233 66.9194Z" fill="#2DB1FF" fill-opacity="0.25"/>
<path fill-rule="evenodd" clip-rule="evenodd" d="M60.9725 47.3984C61.9092 47.3984 62.8076 47.7705 63.4699 48.4327C64.1323 49.0949 64.5044 49.993 64.5044 50.9296C64.5044 51.8661 64.1323 52.7642 63.4699 53.4264C62.8076 54.0887 61.9092 54.4607 60.9725 54.4607C60.0358 54.4607 59.1375 54.0887 58.4751 53.4264C57.8128 52.7642 57.4407 51.8661 57.4407 50.9296C57.4407 49.993 57.8128 49.0949 58.4751 48.4327C59.1375 47.7705 60.0358 47.3984 60.9725 47.3984Z" stroke="#0082CB" stroke-linecap="round" stroke-linejoin="round"/>
<path fill-rule="evenodd" clip-rule="evenodd" d="M85.4403 74.4704H37.8344C24.7336 61.2757 24.7336 39.8865 37.8344 26.6919C50.9341 13.4972 72.1676 13.4972 85.2673 26.6919C91.6058 32.9879 95.1141 41.525 95.1141 50.494C95.1141 59.4631 91.6894 68.0873 85.4403 74.4692V74.4704Z" stroke="#0082CB" stroke-linecap="round" stroke-linejoin="round"/>
<path d="M64.5045 47.3985L75.1001 36.8052M39.3423 66.2312C30.3385 54.1548 32.7401 37.07 44.7449 28.0986C47.589 25.9632 50.8266 24.4097 54.2721 23.527C57.7176 22.6444 61.3034 22.45 64.8241 22.9549C68.3449 23.4598 71.7315 24.6541 74.7899 26.4695C77.8484 28.2848 80.5186 30.6856 82.6476 33.5342C89.8515 43.1977 89.8515 56.4818 82.6476 66.1453L39.3423 66.2312ZM61.5613 66.2312V68.5853V66.2312ZM56.8521 66.2312V68.5853V66.2312ZM66.2704 66.2312V68.5853V66.2312ZM69.8023 66.2312V68.5853V66.2312ZM53.3203 66.2312V68.5853V66.2312ZM33.895 50.3411H37.4269H33.895ZM61.5613 22.6807V26.2118V22.6807ZM89.2275 50.3411H85.6956H89.2275ZM42.1361 30.92L45.6679 34.4511L42.1361 30.92ZM77.4546 34.4511L80.9865 30.92L77.4546 34.4511Z" stroke="#0082CB" stroke-linecap="round" stroke-linejoin="round"/>
<path d="M39.7817 78.5903H83.3413M52.4894 56.815C48.9681 51.9244 49.9735 45.0257 54.5849 41.3581C59.1999 37.6916 65.9081 38.7403 69.4293 43.5427C70.8196 45.4598 71.5682 47.7673 71.5682 50.1353C71.5682 52.5033 70.8196 54.8107 69.4293 56.7279L52.4894 56.815Z" stroke="#0082CB" stroke-linecap="round" stroke-linejoin="round"/>
</svg>
