<svg viewBox="0 0 69 81" fill="none" xmlns="http://www.w3.org/2000/svg">
<path d="M34.0271 68.1729C52.8198 68.1729 68.0542 52.9384 68.0542 34.1458C68.0542 15.3531 52.8198 0.118652 34.0271 0.118652C15.2345 0.118652 0 15.3531 0 34.1458C0 52.9384 15.2345 68.1729 34.0271 68.1729Z" fill="#2DB1FF" fill-opacity="0.25"/>
<path d="M61.3758 69.203V77.0961C61.3758 78.692 60.0535 80.1188 58.4022 80.1188H31.1302C29.5603 80.1188 28.1565 78.7749 28.1565 77.0961V21.7624C28.1565 20.1665 29.4778 18.7397 31.1302 18.7397H58.4022C59.9721 18.7397 61.3758 20.0836 61.3758 21.7624V70.2098M42.0872 76.3499H46.3736H42.0872ZM39.944 22.5086H37.8008H39.944ZM42.0872 22.5086H51.7315H42.0872ZM28.1565 26.8159H61.3758H28.1565ZM28.1565 72.0426H61.3758H28.1565Z" stroke="#0082CB" stroke-linecap="round" stroke-linejoin="round"/>
<path d="M36.7295 64.5046H52.8034M43.159 60.1973H45.3022H43.159ZM38.8727 60.1973H41.0159H38.8727ZM48.517 60.1973H50.6602H48.517Z" stroke="#0082CB" stroke-width="0.5" stroke-linecap="round" stroke-linejoin="round"/>
</svg>
