<svg viewBox="0 0 79 81" fill="none" xmlns="http://www.w3.org/2000/svg">
<path d="M49.3677 66.9506C64.673 61.0754 72.3176 43.9053 66.4425 28.6C60.5673 13.2947 43.3972 5.65002 28.0919 11.5252C12.7866 17.4003 5.1419 34.5705 11.0171 49.8758C16.8922 65.1811 34.0624 72.8257 49.3677 66.9506Z" fill="#2DB1FF" fill-opacity="0.25"/>
<path fill-rule="evenodd" clip-rule="evenodd" d="M39.8424 31.7339V32.7683H24.925C24.1145 32.7683 23.4483 33.3928 23.3808 34.1867L23.3752 34.3208V71.5732C23.3752 72.4309 24.0691 73.1257 24.925 73.1257H75.5598C76.4166 73.1257 77.1105 72.4309 77.1105 71.5732L77.1096 52.9465H78.143V71.5732C78.1434 72.2314 77.8927 72.865 77.4421 73.3448C76.9915 73.8246 76.375 74.1145 75.718 74.1555L75.5607 74.1601H24.9241C24.5846 74.1599 24.2485 74.0928 23.9349 73.9626C23.6214 73.8325 23.3365 73.6419 23.0967 73.4017C22.8568 73.1614 22.6666 72.8763 22.5369 72.5626C22.4072 72.2489 22.3406 71.9127 22.3408 71.5732V34.3208C22.3406 33.9813 22.4072 33.6451 22.5369 33.3314C22.6666 33.0177 22.8568 32.7326 23.0967 32.4923C23.3365 32.2521 23.6214 32.0615 23.9349 31.9314C24.2485 31.8012 24.5846 31.7341 24.9241 31.7339H39.8415H39.8424Z" fill="#0082CB"/>
<path fill-rule="evenodd" clip-rule="evenodd" d="M46.0429 73.1258C46.164 73.1237 46.282 73.1641 46.3763 73.24C46.4707 73.3159 46.5354 73.4225 46.5592 73.5413L46.5684 73.6338L46.6813 79.8421C46.6827 79.9704 46.6362 80.0947 46.5511 80.1908C46.4659 80.2868 46.348 80.3477 46.2204 80.3617C46.0928 80.3757 45.9645 80.3417 45.8606 80.2663C45.7566 80.191 45.6844 80.0796 45.658 79.954L45.6488 79.8615L45.5359 73.6532C45.5345 73.5853 45.5466 73.5178 45.5713 73.4545C45.5961 73.3912 45.6331 73.3335 45.6801 73.2845C45.7272 73.2355 45.7835 73.1963 45.8457 73.1691C45.908 73.1418 45.975 73.1272 46.0429 73.1258V73.1258ZM56.3777 73.1258C56.4986 73.1239 56.6164 73.1644 56.7105 73.2403C56.8047 73.3162 56.8692 73.4227 56.893 73.5413L56.9023 73.6338L57.0152 79.8421C57.0165 79.9704 56.9701 80.0947 56.8849 80.1908C56.7997 80.2868 56.6819 80.3477 56.5542 80.3617C56.4266 80.3757 56.2984 80.3417 56.1944 80.2663C56.0905 80.191 56.0183 80.0796 55.9919 79.954L55.9826 79.8615L55.8697 73.6532C55.8684 73.5853 55.8804 73.5178 55.9052 73.4545C55.9299 73.3912 55.9669 73.3335 56.014 73.2845C56.0611 73.2355 56.1173 73.1963 56.1796 73.1691C56.2418 73.1418 56.3088 73.1272 56.3768 73.1258H56.3777ZM77.6264 66.3994C77.7565 66.3981 77.8823 66.4457 77.9788 66.533C78.0753 66.6202 78.1354 66.7406 78.147 66.8702C78.1587 66.9998 78.1211 67.129 78.0418 67.2321C77.9624 67.3352 77.8472 67.4046 77.7189 67.4264L77.6264 67.4348H22.8577C22.7276 67.4362 22.6018 67.3885 22.5053 67.3012C22.4088 67.214 22.3487 67.0936 22.337 66.964C22.3254 66.8344 22.363 66.7052 22.4423 66.6021C22.5216 66.4991 22.6369 66.4297 22.7651 66.4078L22.8577 66.3994H77.6264Z" fill="#0082CB"/>
<path fill-rule="evenodd" clip-rule="evenodd" d="M61.0925 79.8521C61.2217 79.852 61.3462 79.9003 61.4415 79.9874C61.5368 80.0745 61.5961 80.1942 61.6077 80.3228C61.6193 80.4514 61.5824 80.5797 61.5042 80.6825C61.426 80.7853 61.3121 80.855 61.1851 80.8781L61.0925 80.8865H41.4592C41.3291 80.8881 41.2031 80.8406 41.1064 80.7534C41.0097 80.6662 40.9495 80.5458 40.9377 80.4162C40.9259 80.2865 40.9634 80.1572 41.0428 80.054C41.1221 79.9508 41.2375 79.8813 41.3658 79.8594L41.4583 79.8521H61.0925Z" fill="#0082CB"/>
<path fill-rule="evenodd" clip-rule="evenodd" d="M54.234 29.559C54.2377 28.5218 54.7086 27.9954 55.3739 28.0342C56.04 28.0731 56.3694 28.6319 56.4083 29.6506C56.436 30.3871 56.2473 31.8055 56.6118 32.0867C56.9292 32.3402 57.4769 32.1922 59.2284 32.2163C60.9798 32.2394 62.6063 32.1811 64.3911 32.194C65.4237 32.2015 65.9298 32.4698 65.9455 33.0545C65.9621 33.6402 65.6189 33.976 64.5706 33.9779C61.918 33.9825 59.9334 33.9316 57.6064 33.9039C57.005 33.8974 56.2954 33.8391 56.2834 34.4849C56.2371 36.9257 56.2121 39.9854 56.1714 42.155C56.1585 42.8064 56.919 42.9591 57.513 42.9517C59.933 42.9293 62.3531 42.9231 64.7732 42.9331C66.5312 42.9378 67.3185 42.8055 67.9264 44.3783C68.9016 46.9005 69.8388 49.6336 70.7631 52.1725C70.9981 52.8183 71.2692 53.1921 71.8716 53.2059C72.4739 53.2198 72.8643 53.2161 73.1817 53.2355C73.8497 53.2762 74.0569 53.5214 74.1217 54.0756C74.1865 54.6308 73.9061 55.0795 73.2168 55.1054C70.5429 55.209 69.6075 54.7723 68.9145 52.8146C68.2215 50.8568 67.0049 47.9691 66.0945 45.4914C65.8807 44.9085 65.5652 44.7762 64.9786 44.7836C62.6841 44.8141 59.9519 44.7466 57.6555 44.7466C55.1601 44.7438 54.2321 43.8537 54.2312 41.462C54.2294 39.5394 54.2312 37.6177 54.2312 35.696C54.2312 33.6504 54.2247 31.6047 54.234 29.559V29.559Z" fill="#0082CB"/>
<path fill-rule="evenodd" clip-rule="evenodd" d="M43.9344 46.5729C42.5502 41.5082 44.7652 36.1224 49.2794 33.5503C49.7948 33.257 50.3388 32.9434 50.8875 33.3236C51.3445 33.64 51.5259 34.3182 50.5599 34.9196C49.3386 35.6811 47.862 36.9884 47.0367 38.1644C44.3202 42.0374 45.2602 47.9385 48.9306 50.9742C52.6435 54.0459 58.8139 53.9108 62.3094 50.6411C62.5157 50.4468 62.933 50.0795 63.1513 49.9C63.712 49.4355 64.1635 49.4374 64.5345 49.8065C64.9065 50.1766 64.9185 50.7299 64.4143 51.2915C63.1754 52.6682 61.6571 53.6758 59.913 54.3494C58.4762 54.9045 56.9708 55.1395 55.6903 55.1784C50.0686 55.1432 45.3019 51.5755 43.9344 46.5729V46.5729ZM55.607 24.9966C54.2377 25.0401 53.0386 23.9492 53.0349 22.6604C53.0321 21.3891 54.2664 20.2122 55.57 20.2428C56.8339 20.2742 57.9155 21.3651 57.9293 22.6252C57.9451 23.9076 56.9181 24.9568 55.607 24.9966ZM55.4349 18.8004C53.3041 18.8475 51.5619 20.562 51.5527 22.6215C51.5416 24.7403 53.3069 26.4427 55.5099 26.4381C57.7276 26.4335 59.4282 24.7588 59.4088 22.5966C59.3903 20.45 57.6129 18.7513 55.4349 18.8004" fill="#0082CB"/>
<path fill-rule="evenodd" clip-rule="evenodd" d="M31.6789 49.869C32.1739 49.1843 33.0436 49.1464 33.5802 49.7542L33.6718 49.869L35.6768 52.6437C35.749 52.7484 35.7801 52.876 35.7643 53.0022C35.7485 53.1284 35.6868 53.2444 35.5911 53.328C35.4953 53.4117 35.3721 53.4572 35.2449 53.4559C35.1177 53.4546 34.9955 53.4066 34.9014 53.321L34.8404 53.2507L32.8345 50.475C32.7392 50.3436 32.655 50.3242 32.5634 50.4195L32.5162 50.475L30.5103 53.2507C30.4355 53.3575 30.3231 53.4321 30.1956 53.4594C30.0681 53.4868 29.9349 53.4649 29.8229 53.3981C29.7109 53.3313 29.6283 53.2246 29.5918 53.0994C29.5552 52.9742 29.5673 52.8399 29.6258 52.7233L29.673 52.6437L31.6789 49.868V49.869ZM34.8404 57.8176C34.9154 57.7116 35.0276 57.6377 35.1546 57.6108C35.2817 57.5838 35.4142 57.6057 35.5258 57.6722C35.6374 57.7386 35.7199 57.8446 35.7568 57.9692C35.7937 58.0937 35.7823 58.2275 35.7249 58.344L35.6768 58.4245L33.6709 61.1993C33.1759 61.8839 32.3071 61.9209 31.7705 61.3131L31.6789 61.1993L29.673 58.4236C29.6008 58.3188 29.5697 58.1911 29.5856 58.0649C29.6016 57.9386 29.6634 57.8226 29.7593 57.7391C29.8553 57.6555 29.9786 57.6101 30.1058 57.6116C30.2331 57.6131 30.3553 57.6614 30.4492 57.7473L30.5103 57.8176L32.5162 60.5923C32.6115 60.7246 32.6957 60.7431 32.7873 60.6488L32.8335 60.5923L34.8404 57.8166V57.8176Z" fill="#0082CB"/>
</svg>
