<svg viewBox="0 0 84 81" fill="none" xmlns="http://www.w3.org/2000/svg">
<path d="M50.121 67.643C65.6978 61.6637 73.4781 44.1889 67.4987 28.6121C61.5193 13.0353 44.0446 5.25503 28.4677 11.2344C12.8909 17.2138 5.11067 34.6885 11.0901 50.2654C17.0694 65.8422 34.5442 73.6224 50.121 67.643Z" fill="#2DB1FF" fill-opacity="0.25"/>
<path fill-rule="evenodd" clip-rule="evenodd" d="M81.5007 58.7188H80.2032C79.8689 57.4666 79.3663 56.2656 78.7092 55.1484L79.6188 54.2377C79.9429 53.9125 80.1384 53.4588 80.1384 52.9392C80.1384 52.4844 79.9429 52.0307 79.6188 51.6407L76.6307 48.6525C75.9177 47.9385 74.7488 47.9385 74.0995 48.6525L73.1899 49.6918C72.0859 49.0436 70.8521 48.5877 69.6195 48.1988V46.9003C69.6195 45.9259 68.8396 45.0811 67.7992 45.0811H63.5807C62.6051 45.0811 61.7603 45.861 61.7603 46.9003V48.1988C60.5266 48.5229 59.3577 49.0425 58.1899 49.6929L57.2792 48.7833C56.5651 48.0692 55.3962 48.0692 54.747 48.7833L51.7599 51.7714C51.5919 51.9426 51.4595 52.1454 51.3703 52.3681C51.2811 52.5908 51.2369 52.829 51.2403 53.0688C51.2403 53.5236 51.4359 53.9784 51.7599 54.3684L52.6696 55.277C52.0192 56.381 51.5655 57.6147 51.1755 58.8484H49.877C48.9025 58.8484 48.0588 59.6284 48.0588 60.6666V64.8236C48.0588 65.797 48.8388 66.6407 49.877 66.6407H51.1755C51.4996 67.8744 52.0192 69.0444 52.6696 70.2132L51.7599 71.1229C51.5917 71.2941 51.4591 71.4971 51.3699 71.72C51.2807 71.9429 51.2367 72.1813 51.2403 72.4214C51.2403 72.8751 51.4359 73.3299 51.7599 73.7199L54.7481 76.708C55.4622 77.4221 56.6299 77.4221 57.2792 76.708L58.1888 75.7973C59.2929 76.4477 60.5266 76.9014 61.7603 77.2914V78.5899C61.7603 79.5643 62.5403 80.408 63.5796 80.408H67.7992C68.7736 80.408 69.6184 79.6292 69.6184 78.5899V77.2914C70.8521 76.9662 72.021 76.4477 73.1899 75.7973L74.0995 76.7069C74.8136 77.421 75.9825 77.421 76.6307 76.7069L79.6188 73.7199C79.9429 73.3947 80.1384 72.9399 80.1384 72.4214C80.1384 71.9666 79.9429 71.5118 79.6188 71.1229L78.7092 70.2132C79.3595 69.1092 79.8133 67.8744 80.2032 66.6407H81.5018C82.4762 66.6407 83.3199 65.8618 83.3199 64.8236V60.537C83.3199 59.5636 82.4762 58.7188 81.5018 58.7188H81.5007Z" stroke="#0082CB" stroke-linecap="round" stroke-linejoin="round"/>
<path fill-rule="evenodd" clip-rule="evenodd" d="M65.7864 68.1082C62.7653 68.1082 60.2935 65.6364 60.2935 62.6153C60.2935 59.5942 62.7653 57.1224 65.7864 57.1224C68.8075 57.1224 71.2793 59.5942 71.2793 62.6153C71.2793 65.6364 68.8075 68.1082 65.7864 68.1082ZM65.7864 56.1216C62.2149 56.1216 59.2927 59.0438 59.2927 62.6164C59.2927 66.1868 62.2149 69.109 65.7853 69.109C69.3579 69.109 72.2801 66.1868 72.2801 62.6164C72.2801 59.0438 69.3579 56.1216 65.7864 56.1216" fill="#0082CB"/>
<path fill-rule="evenodd" clip-rule="evenodd" d="M33.5763 52.6147C33.7707 52.4203 33.8355 52.0951 33.7707 51.8348C33.2945 50.6498 33.1822 49.3498 33.4484 48.1008C33.7145 46.8518 34.3469 45.7104 35.2648 44.8225C36.8226 43.2626 39.0307 42.6144 41.1751 43.0033L36.8226 47.2899C36.5633 47.5492 36.7577 47.9381 36.8226 48.3292L37.6026 51.6403V51.7051H37.6685L40.9785 52.4851C41.3685 52.5499 41.6937 52.7444 42.0188 52.4851L46.3044 48.1985C46.6933 50.3407 46.0451 52.5488 44.4863 54.1088C42.667 55.927 39.8744 56.5114 37.4718 55.6018C37.34 55.5367 37.1893 55.5205 37.0467 55.5561C36.9041 55.5917 36.7787 55.6768 36.6929 55.7962L27.9922 64.4333V58.2647L33.5763 52.6147V52.6147Z" stroke="#0082CB" stroke-linecap="round" stroke-linejoin="round"/>
<path d="M34.1605 32.2889H63.8386M48.1871 74.3688H28.706C28.5173 74.3668 28.3368 74.2909 28.2033 74.1575C28.0698 74.024 27.9939 73.8435 27.9919 73.6547V28.9118C27.9919 28.5218 28.316 28.1978 28.706 28.1978H80.8512C81.2412 28.1978 81.5663 28.5218 81.5663 28.9118V47.1592L48.1871 74.3688Z" stroke="#0082CB" stroke-linecap="round" stroke-linejoin="round"/>
<path fill-rule="evenodd" clip-rule="evenodd" d="M67.799 31.834C67.9715 31.834 68.1369 31.9025 68.2589 32.0245C68.3809 32.1465 68.4494 32.3119 68.4494 32.4844C68.4494 32.6569 68.3809 32.8223 68.2589 32.9443C68.1369 33.0662 67.9715 33.1347 67.799 33.1347C67.6266 33.1347 67.4611 33.0662 67.3392 32.9443C67.2172 32.8223 67.1487 32.6569 67.1487 32.4844C67.1487 32.3119 67.2172 32.1465 67.3392 32.0245C67.4611 31.9025 67.6266 31.834 67.799 31.834V31.834ZM71.0464 31.834C71.134 31.8305 71.2214 31.8447 71.3034 31.8758C71.3853 31.9069 71.4601 31.9543 71.5233 32.015C71.5865 32.0758 71.6368 32.1487 71.6711 32.2293C71.7054 32.31 71.723 32.3967 71.723 32.4844C71.7229 32.5721 71.7051 32.6588 71.6707 32.7394C71.6362 32.82 71.5858 32.8928 71.5225 32.9535C71.4592 33.0141 71.3843 33.0613 71.3023 33.0923C71.2203 33.1232 71.1329 33.1373 71.0453 33.1336C70.8776 33.1267 70.7191 33.0553 70.6028 32.9342C70.4866 32.8131 70.4217 32.6517 70.4217 32.4838C70.4217 32.316 70.4866 32.1546 70.6028 32.0335C70.7191 31.9124 70.8776 31.8409 71.0453 31.834H71.0464ZM74.3587 31.834C74.4462 31.8306 74.5336 31.8449 74.6155 31.876C74.6975 31.9072 74.7722 31.9546 74.8354 32.0154C74.8985 32.0762 74.9487 32.1492 74.983 32.2299C75.0172 32.3105 75.0348 32.3973 75.0346 32.485C75.0345 32.5726 75.0166 32.6594 74.9821 32.7399C74.9476 32.8205 74.8971 32.8933 74.8338 32.9539C74.7705 33.0144 74.6955 33.0616 74.6135 33.0925C74.5315 33.1234 74.444 33.1374 74.3565 33.1336C74.1887 33.1266 74.0302 33.055 73.9141 32.9338C73.798 32.8126 73.7332 32.6512 73.7334 32.4833C73.7335 32.3154 73.7985 32.1541 73.9149 32.0331C74.0312 31.9121 74.1898 31.8408 74.3576 31.834" fill="#0082CB"/>
<path d="M27.991 36.4434H81.5665" stroke="#0082CB" stroke-linecap="round" stroke-linejoin="round"/>
</svg>
