<svg width="42" height="43" viewBox="0 0 42 43" fill="none" xmlns="http://www.w3.org/2000/svg">
<path d="M25.7285 8.25859C31.498 10.2486 35.5298 15.775 35.5298 21.9985C35.5298 22.0257 35.5287 22.0527 35.5285 22.0798C36.4181 22.1056 37.2577 22.3318 38.0044 22.7154C38.0145 22.4767 38.0202 22.2378 38.0202 21.9985C38.0202 18.0817 36.6569 14.258 34.1815 11.2313C32.2254 8.83964 29.647 7.02595 26.7704 5.98633C26.5901 6.82472 26.2287 7.5966 25.7285 8.25859Z" fill="#0082CB"/>
<path d="M17.77 3.32053V4.76279C17.77 6.59668 19.2567 8.08331 21.0905 8.08331C22.9244 8.08331 24.4111 6.59668 24.4111 4.76279V3.32053C24.4111 1.544 23.016 0.09336 21.2618 0.00427795C21.2079 0.0022648 21.154 0.000251644 21.0998 0.000251644C21.0967 0.000251644 21.0937 0 21.0906 0C21.0332 0 20.9763 0.0022648 20.9194 0.00427795C19.1651 0.09336 17.77 1.54409 17.77 3.32053Z" fill="#0082CB"/>
<path d="M35.3591 32.6492C37.1929 32.6492 38.6796 31.1626 38.6796 29.3287V27.8864C38.6796 26.0526 37.1929 24.5659 35.3591 24.5659C33.5253 24.5659 32.0386 26.0526 32.0386 27.8864V29.3287C32.0386 31.1626 33.5252 32.6492 35.3591 32.6492Z" fill="#0082CB"/>
<path d="M9.96186 29.3287V27.8864C9.96186 26.0526 8.47514 24.5659 6.64133 24.5659C4.80751 24.5659 3.3208 26.0526 3.3208 27.8864V29.3287C3.3208 31.1626 4.80751 32.6492 6.64133 32.6492C8.47514 32.6492 9.96186 31.1626 9.96186 29.3287Z" fill="#0082CB"/>
<path d="M14.4535 18.6905H27.7314V16.513C27.5626 13.548 26.2849 10.8634 24.4297 9.51392C23.4841 10.1804 22.3326 10.5736 21.0903 10.5736C19.895 10.5736 18.783 10.2105 17.8583 9.58933C16.0035 10.9646 14.7044 13.526 14.4492 16.513L14.4535 18.6905Z" fill="#0082CB"/>
<path d="M6.47648 22.0798C6.47631 22.0527 6.47513 22.0257 6.47513 21.9986C6.47513 15.6691 10.554 10.1507 16.4153 8.20927C15.9224 7.54241 15.5682 6.76726 15.3966 5.92627C8.65546 8.26916 3.98486 14.6694 3.98486 21.9986C3.98486 22.2369 3.9909 22.4751 4.00088 22.7129C4.74768 22.3301 5.58717 22.1048 6.47648 22.0798Z" fill="#0082CB"/>
<path d="M30.2176 36.3087C29.3409 37.7512 28.8638 39.4155 28.7178 41.0917V42.3369H42V41.0917C41.8388 38.5465 40.8994 35.8679 38.8715 34.2228C38.8655 34.2181 38.8594 34.2134 38.8533 34.2087C38.7996 34.1666 38.7452 34.1255 38.6903 34.0857C37.7463 34.7489 36.5978 35.1398 35.3588 35.1398C34.1671 35.1398 33.0581 34.7791 32.1351 34.1612C31.3981 34.7057 30.749 35.4372 30.2176 36.3087Z" fill="#0082CB"/>
<path d="M28.4205 34.498C26.2053 35.8205 23.6677 36.5258 21.0027 36.5258C18.4237 36.5258 15.9639 35.8656 13.8003 34.6247C13.8688 34.7321 13.9365 34.8409 14.0024 34.9521C14.5602 35.894 14.9938 36.9338 15.2952 38.0349C17.1209 38.6861 19.0352 39.0162 21.0028 39.0162C22.9925 39.0162 24.9277 38.6782 26.7722 38.0122C27.156 36.7102 27.7161 35.5231 28.4205 34.498Z" fill="#0082CB"/>
<path d="M9.97367 34.0864C9.02958 34.7498 7.88007 35.1398 6.64114 35.1398C5.44952 35.1398 4.34078 34.7787 3.41766 34.1609C3.12777 34.3751 2.85155 34.6181 2.59059 34.8872C1.22945 36.3013 0.440797 38.2062 0.121376 40.1277C0.0684472 40.4473 0.028268 40.7684 0 41.0916V42.3368H13.2822V41.0916C13.1862 39.4696 12.7667 37.8545 11.978 36.4295C11.4397 35.4626 10.7584 34.6553 9.97367 34.0864Z" fill="#0082CB"/>
</svg>
