<svg width="520" height="444" viewBox="0 0 520 444" fill="none" xmlns="http://www.w3.org/2000/svg">
<path d="M260 443.554C403.594 443.554 520 380.874 520 303.554C520 226.234 403.594 163.554 260 163.554C116.406 163.554 0 226.234 0 303.554C0 380.874 116.406 443.554 260 443.554Z" fill="#0082CB"/>
<path d="M394.477 388.528C377.726 397.586 350.577 397.586 333.827 388.528C317.077 379.47 317.077 364.784 333.827 355.726C350.577 346.668 377.726 346.668 394.477 355.726C411.227 364.784 411.227 379.47 394.477 388.528Z" fill="#E1F4FF"/>
<path d="M466.017 352.584C449.92 361.228 423.83 361.228 407.734 352.584C391.637 343.939 391.637 329.925 407.734 321.281C423.83 312.637 449.92 312.637 466.017 321.281C482.113 329.925 482.113 343.939 466.017 352.584Z" fill="#E1F4FF"/>
<path d="M90.2045 307.311V288.978C90.2045 288.978 89.2669 278.632 82.0235 270.786C74.7801 262.939 68.2868 265.601 66.1771 269.331C64.0674 273.061 68.8729 280.122 71.9437 284.11C75.6357 288.896 90.2045 311.146 90.2045 321.104V307.334V307.311Z" fill="#2DB1FF"/>
<path d="M90.2044 304.413C89.9935 304.413 89.7942 304.261 89.759 304.038C86.4538 284.04 71.2404 270.316 71.088 270.176C70.9005 270.011 70.8888 269.73 71.0529 269.542C71.2169 269.355 71.4982 269.343 71.6858 269.507C71.8381 269.648 87.286 283.57 90.6381 303.897C90.6733 304.144 90.5092 304.378 90.263 304.413C90.2396 304.413 90.2162 304.413 90.1927 304.413H90.2044Z" fill="#FAFAFA"/>
<path d="M90.2045 307.311C90.2045 307.311 90.9312 305.105 87.6846 304.542C84.4379 303.979 83.1955 301.282 82.8908 296.754C82.5861 292.227 81.2265 288.978 77.1594 288.309C73.0923 287.641 69.8222 289.693 67.1734 287.652C64.5362 285.611 57.7031 280.697 52.0185 282.937C46.334 285.177 48.1976 290.033 51.1512 293.189C54.1048 296.344 54.9722 297.399 52.6983 302.525C50.4363 307.651 52.0889 312.436 57.3163 313.633C62.5437 314.829 65.4739 314.219 65.5559 319.966C65.638 325.714 66.435 328.271 69.2948 330.523C72.1664 332.775 81.1796 331.754 84.9302 332.634C88.6808 333.502 90.1928 336.857 90.1928 336.857V307.311H90.2045Z" fill="#2DB1FF"/>
<path d="M90.2045 330.968C90.017 330.968 89.8412 330.851 89.7826 330.663C80.2537 302.361 58.6994 290.936 58.4884 290.819C58.2657 290.702 58.1837 290.432 58.3009 290.209C58.4181 289.986 58.6877 289.904 58.9103 290.021C59.133 290.139 81.0038 301.715 90.6499 330.382C90.732 330.616 90.603 330.874 90.3686 330.957C90.3217 330.968 90.2749 330.98 90.228 330.98L90.2045 330.968Z" fill="#FAFAFA"/>
<path d="M76.5385 306.302C76.5385 306.302 76.4682 306.302 76.433 306.302C70.2093 304.883 60.2585 305.645 60.1647 305.657C59.9186 305.68 59.6959 305.492 59.6841 305.246C59.6724 305 59.8482 304.777 60.0944 304.765C60.5046 304.73 70.2796 303.979 76.6322 305.434C76.8784 305.492 77.0307 305.727 76.9721 305.973C76.9253 306.184 76.7377 306.325 76.5385 306.325V306.302Z" fill="#FAFAFA"/>
<path d="M81.6134 319.908C78.777 319.908 75.7531 319.72 75.5655 319.708C75.3194 319.696 75.1319 319.474 75.1436 319.227C75.1553 318.981 75.3663 318.782 75.6241 318.805C75.6945 318.805 82.6448 319.239 85.3523 318.805C85.5984 318.77 85.8328 318.934 85.868 319.18C85.9032 319.427 85.7391 319.661 85.4929 319.696C84.5318 319.849 83.1019 319.896 81.6134 319.896V319.908Z" fill="#FAFAFA"/>
<path d="M73.6196 302.982H73.5962C73.35 302.971 73.1625 302.759 73.1742 302.513C73.4555 297.516 75.1081 293.212 75.1785 293.036C75.2722 292.801 75.5301 292.684 75.7645 292.778C75.9989 292.872 76.1161 293.13 76.0223 293.364C76.0106 293.411 74.3463 297.716 74.0767 302.56C74.065 302.795 73.8657 302.982 73.6313 302.982H73.6196Z" fill="#FAFAFA"/>
<path d="M279.799 295.434L217.888 331.222L217.743 331.144L194.214 317.547C190.201 315.224 187.629 309.602 188.509 305.044L197.241 259.636L259.152 223.838L250.42 269.246C249.54 273.804 252.112 279.427 256.126 281.749L279.799 295.434Z" fill="#028BDA"/>
<path d="M197.241 259.636L188.577 304.656L250.488 268.888L258.495 227.254L254.588 226.48L197.241 259.636Z" fill="#0CA0F8"/>
<path d="M217.888 331.231L194.205 317.547C190.192 315.224 187.619 309.602 188.499 305.053L197.232 259.636L186.904 253.674L176.924 305.624C175.608 312.495 179.477 320.973 185.53 324.476L217.878 343.164V331.231H217.888Z" fill="#0C94E4"/>
<path d="M279.799 295.433L217.888 331.231V343.164L279.799 307.366V295.433Z" fill="#0CA0F8"/>
<path d="M340.357 1.183C343.21 2.82821 345.521 7.00897 345.521 10.522V200.65C345.521 204.163 343.055 208.431 340.018 210.192L103.205 347.016C100.168 348.767 95.3912 348.864 92.5384 347.209C89.6855 345.564 87.3743 341.383 87.3743 337.87V147.742C87.3743 144.229 89.8403 139.961 92.8768 138.2L211.283 69.7882L329.69 1.37655C332.727 -0.375112 337.504 -0.471888 340.357 1.183Z" fill="#5DB8EC"/>
<path d="M102.557 347.345C99.5205 348.767 95.1978 348.738 92.5384 347.209C89.6855 345.564 87.3743 341.383 87.3743 337.87V147.742C87.3743 145.991 87.9932 144.045 88.9893 142.313L99.3174 148.284C98.3214 150.007 97.7025 151.952 97.7025 153.704V343.832C97.7025 347.093 99.8203 348.554 102.557 347.345V347.345Z" fill="#0068A2"/>
<path d="M345.521 200.65V10.5219C345.521 7.00885 343.055 5.58623 340.018 7.33789L103.205 144.171C100.169 145.923 97.7025 150.2 97.7025 153.713V343.841C97.7025 347.354 100.169 348.777 103.205 347.025L340.018 210.202C343.055 208.45 345.521 204.173 345.521 200.66V200.65Z" fill="#007BC1"/>
<path d="M333.433 17.0547L107.267 147.791C104.839 149.194 102.867 152.61 102.867 155.426V324.235C102.867 327.041 104.839 328.183 107.276 326.78L333.442 196.044C335.87 194.64 337.842 191.224 337.842 188.408V19.5902C337.842 16.7837 335.87 15.6417 333.433 17.045V17.0547Z" fill="#1DA4F4"/>
<path d="M111.309 310.076C111.309 312.989 113.35 314.16 115.864 312.708L324.836 191.969C327.35 190.518 329.391 186.975 329.391 184.072V43.3003L111.309 169.304V310.086V310.076Z" fill="#FAFAFA"/>
<path d="M328.424 44.9745V184.072C328.424 186.627 326.557 189.859 324.352 191.137L115.381 311.876C114.82 312.195 114.288 312.369 113.824 312.369C112.421 312.369 112.267 310.773 112.267 310.076V169.856L328.424 44.9745ZM329.391 43.3003L111.309 169.304V310.085C111.309 312.147 112.334 313.347 113.833 313.347C114.442 313.347 115.139 313.144 115.874 312.728L324.845 191.988C327.36 190.537 329.4 186.995 329.4 184.091V43.3003H329.391Z" fill="#E0E0E0"/>
<path d="M121.686 173.001L164.633 148.187C165.793 147.519 166.731 148.061 166.731 149.397V271.655C166.731 272.991 165.793 274.616 164.633 275.284L121.686 300.098C120.525 300.766 119.587 300.224 119.587 298.888V176.63C119.587 175.294 120.525 173.668 121.686 173.001Z" fill="#DCF2FF"/>
<path d="M129.538 177.54L156.78 161.804C157.941 161.136 158.879 161.61 158.879 162.868C158.879 164.126 157.941 165.684 156.78 166.352L129.538 182.088C128.378 182.756 127.449 182.282 127.449 181.024C127.449 179.766 128.388 178.207 129.548 177.54H129.538Z" fill="white"/>
<path d="M127.449 189.278V190.914C127.449 191.717 128.01 192.037 128.707 191.64L130.128 190.817C130.824 190.42 131.385 189.443 131.385 188.64V187.004C131.385 186.201 130.824 185.882 130.128 186.278L128.716 187.101C128.02 187.498 127.459 188.475 127.459 189.278H127.449Z" fill="#1DA4F4"/>
<path d="M135.302 185.553C135.302 186.811 136.24 187.285 137.391 186.617L156.77 175.42C157.931 174.753 158.869 173.194 158.859 171.936C158.859 170.678 157.921 170.204 156.761 170.872L137.381 182.069C136.22 182.737 135.282 184.295 135.282 185.553H135.302Z" fill="white"/>
<path d="M127.449 198.366V200.002C127.449 200.805 128.01 201.124 128.707 200.727L130.128 199.905C130.824 199.508 131.385 198.531 131.385 197.727V196.092C131.385 195.289 130.824 194.969 130.128 195.366L128.716 196.189C128.02 196.585 127.459 197.563 127.459 198.366H127.449Z" fill="#1DA4F4"/>
<path d="M135.302 194.64C135.302 195.898 136.24 196.372 137.391 195.705L156.77 184.507C157.931 183.84 158.869 182.282 158.859 181.024C158.859 179.765 157.921 179.291 156.761 179.959L137.381 191.156C136.22 191.824 135.282 193.382 135.282 194.64H135.302Z" fill="white"/>
<path d="M127.449 207.434V209.069C127.449 209.872 128.01 210.192 128.707 209.795L130.128 208.972C130.824 208.576 131.385 207.598 131.385 206.795V205.159C131.385 204.356 130.824 204.037 130.128 204.434L128.716 205.256C128.02 205.653 127.459 206.63 127.459 207.434H127.449Z" fill="#1DA4F4"/>
<path d="M135.302 203.718C135.302 204.976 136.24 205.45 137.391 204.782L156.77 193.585C157.931 192.917 158.869 191.359 158.859 190.101C158.859 188.843 157.921 188.369 156.761 189.037L137.381 200.234C136.22 200.901 135.282 202.46 135.282 203.718H135.302Z" fill="white"/>
<path d="M127.449 216.502V218.137C127.449 218.941 128.01 219.26 128.707 218.863L130.128 218.041C130.824 217.644 131.385 216.666 131.385 215.863V214.228C131.385 213.424 130.824 213.105 130.128 213.502L128.716 214.324C128.02 214.721 127.459 215.699 127.459 216.502H127.449Z" fill="#1DA4F4"/>
<path d="M135.302 212.786C135.302 214.044 136.24 214.518 137.391 213.851L156.77 202.653C157.931 201.986 158.869 200.428 158.859 199.17C158.859 197.911 157.921 197.437 156.761 198.105L137.381 209.302C136.22 209.97 135.282 211.528 135.282 212.786H135.302Z" fill="white"/>
<path d="M129.374 227.564L156.616 211.828C157.776 211.16 158.705 211.634 158.705 212.892C158.705 214.151 157.767 215.709 156.616 216.376L129.374 232.112C128.213 232.78 127.285 232.306 127.285 231.048C127.285 229.79 128.223 228.232 129.383 227.564H129.374Z" fill="white"/>
<path d="M127.285 239.303V240.938C127.285 241.742 127.846 242.061 128.542 241.664L129.964 240.842C130.66 240.445 131.221 239.467 131.221 238.664V237.029C131.221 236.225 130.66 235.906 129.964 236.303L128.552 237.125C127.855 237.522 127.295 238.5 127.295 239.303H127.285Z" fill="#1DA4F4"/>
<path d="M135.138 235.577C135.138 236.835 136.076 237.309 137.226 236.642L156.606 225.445C157.767 224.777 158.705 223.219 158.695 221.961C158.695 220.702 157.757 220.228 156.597 220.896L137.217 232.093C136.056 232.761 135.118 234.319 135.118 235.577H135.138Z" fill="white"/>
<path d="M127.285 248.39V250.026C127.285 250.829 127.846 251.148 128.542 250.752L129.964 249.929C130.66 249.532 131.221 248.555 131.221 247.751V246.116C131.221 245.313 130.66 244.993 129.964 245.39L128.552 246.213C127.855 246.61 127.295 247.587 127.295 248.39H127.285Z" fill="#1DA4F4"/>
<path d="M135.138 244.664C135.138 245.922 136.076 246.396 137.226 245.729L156.606 234.531C157.767 233.864 158.705 232.306 158.695 231.047C158.695 229.789 157.757 229.315 156.597 229.983L137.217 241.18C136.056 241.848 135.118 243.406 135.118 244.664H135.138Z" fill="white"/>
<path d="M127.285 257.458V259.094C127.285 259.897 127.846 260.216 128.542 259.819L129.964 258.997C130.66 258.6 131.221 257.623 131.221 256.819V255.184C131.221 254.381 130.66 254.061 129.964 254.458L128.552 255.281C127.855 255.677 127.295 256.655 127.295 257.458H127.285Z" fill="#1DA4F4"/>
<path d="M135.138 253.742C135.138 255 136.076 255.474 137.226 254.806L156.606 243.609C157.767 242.942 158.705 241.383 158.695 240.125C158.695 238.867 157.757 238.393 156.597 239.061L137.217 250.258C136.056 250.926 135.118 252.484 135.118 253.742H135.138Z" fill="white"/>
<path d="M127.285 266.526V268.162C127.285 268.965 127.846 269.284 128.542 268.888L129.964 268.065C130.66 267.668 131.221 266.691 131.221 265.888V264.252C131.221 263.449 130.66 263.129 129.964 263.526L128.552 264.349C127.855 264.746 127.295 265.723 127.295 266.526H127.285Z" fill="#1DA4F4"/>
<path d="M135.138 262.81C135.138 264.068 136.076 264.542 137.226 263.875L156.606 252.677C157.767 252.01 158.705 250.452 158.695 249.193C158.695 247.935 157.757 247.461 156.597 248.129L137.217 259.326C136.056 259.994 135.118 261.552 135.118 262.81H135.138Z" fill="white"/>
<path d="M111.309 159.743C111.309 156.83 113.35 153.297 115.864 151.846L324.836 31.1066C327.35 29.6549 329.39 30.8356 329.39 33.7389V43.2908L111.309 169.304V159.743Z" fill="#0082CB"/>
<path d="M303.734 48.2267C302.555 48.9041 301.597 50.5687 301.597 51.9332C301.597 53.2978 302.555 53.8494 303.734 53.172C304.914 52.4945 305.872 50.83 305.872 49.4654C305.872 48.1009 304.914 47.5492 303.734 48.2267Z" fill="white"/>
<path d="M311.22 43.9103C310.04 44.5877 309.082 46.2523 309.082 47.6168C309.082 48.9814 310.04 49.533 311.22 48.8556C312.399 48.1781 313.357 46.5136 313.357 45.149C313.357 43.7845 312.399 43.2328 311.22 43.9103Z" fill="white"/>
<path d="M318.704 39.6036C317.525 40.2908 316.567 41.9456 316.567 43.3102C316.567 44.6747 317.525 45.2264 318.704 44.5489C319.884 43.8715 320.842 42.2069 320.842 40.8424C320.842 39.4778 319.884 38.9262 318.704 39.6036Z" fill="white"/>
<path d="M191.971 136.864L305.89 71.0459V89.2013L191.971 155.019V136.864Z" fill="#0082CB"/>
<path opacity="0.05" d="M191.971 136.864L305.89 71.0459V89.2013L191.971 155.019V136.864Z" fill="black"/>
<path d="M188.045 134.59L191.971 136.864V155.019L188.045 152.745V134.59Z" fill="#0082CB"/>
<path opacity="0.2" d="M188.045 134.59L191.971 136.864V155.019L188.045 152.745V134.59Z" fill="black"/>
<path d="M305.891 71.046L301.964 68.7717L188.045 134.59L191.971 136.864L305.891 71.046Z" fill="#0082CB"/>
<path opacity="0.4" d="M305.891 71.046L301.964 68.7717L188.045 134.59L191.971 136.864L305.891 71.046Z" fill="white"/>
<path d="M191.971 155.02L305.89 89.2017V193.605L191.971 259.423V155.02Z" fill="#26ACF9"/>
<path d="M188.045 152.746L191.971 155.02V259.423L188.045 257.149V152.746Z" fill="#0082CB"/>
<path opacity="0.15" d="M188.045 152.746L191.971 155.02V259.423L188.045 257.149V152.746Z" fill="black"/>
<path d="M202.154 156.403C204.32 155.145 206.08 156.161 206.08 158.678C206.08 161.194 204.32 164.233 202.154 165.491C199.987 166.749 198.227 165.733 198.227 163.216C198.227 160.71 199.987 157.662 202.154 156.403Z" fill="#FAFAFA"/>
<path d="M210.712 151.574L229.802 140.542C230.749 139.99 231.513 140.387 231.513 141.413C231.513 142.439 230.749 143.716 229.802 144.258L210.712 155.291C209.764 155.842 209 155.445 209 154.42C209 153.394 209.764 152.116 210.712 151.565V151.574Z" fill="#2197DB"/>
<path d="M210.248 158.058L227.374 148.158C228.071 147.761 228.632 147.868 228.632 148.41C228.632 148.952 228.071 149.716 227.384 150.132L210.238 160.313C209.552 160.72 208.991 160.546 208.991 159.917C208.991 159.288 209.552 158.455 210.248 158.058V158.058Z" fill="#2197DB"/>
<path opacity="0.3" d="M199.833 172.691C199.833 173.678 200.578 174.046 201.506 173.504L296.365 118.699C297.293 118.167 298.038 116.928 298.038 115.951C298.038 114.973 297.283 114.596 296.365 115.128L201.506 169.933C200.578 170.465 199.833 171.704 199.833 172.681V172.691Z" fill="black" fill-opacity="0.4"/>
<path opacity="0.3" d="M199.833 179.495C199.833 180.482 200.578 180.849 201.506 180.307L258.321 147.481C259.249 146.948 259.994 145.71 259.994 144.723C259.994 143.735 259.239 143.368 258.321 143.9L201.516 176.727C200.587 177.259 199.843 178.498 199.843 179.475L199.833 179.495Z" fill="black" fill-opacity="0.4"/>
<path d="M199.833 186.801L298.038 130.061V189.076L199.833 245.816V186.801Z" fill="#1DA4F4"/>
<path opacity="0.7" d="M199.833 186.801L298.038 130.061V189.076L199.833 245.816V186.801Z" fill="white"/>
<path d="M215.122 188.304L242.364 172.568C243.524 171.9 244.462 172.375 244.462 173.633C244.462 174.891 243.524 176.449 242.364 177.117L215.122 192.853C213.961 193.52 213.033 193.046 213.033 191.788C213.033 190.53 213.971 188.972 215.132 188.304H215.122Z" fill="white"/>
<path d="M213.033 200.043V201.678C213.033 202.482 213.594 202.801 214.29 202.404L215.712 201.582C216.408 201.185 216.969 200.207 216.969 199.404V197.769C216.969 196.965 216.408 196.646 215.712 197.043L214.3 197.865C213.604 198.262 213.043 199.24 213.043 200.043H213.033Z" fill="#1DA4F4"/>
<path d="M220.885 196.317C220.885 197.575 221.823 198.049 222.974 197.382L242.354 186.184C243.514 185.517 244.453 183.959 244.443 182.701C244.443 181.442 243.505 180.968 242.344 181.636L222.964 192.833C221.804 193.501 220.866 195.059 220.866 196.317H220.885Z" fill="white"/>
<path d="M213.033 209.13V210.766C213.033 211.569 213.594 211.889 214.29 211.492L215.712 210.669C216.408 210.272 216.969 209.295 216.969 208.492V206.856C216.969 206.053 216.408 205.734 215.712 206.13L214.3 206.953C213.604 207.35 213.043 208.327 213.043 209.13H213.033Z" fill="#1DA4F4"/>
<path d="M220.885 205.404C220.885 206.663 221.823 207.137 222.974 206.469L242.354 195.272C243.514 194.604 244.453 193.046 244.443 191.788C244.443 190.53 243.505 190.056 242.344 190.723L222.964 201.92C221.804 202.588 220.866 204.146 220.866 205.404H220.885Z" fill="white"/>
<path d="M213.033 218.198V219.834C213.033 220.637 213.594 220.956 214.29 220.56L215.712 219.737C216.408 219.34 216.969 218.363 216.969 217.56V215.924C216.969 215.121 216.408 214.801 215.712 215.198L214.3 216.021C213.604 216.418 213.043 217.395 213.043 218.198H213.033Z" fill="#1DA4F4"/>
<path d="M220.885 214.483C220.885 215.741 221.823 216.215 222.974 215.547L242.354 204.35C243.514 203.682 244.453 202.124 244.443 200.866C244.443 199.608 243.505 199.134 242.344 199.802L222.964 210.999C221.804 211.666 220.866 213.224 220.866 214.483H220.885Z" fill="white"/>
<path d="M213.033 227.266V228.902C213.033 229.705 213.594 230.024 214.29 229.628L215.712 228.805C216.408 228.408 216.969 227.431 216.969 226.627V224.992C216.969 224.189 216.408 223.869 215.712 224.266L214.3 225.089C213.604 225.486 213.043 226.463 213.043 227.266H213.033Z" fill="#1DA4F4"/>
<path d="M220.885 223.55C220.885 224.808 221.823 225.282 222.974 224.615L242.354 213.417C243.514 212.75 244.453 211.192 244.443 209.933C244.443 208.675 243.505 208.201 242.344 208.869L222.964 220.066C221.804 220.734 220.866 222.292 220.866 223.55H220.885Z" fill="white"/>
<path d="M258.64 162.174L285.882 146.438C287.042 145.77 287.98 146.245 287.98 147.503C287.98 148.761 287.042 150.319 285.882 150.987L258.64 166.723C257.479 167.39 256.551 166.916 256.551 165.658C256.551 164.4 257.489 162.842 258.649 162.174H258.64Z" fill="white"/>
<path d="M256.551 173.913V175.549C256.551 176.352 257.112 176.672 257.808 176.275L259.23 175.452C259.926 175.055 260.487 174.078 260.487 173.275V171.639C260.487 170.836 259.926 170.517 259.23 170.913L257.818 171.736C257.121 172.133 256.56 173.11 256.56 173.913H256.551Z" fill="#1DA4F4"/>
<path d="M264.403 170.187C264.403 171.446 265.341 171.92 266.492 171.252L285.872 160.055C287.032 159.387 287.97 157.829 287.961 156.571C287.961 155.313 287.023 154.839 285.862 155.506L266.482 166.703C265.322 167.371 264.384 168.929 264.384 170.187H264.403Z" fill="white"/>
<path d="M256.551 183.001V184.636C256.551 185.439 257.112 185.759 257.808 185.362L259.23 184.539C259.926 184.143 260.487 183.165 260.487 182.362V180.726C260.487 179.923 259.926 179.604 259.23 180.001L257.818 180.823C257.121 181.22 256.56 182.197 256.56 183.001H256.551Z" fill="#1DA4F4"/>
<path d="M264.403 179.275C264.403 180.533 265.341 181.007 266.492 180.339L285.872 169.142C287.032 168.474 287.97 166.916 287.961 165.658C287.961 164.4 287.023 163.926 285.862 164.594L266.482 175.791C265.322 176.459 264.384 178.017 264.384 179.275H264.403Z" fill="white"/>
<path d="M256.551 192.069V193.704C256.551 194.507 257.112 194.827 257.808 194.43L259.23 193.607C259.926 193.211 260.487 192.233 260.487 191.43V189.794C260.487 188.991 259.926 188.672 259.23 189.069L257.818 189.891C257.121 190.288 256.56 191.265 256.56 192.069H256.551Z" fill="#1DA4F4"/>
<path d="M264.403 188.352C264.403 189.611 265.341 190.085 266.492 189.417L285.872 178.22C287.032 177.552 287.97 175.994 287.961 174.736C287.961 173.478 287.023 173.004 285.862 173.671L266.482 184.868C265.322 185.536 264.384 187.094 264.384 188.352H264.403Z" fill="white"/>
<path d="M256.551 201.137V202.772C256.551 203.575 257.112 203.895 257.808 203.498L259.23 202.675C259.926 202.279 260.487 201.301 260.487 200.498V198.862C260.487 198.059 259.926 197.74 259.23 198.136L257.818 198.959C257.121 199.356 256.56 200.333 256.56 201.137H256.551Z" fill="#1DA4F4"/>
<path d="M264.403 197.42C264.403 198.678 265.341 199.153 266.492 198.485L285.872 187.288C287.032 186.62 287.97 185.062 287.961 183.804C287.961 182.546 287.023 182.071 285.862 182.739L266.482 193.936C265.322 194.604 264.384 196.162 264.384 197.42H264.403Z" fill="white"/>
<path d="M446.122 166.672C450.364 165.728 454.977 168.795 457.614 175.475C460.25 182.155 465.476 199.166 466.546 203.616C467.023 205.612 451.717 223.013 452.262 222.759C452.427 222.682 447.465 214.113 447.465 214.113L454.928 202.934L450.501 190.636L446.122 166.662V166.672Z" fill="#FFB7A7"/>
<path d="M453.829 324.262C454.403 324.486 454.529 325.576 454.588 327.757C454.636 329.403 454.948 332.276 453.011 332.821C451.085 333.366 448.263 333.035 447.057 331.477C445.539 329.52 444.527 327.806 442.357 325.42C440.479 323.346 438.445 321.409 437.715 318.536C437.054 315.936 437.647 314.816 439.428 314.086C441.87 313.083 445.646 316.52 447.543 317.075C449.178 317.553 453.255 324.047 453.829 324.271V324.262Z" fill="#007DC3"/>
<path d="M446.288 317.124C446.288 317.124 445.422 316.549 443.593 317.085C441.763 317.621 441.209 318.935 442.59 320.415C443.972 321.895 447.358 325.138 447.358 325.138L448.954 321.029L446.288 317.114V317.124Z" fill="#FFB7A7"/>
<path d="M433.823 338.167C433.823 338.167 434.553 340.494 434.942 342.529C435.244 344.145 435.682 346.843 435.108 348.05C434.524 349.258 432.315 350.007 428.91 349.939C426.701 349.891 423.237 351.351 420.863 352.637C418.411 353.961 415.774 353.932 413.195 353.601C410.169 353.201 407.046 351.4 406.569 350.134C406.092 348.868 406.734 348.274 413.925 345.314C413.993 345.285 421.515 342.003 425.018 338.225L433.823 338.157V338.167Z" fill="#007DC3"/>
<path d="M413.925 345.323C412.933 345.732 412.067 346.093 411.308 346.424C411.113 347.105 411.376 348.186 414.548 348.712C419.393 349.52 431.965 340.737 431.965 340.737C431.965 340.737 431.585 339.364 431.196 338.196L425.008 338.244C421.495 342.022 413.974 345.304 413.915 345.333L413.925 345.323Z" fill="#FFB7A7"/>
<path d="M456.962 285.322C455.853 276.597 453.887 271.563 453.887 271.563C453.887 271.563 455.541 259.79 456.563 248.466C458.392 228.183 457.225 221.522 453.352 212.369C453.352 212.369 419.345 208.474 418.119 222.623C416.601 240.247 417.875 274.348 418.255 280.58C418.644 286.812 419.189 289.626 421.223 302.674C422.77 312.606 425.193 339.54 425.193 339.54C426.282 342.237 433.074 341.828 433.823 338.751C433.823 338.751 437.025 306.958 436.82 299.762C436.577 290.979 434.3 284.036 434.3 284.036C434.3 284.036 436.781 255.321 437.462 250.754C437.462 250.754 438.406 259.888 438.795 266.12C439.185 272.352 440.956 278.33 442.61 289.928C444.04 299.986 447.368 325.128 447.368 325.128C450.569 328.419 453.595 326.443 453.838 324.895C453.838 324.895 458.081 294.027 456.972 285.302L456.962 285.322Z" fill="#FFB7A7"/>
<path d="M429.026 163.955L430.457 177.139L442.036 176.243L440.907 161.608L429.026 163.955Z" fill="#FFB7A7"/>
<path d="M454.461 173.381C453.235 169.905 448.963 165.991 444.497 166.76C443.339 166.964 442.435 167.091 441.345 167.295C441.209 170.324 435.351 171.843 429.678 169.934C427.956 170.402 426.37 170.84 424.959 171.375C422.896 172.145 416.737 182.904 416.075 189.789C415.54 195.388 419.899 199.244 419.899 199.244C418.021 211.24 416.26 259.236 416.26 259.236C418.051 260.044 419.958 260.531 422.118 260.336L423.83 250.2L424.434 260.677C427.645 261.242 436.664 260.511 442.396 258.691C452.749 255.39 459.258 248.797 459.258 248.797C459.258 248.797 459.375 232.38 457.974 224.347C456.573 216.313 456.164 214.405 449.09 203.158C455.434 186.916 456.271 178.532 454.451 173.372L454.461 173.381Z" fill="white"/>
<path d="M427.304 215.086C433.162 185.183 432.694 175.163 424.716 171.463C418.498 173.225 418.44 181.083 418.79 188.581C418.79 188.581 419.15 204.132 416.834 215.184C415.589 221.153 413.662 229.761 411.366 234.337C410.957 235.145 410.247 235.769 409.41 236.1C407.143 236.996 406.52 238.3 404.701 239.615C403.27 240.647 402.2 240.774 402.288 241.202C402.395 241.747 403.095 242.741 404.652 242.556C405.43 242.468 406.034 242.205 407.357 241.669C407.357 241.669 406.082 243.724 403.514 245.915C400.03 248.885 399.514 251.008 405.255 252.108C408.855 252.799 412.135 251.105 416.289 243.656C417.486 241.514 419.374 238.125 420.444 235.204C423.256 227.599 426.088 221.328 427.314 215.077L427.304 215.086Z" fill="#FFB7A7"/>
<path d="M422.74 147.635C422.74 147.635 418.284 142.474 421.651 137.333C425.611 131.276 433.113 130.342 441.958 132.834C446.336 134.071 451.046 138.891 451.484 147.343C451.824 153.857 435.001 158.366 435.361 162.826L422.74 147.635Z" fill="#263238"/>
<path d="M420.23 149.583C420.23 149.583 417.72 153.507 418.06 153.906C418.401 154.315 420.035 154.724 420.035 154.724L420.23 149.573V149.583Z" fill="#F28F8F"/>
<path d="M427.897 137.167C425.416 138.492 421.145 140.936 420.162 150.147C419.16 159.602 421.3 162.855 422.604 164.082C423.48 164.909 427.965 165.143 430.301 164.383C433.21 163.429 439.505 160.216 442.405 155.298C445.82 149.514 446.433 141.861 442.356 138.92C436.625 134.782 429.999 136.038 427.897 137.158V137.167Z" fill="#FFB7A7"/>
<path d="M427.168 137.567C427.168 137.567 425.115 146.214 427.79 151.618C427.79 151.618 429.269 148.239 432.169 149.154C435.088 150.089 434.874 153.965 432.617 155.98C430.359 157.996 428.121 157.003 428.121 157.003C428.121 157.003 429.406 160.674 432.364 163.595C432.364 163.595 440.936 167.558 448.516 159.213C454.442 152.689 451.561 137.411 443.972 134.996C433.638 131.715 427.168 137.547 427.168 137.547V137.567Z" fill="#263238"/>
<path d="M455.833 162.504C452.019 163.634 448.02 161.462 446.891 157.645C445.762 153.828 447.932 149.826 451.746 148.697C455.561 147.567 459.56 149.739 460.688 153.556C461.817 157.373 459.647 161.375 455.833 162.504Z" fill="#263238"/>
<path d="M455.853 152.883C453.537 153.575 451.104 152.25 450.423 149.933C449.732 147.616 451.056 145.181 453.371 144.5C455.687 143.808 458.12 145.132 458.801 147.45C459.492 149.767 458.168 152.202 455.853 152.883Z" fill="#263238"/>
<path d="M450.316 164.939C448 165.63 445.568 164.306 444.886 161.988C444.196 159.671 445.519 157.236 447.835 156.555C450.151 155.863 452.583 157.188 453.264 159.505C453.955 161.823 452.632 164.257 450.316 164.939Z" fill="#263238"/>
<path d="M420.493 133.789C416.717 137.742 416.659 149.008 427.8 151.618L438.143 131.958C431.264 128.306 423.859 130.254 420.493 133.779V133.789Z" fill="#263238"/>
<path d="M426.72 154.724C425.572 154.325 424.969 153.079 425.358 151.93C425.747 150.781 427.002 150.177 428.151 150.566L426.72 154.724Z" fill="#263238"/>
<path d="M395.019 248.31C396.401 220.266 394.309 213.499 386.963 208.182L383.703 224.376C383.703 224.376 386.671 243.607 386.165 249.985C385.717 255.584 385.017 262.585 383.586 267.084C383.333 267.882 382.779 268.544 382.059 268.973C380.132 270.122 379.334 271.32 377.875 272.79C376.726 273.939 375.763 274.212 375.909 274.591C376.084 275.078 376.872 275.867 378.254 275.487C378.945 275.292 379.85 274.767 380.988 274.085C380.988 274.085 380.142 276.403 378.118 278.769C375.384 281.982 375.218 283.988 380.599 284.153C383.966 284.261 386.71 282.235 389.415 274.864C390.193 272.741 391.419 269.382 391.974 266.568C393.423 259.236 394.815 252.828 395.039 248.32L395.019 248.31Z" fill="#FFA8A7"/>
<path d="M380.725 205.914C384.296 205.476 389.123 206.333 392.129 212C395.136 217.667 395.681 227.317 395.827 236.908C395.827 236.908 389.492 241.972 382.097 239.245L380.725 205.914V205.914Z" fill="#2DB1FF"/>
<path d="M387.731 360.476C388.296 360.7 388.412 361.78 388.451 363.932C388.48 365.559 388.763 368.392 386.856 368.918C384.948 369.444 382.166 369.093 380.988 367.535C379.509 365.588 378.526 363.893 376.405 361.508C374.566 359.443 372.581 357.515 371.881 354.662C371.248 352.082 371.852 350.991 373.613 350.281C376.035 349.307 379.733 352.744 381.601 353.309C383.207 353.796 387.177 360.242 387.741 360.476H387.731Z" fill="#007DC3"/>
<path d="M387.78 358.489L387.721 361.118C387.721 361.118 384.939 363.163 381.066 361.147C380.959 360.894 380.463 357.369 380.463 357.369L387.78 358.489V358.489Z" fill="#FFA8A7"/>
<path d="M366.091 375.169C366.091 375.169 366.792 377.477 367.152 379.483C367.444 381.08 367.843 383.748 367.259 384.936C366.675 386.124 364.486 386.844 361.119 386.747C358.939 386.679 355.505 388.091 353.15 389.337C350.717 390.622 345.706 391.051 343.167 390.691C340.18 390.272 337.115 388.461 336.657 387.205C336.2 385.948 336.871 384.673 344.004 381.82C344.072 381.791 353.89 378.84 357.392 375.14L366.091 375.159V375.169Z" fill="#007DC3"/>
<path d="M366.15 372.316C366.15 372.316 366.091 374.274 366.082 375.384C366.062 376.503 364.71 378.13 361.304 377.935C358.91 377.798 357.256 377.117 357.392 375.14L357.461 372.297L366.159 372.316H366.15Z" fill="#FFA8A7"/>
<path d="M390.271 323.59C389.259 314.963 387.468 309.812 387.468 309.812C387.468 309.812 388.675 298 389.376 286.793C390.135 274.689 389.969 259.45 390.261 256.432C390.261 256.432 351.369 247.639 350.357 261.631C349.345 275.624 350.785 311.321 351.107 317.485C351.428 323.649 352.372 329.111 353.413 339.112C354.444 348.985 357.431 372.306 357.431 372.306C361.839 374.819 366.13 372.326 366.13 372.326C366.13 372.326 369.506 344.389 369.38 337.281C369.224 328.605 367.035 321.721 367.035 321.721C367.035 321.721 368.037 310.192 368.913 300.162C369.789 290.133 370.596 285.322 370.839 280.96L371.686 280.561C371.686 280.561 372.153 297.913 372.474 304.077C372.795 310.24 373.642 316.161 375.16 327.631C376.483 337.583 380.599 358.655 380.599 358.655C385.007 361.167 387.731 358.499 387.731 358.499C387.731 358.499 391.244 332.227 390.232 323.6L390.271 323.59Z" fill="#2DB1FF"/>
<path d="M370.869 280.95C370.869 280.95 380.453 276.491 385.289 272.381C385.289 272.381 380.745 278.496 374.907 281.116C374.907 281.116 372.367 302.596 372.387 302.168L371.676 280.931H370.878L370.869 280.95Z" fill="#007DC3"/>
<path d="M364.233 201.113L366.257 213.889L377.768 213.314L376.425 198.357L364.233 201.113Z" fill="#FFA8A7"/>
<path d="M389.921 212.652C388.86 209.166 384.559 205.3 380.142 206.011C379.12 206.177 378.118 206.342 377.145 206.518C376.619 208.67 371.112 210.335 365.469 209.01C363.766 209.458 362.209 209.916 360.798 210.383C356.75 211.727 353.004 215.126 352.372 228.349C352.372 228.349 350.328 259.177 350.173 265.137C360.175 269.363 370.684 269.48 376.512 268.34C388.656 265.974 390.222 260.989 390.222 260.989C390.222 260.989 390.874 238.807 390.728 229.216C390.602 221.065 390.631 215.038 389.901 212.642L389.921 212.652Z" fill="white"/>
<path d="M355.709 185.426C355.709 185.426 352.693 190.013 353.033 190.46C353.374 190.908 355.602 191.317 355.602 191.317L355.709 185.426V185.426Z" fill="#F28F8F"/>
<path d="M364.096 172.739C357.986 174.024 356.225 176.711 355.651 186.429C355.047 196.576 356.088 199.769 357.412 201.133C358.307 202.058 363.308 202.223 365.828 201.522C368.981 200.656 376.113 198.124 379.451 193.021C383.382 187.014 384.413 178.873 380.21 175.533C374.294 170.83 366.578 172.213 364.096 172.739V172.739Z" fill="#FFA8A7"/>
<path d="M354.97 175.913C355.028 175.971 355.086 176.03 355.154 176.098C356.332 177.218 357.83 177.919 359.066 178.98C360.418 180.149 361.343 181.687 361.839 183.401C362.248 184.803 362.403 186.478 363.931 187.13C363.931 187.13 364.894 183.381 368.057 183.849C371.238 184.326 371.667 188.377 369.662 190.84C367.658 193.304 365.79 192.359 365.79 192.359C365.79 192.359 365.887 197.725 368.261 200.753C368.261 200.753 370.966 201.629 375.928 200.568C378.984 199.916 383.304 196.098 385.114 192.048C388.957 183.489 389.22 175.786 383.761 173.479C383.168 169.535 380.064 167.772 376.532 166.954C371.238 165.737 366.296 168.882 361.07 167.704C359.971 167.461 358.91 167.062 357.791 166.925C357.665 166.906 357.529 166.896 357.412 166.954C357.149 167.091 357.159 167.471 357.237 167.763C357.519 168.805 358.044 169.788 358.774 170.587C356.731 170.723 354.804 170.431 352.848 169.837C352.615 172.037 353.422 174.316 354.96 175.893L354.97 175.913Z" fill="#263238"/>
<path d="M383.858 174.813L387.517 172.661C386.923 171.648 385.62 171.317 384.608 171.911C383.596 172.505 383.265 173.81 383.858 174.823V174.813Z" fill="#263238"/>
<path d="M363.863 189.263L363.98 185.017C362.812 184.988 361.829 185.913 361.8 187.082C361.771 188.25 362.695 189.234 363.863 189.263Z" fill="#263238"/>
<path d="M311.699 232.215C313.567 233.101 335.47 250.063 338.983 248.233C342.495 246.392 360.779 225.973 360.779 225.973C366.14 217.511 361.129 210.354 361.129 210.354C361.129 210.354 355.398 211.279 352.304 215.739C349.219 220.189 335.947 236.1 335.947 236.1C332.794 234.435 329.652 232.741 326.528 231.027C323.95 229.615 321.361 228.203 318.841 226.694C318.209 226.314 317.382 225.944 316.866 225.408C315.63 224.133 315.922 221.124 315.981 219.488C316.01 218.719 316.039 217.949 316.146 217.19C316.273 216.255 316.506 213.967 314.803 214.658C314.472 214.794 314.21 215.038 313.986 215.32C313.713 215.661 313.499 216.041 313.353 216.46C313.013 217.443 313.091 218.534 312.779 219.527C312.731 219.673 312.672 219.819 312.565 219.926C312.419 220.053 312.225 220.092 312.03 220.082C309.578 219.955 307.33 216.46 306.25 214.609C305.764 213.782 305.297 212.866 304.441 212.448C303.108 211.786 301.483 212.652 300.587 213.84C299.449 215.35 299.079 217.336 299.254 219.225C299.498 221.835 300.441 224.269 302.3 226.08C305.122 228.836 308.206 230.589 311.728 232.254L311.699 232.215Z" fill="#FFA8A7"/>
<path d="M362.958 209.711C360.496 209.935 356.41 210.033 352.313 214.473C347.516 219.663 341.172 228.174 341.172 228.174C341.172 228.174 342.651 236.596 351.71 238.563C351.71 238.563 360.331 230.111 362.783 225.408C365.235 220.705 365.78 212.983 362.958 209.711V209.711Z" fill="#2DB1FF"/>
<path d="M232.787 124.075L230.744 125.253L230.327 126.554L228.932 127.358L231.414 119.919L232.958 119.029L234.437 124.185L233.025 124.999L232.787 124.075ZM232.538 123.089L232.043 121.174L231.189 123.866L232.538 123.089ZM238.611 118.698C238.922 118.593 239.162 118.629 239.331 118.805C239.501 118.975 239.572 119.243 239.543 119.607C239.501 120.134 239.306 120.645 238.959 121.142C238.618 121.63 238.161 122.039 237.589 122.368L235.04 123.838L235.542 117.54L238.006 116.12C238.562 115.799 238.984 115.695 239.273 115.809C239.566 115.919 239.693 116.225 239.653 116.728C239.624 117.099 239.513 117.456 239.322 117.8C239.136 118.141 238.899 118.44 238.611 118.698ZM236.672 119.319L237.545 118.816C237.763 118.69 237.934 118.54 238.057 118.367C238.186 118.184 238.259 117.985 238.276 117.77C238.293 117.555 238.246 117.425 238.136 117.38C238.03 117.332 237.869 117.371 237.65 117.497L236.777 118L236.672 119.319ZM237.454 121.265C237.678 121.136 237.854 120.98 237.982 120.798C238.117 120.606 238.193 120.4 238.21 120.179C238.228 119.957 238.177 119.821 238.057 119.771C237.942 119.717 237.773 119.755 237.549 119.883L236.582 120.441L236.472 121.831L237.454 121.265ZM242.763 119.446C242.249 119.742 241.786 119.878 241.377 119.851C240.973 119.822 240.663 119.635 240.447 119.292C240.237 118.939 240.157 118.455 240.206 117.839C240.255 117.223 240.424 116.597 240.712 115.963C241.006 115.326 241.377 114.747 241.825 114.226C242.279 113.702 242.763 113.292 243.277 112.995C243.792 112.699 244.251 112.565 244.656 112.595C245.065 112.621 245.373 112.809 245.578 113.159C245.788 113.505 245.869 113.987 245.82 114.603C245.771 115.219 245.602 115.847 245.313 116.487C245.024 117.121 244.656 117.699 244.207 118.22C243.759 118.741 243.278 119.149 242.763 119.446ZM242.875 118.046C243.311 117.795 243.673 117.426 243.96 116.942C244.251 116.454 244.419 115.935 244.463 115.385C244.507 114.828 244.41 114.462 244.171 114.286C243.938 114.101 243.603 114.134 243.166 114.386C242.725 114.641 242.358 115.009 242.067 115.491C241.781 115.969 241.615 116.49 241.57 117.052C241.526 117.608 241.62 117.979 241.854 118.164C242.092 118.34 242.433 118.301 242.875 118.046ZM248.121 110.289L247.821 114.057C247.791 114.434 247.848 114.677 247.993 114.788C248.138 114.898 248.367 114.864 248.678 114.684C248.99 114.504 249.238 114.265 249.42 113.965C249.603 113.666 249.709 113.328 249.739 112.951L250.039 109.183L251.373 108.415L251.073 112.174C251.028 112.736 250.886 113.271 250.648 113.78C250.409 114.289 250.105 114.744 249.735 115.145C249.371 115.543 248.974 115.866 248.542 116.115C248.111 116.364 247.731 116.491 247.403 116.497C247.081 116.495 246.837 116.356 246.67 116.081C246.504 115.8 246.443 115.379 246.488 114.817L246.788 111.057L248.121 110.289ZM256.247 105.605L256.149 106.834L254.698 107.67L254.294 112.739L252.961 113.508L253.365 108.439L251.915 109.275L252.013 108.046L256.247 105.605ZM259.878 103.512L259.578 107.28C259.548 107.657 259.605 107.901 259.75 108.011C259.895 108.122 260.124 108.087 260.436 107.907C260.747 107.727 260.995 107.488 261.177 107.189C261.36 106.889 261.466 106.551 261.496 106.175L261.796 102.406L263.13 101.638L262.83 105.397C262.785 105.959 262.644 106.495 262.405 107.003C262.166 107.512 261.862 107.967 261.492 108.368C261.128 108.766 260.731 109.089 260.299 109.338C259.868 109.587 259.488 109.714 259.16 109.721C258.838 109.718 258.594 109.579 258.427 109.304C258.261 109.024 258.2 108.602 258.245 108.04L258.545 104.281L259.878 103.512ZM265.54 106.317C265.139 106.548 264.787 106.68 264.481 106.713C264.176 106.747 263.939 106.672 263.77 106.49C263.606 106.305 263.536 106.009 263.558 105.602L264.977 104.784C264.98 105.005 265.036 105.144 265.145 105.201C265.255 105.252 265.406 105.222 265.599 105.111C265.796 104.997 265.956 104.856 266.079 104.689C266.202 104.515 266.27 104.336 266.285 104.15C266.298 103.995 266.261 103.893 266.176 103.845C266.095 103.795 265.99 103.775 265.86 103.787C265.736 103.796 265.554 103.83 265.317 103.887C264.973 103.965 264.695 104.006 264.481 104.009C264.268 104.012 264.09 103.937 263.949 103.785C263.807 103.633 263.752 103.359 263.783 102.964C263.83 102.378 264.051 101.814 264.446 101.273C264.842 100.725 265.336 100.28 265.929 99.9389C266.532 99.5913 267.005 99.4786 267.347 99.6008C267.69 99.717 267.851 100.064 267.83 100.641L266.387 101.472C266.393 101.275 266.341 101.154 266.23 101.109C266.12 101.058 265.971 101.087 265.784 101.195C265.623 101.288 265.489 101.414 265.382 101.572C265.276 101.725 265.215 101.894 265.201 102.079C265.184 102.283 265.255 102.393 265.412 102.411C265.569 102.429 265.82 102.401 266.163 102.329C266.505 102.263 266.78 102.23 266.989 102.23C267.202 102.226 267.38 102.298 267.522 102.444C267.664 102.591 267.72 102.852 267.69 103.229C267.662 103.588 267.555 103.96 267.371 104.346C267.191 104.729 266.944 105.094 266.629 105.442C266.313 105.789 265.95 106.081 265.54 106.317Z" fill="white"/>
<path d="M361.723 64.4373L328.854 82.0689C327.355 82.877 326.129 84.8339 326.129 86.45V111.082L317.785 119.124C316.58 120.282 316.999 121.071 318.729 120.886L326.139 120.078V130.836C326.139 132.452 327.355 133.104 328.864 132.296L361.733 114.665C363.232 113.856 364.459 111.9 364.459 110.283V65.8976C364.459 64.2815 363.243 63.6292 361.733 64.4373H361.723Z" fill="#007BC1"/>
<path d="M348.664 78.6204L355.915 74.4265C357.399 73.5648 358.612 73.9593 358.612 75.3088C358.612 76.6584 357.409 78.4439 355.915 79.3055L348.664 83.4995C347.181 84.3611 345.967 83.9666 345.967 82.6171C345.967 81.2676 347.171 79.482 348.664 78.6204Z" fill="#FAFAFA"/>
<path d="M334.508 105.91L357.309 92.7365C358.792 91.8749 360.006 92.2694 360.006 93.6189C360.006 94.9684 358.803 96.754 357.309 97.6156L334.508 110.789C333.025 111.651 331.811 111.256 331.811 109.907C331.811 108.557 333.014 106.772 334.508 105.91Z" fill="#FAFAFA"/>
<path d="M335.511 115.388L358.312 102.215C359.795 101.353 361.009 101.747 361.009 103.097C361.009 104.446 359.806 106.232 358.312 107.094L335.511 120.267C334.028 121.129 332.814 120.734 332.814 119.385C332.814 118.035 334.018 116.25 335.511 115.388Z" fill="#FAFAFA"/>
<path d="M330.917 92.8301V96.8622C330.917 98.8425 332.347 99.6298 334.122 98.6516L337.746 96.6236C339.521 95.6454 340.95 93.2357 340.95 91.2554V87.2233C340.95 85.2431 339.521 84.4558 337.746 85.434L334.147 87.4619C332.372 88.4401 330.942 90.8499 330.942 92.8301H330.917Z" fill="white"/>
<path d="M111.668 67.665L109.227 68.6033V63.2298C109.227 58.965 105.833 57.9493 102.145 60.0739C98.4569 62.2062 95.4661 67.3859 95.4661 71.6506V72.4338C94.6293 72.1003 93.5523 72.2322 92.3668 72.9145C89.7091 74.4498 87.5628 78.1795 87.5628 81.2423V81.599L84.1613 83.5608C82.4102 84.5688 81 87.0268 81 89.0428C81 91.0589 82.4179 91.8808 84.1613 90.8728L111.668 74.9771C113.419 73.9691 114.829 71.511 114.829 69.495C114.829 67.4789 113.411 66.657 111.668 67.665V67.665Z" fill="white"/>
<path d="M235.113 408.487L200.168 428.668L160.823 405.89L195.761 385.709L235.113 408.487Z" fill="#2DB1FF"/>
<path opacity="0.5" d="M235.113 408.487L200.168 428.668L160.823 405.89L195.761 385.709L235.113 408.487Z" fill="black"/>
<path d="M195.761 358.349V385.709L160.823 405.89V378.531L195.761 358.349Z" fill="#2DB1FF"/>
<path opacity="0.23" d="M195.761 358.349V385.709L160.823 405.89V378.531L195.761 358.349Z" fill="black"/>
<path d="M235.113 381.127V408.487L195.761 385.709V358.349L235.113 381.127Z" fill="#2DB1FF"/>
<path opacity="0.4" d="M235.113 381.127V408.487L195.761 385.709V358.349L235.113 381.127Z" fill="black"/>
<path d="M195.761 358.349L195.811 343.202L235.063 366.009L235.113 381.127L195.761 358.349Z" fill="#289FE5"/>
<path d="M160.823 378.531L156.654 364.786L191.599 344.605L195.761 358.349L160.823 378.531Z" fill="#2DB1FF"/>
<path opacity="0.1" d="M160.823 378.531L156.654 364.786L191.599 344.605L195.761 358.349L160.823 378.531Z" fill="black"/>
<path d="M169.148 404.833C168.774 404.61 168.443 404.07 168.415 403.624L165.482 355.472C165.453 355.026 165.733 354.487 166.107 354.271L196.063 337.067C196.437 336.851 197.048 336.859 197.422 337.074C197.796 337.297 198.126 337.837 198.155 338.283L201.088 386.435C201.117 386.881 200.837 387.42 200.463 387.636L170.507 404.84C170.133 405.056 169.522 405.049 169.148 404.826V404.833Z" fill="#F0F0F0"/>
<path d="M170.211 404.754C169.995 404.754 169.967 404.488 169.96 404.408L167.026 356.256C167.005 355.875 167.249 355.4 167.566 355.221L197.522 338.017C197.594 337.973 197.666 337.952 197.73 337.952C197.946 337.952 197.975 338.218 197.982 338.297L200.915 386.449C200.937 386.831 200.692 387.305 200.376 387.485L170.42 404.689C170.348 404.732 170.276 404.754 170.211 404.754V404.754Z" fill="#FAFAFA"/>
<path d="M197.724 338.132C197.767 338.132 197.795 338.24 197.795 338.312L200.728 386.464C200.75 386.78 200.542 387.183 200.283 387.334L170.327 404.538C170.262 404.574 170.219 404.581 170.212 404.581C170.168 404.581 170.14 404.473 170.14 404.401L167.207 356.249C167.185 355.933 167.393 355.53 167.652 355.379L197.608 338.175C197.673 338.139 197.716 338.132 197.724 338.132ZM197.724 337.772C197.63 337.772 197.529 337.801 197.429 337.859L167.473 355.062C167.099 355.278 166.818 355.81 166.847 356.264L169.78 404.416C169.802 404.739 169.974 404.926 170.212 404.926C170.305 404.926 170.406 404.898 170.506 404.84L200.462 387.636C200.836 387.42 201.117 386.888 201.088 386.435L198.155 338.283C198.133 337.959 197.961 337.772 197.724 337.772V337.772Z" fill="#EBEBEB"/>
<path d="M170.42 404.883C170.047 405.048 169.5 405.034 169.155 404.825C168.781 404.602 168.451 404.063 168.429 403.617L165.496 355.465C165.482 355.242 165.546 354.997 165.654 354.774L167.02 355.573C166.905 355.789 166.84 356.033 166.855 356.256L169.788 404.415C169.809 404.825 170.09 405.02 170.428 404.883H170.42Z" fill="#E0E0E0"/>
<path d="M182.598 351.149L193.159 345.007C193.489 344.82 193.777 344.985 193.799 345.381L193.813 345.626C193.834 346.021 193.59 346.496 193.259 346.683L182.699 352.825C182.368 353.012 182.081 352.847 182.059 352.451L182.045 352.207C182.023 351.811 182.268 351.336 182.598 351.149Z" fill="#E0E0E0"/>
<path d="M182.856 355.343L193.417 349.2C193.748 349.013 194.035 349.179 194.057 349.574L194.071 349.819C194.093 350.215 193.848 350.689 193.518 350.876L182.957 357.018C182.626 357.205 182.339 357.04 182.317 356.644L182.303 356.4C182.281 356.004 182.526 355.53 182.856 355.343Z" fill="#E0E0E0"/>
<path d="M183.108 359.535L193.669 353.393C193.999 353.206 194.287 353.372 194.308 353.767L194.323 354.012C194.344 354.407 194.1 354.882 193.769 355.069L183.209 361.211C182.878 361.398 182.59 361.233 182.569 360.837L182.555 360.593C182.533 360.197 182.777 359.722 183.108 359.535Z" fill="#E0E0E0"/>
<path d="M172.462 374.287L194.179 361.78C194.51 361.593 194.798 361.758 194.819 362.154L194.833 362.398C194.855 362.794 194.611 363.268 194.28 363.455L172.562 375.963C172.232 376.15 171.944 375.984 171.922 375.589L171.908 375.344C171.886 374.949 172.131 374.474 172.462 374.287Z" fill="#E0E0E0"/>
<path d="M172.203 370.094L193.921 357.586C194.251 357.399 194.539 357.565 194.56 357.96L194.575 358.205C194.596 358.601 194.352 359.075 194.021 359.262L172.304 371.77C171.973 371.957 171.685 371.791 171.664 371.396L171.649 371.151C171.628 370.755 171.872 370.281 172.203 370.094Z" fill="#E0E0E0"/>
<path d="M172.713 378.509L194.431 366.002C194.761 365.815 195.049 365.98 195.07 366.376L195.085 366.62C195.106 367.016 194.862 367.49 194.531 367.677L172.813 380.185C172.483 380.372 172.195 380.206 172.174 379.811L172.159 379.566C172.138 379.171 172.382 378.696 172.713 378.509Z" fill="#E0E0E0"/>
<path d="M172.972 382.702L194.69 370.194C195.02 370.007 195.308 370.173 195.33 370.568L195.344 370.813C195.366 371.208 195.121 371.683 194.79 371.87L173.073 384.377C172.742 384.564 172.454 384.399 172.433 384.003L172.419 383.759C172.397 383.363 172.641 382.889 172.972 382.702Z" fill="#E0E0E0"/>
<path d="M173.224 386.895L194.941 374.388C195.272 374.201 195.56 374.366 195.581 374.762L195.596 375.006C195.617 375.402 195.373 375.876 195.042 376.063L173.324 388.571C172.994 388.758 172.706 388.592 172.685 388.197L172.67 387.952C172.649 387.557 172.893 387.082 173.224 386.895Z" fill="#E0E0E0"/>
<path d="M173.482 391.088L195.2 378.581C195.531 378.394 195.818 378.559 195.84 378.955L195.854 379.199C195.876 379.595 195.631 380.07 195.301 380.257L173.583 392.764C173.252 392.951 172.965 392.786 172.943 392.39L172.929 392.145C172.907 391.75 173.152 391.275 173.482 391.088Z" fill="#E0E0E0"/>
<path d="M173.734 395.281L195.452 382.774C195.782 382.587 196.07 382.752 196.091 383.148L196.106 383.392C196.127 383.788 195.883 384.263 195.552 384.45L173.834 396.957C173.504 397.144 173.216 396.979 173.195 396.583L173.18 396.339C173.159 395.943 173.403 395.468 173.734 395.281Z" fill="#E0E0E0"/>
<path d="M170.96 357.141L179.73 352.121L180.37 362.643L171.6 367.67L170.96 357.141Z" fill="#2DB1FF"/>
<path d="M172.391 358.227L172.585 361.384L172.858 361.219L172.8 360.248C172.764 359.716 173.16 359.04 173.677 358.745L174.971 358.004L175.259 362.7C175.295 363.319 174.964 364.031 174.511 364.29L173.699 364.757L173.721 365.095L178.106 362.585L178.084 362.247C178.084 362.247 177.718 362.456 177.272 362.715C176.819 362.974 176.424 362.679 176.388 362.06L176.1 357.364L177.394 356.623C177.912 356.328 178.357 356.522 178.386 357.055L178.444 358.025L178.717 357.874L178.523 354.717L172.383 358.234L172.391 358.227Z" fill="#FAFAFA"/>
<path d="M181.628 412.039C181.254 411.816 180.923 411.277 180.894 410.831L177.961 362.679C177.933 362.233 178.213 361.693 178.587 361.478L208.543 344.274C208.917 344.058 209.528 344.065 209.902 344.288C210.276 344.511 210.606 345.05 210.635 345.496L213.568 393.648C213.597 394.094 213.316 394.634 212.943 394.85L182.986 412.053C182.613 412.269 182.002 412.262 181.628 412.046V412.039Z" fill="#F0F0F0"/>
<path d="M182.692 411.96C182.476 411.96 182.447 411.694 182.44 411.615L179.507 363.463C179.485 363.082 179.73 362.607 180.046 362.427L210.002 345.223C210.074 345.18 210.146 345.159 210.211 345.159C210.427 345.159 210.455 345.425 210.463 345.504L213.396 393.656C213.417 394.037 213.173 394.512 212.856 394.692L182.9 411.896C182.828 411.939 182.756 411.96 182.692 411.96V411.96Z" fill="#FAFAFA"/>
<path d="M210.204 345.338C210.247 345.338 210.276 345.446 210.276 345.518L213.209 393.67C213.231 393.987 213.022 394.39 212.763 394.541L182.807 411.745C182.742 411.781 182.706 411.788 182.692 411.788C182.649 411.788 182.62 411.68 182.62 411.608L179.687 363.456C179.665 363.139 179.874 362.736 180.133 362.585L210.089 345.382C210.154 345.346 210.197 345.338 210.204 345.338ZM210.204 344.979C210.111 344.979 210.01 345.008 209.909 345.065L179.953 362.269C179.579 362.485 179.299 363.017 179.328 363.47L182.261 411.622C182.282 411.946 182.455 412.133 182.692 412.133C182.785 412.133 182.886 412.104 182.987 412.047L212.943 394.843C213.317 394.627 213.597 394.095 213.568 393.642L210.635 345.489C210.614 345.166 210.441 344.979 210.204 344.979V344.979Z" fill="#EBEBEB"/>
<path d="M182.893 412.089C182.519 412.255 181.973 412.241 181.628 412.032C181.254 411.809 180.923 411.27 180.902 410.824L177.969 362.671C177.954 362.448 178.019 362.204 178.127 361.981L179.493 362.779C179.378 362.995 179.313 363.24 179.327 363.463L182.26 411.622C182.282 412.032 182.562 412.226 182.9 412.089H182.893Z" fill="#E0E0E0"/>
<path d="M195.079 358.349L205.639 352.207C205.97 352.02 206.257 352.185 206.279 352.581L206.293 352.825C206.315 353.221 206.07 353.696 205.74 353.883L195.179 360.025C194.848 360.212 194.561 360.046 194.539 359.651L194.525 359.406C194.503 359.011 194.748 358.536 195.079 358.349Z" fill="#E0E0E0"/>
<path d="M195.33 362.542L205.891 356.4C206.221 356.213 206.509 356.378 206.53 356.774L206.545 357.018C206.566 357.414 206.322 357.888 205.991 358.075L195.431 364.218C195.1 364.405 194.813 364.239 194.791 363.844L194.777 363.599C194.755 363.204 194.999 362.729 195.33 362.542Z" fill="#E0E0E0"/>
<path d="M195.589 366.735L206.149 360.593C206.48 360.406 206.768 360.571 206.789 360.967L206.803 361.211C206.825 361.607 206.581 362.082 206.25 362.269L195.689 368.411C195.359 368.598 195.071 368.432 195.05 368.037L195.035 367.792C195.014 367.397 195.258 366.922 195.589 366.735Z" fill="#E0E0E0"/>
<path d="M184.935 381.494L206.652 368.986C206.983 368.799 207.271 368.965 207.292 369.36L207.307 369.605C207.328 370 207.084 370.475 206.753 370.662L185.035 383.169C184.705 383.356 184.417 383.191 184.396 382.795L184.381 382.551C184.36 382.155 184.604 381.681 184.935 381.494Z" fill="#E0E0E0"/>
<path d="M184.683 377.3L206.401 364.793C206.731 364.606 207.019 364.771 207.041 365.167L207.055 365.411C207.077 365.807 206.832 366.282 206.501 366.469L184.784 378.976C184.453 379.163 184.165 378.998 184.144 378.602L184.129 378.358C184.108 377.962 184.352 377.487 184.683 377.3Z" fill="#E0E0E0"/>
<path d="M185.193 385.716L206.911 373.208C207.242 373.021 207.529 373.187 207.551 373.582L207.565 373.827C207.587 374.222 207.342 374.697 207.012 374.884L185.294 387.391C184.963 387.578 184.676 387.413 184.654 387.017L184.64 386.773C184.618 386.377 184.862 385.903 185.193 385.716Z" fill="#E0E0E0"/>
<path d="M185.452 389.908L207.17 377.401C207.501 377.214 207.788 377.38 207.81 377.775L207.824 378.02C207.846 378.415 207.601 378.89 207.271 379.077L185.553 391.584C185.222 391.771 184.935 391.606 184.913 391.21L184.899 390.966C184.877 390.57 185.122 390.095 185.452 389.908Z" fill="#E0E0E0"/>
<path d="M185.704 394.102L207.422 381.594C207.752 381.407 208.04 381.573 208.062 381.968L208.076 382.213C208.097 382.609 207.853 383.083 207.522 383.27L185.805 395.778C185.474 395.965 185.186 395.799 185.165 395.404L185.15 395.159C185.129 394.763 185.373 394.289 185.704 394.102Z" fill="#E0E0E0"/>
<path d="M185.963 398.295L207.681 385.787C208.011 385.6 208.299 385.766 208.32 386.161L208.335 386.406C208.356 386.801 208.112 387.276 207.781 387.463L186.063 399.97C185.733 400.157 185.445 399.992 185.424 399.596L185.409 399.352C185.388 398.956 185.632 398.482 185.963 398.295Z" fill="#E0E0E0"/>
<path d="M186.214 402.488L207.932 389.98C208.262 389.793 208.55 389.959 208.572 390.354L208.586 390.599C208.608 390.995 208.363 391.469 208.032 391.656L186.315 404.164C185.984 404.351 185.696 404.185 185.675 403.79L185.661 403.545C185.639 403.149 185.883 402.675 186.214 402.488Z" fill="#E0E0E0"/>
<path d="M183.44 364.347L192.21 359.32L192.85 369.849L184.079 374.877L183.44 364.347Z" fill="#2DB1FF"/>
<path d="M184.87 365.434L185.064 368.591L185.337 368.426L185.28 367.455C185.244 366.922 185.639 366.246 186.157 365.952L187.451 365.211L187.738 369.907C187.774 370.526 187.444 371.238 186.991 371.497L186.178 371.964L186.2 372.302L190.585 369.792L190.564 369.454C190.564 369.454 190.197 369.663 189.751 369.922C189.298 370.181 188.903 369.886 188.867 369.267L188.579 364.571L189.873 363.83C190.391 363.535 190.837 363.729 190.866 364.261L190.923 365.232L191.196 365.081L191.002 361.924L184.863 365.441L184.87 365.434Z" fill="#FAFAFA"/>
<path d="M194.079 419.238C193.705 419.015 193.374 418.476 193.346 418.03L190.412 369.878C190.384 369.432 190.664 368.893 191.038 368.677L220.994 351.473C221.368 351.257 221.979 351.264 222.353 351.48C222.727 351.703 223.057 352.243 223.086 352.688L226.019 400.841C226.048 401.287 225.768 401.826 225.394 402.042L195.437 419.246C195.064 419.461 194.453 419.454 194.079 419.231V419.238Z" fill="#F0F0F0"/>
<path d="M195.135 419.159C194.92 419.159 194.891 418.893 194.884 418.814L191.951 370.662C191.929 370.281 192.173 369.806 192.49 369.626L222.446 352.422C222.518 352.379 222.59 352.357 222.654 352.357C222.87 352.357 222.899 352.624 222.906 352.703L225.839 400.855C225.861 401.236 225.616 401.711 225.3 401.891L195.344 419.094C195.272 419.138 195.2 419.159 195.135 419.159V419.159Z" fill="#FAFAFA"/>
<path d="M222.655 352.537C222.698 352.537 222.727 352.645 222.727 352.717L225.66 400.869C225.681 401.186 225.473 401.589 225.214 401.74L195.258 418.944C195.193 418.98 195.15 418.987 195.143 418.987C195.1 418.987 195.071 418.879 195.071 418.807L192.138 370.655C192.116 370.338 192.325 369.935 192.584 369.784L222.54 352.58C222.604 352.545 222.64 352.537 222.655 352.537ZM222.655 352.178C222.561 352.178 222.461 352.206 222.36 352.264L192.404 369.468C192.03 369.684 191.75 370.216 191.778 370.669L194.711 418.821C194.733 419.145 194.906 419.332 195.143 419.332C195.236 419.332 195.337 419.303 195.438 419.246L225.394 402.042C225.768 401.826 226.048 401.294 226.019 400.841L223.086 352.688C223.065 352.365 222.892 352.178 222.655 352.178V352.178Z" fill="#EBEBEB"/>
<path d="M195.344 419.289C194.97 419.454 194.424 419.44 194.079 419.231C193.705 419.008 193.374 418.469 193.353 418.023L190.419 369.871C190.405 369.648 190.47 369.403 190.578 369.18L191.944 369.979C191.828 370.195 191.764 370.439 191.778 370.662L194.711 418.821C194.733 419.231 195.013 419.426 195.351 419.289H195.344Z" fill="#E0E0E0"/>
<path d="M207.53 365.548L218.09 359.406C218.421 359.219 218.709 359.385 218.73 359.78L218.745 360.025C218.766 360.42 218.522 360.895 218.191 361.082L207.631 367.224C207.3 367.411 207.012 367.246 206.991 366.85L206.976 366.606C206.955 366.21 207.199 365.735 207.53 365.548Z" fill="#E0E0E0"/>
<path d="M207.781 369.741L218.342 363.599C218.673 363.412 218.96 363.578 218.982 363.973L218.996 364.218C219.018 364.613 218.773 365.088 218.443 365.275L207.882 371.417C207.551 371.604 207.264 371.439 207.242 371.043L207.228 370.799C207.206 370.403 207.451 369.928 207.781 369.741Z" fill="#E0E0E0"/>
<path d="M208.041 373.934L218.601 367.792C218.932 367.605 219.22 367.771 219.241 368.166L219.255 368.411C219.277 368.806 219.033 369.281 218.702 369.468L208.141 375.61C207.811 375.797 207.523 375.632 207.502 375.236L207.487 374.992C207.466 374.596 207.71 374.121 208.041 373.934Z" fill="#E0E0E0"/>
<path d="M197.386 388.693L219.104 376.186C219.434 375.999 219.722 376.164 219.743 376.56L219.758 376.804C219.779 377.2 219.535 377.674 219.204 377.861L197.487 390.369C197.156 390.556 196.868 390.39 196.847 389.995L196.832 389.75C196.811 389.355 197.055 388.88 197.386 388.693Z" fill="#E0E0E0"/>
<path d="M197.134 384.5L218.852 371.993C219.183 371.806 219.47 371.971 219.492 372.367L219.506 372.611C219.528 373.007 219.284 373.481 218.953 373.668L197.235 386.176C196.904 386.363 196.617 386.197 196.595 385.802L196.581 385.557C196.559 385.162 196.804 384.687 197.134 384.5Z" fill="#E0E0E0"/>
<path d="M197.645 392.915L219.362 380.407C219.693 380.22 219.981 380.386 220.002 380.781L220.017 381.026C220.038 381.422 219.794 381.896 219.463 382.083L197.745 394.591C197.415 394.778 197.127 394.612 197.106 394.217L197.091 393.972C197.07 393.576 197.314 393.102 197.645 392.915Z" fill="#E0E0E0"/>
<path d="M197.904 397.108L219.622 384.601C219.952 384.414 220.24 384.579 220.262 384.975L220.276 385.219C220.297 385.615 220.053 386.089 219.722 386.276L198.005 398.784C197.674 398.971 197.386 398.805 197.365 398.41L197.35 398.165C197.329 397.77 197.573 397.295 197.904 397.108Z" fill="#E0E0E0"/>
<path d="M198.156 401.301L219.874 388.794C220.204 388.607 220.492 388.772 220.513 389.168L220.528 389.412C220.549 389.808 220.305 390.282 219.974 390.469L198.256 402.977C197.926 403.164 197.638 402.998 197.617 402.603L197.602 402.358C197.581 401.963 197.825 401.488 198.156 401.301Z" fill="#E0E0E0"/>
<path d="M198.414 405.494L220.132 392.987C220.462 392.8 220.75 392.965 220.771 393.361L220.786 393.605C220.807 394.001 220.563 394.476 220.232 394.663L198.515 407.17C198.184 407.357 197.896 407.191 197.875 406.796L197.86 406.551C197.839 406.156 198.083 405.681 198.414 405.494Z" fill="#E0E0E0"/>
<path d="M198.665 409.687L220.383 397.18C220.714 396.993 221.001 397.158 221.023 397.554L221.037 397.798C221.059 398.194 220.814 398.669 220.484 398.856L198.766 411.363C198.435 411.55 198.148 411.385 198.126 410.989L198.112 410.745C198.09 410.349 198.335 409.874 198.665 409.687Z" fill="#E0E0E0"/>
<path d="M195.891 371.547L204.661 366.519L205.301 377.049L196.53 382.069L195.891 371.547Z" fill="#2DB1FF"/>
<path d="M197.314 372.633L197.508 375.79L197.781 375.625L197.724 374.654C197.688 374.121 198.083 373.445 198.601 373.15L199.895 372.41L200.182 377.106C200.218 377.725 199.888 378.437 199.435 378.696L198.622 379.163L198.644 379.501L203.029 376.991L203.008 376.653C203.008 376.653 202.641 376.862 202.195 377.121C201.742 377.38 201.347 377.085 201.311 376.466L201.023 371.77L202.317 371.029C202.835 370.734 203.281 370.928 203.31 371.46L203.367 372.431L203.64 372.28L203.446 369.123L197.307 372.64L197.314 372.633Z" fill="#FAFAFA"/>
<path d="M200.168 401.297V428.647L160.823 405.877V378.527L200.168 401.297Z" fill="#1DA4F4"/>
<path d="M235.114 408.472V381.122L200.168 401.297V428.646L235.114 408.472Z" fill="#0991E1"/>
<path opacity="0.7" d="M235.114 381.122L200.168 401.297V428.646L200.823 401.85L235.114 381.122Z" fill="white"/>
<path d="M200.168 401.296L203.447 388.053L238.068 368.058L235.114 381.122L200.168 401.296Z" fill="#0078BB"/>
<path d="M160.823 378.527L152.599 367.174L191.951 389.944L200.168 401.297L160.823 378.527Z" fill="#0078BB" fill-opacity="0.94"/>
<path opacity="0.7" d="M152.599 367.174L191.951 389.944L200.168 401.297L191.513 390.34L152.599 367.174Z" fill="white"/>
<path d="M250.166 25.2629L248.402 25.941V22.0571C248.402 18.9747 245.949 18.2406 243.283 19.7762C240.617 21.3174 238.456 25.0611 238.456 28.1435V28.7095C237.851 28.4686 237.072 28.5638 236.216 29.057C234.295 30.1667 232.743 32.8624 232.743 35.0761V35.3339L230.285 36.7518C229.019 37.4804 228 39.257 228 40.7141C228 42.1713 229.025 42.7653 230.285 42.0368L250.166 30.5478C251.431 29.8192 252.451 28.0426 252.451 26.5855C252.451 25.1283 251.426 24.5343 250.166 25.2629V25.2629Z" fill="white"/>
</svg>
