<svg width="520" height="444" viewBox="0 0 520 444" fill="none" xmlns="http://www.w3.org/2000/svg">
<path d="M260 443.875C116.406 443.875 0 381.195 0 303.875C0 226.556 116.406 163.875 260 163.875C403.594 163.875 520 226.556 520 303.875C520 381.195 403.594 443.875 260 443.875Z" fill="#0082CB"/>
<path d="M200.689 399.725L349.692 311.954C355.436 308.574 355.436 300.11 349.692 296.731L334.995 287.275C329.829 284.237 323.477 284.247 318.311 287.275L169.308 375.046C163.564 378.426 163.564 386.89 169.308 390.269L184.005 399.725C189.171 402.763 195.523 402.753 200.689 399.725V399.725Z" fill="#B9E5FF"/>
<path d="M439 255C425.193 255 414 248.732 414 241C414 233.268 425.193 227 439 227C452.807 227 464 233.268 464 241C464 248.732 452.807 255 439 255Z" fill="#B9E5FF"/>
<path d="M103.487 313.026L87.1846 322.426C87.1846 322.426 95.5047 296.189 91.0712 269.729C89.3955 259.745 85.7999 254.771 84.5431 252.097C83.2747 249.423 73.5466 232.9 82.2158 225.334C90.8734 217.767 111.051 232.982 109.957 273.687C109.399 294.577 103.476 313.015 103.476 313.015L103.487 313.026Z" fill="#2DB1FF"/>
<path d="M95.7678 314.799C95.9975 314.799 96.2157 314.664 96.3076 314.429C96.365 314.272 102.509 297.853 102.302 271.48C102.107 244.972 87.936 230.786 87.7867 230.652C87.557 230.427 87.2011 230.427 86.9714 230.652C86.7417 230.865 86.7417 231.224 86.9714 231.449C87.1092 231.583 100.958 245.477 101.154 271.491C101.349 297.651 95.2855 313.879 95.2281 314.047C95.1133 314.339 95.2741 314.664 95.5611 314.765C95.63 314.788 95.6989 314.799 95.7563 314.799H95.7678Z" fill="white"/>
<path d="M96.6916 317.043L74.4193 329.841C69.5902 332.609 63.2832 331.418 60.1995 326.77C58.9195 324.855 58.1398 322.321 58.4424 319.005C59.513 307.398 64.5399 304.724 58.3726 299.552C52.2169 294.379 50.611 294.017 50.9718 289.019C51.3325 284.021 54.7071 281.873 56.3129 279.911C57.9188 277.95 62.3639 273.839 59.3384 267.767C56.3129 261.695 52.1936 255.822 58.454 253.125C62.1894 251.513 68.4149 253.662 72.511 258.122C76.607 262.583 79.9816 265.794 83.8915 266.868C87.8013 267.943 95.9934 268.118 95.6327 274.902C95.272 281.686 93.4916 284.01 95.0974 287.046C98.1229 292.756 111.284 295.967 96.7033 317.043H96.6916Z" fill="#2DB1FF"/>
<path d="M85.6836 323.945C85.9745 323.945 86.2305 323.723 86.2654 323.419C86.3003 323.022 89.6866 282.947 62.236 256.278C62.0033 256.056 61.6426 256.056 61.4099 256.289C61.1888 256.523 61.1888 256.896 61.4215 257.118C88.488 283.403 85.1367 322.917 85.1018 323.314C85.0669 323.629 85.3112 323.921 85.6254 323.945C85.6487 323.945 85.6603 323.945 85.6836 323.945V323.945Z" fill="white"/>
<path d="M81.2732 289.451C81.5757 289.451 81.8201 289.218 81.855 288.914C82.7627 278.276 90.1984 272.928 90.2682 272.882C90.5358 272.695 90.594 272.333 90.4078 272.064C90.2216 271.796 89.8609 271.737 89.5933 271.924C89.2675 272.158 81.6456 277.646 80.6914 288.821C80.6681 289.147 80.9008 289.428 81.215 289.451C81.2266 289.451 81.2499 289.451 81.2615 289.451H81.2732Z" fill="white"/>
<path d="M83.1699 296.34C83.3095 296.34 83.4492 296.294 83.5539 296.2C83.7982 295.99 83.8215 295.617 83.612 295.383C83.3328 295.056 76.4556 287.443 60.3274 289.463C60.0132 289.498 59.7805 289.79 59.827 290.117C59.8619 290.432 60.1645 290.654 60.4787 290.619C75.9552 288.669 82.6695 296.072 82.7393 296.142C82.8557 296.27 83.0186 296.34 83.1815 296.34H83.1699Z" fill="white"/>
<path d="M200.454 387.859L323.303 316.689C331.973 311.667 339 298.193 339 286.597V22.6396C339 11.0431 331.973 5.7165 323.303 10.7382L200.454 81.9088C191.785 86.9304 184.758 100.404 184.758 112.001V375.958C184.758 387.554 191.785 392.881 200.454 387.859Z" fill="#048AD3"/>
<path d="M186.305 73.6281L309.154 2.45755C312.858 0.313569 316.267 0.0658199 318.944 1.38079C319.277 1.54278 319.59 1.73336 319.903 1.94299L333.663 9.97577C330.9 8.31776 327.272 8.4321 323.294 10.7381L200.445 81.9087C191.775 86.9303 184.748 100.404 184.748 112.001V375.958C184.748 382.085 186.714 386.468 189.847 388.488L176.268 380.551C172.812 378.702 170.609 374.176 170.609 367.687V103.72C170.609 92.1235 177.636 78.6498 186.305 73.6281Z" fill="#0078BB"/>
<path d="M184.758 111.991V375.958C184.758 382.085 186.723 386.468 189.857 388.488L176.278 380.551C172.821 378.702 170.618 374.176 170.618 367.687V103.701L184.767 111.943C184.767 111.943 184.767 111.981 184.767 112.001L184.758 111.991Z" fill="#0269A4"/>
<path d="M170.609 124.207L184.758 132.402V138.805L170.609 130.61V124.207Z" fill="#0082CB"/>
<path d="M176.809 166.801C178.072 167.535 179.098 166.753 179.098 165.067V151.298C179.098 149.601 178.072 147.638 176.809 146.905C175.546 146.171 174.521 146.952 174.521 148.639V162.408C174.521 164.104 175.546 166.067 176.809 166.801Z" fill="#0082CB"/>
<path d="M179.098 165.057V151.288C179.098 149.592 178.072 147.629 176.809 146.895C176.259 146.571 175.755 146.562 175.366 146.762V146.743L177.075 145.857V145.876C177.484 145.647 177.996 145.657 178.566 145.99C179.829 146.724 180.855 148.687 180.855 150.383V164.152C180.855 165.067 180.551 165.696 180.076 165.991L178.281 166.944V166.925C178.775 166.648 179.107 166.01 179.107 165.067L179.098 165.057Z" fill="#0082CB"/>
<path d="M176.809 200.123C178.072 200.857 179.098 200.075 179.098 198.389V184.62C179.098 182.923 178.072 180.96 176.809 180.227C175.546 179.493 174.521 180.274 174.521 181.961V195.73C174.521 197.426 175.546 199.389 176.809 200.123Z" fill="#0082CB"/>
<path d="M179.098 198.389V184.62C179.098 182.923 178.072 180.961 176.809 180.227C176.259 179.903 175.755 179.893 175.366 180.093V180.074L177.075 179.188V179.207C177.484 178.979 177.996 178.988 178.566 179.322C179.829 180.055 180.855 182.018 180.855 183.714V197.483C180.855 198.398 180.551 199.027 180.076 199.323L178.281 200.275V200.256C178.775 199.98 179.107 199.342 179.107 198.398L179.098 198.389Z" fill="#0082CB"/>
<path d="M204.718 89.322L325.459 19.3616C327.681 18.0752 330.454 19.6856 330.454 22.2583V286.606C330.454 295.43 324.224 306.264 316.599 310.676L198.802 378.921C196.362 380.341 193.304 378.569 193.304 375.739V109.18C193.304 101.9 198.441 92.962 204.728 89.322H204.718Z" fill="#0082CB"/>
<path opacity="0.9" d="M204.718 89.322L325.459 19.3616C327.681 18.0752 330.454 19.6856 330.454 22.2583V286.606C330.454 295.43 324.224 306.264 316.599 310.676L198.802 378.921C196.362 380.341 193.304 378.569 193.304 375.739V109.18C193.304 101.9 198.441 92.962 204.728 89.322H204.718Z" fill="white"/>
<path d="M289.355 37.6282L287.485 45.5371L247.469 68.6825L240.556 64.9949L289.355 37.6282Z" fill="#005A8C"/>
<path d="M277.59 45.2705C277.59 46.5855 278.511 47.1096 279.641 46.4616C280.771 45.8137 281.692 44.2128 281.692 42.8979C281.692 41.5829 280.771 41.0588 279.641 41.7068C278.511 42.3642 277.59 43.9556 277.59 45.2705Z" fill="white"/>
<path d="M250.631 61.9838C250.84 61.9838 251.058 61.9267 251.258 61.8219L271.693 50.3587C272.31 50.0157 272.528 49.2248 272.187 48.6054C271.845 47.986 271.057 47.7669 270.439 48.1099L250.004 59.5731C249.387 59.9161 249.168 60.707 249.51 61.3264C249.748 61.7456 250.185 61.9838 250.631 61.9838Z" fill="white"/>
<path d="M226.554 122.384C225.005 123.282 223.72 123.432 222.698 122.833C221.676 122.234 221.164 121.051 221.161 119.283C221.157 117.515 221.665 115.74 222.682 113.959C223.7 112.178 224.983 110.838 226.532 109.94C227.483 109.388 228.361 109.14 229.166 109.195C229.971 109.251 230.6 109.589 231.052 110.212L228.496 113.396C228.329 113.107 228.069 112.952 227.715 112.93C227.362 112.908 226.969 113.022 226.538 113.272C225.813 113.692 225.225 114.305 224.775 115.111C224.325 115.916 224.1 116.739 224.102 117.577C224.103 118.416 224.33 118.976 224.782 119.259C225.234 119.541 225.823 119.472 226.548 119.052C226.99 118.796 227.382 118.455 227.724 118.03C228.077 117.598 228.336 117.136 228.502 116.643L231.064 116.859C230.615 118.016 229.988 119.088 229.185 120.075C228.382 121.063 227.505 121.832 226.554 122.384ZM240.46 112.534C239.413 114.333 238.125 115.675 236.595 116.562C235.066 117.449 233.77 117.604 232.709 117.028C231.658 116.435 231.131 115.26 231.128 113.504C231.125 111.747 231.647 109.969 232.694 108.171C233.75 106.356 235.044 105.005 236.573 104.118C238.103 103.231 239.393 103.084 240.444 103.677C241.505 104.254 242.037 105.42 242.04 107.177C242.043 108.933 241.517 110.719 240.46 112.534ZM234.779 113.463C235.26 113.728 235.864 113.651 236.589 113.23C237.315 112.809 237.912 112.191 238.382 111.374C238.861 110.54 239.1 109.709 239.099 108.882C239.097 108.055 238.856 107.508 238.375 107.243C237.903 106.96 237.304 107.029 236.579 107.45C235.853 107.871 235.251 108.498 234.771 109.332C234.302 110.149 234.068 110.971 234.069 111.798C234.071 112.625 234.307 113.18 234.779 113.463ZM248.721 97.3468L251.663 95.6414L251.684 107.541L249.331 108.906L246.085 105.342L246.095 110.782L243.154 112.487L243.133 100.587L245.486 99.2228L248.731 102.787L248.721 97.3468ZM260.335 90.6131L260.341 93.9111L257.914 95.3181L257.929 103.92L254.988 105.625L254.973 97.0235L252.546 98.4304L252.54 95.1325L260.335 90.6131ZM266.459 98.9744L266.104 97.6491L263.133 99.3715L262.783 101.106L259.621 102.939L262.879 89.138L266.321 87.1426L269.621 97.1411L266.459 98.9744ZM263.761 96.2849L265.467 95.2957L264.607 92.1353L263.761 96.2849ZM274.854 94.3795C273.305 95.2777 272.019 95.4274 270.998 94.8286C269.976 94.2298 269.463 93.0464 269.46 91.2784C269.457 89.5104 269.964 87.7358 270.982 85.9546C272 84.1734 273.283 82.8337 274.832 81.9355C275.783 81.3841 276.661 81.136 277.466 81.1912C278.271 81.2464 278.9 81.5852 279.352 82.2077L276.796 85.3914C276.629 85.1027 276.368 84.9474 276.015 84.9253C275.662 84.9033 275.269 85.0174 274.838 85.2675C274.112 85.6882 273.525 86.3012 273.075 87.1067C272.624 87.9122 272.4 88.7343 272.402 89.573C272.403 90.4116 272.63 90.9722 273.082 91.2547C273.534 91.5372 274.123 91.4682 274.848 91.0475C275.289 90.7917 275.681 90.451 276.024 90.0253C276.377 89.594 276.636 89.1317 276.802 88.6384L279.364 88.8547C278.914 90.0115 278.288 91.0837 277.485 92.0711C276.682 93.0586 275.805 93.8281 274.854 94.3795ZM287.436 74.8998L287.442 78.1978L285.016 79.6047L285.031 88.2067L282.089 89.9121L282.074 81.3101L279.648 82.7171L279.642 79.4191L287.436 74.8998ZM298.354 79.5803C297.58 80.8113 296.571 81.7879 295.326 82.5098C294.081 83.2318 293.07 83.4263 292.294 83.0934C291.518 82.7605 291.129 81.9594 291.127 80.69L291.113 72.768L294.054 71.0626L294.068 78.6106C294.069 79.4946 294.487 79.695 295.32 79.2118C296.154 78.7286 296.569 78.045 296.568 77.161L296.555 69.613L299.496 67.9076L299.51 75.8296C299.512 77.099 299.127 78.3492 298.354 79.5803ZM304.553 77.16C303.435 77.8081 302.503 78.0818 301.757 77.9812C301.011 77.8692 300.51 77.4281 300.253 76.6579L302.765 73.5168C303.11 74.3265 303.729 74.4727 304.621 73.9554C305.288 73.5689 305.621 73.1716 305.62 72.7636C305.62 72.6502 305.595 72.5625 305.546 72.5002C305.497 72.438 305.403 72.4126 305.266 72.4242C305.129 72.4358 305.006 72.4559 304.898 72.4844C304.8 72.4959 304.623 72.5359 304.368 72.6044C304.113 72.6728 303.922 72.7214 303.794 72.7499C301.744 73.224 300.717 72.5431 300.714 70.7071C300.712 69.6191 301.049 68.522 301.724 67.4157C302.409 66.3038 303.305 65.4267 304.413 64.7843C305.286 64.2783 306.066 64.0644 306.753 64.1425C307.45 64.2149 307.961 64.6049 308.286 65.3127L305.848 68.3772C305.562 67.7033 305.09 67.5569 304.434 67.9377C304.179 68.0856 303.983 68.2616 303.846 68.4658C303.718 68.6531 303.655 68.8373 303.655 69.0187C303.656 69.268 303.769 69.3953 303.994 69.4006C304.23 69.4001 304.676 69.3171 305.334 69.1516C305.824 69.0374 306.227 68.9686 306.541 68.9454C306.855 68.9108 307.183 68.9357 307.527 69.0201C307.871 69.0931 308.126 69.3023 308.294 69.6477C308.471 69.976 308.56 70.4348 308.561 71.0242C308.563 72.2368 308.202 73.3878 307.478 74.4772C306.763 75.5495 305.788 76.4438 304.553 77.16Z" fill="#02679F"/>
<path d="M323.568 117.37C320.182 113.201 318.147 107.885 318.147 102.098C318.147 88.7447 328.941 77.9138 342.248 77.9138C355.554 77.9138 366.348 88.7447 366.348 102.098C366.348 115.45 355.554 126.281 342.248 126.281C337.728 126.281 333.499 125.03 329.879 122.856L318.147 127.966L323.568 117.37V117.37Z" fill="#0078BB"/>
<path d="M332.308 100.808C332.308 100.432 332.045 100.234 331.567 100.234C330.742 100.234 329.663 100.78 328.604 101.636L327.272 99.0393C328.819 97.9665 330.414 97.3267 332.12 97.3267C334.371 97.3267 336.068 98.5123 336.068 100.281C336.068 101.542 335.149 102.756 333.93 103.97L332.261 105.636H336.228V108.402H327.703L327.685 106.134L331.483 102.201C331.933 101.731 332.308 101.194 332.308 100.818V100.808Z" fill="white"/>
<path d="M343.167 97.4773L340.579 103.716H341.629V101.618H344.902V103.716H346.14V106.285H344.902V108.402H341.629V106.285H336.997V103.951L339.782 97.4867H343.158L343.167 97.4773Z" fill="white"/>
<path d="M356.211 102.973V108.402H352.723V103.989C352.723 103.274 352.319 102.822 351.719 102.822C351.035 102.822 350.603 103.368 350.603 104.186V108.402H347.115V96.8655H350.603V101.109C351.175 100.234 352.057 99.7449 353.173 99.7449C354.954 99.7449 356.211 101.025 356.211 102.982V102.973Z" fill="white"/>
<path d="M211.523 207.41V324.33C211.523 330.136 217.787 333.768 222.804 330.86L285.559 294.5L296.671 288.064C299.015 286.709 301.097 284.996 302.851 283.02C306.921 278.456 309.274 272.481 309.274 266.167V149.238C309.274 143.432 303.02 139.809 297.993 142.707L224.126 185.513C216.324 190.03 211.523 198.377 211.523 207.41V207.41Z" fill="#0082CB"/>
<path opacity="0.5" d="M211.523 207.41V324.33C211.523 330.136 217.787 333.768 222.804 330.86L285.559 294.5L296.671 288.064C299.015 286.709 301.097 284.996 302.851 283.02C306.921 278.456 309.274 272.481 309.274 266.167V149.238C309.274 143.432 303.02 139.809 297.993 142.707L224.126 185.513C216.324 190.03 211.523 198.377 211.523 207.41V207.41Z" fill="white"/>
<path d="M247.673 276.583C247.673 276.583 235.923 296.137 244.419 318.185L285.568 294.49L247.683 276.583H247.673Z" fill="#263238"/>
<path d="M228.941 188.732C228.051 181.485 233.185 174.886 240.407 173.994C247.629 173.102 254.205 178.253 255.094 185.5C255.983 192.747 250.85 199.345 243.628 200.238C236.406 201.13 229.83 195.979 228.941 188.732Z" fill="#263238"/>
<path d="M241.954 150.028C241.954 150.028 237.912 143.413 236.665 143.921C235.427 144.429 237.471 150.677 237.471 150.677C237.471 150.677 231.357 151.957 232.501 153.481C233.645 155.015 241.11 154.658 241.11 154.658L241.954 150.019V150.028Z" fill="#263238"/>
<path d="M239.112 167.004C241.953 188.214 259.743 188.214 259.743 188.214L297.084 171.728C297.084 171.728 299.897 169.253 300.76 163.56C301.06 161.612 301.126 159.278 300.76 156.54C300.76 156.521 300.76 156.493 300.76 156.474C299.569 147.553 292.92 137.964 278.441 135.019C275.553 134.417 272.346 134.097 268.811 134.097C267.198 134.097 265.641 134.172 264.15 134.332C252.85 135.433 245.01 140.712 241.25 148.899C240.425 150.696 239.806 152.625 239.393 154.686C238.624 158.403 238.531 162.525 239.121 166.994L239.112 167.004Z" fill="#263238"/>
<path d="M328.733 208.031C328.733 208.031 341.984 207.58 347.094 220.537C347.094 220.537 341.458 224.348 334.078 220.556C326.708 216.764 328.733 208.041 328.733 208.041V208.031Z" fill="#0082CB"/>
<path opacity="0.5" d="M328.733 208.031C328.733 208.031 341.984 207.58 347.094 220.537C347.094 220.537 341.458 224.348 334.078 220.556C326.708 216.764 328.733 208.041 328.733 208.041V208.031Z" fill="black"/>
<path d="M329.108 214.27C329.108 214.27 332.85 197.925 334.828 197.718C336.91 197.502 337.192 202.705 337.032 205.632L341.758 195.516C342.377 194.18 343.99 193.662 345.284 194.378C349.983 196.965 358.197 204.832 340.858 224.283L329.118 214.27H329.108Z" fill="#FFA8A7"/>
<path d="M281.095 202.969L283.89 202.602C289.666 201.83 295.405 204.248 298.903 208.925L315.642 231.283L328.733 208.031C328.733 208.031 330.318 223.84 347.094 220.537L329.071 250.96C324.148 259.269 312.482 260.134 306.396 252.625L290.979 233.608L281.095 202.969V202.969Z" fill="#0082CB"/>
<path d="M245.366 255.147C249.118 264.689 249.53 266.552 247.195 271.323C244.879 276.085 243.425 282.276 243.425 282.276C243.425 282.276 260.811 301.83 285.559 294.5L296.671 288.064C299.015 286.708 301.097 284.996 302.851 283.02L299.531 257.735C299.362 256.399 299.494 255.034 299.925 253.764L303.47 243.319C307.005 232.893 304.276 221.356 296.418 213.659L284.471 201.943L253.094 205.914L248.433 207.26C242.094 209.085 238.052 215.324 238.952 221.883C240.5 233.034 243.003 249.134 245.366 255.138V255.147Z" fill="#0082CB"/>
<path opacity="0.5" d="M245.366 255.147C249.118 264.689 249.53 266.552 247.195 271.323C244.879 276.085 243.425 282.276 243.425 282.276C243.425 282.276 260.811 301.83 285.559 294.5L296.671 288.064C299.015 286.708 301.097 284.996 302.851 283.02L299.531 257.735C299.362 256.399 299.494 255.034 299.925 253.764L303.47 243.319C307.005 232.893 304.276 221.356 296.418 213.659L284.471 201.943L253.094 205.914L248.433 207.26C242.094 209.085 238.052 215.324 238.952 221.883C240.5 233.034 243.003 249.134 245.366 255.138V255.147Z" fill="#044C74"/>
<path d="M264.29 226.673L270.573 221.3C271.933 220.142 273.799 219.785 275.487 220.368L283.083 222.984L284.105 218.712C284.78 215.908 287.64 214.233 290.407 215.033L293.698 215.983L288.119 205.274C286.299 201.783 283.505 198.913 280.073 197.012L277.888 195.808L259.836 196.739C259.836 196.739 253.103 199.534 253.103 205.914L264.29 226.663" fill="#0082CB"/>
<path d="M259.752 204.728L277.85 218.881V173.826H259.752V204.728Z" fill="#FFA8A7"/>
<path d="M277.569 201.021L283.073 222.984L259.827 204.728L277.569 201.021Z" fill="#FFA8A7"/>
<path d="M277.85 197.756C270.883 195.055 263.606 189.644 259.742 180.479V173.826H277.85V197.756V197.756Z" fill="#F28F8F"/>
<path d="M273.949 140.43C280.814 140.43 295.415 144.269 297.103 162.299C298.791 180.328 297.159 194.312 287.894 195.657C278.629 197.003 257.098 190.265 254.219 166.929C251.34 143.592 267.263 140.439 273.959 140.439L273.949 140.43Z" fill="#FFA8A7"/>
<path d="M284.752 169.921V180.554L290.96 178.644L284.752 169.921Z" fill="#F28F8F"/>
<path d="M277.85 173.929C276.659 173.929 275.693 172.96 275.693 171.765C275.693 170.57 276.659 169.601 277.85 169.601C279.041 169.601 280.007 170.57 280.007 171.765C280.007 172.96 279.041 173.929 277.85 173.929Z" fill="#263238"/>
<path d="M289.891 170.25C289.891 171.445 290.857 172.414 292.048 172.414C293.239 172.414 294.204 171.445 294.204 170.25C294.204 169.055 293.239 168.086 292.048 168.086C290.857 168.086 289.891 169.055 289.891 170.25Z" fill="#263238"/>
<path d="M294.683 165.743L290.463 163.23C290.463 163.23 292.085 161.546 293.698 162.553C295.311 163.56 294.683 165.743 294.683 165.743Z" fill="#263238"/>
<path d="M287.669 184.864C287.669 184.864 284.246 185.174 281.854 183.302C281.854 183.302 281.461 186.369 284.021 186.962C286.581 187.546 287.669 184.864 287.669 184.864Z" fill="#F28F8F"/>
<path d="M291.354 146.556C291.354 146.556 288.775 171.445 255.044 172.226C255.044 172.226 244.851 147.487 264.994 139.451C285.137 131.415 291.354 146.556 291.354 146.556Z" fill="#263238"/>
<path d="M245.114 168.5H245.132L245.151 168.481L249.296 166.082C250.862 165.15 253.047 165.273 255.457 166.675C260.24 169.451 264.122 176.188 264.122 181.731C264.122 184.507 263.147 186.454 261.581 187.358L257.511 189.701C257.436 189.748 257.351 189.795 257.276 189.842L257.136 189.917C255.598 190.651 253.544 190.482 251.284 189.165C246.502 186.389 242.619 179.651 242.619 174.109C242.619 171.351 243.576 169.413 245.132 168.5H245.114Z" fill="#0082CB"/>
<path d="M245.144 182.675C241.762 176.797 241.762 170.443 245.144 168.484C248.526 166.525 254.009 169.701 257.391 175.579C260.773 181.457 260.773 187.811 257.391 189.77C254.009 191.729 248.526 188.553 245.144 182.675Z" fill="#0082CB"/>
<path opacity="0.5" d="M245.144 182.675C241.762 176.797 241.762 170.443 245.144 168.484C248.526 166.525 254.009 169.701 257.391 175.579C260.773 181.457 260.773 187.811 257.391 189.77C254.009 191.729 248.526 188.553 245.144 182.675Z" fill="black"/>
<path d="M243.454 173.723H243.472L246.314 172.067C247.392 171.436 248.874 171.511 250.524 172.471C253.797 174.372 256.451 178.983 256.451 182.775C256.451 184.676 255.785 186.012 254.707 186.624L251.922 188.233C251.865 188.271 251.818 188.299 251.762 188.327L251.668 188.384C250.609 188.892 249.211 188.769 247.664 187.875C244.391 185.975 241.738 181.364 241.738 177.571C241.738 175.689 242.394 174.363 243.454 173.732V173.723Z" fill="#0082CB"/>
<path d="M241.728 177.562C241.728 181.354 244.382 185.965 247.655 187.866C250.928 189.767 253.581 188.223 253.581 184.431C253.581 180.639 250.928 176.028 247.655 174.127C244.382 172.226 241.728 173.77 241.728 177.562Z" fill="#0082CB"/>
<path opacity="0.3" d="M241.728 177.562C241.728 181.354 244.382 185.965 247.655 187.866C250.928 189.767 253.581 188.223 253.581 184.431C253.581 180.639 250.928 176.028 247.655 174.127C244.382 172.226 241.728 173.77 241.728 177.562Z" fill="black"/>
<path d="M257.989 135.565C260.661 133.467 263.972 132.356 267.366 132.309C267.638 132.309 267.91 132.309 268.182 132.309C271.942 132.309 275.356 132.657 278.432 133.288C277.813 133.26 277.194 133.269 276.584 133.288H278.432V135.029H276.688C272.955 135.16 269.251 136.186 265.913 138.115C258.748 142.265 254.303 150 254.303 158.3V165.705C254.303 166.938 253.253 167.917 252.006 167.785C251.931 167.785 251.865 167.757 251.79 167.738L249.943 167.164C250.065 167.201 250.196 167.23 250.327 167.239C249.174 167.117 248.339 166.063 248.339 164.896V158.027C248.339 145.596 253.694 138.915 257.979 135.556L257.989 135.565Z" fill="#0082CB"/>
<path d="M269.795 195.13C270.555 195.13 271.324 194.97 272.036 194.631L277.897 191.912C278.244 191.752 278.404 191.329 278.235 190.98C278.076 190.632 277.654 190.482 277.307 190.642L271.446 193.361C269.917 194.076 268.098 193.728 266.926 192.505L261.337 186.671C261.065 186.388 260.624 186.379 260.352 186.652C260.071 186.925 260.061 187.367 260.333 187.64L265.922 193.474C266.954 194.556 268.36 195.121 269.786 195.121L269.795 195.13Z" fill="#0082CB"/>
<path opacity="0.5" d="M269.795 195.13C270.555 195.13 271.324 194.97 272.036 194.631L277.897 191.912C278.244 191.752 278.404 191.329 278.235 190.98C278.076 190.632 277.654 190.482 277.307 190.642L271.446 193.361C269.917 194.076 268.098 193.728 266.926 192.505L261.337 186.671C261.065 186.388 260.624 186.379 260.352 186.652C260.071 186.925 260.061 187.367 260.333 187.64L265.922 193.474C266.954 194.556 268.36 195.121 269.786 195.121L269.795 195.13Z" fill="black"/>
<path d="M276.359 189.917C276.359 191.432 277.588 192.665 279.098 192.665C280.607 192.665 281.836 191.432 281.836 189.917C281.836 188.402 280.607 187.169 279.098 187.169C277.588 187.169 276.359 188.402 276.359 189.917Z" fill="#0082CB"/>
<path opacity="0.5" d="M276.359 189.917C276.359 191.432 277.588 192.665 279.098 192.665C280.607 192.665 281.836 191.432 281.836 189.917C281.836 188.402 280.607 187.169 279.098 187.169C277.588 187.169 276.359 188.402 276.359 189.917Z" fill="black"/>
<path d="M248.349 158.036V164.905C248.349 166.072 249.183 167.126 250.337 167.248C251.659 167.39 252.775 166.345 252.775 165.037V158.036C252.775 149.209 257.51 140.985 265.125 136.572C269.223 134.2 273.856 133.1 278.432 133.288C275.356 132.648 271.952 132.309 268.182 132.309C267.91 132.309 267.638 132.309 267.366 132.309C263.972 132.356 260.661 133.467 257.989 135.565C253.703 138.924 248.349 145.615 248.349 158.036V158.036Z" fill="#0082CB"/>
<path opacity="0.5" d="M248.349 158.036V164.905C248.349 166.072 249.183 167.126 250.337 167.248C251.659 167.39 252.775 166.345 252.775 165.037V158.036C252.775 149.209 257.51 140.985 265.125 136.572C269.223 134.2 273.856 133.1 278.432 133.288C275.356 132.648 271.952 132.309 268.182 132.309C267.91 132.309 267.638 132.309 267.366 132.309C263.972 132.356 260.661 133.467 257.989 135.565C253.703 138.924 248.349 145.615 248.349 158.036V158.036Z" fill="black"/>
<path d="M258.889 287.499C258.889 287.499 263.428 300.061 247.205 305.669C247.205 305.669 241.906 297.868 247.205 291.479C252.503 285.09 258.889 287.499 258.889 287.499Z" fill="#0082CB"/>
<path opacity="0.7" d="M258.889 287.499C258.889 287.499 263.428 300.061 247.205 305.669C247.205 305.669 241.906 297.868 247.205 291.479C252.503 285.09 258.889 287.499 258.889 287.499Z" fill="black"/>
<path d="M253.225 288.063C253.225 288.063 269.064 293.898 268.989 296.147C268.914 298.396 262.256 296.871 262.256 296.871L264.684 298.471C267.244 300.146 269.223 302.574 270.358 305.416C270.874 306.714 270.339 308.191 269.101 308.85L263.081 312.05C261.646 312.812 259.874 312.238 259.152 310.779C258.486 309.424 257.286 308.417 255.86 307.937C252.587 306.846 246.511 303.693 244.035 295.102L253.225 288.073V288.063Z" fill="#FFA8A7"/>
<path d="M248.442 207.269C248.442 207.269 256.873 211.993 252.4 226.258C247.927 240.533 239.496 262.703 239.496 262.703L258.889 287.499C258.889 287.499 252.4 287.932 248.471 293.738C244.541 299.544 247.205 305.669 247.205 305.669L223.142 274.654C218.622 268.82 217.337 261.094 219.728 254.112L230.081 223.887C232.641 216.406 238.549 210.553 246.032 208.069L248.442 207.269V207.269Z" fill="#0082CB"/>
<path d="M415.949 95.2006L446.619 77.4331C447.545 76.8991 448.393 76.8372 449.064 77.1622C449.149 77.2009 449.226 77.2474 449.303 77.3015L455.974 81.2249C455.974 81.2249 455.943 81.2095 455.935 81.2017C456.776 81.6815 457.308 82.7958 457.308 84.3822V118.602C457.308 121.496 455.557 124.862 453.39 126.116L422.72 143.883C421.672 144.487 420.723 144.487 420.021 143.999C420.037 144.015 420.052 144.03 420.075 144.038L413.451 140.138C412.587 139.674 412.04 138.544 412.04 136.926V102.707C412.04 99.8127 413.79 96.4465 415.957 95.1929L415.949 95.2006Z" fill="#0082CB"/>
<path d="M413.127 98.443C413.836 97.0424 414.839 95.8429 415.949 95.2006L446.619 77.4331C447.545 76.8991 448.393 76.8372 449.064 77.1622C449.149 77.2009 449.226 77.2474 449.303 77.3015L455.974 81.2249C455.279 80.8071 454.377 80.838 453.382 81.4184L422.713 99.1859C421.564 99.8514 420.538 101.113 419.821 102.575L413.127 98.443V98.443Z" fill="#0082CB"/>
<path d="M418.795 140.912C418.795 142.444 419.288 143.535 420.067 144.038L413.443 140.138C412.579 139.674 412.032 138.544 412.032 136.927V102.707C412.032 101.299 412.448 99.7743 413.127 98.4355L419.821 102.568C419.188 103.868 418.795 105.331 418.795 106.685V140.904V140.912Z" fill="#0082CB"/>
<path opacity="0.3" d="M413.127 98.443C413.836 97.0424 414.839 95.8429 415.949 95.2006L446.619 77.4331C447.545 76.8991 448.393 76.8372 449.064 77.1622C449.149 77.2009 449.226 77.2474 449.303 77.3015L455.974 81.2249C455.279 80.8071 454.377 80.838 453.382 81.4184L422.713 99.1859C421.564 99.8514 420.538 101.113 419.821 102.575L413.127 98.443V98.443Z" fill="black"/>
<path opacity="0.6" d="M418.795 140.912C418.795 142.444 419.288 143.535 420.067 144.038L413.443 140.138C412.579 139.674 412.032 138.544 412.032 136.927V102.707C412.032 101.299 412.448 99.7743 413.127 98.4355L419.821 102.568C419.188 103.868 418.795 105.331 418.795 106.685V140.904V140.912Z" fill="black"/>
<path d="M427.787 116.505C427.787 120.931 429.537 122.448 432.167 120.923C433.617 120.08 434.643 118.749 435.09 117.077C435.838 118.029 437.056 118.091 438.745 117.116C441.498 115.522 443.681 111.73 443.681 108C443.681 104.27 441.522 103.017 438.745 104.618C437.334 105.439 436.224 106.646 435.452 108.155V106.692L432.545 108.372V116.389C432.545 117.58 432.098 118.23 431.519 118.563C430.54 119.136 429.938 118.168 429.938 115.298C429.938 110.275 433.139 104.951 437.882 102.204C442.647 99.4414 445.825 101.361 445.825 106.538C445.825 111.715 442.709 117.356 437.966 120.103C436.625 120.885 435.105 121.442 433.756 121.45L433.069 124.119C434.373 124.135 436.278 123.454 437.959 122.471C444.136 118.896 448.208 111.684 448.208 105.145C448.208 98.6056 444.082 96.2454 437.874 99.8515C431.874 103.326 427.771 110.283 427.771 116.497L427.787 116.505ZM435.414 112.783C435.414 110.631 436.547 108.759 438.082 107.869C439.64 106.963 440.727 107.598 440.727 109.703C440.727 111.807 439.64 113.75 438.082 114.655C436.547 115.545 435.414 114.965 435.414 112.79V112.783Z" fill="#0082CB"/>
<g opacity="0.9">
<path opacity="0.9" d="M427.787 116.505C427.787 120.931 429.537 122.448 432.167 120.923C433.617 120.08 434.643 118.749 435.09 117.077C435.838 118.029 437.056 118.091 438.745 117.116C441.498 115.522 443.681 111.73 443.681 108C443.681 104.27 441.522 103.017 438.745 104.618C437.334 105.439 436.224 106.646 435.452 108.155V106.692L432.545 108.372V116.389C432.545 117.58 432.098 118.23 431.519 118.563C430.54 119.136 429.938 118.168 429.938 115.298C429.938 110.275 433.139 104.951 437.882 102.204C442.647 99.4414 445.825 101.361 445.825 106.538C445.825 111.715 442.709 117.356 437.966 120.103C436.625 120.885 435.105 121.442 433.756 121.45L433.069 124.119C434.373 124.135 436.278 123.454 437.959 122.471C444.136 118.896 448.208 111.684 448.208 105.145C448.208 98.6056 444.082 96.2454 437.874 99.8515C431.874 103.326 427.771 110.283 427.771 116.497L427.787 116.505ZM435.414 112.783C435.414 110.631 436.547 108.759 438.082 107.869C439.64 106.963 440.727 107.598 440.727 109.703C440.727 111.807 439.64 113.75 438.082 114.655C436.547 115.545 435.414 114.965 435.414 112.79V112.783Z" fill="white"/>
</g>
<path d="M415.949 156.157L446.619 138.389C447.545 137.855 448.393 137.793 449.064 138.118C449.149 138.157 449.226 138.203 449.303 138.258L455.974 142.181C455.974 142.181 455.943 142.166 455.935 142.158C456.776 142.638 457.308 143.752 457.308 145.338V179.558C457.308 182.452 455.557 185.818 453.39 187.072L422.72 204.839C421.672 205.443 420.723 205.443 420.021 204.955C420.037 204.971 420.052 204.986 420.075 204.994L413.451 201.094C412.587 200.63 412.04 199.5 412.04 197.882V163.663C412.04 160.769 413.79 157.403 415.957 156.149L415.949 156.157Z" fill="#0082CB"/>
<path d="M413.127 159.399C413.836 157.998 414.839 156.799 415.949 156.157L446.619 138.389C447.545 137.855 448.393 137.793 449.064 138.118C449.149 138.157 449.226 138.203 449.303 138.258L455.974 142.181C455.279 141.763 454.377 141.794 453.382 142.374L422.713 160.142C421.564 160.807 420.538 162.069 419.821 163.531L413.127 159.399V159.399Z" fill="#0082CB"/>
<path d="M418.795 201.876C418.795 203.408 419.288 204.499 420.067 205.002L413.443 201.102C412.579 200.637 412.032 199.508 412.032 197.89V163.671C412.032 162.262 412.448 160.738 413.127 159.399L419.821 163.532C419.188 164.832 418.795 166.294 418.795 167.648V201.868V201.876Z" fill="#0082CB"/>
<path opacity="0.3" d="M413.127 159.399C413.836 157.998 414.839 156.799 415.949 156.157L446.619 138.389C447.545 137.855 448.393 137.793 449.064 138.118C449.149 138.157 449.226 138.203 449.303 138.258L455.974 142.181C455.279 141.763 454.377 141.794 453.382 142.374L422.713 160.142C421.564 160.807 420.538 162.069 419.821 163.531L413.127 159.399V159.399Z" fill="black"/>
<path opacity="0.6" d="M418.795 201.876C418.795 203.408 419.288 204.499 420.067 205.002L413.443 201.102C412.579 200.637 412.032 199.508 412.032 197.89V163.671C412.032 162.262 412.448 160.738 413.127 159.399L419.821 163.532C419.188 164.832 418.795 166.294 418.795 167.648V201.868V201.876Z" fill="black"/>
<path d="M441.475 171.456L448.871 159.399V175.743L441.475 171.456Z" fill="#0082CB"/>
<path d="M434.604 174.93L427.224 187.76V171.448L434.604 174.93Z" fill="#0082CB"/>
<path d="M447.753 158.873L440.156 171.254C440.156 171.254 440.095 171.316 440.072 171.355C440.056 171.386 440.049 171.417 440.041 171.448L437.812 175.077L435.9 174.172C435.9 174.172 435.838 174.11 435.799 174.086C435.722 174.04 435.637 174.017 435.553 174.009L427.872 170.387L447.745 158.873H447.753Z" fill="#0082CB"/>
<path d="M435.723 175.464L437.782 176.439C437.866 176.478 437.959 176.501 438.044 176.501C438.252 176.501 438.452 176.393 438.568 176.207L440.828 172.523L448.254 176.826L428.288 188.395L435.723 175.48V175.464Z" fill="#0082CB"/>
<g opacity="0.9">
<path opacity="0.9" d="M441.475 171.456L448.871 159.399V175.743L441.475 171.456Z" fill="white"/>
<path opacity="0.9" d="M434.604 174.93L427.224 187.76V171.448L434.604 174.93Z" fill="white"/>
<path opacity="0.9" d="M447.753 158.873L440.156 171.254C440.156 171.254 440.095 171.316 440.072 171.355C440.056 171.386 440.049 171.417 440.041 171.448L437.812 175.077L435.9 174.172C435.9 174.172 435.838 174.11 435.799 174.086C435.722 174.04 435.637 174.017 435.553 174.009L427.872 170.387L447.745 158.873H447.753Z" fill="white"/>
<path opacity="0.9" d="M435.723 175.464L437.782 176.439C437.866 176.478 437.959 176.501 438.044 176.501C438.252 176.501 438.452 176.393 438.568 176.207L440.828 172.523L448.254 176.826L428.288 188.395L435.723 175.48V175.464Z" fill="white"/>
</g>
<path d="M415.949 34.2372L446.619 16.4697C447.545 15.9357 448.393 15.8738 449.064 16.1989C449.149 16.2375 449.226 16.284 449.303 16.3381L455.973 20.2616C455.973 20.2616 455.943 20.2461 455.935 20.2383C456.776 20.7181 457.308 21.8325 457.308 23.4188V57.6384C457.308 60.5326 455.557 63.8988 453.39 65.1524L422.72 82.92C421.672 83.5236 420.723 83.5236 420.021 83.036C420.037 83.0515 420.052 83.067 420.075 83.0747L413.451 79.1745C412.587 78.7102 412.04 77.5804 412.04 75.9631V41.7513C412.04 38.8571 413.79 35.4909 415.957 34.2372H415.949Z" fill="#0082CB"/>
<path d="M413.127 37.4797C413.836 36.079 414.839 34.8795 415.949 34.2372L446.619 16.4697C447.545 15.9357 448.393 15.8738 449.064 16.1989C449.149 16.2375 449.226 16.284 449.303 16.3381L455.974 20.2616C455.279 19.8437 454.377 19.8746 453.382 20.455L422.713 38.2225C421.564 38.8881 420.538 40.1494 419.821 41.612L413.127 37.4797V37.4797Z" fill="#0082CB"/>
<path d="M418.795 79.956C418.795 81.4882 419.288 82.5793 420.067 83.0823L413.443 79.1821C412.579 78.7178 412.032 77.588 412.032 75.9707V41.7511C412.032 40.3427 412.448 38.8182 413.127 37.4795L419.821 41.6118C419.188 42.9119 418.795 44.3745 418.795 45.7287V79.9482V79.956Z" fill="#0082CB"/>
<path opacity="0.3" d="M413.127 37.4797C413.836 36.079 414.839 34.8795 415.949 34.2372L446.619 16.4697C447.545 15.9357 448.393 15.8738 449.064 16.1989C449.149 16.2375 449.226 16.284 449.303 16.3381L455.974 20.2616C455.279 19.8437 454.377 19.8746 453.382 20.455L422.713 38.2225C421.564 38.8881 420.538 40.1494 419.821 41.612L413.127 37.4797V37.4797Z" fill="black"/>
<path opacity="0.6" d="M418.795 79.956C418.795 81.4882 419.288 82.5793 420.067 83.0823L413.443 79.1821C412.579 78.7178 412.032 77.588 412.032 75.9707V41.7511C412.032 40.3427 412.448 38.8182 413.127 37.4795L419.821 41.6118C419.188 42.9119 418.795 44.3745 418.795 45.7287V79.9482V79.956Z" fill="black"/>
<path d="M428.828 65.191C430.008 63.2486 431.196 61.3062 432.375 59.3639C432.915 58.474 433.525 57.9555 434.234 57.8007C434.805 57.6769 435.383 57.5531 435.961 57.3751C436.116 57.3287 436.362 57.1275 436.47 56.9417C438.437 53.5213 439.972 50.0158 441.044 46.4174C441.09 46.2472 441.059 46.0305 440.982 45.9454C440.619 45.5817 440.234 45.2489 439.848 44.9239C439.37 44.5215 439.285 43.8482 439.555 42.8732C440.126 40.807 440.673 38.7409 441.244 36.6747C441.614 35.3204 442.447 34.3454 443.45 34.0978C444.845 33.7573 446.11 33.8037 447.228 34.2371C447.699 34.4228 447.946 34.8484 447.946 35.5758C447.753 36.992 447.614 38.3926 447.352 39.832C445.447 50.2093 440.858 59.774 433.617 68.4953C433.046 69.184 432.476 69.509 431.897 69.4858C430.625 69.4316 429.538 69.0138 428.643 68.2244C427.957 67.6208 428.026 66.522 428.836 65.1832L428.828 65.191Z" fill="#0082CB"/>
<path d="M428.921 54.6742C429.044 52.608 429.653 50.4722 430.741 48.2977C431.527 46.7191 432.491 45.3029 433.633 44.0338C433.941 43.6933 434.196 43.585 434.342 43.8481C434.489 44.1112 434.342 44.4672 434.049 44.7999C433.949 44.916 433.849 45.0321 433.748 45.1482C431.512 47.8721 430.232 50.7895 429.908 53.9158C429.885 54.1557 429.923 54.3879 429.838 54.62C429.746 54.8677 429.553 55.2004 429.383 55.3242C429.221 55.4403 429.044 55.3242 428.905 55.3165C428.905 55.0147 428.905 54.8522 428.921 54.6897V54.6742Z" fill="#0082CB"/>
<path d="M435.908 48.3211C434.882 49.5128 434.342 50.7819 434.234 52.1594C434.219 52.3683 434.049 52.6469 433.995 52.7784C433.525 53.1654 433.293 53.0338 433.293 52.554C433.293 51.0992 434.296 48.8086 435.46 47.5937C435.753 47.2919 435.992 47.199 436.131 47.4544C436.262 47.6865 436.162 48.027 435.908 48.3211V48.3211Z" fill="#0082CB"/>
<g opacity="0.9">
<g opacity="0.9">
<path opacity="0.9" d="M428.828 65.191C430.008 63.2486 431.196 61.3062 432.375 59.3639C432.915 58.474 433.525 57.9555 434.234 57.8007C434.805 57.6769 435.383 57.5531 435.961 57.3751C436.116 57.3287 436.362 57.1275 436.47 56.9417C438.437 53.5213 439.972 50.0158 441.044 46.4174C441.09 46.2472 441.059 46.0305 440.982 45.9454C440.619 45.5817 440.234 45.2489 439.848 44.9239C439.37 44.5215 439.285 43.8482 439.555 42.8732C440.126 40.807 440.673 38.7409 441.244 36.6747C441.614 35.3204 442.447 34.3454 443.45 34.0978C444.845 33.7573 446.11 33.8037 447.228 34.2371C447.699 34.4228 447.946 34.8484 447.946 35.5758C447.753 36.992 447.614 38.3926 447.352 39.832C445.447 50.2093 440.858 59.774 433.617 68.4953C433.046 69.184 432.476 69.509 431.897 69.4858C430.625 69.4316 429.538 69.0138 428.643 68.2244C427.957 67.6208 428.026 66.522 428.836 65.1832L428.828 65.191Z" fill="white"/>
<path opacity="0.9" d="M428.921 54.6742C429.044 52.608 429.653 50.4722 430.741 48.2977C431.527 46.7191 432.491 45.3029 433.633 44.0338C433.941 43.6933 434.196 43.585 434.342 43.8481C434.489 44.1112 434.342 44.4672 434.049 44.7999C433.949 44.916 433.849 45.0321 433.748 45.1482C431.512 47.8721 430.232 50.7895 429.908 53.9158C429.885 54.1557 429.923 54.3879 429.838 54.62C429.746 54.8677 429.553 55.2004 429.383 55.3242C429.221 55.4403 429.044 55.3242 428.905 55.3165C428.905 55.0147 428.905 54.8522 428.921 54.6897V54.6742Z" fill="white"/>
<path opacity="0.9" d="M435.908 48.3211C434.882 49.5128 434.342 50.7819 434.234 52.1594C434.219 52.3683 434.049 52.6469 433.995 52.7784C433.525 53.1654 433.293 53.0338 433.293 52.554C433.293 51.0992 434.296 48.8086 435.46 47.5937C435.753 47.2919 435.992 47.199 436.131 47.4544C436.262 47.6865 436.162 48.027 435.908 48.3211V48.3211Z" fill="white"/>
</g>
</g>
<path d="M147.286 39.1034L137.912 44.4543V41.1213C137.922 40.8803 137.942 40.6494 137.942 40.4185C137.942 40.1876 137.932 39.9667 137.912 39.7459V39.6656C137.572 35.2583 134.24 33.5617 130.178 35.9209C128.447 36.9248 126.857 38.511 125.566 40.3683C124.646 34.3748 119.773 32.2064 113.891 35.6197C107.348 39.4146 102.045 48.6307 102.045 56.2103V63.3483C102.045 64.4928 101.435 65.5569 100.444 66.1392L94.9318 69.3819C92.5007 70.8175 91 73.4378 91 76.2689C91 78.7988 93.7312 80.385 95.9123 79.11L147.156 49.4037C149.928 47.7974 151.628 44.8358 151.628 41.6232C151.628 39.3945 149.227 37.989 147.296 39.0933L147.286 39.1034Z" fill="white"/>
</svg>
