<svg width="39" height="43" viewBox="0 0 39 43" fill="none" xmlns="http://www.w3.org/2000/svg">
<path d="M32.2477 22.5244C32.2256 19.1008 33.9307 16.5206 37.374 14.6181C35.4482 12.1082 32.5346 10.7277 28.6941 10.4617C25.0576 10.2007 21.0791 12.3893 19.6223 12.3893C18.0828 12.3893 14.5622 10.5521 11.7922 10.5521C6.07542 10.6324 0 14.6984 0 22.9711C0 25.4158 0.49111 27.9408 1.47333 30.541C2.78663 33.9646 7.52115 42.3527 12.4598 42.2172C15.0423 42.1619 16.8688 40.5506 20.2293 40.5506C23.4905 40.5506 25.179 42.2172 28.0595 42.2172C33.0423 42.1519 37.3243 34.5268 38.5714 31.0932C31.889 28.2269 32.2477 22.7 32.2477 22.5244ZM26.4482 7.21386C29.2459 4.19192 28.992 1.44106 28.9093 0.452148C26.4372 0.582664 23.5788 1.9832 21.951 3.705C20.1576 5.5523 19.1036 7.83632 19.3299 10.4115C22.0006 10.5972 24.4396 9.34729 26.4482 7.21386Z" fill="white"/>
</svg>
