<svg width="51" height="50" viewBox="0 0 51 50" fill="none" xmlns="http://www.w3.org/2000/svg">
<path d="M9.96155 37.5238C9.96155 38.7963 11.2054 39.835 12.7357 39.835H15.9071V46.3825C15.9071 48.0411 17.5026 49.3952 19.4627 49.3952C21.4294 49.3952 23.0183 48.0466 23.0183 46.3825V39.8296H28.5536V46.3771C28.5536 48.0357 30.1491 49.3898 32.1092 49.3898C34.0759 49.3898 35.6648 48.0411 35.6648 46.3771V39.8296H38.8362C40.3666 39.8296 41.6104 38.7909 41.6104 37.5184V16.0269H9.96155V37.5238ZM33.2163 4.88963L36.1402 1.35485C36.3095 1.1482 36.2705 0.870859 36.0425 0.734906C35.8146 0.604391 35.489 0.669649 35.3197 0.876298L32.2851 4.55247C30.2858 3.89445 28.0587 3.5301 25.7209 3.5301C23.383 3.5301 21.1559 3.89445 19.1566 4.55247L16.122 0.881736C15.9527 0.675087 15.6271 0.604392 15.3992 0.740345C15.1712 0.87086 15.1322 1.14277 15.3015 1.36029L18.2254 4.89507C13.5758 6.70053 10.3197 10.1211 9.90294 14.1181H41.5518C41.122 10.1157 37.8594 6.69509 33.2163 4.88963ZM19.0394 10.4637C18.693 10.4637 18.3543 10.3779 18.0662 10.2172C17.7781 10.0564 17.5536 9.82796 17.421 9.56066C17.2884 9.29336 17.2537 8.99923 17.3213 8.71546C17.3889 8.4317 17.5558 8.17104 17.8008 7.96646C18.0457 7.76187 18.3579 7.62255 18.6977 7.5661C19.0375 7.50966 19.3897 7.53863 19.7098 7.64935C20.0299 7.76007 20.3035 7.94757 20.496 8.18813C20.6884 8.4287 20.7912 8.71152 20.7912 9.00085C20.79 9.38851 20.605 9.76001 20.2768 10.0341C19.9485 10.3083 19.5037 10.4627 19.0394 10.4637ZM32.6107 10.4637C32.2642 10.4637 31.9255 10.3779 31.6374 10.2172C31.3494 10.0564 31.1248 9.82796 30.9923 9.56066C30.8597 9.29336 30.825 8.99923 30.8926 8.71546C30.9602 8.4317 31.127 8.17104 31.372 7.96646C31.617 7.76187 31.9291 7.62255 32.2689 7.5661C32.6087 7.50966 32.9609 7.53863 33.281 7.64935C33.6011 7.76007 33.8747 7.94757 34.0672 8.18813C34.2597 8.4287 34.3624 8.71152 34.3624 9.00085C34.3612 9.38851 34.1763 9.76001 33.848 10.0341C33.5198 10.3083 33.0749 10.4627 32.6107 10.4637ZM47.1587 15.9399C45.1921 15.9399 43.6031 17.2885 43.6031 18.9526V30.7207C43.6031 32.3793 45.1986 33.7334 47.1587 33.7334C49.1254 33.7334 50.7143 32.3848 50.7143 30.7207V18.9472C50.7208 17.2831 49.1319 15.9399 47.1587 15.9399ZM4.26997 15.9399C2.30331 15.9399 0.714355 17.2885 0.714355 18.9526V30.7207C0.714355 32.3793 2.30982 33.7334 4.26997 33.7334C6.23662 33.7334 7.82558 32.3848 7.82558 30.7207V18.9472C7.82558 17.2831 6.23011 15.9399 4.26997 15.9399Z" fill="white"/>
</svg>
