<svg width="700" height="657" viewBox="0 0 700 657" fill="none" xmlns="http://www.w3.org/2000/svg">
<path d="M700 458.359H0V458.709H700V458.359Z" fill="#EBEBEB"/>
<path d="M629.86 480.886H583.492V481.236H629.86V480.886Z" fill="#EBEBEB"/>
<path d="M463.708 484.694H451.542V485.044H463.708V484.694Z" fill="#EBEBEB"/>
<path d="M582.092 467.894H555.226V468.244H582.092V467.894Z" fill="#EBEBEB"/>
<path d="M133.91 470.246H73.444V470.596H133.91V470.246Z" fill="#EBEBEB"/>
<path d="M155.246 470.246H146.384V470.596H155.246V470.246Z" fill="#EBEBEB"/>
<path d="M315.21 476.154H184.058V476.504H315.21V476.154Z" fill="#EBEBEB"/>
<path d="M331.8 395.92H61.474C59.3563 395.916 57.3266 395.072 55.8305 393.574C54.3343 392.075 53.494 390.044 53.494 387.926V7.924C53.5125 5.81843 54.3609 3.80517 55.855 2.32151C57.3492 0.837841 59.3684 0.00360694 61.474 0H331.8C333.92 0 335.953 0.842223 337.453 2.34139C338.952 3.84055 339.794 5.87386 339.794 7.994V387.926C339.794 390.046 338.952 392.079 337.453 393.579C335.953 395.078 333.92 395.92 331.8 395.92V395.92ZM61.474 0.280001C59.4491 0.28371 57.5084 1.09069 56.0779 2.52382C54.6474 3.95694 53.844 5.89911 53.844 7.924V387.926C53.844 389.951 54.6474 391.893 56.0779 393.326C57.5084 394.759 59.4491 395.566 61.474 395.57H331.8C333.826 395.566 335.768 394.76 337.201 393.327C338.634 391.894 339.44 389.952 339.444 387.926V7.924C339.44 5.89782 338.634 3.95569 337.201 2.52296C335.768 1.09024 333.826 0.283702 331.8 0.280001H61.474Z" fill="#EBEBEB"/>
<path d="M634.634 395.92H364.294C362.175 395.916 360.144 395.073 358.646 393.575C357.147 392.076 356.304 390.045 356.3 387.926V7.924C356.322 5.81716 357.174 3.80391 358.67 2.32063C360.166 0.837352 362.187 0.00356761 364.294 0H634.634C636.737 0.00728629 638.753 0.843149 640.244 2.32642C641.735 3.80969 642.582 5.82085 642.6 7.924V387.926C642.6 390.041 641.762 392.07 640.269 393.569C638.775 395.067 636.749 395.913 634.634 395.92V395.92ZM364.294 0.280001C362.268 0.283702 360.326 1.09024 358.893 2.52296C357.46 3.95569 356.654 5.89782 356.65 7.924V387.926C356.654 389.952 357.46 391.894 358.893 393.327C360.326 394.76 362.268 395.566 364.294 395.57H634.634C636.66 395.566 638.602 394.76 640.035 393.327C641.468 391.894 642.274 389.952 642.278 387.926V7.924C642.274 5.89782 641.468 3.95569 640.035 2.52296C638.602 1.09024 636.66 0.283702 634.634 0.280001H364.294Z" fill="#EBEBEB"/>
<path d="M148.862 458.359H194.908L194.908 289.785H148.862L148.862 458.359Z" fill="#E6E6E6"/>
<path d="M159.726 458.359H148.862V427.461H171.122L159.726 458.359Z" fill="#F0F0F0"/>
<path d="M436.324 458.359H482.37V289.785H436.324V458.359Z" fill="#E6E6E6"/>
<path d="M148.876 443.155L445.816 443.155V289.799H148.876V443.155Z" fill="#F0F0F0"/>
<path d="M292.6 299.853V422.143H158.34V299.853H292.6ZM293.65 298.803H157.29V423.193H293.692V298.803H293.65Z" fill="#FAFAFA"/>
<path d="M436.338 299.853V422.143H302.036V299.853H436.338ZM437.388 298.803H301V423.193H437.402V298.803H437.388Z" fill="#FAFAFA"/>
<path d="M321.832 327.642C327.167 327.642 331.492 325.053 331.492 321.86C331.492 318.667 327.167 316.078 321.832 316.078C316.497 316.078 312.172 318.667 312.172 321.86C312.172 325.053 316.497 327.642 321.832 327.642Z" fill="#FAFAFA"/>
<path d="M272.846 327.642C278.181 327.642 282.506 325.053 282.506 321.86C282.506 318.667 278.181 316.078 272.846 316.078C267.511 316.078 263.186 318.667 263.186 321.86C263.186 325.053 267.511 327.642 272.846 327.642Z" fill="#FAFAFA"/>
<path d="M434.952 458.359H445.816V427.461H423.556L434.952 458.359Z" fill="#F0F0F0"/>
<path d="M299.824 270.199C299.824 270.199 300.664 289.799 332.612 289.799C364.56 289.799 365.4 270.199 365.4 270.199H299.824Z" fill="#F5F5F5"/>
<path d="M382.34 179.48L630.392 179.48V28.0845L382.34 28.0845V179.48Z" fill="#E6E6E6"/>
<path d="M376.138 179.48L629.524 179.48V28.0845L376.138 28.0845V179.48Z" fill="#F0F0F0"/>
<path d="M382.34 185.275L630.392 185.275V179.493L382.34 179.493V185.275Z" fill="#E6E6E6"/>
<path d="M365.764 185.275L619.15 185.275V179.493L365.764 179.493V185.275Z" fill="#F0F0F0"/>
<path d="M620.816 170.787V36.8066L384.846 36.8066V170.787L620.816 170.787Z" fill="#FAFAFA"/>
<path d="M548.142 170.787L534.198 36.8066H510.076L524.02 170.787H548.142Z" fill="white"/>
<path d="M616.77 132.524C616.859 132.525 616.947 132.509 617.029 132.476C617.112 132.443 617.187 132.394 617.249 132.331C617.312 132.268 617.362 132.193 617.395 132.111C617.428 132.029 617.444 131.94 617.442 131.851V42.4615C617.419 42.3017 617.339 42.1556 617.217 42.05C617.094 41.9444 616.938 41.8862 616.777 41.8862C616.616 41.8862 616.459 41.9444 616.337 42.05C616.215 42.1556 616.135 42.3017 616.112 42.4615V131.851C616.11 131.939 616.126 132.026 616.158 132.108C616.19 132.189 616.238 132.263 616.3 132.326C616.361 132.388 616.434 132.438 616.515 132.472C616.596 132.506 616.682 132.524 616.77 132.524V132.524Z" fill="#F0F0F0"/>
<path d="M518.84 170.787L504.882 36.8066H495.488L509.432 170.787H518.84Z" fill="white"/>
<path d="M385.952 170.787V36.8066H384.846V170.787H385.952Z" fill="#E6E6E6"/>
<path opacity="0.5" d="M374.066 48.1743H624.148L624.946 40.1943H374.878L374.066 48.1743Z" fill="#E0E0E0"/>
<path opacity="0.5" d="M374.066 61.2915H624.148L624.946 53.3115H374.878L374.066 61.2915Z" fill="#E0E0E0"/>
<path opacity="0.5" d="M374.066 74.4097H624.148L624.946 66.4297H374.878L374.066 74.4097Z" fill="#E0E0E0"/>
<path opacity="0.5" d="M374.066 87.5278H624.148L624.946 79.5479H374.878L374.066 87.5278Z" fill="#E0E0E0"/>
<path opacity="0.5" d="M374.066 100.647H624.148L624.946 92.667H374.878L374.066 100.647Z" fill="#E0E0E0"/>
<path opacity="0.5" d="M374.066 113.764H624.148L624.946 105.784H374.878L374.066 113.764Z" fill="#E0E0E0"/>
<path d="M171.766 132.104L322.882 132.104V32.0595L171.766 32.0595V132.104Z" fill="#E0E0E0"/>
<path d="M162.666 132.104L318.906 132.104V32.0595L162.666 32.0595V132.104Z" fill="#F5F5F5"/>
<path d="M175.756 49.5882V114.576L305.816 114.576V49.5882L175.756 49.5882Z" fill="white"/>
<path d="M91.672 254.927L242.788 254.927V154.883H91.672V254.927Z" fill="#E0E0E0"/>
<path d="M82.544 254.927L238.784 254.927V154.883H82.544V254.927Z" fill="#F5F5F5"/>
<path d="M95.634 172.397V237.385H225.694V172.397H95.634Z" fill="white"/>
<path d="M350 656.585C499.915 656.585 621.446 649.489 621.446 640.737C621.446 631.984 499.915 624.889 350 624.889C200.084 624.889 78.554 631.984 78.554 640.737C78.554 649.489 200.084 656.585 350 656.585Z" fill="#F5F5F5"/>
<path d="M597.305 294.249L596.749 305.827L598.175 305.896L598.731 294.317L597.305 294.249Z" fill="#0082CB"/>
<path d="M599.327 252.922L597.767 285.393L599.193 285.461L600.753 252.991L599.327 252.922Z" fill="#0082CB"/>
<path d="M405.175 234.863H578.775C581.089 234.848 583.383 235.307 585.513 236.212C587.644 237.117 589.566 238.448 591.162 240.125C592.759 241.801 593.995 243.786 594.795 245.958C595.594 248.131 595.941 250.443 595.813 252.755L578.201 622.845C577.915 627.641 575.825 632.152 572.35 635.471C568.875 638.79 564.273 640.671 559.469 640.737H385.897C383.582 640.752 381.289 640.293 379.158 639.388C377.028 638.483 375.105 637.151 373.509 635.475C371.913 633.798 370.677 631.813 369.877 629.641C369.077 627.469 368.731 625.156 368.859 622.845L386.401 252.755C386.681 247.949 388.775 243.428 392.26 240.107C395.745 236.786 400.361 234.911 405.175 234.863V234.863Z" fill="#0082CB"/>
<path d="M637.981 393.553L638.387 385.055L633.193 383.543C632.997 380.713 632.571 377.904 631.919 375.143L636.371 371.727L633.487 363.873L628.013 364.489C626.741 361.979 625.251 359.585 623.561 357.335L626.445 352.533L620.719 346.527L615.805 349.173C613.618 347.368 611.276 345.761 608.805 344.371L609.687 338.939L601.987 335.691L598.375 339.975C595.629 339.169 592.818 338.602 589.975 338.281L588.729 333.031H580.217L578.467 338.295C575.574 338.617 572.712 339.179 569.913 339.975L566.721 335.691L558.713 338.939L559.063 344.371C556.502 345.791 554.054 347.406 551.741 349.201L547.079 346.541L540.779 352.547L543.215 357.349C541.309 359.589 539.591 361.982 538.077 364.503L532.659 363.887L529.033 371.741L533.163 375.157C532.234 377.894 531.536 380.704 531.077 383.557L525.729 385.069L525.323 393.567L530.531 395.079C530.713 397.911 531.139 400.721 531.805 403.479L527.353 406.881L530.237 414.735L535.711 414.119C536.983 416.634 538.472 419.032 540.163 421.287L537.265 426.075L542.991 432.095L547.919 429.435C550.085 431.234 552.404 432.841 554.849 434.237L553.981 439.669L561.681 442.931L565.293 438.633C568.039 439.435 570.849 439.997 573.693 440.313L574.953 445.591H583.451L585.215 440.313C588.104 439.997 590.961 439.435 593.755 438.633L596.961 442.931L604.969 439.669L604.605 434.237C607.196 432.841 609.668 431.235 611.997 429.435L616.673 432.095L622.973 426.075L620.537 421.287C622.433 419.035 624.151 416.639 625.675 414.119L631.093 414.735L634.719 406.881L630.519 403.479C631.436 400.74 632.129 397.931 632.591 395.079L637.981 393.553ZM618.227 389.353C617.683 399.123 613.445 408.32 606.371 415.079C599.297 421.839 589.917 425.655 580.133 425.753C575.42 425.8 570.748 424.877 566.408 423.041C562.068 421.205 558.151 418.496 554.903 415.082C551.654 411.668 549.143 407.622 547.524 403.196C545.906 398.769 545.216 394.058 545.497 389.353C546.043 379.583 550.285 370.386 557.361 363.626C564.438 356.867 573.819 353.052 583.605 352.953C588.311 352.909 592.976 353.832 597.311 355.665C601.646 357.499 605.557 360.203 608.804 363.611C612.05 367.019 614.562 371.057 616.182 375.476C617.803 379.894 618.499 384.599 618.227 389.297V389.353Z" fill="#0082CB"/>
<path d="M578.495 239.343H404.965C401.367 239.391 397.92 240.802 395.322 243.291C392.724 245.78 391.166 249.163 390.965 252.755L374.193 604.617C374.158 605.217 374.247 605.818 374.454 606.382C374.662 606.946 374.983 607.461 375.398 607.895C375.813 608.33 376.313 608.675 376.866 608.908C377.42 609.141 378.016 609.258 378.617 609.251H569.689C570.936 609.242 572.133 608.758 573.036 607.897C573.939 607.036 574.479 605.863 574.547 604.617L591.263 252.755C591.375 251.019 591.127 249.279 590.533 247.644C589.94 246.009 589.014 244.514 587.815 243.254C586.615 241.994 585.168 240.996 583.564 240.323C581.96 239.65 580.234 239.316 578.495 239.343V239.343Z" fill="white"/>
<path opacity="0.2" d="M547.289 593.151H402.641C400.551 593.154 398.482 592.731 396.56 591.908C394.639 591.086 392.905 589.881 391.464 588.367C390.024 586.853 388.906 585.061 388.18 583.101C387.454 581.142 387.134 579.054 387.241 576.967L391.693 483.433C391.941 479.106 393.822 475.035 396.956 472.041C400.09 469.047 404.243 467.355 408.577 467.305H553.211C555.304 467.292 557.377 467.708 559.303 468.527C561.229 469.346 562.967 470.551 564.41 472.067C565.853 473.583 566.97 475.379 567.692 477.343C568.415 479.308 568.727 481.399 568.611 483.489L564.201 577.023C563.949 581.354 562.063 585.427 558.924 588.421C555.785 591.415 551.626 593.105 547.289 593.151V593.151ZM408.549 468.551C404.547 468.594 400.711 470.154 397.816 472.917C394.921 475.679 393.183 479.438 392.953 483.433L388.501 576.967C388.385 578.887 388.666 580.81 389.327 582.616C389.987 584.422 391.013 586.073 392.34 587.466C393.666 588.858 395.266 589.962 397.038 590.709C398.81 591.456 400.718 591.83 402.641 591.807H547.289C551.294 591.764 555.133 590.202 558.031 587.437C560.928 584.672 562.668 580.91 562.899 576.911L567.337 483.377C567.45 481.46 567.168 479.539 566.507 477.736C565.847 475.932 564.822 474.284 563.497 472.893C562.172 471.502 560.575 470.399 558.805 469.652C557.036 468.905 555.131 468.53 553.211 468.551H408.549Z" fill="#0082CB"/>
<path opacity="0.1" d="M433.217 475.2H378.127L373.563 571.156H428.667C431.731 571.116 434.666 569.916 436.881 567.799C439.097 565.683 440.428 562.805 440.609 559.746L444.081 486.596C444.161 485.124 443.939 483.65 443.428 482.266C442.918 480.883 442.129 479.618 441.111 478.551C440.094 477.483 438.868 476.635 437.511 476.059C436.153 475.483 434.692 475.191 433.217 475.2V475.2Z" fill="#0082CB"/>
<path opacity="0.1" d="M507.039 521.722H469.575C468.819 521.723 468.07 521.571 467.375 521.275C466.68 520.978 466.051 520.544 465.528 519.999C465.005 519.453 464.598 518.808 464.331 518.101C464.064 517.393 463.942 516.64 463.975 515.884L465.753 478.406C465.848 476.841 466.531 475.369 467.666 474.287C468.8 473.204 470.302 472.59 471.871 472.568H509.349C510.104 472.568 510.853 472.72 511.548 473.016C512.243 473.312 512.872 473.746 513.395 474.292C513.918 474.837 514.326 475.483 514.593 476.19C514.86 476.897 514.981 477.651 514.949 478.406L513.171 515.884C513.075 517.452 512.39 518.926 511.252 520.009C510.115 521.092 508.609 521.704 507.039 521.722V521.722Z" fill="#0082CB"/>
<path opacity="0.1" d="M566.847 492.21C564.592 492.238 562.432 493.121 560.802 494.68C559.173 496.239 558.196 498.359 558.069 500.61L555.507 554.412C555.444 555.496 555.603 556.582 555.977 557.602C556.35 558.622 556.928 559.554 557.676 560.341C558.424 561.129 559.326 561.754 560.325 562.179C561.325 562.604 562.401 562.82 563.487 562.812H579.405L582.751 492.238L566.847 492.21Z" fill="#0082CB"/>
<path opacity="0.1" d="M522.201 580.845H484.709C483.953 580.846 483.205 580.694 482.509 580.398C481.814 580.101 481.185 579.667 480.662 579.122C480.139 578.576 479.732 577.931 479.465 577.224C479.198 576.516 479.076 575.763 479.109 575.007L480.887 537.529C480.982 535.964 481.665 534.492 482.8 533.41C483.934 532.327 485.436 531.713 487.005 531.691H524.469C525.224 531.691 525.973 531.843 526.668 532.139C527.363 532.435 527.992 532.869 528.515 533.415C529.038 533.96 529.446 534.606 529.713 535.313C529.98 536.02 530.101 536.774 530.069 537.529L528.291 575.007C528.196 576.568 527.516 578.036 526.388 579.118C525.259 580.2 523.764 580.817 522.201 580.845Z" fill="#0082CB"/>
<path opacity="0.2" d="M482.315 623.854C482.183 626.234 481.15 628.475 479.426 630.121C477.702 631.767 475.416 632.695 473.033 632.716C471.89 632.718 470.758 632.486 469.708 632.035C468.657 631.585 467.71 630.924 466.923 630.095C466.137 629.265 465.528 628.284 465.134 627.21C464.74 626.137 464.57 624.995 464.633 623.854C464.768 621.476 465.802 619.239 467.525 617.596C469.249 615.953 471.533 615.027 473.915 615.006C475.056 615.004 476.187 615.235 477.236 615.685C478.286 616.135 479.232 616.794 480.018 617.622C480.805 618.451 481.414 619.43 481.808 620.502C482.203 621.573 482.375 622.714 482.315 623.854V623.854Z" fill="white"/>
<path opacity="0.2" d="M564.201 445.633H399.728C399.002 445.639 398.282 445.497 397.613 445.215C396.943 444.933 396.339 444.517 395.837 443.992C395.334 443.467 394.945 442.845 394.692 442.164C394.439 441.483 394.328 440.758 394.367 440.033L399.281 336.797C399.369 335.292 400.025 333.877 401.117 332.838C402.208 331.798 403.653 331.212 405.161 331.197H569.604C570.33 331.19 571.05 331.332 571.718 331.614C572.387 331.896 572.991 332.313 573.492 332.838C573.993 333.363 574.381 333.985 574.633 334.666C574.884 335.347 574.993 336.072 574.953 336.797L570.052 440.033C569.961 441.531 569.308 442.94 568.223 443.978C567.138 445.016 565.702 445.607 564.201 445.633V445.633Z" fill="#0082CB"/>
<path opacity="0.6" d="M573.007 306.445H404.11C403.671 306.448 403.235 306.36 402.83 306.188C402.426 306.016 402.061 305.763 401.758 305.444C401.455 305.125 401.22 304.748 401.068 304.335C400.917 303.922 400.852 303.482 400.876 303.043L402.528 268.183C402.581 267.272 402.978 266.414 403.637 265.783C404.297 265.152 405.172 264.794 406.084 264.781H574.981C575.42 264.779 575.856 264.866 576.261 265.038C576.665 265.211 577.03 265.464 577.333 265.783C577.636 266.101 577.871 266.479 578.022 266.892C578.174 267.305 578.239 267.744 578.215 268.183L576.549 303.001C576.513 303.92 576.125 304.79 575.466 305.431C574.806 306.072 573.926 306.435 573.007 306.445V306.445Z" fill="#0082CB"/>
<path d="M418.376 365.833H409.458L406.448 429.155H415.366L418.376 365.833Z" fill="#0082CB"/>
<path d="M435.219 389.129H426.301L424.397 429.155H433.315L435.219 389.129Z" fill="#0082CB"/>
<path d="M452.537 402.568H443.619L442.359 429.154H451.277L452.537 402.568Z" fill="#0082CB"/>
<path d="M469.869 415.869H460.937L460.307 429.155H469.225L469.869 415.869Z" fill="#0082CB"/>
<path d="M489.469 381.064H480.551L478.269 429.154H487.187L489.469 381.064Z" fill="#0082CB"/>
<path d="M508.648 355.375H499.716L496.216 429.155H505.134L508.648 355.375Z" fill="#0082CB"/>
<path d="M526.975 347.605H518.043L514.179 429.155H523.097L526.975 347.605Z" fill="#0082CB"/>
<path d="M543.425 379.272H534.493L532.127 429.154H541.045L543.425 379.272Z" fill="#0082CB"/>
<path d="M560.603 395.399H551.685L550.089 429.153H559.007L560.603 395.399Z" fill="#0082CB"/>
<path d="M420.183 551.557H347.019C345.544 551.567 344.082 551.275 342.725 550.698C341.367 550.122 340.141 549.274 339.124 548.207C338.106 547.139 337.318 545.875 336.807 544.491C336.296 543.107 336.074 541.634 336.155 540.161L339.641 467.011C339.821 463.952 341.153 461.075 343.368 458.958C345.584 456.841 348.519 455.642 351.583 455.601H424.733C426.209 455.591 427.671 455.883 429.03 456.46C430.389 457.037 431.615 457.887 432.633 458.956C433.651 460.025 434.439 461.291 434.949 462.676C435.458 464.062 435.679 465.537 435.597 467.011L432.125 540.161C431.941 543.217 430.608 546.091 428.393 548.205C426.177 550.319 423.244 551.516 420.183 551.557V551.557Z" fill="#0082CB"/>
<path opacity="0.8" d="M420.183 551.557H347.019C345.544 551.567 344.082 551.275 342.725 550.698C341.367 550.122 340.141 549.274 339.124 548.207C338.106 547.139 337.318 545.875 336.807 544.491C336.296 543.107 336.074 541.634 336.155 540.161L339.641 467.011C339.821 463.952 341.153 461.075 343.368 458.958C345.584 456.841 348.519 455.642 351.583 455.601H424.733C426.209 455.591 427.671 455.883 429.03 456.46C430.389 457.037 431.615 457.887 432.633 458.956C433.651 460.025 434.439 461.291 434.949 462.676C435.458 464.062 435.679 465.537 435.597 467.011L432.125 540.161C431.941 543.217 430.608 546.091 428.393 548.205C426.177 550.319 423.244 551.516 420.183 551.557V551.557Z" fill="white"/>
<path d="M419.819 509.165L420.351 497.965L415.143 494.521C414.65 492.642 413.96 490.822 413.085 489.089L414.485 483.769L406.967 475.873L401.605 477.035C399.911 476.084 398.123 475.309 396.271 474.725L393.079 469.349H381.879L378.183 474.725C376.245 475.311 374.37 476.085 372.583 477.035L367.333 475.873L359.045 483.769L359.955 489.075C358.923 490.808 358.06 492.636 357.379 494.535L351.863 497.965L351.331 509.165L356.525 512.609C357.019 514.491 357.709 516.316 358.583 518.055L357.183 523.361L364.715 531.271L370.077 530.109C371.769 531.054 373.551 531.828 375.397 532.419L378.589 537.781H389.789L393.499 532.419C395.433 531.824 397.308 531.051 399.099 530.109L404.349 531.271L412.637 523.361L411.727 518.055C412.756 516.325 413.618 514.501 414.303 512.609L419.819 509.165ZM385.239 516.991C383.501 517.017 381.776 516.684 380.173 516.012C378.57 515.34 377.123 514.343 375.924 513.085C374.725 511.826 373.799 510.333 373.204 508.7C372.61 507.066 372.36 505.327 372.471 503.593C372.672 500 374.23 496.618 376.828 494.128C379.426 491.639 382.872 490.228 386.471 490.181C388.21 490.154 389.936 490.487 391.54 491.16C393.144 491.834 394.591 492.831 395.791 494.091C396.99 495.351 397.916 496.846 398.509 498.481C399.103 500.116 399.351 501.857 399.239 503.593C399.033 507.183 397.475 510.562 394.877 513.048C392.279 515.534 388.834 516.943 385.239 516.991Z" fill="white"/>
<path d="M497.869 504.755H460.405C459.647 504.755 458.898 504.603 458.202 504.306C457.505 504.008 456.876 503.573 456.353 503.026C455.829 502.479 455.422 501.832 455.156 501.123C454.89 500.414 454.77 499.659 454.805 498.903L456.583 461.439C456.678 459.873 457.361 458.402 458.496 457.319C459.63 456.236 461.132 455.622 462.701 455.601H500.179C500.934 455.6 501.683 455.752 502.378 456.048C503.073 456.345 503.702 456.779 504.225 457.324C504.748 457.869 505.156 458.515 505.423 459.222C505.69 459.93 505.811 460.683 505.779 461.439L504.001 498.903C503.909 500.473 503.225 501.95 502.087 503.036C500.949 504.122 499.441 504.736 497.869 504.755V504.755Z" fill="#0082CB"/>
<path opacity="0.6" d="M497.869 504.755H460.405C459.647 504.755 458.898 504.603 458.202 504.306C457.505 504.008 456.876 503.573 456.353 503.026C455.829 502.479 455.422 501.832 455.156 501.123C454.89 500.414 454.77 499.659 454.805 498.903L456.583 461.439C456.678 459.873 457.361 458.402 458.496 457.319C459.63 456.236 461.132 455.622 462.701 455.601H500.179C500.934 455.6 501.683 455.752 502.378 456.048C503.073 456.345 503.702 456.779 504.225 457.324C504.748 457.869 505.156 458.515 505.423 459.222C505.69 459.93 505.811 460.683 505.779 461.439L504.001 498.903C503.909 500.473 503.225 501.95 502.087 503.036C500.949 504.122 499.441 504.736 497.869 504.755V504.755Z" fill="white"/>
<path d="M608.132 545.817H554.316C553.23 545.824 552.154 545.609 551.155 545.184C550.156 544.759 549.254 544.133 548.506 543.346C547.758 542.559 547.179 541.626 546.806 540.606C546.433 539.586 546.273 538.501 546.336 537.417L548.898 483.6C549.026 481.349 550.003 479.23 551.632 477.671C553.261 476.112 555.422 475.229 557.676 475.2H611.478C612.566 475.191 613.643 475.405 614.644 475.829C615.645 476.253 616.549 476.878 617.298 477.666C618.048 478.453 618.627 479.387 619.001 480.407C619.375 481.428 619.536 482.515 619.473 483.6L616.91 537.402C616.786 539.656 615.811 541.779 614.181 543.341C612.552 544.903 610.39 545.788 608.132 545.817V545.817Z" fill="#0082CB"/>
<path opacity="0.4" d="M608.132 545.817H554.316C553.23 545.824 552.154 545.609 551.155 545.184C550.156 544.759 549.254 544.133 548.506 543.346C547.758 542.559 547.179 541.626 546.806 540.606C546.433 539.586 546.273 538.501 546.336 537.417L548.898 483.6C549.026 481.349 550.003 479.23 551.632 477.671C553.261 476.112 555.422 475.229 557.676 475.2H611.478C612.566 475.191 613.643 475.405 614.644 475.829C615.645 476.253 616.549 476.878 617.298 477.666C618.048 478.453 618.627 479.387 619.001 480.407C619.375 481.428 619.536 482.515 619.473 483.6L616.91 537.402C616.786 539.656 615.811 541.779 614.181 543.341C612.552 544.903 610.39 545.788 608.132 545.817V545.817Z" fill="white"/>
<path d="M600.545 510.523L573.287 494.353L571.747 526.707L600.545 510.523Z" fill="white"/>
<path d="M513.017 563.864H475.539C474.783 563.864 474.035 563.712 473.339 563.416C472.644 563.12 472.015 562.686 471.492 562.14C470.969 561.595 470.562 560.949 470.295 560.242C470.028 559.535 469.907 558.781 469.939 558.026L471.801 520.562C471.896 518.996 472.579 517.525 473.714 516.442C474.849 515.359 476.35 514.745 477.919 514.724H515.341C516.097 514.723 516.845 514.875 517.54 515.171C518.236 515.468 518.864 515.902 519.387 516.447C519.91 516.993 520.318 517.638 520.585 518.345C520.852 519.053 520.973 519.806 520.941 520.562L519.163 558.026C519.07 559.597 518.384 561.074 517.243 562.159C516.101 563.243 514.591 563.852 513.017 563.864V563.864Z" fill="#0082CB"/>
<path opacity="0.4" d="M513.017 563.864H475.539C474.783 563.864 474.035 563.712 473.339 563.416C472.644 563.12 472.015 562.686 471.492 562.14C470.969 561.595 470.562 560.949 470.295 560.242C470.028 559.535 469.907 558.781 469.939 558.026L471.801 520.562C471.896 518.996 472.579 517.525 473.714 516.442C474.849 515.359 476.35 514.745 477.919 514.724H515.341C516.097 514.723 516.845 514.875 517.54 515.171C518.236 515.468 518.864 515.902 519.387 516.447C519.91 516.993 520.318 517.638 520.585 518.345C520.852 519.053 520.973 519.806 520.941 520.562L519.163 558.026C519.07 559.597 518.384 561.074 517.243 562.159C516.101 563.243 514.591 563.852 513.017 563.864V563.864Z" fill="white"/>
<path d="M490.869 553.6L477.569 539.628L480.663 536.688L491.023 547.552L510.791 528.68L513.731 531.774L490.869 553.6Z" fill="white"/>
<path d="M237.776 287.363C237.706 295.357 236.306 309.763 229.88 313.795C232.902 321.114 238.664 326.962 245.938 330.091C259.21 326.031 253.778 318.695 253.778 318.695C245.63 314.887 247.156 308.573 249.872 302.903L237.776 287.363Z" fill="#FFBE9D"/>
<path d="M229.684 329.461C231.504 336.083 233.506 342.859 235.578 349.453C236.628 352.757 237.748 356.019 238.924 359.253C240.037 362.381 241.308 365.451 242.732 368.451C243.361 369.786 244.072 371.081 244.86 372.329C245.042 372.581 245.224 372.875 245.378 373.057L245.63 373.379C245.7 373.491 245.896 373.715 246.022 373.869L247.772 375.941C250.04 378.741 252.308 381.541 254.492 384.341C258.888 389.941 263.144 395.695 267.19 401.617L262.178 406.055C256.802 401.337 251.608 396.451 246.526 391.481L238.952 384.033L237.09 382.171C236.922 382.003 236.81 381.905 236.6 381.667L235.984 380.981C235.536 380.505 235.228 380.057 234.864 379.581C233.622 377.912 232.499 376.158 231.504 374.331C228.049 367.724 225.142 360.846 222.81 353.765C220.402 346.863 218.358 340.003 216.566 332.877L229.684 329.461Z" fill="#FFBE9D"/>
<path d="M212.128 319.185C206.528 327.361 213.668 347.535 213.668 347.535H238.77C238.77 347.535 239.008 330.847 235.508 324.407C231 316.091 215.74 313.865 212.128 319.185Z" fill="#263238"/>
<path d="M274.792 403.31L265.09 400.51L260.008 402.526C260.008 408.028 267.596 411.976 267.596 411.976L273.462 417.366C274.068 417.923 274.837 418.272 275.656 418.36C276.475 418.448 277.301 418.272 278.012 417.856L281.666 415.714C282.132 415.443 282.537 415.077 282.853 414.64C283.169 414.202 283.389 413.704 283.5 413.176C283.611 412.648 283.61 412.102 283.496 411.575C283.383 411.047 283.16 410.549 282.842 410.114L281.26 407.902C279.676 405.693 277.399 404.077 274.792 403.31Z" fill="#FFBE9D"/>
<path d="M366.296 346.918L353.374 333.996C352.021 332.64 351.262 330.802 351.262 328.886C351.262 326.971 352.021 325.133 353.374 323.776V323.776C354.734 322.431 356.57 321.676 358.484 321.676C360.397 321.676 362.233 322.431 363.594 323.776L376.516 336.698C377.861 338.059 378.616 339.895 378.616 341.808C378.616 343.722 377.861 345.558 376.516 346.918C375.159 348.271 373.321 349.03 371.406 349.03C369.49 349.03 367.652 348.271 366.296 346.918V346.918Z" fill="#263238"/>
<path d="M366.095 335.272L365.016 334.193C362.72 331.897 358.997 331.897 356.701 334.193L348.375 342.518C346.079 344.815 346.079 348.538 348.375 350.834L349.454 351.913C351.751 354.209 355.474 354.209 357.77 351.913L366.095 343.588C368.392 341.291 368.392 337.568 366.095 335.272Z" fill="#263238"/>
<path d="M236.81 475.55L224.756 463.496C224.411 463.159 224.137 462.756 223.95 462.311C223.764 461.866 223.667 461.389 223.667 460.906C223.667 460.424 223.764 459.947 223.95 459.502C224.137 459.057 224.411 458.654 224.756 458.316L347.466 339.918C348.145 339.256 349.057 338.885 350.007 338.885C350.956 338.885 351.868 339.256 352.548 339.918L360.29 347.66C360.956 348.338 361.329 349.251 361.329 350.201C361.329 351.152 360.956 352.064 360.29 352.742L241.892 475.452C241.227 476.132 240.321 476.523 239.371 476.541C238.42 476.559 237.5 476.204 236.81 475.55V475.55Z" fill="#263238"/>
<path d="M362.824 317.911C359.904 313.762 357.4 309.335 355.348 304.695L358.666 234.695C358.666 234.219 358.666 233.757 358.764 233.295C359.575 225.257 363.183 217.759 368.958 212.11C374.733 206.46 382.308 203.018 390.362 202.383C391.104 202.383 391.846 202.285 392.588 202.285H465.262C469.587 204.61 473.691 207.324 477.526 210.391C486.233 217.371 493.371 226.108 498.475 236.032C503.578 245.957 506.532 256.845 507.144 267.988C507.755 279.131 506.011 290.278 502.024 300.701C498.038 311.124 491.899 320.59 484.008 328.481C482.79 329.699 481.572 330.847 480.298 331.953C471.912 339.324 462.065 344.844 451.402 348.153C440.738 351.461 429.496 352.483 418.411 351.153C407.325 349.823 396.644 346.169 387.066 340.432C377.488 334.694 369.227 327.001 362.824 317.855V317.911Z" fill="#0082CB"/>
<path d="M371.742 328.536C368.465 325.261 365.481 321.705 362.824 317.91L366.772 234.75C367.134 228.227 369.964 222.085 374.688 217.572C379.412 213.058 385.676 210.511 392.21 210.446H477.526C486.233 217.426 493.371 226.163 498.475 236.087C503.578 246.012 506.532 256.901 507.144 268.043C507.755 279.186 506.011 290.333 502.024 300.756C498.038 311.18 491.899 320.645 484.008 328.536C482.79 329.754 481.572 330.902 480.298 332.008C465.151 345.336 445.498 352.394 425.333 351.749C405.168 351.105 386.006 342.804 371.742 328.536V328.536Z" fill="white"/>
<path opacity="0.6" d="M484.008 328.537C482.79 329.755 481.572 330.902 480.298 332.008H390.698C389.902 332.015 389.112 331.859 388.379 331.549C387.646 331.239 386.984 330.782 386.434 330.206C385.884 329.63 385.458 328.947 385.183 328.2C384.907 327.453 384.788 326.658 384.832 325.862L387.8 262.695C387.892 261.048 388.608 259.497 389.801 258.359C390.994 257.22 392.576 256.578 394.226 256.562H505.652C508.283 269.414 507.683 282.717 503.906 295.279C500.128 307.841 493.291 319.269 484.008 328.537Z" fill="#0082CB"/>
<path opacity="0.5" d="M371.742 328.551C360.636 317.448 353.073 303.302 350.008 287.9C346.943 272.499 348.514 256.534 354.522 242.026C360.531 227.517 370.707 215.116 383.764 206.391C396.82 197.667 412.171 193.01 427.875 193.01C443.578 193.01 458.929 197.667 471.986 206.391C485.042 215.116 495.218 227.517 501.227 242.026C507.236 256.534 508.807 272.499 505.742 287.9C502.677 303.302 495.113 317.448 484.008 328.551C469.117 343.432 448.927 351.792 427.875 351.792C406.823 351.792 386.632 343.432 371.742 328.551V328.551Z" fill="white"/>
<path d="M458.654 283.582C447.146 295.09 434.042 294.166 425.39 285.5C416.738 276.834 415.8 263.8 427.308 252.236C438.816 240.672 455.168 238.418 463.82 247.07C472.472 255.722 470.162 272.074 458.654 283.582Z" fill="#263238"/>
<path d="M455.462 255.4C450.898 250.822 449.974 244.34 453.404 240.91C456.834 237.48 463.316 238.404 467.894 242.968C472.472 247.532 473.368 254.014 469.938 257.444C466.508 260.874 460.026 260.006 455.462 255.4Z" fill="#263238"/>
<path d="M451.808 260.847C451.534 260.84 451.266 260.771 451.023 260.645C450.78 260.519 450.57 260.339 450.408 260.119L435.918 239.903C435.664 239.545 435.554 239.106 435.61 238.671L437.08 226.211C437.098 225.972 437.164 225.739 437.275 225.526C437.386 225.314 437.538 225.126 437.724 224.974C437.909 224.821 438.123 224.708 438.353 224.641C438.583 224.574 438.824 224.553 439.062 224.582C439.301 224.61 439.53 224.686 439.738 224.806C439.946 224.925 440.128 225.085 440.272 225.277C440.416 225.468 440.52 225.687 440.578 225.92C440.636 226.152 440.646 226.394 440.608 226.631L439.208 238.405L453.292 258.005C453.566 258.388 453.677 258.863 453.601 259.328C453.525 259.792 453.267 260.208 452.886 260.483C452.577 260.721 452.197 260.849 451.808 260.847V260.847Z" fill="#263238"/>
<path d="M472.024 275.337C471.653 275.34 471.291 275.228 470.988 275.015L450.8 260.525C450.588 260.4 450.404 260.232 450.26 260.031C450.117 259.831 450.016 259.604 449.965 259.363C449.915 259.122 449.914 258.873 449.964 258.632C450.015 258.391 450.115 258.163 450.258 257.962C450.401 257.762 450.584 257.593 450.796 257.467C451.007 257.341 451.243 257.26 451.487 257.23C451.732 257.2 451.98 257.221 452.216 257.292C452.451 257.362 452.67 257.481 452.858 257.641L472.458 271.725L484.232 270.325C484.689 270.29 485.142 270.433 485.497 270.724C485.851 271.015 486.079 271.432 486.134 271.888C486.188 272.343 486.064 272.802 485.788 273.168C485.512 273.535 485.105 273.78 484.652 273.853L472.192 275.253L472.024 275.337Z" fill="#263238"/>
<path d="M440.244 272.411C439.878 272.414 439.52 272.301 439.222 272.089L419.622 257.991L407.848 259.391C407.382 259.447 406.913 259.315 406.544 259.025C406.175 258.735 405.936 258.31 405.881 257.844C405.825 257.378 405.957 256.909 406.247 256.54C406.537 256.171 406.962 255.933 407.428 255.877L419.888 254.393C420.328 254.344 420.772 254.458 421.134 254.715L441.336 269.205C441.643 269.422 441.874 269.731 441.993 270.088C442.112 270.446 442.114 270.831 441.998 271.19C441.883 271.548 441.655 271.86 441.35 272.079C441.044 272.299 440.676 272.415 440.3 272.411H440.244Z" fill="#263238"/>
<path d="M453.264 305.073H453.054C452.823 305.047 452.599 304.976 452.396 304.863C452.193 304.75 452.014 304.598 451.869 304.416C451.725 304.234 451.618 304.025 451.554 303.802C451.491 303.578 451.472 303.344 451.5 303.113L452.9 291.339L438.802 271.739C438.533 271.354 438.426 270.878 438.504 270.414C438.583 269.951 438.841 269.537 439.222 269.261C439.41 269.126 439.623 269.029 439.849 268.976C440.075 268.923 440.309 268.915 440.538 268.953C440.767 268.991 440.986 269.073 441.183 269.196C441.38 269.318 441.551 269.479 441.686 269.667L456.176 289.869C456.439 290.228 456.554 290.674 456.498 291.115L455.014 303.575C454.95 303.993 454.738 304.374 454.417 304.649C454.096 304.924 453.687 305.075 453.264 305.073V305.073Z" fill="#263238"/>
<path d="M473.06 293.662C472.826 293.663 472.594 293.617 472.378 293.528C472.162 293.439 471.965 293.309 471.8 293.144L417.746 239.09C417.415 238.757 417.229 238.306 417.229 237.837C417.229 237.367 417.415 236.917 417.746 236.584C417.91 236.418 418.105 236.287 418.32 236.197C418.535 236.108 418.766 236.062 418.999 236.062C419.232 236.062 419.462 236.108 419.677 236.197C419.892 236.287 420.088 236.418 420.252 236.584L474.306 290.638C474.471 290.802 474.602 290.997 474.692 291.212C474.782 291.427 474.828 291.658 474.828 291.891C474.828 292.124 474.782 292.355 474.692 292.57C474.602 292.785 474.471 292.98 474.306 293.144C474.143 293.31 473.95 293.441 473.735 293.53C473.521 293.619 473.291 293.664 473.06 293.662V293.662Z" fill="#263238"/>
<path d="M465.794 246.874C465.549 246.875 465.306 246.828 465.08 246.734C464.651 246.547 464.313 246.197 464.14 245.762C463.967 245.327 463.973 244.841 464.156 244.41C465.176 241.803 465.299 238.931 464.506 236.246C463.712 233.562 462.047 231.218 459.774 229.584C459.469 229.28 459.284 228.875 459.256 228.444C459.227 228.014 459.356 227.588 459.618 227.246C459.88 226.903 460.257 226.667 460.68 226.583C461.103 226.498 461.542 226.569 461.916 226.784C464.826 228.892 466.948 231.912 467.945 235.365C468.942 238.817 468.756 242.504 467.418 245.838C467.275 246.149 467.046 246.412 466.758 246.595C466.47 246.779 466.135 246.876 465.794 246.874V246.874Z" fill="#263238"/>
<path d="M482.72 251.816C482.448 251.815 482.181 251.752 481.938 251.63C481.695 251.509 481.483 251.333 481.32 251.116C479.686 248.843 477.342 247.178 474.658 246.384C471.973 245.591 469.101 245.714 466.494 246.734C466.063 246.92 465.576 246.927 465.14 246.754C464.705 246.58 464.355 246.241 464.17 245.81C463.984 245.38 463.977 244.893 464.15 244.457C464.324 244.021 464.663 243.672 465.094 243.486C468.427 242.146 472.113 241.958 475.565 242.953C479.017 243.947 482.038 246.067 484.148 248.974C484.288 249.16 484.391 249.371 484.449 249.596C484.507 249.821 484.521 250.056 484.488 250.286C484.456 250.517 484.378 250.738 484.259 250.938C484.141 251.138 483.984 251.313 483.798 251.452C483.492 251.696 483.111 251.825 482.72 251.816V251.816Z" fill="#263238"/>
<path d="M490.826 209.466C478.377 197.019 462.516 188.542 445.25 185.108C427.984 181.674 410.087 183.438 393.822 190.175C377.558 196.912 363.657 208.321 353.876 222.959C344.096 237.597 338.876 254.806 338.876 272.41C338.876 290.015 344.096 307.224 353.876 321.862C363.657 336.5 377.558 347.909 393.822 354.646C410.087 361.383 427.984 363.147 445.25 359.713C462.516 356.279 478.377 347.802 490.826 335.354C499.092 327.089 505.649 317.276 510.123 306.476C514.597 295.676 516.9 284.1 516.9 272.41C516.9 260.721 514.597 249.145 510.123 238.345C505.649 227.545 499.092 217.732 490.826 209.466V209.466ZM374.808 325.484C364.307 314.987 357.156 301.611 354.258 287.049C351.359 272.486 352.845 257.392 358.526 243.674C364.207 229.956 373.829 218.23 386.174 209.981C398.519 201.731 413.034 197.328 427.882 197.328C442.73 197.328 457.244 201.731 469.589 209.981C481.935 218.23 491.556 229.956 497.237 243.674C502.918 257.392 504.404 272.486 501.506 287.049C498.608 301.611 491.456 314.987 480.956 325.484C473.986 332.455 465.712 337.984 456.605 341.756C447.499 345.528 437.739 347.47 427.882 347.47C418.025 347.47 408.264 345.528 399.158 341.756C390.051 337.984 381.777 332.455 374.808 325.484Z" fill="#0082CB"/>
<path d="M275.184 332.876C274.036 341.164 269.248 360.162 252.784 403.492L200.144 392.67C204.82 373.84 207.508 361.324 207.144 326.632C207.118 324.711 207.496 322.805 208.255 321.039C209.013 319.274 210.134 317.687 211.546 316.383C212.957 315.078 214.627 314.085 216.447 313.468C218.267 312.851 220.196 312.624 222.11 312.8C224.602 313.024 227.248 313.332 229.88 313.752C237.953 314.811 245.939 316.449 253.778 318.652C259.784 320.472 266.168 322.852 270.34 324.56C271.964 325.201 273.325 326.369 274.204 327.878C275.083 329.387 275.428 331.148 275.184 332.876Z" fill="#2DB1FF"/>
<path d="M277.2 336.236C277.634 339.344 278.166 342.788 278.796 346.036C279.426 349.284 280.126 352.588 280.952 355.836C281.764 358.993 282.741 362.105 283.878 365.16C284.9 368.048 286.204 370.829 287.77 373.462C288.479 374.625 289.279 375.73 290.164 376.766L290.808 377.424C291.032 377.662 291.13 377.718 291.284 377.886C291.686 378.206 292.112 378.497 292.558 378.754C295.126 380.039 297.88 380.913 300.72 381.344C307.296 382.371 313.944 382.858 320.6 382.8L321.58 389.422C314.409 391.294 307.008 392.133 299.6 391.914C295.436 391.82 291.322 390.99 287.448 389.464C286.308 388.973 285.216 388.377 284.186 387.686C283.648 387.316 283.129 386.919 282.632 386.496L281.358 385.348C279.839 383.823 278.448 382.174 277.2 380.42C273.018 373.933 269.899 366.82 267.96 359.35C266.952 355.794 266.042 352.224 265.384 348.626C264.726 345.028 264.096 341.514 263.718 337.664L277.2 336.236Z" fill="#FFBE9D"/>
<path d="M271.404 325.26C282.506 332.68 282.52 351.006 282.52 351.006L259.798 365.146C259.798 365.146 253.498 348.066 255.262 335.13C256.284 327.584 264.6 320.682 271.404 325.26Z" fill="#0082CB"/>
<path d="M317.604 382.801L331.912 382.213L324.8 393.119C324.8 393.119 317.352 392.125 315.686 387.015L317.604 382.801Z" fill="#FFBE9D"/>
<path d="M336.938 390.416L335.538 392.39C335.076 393.052 334.437 393.57 333.694 393.884C332.951 394.199 332.134 394.297 331.338 394.168L324.702 393.118L331.884 382.17L335.51 384.242C336.028 384.535 336.48 384.933 336.837 385.411C337.194 385.888 337.447 386.434 337.582 387.015C337.716 387.595 337.728 388.198 337.617 388.783C337.506 389.369 337.275 389.925 336.938 390.416Z" fill="#FFBE9D"/>
<path d="M268.1 278.556C268.1 279.62 268.772 280.46 269.5 280.418C270.228 280.376 270.704 279.48 270.648 278.416C270.592 277.352 269.99 276.526 269.248 276.554C268.506 276.582 268.044 277.492 268.1 278.556Z" fill="#263238"/>
<path d="M268.954 276.639L271.474 275.757C271.474 275.757 270.27 277.801 268.954 276.639Z" fill="#263238"/>
<path d="M269.136 280.88C270.222 283.263 271.635 285.482 273.336 287.474C272.814 287.894 272.206 288.195 271.555 288.354C270.905 288.514 270.227 288.529 269.57 288.398L269.136 280.88Z" fill="#FFBE9D"/>
<path d="M268.926 286.775C265.664 286.775 263.102 282.211 263.102 276.373C263.102 270.535 265.664 265.971 268.926 265.971C272.188 265.971 274.736 270.549 274.736 276.373C274.736 282.197 272.188 286.775 268.926 286.775ZM268.926 266.727C266.126 266.727 263.858 271.053 263.858 276.373C263.858 281.693 266.126 286.033 268.926 286.033C271.726 286.033 273.994 281.693 273.994 276.373C273.994 271.053 271.726 266.727 268.926 266.727Z" fill="#0082CB"/>
<path d="M264.04 275.966C264.174 275.982 264.309 275.954 264.425 275.886C264.542 275.818 264.632 275.713 264.684 275.588C265.846 272.942 269.514 272.172 269.542 272.172C269.705 272.139 269.848 272.042 269.94 271.902C270.032 271.763 270.065 271.594 270.032 271.43C269.998 271.267 269.901 271.124 269.762 271.032C269.623 270.94 269.453 270.907 269.29 270.94C269.122 270.94 264.964 271.85 263.536 275.14C263.501 275.215 263.482 275.297 263.479 275.379C263.477 275.462 263.491 275.545 263.521 275.622C263.551 275.699 263.597 275.769 263.654 275.828C263.712 275.887 263.781 275.934 263.858 275.966C263.918 275.978 263.98 275.978 264.04 275.966V275.966Z" fill="#263238"/>
<path d="M231.826 276.54C233.324 289.588 233.674 295.146 240.632 301.516C251.104 311.106 266.812 306.416 269.248 293.186C271.446 281.286 268.646 261.938 255.556 257.402C252.675 256.388 249.582 256.127 246.572 256.644C243.562 257.162 240.734 258.439 238.356 260.357C235.979 262.274 234.131 264.768 232.988 267.6C231.845 270.432 231.445 273.51 231.826 276.54V276.54Z" fill="#FFBE9D"/>
<path d="M263.48 281.482C269.542 272.172 272.608 260.636 266.77 253.832C260.932 247.028 252.112 253.832 252.112 253.832C252.112 253.832 228.536 245.278 220.892 255.232C209.818 269.554 224.308 278.626 220.752 282.616C217.196 286.606 212.352 292.178 216.734 300.48C221.55 309.538 258.258 302.552 263.48 312.982C278.866 312.072 270.858 287.04 263.48 281.482Z" fill="#263238"/>
<path d="M219.072 286.397C218.981 286.397 218.892 286.367 218.82 286.313C218.749 286.242 218.71 286.146 218.71 286.047C218.71 285.947 218.749 285.852 218.82 285.781C219.926 284.549 218.988 282.645 217.672 279.999C215.292 275.155 211.68 267.833 218.946 258.425C219.016 258.355 219.112 258.315 219.212 258.315C219.311 258.315 219.407 258.355 219.478 258.425C219.517 258.454 219.55 258.49 219.575 258.532C219.6 258.574 219.616 258.621 219.622 258.669C219.629 258.717 219.626 258.766 219.613 258.814C219.6 258.861 219.578 258.905 219.548 258.943C212.548 267.987 215.908 274.777 218.344 279.747C219.744 282.547 220.822 284.745 219.38 286.341C219.336 286.373 219.286 286.395 219.232 286.405C219.179 286.415 219.124 286.412 219.072 286.397V286.397Z" fill="#263238"/>
<path d="M268.884 311.401C268.144 311.391 267.408 311.306 266.686 311.149C266.637 311.139 266.591 311.119 266.549 311.091C266.508 311.063 266.473 311.027 266.446 310.986C266.419 310.944 266.4 310.898 266.39 310.849C266.381 310.8 266.381 310.75 266.392 310.701C266.402 310.652 266.421 310.606 266.449 310.565C266.477 310.524 266.513 310.488 266.555 310.461C266.596 310.434 266.643 310.415 266.692 310.406C266.741 310.396 266.791 310.397 266.84 310.407C270.116 311.121 272.244 310.253 273.168 307.845C275.688 301.265 268.534 285.319 262.808 282.071C262.731 282.017 262.677 281.937 262.656 281.846C262.634 281.755 262.648 281.66 262.693 281.578C262.738 281.496 262.812 281.434 262.901 281.403C262.989 281.373 263.086 281.376 263.172 281.413C269.248 284.857 276.542 301.125 273.868 308.111C273.513 309.131 272.834 310.005 271.933 310.6C271.032 311.195 269.96 311.476 268.884 311.401Z" fill="#263238"/>
<path d="M260.4 280.6C260.315 280.599 260.233 280.57 260.167 280.516C260.101 280.463 260.055 280.389 260.036 280.306C259.934 279.933 259.92 279.542 259.995 279.163C260.071 278.784 260.233 278.428 260.47 278.122C261.996 276.106 266.896 274.958 275.058 274.706C275.106 274.702 275.154 274.709 275.2 274.724C275.246 274.74 275.288 274.765 275.323 274.798C275.359 274.831 275.387 274.871 275.407 274.915C275.426 274.96 275.436 275.008 275.436 275.056C275.44 275.106 275.433 275.157 275.416 275.204C275.4 275.252 275.374 275.295 275.339 275.332C275.305 275.369 275.264 275.398 275.218 275.418C275.172 275.438 275.122 275.448 275.072 275.448C265.272 275.756 262.01 277.324 261.072 278.57C260.9 278.786 260.782 279.039 260.728 279.31C260.675 279.58 260.687 279.859 260.764 280.124C260.776 280.173 260.779 280.224 260.771 280.273C260.764 280.323 260.747 280.371 260.721 280.414C260.695 280.457 260.66 280.494 260.62 280.524C260.579 280.554 260.533 280.575 260.484 280.586L260.4 280.6Z" fill="#0082CB"/>
<path d="M261.884 283.47C262.532 284.504 263.391 285.389 264.404 286.069C265.417 286.749 266.562 287.209 267.764 287.418C270.102 287.782 269.458 284.226 268.338 280.908C267.33 277.926 264.88 274.132 262.738 275.308C260.596 276.484 260.4 280.6 261.884 283.47Z" fill="#FFBE9D"/>
<path d="M136.738 626.4C137.853 626.624 139.012 626.451 140.014 625.91C140.238 625.752 140.42 625.543 140.544 625.299C140.669 625.055 140.732 624.784 140.728 624.51C140.741 624.338 140.708 624.165 140.631 624.01C140.555 623.854 140.438 623.723 140.294 623.628C138.768 622.578 133.294 624.734 132.622 625.028C132.559 625.047 132.504 625.087 132.465 625.139C132.426 625.192 132.405 625.256 132.405 625.322C132.405 625.388 132.426 625.451 132.465 625.504C132.504 625.557 132.559 625.596 132.622 625.616C133.965 626.008 135.344 626.27 136.738 626.4V626.4ZM139.37 623.922C139.569 623.922 139.763 623.981 139.93 624.09C139.99 624.128 140.039 624.182 140.072 624.246C140.104 624.311 140.117 624.382 140.112 624.454C140.118 624.638 140.079 624.821 139.998 624.987C139.918 625.153 139.798 625.297 139.65 625.406C138.782 626.05 136.598 625.952 133.728 625.182C135.518 624.418 137.427 623.968 139.37 623.852V623.922Z" fill="#0082CB"/>
<path d="M132.706 625.461H132.832C134.484 624.901 137.872 622.381 137.774 620.869C137.774 620.505 137.55 620.043 136.696 619.861C136.39 619.798 136.075 619.798 135.769 619.86C135.463 619.923 135.174 620.047 134.918 620.225C133.112 621.443 132.454 624.957 132.426 625.111C132.42 625.154 132.422 625.197 132.433 625.238C132.444 625.279 132.463 625.318 132.489 625.352C132.515 625.386 132.548 625.414 132.585 625.435C132.622 625.457 132.663 625.47 132.706 625.475V625.461ZM136.374 620.435H136.57C137.13 620.547 137.144 620.785 137.144 620.855C137.144 621.765 134.876 623.795 133.182 624.607C133.473 623.155 134.2 621.826 135.268 620.799C135.578 620.544 135.972 620.414 136.374 620.435V620.435Z" fill="#0082CB"/>
<path d="M117.404 627.969L130.382 630.503L144.732 598.513L131.754 595.993L117.404 627.969Z" fill="#FFBE9D"/>
<path d="M133.714 624.832L119.714 619.876C119.604 619.828 119.485 619.804 119.366 619.807C119.246 619.81 119.129 619.839 119.022 619.892C118.915 619.946 118.821 620.022 118.747 620.116C118.673 620.21 118.621 620.32 118.594 620.436L114.394 631.384C114.263 632.012 114.359 632.665 114.664 633.229C114.969 633.792 115.463 634.23 116.06 634.464C120.96 636.102 126.056 636.9 132.412 638.454C137.503 639.799 142.73 640.564 147.994 640.736C153.426 640.736 152.754 635.234 150.332 634.744C139.51 632.518 138.544 630.544 135.674 626.344C135.193 625.649 134.508 625.121 133.714 624.832V624.832Z" fill="#263238"/>
<g opacity="0.2">
<path opacity="0.2" d="M144.718 598.527L137.326 615.005L124.348 612.485L131.74 595.993L144.718 598.527Z" fill="black"/>
</g>
<path d="M199.528 392.167C181.146 409.275 179.858 465.821 166.558 504.167C145.138 542.723 125.454 605.037 125.454 605.037L143.318 609.951C143.318 609.951 170.716 555.659 188.23 517.551C207.55 475.551 233.198 399.181 233.198 399.181L199.528 392.167Z" fill="#0082CB"/>
<path opacity="0.2" d="M212.436 421.314C212.089 431.695 212.745 442.084 214.396 452.338C217.77 443.196 220.892 434.474 223.594 426.872L212.436 421.314Z" fill="black"/>
<path d="M257.6 626.611C258.734 626.709 259.868 626.423 260.82 625.799C261.03 625.609 261.192 625.371 261.289 625.105C261.387 624.839 261.418 624.553 261.38 624.273C261.374 624.098 261.322 623.928 261.228 623.78C261.135 623.633 261.003 623.513 260.848 623.433C259.224 622.551 253.946 625.239 253.358 625.547C253.303 625.58 253.258 625.627 253.229 625.684C253.199 625.741 253.185 625.805 253.19 625.869C253.198 625.934 253.226 625.995 253.272 626.043C253.317 626.091 253.377 626.123 253.442 626.135C254.81 626.423 256.202 626.582 257.6 626.611V626.611ZM259.966 623.811C260.167 623.805 260.368 623.843 260.554 623.923C260.615 623.958 260.665 624.009 260.7 624.071C260.734 624.132 260.752 624.202 260.75 624.273C260.78 624.454 260.764 624.641 260.702 624.815C260.641 624.989 260.537 625.144 260.4 625.267C259.588 625.995 257.418 626.121 254.478 625.631C256.177 624.743 258.013 624.147 259.91 623.867L259.966 623.811Z" fill="#0082CB"/>
<path d="M253.4 626.134C253.44 626.149 253.485 626.149 253.526 626.134C255.108 625.434 258.23 622.578 257.992 621.08C257.922 620.716 257.67 620.282 256.802 620.184C256.493 620.155 256.181 620.188 255.885 620.282C255.589 620.376 255.315 620.528 255.08 620.73C253.414 622.13 253.106 625.672 253.092 625.826C253.085 625.88 253.093 625.935 253.115 625.984C253.137 626.033 253.173 626.076 253.218 626.106C253.274 626.134 253.337 626.144 253.4 626.134V626.134ZM256.55 620.772H256.746C257.32 620.772 257.348 621.052 257.362 621.136C257.516 622.032 255.402 624.272 253.792 625.252C253.914 623.748 254.501 622.319 255.472 621.164C255.789 620.913 256.187 620.784 256.592 620.8L256.55 620.772Z" fill="#0082CB"/>
<path d="M239.498 629.046L252.588 631.02L258.916 600.976L245.826 599.002L239.498 629.046Z" fill="#FFBE9D"/>
<path d="M254.8 625.686H239.918C239.661 625.68 239.411 625.771 239.217 625.939C239.023 626.107 238.899 626.341 238.868 626.596L237.174 638.356C237.14 638.653 237.17 638.953 237.261 639.238C237.352 639.523 237.502 639.785 237.702 640.007C237.902 640.229 238.146 640.407 238.42 640.527C238.693 640.648 238.989 640.71 239.288 640.708C244.468 640.624 246.974 640.316 253.512 640.316C257.53 640.316 266.728 640.736 272.286 640.736C277.844 640.736 278.138 635.234 275.828 634.744C265.454 632.518 260.428 629.438 256.998 626.498C256.383 625.978 255.605 625.69 254.8 625.686V625.686Z" fill="#263238"/>
<g opacity="0.2">
<path opacity="0.2" d="M258.902 600.991L255.654 616.475L242.564 614.501L245.812 599.017L258.902 600.991Z" fill="black"/>
</g>
<path d="M252.742 403.493C252.742 403.493 287 469.769 283.206 509.893C279.258 551.697 258.006 612.653 258.006 612.653L242.06 609.769C242.06 609.769 254.212 532.643 261.66 504.083C243.25 461.663 189.602 445.591 214.06 395.513C221.354 396.801 252.742 403.493 252.742 403.493Z" fill="#0082CB"/>
<path d="M239.568 611.602L260.33 614.738L262.584 606.716L239.708 604.924L239.568 611.602Z" fill="#263238"/>
<path d="M123.088 608.733L143.234 614.613L147.728 606.773L124.67 602.307L123.088 608.733Z" fill="#263238"/>
<path d="M199.948 389.424L197.624 393.862C197.372 394.184 197.722 394.646 198.338 394.772L252.518 405.902C252.994 406 253.442 405.902 253.526 405.552L254.926 400.946C255.024 400.624 254.674 400.26 254.156 400.162L200.844 389.2C200.687 389.163 200.524 389.164 200.368 389.203C200.213 389.242 200.068 389.318 199.948 389.424V389.424Z" fill="white"/>
<path d="M205.884 396.801L204.484 396.507C204.19 396.507 204.008 396.255 204.064 396.087L205.996 390.095C205.996 389.927 206.332 389.829 206.612 389.885L208.012 390.179C208.292 390.179 208.488 390.431 208.432 390.599L206.5 396.591C206.444 396.801 206.164 396.913 205.884 396.801Z" fill="#0082CB"/>
<path d="M248.402 405.593L247.002 405.299C246.722 405.299 246.526 405.047 246.582 404.879L248.514 398.887C248.514 398.705 248.85 398.621 249.13 398.677L250.53 398.971C250.824 398.971 251.006 399.223 250.95 399.391L249.018 405.383C248.962 405.551 248.682 405.649 248.402 405.593Z" fill="#0082CB"/>
<path d="M227.136 401.225L225.736 400.931C225.456 400.931 225.274 400.679 225.33 400.511L227.248 394.519C227.248 394.351 227.584 394.253 227.878 394.309L229.278 394.603C229.558 394.603 229.74 394.855 229.684 395.023L227.766 401.001C227.71 401.183 227.43 401.281 227.136 401.225Z" fill="#0082CB"/>
</svg>
