<svg viewBox="0 0 51 50" fill="none" xmlns="http://www.w3.org/2000/svg">
<path d="M45.7053 1.27772C41.1687 -1.35245 35.3657 0.208584 32.7477 4.76118C31.8984 6.23588 33.0508 8.23058 35.0826 10.0998C32.1975 8.57291 28.9204 7.69853 25.4402 7.69853C21.9599 7.69853 18.6828 8.57291 15.7988 10.1008C17.8305 8.23159 18.9819 6.23688 18.1336 4.76218C15.5147 0.208584 9.71263 -1.35245 5.17504 1.27772C0.639443 3.90386 -0.915104 9.72938 1.70282 14.282C2.92725 16.4082 7.16774 15.4625 11.0701 13.3865L11.1281 13.4879C7.18374 17.2765 4.71187 22.5981 4.71187 28.4999C4.71187 34.0745 6.91965 39.131 10.4879 42.8684L4.96496 48.8214L6.13838 50L13.62 45.5659C16.9752 47.9149 21.0466 49.3033 25.4402 49.3033C29.8347 49.3033 33.9051 47.9149 37.2603 45.5659L44.742 50L45.9154 48.8214L40.3924 42.8674C43.9607 39.129 46.1685 34.0724 46.1685 28.4989C46.1685 22.5981 43.6956 17.2765 39.7522 13.4869L39.8102 13.3855C43.7126 15.4615 47.9531 16.4072 49.1775 14.281C51.7964 9.72938 50.2409 3.90386 45.7053 1.27772ZM25.4402 12.6908C34.1272 12.6908 41.1937 19.7812 41.1937 28.4999C41.1937 37.2166 34.1272 44.31 25.4402 44.31C16.7541 44.31 9.68662 37.2156 9.68662 28.4989C9.68662 19.7812 16.7541 12.6908 25.4402 12.6908Z" fill="#2DB1FF"/>
<path d="M25.4404 32.3059C27.5371 32.3059 29.2347 30.6003 29.2347 28.4982C29.2347 26.7725 28.0843 25.3319 26.5148 24.8631V16.2017H24.366V24.8631C23.1406 25.2295 22.1832 26.1893 21.8201 27.418H16.5522V29.5743H21.8201C22.2853 31.1504 23.7208 32.3059 25.4404 32.3059Z" fill="#2DB1FF"/>
</svg>
