<svg viewBox="0 0 50 51" fill="none" xmlns="http://www.w3.org/2000/svg">
<path d="M16.2122 9.56396C15.4038 9.56396 14.7473 10.2706 14.7473 11.1406C14.7473 12.0106 15.4038 12.7172 16.2122 12.7172C17.0205 12.7172 17.677 12.0106 17.677 11.1406C17.677 10.2706 17.0205 9.56396 16.2122 9.56396Z" fill="#2DB1FF"/>
<path d="M33.0764 19.9724L34.5413 22.1801H44.0414V19.903L38.182 12.2803L33.0764 19.9724Z" fill="#2DB1FF"/>
<path d="M44.0442 25.3319H33.0365L26.4661 15.4321L19.8956 25.3319H5.95825V31.6384H44.0442V25.3319Z" fill="#2DB1FF"/>
<path d="M26.4661 10.0049L31.2794 17.2581L38.1848 6.85168L44.0442 14.814V0H5.95825V22.1776H18.3881L26.4661 10.0049ZM11.8176 11.1414C11.8176 8.5334 13.7891 6.41155 16.2122 6.41155C18.6352 6.41155 20.6067 8.5334 20.6067 11.1414C20.6067 13.7494 18.6352 15.8712 16.2122 15.8712C13.7891 15.8712 11.8176 13.7494 11.8176 11.1414Z" fill="#2DB1FF"/>
<path d="M44.043 34.7871V41.0935H41.1133V34.7871H38.1836V44.2468H35.2539V34.7871H32.3242V41.0935H29.3945V34.7871H26.4648V44.2468H23.5352V34.7871H20.6055V41.0935H17.6758V34.7871H14.7461V44.2468H11.8164V34.7871H8.88672V41.0935H5.95703V34.7871H0V50.5532H50V34.7871H44.043Z" fill="#2DB1FF"/>
</svg>
