<svg viewBox="0 0 51 50" fill="none" xmlns="http://www.w3.org/2000/svg">
<path d="M32.4913 26.4648C31.8123 29.8038 28.7631 32.3242 25.2347 32.3242C21.7063 32.3242 18.7546 29.8038 18.0756 26.4648H15.1526C15.8694 31.4209 20.095 35.2539 25.2347 35.2539C30.3745 35.2539 34.6975 31.4209 35.4143 26.4648H32.4913Z" fill="#2DB1FF"/>
<path d="M38.3371 26.4648C37.5993 33.0386 31.9871 38.1836 25.2348 38.1836C18.4824 38.1836 12.9676 33.0386 12.2298 26.4648H0.293457V27.9297C0.293457 28.5605 0.697389 29.1213 1.29394 29.3201L7.30694 31.2871C7.55956 32.0053 7.82642 32.659 8.11188 33.2626L5.33745 38.8502C5.05774 39.4138 5.169 40.0933 5.61287 40.5382L9.73306 44.6681C10.1798 45.1158 10.8562 45.2217 11.4171 44.9441L16.9916 42.1632C17.5939 42.4493 18.246 42.7168 18.9624 42.97L20.9248 48.9972C21.1232 49.5951 21.6826 50 22.312 50H28.255C28.8844 50 29.4438 49.5951 29.6422 48.9972L31.6045 42.97C32.321 42.7168 32.9732 42.4493 33.5754 42.1632L39.1499 44.9441C39.7108 45.223 40.3887 45.1158 40.8339 44.6681L44.9541 40.5382C45.398 40.0933 45.5092 39.4138 45.2295 38.8502L42.4551 33.2626C42.7406 32.6589 43.0074 32.0052 43.26 31.2871L49.1756 29.3201C49.7722 29.1213 50.1761 28.5605 50.1761 27.9297V26.4648H38.3371Z" fill="#2DB1FF"/>
<path d="M21.1199 26.4648C21.7252 28.1662 23.3321 29.3945 25.2349 29.3945C27.1376 29.3945 28.842 28.1662 29.4473 26.4648H21.1199Z" fill="#2DB1FF"/>
<path d="M25.2348 0C22.0108 0 19.3892 2.62783 19.3892 5.85938C19.3892 9.09092 22.0108 11.7188 25.2348 11.7188C28.4587 11.7188 31.1778 9.09092 31.1778 5.85938C31.1778 2.62783 28.4587 0 25.2348 0Z" fill="#2DB1FF"/>
<path d="M39.9462 0C36.7222 0 34.1006 2.62783 34.1006 5.85938C34.1006 9.09092 36.7222 11.7188 39.9462 11.7188C43.1702 11.7188 45.7918 9.09092 45.7918 5.85938C45.7918 2.62783 43.1702 0 39.9462 0Z" fill="#2DB1FF"/>
<path d="M10.6205 0C7.39657 0 4.7749 2.62783 4.7749 5.85938C4.7749 9.09092 7.39657 11.7188 10.6205 11.7188C13.8445 11.7188 16.4661 9.09092 16.4661 5.85938C16.4661 2.62783 13.8445 0 10.6205 0Z" fill="#2DB1FF"/>
<path d="M44.9314 13.0742C43.514 14.0614 41.7997 14.6481 39.9466 14.6481C38.1011 14.6481 36.3923 14.0677 34.9781 13.088C34.3371 13.4568 33.7211 13.8716 33.1633 14.3717C36.0054 16.5012 37.9786 19.827 38.3959 23.5349H50.1764V22.07C50.1764 18.2396 48.0446 14.8345 44.9314 13.0742Z" fill="#2DB1FF"/>
<path d="M25.2351 14.6484C20.0901 14.6484 15.8201 18.5728 15.1094 23.5352H35.4581C34.7474 18.5728 30.38 14.6484 25.2351 14.6484Z" fill="#2DB1FF"/>
<path d="M15.5892 13.088C14.1751 14.0677 12.4662 14.6481 10.6207 14.6481C8.76756 14.6481 7.05333 14.0614 5.63587 13.0742C2.52268 14.8345 0.293457 18.2396 0.293457 22.07V23.5349H12.1714C12.5887 19.827 14.5619 16.5012 17.404 14.3717C16.8461 13.8716 16.2302 13.4568 15.5892 13.088Z" fill="#2DB1FF"/>
</svg>
