<svg width="567" height="553" viewBox="0 0 567 553" fill="none" xmlns="http://www.w3.org/2000/svg">
<path d="M285.947 552.734C417.913 552.734 524.893 546.488 524.893 538.784C524.893 531.079 417.913 524.833 285.947 524.833C153.98 524.833 47 531.079 47 538.784C47 546.488 153.98 552.734 285.947 552.734Z" fill="#F5F5F5"/>
<path d="M346.983 421.475H317.786V421.783H346.983V421.475Z" fill="#EBEBEB"/>
<path d="M16.7208 424.777H7.08997V425.085H16.7208V424.777Z" fill="#EBEBEB"/>
<path d="M180.673 416.09H38.1428V416.398H180.673V416.09Z" fill="#EBEBEB"/>
<path d="M274.708 348.178H29.4053C27.4836 348.175 25.6418 347.433 24.2841 346.115C22.9265 344.797 22.1639 343.011 22.1639 341.148V6.96849C22.1807 5.11682 22.9506 3.34633 24.3064 2.04157C25.6623 0.736811 27.4945 0.003172 29.4053 0H274.708C276.632 0 278.477 0.740664 279.838 2.05905C281.198 3.37744 281.962 5.16556 281.962 7.03005V341.148C281.962 343.013 281.198 344.801 279.838 346.119C278.477 347.438 276.632 348.178 274.708 348.178ZM29.4053 0.246237C27.5678 0.249499 25.8068 0.959171 24.5087 2.21949C23.2106 3.4798 22.4815 5.18777 22.4815 6.96849V341.148C22.4815 342.929 23.2106 344.637 24.5087 345.897C25.8068 347.158 27.5678 347.867 29.4053 347.871H274.708C276.547 347.867 278.309 347.158 279.609 345.898C280.909 344.638 281.641 342.93 281.645 341.148V6.96849C281.641 5.18664 280.909 3.4787 279.609 2.21873C278.309 0.958771 276.547 0.249492 274.708 0.246237H29.4053Z" fill="#EBEBEB"/>
<path d="M530.176 348.178H297.349C295.524 348.175 293.775 347.433 292.485 346.116C291.194 344.798 290.468 343.012 290.465 341.148V6.96849C290.484 5.1157 291.217 3.34522 292.506 2.0408C293.795 0.736381 295.535 0.00313741 297.349 0H530.176C531.988 0.00640768 533.724 0.741478 535.008 2.04589C536.292 3.3503 537.021 5.11895 537.037 6.96849V341.148C537.037 343.009 536.315 344.793 535.029 346.111C533.743 347.428 531.998 348.172 530.176 348.178ZM297.349 0.246237C295.604 0.249492 293.932 0.958771 292.698 2.21873C291.464 3.4787 290.769 5.18664 290.766 6.96849V341.148C290.769 342.93 291.464 344.638 292.698 345.898C293.932 347.158 295.604 347.867 297.349 347.871H530.176C531.921 347.867 533.594 347.158 534.828 345.898C536.062 344.638 536.756 342.93 536.76 341.148V6.96849C536.756 5.18664 536.062 3.4787 534.828 2.21873C533.594 0.958771 531.921 0.249492 530.176 0.246237H297.349Z" fill="#EBEBEB"/>
<path d="M552.516 31.3149H11.4413C5.12246 31.3149 0 35.4641 0 40.5824V370.319C0 375.437 5.12246 379.586 11.4413 379.586H552.516C558.835 379.586 563.957 375.437 563.957 370.319V40.5824C563.957 35.4641 558.835 31.3149 552.516 31.3149Z" fill="#0082CB"/>
<path d="M555.559 31.3149H14.4842C8.16531 31.3149 3.04285 35.4641 3.04285 40.5824V370.319C3.04285 375.437 8.16531 379.586 14.4842 379.586H555.559C561.878 379.586 567 375.437 567 370.319V40.5824C567 35.4641 561.878 31.3149 555.559 31.3149Z" fill="#0082CB"/>
<path d="M3.04285 55.2847V370.318C3.05489 372.772 4.26467 375.123 6.40816 376.856C8.55165 378.59 11.4549 379.567 14.4842 379.574H555.544C558.576 379.567 561.481 378.589 563.625 376.852C565.769 375.116 566.977 372.762 566.985 370.306V55.2847H3.04285Z" fill="#0082CB"/>
<path d="M564.885 67.6084H5.15771V367.262H564.885V67.6084Z" fill="#F9F9F9"/>
<path d="M544.68 339.288H25.3474C25.3221 339.288 25.297 339.283 25.2738 339.275C25.2506 339.267 25.2298 339.255 25.2126 339.24C25.1954 339.225 25.1823 339.207 25.1741 339.188C25.1659 339.168 25.1627 339.148 25.1648 339.127V95.7319C25.1648 95.6926 25.1841 95.655 25.2183 95.6273C25.2525 95.5996 25.299 95.584 25.3474 95.584H357.222C357.27 95.584 357.317 95.5996 357.351 95.6273C357.385 95.655 357.405 95.6926 357.405 95.7319C357.407 95.7523 357.404 95.7729 357.395 95.7923C357.387 95.8117 357.374 95.8294 357.357 95.8445C357.34 95.8596 357.319 95.8716 357.296 95.8798C357.272 95.888 357.247 95.8922 357.222 95.8921H25.5452V338.979H544.483V95.8921H480.308C480.282 95.8922 480.257 95.888 480.234 95.8798C480.211 95.8716 480.19 95.8596 480.173 95.8445C480.156 95.8294 480.143 95.8117 480.134 95.7923C480.126 95.7729 480.123 95.7523 480.125 95.7319C480.125 95.6926 480.144 95.655 480.179 95.6273C480.213 95.5996 480.259 95.584 480.308 95.584H544.68C544.729 95.584 544.775 95.5996 544.809 95.6273C544.844 95.655 544.863 95.6926 544.863 95.7319V339.127C544.865 339.148 544.862 339.168 544.854 339.188C544.845 339.207 544.832 339.225 544.815 339.24C544.798 339.255 544.777 339.267 544.754 339.275C544.731 339.283 544.706 339.288 544.68 339.288Z" fill="#EBEBEB"/>
<path d="M28.1468 48.297C31.508 48.297 34.2327 46.09 34.2327 43.3675C34.2327 40.645 31.508 38.438 28.1468 38.438C24.7857 38.438 22.061 40.645 22.061 43.3675C22.061 46.09 24.7857 48.297 28.1468 48.297Z" fill="#F9F9F9"/>
<path d="M49.7059 48.297C53.067 48.297 55.7917 46.09 55.7917 43.3675C55.7917 40.645 53.067 38.438 49.7059 38.438C46.3448 38.438 43.6201 40.645 43.6201 43.3675C43.6201 46.09 46.3448 48.297 49.7059 48.297Z" fill="#F9F9F9"/>
<path d="M71.2649 48.297C74.626 48.297 77.3507 46.09 77.3507 43.3675C77.3507 40.645 74.626 38.438 71.2649 38.438C67.9038 38.438 65.1791 40.645 65.1791 43.3675C65.1791 46.09 67.9038 48.297 71.2649 48.297Z" fill="#F9F9F9"/>
<path d="M567 54.6689H3.04285V55.9013H567V54.6689Z" fill="#EBEBEB"/>
<path d="M175.804 84.5537H52.7336V228.952H175.804V84.5537Z" fill="#EBEBEB"/>
<path d="M480.308 229.113H357.222C357.197 229.113 357.172 229.108 357.148 229.1C357.125 229.092 357.104 229.08 357.087 229.065C357.07 229.05 357.057 229.032 357.049 229.013C357.041 228.993 357.037 228.973 357.039 228.952V84.5541C357.039 84.5149 357.059 84.4773 357.093 84.4496C357.127 84.4218 357.174 84.4062 357.222 84.4062H480.308C480.356 84.4063 480.402 84.4218 480.437 84.4496C480.471 84.4773 480.49 84.5149 480.49 84.5541V228.952C480.49 228.993 480.472 229.032 480.438 229.061C480.404 229.091 480.357 229.109 480.308 229.113ZM357.42 228.804H480.11V84.7143H357.42V228.804Z" fill="#EBEBEB"/>
<path d="M183.426 84.5537H56.2938V228.952H183.426V84.5537Z" fill="#EBEBEB"/>
<path d="M172.761 220.326V93.1807H66.9287L66.9287 220.326H172.761Z" fill="#F9F9F9"/>
<path d="M172.761 220.326V93.1807H171.24V220.326H172.761Z" fill="#EBEBEB"/>
<path d="M151.904 160.958C154.757 146.625 142.726 133.133 125.032 130.822C107.337 128.511 90.6798 138.256 87.8266 152.589C84.9734 166.921 97.0046 180.414 114.699 182.725C132.394 185.036 149.051 175.29 151.904 160.958Z" fill="#EBEBEB"/>
<path d="M175.804 246.427H52.7336V367.262H175.804V246.427Z" fill="#EBEBEB"/>
<path d="M183.426 246.427H56.2938V367.262H183.426V246.427Z" fill="#EBEBEB"/>
<path d="M172.761 367.262V255.054H66.9287L66.9287 367.262H172.761Z" fill="#E6E6E6"/>
<path d="M172.776 367.262V255.054H171.255V367.262H172.776Z" fill="#EBEBEB"/>
<path d="M149.772 294.392H89.9484V342.849H149.772V294.392Z" fill="#F9F9F9"/>
<path d="M328.056 165.14H204.985V309.538H328.056V165.14Z" fill="#EBEBEB"/>
<path d="M335.663 165.14H208.531V309.538H335.663V165.14Z" fill="#EBEBEB"/>
<path d="M325.013 300.911V173.766H219.181V300.911H325.013Z" fill="#F9F9F9"/>
<path d="M325.013 300.91V173.766H323.491V300.91H325.013Z" fill="#EBEBEB"/>
<path d="M272.234 208.814L239.766 254.351H304.686L272.234 208.814Z" fill="#E6E6E6"/>
<path d="M140.469 535.17H99.6528V535.478H140.469V535.17Z" fill="#EBEBEB"/>
<path d="M129.76 551.03H106.111V551.338H129.76V551.03Z" fill="#EBEBEB"/>
<path d="M135.848 507.934C107.503 514.096 75.6952 462.644 128.725 411.401C138.633 463.889 185.328 497.163 135.848 507.934Z" fill="#0082CB"/>
<path d="M87.9699 464.518C81.1548 456.224 73.0951 446.894 75.0545 437.023C77.014 427.152 81.882 419.77 78 409.307C73.3539 396.7 74.3028 381.664 82.1161 382.922C89.9294 384.179 98.7902 393.397 98.5561 405.61C98.4082 417.428 106.135 421.199 113.406 427.497C120.677 433.794 123.475 442.963 124.781 452.033C127.073 466.341 145.596 463.63 150.526 476.065C155.591 488.056 145.461 504.052 129.242 507.725C113.024 511.397 101.526 513.69 90.4347 501.033C79.1954 487.588 98.0755 476.41 87.9699 464.518Z" fill="#2DB1FF"/>
<path d="M124.941 452.292C125.009 452.249 125.058 452.181 125.076 452.103C125.094 452.024 125.081 451.942 125.04 451.873C124.995 451.804 124.924 451.756 124.844 451.737C124.764 451.719 124.679 451.732 124.609 451.774C118.624 456.082 114.373 462.384 112.618 469.545C110.572 462.644 108.329 455.619 106.012 448.718C106.023 448.682 106.023 448.643 106.012 448.607C103.818 442.063 101.563 435.643 99.3571 429.518C99.4681 424.44 103.794 419.264 103.831 419.203C103.86 419.175 103.884 419.142 103.9 419.104C103.916 419.067 103.924 419.027 103.924 418.987C103.924 418.946 103.916 418.907 103.9 418.869C103.884 418.832 103.86 418.799 103.831 418.771C103.773 418.715 103.696 418.683 103.615 418.683C103.534 418.683 103.457 418.715 103.399 418.771C101.165 421.479 99.6215 424.689 98.9012 428.125C97.9399 425.463 96.9787 422.85 96.0297 420.324C95.9435 417.021 99.5173 411.586 99.5543 411.537C99.5774 411.503 99.5935 411.465 99.6016 411.425C99.6097 411.385 99.6098 411.344 99.6017 411.303C99.5937 411.263 99.5778 411.225 99.5548 411.191C99.5319 411.157 99.5023 411.128 99.468 411.106C99.4006 411.063 99.3193 411.048 99.2411 411.064C99.163 411.08 99.0941 411.126 99.049 411.192C97.4539 413.581 96.2631 416.217 95.5244 418.993C92.9611 412.116 90.5333 405.844 88.4382 400.507C88.4382 400.507 88.4382 400.507 88.4382 400.446C84.2358 389.773 81.352 382.921 81.2534 382.687C81.2374 382.65 81.2141 382.616 81.1849 382.588C81.1557 382.56 81.1212 382.537 81.0834 382.522C81.0456 382.508 81.0053 382.5 80.9646 382.501C80.924 382.502 80.884 382.511 80.8468 382.527C80.8087 382.54 80.774 382.561 80.7448 382.589C80.7156 382.617 80.6926 382.651 80.6775 382.688C80.6623 382.725 80.6553 382.765 80.6569 382.806C80.6584 382.846 80.6685 382.885 80.6866 382.921C80.7851 383.155 83.5457 389.724 87.6125 400.014C79.7746 396.736 75.5845 397.242 75.3996 397.266C75.3594 397.271 75.3206 397.283 75.2855 397.303C75.2504 397.323 75.2198 397.35 75.1956 397.383C75.1713 397.415 75.1539 397.452 75.1445 397.491C75.1351 397.531 75.1339 397.571 75.1408 397.611C75.1454 397.652 75.158 397.691 75.1779 397.727C75.1978 397.762 75.2245 397.794 75.2566 397.819C75.2887 397.844 75.3256 397.863 75.3649 397.874C75.4043 397.885 75.4454 397.888 75.4859 397.882C75.4859 397.882 79.9101 397.34 87.9206 400.815C92.6899 412.93 99.1476 429.937 105.174 447.819C96.3945 441.343 85.7409 437.912 74.8327 438.046C74.7922 438.049 74.7527 438.06 74.7165 438.078C74.6803 438.097 74.6481 438.122 74.6218 438.153C74.5954 438.184 74.5755 438.22 74.563 438.259C74.5506 438.297 74.5459 438.338 74.5493 438.378C74.5507 438.42 74.5606 438.46 74.5785 438.497C74.5964 438.534 74.6218 438.567 74.6531 438.594C74.6844 438.62 74.721 438.64 74.7604 438.652C74.7998 438.664 74.8412 438.667 74.882 438.662C85.9393 438.535 96.7205 442.115 105.507 448.829C110.042 462.385 114.294 476.299 117.375 488.992C106.85 479.503 90.0403 478.862 89.8678 478.85C89.7849 478.85 89.7052 478.882 89.6455 478.939C89.5857 478.997 89.5506 479.075 89.5474 479.158C89.5457 479.198 89.5521 479.238 89.5663 479.275C89.5804 479.312 89.6019 479.346 89.6295 479.375C89.6572 479.404 89.6903 479.427 89.727 479.442C89.7638 479.458 89.8032 479.466 89.8431 479.466C90.0157 479.466 107.343 480.132 117.633 490.077C119.272 496.904 120.554 503.362 121.331 509.154C121.337 509.228 121.371 509.297 121.425 509.348C121.48 509.398 121.552 509.426 121.626 509.425C121.666 509.421 121.705 509.408 121.74 509.388C121.775 509.368 121.806 509.341 121.83 509.309C121.855 509.276 121.872 509.239 121.881 509.2C121.891 509.161 121.892 509.12 121.885 509.08C121.096 503.276 119.815 496.756 118.188 489.941C116.721 483.779 114.971 477.322 113.037 470.741C114.531 463.308 118.784 456.716 124.941 452.292Z" fill="#EBEBEB"/>
<path d="M135.318 505.53H104.817V508.55H106.677L108.341 535.329H131.793L133.457 508.55H135.318V505.53Z" fill="#0082CB"/>
<g style="mix-blend-mode:multiply">
<path d="M468.199 510.401C468.199 511.732 444.993 512.804 416.365 512.804C387.737 512.804 364.519 511.732 364.519 510.401C364.519 509.07 387.737 508.01 416.365 508.01C444.993 508.01 468.199 509.082 468.199 510.401Z" fill="#F5F5F5"/>
</g>
<path d="M469.024 285.847L467.006 308.829L468.27 308.94L470.289 285.958L469.024 285.847Z" fill="#212121"/>
<path d="M474.782 244.638L471.84 277.32L473.11 277.435L476.051 244.752L474.782 244.638Z" fill="#212121"/>
<path d="M381.785 158.95H366.429V160.22H381.785V158.95Z" fill="#212121"/>
<path d="M342.755 334.872H460.287L475.31 164.644H357.79L342.755 334.872Z" fill="#212121"/>
<path d="M376.719 510.401H371.383L411.029 249.567H416.365L376.719 510.401Z" fill="#212121"/>
<path d="M456.011 510.401H461.335L421.689 249.567H416.365L456.011 510.401Z" fill="#212121"/>
<path d="M335.496 337.202H456.886L471.921 166.961H350.519L335.496 337.202Z" fill="#2DB1FF"/>
<path opacity="0.8" d="M335.496 337.202H456.886L471.921 166.961H350.519L335.496 337.202Z" fill="#F9F9F9"/>
<path d="M447.618 327.023L460.854 177.128H359.799L346.563 327.023H447.618Z" fill="#2DB1FF"/>
<path d="M481.386 243.898C456.048 228.838 446.682 246.19 427.728 256.332C411.51 265.021 377.2 240.176 358.973 271.663C340.746 303.151 393.689 378.757 463.405 345.692C501.178 327.749 522.683 268.459 481.386 243.898Z" fill="#2DB1FF"/>
<path opacity="0.1" d="M481.386 243.898C456.048 228.838 446.682 246.19 427.728 256.332C411.51 265.021 377.2 240.176 358.973 271.663C340.746 303.151 393.689 378.757 463.405 345.692C501.178 327.749 522.683 268.459 481.386 243.898Z" fill="#212121"/>
<path d="M425.127 236.036C439.916 240.521 442.492 230.527 450.872 222.997C458.044 216.552 478.6 224.907 483.961 206.606C489.322 188.305 452.905 156.436 421.553 181.959C404.547 195.835 401.01 228.691 425.127 236.036Z" fill="#2DB1FF"/>
<path opacity="0.1" d="M425.127 236.036C439.916 240.521 442.492 230.527 450.872 222.997C458.044 216.552 478.6 224.907 483.961 206.606C489.322 188.305 452.905 156.436 421.553 181.959C404.547 195.835 401.01 228.691 425.127 236.036Z" fill="#212121"/>
<path d="M368.093 181.059C367.591 181.069 367.093 180.97 366.633 180.77C366.173 180.569 365.763 180.271 365.429 179.896C365.095 179.521 364.846 179.079 364.7 178.599C364.554 178.119 364.513 177.613 364.58 177.116C364.718 176.051 365.233 175.07 366.031 174.352C366.829 173.633 367.857 173.223 368.931 173.197C369.429 173.188 369.922 173.286 370.379 173.484C370.836 173.682 371.246 173.974 371.58 174.343C371.913 174.725 372.162 175.172 372.311 175.656C372.459 176.14 372.504 176.65 372.443 177.153C372.302 178.215 371.787 179.193 370.989 179.909C370.192 180.626 369.164 181.033 368.093 181.059ZM368.931 173.517C367.933 173.539 366.977 173.917 366.235 174.585C365.493 175.252 365.015 176.163 364.889 177.153C364.831 177.61 364.872 178.073 365.008 178.513C365.144 178.953 365.372 179.359 365.677 179.704C365.989 180.044 366.371 180.312 366.797 180.491C367.222 180.669 367.681 180.754 368.142 180.739C369.136 180.718 370.09 180.34 370.829 179.675C371.569 179.01 372.045 178.102 372.172 177.116C372.233 176.66 372.195 176.196 372.061 175.756C371.927 175.316 371.7 174.91 371.396 174.565C371.086 174.221 370.705 173.95 370.279 173.769C369.853 173.588 369.393 173.502 368.931 173.517Z" fill="#F9F9F9"/>
<path d="M379.197 181.06C378.697 181.069 378.201 180.972 377.742 180.774C377.283 180.576 376.871 180.283 376.535 179.913C376.202 179.534 375.954 179.089 375.805 178.607C375.656 178.125 375.611 177.617 375.672 177.116C375.812 176.052 376.327 175.073 377.125 174.355C377.922 173.636 378.95 173.226 380.022 173.197C380.525 173.187 381.024 173.286 381.485 173.487C381.946 173.689 382.358 173.988 382.692 174.364C383.026 174.74 383.274 175.185 383.419 175.666C383.565 176.147 383.604 176.655 383.535 177.153C383.399 178.216 382.887 179.194 382.091 179.911C381.295 180.628 380.268 181.036 379.197 181.06ZM380.022 173.517C379.027 173.542 378.073 173.922 377.334 174.589C376.595 175.256 376.119 176.165 375.992 177.153C375.928 177.606 375.963 178.069 376.095 178.507C376.228 178.946 376.455 179.35 376.76 179.692C377.065 180.033 377.441 180.304 377.862 180.485C378.283 180.666 378.739 180.753 379.197 180.739C380.19 180.715 381.142 180.337 381.881 179.672C382.62 179.008 383.097 178.101 383.226 177.116C383.284 176.66 383.244 176.197 383.111 175.758C382.977 175.318 382.752 174.912 382.45 174.565C382.144 174.227 381.769 173.959 381.35 173.778C380.931 173.597 380.478 173.508 380.022 173.517Z" fill="#F9F9F9"/>
<path d="M404.337 221.087C387.219 221.087 372.11 234.964 370.607 252.081C370.174 256.259 370.675 260.48 372.073 264.44C373.471 268.4 375.732 272 378.691 274.979L424.499 229.171C421.835 226.564 418.683 224.508 415.223 223.121C411.764 221.734 408.064 221.043 404.337 221.087Z" fill="#F9F9F9"/>
<path d="M431.068 227.335C433.81 230.246 435.896 233.712 437.185 237.499C438.473 241.285 438.934 245.304 438.536 249.284C437.02 266.057 422.231 279.699 405.434 279.699C398.289 279.777 391.387 277.103 386.16 272.231L431.068 227.335ZM431.068 226.436L385.26 272.243C387.925 274.852 391.079 276.908 394.541 278.296C398.003 279.683 401.705 280.374 405.434 280.328C422.552 280.328 437.648 266.451 439.164 249.333C439.596 245.155 439.093 240.933 437.693 236.973C436.292 233.013 434.029 229.414 431.068 226.436Z" fill="#2DB1FF"/>
<path d="M431.068 227.335C433.81 230.246 435.896 233.712 437.185 237.499C438.473 241.285 438.934 245.304 438.536 249.284C437.02 266.057 422.231 279.699 405.434 279.699C398.289 279.777 391.387 277.103 386.16 272.231L431.068 227.335ZM431.068 226.436L385.26 272.243C387.925 274.852 391.079 276.908 394.541 278.296C398.003 279.683 401.705 280.374 405.434 280.328C422.552 280.328 437.648 266.451 439.164 249.333C439.596 245.155 439.093 240.933 437.693 236.973C436.292 233.013 434.029 229.414 431.068 226.436Z" fill="#212121"/>
<path d="M348.005 327.023L361.253 177.128H359.799L346.563 327.023H348.005Z" fill="#212121"/>
<path d="M336.926 336.117L337.394 337.202H456.886L456.985 336.117H336.926Z" fill="#2DB1FF"/>
<path opacity="0.1" d="M336.926 336.117L337.394 337.202H456.886L456.985 336.117H336.926Z" fill="#F9F9F9"/>
<path d="M326.82 333.689L327.276 337.202H448.678L448.21 333.689H326.82Z" fill="#2DB1FF"/>
<path opacity="0.3" d="M326.82 333.689L327.276 337.202H448.678L448.21 333.689H326.82Z" fill="#F9F9F9"/>
<g style="mix-blend-mode:multiply">
<path d="M276.177 532.707C276.177 533.889 252.972 534.841 224.344 534.841C195.715 534.841 172.497 533.889 172.497 532.707C172.497 531.525 195.715 530.584 224.344 530.584C252.972 530.584 276.177 531.536 276.177 532.707Z" fill="#F5F5F5"/>
</g>
<path d="M238.812 524.315H248.079L249.003 505.264H239.736L238.812 524.315Z" fill="black"/>
<path d="M183.194 524.315H192.45L197.108 505.264H187.84L183.194 524.315Z" fill="black"/>
<path d="M193.066 523.362H182.652C182.469 523.363 182.292 523.418 182.149 523.52C182.005 523.621 181.905 523.762 181.863 523.92L180.039 531.23C179.994 531.409 179.996 531.594 180.044 531.772C180.091 531.95 180.184 532.115 180.315 532.257C180.445 532.398 180.61 532.511 180.798 532.587C180.985 532.664 181.189 532.701 181.395 532.696C185.092 532.642 186.793 532.456 191.365 532.456C194.187 532.456 199.992 532.707 203.874 532.707C207.756 532.707 208.273 529.293 206.684 528.987C199.536 527.608 196.825 525.704 194.569 523.866C194.155 523.54 193.62 523.361 193.066 523.362Z" fill="#212121"/>
<path d="M248.018 523.362H237.9C237.716 523.361 237.538 523.416 237.394 523.517C237.25 523.619 237.151 523.761 237.111 523.92L235.287 531.23C235.24 531.407 235.239 531.591 235.285 531.768C235.33 531.945 235.42 532.111 235.549 532.252C235.677 532.394 235.84 532.507 236.025 532.584C236.211 532.661 236.413 532.7 236.618 532.696C240.315 532.642 245.54 532.456 250.174 532.456C255.535 532.456 260.169 532.707 266.454 532.707C270.262 532.707 271.384 529.293 269.732 528.987C262.473 527.586 256.558 527.433 250.297 523.997C249.621 523.597 248.83 523.377 248.018 523.362Z" fill="#212121"/>
<path d="M254.845 255.519L267.329 251.142C267.329 251.142 281.723 277.229 286.246 278.498C292.408 280.293 305.065 285.272 312.718 286.158C313.679 287.252 315.183 290.645 314.924 291.881C304.375 294.945 281.908 290.885 277.25 287.668C266.639 280.413 254.845 255.519 254.845 255.519Z" fill="#FFBE9D"/>
<path d="M251.468 249.6C248.35 256.953 264.162 278.63 264.162 278.63L282.648 269.701C279.861 262.961 276.271 256.504 271.938 250.442C265.431 241.765 254.894 241.48 251.468 249.6Z" fill="#2DB1FF"/>
<path d="M251.197 250.529C254.894 248.997 258.9 250.277 262.991 256.361C267.083 262.446 270.385 272.6 270.669 275.5L264.162 278.685C264.162 278.685 249.558 258.616 251.197 250.529Z" fill="#2DB1FF"/>
<path opacity="0.2" d="M251.197 250.529C254.894 248.997 258.9 250.277 262.991 256.361C267.083 262.446 270.385 272.6 270.669 275.5L264.162 278.685C264.162 278.685 249.558 258.616 251.197 250.529Z" fill="#212121"/>
<path d="M260.847 277.897C260.733 277.897 260.621 277.87 260.523 277.818C260.426 277.766 260.346 277.691 260.292 277.602C260.251 277.538 260.225 277.468 260.215 277.395C260.205 277.322 260.212 277.248 260.235 277.178C260.258 277.107 260.297 277.042 260.349 276.985C260.401 276.928 260.466 276.881 260.539 276.847L279.024 267.906C279.171 267.837 279.344 267.822 279.503 267.865C279.663 267.908 279.796 268.006 279.875 268.136C279.916 268.2 279.942 268.27 279.952 268.343C279.961 268.416 279.955 268.49 279.932 268.56C279.909 268.631 279.87 268.696 279.818 268.753C279.766 268.81 279.701 268.857 279.628 268.891L261.143 277.831C261.052 277.875 260.95 277.898 260.847 277.897Z" fill="#F9F9F9"/>
<path d="M311.153 286.147L321.603 282.339L325.14 292.362C320.962 292.927 316.711 292.927 312.533 292.362L311.153 286.147Z" fill="#FFBE9D"/>
<path d="M329.195 282.099L329.022 288.763L325.14 292.363L321.603 282.339L329.195 282.099Z" fill="#FFBE9D"/>
<path d="M249.004 505.264L248.523 515.09H239.255L239.736 505.264H249.004Z" fill="#FFBE9D"/>
<path d="M187.84 505.264H197.108L194.705 515.09H185.437L187.84 505.264Z" fill="#FFBE9D"/>
<path d="M262.366 244.915C262.366 244.915 273.239 276.08 262.906 334.155H213.628C213.285 325.684 218.041 284.345 210.736 244.421C216.184 243.241 221.696 242.461 227.235 242.087C234.216 241.634 241.215 241.634 248.196 242.087C252.978 242.616 257.716 243.562 262.366 244.915Z" fill="#2DB1FF"/>
<path d="M248.523 276.813C243.717 276.813 239.539 272.512 239.169 267.117C239.029 265.7 239.209 264.273 239.698 262.918C240.187 261.563 240.975 260.309 242.016 259.228C242.694 258.541 243.522 257.983 244.45 257.588C245.378 257.193 246.386 256.969 247.414 256.93C252.269 256.82 256.595 261.154 256.965 266.625C257.105 268.04 256.926 269.465 256.439 270.817C255.953 272.17 255.168 273.423 254.13 274.504C253.453 275.192 252.626 275.751 251.698 276.146C250.77 276.541 249.761 276.764 248.732 276.802L248.523 276.813ZM247.623 258.046H247.451C246.592 258.075 245.75 258.261 244.976 258.593C244.202 258.924 243.513 259.393 242.953 259.972C242.036 260.947 241.347 262.074 240.924 263.287C240.501 264.501 240.353 265.776 240.488 267.041C240.821 271.91 244.53 275.795 248.745 275.675C249.604 275.643 250.447 275.454 251.221 275.121C251.994 274.788 252.683 274.317 253.243 273.738C254.159 272.765 254.849 271.64 255.272 270.428C255.695 269.216 255.843 267.942 255.708 266.68C255.424 261.887 251.826 258.046 247.673 258.046H247.623Z" fill="#F9F9F9"/>
<path d="M221.337 251.405C222.162 256.635 220.301 269.164 214.682 283.653C214.774 271.273 213.628 258.91 211.256 246.71V246.644C214.521 246.349 220.548 246.491 221.337 251.405Z" fill="#2DB1FF"/>
<path opacity="0.2" d="M221.337 251.405C222.162 256.635 220.301 269.164 214.682 283.653C214.774 271.273 213.628 258.91 211.256 246.71V246.644C214.521 246.349 220.548 246.491 221.337 251.405Z" fill="#212121"/>
<path d="M251.419 242.004C250.384 241.884 249.312 241.775 248.227 241.676C241.208 241.32 234.172 241.32 227.153 241.676L224.504 241.84L224.812 242.508C224.947 242.814 228.324 250.036 242.472 250.036C244.333 250.036 249.952 250.036 251.727 246.666C252.072 245.918 252.224 245.111 252.171 244.304C252.117 243.497 251.86 242.711 251.419 242.004Z" fill="#F9F9F9"/>
<path d="M229.248 220.623C230.579 226.642 231.898 237.672 227.153 241.688C227.153 241.688 229.877 247.794 242.472 247.794C253.982 247.794 248.227 241.688 248.227 241.688C240.66 240.079 240.833 235.122 242.176 230.428L229.248 220.623Z" fill="#FFBE9D"/>
<path d="M234.523 224.628L242.176 230.428C241.848 231.502 241.63 232.601 241.523 233.71C239.058 235.789 234.671 230.526 234.363 227.845C234.194 226.773 234.248 225.683 234.523 224.628Z" fill="#CF6F64"/>
<path d="M250.791 202.086C255.35 203.804 257.827 215.151 252.023 217.767C246.218 220.382 242.152 198.869 250.791 202.086Z" fill="#212121"/>
<path d="M228.435 211.573C229.002 219.714 228.866 224.507 233.5 228.698C240.475 234.99 251.801 231.248 253.995 223.117C255.967 215.797 254.709 203.705 245.725 200.455C243.748 199.731 241.594 199.469 239.47 199.693C237.346 199.916 235.321 200.618 233.589 201.733C231.856 202.847 230.473 204.335 229.571 206.058C228.669 207.78 228.278 209.678 228.435 211.573Z" fill="#FFBE9D"/>
<path d="M233.734 207.962C235.669 214.681 235.571 219.999 231.713 220.272C227.856 220.546 220.733 209.954 220.967 205.161C221.324 197.829 227.363 203.771 225.243 197.566C223.925 193.704 231.245 190.191 236.914 191.526C246.268 193.715 249.077 204.657 256.521 196.921C260.834 192.467 273.663 196.921 265.493 203.716C257.322 210.512 264.371 210.906 264.371 210.906C264.371 210.906 254.032 210.512 257.889 205.434C261.746 200.357 250.84 207.36 243.914 205.544C237.308 203.771 232.305 202.917 233.734 207.962Z" fill="#212121"/>
<path d="M224.294 220.546C224.904 221.407 225.698 222.153 226.633 222.74C227.568 223.328 228.624 223.746 229.741 223.971C232.736 224.562 234.055 222.143 233.081 219.714C232.206 217.525 229.593 214.593 226.66 215.096C226.021 215.215 225.424 215.475 224.926 215.851C224.429 216.227 224.044 216.708 223.809 217.25C223.574 217.791 223.495 218.377 223.58 218.952C223.665 219.528 223.91 220.076 224.294 220.546Z" fill="black"/>
<path d="M226.34 200.587C225.424 200.194 224.631 199.605 224.033 198.874C223.435 198.142 223.051 197.291 222.914 196.396C222.914 196.396 220.56 201.429 226.34 200.587Z" fill="#212121"/>
<path d="M262.903 332.116C262.903 332.116 264.126 388.229 263.172 411.11C262.133 434.919 251.946 512.854 251.946 512.854H236.379C236.379 512.854 235.804 436.306 235.156 412.927C234.41 387.441 230.631 332.116 230.631 332.116H262.903Z" fill="#0082CB"/>
<path d="M235.078 509.083C235.016 509.083 234.511 513.307 234.511 513.307H253.194L254.525 508.459L235.078 509.083Z" fill="#2DB1FF"/>
<path opacity="0.1" d="M235.078 509.083C235.016 509.083 234.511 513.307 234.511 513.307H253.194L254.525 508.459L235.078 509.083Z" fill="#212121"/>
<path d="M241.35 331.352C241.042 361.871 238.972 380.408 234.733 395.311C234.178 380.747 233.167 361.499 232.268 345.511L241.35 331.352Z" fill="#2DB1FF"/>
<path opacity="0.8" d="M241.345 334.834C241.033 364.013 238.94 381.736 234.654 395.986C234.093 382.061 233.072 363.658 232.162 348.372L241.345 334.834Z" fill="#212121"/>
<path d="M245.171 332.116C245.171 332.116 234.763 389.673 229.053 411.264C222.794 434.877 199.223 513.534 199.223 513.534H182.422C182.422 513.534 197.966 436.781 201.529 413.408C205.408 388.03 213.522 332.146 213.522 332.146L245.171 332.116Z" fill="#0082CB"/>
<path d="M181.346 509.083C181.272 509.083 180.754 513.307 180.754 513.307H200.46L201.853 508.459L181.346 509.083Z" fill="#2DB1FF"/>
<path opacity="0.1" d="M181.346 509.083C181.272 509.083 180.754 513.307 180.754 513.307H200.46L201.853 508.459L181.346 509.083Z" fill="#212121"/>
<path d="M188.9 504.29C188.881 504.287 188.862 504.281 188.845 504.272C188.828 504.262 188.814 504.25 188.802 504.236C188.791 504.222 188.783 504.206 188.778 504.189C188.774 504.171 188.774 504.154 188.777 504.136C188.913 503.37 203.085 427.691 206.326 404.755C209.838 379.861 217.245 324.666 217.319 324.108C217.32 324.089 217.326 324.071 217.336 324.055C217.345 324.039 217.359 324.025 217.375 324.013C217.391 324.002 217.41 323.994 217.43 323.989C217.45 323.985 217.471 323.984 217.492 323.987C217.513 323.989 217.533 323.994 217.552 324.002C217.571 324.011 217.588 324.022 217.601 324.037C217.615 324.051 217.626 324.067 217.632 324.085C217.639 324.103 217.641 324.122 217.639 324.14C217.565 324.699 210.147 379.948 206.634 404.788C203.393 427.768 189.233 503.414 189.085 504.18C189.076 504.216 189.052 504.248 189.018 504.268C188.983 504.288 188.941 504.296 188.9 504.29Z" fill="#2DB1FF"/>
<path opacity="0.2" d="M188.9 504.29C188.881 504.287 188.862 504.281 188.845 504.272C188.828 504.262 188.814 504.25 188.802 504.236C188.791 504.222 188.783 504.206 188.778 504.189C188.774 504.171 188.774 504.154 188.777 504.136C188.913 503.37 203.085 427.691 206.326 404.755C209.838 379.861 217.245 324.666 217.319 324.108C217.32 324.089 217.326 324.071 217.336 324.055C217.345 324.039 217.359 324.025 217.375 324.013C217.391 324.002 217.41 323.994 217.43 323.989C217.45 323.985 217.471 323.984 217.492 323.987C217.513 323.989 217.533 323.994 217.552 324.002C217.571 324.011 217.588 324.022 217.601 324.037C217.615 324.051 217.626 324.067 217.632 324.085C217.639 324.103 217.641 324.122 217.639 324.14C217.565 324.699 210.147 379.948 206.634 404.788C203.393 427.768 189.233 503.414 189.085 504.18C189.076 504.216 189.052 504.248 189.018 504.268C188.983 504.288 188.941 504.296 188.9 504.29Z" fill="#212121"/>
<path d="M321.961 285.83C313.052 291.108 303.723 295.803 294.047 299.88C289.241 301.981 284.348 303.94 279.493 305.932C274.637 307.923 269.769 309.937 264.852 311.862C255.075 315.78 245.249 319.61 235.373 323.352C225.514 327.106 215.544 330.739 205.476 334.175C203.796 334.763 201.932 334.785 200.235 334.236C198.538 333.688 197.125 332.607 196.264 331.197C195.403 329.788 195.153 328.147 195.56 326.585C195.968 325.023 197.005 323.647 198.476 322.718C207.213 317.093 216.074 311.676 224.997 306.369C233.919 301.062 242.891 295.831 251.924 290.688C256.41 288.084 260.958 285.567 265.48 283.029C270.003 280.49 274.538 277.929 279.135 275.5C288.261 270.514 297.783 266.125 307.628 262.369C311.075 261.114 314.923 261.034 318.432 262.145C321.942 263.256 324.865 265.479 326.641 268.387C328.417 271.295 328.92 274.683 328.054 277.901C327.188 281.118 325.013 283.938 321.948 285.819L321.961 285.83Z" fill="#2DB1FF"/>
<path opacity="0.3" d="M321.961 285.83C313.052 291.108 303.723 295.803 294.047 299.88C289.241 301.981 284.348 303.94 279.493 305.932C274.637 307.923 269.769 309.937 264.852 311.862C255.075 315.78 245.249 319.61 235.373 323.352C225.514 327.106 215.544 330.739 205.476 334.175C203.796 334.763 201.932 334.785 200.235 334.236C198.538 333.688 197.125 332.607 196.264 331.197C195.403 329.788 195.153 328.147 195.56 326.585C195.968 325.023 197.005 323.647 198.476 322.718C207.213 317.093 216.074 311.676 224.997 306.369C233.919 301.062 242.891 295.831 251.924 290.688C256.41 288.084 260.958 285.567 265.48 283.029C270.003 280.49 274.538 277.929 279.135 275.5C288.261 270.514 297.783 266.125 307.628 262.369C311.075 261.114 314.923 261.034 318.432 262.145C321.942 263.256 324.865 265.479 326.641 268.387C328.417 271.295 328.92 274.683 328.054 277.901C327.188 281.118 325.013 283.938 321.948 285.819L321.961 285.83Z" fill="#212121"/>
<path d="M358.488 241.797C354.791 243.559 351.809 244.948 347.015 244.948V245.43C351.944 245.43 354.951 244.018 358.747 242.224L358.488 241.797Z" fill="#2DB1FF"/>
<path opacity="0.3" d="M358.488 241.797C354.791 243.559 351.809 244.948 347.015 244.948V245.43C351.944 245.43 354.951 244.018 358.747 242.224L358.488 241.797Z" fill="#212121"/>
<path d="M340.114 244.39V244.871C340.746 244.87 341.376 244.917 341.999 245.013V244.543C341.377 244.443 340.746 244.392 340.114 244.39Z" fill="#2DB1FF"/>
<path opacity="0.3" d="M340.114 244.39V244.871C340.746 244.87 341.376 244.917 341.999 245.013V244.543C341.377 244.443 340.746 244.392 340.114 244.39Z" fill="#212121"/>
<path d="M358.205 267.293C352.819 271.67 347.2 273.979 341.95 273.979V274.46C347.335 274.46 353.041 272.097 358.575 267.643L358.205 267.293Z" fill="#2DB1FF"/>
<path opacity="0.3" d="M358.205 267.293C352.819 271.67 347.2 273.979 341.95 273.979V274.46C347.335 274.46 353.041 272.097 358.575 267.643L358.205 267.293Z" fill="#212121"/>
<path d="M362.95 241.896C356.615 244.861 351.488 247.673 340.175 245.933C329.749 244.325 321.258 258.736 329.552 267.633C337.23 275.872 348.272 273.104 357.465 265.685C361.915 261.862 365.448 257.28 367.854 252.214C366.4 252.882 364.897 253.56 363.245 254.184C358.723 255.924 359.215 249.358 362.95 241.896Z" fill="#2DB1FF"/>
<path opacity="0.5" d="M362.95 241.896C356.615 244.861 351.488 247.673 340.175 245.933C329.749 244.325 321.258 258.736 329.552 267.633C337.23 275.872 348.272 273.104 357.465 265.685C361.915 261.862 365.448 257.28 367.854 252.214C366.4 252.882 364.897 253.56 363.245 254.184C358.723 255.924 359.215 249.358 362.95 241.896Z" fill="#F9F9F9"/>
<path d="M367.46 239.936C365.846 240.56 364.354 241.227 362.95 241.895C359.252 249.358 358.722 255.923 363.245 254.183C364.897 253.559 366.4 252.881 367.854 252.214C371.527 244.762 371.971 238.196 367.46 239.936Z" fill="#2DB1FF"/>
<path opacity="0.3" d="M367.46 239.936C365.846 240.56 364.354 241.227 362.95 241.895C359.252 249.358 358.722 255.923 363.245 254.183C364.897 253.559 366.4 252.881 367.854 252.214C371.527 244.762 371.971 238.196 367.46 239.936Z" fill="#212121"/>
<path d="M358.032 249.062C357.589 250.397 356.578 251.251 355.765 251.087C354.951 250.923 354.643 249.631 355.087 248.296C355.531 246.961 356.541 246.108 357.355 246.272C358.168 246.436 358.476 247.738 358.032 249.062Z" fill="#2DB1FF"/>
<path opacity="0.3" d="M358.032 249.062C357.589 250.397 356.578 251.251 355.765 251.087C354.951 250.923 354.643 249.631 355.087 248.296C355.531 246.961 356.541 246.108 357.355 246.272C358.168 246.436 358.476 247.738 358.032 249.062Z" fill="#212121"/>
<path d="M242.361 213.849C242.361 214.506 242.755 215.042 243.248 215.042C243.741 215.042 244.123 214.506 244.123 213.849C244.123 213.193 243.729 212.646 243.248 212.646C242.768 212.646 242.361 213.182 242.361 213.849Z" fill="#212121"/>
<path d="M250.803 213.849C250.803 214.506 251.197 215.042 251.69 215.042C252.183 215.042 252.577 214.506 252.577 213.849C252.577 213.193 252.183 212.646 251.69 212.646C251.197 212.646 250.803 213.182 250.803 213.849Z" fill="#212121"/>
<path d="M248.116 214.177C249.007 216.204 250.21 218.111 251.69 219.845C251.18 220.172 250.596 220.395 249.979 220.499C249.361 220.603 248.725 220.585 248.116 220.447V214.177Z" fill="#DF5753"/>
<path d="M245.947 222.275C246.004 222.272 246.057 222.25 246.096 222.214C246.135 222.177 246.157 222.129 246.157 222.078C246.154 222.03 246.131 221.984 246.092 221.95C246.053 221.915 246.002 221.895 245.947 221.892C245.016 221.913 244.093 221.737 243.253 221.38C242.413 221.022 241.681 220.493 241.116 219.835C241.1 219.813 241.079 219.795 241.055 219.78C241.031 219.766 241.004 219.756 240.975 219.751C240.946 219.746 240.917 219.746 240.888 219.751C240.86 219.756 240.832 219.766 240.808 219.78C240.762 219.809 240.731 219.852 240.719 219.901C240.708 219.95 240.718 220 240.747 220.043C241.348 220.759 242.134 221.335 243.04 221.724C243.945 222.112 244.942 222.301 245.947 222.275Z" fill="#D78776"/>
<path d="M239.81 211.431C239.879 211.431 239.946 211.417 240.008 211.391C240.07 211.364 240.125 211.326 240.167 211.278C240.484 210.877 240.905 210.55 241.394 210.323C241.883 210.097 242.426 209.978 242.977 209.976C243.093 209.982 243.207 209.947 243.294 209.88C243.382 209.812 243.436 209.717 243.445 209.615C243.452 209.512 243.414 209.411 243.338 209.333C243.262 209.255 243.154 209.207 243.039 209.199C242.341 209.189 241.651 209.331 241.028 209.611C240.405 209.891 239.869 210.302 239.465 210.807C239.418 210.865 239.39 210.933 239.383 211.004C239.376 211.076 239.391 211.147 239.427 211.211C239.462 211.275 239.517 211.329 239.584 211.368C239.652 211.407 239.73 211.429 239.81 211.431Z" fill="#212121"/>
<path d="M254.599 211.19C254.66 211.2 254.722 211.2 254.783 211.19C254.883 211.139 254.957 211.056 254.989 210.958C255.021 210.86 255.009 210.755 254.956 210.664C254.63 210.117 254.159 209.647 253.584 209.296C253.009 208.946 252.346 208.724 251.653 208.651C251.595 208.646 251.537 208.652 251.482 208.668C251.427 208.684 251.376 208.71 251.333 208.743C251.289 208.777 251.253 208.818 251.228 208.864C251.203 208.91 251.188 208.961 251.185 209.012C251.178 209.115 251.217 209.216 251.293 209.293C251.369 209.371 251.476 209.419 251.592 209.428C252.139 209.494 252.661 209.675 253.113 209.957C253.566 210.239 253.935 210.613 254.192 211.047C254.24 211.1 254.303 211.141 254.374 211.166C254.445 211.191 254.523 211.199 254.599 211.19Z" fill="#212121"/>
<path d="M207.916 249.139L219.081 255.781C219.081 255.781 203.06 281.091 204.391 285.151C206.228 290.622 208.779 302.747 212.254 308.875C211.798 310.199 209.493 313.252 208.199 313.744C199.376 307.759 190.404 289.025 190.737 283.794C191.513 271.845 207.916 249.139 207.916 249.139Z" fill="#FFBE9D"/>
<path d="M210.566 243.547C201.803 244.642 191.772 271.648 191.772 271.648L210.171 280.873C210.171 280.873 218.28 268.048 222.286 258.528C226.476 248.548 219.969 242.333 210.566 243.547Z" fill="#2DB1FF"/>
<path d="M209.703 278.236C209.596 278.236 209.49 278.214 209.395 278.17L191.574 269.23C191.502 269.194 191.439 269.145 191.388 269.087C191.337 269.028 191.299 268.962 191.277 268.89C191.256 268.819 191.25 268.745 191.261 268.672C191.272 268.598 191.299 268.528 191.34 268.464C191.425 268.336 191.563 268.243 191.724 268.204C191.885 268.166 192.057 268.184 192.203 268.256L210.011 277.185C210.157 277.259 210.264 277.38 210.31 277.524C210.356 277.667 210.337 277.82 210.257 277.951C210.201 278.038 210.12 278.11 210.023 278.159C209.926 278.209 209.815 278.236 209.703 278.236Z" fill="#F9F9F9"/>
<path d="M196.171 524.796C196.802 524.837 197.431 524.691 197.958 524.38C198.121 524.253 198.248 524.094 198.327 523.915C198.406 523.736 198.436 523.543 198.414 523.351C198.414 523.236 198.378 523.124 198.31 523.025C198.243 522.927 198.147 522.847 198.032 522.793C197.022 522.334 194.027 523.964 193.682 524.15C193.642 524.169 193.61 524.198 193.59 524.234C193.57 524.27 193.564 524.31 193.572 524.35C193.581 524.389 193.603 524.425 193.636 524.452C193.669 524.479 193.711 524.496 193.756 524.5C194.546 524.681 195.356 524.78 196.171 524.796ZM197.552 523.1C197.645 523.081 197.742 523.081 197.835 523.1C197.881 523.121 197.919 523.155 197.943 523.196C197.967 523.237 197.977 523.283 197.971 523.329C197.99 523.46 197.974 523.594 197.922 523.718C197.871 523.842 197.786 523.953 197.675 524.041C196.638 524.457 195.462 524.508 194.384 524.183C195.352 523.644 196.427 523.276 197.552 523.1Z" fill="#2DB1FF"/>
<path d="M193.805 524.511H193.904C194.865 524.041 196.726 522.246 196.529 521.327C196.497 521.182 196.41 521.052 196.282 520.958C196.153 520.864 195.992 520.813 195.826 520.813C195.659 520.796 195.49 520.809 195.329 520.853C195.168 520.896 195.018 520.968 194.89 521.065C193.817 521.841 193.657 524.216 193.583 524.347C193.582 524.383 193.591 524.418 193.608 524.451C193.625 524.483 193.65 524.511 193.682 524.533C193.725 524.537 193.768 524.53 193.805 524.511ZM195.678 521.229H195.777C196.06 521.229 196.085 521.382 196.097 521.426C196.208 521.973 195.025 523.33 194.076 523.975C194.146 523.037 194.528 522.138 195.173 521.393C195.305 521.266 195.485 521.188 195.678 521.174V521.229Z" fill="#2DB1FF"/>
<path d="M251.875 524.796C252.665 524.861 253.457 524.683 254.118 524.293C254.27 524.176 254.387 524.029 254.46 523.863C254.533 523.697 254.56 523.518 254.537 523.341C254.53 523.234 254.492 523.131 254.428 523.041C254.363 522.951 254.273 522.877 254.167 522.826C253.046 522.268 249.324 523.921 248.905 524.14C248.863 524.156 248.828 524.184 248.806 524.22C248.784 524.255 248.775 524.296 248.782 524.336C248.786 524.377 248.806 524.415 248.837 524.444C248.868 524.474 248.909 524.494 248.954 524.501C249.915 524.681 250.893 524.78 251.875 524.796ZM253.551 523.1C253.69 523.094 253.829 523.117 253.958 523.166C253.999 523.187 254.033 523.217 254.057 523.253C254.081 523.29 254.093 523.331 254.093 523.374C254.112 523.488 254.098 523.606 254.053 523.714C254.007 523.823 253.932 523.92 253.834 523.997C253.255 524.457 251.739 524.523 249.694 524.227C250.898 523.659 252.202 523.277 253.551 523.1Z" fill="#2DB1FF"/>
<path d="M249.004 524.512H249.09C250.211 524.063 252.43 522.323 252.257 521.36C252.257 521.141 252.035 520.868 251.444 520.813C251.223 520.791 250.999 520.809 250.787 520.868C250.575 520.926 250.379 521.023 250.211 521.152C248.979 522.006 248.782 524.227 248.769 524.315C248.763 524.348 248.768 524.382 248.783 524.413C248.799 524.445 248.824 524.471 248.856 524.49C248.877 524.502 248.902 524.511 248.927 524.515C248.952 524.518 248.979 524.517 249.004 524.512ZM251.259 521.229H251.394C251.789 521.229 251.813 521.404 251.826 521.459C251.924 522.017 250.421 523.406 249.275 524.019C249.388 523.082 249.818 522.197 250.507 521.48C250.71 521.304 250.976 521.196 251.259 521.174V521.229Z" fill="#2DB1FF"/>
<path d="M212.254 308.831L221.065 308.229L216.481 316.885C216.481 316.885 208.754 317.192 207.46 311.95L212.254 308.831Z" fill="#FFBE9D"/>
<path d="M228.226 312.169L223.604 319.829L216.432 316.885L221.065 308.229L228.226 312.169Z" fill="#FFBE9D"/>
</svg>
