<svg width="41" height="41" viewBox="0 0 41 41" fill="none" xmlns="http://www.w3.org/2000/svg">
<path d="M38.3887 0.46875H2.54875C1.99729 0.469385 1.46861 0.688731 1.07867 1.07867C0.688731 1.46861 0.469385 1.99729 0.46875 2.54875V30.7087C0.469385 31.2602 0.688731 31.7889 1.07867 32.1788C1.46861 32.5688 1.99729 32.7881 2.54875 32.7887H16.6824L16.138 37.1432C14.8087 37.6209 13.5366 38.2447 12.345 39.0031C12.2021 39.0984 12.0937 39.2371 12.0358 39.3987C11.9778 39.5603 11.9734 39.7363 12.0231 39.9006C12.0729 40.0649 12.1742 40.2089 12.3121 40.3112C12.4499 40.4135 12.6171 40.4687 12.7887 40.4687H28.1487C28.3204 40.4687 28.4876 40.4135 28.6254 40.3112C28.7633 40.2089 28.8646 40.0649 28.9144 39.9006C28.9641 39.7363 28.9597 39.5603 28.9017 39.3987C28.8438 39.2371 28.7354 39.0984 28.5925 39.0031C27.4009 38.2447 26.1288 37.6209 24.7996 37.1432L24.2551 32.7887H38.3887C38.9402 32.7881 39.4689 32.5688 39.8588 32.1788C40.2488 31.7889 40.4681 31.2602 40.4687 30.7087V2.54875C40.4681 1.99729 40.2488 1.46861 39.8588 1.07867C39.4689 0.688731 38.9402 0.469385 38.3887 0.46875V0.46875ZM2.54875 2.06875H38.3887C38.516 2.06888 38.638 2.11949 38.728 2.20948C38.818 2.29947 38.8686 2.42149 38.8687 2.54875V24.7887H2.06875V2.54875C2.06888 2.42149 2.11949 2.29947 2.20948 2.20948C2.29947 2.11949 2.42149 2.06888 2.54875 2.06875V2.06875ZM16.6287 38.8687H16.1067C17.3781 38.3573 18.9314 37.9087 20.4687 37.9087C22.0006 37.9087 23.5532 38.3573 24.8255 38.8687H16.6287ZM23.1248 36.6415C21.3822 36.1978 19.5561 36.1978 17.8135 36.6415L18.2949 32.7887H22.6426L23.1248 36.6415ZM38.8687 30.7087C38.8686 30.836 38.818 30.958 38.728 31.048C38.638 31.138 38.516 31.1886 38.3887 31.1887H2.54875C2.42149 31.1886 2.29947 31.138 2.20948 31.048C2.11949 30.958 2.06888 30.836 2.06875 30.7087V26.3887H38.8687V30.7087Z" fill="#2DB1FF"/>
<path d="M19.1887 29.5888H21.7487C21.9608 29.5888 22.1643 29.5045 22.3144 29.3545C22.4644 29.2044 22.5487 29.0009 22.5487 28.7888C22.5487 28.5766 22.4644 28.3731 22.3144 28.2231C22.1643 28.0731 21.9608 27.9888 21.7487 27.9888H19.1887C18.9765 27.9888 18.773 28.0731 18.623 28.2231C18.473 28.3731 18.3887 28.5766 18.3887 28.7888C18.3887 29.0009 18.473 29.2044 18.623 29.3545C18.773 29.5045 18.9765 29.5888 19.1887 29.5888Z" fill="#2DB1FF"/>
<path d="M8.30879 5.9086H10.2921L13.9498 16.8816C13.977 16.9632 14.0172 17.0398 14.0688 17.1086V17.1086C13.5668 17.1079 13.0814 17.2886 12.7019 17.6173C12.3225 17.9461 12.0746 18.4008 12.0038 18.8978C11.9331 19.3949 12.0442 19.9007 12.3168 20.3223C12.5893 20.7439 13.005 21.0529 13.4873 21.1924C13.9695 21.3318 14.4859 21.2924 14.9415 21.0814C15.397 20.8704 15.761 20.5019 15.9664 20.0438C16.1719 19.5858 16.2049 19.0689 16.0596 18.5884C15.9142 18.1078 15.6002 17.696 15.1753 17.4286H21.8522C21.8372 17.5867 21.8288 17.7467 21.8288 17.9086C21.8288 18.9054 22.1244 19.8799 22.6782 20.7087C23.232 21.5375 24.0191 22.1835 24.9401 22.565C25.861 22.9464 26.8744 23.0462 27.852 22.8518C28.8297 22.6573 29.7278 22.1773 30.4326 21.4724C31.1375 20.7676 31.6175 19.8695 31.8119 18.8919C32.0064 17.9142 31.9066 16.9008 31.5251 15.9799C31.1437 15.0589 30.4977 14.2718 29.6689 13.718C28.84 13.1642 27.8656 12.8686 26.8688 12.8686C26.7098 12.8686 26.5529 12.8766 26.3976 12.8913L27.6277 9.20164C27.6678 9.08138 27.6788 8.95331 27.6597 8.82799C27.6406 8.70267 27.5919 8.58368 27.5178 8.48084C27.4437 8.378 27.3462 8.29424 27.2334 8.23648C27.1205 8.17871 26.9956 8.14859 26.8688 8.1486H16.6288C16.4166 8.1486 16.2131 8.23288 16.0631 8.38291C15.9131 8.53294 15.8288 8.73642 15.8288 8.9486C15.8288 9.16077 15.9131 9.36425 16.0631 9.51428C16.2131 9.66431 16.4166 9.7486 16.6288 9.7486H25.7588L25.0109 11.9917C24.9904 11.9901 24.9697 11.9886 24.9488 11.9886H17.9088C17.6966 11.9886 17.4931 12.0729 17.3431 12.2229C17.1931 12.3729 17.1088 12.5764 17.1088 12.7886C17.1088 13.0008 17.1931 13.2043 17.3431 13.3543C17.4931 13.5043 17.6966 13.5886 17.9088 13.5886H24.2759C23.3999 14.1169 22.7041 14.8977 22.2798 15.8286H15.2854L11.6277 4.85563C11.5747 4.69634 11.4728 4.55779 11.3366 4.45961C11.2004 4.36142 11.0367 4.30859 10.8688 4.30859H8.30879C8.09662 4.30859 7.89313 4.39288 7.7431 4.54291C7.59307 4.69294 7.50879 4.89642 7.50879 5.10859C7.50879 5.32077 7.59307 5.52425 7.7431 5.67428C7.89313 5.82431 8.09662 5.9086 8.30879 5.9086ZM14.0688 19.6686C13.9739 19.6686 13.8811 19.6405 13.8021 19.5877C13.7232 19.535 13.6617 19.46 13.6253 19.3723C13.589 19.2846 13.5795 19.1881 13.598 19.095C13.6165 19.0019 13.6622 18.9163 13.7294 18.8492C13.7965 18.7821 13.882 18.7364 13.9751 18.7178C14.0683 18.6993 14.1648 18.7088 14.2525 18.7451C14.3402 18.7815 14.4152 18.843 14.4679 18.9219C14.5206 19.0009 14.5488 19.0937 14.5488 19.1886C14.5487 19.3159 14.4981 19.4379 14.4081 19.5279C14.3181 19.6179 14.1961 19.6685 14.0688 19.6686ZM30.3088 17.9086C30.3088 18.589 30.107 19.2541 29.729 19.8198C29.3511 20.3855 28.8138 20.8264 28.1852 21.0868C27.5566 21.3471 26.865 21.4152 26.1977 21.2825C25.5304 21.1498 24.9174 20.8221 24.4363 20.3411C23.9552 19.86 23.6276 19.247 23.4949 18.5797C23.3622 17.9124 23.4303 17.2208 23.6906 16.5922C23.951 15.9636 24.3919 15.4263 24.9576 15.0483C25.5233 14.6704 26.1884 14.4686 26.8688 14.4686C27.7808 14.4696 28.6552 14.8324 29.3001 15.4773C29.945 16.1222 30.3078 16.9966 30.3088 17.9086V17.9086Z" fill="#2DB1FF"/>
<path d="M25.2309 18.6246L26.5109 19.2646C26.6854 19.3518 26.8856 19.3723 27.0741 19.3222C27.2625 19.2721 27.4262 19.1549 27.5343 18.9926L28.8143 17.0726C28.9297 16.8961 28.9707 16.6811 28.9284 16.4745C28.8861 16.2679 28.7639 16.0863 28.5884 15.9693C28.4129 15.8523 28.1984 15.8094 27.9914 15.8498C27.7844 15.8902 27.6017 16.0107 27.4831 16.1851L26.5951 17.5175L25.9471 17.1933C25.7576 17.1004 25.539 17.0862 25.339 17.1537C25.139 17.2212 24.9738 17.3651 24.8794 17.5539C24.785 17.7427 24.769 17.9612 24.835 18.1617C24.901 18.3622 25.0435 18.5285 25.2316 18.6244L25.2309 18.6246Z" fill="#2DB1FF"/>
</svg>
