<svg width="40" height="41" viewBox="0 0 40 41" fill="none" xmlns="http://www.w3.org/2000/svg">
<path d="M20.6227 4.08545H19.4553V5.25279H20.6227V4.08545Z" fill="#2DB1FF"/>
<path d="M13.58 36.77H11.2454V37.9374H13.58V36.77Z" fill="#2DB1FF"/>
<path d="M28.7548 36.77H26.4202V37.9374H28.7548V36.77Z" fill="#2DB1FF"/>
<path d="M19.9999 13.3027L14.5874 16.4276V22.6774L19.9999 25.8023L25.4124 22.6775V16.4277L19.9999 13.3027ZM15.7547 17.1015L19.4163 14.9876V19.0782L15.7547 21.3029V17.1015ZM19.9999 24.4545L16.3162 22.3276L19.9325 20.1305L23.6707 22.3351L19.9999 24.4545ZM24.2451 21.3187L20.5835 19.1592V14.9876L24.2451 17.1016V21.3187Z" fill="#2DB1FF"/>
<path d="M20.5836 9.33838H19.4163V10.5057H20.5836V9.33838Z" fill="#2DB1FF"/>
<path d="M13.1904 11.9173L12.365 12.7427L13.1904 13.568L14.0157 12.7427L13.1904 11.9173Z" fill="#2DB1FF"/>
<path d="M10.078 18.9688H8.91064V20.1361H10.078V18.9688Z" fill="#2DB1FF"/>
<path d="M13.1894 25.5364L12.364 26.3618L13.1894 27.1872L14.0148 26.3618L13.1894 25.5364Z" fill="#2DB1FF"/>
<path d="M20.5836 28.5991H19.4163V29.7665H20.5836V28.5991Z" fill="#2DB1FF"/>
<path d="M20.5836 36.77H19.4163V37.9374H20.5836V36.77Z" fill="#2DB1FF"/>
<path d="M26.811 25.5374L25.9856 26.3628L26.811 27.1882L27.6363 26.3628L26.811 25.5374Z" fill="#2DB1FF"/>
<path d="M31.0895 18.9688H29.9221V20.1361H31.0895V18.9688Z" fill="#2DB1FF"/>
<path d="M26.8085 11.9163L25.9832 12.7417L26.8085 13.5671L27.6339 12.7417L26.8085 11.9163Z" fill="#2DB1FF"/>
<path d="M8.95092 0L8.91064 17.8001L10.078 17.8027L10.1063 5.2529H18.2491V4.08556H10.109L10.1156 1.16734H11.2453V2.3346H12.4126V1.16734H13.5799V2.3346H14.7472V1.16734H15.9145V2.3346H17.0818V1.16734H29.9611V4.08556H21.751V5.2529H29.9611V17.8014H31.1284V0H8.95092Z" fill="#2DB1FF"/>
<path d="M31.0893 21.3022L29.922 21.3048L29.9497 34.4357H10.1168V21.3035H8.94946V40.2722H31.1295L31.0893 21.3022ZM10.1168 39.1048V35.6029H29.9523L29.9597 39.1048H10.1168Z" fill="#2DB1FF"/>
<path d="M37.6784 16.5674L36.7569 17.2839L38.0671 18.9684H32.2566V20.1358H38.0671L36.7569 21.8203L37.6784 22.5368L39.9999 19.5522L37.6784 16.5674Z" fill="#2DB1FF"/>
<path d="M7.74331 18.9684H1.93274L3.243 17.2839L2.32154 16.5674L0 19.5522L2.32154 22.5368L3.243 21.8203L1.93274 20.1358H7.74331V18.9684Z" fill="#2DB1FF"/>
</svg>
