<svg width="41" height="40" viewBox="0 0 41 40" fill="none" xmlns="http://www.w3.org/2000/svg">
<path d="M19.1099 22.4365C18.8686 22.4365 18.6731 22.2604 18.6731 22.043V9.49619C18.6731 9.27885 18.8686 9.10274 19.1099 9.10274C19.3512 9.10274 19.5467 9.27885 19.5467 9.49619V22.043C19.5467 22.2604 19.3512 22.4365 19.1099 22.4365ZM19.1099 8.31584C18.8686 8.31584 18.6731 8.13973 18.6731 7.92239V7.29287C18.6731 7.07552 18.8686 6.89941 19.1099 6.89941C19.3512 6.89941 19.5467 7.07552 19.5467 7.29287V7.92239C19.5467 8.13973 19.3512 8.31584 19.1099 8.31584Z" fill="#2DB1FF"/>
<path d="M24.5777 35.1502C24.819 35.1502 25.0145 34.9741 25.0145 34.7567C25.0145 34.5394 24.819 34.3633 24.5777 34.3633H12.4917C12.2504 34.3633 12.0549 34.5394 12.0549 34.7567C12.0549 34.9741 12.2504 35.1502 12.4917 35.1502H24.5777Z" fill="#2DB1FF"/>
<path d="M28.9784 34.326C29.2197 34.326 29.4152 34.1499 29.4152 33.9325C29.4152 33.7152 29.2197 33.5391 28.9784 33.5391H28.6617C28.4204 33.5391 28.2249 33.7152 28.2249 33.9325C28.2249 34.1499 28.4204 34.326 28.6617 34.326H28.9784Z" fill="#2DB1FF"/>
<path d="M30.9201 35.9729C31.1614 35.9729 31.3569 35.7968 31.3569 35.5795C31.3569 35.3621 31.1614 35.186 30.9201 35.186H30.6033C30.362 35.186 30.1665 35.3621 30.1665 35.5795C30.1665 35.7968 30.362 35.9729 30.6033 35.9729H30.9201Z" fill="#2DB1FF"/>
<path d="M32.8619 34.326C33.1032 34.326 33.2987 34.1499 33.2987 33.9325C33.2987 33.7152 33.1032 33.5391 32.8619 33.5391H32.545C32.3037 33.5391 32.1082 33.7152 32.1082 33.9325C32.1082 34.1499 32.3037 34.326 32.545 34.326H32.8619Z" fill="#2DB1FF"/>
<path d="M34.8033 35.9729C35.0446 35.9729 35.2401 35.7968 35.2401 35.5795C35.2401 35.3621 35.0446 35.186 34.8033 35.186H34.4864C34.2451 35.186 34.0496 35.3621 34.0496 35.5795C34.0496 35.7968 34.2451 35.9729 34.4864 35.9729H34.8033Z" fill="#2DB1FF"/>
<path d="M7.53611 32.8066C6.34243 32.8066 5.37134 33.6814 5.37134 34.7566C5.37134 35.8318 6.34243 36.7065 7.53611 36.7065C8.72979 36.7065 9.70088 35.8318 9.70088 34.7566C9.70088 33.6814 8.72979 32.8066 7.53611 32.8066V32.8066ZM7.53611 35.9196C6.8243 35.9196 6.24493 35.3979 6.24493 34.7566C6.24493 34.1153 6.82413 33.5935 7.53611 33.5935C8.24809 33.5935 8.82729 34.1153 8.82729 34.7566C8.82729 35.3979 8.24792 35.9196 7.53611 35.9196Z" fill="#2DB1FF"/>
<path d="M9.99243 30.1996C9.99243 30.4168 10.1881 30.5931 10.4292 30.5931C10.6686 30.5931 10.8643 30.4168 10.8643 30.1996C10.8643 29.9824 10.6686 29.8062 10.4292 29.8062C10.1881 29.8062 9.99243 29.9823 9.99243 30.1996Z" fill="#2DB1FF"/>
<path d="M0.114014 36.9072C0.114014 38.4511 1.5081 39.707 3.22209 39.707H37.0058C38.7199 39.707 40.114 38.4511 40.114 36.9072V32.606C40.114 31.062 38.7199 29.8062 37.0058 29.8062H12.1764C11.9353 29.8062 11.7396 29.9824 11.7396 30.1996C11.7396 30.4168 11.9353 30.5931 12.1764 30.5931H37.0058C38.2358 30.5946 39.2387 31.498 39.2404 32.606V36.9072C39.2387 38.0151 38.2358 38.9185 37.0058 38.9201H3.22209C1.99224 38.9185 0.989356 38.0151 0.987609 36.9072V32.606C0.989356 31.498 1.99224 30.5946 3.22209 30.5931H8.68206C8.92143 30.5931 9.11711 30.4168 9.11711 30.1996C9.11711 29.9824 8.92143 29.8062 8.68206 29.8062H3.22209C1.5081 29.8062 0.114014 31.062 0.114014 32.606V36.9072Z" fill="#2DB1FF"/>
<path d="M11.7348 7.46291C11.938 7.56899 12.21 7.50887 12.3306 7.31655C12.4513 7.131 12.3809 6.8891 12.1679 6.77988C11.9672 6.67601 11.6894 6.74369 11.574 6.92467C11.574 6.92467 11.574 6.92467 11.5721 6.92625C11.4533 7.11495 11.5263 7.35605 11.7348 7.46291Z" fill="#2DB1FF"/>
<path d="M31.3357 13.8618C31.5402 13.8618 31.7201 13.7311 31.7638 13.5502C32.1012 12.1199 32.1249 10.5862 31.7638 9.05536C31.7201 8.87437 31.5402 8.74375 31.3357 8.74375H29.5204C29.3335 8.1819 29.0819 7.63422 28.7742 7.11958L30.0549 5.96441C30.1999 5.83378 30.2245 5.62761 30.1145 5.47181C29.2092 4.21119 27.9899 3.11267 26.5869 2.29429C26.4174 2.19672 26.1815 2.21875 26.04 2.34623L24.7576 3.5014C24.1827 3.22284 23.5746 2.99621 22.9545 2.82781V1.1942C22.9545 1.01007 22.8095 0.847966 22.6087 0.808621C20.9819 0.495434 19.2522 0.495434 17.6186 0.808621C17.4176 0.847966 17.2728 1.01007 17.2728 1.1942V2.82781C16.6506 2.99621 16.0445 3.22284 15.4697 3.5014L14.1872 2.34466C14.044 2.21718 13.8081 2.19514 13.6404 2.29272C12.2217 3.12369 11.0353 4.1923 10.1128 5.47181C10.001 5.62604 10.0254 5.83378 10.1705 5.96441L10.5147 6.27445C10.6789 6.42239 10.9672 6.42239 11.1332 6.27445C11.3026 6.12021 11.3026 5.87155 11.1332 5.71889V5.71732L11.0423 5.63706C11.7988 4.655 12.7352 3.81144 13.8238 3.12998L15.0853 4.26785C15.2216 4.3906 15.447 4.41736 15.6147 4.32922C16.3066 3.96567 17.0491 3.68868 17.8214 3.50612C18.0118 3.46048 18.1464 3.3031 18.1464 3.12526V1.51841C19.4376 1.30752 20.7899 1.30752 22.0811 1.51841V3.12526C22.0811 3.3031 22.2158 3.46048 22.406 3.50612C23.1783 3.68868 23.9208 3.96567 24.6127 4.32922C24.7805 4.41736 25.0041 4.3906 25.1404 4.26785L26.4036 3.13156C27.4938 3.81302 28.4303 4.655 29.1851 5.63548L27.9219 6.77334C27.7821 6.90082 27.7542 7.09597 27.8538 7.25021C28.2574 7.87186 28.5649 8.53915 28.7675 9.23635C28.818 9.40947 28.991 9.53065 29.1904 9.53065H30.976C31.2108 10.6959 31.2115 11.903 30.976 13.0749H29.1904C28.991 13.0749 28.818 13.196 28.7675 13.3692C28.5666 14.0616 28.2591 14.7305 27.8538 15.3553C27.7542 15.5095 27.7821 15.7047 27.9219 15.8322L29.1886 16.97C28.4321 17.9505 27.4958 18.7941 26.4053 19.4755L25.1423 18.3361C25.006 18.2133 24.7806 18.1866 24.6129 18.2747C24.2025 18.4894 23.7723 18.6727 23.3299 18.8262L23.3294 16.6797C25.5536 15.5896 26.9262 13.5247 26.9262 11.2274C26.9262 8.85281 25.4577 6.72204 23.0935 5.6646C23.0913 5.6635 23.0897 5.66192 23.0876 5.66082C21.2566 4.83756 18.9967 4.80325 17.1543 5.58622C17.154 5.58638 17.1536 5.58638 17.1533 5.58654C17.1528 5.58669 17.1524 5.58701 17.1519 5.58717C17.151 5.58748 17.15 5.58795 17.1491 5.58827C17.1486 5.58843 17.1484 5.58874 17.1479 5.58906C14.7114 6.6007 13.1372 8.81315 13.1372 11.2274C13.1372 13.561 14.606 15.7019 16.8987 16.7573V18.8281C16.4575 18.6748 16.0267 18.4905 15.613 18.2747C15.4452 18.1866 15.2216 18.2133 15.0851 18.3361L13.8221 19.4755C12.7352 18.7941 11.7988 17.9521 11.0404 16.97L12.3053 15.8322C12.4451 15.7047 12.4731 15.5095 12.3737 15.3553C11.9683 14.7305 11.6608 14.0632 11.4599 13.3692C11.4092 13.196 11.2362 13.0749 11.0371 13.0749H9.24969C9.01749 11.9003 9.01644 10.7102 9.24969 9.53065H11.0371C11.2345 9.53065 11.4092 9.40947 11.4599 9.23635C11.5142 9.04907 11.5769 8.86178 11.6453 8.6808C11.7237 8.47463 11.6016 8.25115 11.3743 8.18033C11.1489 8.11108 10.8957 8.22597 10.8187 8.42584C10.7785 8.53128 10.74 8.6383 10.7051 8.74375H8.89151C8.68709 8.74375 8.50713 8.87437 8.46537 9.05536C8.11419 10.5264 8.11331 12.0772 8.46345 13.5502C8.50713 13.7311 8.68709 13.8618 8.89151 13.8618H10.7051C10.892 14.422 11.1438 14.9681 11.4529 15.4859L10.1687 16.6411C10.0237 16.7717 9.99906 16.9795 10.1111 17.1337C11.0213 18.3959 12.2407 19.496 13.6404 20.3128C13.8037 20.4086 14.0309 20.3987 14.1872 20.2609L15.4697 19.1025C15.9306 19.3251 16.41 19.5122 16.8989 19.6653V21.4176L14.7376 21.4192C14.3794 21.4192 14.1729 21.7852 14.3847 22.0456L19.7625 28.6036C19.9376 28.815 20.2897 28.8153 20.4649 28.6036L25.8412 22.0456C26.0554 21.787 25.8494 21.4192 25.4898 21.4192H23.3303L23.3299 19.6641C23.82 19.5109 24.2995 19.324 24.7577 19.1025L26.0402 20.2609C26.1829 20.3896 26.4083 20.4149 26.5871 20.3128C28.0075 19.4834 29.1956 18.4148 30.1181 17.1353C30.2299 16.981 30.2055 16.7733 30.0605 16.6427L28.7745 15.4859C29.084 14.9681 29.3356 14.422 29.5208 13.8618H31.3357ZM14.0108 11.2274C14.0108 9.33078 15.1258 7.57913 16.8987 6.60274V15.8569C15.1258 14.8808 14.0108 13.1274 14.0108 11.2274ZM24.6248 22.2045L20.1137 27.7081L15.6025 22.2045H17.3357C17.5801 22.2045 17.7725 22.0271 17.7725 21.8126V6.20048C19.227 5.65783 20.9787 5.67451 22.455 6.26343V10.2341C22.455 10.4513 22.6506 10.6276 22.8917 10.6276C23.133 10.6276 23.3285 10.4513 23.3285 10.2341V6.69308C25.0238 7.68898 26.0526 9.37185 26.0526 11.2272C26.0526 13.0857 25.024 14.7702 23.3291 15.7653L23.3285 13.3816C23.3285 13.1644 23.133 12.9881 22.8917 12.9881C22.6543 12.9881 22.4569 13.16 22.4569 13.3784C22.455 13.3784 22.455 13.38 22.455 13.3816L22.4569 21.8125C22.4569 22.0262 22.6492 22.2044 22.8937 22.2044H24.6248V22.2045Z" fill="#2DB1FF"/>
<path d="M22.8919 12.201C23.1331 12.201 23.3287 12.0248 23.3287 11.8075C23.3287 11.5902 23.1331 11.4141 22.8919 11.4141C22.6506 11.4141 22.4551 11.5902 22.4551 11.8075C22.4551 12.0248 22.6506 12.201 22.8919 12.201Z" fill="#2DB1FF"/>
</svg>
