<svg width="40" height="36" viewBox="0 0 40 36" fill="none" xmlns="http://www.w3.org/2000/svg">
<path d="M25.8594 0H23.5156V4.6875H25.8594V0Z" fill="#2DB1FF"/>
<path d="M40 14.0625H35.2344V16.4062H40V14.0625Z" fill="#2DB1FF"/>
<path d="M34.6301 3.63377L31.3157 6.94824L32.9729 8.60551L36.2874 5.29103L34.6301 3.63377Z" fill="#2DB1FF"/>
<path d="M14.7438 3.63375L13.0865 5.29102L16.401 8.60549L18.0583 6.94823L14.7438 3.63375Z" fill="#2DB1FF"/>
<path d="M32.0857 18.779C32.6138 17.6783 32.8906 16.4712 32.8906 15.2344C32.8906 10.7112 29.2107 7.03125 24.6875 7.03125C22.3812 7.03125 20.2366 7.97289 18.6884 9.63938C17.9727 9.46531 17.2334 9.375 16.4844 9.375C11.315 9.375 7.10938 13.5806 7.10938 18.75C7.10938 18.7774 7.10961 18.8046 7.11 18.8318C3.09625 19.397 0 22.8236 0 26.9531C0 31.4763 3.71492 35.1562 8.28125 35.1562H25.8594C31.0287 35.1562 35.2344 30.9506 35.2344 25.7812C35.2344 22.9995 34.0161 20.4974 32.0857 18.779ZM24.6875 9.375C27.9184 9.375 30.5469 12.0035 30.5469 15.2344C30.5469 15.9945 30.4006 16.7384 30.1202 17.4316C28.8411 16.7762 27.3926 16.4062 25.8594 16.4062C25.7476 16.4062 25.6362 16.4089 25.525 16.4127C25.0635 14.6166 24.0792 12.9875 22.6854 11.7412C22.1945 11.3022 21.6624 10.9204 21.0991 10.5986C22.1132 9.80961 23.3632 9.375 24.6875 9.375ZM25.8594 32.8125H8.28125C5.00727 32.8125 2.34375 30.184 2.34375 26.9531C2.34375 21.7247 8.77742 19.1629 12.4245 22.8099L14.0817 21.1527C12.8129 19.8837 11.2015 19.0822 9.45609 18.8334C9.45531 18.8057 9.45312 18.7773 9.45312 18.75C9.45312 14.873 12.6073 11.7188 16.4844 11.7188C19.6225 11.7188 22.3396 13.8345 23.1966 16.7884C21.7134 17.2254 20.3541 18.0283 19.2302 19.1522L20.8876 20.8095C22.7466 18.9504 24.6941 18.8891 24.7646 18.8645C29.2564 18.1572 32.8906 21.6578 32.8906 25.7812C32.8906 29.6583 29.7364 32.8125 25.8594 32.8125Z" fill="#2DB1FF"/>
</svg>
