<svg width="42" height="40" viewBox="0 0 42 40" fill="none" xmlns="http://www.w3.org/2000/svg">
<path d="M5.72812 6.22952C6.36503 6.22889 6.97572 5.9756 7.42614 5.52519C7.87712 5.0742 8.13048 4.46254 8.13048 3.82476C8.13048 3.34904 7.98938 2.88401 7.72503 2.4885C7.46069 2.09299 7.08497 1.78476 6.64542 1.60282C6.20587 1.42088 5.72223 1.3734 5.25568 1.46638C4.78914 1.55937 4.36066 1.78864 4.02444 2.12519C3.68822 2.46174 3.45938 2.89045 3.36687 3.35709C3.27435 3.82373 3.32232 4.30732 3.50469 4.74669C3.68707 5.18606 3.99567 5.56147 4.39145 5.82542C4.78708 6.08927 5.25205 6.22989 5.72758 6.22952C5.72696 6.22952 5.72634 6.22952 5.72571 6.22952L5.72812 6.22952ZM13.841 3.82385V3.82286C13.841 3.34724 13.6999 2.8823 13.4357 2.48684C13.1714 2.09138 12.7959 1.78316 12.3565 1.60115C11.917 1.41914 11.4335 1.37151 10.967 1.4643C10.5006 1.55709 10.0721 1.78612 9.73577 2.12243C9.39946 2.45875 9.17042 2.88723 9.07764 3.35371C8.98485 3.82019 9.03247 4.30371 9.21448 4.74312C9.39649 5.18253 9.70471 5.5581 10.1002 5.82234C10.4956 6.08658 10.9606 6.22762 11.4362 6.22762V5.72762L11.4372 6.22762C12.0743 6.22635 12.685 5.97269 13.1355 5.52217C13.586 5.07165 13.8397 4.46098 13.841 3.82385ZM0.5 7.11905V3.80966C0.5 3.80961 0.5 3.80957 0.5 3.80952C0.500505 2.93194 0.849346 2.09044 1.46989 1.46989C2.0905 0.849287 2.9321 0.500438 3.80952 0.5H38.0952C38.9729 0.500469 39.8143 0.849314 40.4349 1.46989C41.0555 2.0905 41.4043 2.9321 41.4048 3.80977V7.11905H0.5Z" stroke="#2DB1FF"/>
<path d="M38.0952 36.6906H38.5952V36.1906V13.3334V12.8334H38.0952H3.80952H3.30952V13.3334V36.1906V36.6906H3.80952H38.0952ZM0.5 36.1906V10.0239H41.4048V36.1906C41.4048 37.0683 41.0561 37.9101 40.4354 38.5308C39.8148 39.1514 38.973 39.5001 38.0952 39.5001H3.80952C2.93178 39.5001 2.08999 39.1514 1.46934 38.5308C0.848681 37.9101 0.5 37.0683 0.5 36.1906Z" stroke="#2DB1FF"/>
<path d="M11.7822 21.3061L15.2382 17.8502L16.218 18.83L17.1977 19.8097L15.0751 21.9324L12.5989 24.4086L12.2454 24.7621L12.5989 25.1157L15.0751 27.5919L17.1977 29.7145L16.218 30.6943L15.2382 31.6741L11.7822 28.2181L8.32625 24.7621L11.7822 21.3061Z" stroke="#2DB1FF"/>
<path d="M24.7074 29.7145L26.83 27.5919L29.3062 25.1157L29.6597 24.7621L29.3062 24.4086L26.83 21.9324L24.7074 19.8097L25.6871 18.83L26.6669 17.8502L30.1229 21.3061L33.5788 24.7621L30.1229 28.2181L26.6669 31.6741L25.6871 30.6943L25.3336 31.0478L25.6871 30.6943L24.7074 29.7145Z" stroke="#2DB1FF"/>
</svg>
