<svg width="31" height="40" viewBox="0 0 31 40" fill="none" xmlns="http://www.w3.org/2000/svg">
<path d="M21.8182 31.4091H22.3182V30.9091V29.5909H24.9545V36.3636C24.9545 38.0875 23.542 39.5 21.8182 39.5H3.63636C1.91251 39.5 0.5 38.0875 0.5 36.3636V3.63636C0.5 1.91576 1.90924 0.518182 3.63636 0.518182L3.63686 0.518182L21.8182 0.5C21.8183 0.5 21.8183 0.5 21.8184 0.5C23.5422 0.500138 24.9545 1.91259 24.9545 3.63636V10.4091H22.3182V9.09091V8.59091H21.8182H3.63636H3.13636V9.09091V30.9091V31.4091H3.63636H21.8182ZM28.7182 18.8909L28.4784 19.0707L28.524 19.3669C28.5614 19.61 28.5909 19.8084 28.5909 20C28.5909 20.0674 28.5878 20.1238 28.5842 20.1915C28.582 20.2302 28.5797 20.2726 28.5777 20.3228C28.5727 20.4445 28.571 20.5945 28.5977 20.7549L28.6302 20.9497L28.787 21.0697L29.9506 21.9606L29.9506 21.9607L29.9545 21.9636C30.1176 22.086 30.165 22.3142 30.0604 22.4911L30.0604 22.4911L30.0579 22.4955L29.0423 24.2547C29.0419 24.2553 29.0416 24.2559 29.0412 24.2565C28.9291 24.4443 28.7062 24.5104 28.5266 24.4324L28.5227 24.4307L27.1954 23.8671L26.928 23.7535L26.697 23.9296C26.3361 24.2045 25.9737 24.4329 25.5895 24.593L25.3231 24.704L25.286 24.9902L25.1053 26.3816C25.0663 26.6074 24.8811 26.7545 24.6909 26.7545H22.6545C22.435 26.7545 22.2663 26.5983 22.2419 26.395L22.2413 26.3902L22.0595 24.9902L22.0217 24.6993L21.7493 24.5903C21.3508 24.4309 20.993 24.205 20.6578 23.9368L20.4247 23.7504L20.15 23.8671L18.8259 24.4294C18.8254 24.4296 18.825 24.4297 18.8245 24.4299C18.6227 24.5133 18.4155 24.4431 18.3042 24.2565C18.3039 24.2559 18.3035 24.2553 18.3032 24.2547L17.2876 22.4955L17.2876 22.4955L17.285 22.4911C17.1805 22.3142 17.2278 22.0859 17.3909 21.9636L17.3909 21.9637L17.3949 21.9606L18.5585 21.0697L18.7972 20.887L18.7477 20.5905C18.7106 20.3675 18.6818 20.1888 18.6818 20C18.6818 19.8165 18.7098 19.642 18.7758 19.4704L18.9114 19.1177L18.6091 18.8909L17.4485 18.0205C17.4481 18.0202 17.4477 18.0199 17.4474 18.0196C17.2709 17.8844 17.2307 17.6571 17.3394 17.4728C17.3395 17.4727 17.3395 17.4726 17.3396 17.4725L18.3754 15.728L18.3754 15.728L18.3796 15.7208C18.4686 15.5649 18.6844 15.4855 18.8734 15.5676L18.8733 15.5677L18.8804 15.5706L20.1895 16.1161L20.4629 16.23L20.6942 16.045C21.0262 15.7793 21.3682 15.5686 21.7559 15.407L22.0233 15.2956L22.0597 15.0082L22.2415 13.5719L22.2415 13.5719L22.2422 13.5664C22.2664 13.3561 22.4249 13.2107 22.6508 13.2091L24.6802 13.2453C24.6805 13.2453 24.6807 13.2454 24.681 13.2454C24.7807 13.2477 24.8764 13.2856 24.9506 13.3523C25.0251 13.4191 25.0731 13.5105 25.086 13.6097L25.086 13.6098L25.2678 15.0098L25.3043 15.291L25.5643 15.404C25.9353 15.5653 26.3011 15.7963 26.6455 16.0545L26.874 16.226L27.1378 16.1161L28.4469 15.5706L28.4469 15.5707L28.4521 15.5684C28.541 15.5302 28.6408 15.5255 28.7329 15.5552C28.8247 15.5848 28.9027 15.6466 28.9526 15.7291C28.9527 15.7294 28.9529 15.7297 28.9531 15.73L29.9877 17.4725C29.9878 17.4726 29.9878 17.4727 29.9879 17.4728C30.0941 17.6528 30.0419 17.8982 29.8818 18.0182L28.7182 18.8909ZM20.4091 20C20.4091 21.7852 21.8511 23.2273 23.6364 23.2273C25.4216 23.2273 26.8636 21.7852 26.8636 20C26.8636 18.2148 25.4216 16.7727 23.6364 16.7727C21.8511 16.7727 20.4091 18.2148 20.4091 20Z" stroke="#2DB1FF"/>
</svg>
