<svg width="40" height="43" viewBox="0 0 40 43" fill="none" xmlns="http://www.w3.org/2000/svg">
<path d="M20.0005 19.4414C21.9578 19.4414 23.5503 17.849 23.5503 15.8916C23.5503 13.9343 21.9578 12.3418 20.0005 12.3418C18.0431 12.3418 16.4507 13.9343 16.4507 15.8916C16.4507 17.849 18.0431 19.4414 20.0005 19.4414ZM20.0005 13.5801C21.275 13.5801 22.312 14.6171 22.312 15.8916C22.312 17.1662 21.275 18.2031 20.0005 18.2031C18.7259 18.2031 17.689 17.1662 17.689 15.8916C17.689 14.6171 18.7259 13.5801 20.0005 13.5801Z" fill="#2DB1FF"/>
<path d="M20.0294 20.2671H19.9716C18.9298 20.2671 17.92 20.5675 17.0515 21.1356C16.7653 21.323 16.6851 21.7066 16.8724 21.9928C17.0596 22.2789 17.4434 22.3592 17.7295 22.1719C18.3959 21.7359 19.1712 21.5054 19.9716 21.5054H20.0294C22.2907 21.5054 24.1304 23.345 24.1304 25.6063V26.8474C24.1304 27.4524 23.6382 27.9446 23.0331 27.9446H16.9679C16.3629 27.9446 15.8706 27.4524 15.8706 26.8474V25.6063C15.8706 25.0791 15.9691 24.566 16.1634 24.0813C16.2906 23.7639 16.1365 23.4035 15.819 23.2763C15.5015 23.1491 15.1412 23.3032 15.014 23.6207C14.7607 24.2524 14.6323 24.9205 14.6323 25.6063V26.8474C14.6323 28.1352 15.68 29.1829 16.9679 29.1829H23.0331C24.3209 29.1829 25.3687 28.1352 25.3687 26.8474V25.6063C25.3686 22.6623 22.9735 20.2671 20.0294 20.2671Z" fill="#2DB1FF"/>
<path d="M20.0005 6.19153C21.5942 6.19153 22.949 4.94901 23.0849 3.36291C23.1141 3.02221 22.8615 2.72229 22.5208 2.69315C22.1799 2.66368 21.8803 2.91654 21.8511 3.25716C21.7696 4.20826 20.9568 4.95322 20.0005 4.95322C18.9763 4.95322 18.1431 4.11992 18.1431 3.09576C18.1431 2.0716 18.9763 1.23831 20.0005 1.23831C20.244 1.23831 20.4803 1.28445 20.7027 1.37543C21.0193 1.50512 21.3807 1.3533 21.5101 1.03679C21.6396 0.720281 21.488 0.358778 21.1715 0.229334C20.7995 0.0771877 20.4056 0 20.0005 0C18.2935 0 16.9048 1.38872 16.9048 3.09576C16.9048 4.80281 18.2935 6.19153 20.0005 6.19153Z" fill="#2DB1FF"/>
<path d="M19.3401 8.04884V10.1127C19.3401 10.4547 19.6173 10.7318 19.9592 10.7318C20.3012 10.7318 20.5784 10.4547 20.5784 10.1127V8.04884C20.5784 7.70682 20.3012 7.42969 19.9592 7.42969C19.6173 7.42969 19.3401 7.70682 19.3401 8.04884Z" fill="#2DB1FF"/>
<path d="M27.8016 16.5933C27.8676 16.5933 27.9348 16.5826 28.0009 16.5602L32.3762 15.0743C32.7 14.9643 32.8733 14.6126 32.7633 14.2889C32.6533 13.9652 32.3017 13.7916 31.9779 13.9018L27.6025 15.3877C27.2788 15.4977 27.1055 15.8494 27.2154 16.1732C27.303 16.4308 27.5438 16.5933 27.8016 16.5933Z" fill="#2DB1FF"/>
<path d="M32.4023 28.0503L28.027 26.5643C27.703 26.4543 27.3515 26.6277 27.2415 26.9514C27.1316 27.2752 27.305 27.6269 27.6286 27.7368L32.004 29.2228C32.3191 29.3324 32.68 29.1624 32.7894 28.8357C32.8994 28.5119 32.7261 28.1602 32.4023 28.0503Z" fill="#2DB1FF"/>
<path d="M12.3982 15.3876L8.02281 13.9017C7.69879 13.7918 7.34736 13.9651 7.2374 14.2888C7.12744 14.6125 7.3008 14.9642 7.62449 15.0742L11.9998 16.5601C12.0659 16.5825 12.133 16.5932 12.199 16.5932C12.4569 16.5932 12.6977 16.4307 12.7853 16.173C12.8952 15.8493 12.7219 15.4976 12.3982 15.3876Z" fill="#2DB1FF"/>
<path d="M4.40426 27.4944C3.65475 27.1448 2.81411 27.1082 2.03711 27.391C0.433094 27.9748 -0.396901 29.7548 0.186836 31.3589C0.303815 31.6802 0.659208 31.8457 0.980425 31.7289C1.30181 31.6119 1.46741 31.2566 1.35051 30.9353C1.00024 29.9729 1.49828 28.9049 2.46069 28.5546C2.92688 28.3849 3.43128 28.4069 3.88095 28.6166C4.79457 29.0198 5.21997 30.1889 4.77938 31.0849C4.49201 31.7179 3.83678 32.1434 3.1435 32.1575C2.80164 32.1662 2.53161 32.4505 2.54044 32.7922C2.54903 33.1286 2.82451 33.3955 3.1591 33.3955C4.32121 33.379 5.42 32.6682 5.9017 31.6083C6.63601 30.1149 5.92688 28.1663 4.40426 27.4944Z" fill="#2DB1FF"/>
<path d="M11.9737 26.5644L7.59838 28.0503C7.2746 28.1603 7.10132 28.512 7.21128 28.8357C7.29887 29.0935 7.5396 29.2559 7.7975 29.2559C7.86346 29.2559 7.93066 29.2453 7.9967 29.2229L12.372 27.737C12.6958 27.627 12.8691 27.2753 12.7591 26.9515C12.6492 26.6278 12.2976 26.4542 11.9737 26.5644Z" fill="#2DB1FF"/>
<path d="M20.0005 36.0762C18.2935 36.0762 16.9048 37.4649 16.9048 39.1719C16.9048 40.879 18.2935 42.2677 20.0005 42.2677C21.7076 42.2677 23.0963 40.879 23.0963 39.1719C23.0963 37.4649 21.7075 36.0762 20.0005 36.0762ZM20.0005 41.0294C18.9763 41.0294 18.1431 40.1961 18.1431 39.1719C18.1431 38.1478 18.9763 37.3145 20.0005 37.3145C21.0248 37.3145 21.858 38.1478 21.858 39.1719C21.858 40.1961 21.0247 41.0294 20.0005 41.0294Z" fill="#2DB1FF"/>
<path d="M36.9044 27.2041C35.1973 27.2041 33.8086 28.5928 33.8086 30.2999C33.8086 32.0069 35.1973 33.3956 36.9044 33.3956C38.6114 33.3956 40.0001 32.0069 40.0001 30.2999C40.0001 28.5928 38.6113 27.2041 36.9044 27.2041ZM36.9044 32.1573C35.8801 32.1573 35.0469 31.324 35.0469 30.2999C35.0469 29.2757 35.8801 28.4424 36.9044 28.4424C37.9286 28.4424 38.7618 29.2757 38.7618 30.2999C38.7618 31.324 37.9285 32.1573 36.9044 32.1573Z" fill="#2DB1FF"/>
<path d="M20.5784 34.2186V32.1548C20.5784 31.8128 20.3012 31.5356 19.9592 31.5356C19.6173 31.5356 19.3401 31.8128 19.3401 32.1548V34.2186C19.3401 34.5607 19.6173 34.8378 19.9592 34.8378C20.3012 34.8378 20.5784 34.5607 20.5784 34.2186Z" fill="#2DB1FF"/>
<path d="M36.8787 9.72949C35.1717 9.72949 33.783 11.1182 33.783 12.8253C33.783 14.5323 35.1717 15.921 36.8787 15.921C38.5858 15.921 39.9745 14.5323 39.9745 12.8253C39.9745 11.1182 38.5858 9.72949 36.8787 9.72949ZM36.8787 14.6827C35.8545 14.6827 35.0213 13.8494 35.0213 12.8253C35.0213 11.8011 35.8545 10.9678 36.8787 10.9678C37.903 10.9678 38.7362 11.8011 38.7362 12.8253C38.7362 13.8494 37.903 14.6827 36.8787 14.6827Z" fill="#2DB1FF"/>
<path d="M3.12213 9.72949C1.41509 9.72949 0.0263672 11.1182 0.0263672 12.8253C0.0263672 14.5323 1.41509 15.921 3.12213 15.921C4.82917 15.921 6.21789 14.5323 6.21789 12.8253C6.21789 11.1182 4.82909 9.72949 3.12213 9.72949ZM3.12213 14.6827C2.09789 14.6827 1.26467 13.8494 1.26467 12.8253C1.26467 11.8011 2.09789 10.9678 3.12213 10.9678C4.14637 10.9678 4.97959 11.8011 4.97959 12.8253C4.97959 13.8494 4.14629 14.6827 3.12213 14.6827Z" fill="#2DB1FF"/>
</svg>
