<svg width="48" height="40" viewBox="0 0 48 40" fill="none" xmlns="http://www.w3.org/2000/svg">
<path d="M3.63664 0.5H43.6361C44.4677 0.501008 45.2649 0.831796 45.8529 1.41982C46.441 2.0079 46.7718 2.80525 46.7727 3.63693V36.3631C46.7718 37.1948 46.441 37.9921 45.8529 38.5802C45.2648 39.1683 44.4675 39.4991 43.6358 39.5H3.63693C2.80525 39.4991 2.0079 39.1683 1.41982 38.5802C0.831797 37.9922 0.501008 37.1949 0.5 36.3634V3.63664C0.501008 2.80507 0.831796 2.00783 1.41982 1.41982C2.00783 0.831796 2.80507 0.501008 3.63664 0.5ZM3.13636 36.3636V36.8636H3.63636H43.6364H43.6386H44.1387L44.1386 36.3636L44.1364 3.63633L44.1363 3.13636H43.6364H3.63636H3.13636V3.63636V36.3636ZM12.2273 10C12.2273 10.4405 12.0966 10.8711 11.8519 11.2374C11.6072 11.6037 11.2593 11.8892 10.8523 12.0577C10.4454 12.2263 9.99753 12.2704 9.56548 12.1845C9.13343 12.0985 8.73657 11.8864 8.42508 11.5749C8.11359 11.2634 7.90146 10.8666 7.81552 10.4345C7.72958 10.0025 7.77369 9.55464 7.94227 9.14766C8.11085 8.74068 8.39632 8.39283 8.76259 8.14809C9.12887 7.90335 9.55949 7.77273 10 7.77273C10.5907 7.77273 11.1572 8.00739 11.5749 8.42508C11.9926 8.84278 12.2273 9.40929 12.2273 10ZM21.3182 10C21.3182 10.4405 21.1876 10.8711 20.9428 11.2374C20.6981 11.6037 20.3502 11.8892 19.9433 12.0577C19.5363 12.2263 19.0884 12.2704 18.6564 12.1845C18.2243 12.0985 17.8275 11.8864 17.516 11.5749C17.2045 11.2634 16.9924 10.8666 16.9064 10.4345C16.8205 10.0025 16.8646 9.55464 17.0332 9.14766C17.2018 8.74068 17.4872 8.39283 17.8535 8.14809C18.2198 7.90335 18.6504 7.77273 19.0909 7.77273C19.6816 7.77273 20.2481 8.00739 20.6658 8.42508C21.0835 8.84278 21.3182 9.40929 21.3182 10Z" stroke="#2DB1FF"/>
</svg>
