<svg width="40" height="27" viewBox="0 0 40 27" fill="none" xmlns="http://www.w3.org/2000/svg">
<path d="M39.979 18.2783C39.8793 15.9865 39.4808 13.4456 38.8829 11.0541C38.2851 8.76235 37.5377 6.62002 36.6409 4.9759C33.1534 -1.15217 29.367 -0.205557 24.8332 0.990164C23.3884 1.33892 21.8439 1.73749 20.2496 1.88695H19.7514C18.1571 1.73749 16.6126 1.33892 15.1678 0.990164C10.634 -0.155735 6.84756 -1.15217 3.36004 5.02572C2.46325 6.66984 1.6661 8.81217 1.11807 11.104C0.520205 13.4954 0.121631 16.0363 0.021988 18.3281C-0.0776554 20.869 0.171453 22.7124 0.719492 24.0078C1.26753 25.2035 2.06468 25.9508 3.11093 26.2498C4.05755 26.4989 5.15362 26.3992 6.29952 25.901C8.24257 25.1039 10.4845 23.4099 12.6767 21.3672C14.2212 19.8726 17.1108 19.1253 20.0005 19.1253C22.8901 19.1253 25.7798 19.8726 27.3243 21.3672C29.5164 23.4099 31.7584 25.1039 33.7015 25.901C34.8474 26.3494 35.9434 26.4989 36.89 26.2498C37.8865 25.9508 38.7334 25.2533 39.2815 23.958C39.8295 22.7124 40.0786 20.869 39.979 18.2783ZM37.5876 23.2605C37.2886 23.958 36.89 24.3565 36.3918 24.506C35.8438 24.6555 35.1463 24.5558 34.3491 24.2569C32.6054 23.5594 30.5627 22.0149 28.5698 20.1217C26.6766 18.2285 23.3385 17.2819 20.0005 17.2819C16.6624 17.2819 13.3244 18.2285 11.3813 20.0221C9.33865 21.9153 7.29596 23.5096 5.60202 24.1573C4.80487 24.4562 4.10737 24.6056 3.55933 24.4064C3.06111 24.2569 2.66254 23.8583 2.36361 23.1608C1.96503 22.2142 1.76575 20.6697 1.86539 18.3779C1.96503 16.2356 2.31379 13.7943 2.91165 11.5025C3.45969 9.36021 4.15719 7.36734 5.00416 5.87269C7.74435 0.940342 10.9329 1.73749 14.7194 2.73392C16.2639 3.1325 17.8582 3.53107 19.6019 3.68054C19.6517 3.68054 19.6517 3.68054 19.7016 3.68054H20.2496C20.2994 3.68054 20.2994 3.68054 20.3492 3.68054C22.1428 3.53107 23.7371 3.1325 25.2816 2.73392C29.068 1.78731 32.2566 0.940342 34.9968 5.87269C35.8438 7.36734 36.5413 9.31039 37.0893 11.5025C37.6374 13.7943 38.0359 16.1858 38.1356 18.3779C38.2352 20.6697 38.0359 22.2142 37.5876 23.2605Z" fill="#2DB1FF"/>
<path d="M15.4168 8.56271C14.9186 8.11432 14.3208 7.76557 13.6233 7.71574C13.5734 7.06806 13.2745 6.42038 12.8261 5.97199L12.7763 5.92216C12.2282 5.37412 11.5307 5.0752 10.7336 5.0752C9.93645 5.0752 9.18912 5.42395 8.69091 5.92216C8.24251 6.37056 7.89376 7.01824 7.84394 7.71574C7.14643 7.76557 6.54857 8.0645 6.05036 8.51289L6.00053 8.56271C5.45249 9.11075 5.15356 9.80826 5.15356 10.6054C5.15356 11.4026 5.50232 12.1499 6.00053 12.6481C6.49875 13.1463 7.09661 13.4452 7.84394 13.4951C7.89376 14.1926 8.19269 14.8402 8.69091 15.2886C9.23894 15.8367 9.93645 16.1356 10.7336 16.1356C11.5307 16.1356 12.2781 15.7869 12.7763 15.2886C13.2247 14.7904 13.5734 14.1926 13.6233 13.4951C14.3208 13.4452 14.9684 13.1463 15.4168 12.6481C15.9649 12.1001 16.2638 11.4026 16.2638 10.6054C16.2638 9.80826 15.9151 9.06093 15.4168 8.56271ZM14.1713 11.3527C13.972 11.552 13.7229 11.6517 13.424 11.6517H12.7265C12.2282 11.6517 11.7798 12.0502 11.7798 12.5983V13.246C11.7798 13.5449 11.6802 13.794 11.4809 13.9933C11.2816 14.1926 11.0325 14.2922 10.7336 14.2922C10.4347 14.2922 10.1856 14.1926 9.98627 13.9933C9.78698 13.794 9.68734 13.5449 9.68734 13.246V12.5485C9.68734 12.0502 9.28876 11.6018 8.74073 11.6018H8.04322C7.74429 11.6018 7.49518 11.5022 7.2959 11.3029C7.14643 11.1534 6.99697 10.9043 6.99697 10.6054C6.99697 10.3065 7.09661 10.0574 7.2959 9.85808C7.2959 9.85808 7.2959 9.85808 7.34572 9.80826C7.54501 9.65879 7.79411 9.55915 8.04322 9.55915H8.74073C9.23894 9.55915 9.68734 9.16057 9.68734 8.61254V7.91503C9.68734 7.6161 9.78698 7.36699 9.98627 7.16771C10.1856 6.96842 10.4347 6.86878 10.7336 6.86878C11.0325 6.86878 11.2816 6.96842 11.4809 7.16771C11.4809 7.16771 11.4809 7.16771 11.5307 7.21753C11.6802 7.41681 11.7798 7.66592 11.7798 7.91503V8.61254C11.7798 9.11075 12.1784 9.55915 12.7265 9.55915H13.424C13.7229 9.55915 13.972 9.65879 14.1713 9.85808C14.3706 10.0574 14.4702 10.3065 14.4702 10.6054C14.4702 10.9043 14.3706 11.1534 14.1713 11.3527Z" fill="#2DB1FF"/>
<path d="M28.6695 8.81223C29.6326 8.81223 30.4133 8.03152 30.4133 7.06847C30.4133 6.10541 29.6326 5.32471 28.6695 5.32471C27.7065 5.32471 26.9258 6.10541 26.9258 7.06847C26.9258 8.03152 27.7065 8.81223 28.6695 8.81223Z" fill="#2DB1FF"/>
<path d="M28.6695 15.8869C29.6326 15.8869 30.4133 15.1062 30.4133 14.1432C30.4133 13.1801 29.6326 12.3994 28.6695 12.3994C27.7065 12.3994 26.9258 13.1801 26.9258 14.1432C26.9258 15.1062 27.7065 15.8869 28.6695 15.8869Z" fill="#2DB1FF"/>
<path d="M25.1322 12.3493C26.0952 12.3493 26.8759 11.5686 26.8759 10.6056C26.8759 9.64252 26.0952 8.86182 25.1322 8.86182C24.1691 8.86182 23.3884 9.64252 23.3884 10.6056C23.3884 11.5686 24.1691 12.3493 25.1322 12.3493Z" fill="#2DB1FF"/>
<path d="M32.2069 12.3493C33.1699 12.3493 33.9507 11.5686 33.9507 10.6056C33.9507 9.64252 33.1699 8.86182 32.2069 8.86182C31.2438 8.86182 30.4631 9.64252 30.4631 10.6056C30.4631 11.5686 31.2438 12.3493 32.2069 12.3493Z" fill="#2DB1FF"/>
</svg>
