<svg width="24" height="40" viewBox="0 0 24 40" fill="none" xmlns="http://www.w3.org/2000/svg">
<path d="M19.1667 33.3332H4.16667C1.87 33.3332 0 31.4648 0 29.1665V10.8332C0 8.53484 1.87 6.6665 4.16667 6.6665H19.1667C21.4633 6.6665 23.3333 8.53484 23.3333 10.8332V29.1665C23.3333 31.4648 21.4633 33.3332 19.1667 33.3332ZM4.16667 8.33317C2.78833 8.33317 1.66667 9.45484 1.66667 10.8332V29.1665C1.66667 30.5448 2.78833 31.6665 4.16667 31.6665H19.1667C20.545 31.6665 21.6667 30.5448 21.6667 29.1665V10.8332C21.6667 9.45484 20.545 8.33317 19.1667 8.33317H4.16667Z" fill="#2DB1FF"/>
<path d="M15.8335 25C15.6202 25 15.4068 24.9183 15.2435 24.7567L11.0768 20.59C10.9218 20.4333 10.8335 20.2217 10.8335 20V13.3333C10.8335 12.8733 11.2068 12.5 11.6668 12.5C12.1268 12.5 12.5002 12.8733 12.5002 13.3333V19.655L16.4235 23.5783C16.7485 23.9033 16.7485 24.4317 16.4235 24.7567C16.2602 24.9183 16.0468 25 15.8335 25Z" fill="#2DB1FF"/>
<path d="M16.6668 40H6.66682C6.32016 40 6.00849 39.785 5.88682 39.46L3.38683 32.7933C3.22516 32.3617 3.44349 31.8817 3.87349 31.72C4.30516 31.5517 4.78516 31.775 4.94683 32.2067L7.24516 38.3333H16.0901L18.3868 32.2067C18.5485 31.775 19.0268 31.55 19.4601 31.72C19.8901 31.8817 20.1085 32.3617 19.9468 32.7933L17.4468 39.46C17.3251 39.785 17.0135 40 16.6668 40V40Z" fill="#2DB1FF"/>
<path d="M19.1668 8.33333C18.8301 8.33333 18.5118 8.12667 18.3868 7.79333L16.0885 1.66667H7.24516L4.94683 7.79333C4.78516 8.22333 4.30516 8.44667 3.87349 8.28C3.44349 8.11833 3.22516 7.63833 3.38683 7.20667L5.88682 0.54C6.00849 0.215 6.32016 0 6.66682 0H16.6668C17.0135 0 17.3251 0.215 17.4468 0.54L19.9468 7.20667C20.1085 7.63833 19.8901 8.11833 19.4601 8.28C19.3635 8.31667 19.2651 8.33333 19.1668 8.33333V8.33333Z" fill="#2DB1FF"/>
</svg>
