<svg width="37" height="42" viewBox="0 0 37 42" fill="none" xmlns="http://www.w3.org/2000/svg">
<path d="M21.8843 31.1852C19.698 31.9147 17.2865 31.9145 15.094 31.1849C14.4797 30.9803 13.8163 31.3126 13.612 31.9266C13.4077 32.5407 13.7398 33.2043 14.3539 33.4087C15.6891 33.8531 17.0907 34.0752 18.492 34.0752C19.8932 34.0752 21.2941 33.8528 22.6262 33.4084C23.2401 33.2035 23.5717 32.5398 23.3668 31.9258C23.162 31.312 22.4984 30.9805 21.8843 31.1852V31.1852Z" stroke="#2DB1FF"/>
<path d="M32.1408 8.65617C31.642 5.07883 28.5702 2.25523 24.7656 2.25523H23.427V2.17188C23.427 1.52469 22.9023 1 22.2552 1H14.7239C14.0767 1 13.552 1.52469 13.552 2.17188V2.25516H12.2135C8.44078 2.25516 5.36477 5.03937 4.84164 8.65531C2.64492 9.15523 1 11.1228 1 13.4687V23.5104C1 26.7218 3.61586 28.0306 4.80406 28.313C5.34062 35.5427 11.4112 41 18.4895 41C25.708 41 31.6425 35.398 32.1745 28.3134C35.2545 27.5821 35.9791 24.7877 35.9791 23.5105V13.4688C35.9791 11.1241 34.3358 9.15727 32.1408 8.65617V8.65617ZM23.427 4.59891H24.7655C28.0813 4.59891 29.4511 7.30992 29.7359 8.53125H23.427V4.59891ZM15.8958 3.34375H21.0833V8.53125H15.8958V3.34375ZM12.2135 4.59891H13.552V8.53125H7.24805C8.00813 5.34719 10.8927 4.59891 12.2135 4.59891V4.59891ZM18.4895 38.6562C12.7055 38.6562 7.76141 34.2745 7.16891 28.4479H12.9478C14.3859 28.4479 15.7929 27.8652 16.8081 26.8491C16.8141 26.8431 16.8201 26.837 16.826 26.8309C17.2669 26.3996 17.8717 26.1528 18.4895 26.1528C19.1075 26.1528 19.7123 26.3997 20.1531 26.8309C20.159 26.837 20.1649 26.8431 20.171 26.8491C21.1863 27.8652 22.5933 28.4479 24.0314 28.4479H29.8098C29.2212 34.1745 24.369 38.6562 18.4895 38.6562V38.6562ZM33.6354 23.5105C33.6354 24.9608 32.4533 26.1041 31.0416 26.1041H24.0314C23.2195 26.1041 22.4253 25.7791 21.848 25.2113C21.8416 25.2047 21.8352 25.1981 21.8288 25.1916C20.9502 24.313 19.7331 23.8091 18.4896 23.8091C17.2462 23.8091 16.0291 24.313 15.1505 25.1916C15.1441 25.198 15.1376 25.2046 15.1313 25.2112C14.5538 25.7791 13.7596 26.1041 12.9478 26.1041H5.93742C4.53023 26.1041 3.34367 24.9657 3.34367 23.5105V13.4688C3.34367 12.0386 4.50727 10.8751 5.93742 10.8751H31.0416C32.4718 10.8751 33.6353 12.0387 33.6353 13.4688V23.5105H33.6354Z" stroke="#2DB1FF"/>
</svg>
