<?xml version="1.0" encoding="utf-8"?>
<!-- Generator: Adobe Illustrator 22.0.1, SVG Export Plug-In . SVG Version: 6.00 Build 0)  -->
<svg version="1.1" id="Layer_1" xmlns="http://www.w3.org/2000/svg" xmlns:xlink="http://www.w3.org/1999/xlink" x="0px" y="0px"
	 viewBox="0 0 520 520" style="enable-background:new 0 0 520 520;" xml:space="preserve">
<style type="text/css">
	.st0{fill:#E1E1E1;}
	.st1{fill:#FAFAFA;}
	.st2{fill-rule:evenodd;clip-rule:evenodd;fill:#E1E1E1;}
	.st3{fill-rule:evenodd;clip-rule:evenodd;fill:#F5F5F5;}
	.st4{fill-rule:evenodd;clip-rule:evenodd;fill:#ECECEC;}
	.st5{fill:#E7F1FD;}
	.st6{fill:#B4DAF9;}
	.st7{fill:#4BA2F4;}
	.st8{fill:#0082CB;}
	.st9{fill:#D0E6FC;}
	.st10{fill:#FFDF69;}
	.st11{fill:#FFDC7D;}
	.st12{fill:#FFFFFF;}
	.st13{fill:url(#SVGID_1_);}
	.st14{fill:#EEA886;}
	.st15{fill:#202338;}
	.st16{fill:#81807E;}
	.st17{fill:#0255A0;}
	.st18{fill:#2DB1FF;}
	.st19{fill:#1D2033;}
	.st20{fill:#EEA987;}
	.st21{fill:#C4C1CC;}
	.st22{fill:#3A4066;}
	.st23{fill:#A77860;}
	.st24{fill:#323657;}
	.st25{fill:#666FB3;}
	.st26{fill:#2D314F;}
	.st27{fill:#B8B8B8;}
	.st28{fill:#004E8C;}
	.st29{fill:#238EFE;}
	.st30{fill:url(#SVGID_2_);}
	.st31{fill:#E3F2FF;}
	.st32{fill:#EBEBEB;}
	.st33{fill:#0E2D3D;}
	.st34{fill:#163342;}
	.st35{fill:#183C59;}
	.st36{fill:#616161;}
	.st37{fill:#E0CEC7;}
	.st38{fill:#E2D2CA;}
	.st39{fill:#706865;}
	.st40{fill:#CCBDB7;}
	.st41{fill:#EAD8CF;}
	.st42{fill:#DA9B5B;}
	.st43{fill:#424773;}
	.st44{fill:#292C47;}
	.st45{fill:#3A3F47;}
	.st46{fill:#918783;}
	.st47{fill:#5E5854;}
	.st48{fill:#BFB2AC;}
	.st49{fill:#F2E2D9;}
	.st50{fill:#F5F7FF;}
	.st51{fill:#918681;}
	.st52{fill:#DFE1E8;}
	.st53{fill:#AB9546;}
	.st54{fill-rule:evenodd;clip-rule:evenodd;fill:#D0E6FC;}
	.st55{fill:#ECECEC;}
	.st56{fill:#F5F5F5;}
	.st57{fill:#455A64;}
	.st58{fill:#1A2E35;}
	.st59{fill:#E8505B;}
	.st60{fill:#007CFF;}
	.st61{fill:#FFBE9D;}
	.st62{fill:#EB996E;}
	.st63{opacity:0.3;}
	.st64{fill:#1C709B;}
	.st65{fill:#F0F0F0;}
	.st66{fill:none;stroke:#E7E7E7;stroke-miterlimit:10;}
	.st67{fill:#E1E1E1;enable-background:new    ;}
	.st68{opacity:0.8;fill:#E1E1E1;}
	.st69{opacity:0.2;fill:#FFFFFF;}
	.st70{opacity:0.4;fill:#FFFFFF;}
	.st71{opacity:0.6;fill:#FFFFFF;enable-background:new    ;}
	.st72{opacity:0.6;fill:#FFFFFF;}
	.st73{opacity:0.1;enable-background:new    ;}
	.st74{opacity:0.7;fill:#FFFFFF;}
	.st75{opacity:0.2;enable-background:new    ;}
	.st76{fill:none;stroke:#FFFFFF;stroke-miterlimit:10;}
	.st77{fill:none;stroke:#FFFFFF;stroke-miterlimit:10;stroke-dasharray:4.8785,4.8785;}
	.st78{fill:none;stroke:#FFFFFF;stroke-miterlimit:10;stroke-dasharray:5.193,5.193;}
	.st79{fill:#007CFF;stroke:#FFFFFF;stroke-miterlimit:10;}
	.st80{fill:none;stroke:#FFFFFF;stroke-width:1.5;stroke-linecap:round;stroke-linejoin:round;stroke-miterlimit:10;}
	.st81{opacity:0.5;fill:#FFFFFF;}
	.st82{fill:none;stroke:#007CFF;stroke-miterlimit:10;}
	.st83{fill:#FFFFFF;stroke:#007CFF;stroke-miterlimit:10;}
	.st84{opacity:0.4;enable-background:new    ;}
	.st85{opacity:0.9;fill:#FFFFFF;}
	.st86{opacity:0.1;}
	.st87{opacity:0.3;enable-background:new    ;}
	.st88{fill:#FCB373;}
	.st89{fill:none;stroke:#1A2E35;stroke-width:0.5;stroke-linecap:round;stroke-linejoin:round;stroke-miterlimit:10;}
	.st90{opacity:0.2;fill:#FFFFFF;enable-background:new    ;}
	.st91{opacity:0.3;fill:#FFFFFF;enable-background:new    ;}
	.st92{fill:#CC7A63;}
	.st93{opacity:0.4;fill:#FFFFFF;enable-background:new    ;}
	.st94{fill:#B84D3C;}
	.st95{fill:none;stroke:#FFFFFF;stroke-width:2;stroke-linecap:round;stroke-linejoin:round;stroke-miterlimit:10;}
	.st96{fill:#E7E7E7;}
	.st97{opacity:0.8;fill:#E7F1FD;}
	.st98{opacity:0.5;}
	.st99{opacity:0.3;fill:#FFFFFF;}
	.st100{opacity:0.8;fill:#FFFFFF;}
	.st101{opacity:0.2;}
	.st102{fill:#FFC3BD;}
	.st103{fill:#FF8935;}
	.st104{fill:#AFD8F9;}
	.st105{fill:#FF4F5B;}
	.st106{fill:#F4BBAC;}
	.st107{fill:#EF8876;}
	.st108{fill:none;stroke:#1A2E35;stroke-width:2.000000e-02;stroke-miterlimit:10;}
	.st109{fill:none;stroke:#1A2E35;stroke-width:2.000000e-02;stroke-miterlimit:10;stroke-dasharray:1;}
	.st110{fill:none;}
	.st111{fill:#FDFFFF;}
	.st112{fill:#C78976;}
	.st113{fill:#BF654E;}
	.st114{opacity:0.6;}
</style>
<g>
	<g>
		<g>
			<g>
				<g>
					<path class="st55" d="M452.4,429.1c4.1-2.1,8.8-2.4,13.3-1.6c2.4,0.4,4.9,1.1,6.6,2.9c1.6,1.8,2,5,0.1,6.6
						c-1.1,0.9-2.7,1.1-4.2,1.1c-3.5,0-7.4-0.7-10.3,1.5c-1.6,1.2-2.7,3.2-4.6,3.8c-1.9,0.6-4-0.5-5-2.2c-1-1.7-1-3.8-0.6-5.7
						C447.9,435.4,448.3,431.2,452.4,429.1z"/>
				</g>
			</g>
		</g>
		<g>
			<g>
				<g>
					<path class="st55" d="M443.1,411.2c2.5,3.5,7.3,2.4,9.5,0.2c2.2-2.2,3.2-5.3,4-8.3c2-6.8,3.9-14,2.5-21
						c-0.4-2.1-1.2-4.2-2.7-5.7c-1.5-1.5-3.7-2.5-5.8-1.9c-2.4,0.6-3.9,3-5,5.3c-3.2,6.7-4.9,14-4.9,21.4
						C440.8,404.7,441.2,408.3,443.1,411.2"/>
				</g>
			</g>
		</g>
		<g>
			<g>
				<g>
					<path class="st55" d="M436.3,416.3c2.7-3.2,3.2-7.9,2-11.9c-1.2-4-3.9-7.4-7-10.2c-3.7-3.3-8-5.8-12.6-7.4
						c-1.8-0.6-3.7-1.1-5.7-1c-1.9,0.2-3.9,1.2-4.8,2.9c-1.3,2.5-0.1,5.6,1.3,8.1c2.4,4.4,5.2,8.6,8.3,12.6c2.5,3.2,5.3,6.3,9.1,7.8
						c3.8,1.4,7.7,1.3,9.7-1.3"/>
				</g>
			</g>
		</g>
		<g>
			<g>
				<g>
					<g>
						<path class="st0" d="M443,464.7c0,0,0.1-0.6,0.2-1.6c0.1-1.2,0.3-2.6,0.4-4.4c0.2-1.8,0.5-4.1,1-6.4c0.5-2.4,1.3-5,2.3-7.6
							c1.1-2.6,2.4-5,3.9-6.9c1.5-1.9,3.3-3.3,4.9-4.1c1.6-0.8,3.1-1.1,4.1-1.3c1-0.1,1.6-0.2,1.6-0.2c0,0-0.6-0.1-1.6,0
							c-1,0.1-2.6,0.3-4.3,1.1c-1.7,0.8-3.6,2.2-5.2,4.1c-1.6,1.9-2.9,4.4-4,7c-1,2.7-1.8,5.3-2.3,7.7c-0.5,2.4-0.7,4.7-0.9,6.5
							c-0.1,1.9-0.2,3.4-0.2,4.4C442.9,464.1,442.9,464.7,443,464.7z"/>
					</g>
				</g>
			</g>
		</g>
		<g>
			<g>
				<g>
					<g>
						<path class="st0" d="M443.3,461.3c0,0,0-0.3,0-0.7c0-0.6,0-1.3,0-2.1c0-1.9,0-4.5,0.1-7.9c0.2-6.6,0.7-13.8,1.8-23.8
							c1-9.5,2.4-20.5,3.9-27.6c0.3-1.6,0.6-3.1,0.9-4.4c0.3-1.3,0.5-2.4,0.8-3.3c0.2-0.8,0.4-1.5,0.5-2.1c0.1-0.5,0.2-0.7,0.1-0.7
							c0,0-0.1,0.2-0.3,0.7c-0.2,0.5-0.4,1.2-0.6,2c-0.3,0.9-0.6,2-0.9,3.3c-0.3,1.3-0.7,2.7-1,4.4c-1.5,6.5-3,15.5-4.1,25.6
							c-1.1,10.1-1.6,19.3-1.6,25.9c0,3.3,0,6,0.1,7.9c0.1,0.9,0.1,1.6,0.1,2.1C443.2,461,443.2,461.3,443.3,461.3z"/>
					</g>
				</g>
			</g>
		</g>
		<g>
			<g>
				<g>
					<g>
						<path class="st0" d="M443.3,443.6c0,0,0-0.8,0-2.2c-0.1-1.4-0.3-3.5-0.7-6c-0.4-2.5-1-5.5-2-8.8c-0.4-1.5-1.4-5.1-3.7-10.4
							c-3.1-7.3-7.2-13.2-10.8-16.9c-0.8-1-1.8-1.7-2.5-2.4c-0.4-0.3-0.7-0.7-1.1-0.9c-0.4-0.2-0.7-0.5-1-0.7
							c-1.2-0.8-1.9-1.2-1.9-1.2c-0.1,0.1,2.7,1.8,6.2,5.5c3.5,3.7,7.5,9.6,10.6,16.8c1.7,3.9,2.9,7.4,3.7,10.3
							c1,3.2,1.6,6.2,2.1,8.7c0.5,2.5,0.7,4.6,0.9,6C443.2,442.8,443.3,443.6,443.3,443.6z"/>
					</g>
				</g>
			</g>
		</g>
	</g>
	<g>
		<g>
			<g>
				<polygon class="st0" points="426.2,474.8 428,499.1 459.2,499.1 461,474.8 				"/>
			</g>
		</g>
	</g>
	<g>
		<g>
			<g>
				<rect x="423.2" y="465.2" class="st0" width="41.5" height="9.6"/>
			</g>
		</g>
	</g>
	<g>
		<g>
			<g>
				<polygon class="st55" points="423.2,498.2 423.2,500.8 425.1,500.8 464,500.8 464,498.2 				"/>
			</g>
		</g>
	</g>
	<g>
		<g>
			<g>
				<polygon class="st0" points="427,505.5 425.1,500.8 462.5,500.8 460.3,505.5 				"/>
			</g>
		</g>
	</g>
	<g>
		<g>
			<g>
				<g>
					<path class="st56" d="M460.4,482.7c0,0,0,0.1-0.1,0.2c-0.1,0.2-0.3,0.4-0.5,0.6c-0.4,0.6-1.1,1.3-1.8,2.3l-0.1,0.1l-0.1-0.1
						c-1.1-1.6-2.7-3.7-4.5-6.2h0.3c-1.3,1.9-2.8,4-4.4,6.2l-0.1,0.2l-0.2-0.2c-1.6-1.9-3.4-4-5.2-6.2l0.3,0
						c-0.1,0.1-0.2,0.2-0.3,0.4c-1.6,2-3.2,4-4.7,5.8l-0.2,0.2l-0.1-0.2c-1.6-2.2-3.1-4.3-4.4-6.2l0.3,0c-2.2,2.5-4,4.6-5.4,6.2
						l-0.1,0.1l-0.1-0.1c-0.7-1.2-1.3-2.2-1.7-2.9c-0.2-0.3-0.3-0.6-0.4-0.8c-0.1-0.2-0.1-0.3-0.1-0.3c0,0,0.1,0.1,0.2,0.2
						c0.1,0.2,0.3,0.4,0.5,0.7c0.4,0.7,1,1.6,1.8,2.8l-0.2,0c1.4-1.6,3.2-3.7,5.3-6.3l0.1-0.2l0.1,0.2c1.3,1.9,2.8,4,4.4,6.2l-0.3,0
						c1.5-1.9,3-3.8,4.7-5.9c0.1-0.1,0.2-0.2,0.3-0.4l0.1-0.2l0.2,0.2c1.8,2.2,3.6,4.3,5.2,6.2l-0.3,0c1.6-2.2,3.1-4.3,4.4-6.2
						l0.1-0.2l0.1,0.2c1.8,2.5,3.3,4.6,4.4,6.2l-0.2,0c0.8-1,1.4-1.7,1.9-2.3c0.2-0.2,0.4-0.4,0.5-0.6
						C460.3,482.8,460.4,482.7,460.4,482.7z"/>
				</g>
			</g>
		</g>
	</g>
	<g>
		<g>
			<g>
				<g>
					<path class="st56" d="M461.4,474.6c0,0.1-7.8,0.2-17.5,0.2c-9.7,0-17.5-0.1-17.5-0.2c0-0.1,7.8-0.2,17.5-0.2
						C453.6,474.4,461.4,474.5,461.4,474.6z"/>
				</g>
			</g>
		</g>
	</g>
	<g>
		<g>
			<g>
				<g>
					<path class="st56" d="M463,501.1c0,0.1-8.5,0.2-19,0.2c-10.5,0-19-0.1-19-0.2c0-0.1,8.5-0.2,19-0.2
						C454.5,500.9,463,501,463,501.1z"/>
				</g>
			</g>
		</g>
	</g>
</g>
<rect x="453" y="438.4" class="st55" width="37.5" height="0.3"/>
<rect x="346.2" y="441.5" class="st55" width="9.9" height="0.3"/>
<rect x="430.1" y="427.9" class="st55" width="21.7" height="0.3"/>
<rect x="40.2" y="429.8" class="st55" width="48.9" height="0.3"/>
<rect x="99.2" y="429.8" class="st55" width="7.2" height="0.3"/>
<rect x="129.7" y="434.6" class="st55" width="106.1" height="0.3"/>
<path class="st55" d="M249.3,369.7H30.5c-3.6,0-6.5-2.9-6.5-6.5V55.6c0-3.6,2.9-6.5,6.5-6.5h218.8c3.6,0,6.5,2.9,6.5,6.5v307.6
	C255.8,366.8,252.9,369.7,249.3,369.7z M30.5,49.4c-3.4,0-6.2,2.8-6.2,6.2v307.6c0,3.4,2.8,6.2,6.2,6.2h218.8c3.4,0,6.2-2.8,6.2-6.2
	V55.6c0-3.4-2.8-6.2-6.2-6.2H30.5z"/>
<path class="st55" d="M494.4,369.7H275.6c-3.6,0-6.5-2.9-6.5-6.5V55.6c0-3.6,2.9-6.5,6.5-6.5h218.8c3.6,0,6.5,2.9,6.5,6.5v307.6
	C500.8,366.8,497.9,369.7,494.4,369.7z M275.6,49.4c-3.4,0-6.2,2.8-6.2,6.2v307.6c0,3.4,2.8,6.2,6.2,6.2h218.8
	c3.4,0,6.2-2.8,6.2-6.2V55.6c0-3.4-2.8-6.2-6.2-6.2H275.6z"/>
<g>
	<g>
		<path class="st65" d="M381.8,48.1c0-3.1-2.5-5.5-5.5-5.5c-0.6,0-1.1,0.1-1.6,0.2c0.1-0.6,0.1-1.1,0.1-1.7
			c0-6.5-5.3-11.7-11.7-11.7c-0.7,0-1.5,0.1-2.2,0.2c-1.8-3-5-4.9-8.8-4.9c-5.6,0-10.2,4.5-10.3,10.1c-0.1,0-0.1,0-0.2,0
			c-5.2,0-9.5,4.2-9.5,9.5s4.2,9.5,9.5,9.5h34.7l0,0C379.4,53.5,381.8,51.1,381.8,48.1z"/>
		<polygon class="st0" points="361.4,56.4 361.4,45.6 352.6,45.6 352.6,56.4 345.4,56.4 357,66.2 368.6,56.4 		"/>
	</g>
	<g>
		<path class="st65" d="M208.1,64.4c0-6.5-5.3-11.8-11.8-11.8c-1.2,0-2.3,0.2-3.4,0.5c0.2-1.2,0.3-2.4,0.3-3.6
			c0-13.8-11.2-24.9-24.9-24.9c-1.6,0-3.1,0.2-4.6,0.4c-3.8-6.3-10.7-10.5-18.6-10.5c-11.9,0-21.6,9.6-21.8,21.5c-0.1,0-0.2,0-0.4,0
			c-11.1,0-20.1,9-20.1,20.1c0,11.1,9,20.1,20.1,20.1h73.7l0,0C203,76,208.1,70.8,208.1,64.4z"/>
		<polygon class="st0" points="146.1,65.3 146.1,88.3 164.9,88.3 164.9,65.3 180.1,65.3 155.5,44.6 130.9,65.3 		"/>
	</g>
	<g>
		<polyline class="st66" points="217.5,121.7 217.5,90.9 312,90.9 312,121.4 		"/>
		<line class="st66" x1="266.1" y1="61.8" x2="266.1" y2="121.6"/>
		<g>
			<path class="st65" d="M282.4,50h-32.5c-0.7,0-1.2,0.5-1.2,1.2v19.4c0,0.7,0.5,1.2,1.2,1.2h32.5c0.7,0,1.2-0.5,1.2-1.2V51.2
				C283.6,50.6,283,50,282.4,50z"/>
			<path class="st0" d="M281.9,71h-31.6c-0.2,0-0.4-0.2-0.4-0.4V53c0-0.2,0.2-0.4,0.4-0.4h31.6c0.2,0,0.4,0.2,0.4,0.4v17.5
				C282.4,70.8,282.2,71,281.9,71z"/>
		</g>
		<g>
			<path class="st65" d="M233.7,118.9h-32.5c-0.7,0-1.2,0.5-1.2,1.2v19.4c0,0.7,0.5,1.2,1.2,1.2h32.5c0.7,0,1.2-0.5,1.2-1.2v-19.4
				C234.9,119.5,234.4,118.9,233.7,118.9z"/>
			<path class="st0" d="M233.3,139.9h-31.6c-0.2,0-0.4-0.2-0.4-0.4v-17.5c0-0.2,0.2-0.4,0.4-0.4h31.6c0.2,0,0.4,0.2,0.4,0.4v17.5
				C233.7,139.7,233.5,139.9,233.3,139.9z"/>
		</g>
		<g>
			<path class="st65" d="M282.4,118.9h-32.5c-0.7,0-1.2,0.5-1.2,1.2v19.4c0,0.7,0.5,1.2,1.2,1.2h32.5c0.7,0,1.2-0.5,1.2-1.2v-19.4
				C283.6,119.5,283,118.9,282.4,118.9z"/>
			<path class="st0" d="M281.9,139.9h-31.6c-0.2,0-0.4-0.2-0.4-0.4v-17.5c0-0.2,0.2-0.4,0.4-0.4h31.6c0.2,0,0.4,0.2,0.4,0.4v17.5
				C282.4,139.7,282.2,139.9,281.9,139.9z"/>
		</g>
		<g>
			<path class="st65" d="M328.3,118.9h-32.5c-0.7,0-1.2,0.5-1.2,1.2v19.4c0,0.7,0.5,1.2,1.2,1.2h32.5c0.7,0,1.2-0.5,1.2-1.2v-19.4
				C329.5,119.5,329,118.9,328.3,118.9z"/>
			<path class="st0" d="M327.9,139.9h-31.6c-0.2,0-0.4-0.2-0.4-0.4v-17.5c0-0.2,0.2-0.4,0.4-0.4h31.6c0.2,0,0.4,0.2,0.4,0.4v17.5
				C328.3,139.7,328.1,139.9,327.9,139.9z"/>
		</g>
		<path class="st67" d="M265.5,81.5l-8.7,8.7c-0.4,0.4-0.4,0.9,0,1.3l8.7,8.7c0.4,0.4,0.9,0.4,1.3,0l8.7-8.7c0.4-0.4,0.4-0.9,0-1.3
			l-8.7-8.7C266.4,81.2,265.9,81.2,265.5,81.5z"/>
	</g>
	<g>
		<path class="st68" d="M81.8,90.6H58.9c-0.5,0-0.9-0.4-0.9-0.9v-13c0-0.5,0.4-0.9,0.9-0.9h22.9c0.5,0,0.9,0.4,0.9,0.9v13
			C82.6,90.2,82.3,90.6,81.8,90.6z"/>
		<path class="st0" d="M64.5,118.9H46.3c-0.5,0-0.9-0.4-0.9-0.9v-9.5c0-0.5,0.4-0.9,0.9-0.9h18.2c0.5,0,0.9,0.4,0.9,0.9v9.5
			C65.3,118.5,65,118.9,64.5,118.9z"/>
		<path class="st0" d="M94.7,118.9H76.5c-0.5,0-0.9-0.4-0.9-0.9v-9.5c0-0.5,0.4-0.9,0.9-0.9h18.2c0.5,0,0.9,0.4,0.9,0.9v9.5
			C95.6,118.5,95.2,118.9,94.7,118.9z"/>
		<g>
			<path class="st0" d="M76.1,141.1h-8.7c-0.5,0-0.9-0.4-0.9-0.9v-7.9c0-0.5,0.4-0.9,0.9-0.9h8.7c0.5,0,0.9,0.4,0.9,0.9v7.9
				C77,140.7,76.6,141.1,76.1,141.1z"/>
			<path class="st0" d="M89.4,141.1h-8.7c-0.5,0-0.9-0.4-0.9-0.9v-7.9c0-0.5,0.4-0.9,0.9-0.9h8.7c0.5,0,0.9,0.4,0.9,0.9v7.9
				C90.3,140.7,89.9,141.1,89.4,141.1z"/>
			<path class="st0" d="M102.7,141.1H94c-0.5,0-0.9-0.4-0.9-0.9v-7.9c0-0.5,0.4-0.9,0.9-0.9h8.7c0.5,0,0.9,0.4,0.9,0.9v7.9
				C103.6,140.7,103.2,141.1,102.7,141.1z"/>
		</g>
		<path class="st0" d="M45.4,141.1h-8.7c-0.5,0-0.9-0.4-0.9-0.9v-7.9c0-0.5,0.4-0.9,0.9-0.9h8.7c0.5,0,0.9,0.4,0.9,0.9v7.9
			C46.3,140.7,45.9,141.1,45.4,141.1z"/>
		<path class="st0" d="M59.8,141.1h-8.7c-0.5,0-0.9-0.4-0.9-0.9v-7.9c0-0.5,0.4-0.9,0.9-0.9h8.7c0.5,0,0.9,0.4,0.9,0.9v7.9
			C60.7,140.7,60.3,141.1,59.8,141.1z"/>
		<g>
			<polygon class="st0" points="84.5,107.6 85.6,107.6 85.6,99.7 70.9,99.7 70.9,90.6 69.8,90.6 69.8,99.7 55,99.7 55,107.6 
				56.2,107.6 56.2,100.8 84.5,100.8 			"/>
			<polygon class="st0" points="55,125.8 40.3,125.8 40.3,131.4 41.4,131.4 41.4,126.9 55,126.9 55,131.4 56.2,131.4 56.2,119 
				55,119 			"/>
			<polygon class="st0" points="85.6,126.9 85.6,119 84.5,119 84.5,126.9 70.9,126.9 70.9,131.4 72,131.4 72,128 84.5,128 
				84.5,131.4 85.6,131.4 85.6,128 98.1,128 98.1,131.4 99.2,131.4 99.2,126.9 			"/>
		</g>
	</g>
	<g>
		<path class="st56" d="M412.4,79.4v8.1l4.2,0.4c0.6,2.7,1.6,5.3,3.1,7.5l-2.7,3.3l5.8,5.8l3.3-2.7c2.3,1.5,4.8,2.6,7.5,3.1l0.4,4.2
			h8.1l0.4-4.2c2.7-0.6,5.3-1.6,7.5-3.1l3.3,2.7l5.8-5.8l-2.7-3.3c1.5-2.3,2.6-4.8,3.1-7.5l4.2-0.4v-8.1l-4.2-0.4
			c-0.6-2.7-1.6-5.3-3.1-7.5l2.7-3.3l-5.8-5.8l-3.3,2.7c-2.3-1.5-4.8-2.6-7.5-3.1l-0.4-4.2H434l-0.4,4.2c-2.7,0.6-5.3,1.6-7.5,3.1
			l-3.3-2.7l-5.8,5.8l2.7,3.3c-1.5,2.3-2.6,4.8-3.1,7.5L412.4,79.4z M438.1,72.5c6.1,0,11,4.9,11,11c0,6.1-4.9,11-11,11
			c-6.1,0-11-4.9-11-11C427,77.4,432,72.5,438.1,72.5z"/>
		<path class="st56" d="M417.7,138.8c2.1-0.4,4.1-1.3,5.9-2.4l2.5,2.1l4.5-4.5l-2.1-2.5c1.2-1.8,2-3.8,2.4-5.9l3.3-0.3v-6.4
			l-3.3-0.3c-0.4-2.1-1.3-4.1-2.4-5.9l2.1-2.5l-4.5-4.5l-2.5,2.1c-1.8-1.2-3.8-2-5.9-2.4l-0.3-3.3H411l-0.3,3.3
			c-2.1,0.4-4.1,1.3-5.9,2.4l-2.5-2.1l-4.5,4.5l2.1,2.5c-1.2,1.8-2,3.8-2.4,5.9l-3.3,0.3v6.4l3.3,0.3c0.4,2.1,1.3,4.1,2.4,5.9
			l-2.1,2.5l4.5,4.5l2.5-2.1c1.8,1.2,3.8,2,5.9,2.4l0.3,3.3h6.4L417.7,138.8z M405.6,122c0-4.8,3.9-8.6,8.6-8.6
			c4.8,0,8.6,3.9,8.6,8.6c0,4.8-3.9,8.6-8.6,8.6C409.4,130.6,405.6,126.8,405.6,122z"/>
		<path class="st56" d="M403.5,104.3l2.1,1.8l3.8-3.8l-1.8-2.1c1-1.5,1.7-3.2,2.1-4.9l2.8-0.3v-5.4l-2.8-0.3
			c-0.4-1.8-1.1-3.5-2.1-4.9l1.8-2.1l-3.8-3.8l-2.1,1.8c-1.5-1-3.2-1.7-4.9-2.1l-0.3-2.8l-5.4,0l-0.3,2.8c-1.8,0.4-3.5,1.1-4.9,2.1
			l-2.1-1.8l-3.8,3.8l1.8,2.1c-1,1.5-1.7,3.2-2.1,4.9l-2.8,0.3v5.4l2.8,0.3c0.4,1.8,1.1,3.5,2.1,4.9l-1.8,2.1l3.8,3.8l2.1-1.8
			c1.5,1,3.2,1.7,4.9,2.1l0.3,2.8h5.4l0.3-2.8C400.3,106,402,105.2,403.5,104.3z M388.3,92.2c0-4,3.2-7.3,7.3-7.3
			c4,0,7.3,3.2,7.3,7.3c0,4-3.2,7.3-7.3,7.3C391.6,99.5,388.3,96.2,388.3,92.2z"/>
	</g>
	<g>
		<g>
			<rect x="402.5" y="304.1" class="st56" width="76.1" height="49.5"/>
		</g>
		<rect x="405.3" y="313.3" class="st0" width="70.5" height="37.7"/>
		<g>
			<rect x="411" y="319" class="st56" width="52.2" height="1.6"/>
			<rect x="411" y="323.9" class="st56" width="25" height="1.6"/>
			<rect x="411" y="328.9" class="st56" width="31.5" height="1.6"/>
			<rect x="411" y="333.9" class="st56" width="11.1" height="1.6"/>
			<rect x="411" y="338.9" class="st56" width="7.2" height="1.6"/>
		</g>
	</g>
	<g>
		
			<rect x="35" y="303.9" transform="matrix(1 -4.558345e-03 4.558345e-03 1 -1.4607 0.2861)" class="st55" width="54.1" height="33.4"/>
		<g>
			<g>
				<path class="st1" d="M55.7,329c-0.2,0-0.5-0.1-0.7-0.2l-9.9-7.2c-0.3-0.2-0.5-0.5-0.5-0.9c0-0.4,0.2-0.7,0.5-0.9l9.8-7.3
					c0.5-0.4,1.2-0.3,1.6,0.2c0.4,0.5,0.3,1.2-0.2,1.6l-8.6,6.4l8.6,6.3c0.5,0.4,0.6,1.1,0.2,1.6C56.4,328.9,56,329,55.7,329z"/>
			</g>
			<g>
				<path class="st1" d="M68.5,329c-0.3,0-0.7-0.2-0.9-0.5c-0.4-0.5-0.3-1.2,0.2-1.6l8.6-6.4l-8.6-6.3c-0.5-0.4-0.6-1.1-0.2-1.6
					c0.4-0.5,1.1-0.6,1.6-0.2l9.9,7.2c0.3,0.2,0.5,0.6,0.5,0.9c0,0.4-0.2,0.7-0.5,0.9l-9.8,7.3C69,328.9,68.7,329,68.5,329z"/>
			</g>
			<g>
				<path class="st1" d="M59.5,329c-0.1,0-0.3,0-0.4-0.1c-0.6-0.2-0.9-0.9-0.7-1.4l5.1-14.5c0.2-0.6,0.9-0.9,1.4-0.7
					c0.6,0.2,0.9,0.9,0.7,1.4l-5.1,14.5C60.4,328.7,60,329,59.5,329z"/>
			</g>
		</g>
	</g>
</g>
<path class="st54" d="M495.5,68.9c-3.2-7.5-7.3-14.6-12.6-20.8c-31.6-37.6-106.1-48-141.8-10.3c-30,31.6-26.7,87.6-62.2,112.9
	c-21.7,15.4-51.1,13.9-76.9,7.5c-25.8-6.4-51-17-77.6-17.6c-38.8-0.9-76.7,21.2-96.9,54.3c-33.4,54.7-15.6,132.5,34.2,171.5
	c26.5,20.8,60.4,29.2,93.4,35.8c41.4,8.2,83.6,14.1,125.7,11.3c62.5-4.2,122-31,162.7-79.3c0.8-1,1.6-1.9,2.4-2.9
	c52.7-64.1,73.5-148.8,58.5-230.3C502.6,90,499.8,79,495.5,68.9z"/>
<g>
	<g>
		<rect x="331.9" y="313.2" class="st60" width="76.1" height="49.5"/>
		<rect x="331.9" y="313.2" class="st71" width="76.1" height="49.5"/>
	</g>
	<rect x="334.6" y="322.5" class="st60" width="70.5" height="37.7"/>
	<g>
		<rect x="340.4" y="328.2" class="st12" width="52.2" height="1.6"/>
		<rect x="340.4" y="333.1" class="st12" width="25" height="1.6"/>
		<rect x="340.4" y="338.1" class="st12" width="31.5" height="1.6"/>
		<rect x="340.4" y="343.1" class="st12" width="11.1" height="1.6"/>
		<rect x="340.4" y="348" class="st12" width="7.2" height="1.6"/>
	</g>
</g>
<g>
	<polygon class="st60" points="295,368.5 233,368.5 243.5,286.2 284.5,286.2 	"/>
	<polygon class="st72" points="295,368.5 233,368.5 240.2,312.2 243.5,286.2 284.5,286.2 289.4,324.6 	"/>
	<polygon class="st73" points="289.4,324.6 240.2,312.2 243.5,286.2 284.5,286.2 	"/>
</g>
<g>
	<path class="st60" d="M410,83.1h-6.2H124.2H118c-4.1,0-7.5,3.3-7.5,7.5v197.7c0,4.1,3.3,7.5,7.5,7.5h6.2h279.7h6.2
		c4.1,0,7.5-3.3,7.5-7.5V90.6C417.5,86.5,414.2,83.1,410,83.1z"/>
	<path class="st74" d="M410,83.1h-6.2H124.2H118c-4.1,0-7.5,3.3-7.5,7.5v197.7c0,4.1,3.3,7.5,7.5,7.5h6.2h279.7h6.2
		c4.1,0,7.5-3.3,7.5-7.5V90.6C417.5,86.5,414.2,83.1,410,83.1z"/>
</g>
<rect x="120.3" y="90.5" class="st60" width="287.3" height="190.7"/>
<path class="st60" d="M316.2,362.4H211.8c-0.6,0-1,0.5-1,1v4c0,0.6,0.5,1,1,1h104.3c0.6,0,1-0.5,1-1v-4
	C317.2,362.8,316.7,362.4,316.2,362.4z"/>
<path class="st74" d="M316.2,362.4H211.8c-0.6,0-1,0.5-1,1v4c0,0.6,0.5,1,1,1h104.3c0.6,0,1-0.5,1-1v-4
	C317.2,362.8,316.7,362.4,316.2,362.4z"/>
<g>
	<rect x="120.3" y="90.6" class="st75" width="287.3" height="28.4"/>
	<rect x="120.3" y="119.4" class="st70" width="123.1" height="161.7"/>
	<g>
		<g>
			<g>
				<polyline class="st76" points="363.4,161 363.4,163.5 360.9,163.5 				"/>
				<line class="st77" x1="356.1" y1="163.5" x2="260.9" y2="163.5"/>
				<polyline class="st76" points="258.5,163.5 256,163.5 256,161 				"/>
				<line class="st78" x1="256" y1="155.8" x2="256" y2="106.5"/>
				<polyline class="st76" points="256,103.9 256,101.4 258.5,101.4 				"/>
				<line class="st77" x1="263.4" y1="101.4" x2="358.5" y2="101.4"/>
				<polyline class="st76" points="360.9,101.4 363.4,101.4 363.4,103.9 				"/>
				<line class="st78" x1="363.4" y1="109.1" x2="363.4" y2="158.4"/>
			</g>
		</g>
		<g>
			<rect x="361.7" y="99.6" class="st79" width="3.6" height="3.6"/>
			<rect x="361.7" y="161.7" class="st79" width="3.6" height="3.6"/>
			<rect x="254.2" y="99.6" class="st79" width="3.6" height="3.6"/>
			<rect x="254.2" y="161.7" class="st79" width="3.6" height="3.6"/>
		</g>
		<g>
			<rect x="307.9" y="99.6" class="st79" width="3.6" height="3.6"/>
			<rect x="307.9" y="161.7" class="st79" width="3.6" height="3.6"/>
		</g>
		<g>
			<rect x="361.7" y="130.6" class="st79" width="3.6" height="3.6"/>
			<rect x="254.2" y="130.6" class="st79" width="3.6" height="3.6"/>
		</g>
	</g>
	<path class="st74" d="M353.9,133.5h-26.8c-1,0-1.9-0.8-1.9-1.9v-7.5c0-1,0.8-1.9,1.9-1.9h26.8c1,0,1.9,0.8,1.9,1.9v7.5
		C355.8,132.7,355,133.5,353.9,133.5z"/>
	<path class="st74" d="M308.6,133.5h-26.8c-1,0-1.9-0.8-1.9-1.9v-7.5c0-1,0.8-1.9,1.9-1.9h26.8c1,0,1.9,0.8,1.9,1.9v7.5
		C310.5,132.7,309.7,133.5,308.6,133.5z"/>
	<path class="st74" d="M250.3,271.3h-26.8c-1,0-1.9-0.8-1.9-1.9v-7.5c0-1,0.8-1.9,1.9-1.9h26.8c1,0,1.9,0.8,1.9,1.9v7.5
		C252.2,270.5,251.3,271.3,250.3,271.3z"/>
	<g>
		<line class="st80" x1="388.7" y1="100.8" x2="398.3" y2="100.8"/>
		<line class="st80" x1="388.7" y1="105.3" x2="398.3" y2="105.3"/>
		<line class="st80" x1="388.7" y1="109.8" x2="398.3" y2="109.8"/>
	</g>
	<rect x="139.8" y="144.5" class="st81" width="96.4" height="96.4"/>
	<g>
		<line class="st82" x1="180.2" y1="152.4" x2="180.2" y2="235.5"/>
		<path class="st82" d="M221.7,235.5L221.7,235.5c-23,0-41.6-18.6-41.6-41.6v0c0-23,18.6-41.6,41.6-41.6l0,0"/>
		<rect x="219.9" y="150.6" class="st83" width="3.6" height="3.6"/>
		<rect x="219.9" y="233.7" class="st83" width="3.6" height="3.6"/>
		<rect x="178.4" y="192.1" class="st83" width="3.6" height="3.6"/>
		<path class="st83" d="M181.1,152.4c0,0.5-0.4,0.9-0.9,0.9c-0.5,0-0.9-0.4-0.9-0.9c0-0.5,0.4-0.9,0.9-0.9
			C180.7,151.4,181.1,151.8,181.1,152.4z"/>
		<path class="st83" d="M181.1,235.5c0,0.5-0.4,0.9-0.9,0.9c-0.5,0-0.9-0.4-0.9-0.9c0-0.5,0.4-0.9,0.9-0.9
			C180.7,234.5,181.1,235,181.1,235.5z"/>
	</g>
	<path class="st74" d="M339.8,261.4h-29.2c-4.7,0-8.4-3.8-8.4-8.4l0,0c0-4.7,3.8-8.4,8.4-8.4h29.2c4.7,0,8.4,3.8,8.4,8.4l0,0
		C348.3,257.6,344.5,261.4,339.8,261.4z"/>
	<path class="st74" d="M365.5,189.5h-90.1c-1,0-1.8-0.8-1.8-1.8l0,0c0-1,0.8-1.8,1.8-1.8h90.1c1,0,1.8,0.8,1.8,1.8l0,0
		C367.3,188.7,366.5,189.5,365.5,189.5z"/>
	<path class="st74" d="M365.5,202.9h-90.1c-1,0-1.8-0.8-1.8-1.8l0,0c0-1,0.8-1.8,1.8-1.8h90.1c1,0,1.8,0.8,1.8,1.8l0,0
		C367.3,202.1,366.5,202.9,365.5,202.9z"/>
	<path class="st74" d="M365.5,216.4h-56.1c-1,0-1.8-0.8-1.8-1.8l0,0c0-1,0.8-1.8,1.8-1.8h56.1c1,0,1.8,0.8,1.8,1.8l0,0
		C367.3,215.6,366.5,216.4,365.5,216.4z"/>
	<g>
		<rect x="129.4" y="98.5" class="st84" width="6.4" height="6.4"/>
		<path class="st84" d="M146.7,104.9h-3.5c-0.8,0-1.4-0.6-1.4-1.4V100c0-0.8,0.6-1.4,1.4-1.4h3.5c0.8,0,1.4,0.6,1.4,1.4v3.5
			C148.2,104.2,147.5,104.9,146.7,104.9z"/>
		<path class="st84" d="M158,104.9h-1.2c-1.4,0-2.6-1.2-2.6-2.6v-1.2c0-1.4,1.2-2.6,2.6-2.6h1.2c1.4,0,2.6,1.2,2.6,2.6v1.2
			C160.5,103.7,159.4,104.9,158,104.9z"/>
	</g>
	<g>
		<g>
			<path class="st85" d="M148.9,255.5V253l-1.3-0.1c-0.2-0.8-0.5-1.6-1-2.3l0.8-1l-1.8-1.8l-1,0.8c-0.7-0.5-1.5-0.8-2.3-1l-0.1-1.3
				h-2.5l-0.1,1.3c-0.8,0.2-1.6,0.5-2.3,1l-1-0.8l-1.8,1.8l0.8,1c-0.5,0.7-0.8,1.5-1,2.3l-1.3,0.1v2.5l1.3,0.1
				c0.2,0.8,0.5,1.6,1,2.3l-0.8,1l1.8,1.8l1-0.8c0.7,0.5,1.5,0.8,2.3,1l0.1,1.3h2.5l0.1-1.3c0.8-0.2,1.6-0.5,2.3-1l1,0.8l1.8-1.8
				l-0.8-1c0.5-0.7,0.8-1.5,1-2.3L148.9,255.5z M141.1,257.6c-1.9,0-3.4-1.5-3.4-3.4c0-1.9,1.5-3.4,3.4-3.4c1.9,0,3.4,1.5,3.4,3.4
				C144.5,256.1,143,257.6,141.1,257.6z"/>
			<path class="st72" d="M159,262.5v-1.9l-1-0.1c-0.1-0.7-0.4-1.3-0.7-1.8l0.6-0.8l-1.4-1.4l-0.8,0.6c-0.5-0.4-1.1-0.6-1.8-0.7
				l-0.1-1h-1.9l-0.1,1c-0.7,0.1-1.3,0.4-1.8,0.7l-0.8-0.6l-1.4,1.4l0.6,0.8c-0.4,0.5-0.6,1.1-0.7,1.8l-1,0.1v1.9l1,0.1
				c0.1,0.7,0.4,1.3,0.7,1.8l-0.6,0.8l1.4,1.4l0.8-0.6c0.5,0.4,1.1,0.6,1.8,0.7l0.1,1h1.9l0.1-1c0.7-0.1,1.3-0.4,1.8-0.7l0.8,0.6
				l1.4-1.4l-0.6-0.8c0.4-0.5,0.6-1.1,0.7-1.8L159,262.5z M152.9,264.2c-1.5,0-2.6-1.2-2.6-2.6c0-1.5,1.2-2.6,2.6-2.6
				s2.6,1.2,2.6,2.6C155.5,263,154.3,264.2,152.9,264.2z"/>
			<path class="st70" d="M148.9,268v-1.6l-0.8-0.1c-0.1-0.5-0.3-1.1-0.6-1.5l0.5-0.7l-1.2-1.2l-0.7,0.5c-0.5-0.3-1-0.5-1.5-0.6
				l-0.1-0.8H143l-0.1,0.8c-0.5,0.1-1.1,0.3-1.5,0.6l-0.7-0.5l-1.2,1.2l0.5,0.7c-0.3,0.5-0.5,1-0.6,1.5l-0.8,0.1l0,1.6l0.8,0.1
				c0.1,0.5,0.3,1.1,0.6,1.5l-0.5,0.7l1.2,1.2l0.7-0.5c0.5,0.3,1,0.5,1.5,0.6l0.1,0.8h1.6l0.1-0.8c0.5-0.1,1.1-0.3,1.5-0.6l0.7,0.5
				l1.2-1.2l-0.5-0.7c0.3-0.5,0.5-1,0.6-1.5L148.9,268z M143.8,269.4c-1.2,0-2.2-1-2.2-2.2c0-1.2,1-2.2,2.2-2.2c1.2,0,2.2,1,2.2,2.2
				C146,268.4,145,269.4,143.8,269.4z"/>
		</g>
	</g>
</g>
<g>
	<g>
		<polygon class="st60" points="362.8,100.7 367.6,113.6 375.6,105.5 		"/>
		
			<rect x="370.3" y="106.7" transform="matrix(0.7071 -0.7071 0.7071 0.7071 31.38 294.8557)" class="st60" width="2.5" height="5.6"/>
	</g>
	<polygon class="st70" points="375.6,105.5 362.8,100.7 367.6,113.6 370.7,110.4 372.7,112.4 374.5,110.6 372.5,108.7 	"/>
</g>
<g>
	<path class="st58" d="M165.9,146.6l12.1,4.5l-6.3-6.3c-0.5,0.3-1.1,0.2-1.5-0.2c-0.5-0.5-0.5-1.3,0-1.8c0.5-0.5,1.3-0.5,1.8,0
		c0.4,0.4,0.5,1,0.2,1.5l6.3,6.3l-4.5-12.1l-4,0.9l-0.2-1.4l-0.8-0.8l-4.4,4.4l0.8,0.8l1.4,0.2L165.9,146.6z"/>
	<path class="st69" d="M165.9,146.6l12.1,4.5l-6.3-6.3c-0.5,0.3-1.1,0.2-1.5-0.2c-0.5-0.5-0.5-1.3,0-1.8c0.5-0.5,1.3-0.5,1.8,0
		c0.4,0.4,0.5,1,0.2,1.5l6.3,6.3l-4.5-12.1l-4,0.9l-0.2-1.4l-0.8-0.8l-4.4,4.4l0.8,0.8l1.4,0.2L165.9,146.6z"/>
</g>
<g class="st86">
	<polygon class="st12" points="162.4,90.5 119.8,249.6 119.8,90.5 	"/>
	<polygon class="st12" points="210.4,90.5 159.4,281.1 124.2,281.1 175.3,90.5 	"/>
	<polygon class="st12" points="261.5,90.5 210.5,281.1 194.6,281.1 245.6,90.5 	"/>
	<polygon class="st12" points="308.6,90.5 257.6,281.1 251.9,281.1 302.9,90.5 	"/>
</g>
<g>
	<g>
		<path class="st57" d="M494.7,506c0,0.2-105.8,0.3-236.2,0.3c-130.5,0-236.2-0.1-236.2-0.3c0-0.2,105.7-0.3,236.2-0.3
			C388.9,505.7,494.7,505.9,494.7,506z"/>
	</g>
</g>
<g>
	<rect x="62.5" y="453.3" class="st8" width="62.7" height="8.6"/>
	<path class="st8" d="M125.3,462.1H62.4v-8.8h62.9V462.1z M62.6,461.9h62.5v-8.4H62.6V461.9z"/>
	<polygon class="st8" points="68.3,459.1 77.4,503.6 110.8,503.6 119.5,462 	"/>
	<polygon class="st18" points="68.3,499.4 73.1,506 113.7,506 119.5,499.4 	"/>
	<path class="st58" d="M91.5,460.4c-0.1,0-0.3-20.6-0.4-46.1c-0.1-25.5,0-46.1,0.1-46.1c0.1,0,0.3,20.6,0.4,46.1
		C91.7,439.8,91.6,460.4,91.5,460.4z"/>
	<path class="st58" d="M105.5,408.8c0,0,0,0.2-0.2,0.5c-0.1,0.4-0.3,0.8-0.6,1.3c-0.1,0.3-0.3,0.6-0.4,1c-0.1,0.4-0.3,0.8-0.4,1.2
		c-0.2,0.4-0.3,0.9-0.5,1.3c-0.2,0.5-0.3,1-0.5,1.5c-0.7,2.1-1.2,4.8-1.8,7.7c-0.5,2.9-0.8,6.2-1,9.6c-0.3,6.9,0.1,13.1,0.5,17.5
		c0.2,2.2,0.4,4,0.6,5.3c0.1,0.6,0.1,1.1,0.2,1.4c0,0.3,0,0.5,0,0.5c0,0-0.1-0.2-0.1-0.5c-0.1-0.4-0.1-0.8-0.2-1.4
		c-0.2-1.2-0.5-3-0.7-5.3c-0.5-4.5-0.9-10.7-0.6-17.6c0.2-3.4,0.5-6.7,1-9.6c0.5-2.9,1.1-5.6,1.9-7.7c0.2-0.5,0.3-1.1,0.5-1.5
		c0.2-0.5,0.4-0.9,0.5-1.3c0.2-0.4,0.3-0.8,0.5-1.2c0.2-0.4,0.3-0.7,0.4-1c0.3-0.5,0.5-1,0.6-1.3
		C105.4,408.9,105.5,408.8,105.5,408.8z"/>
	<path class="st58" d="M103.9,392.1c0,0-0.1,0.2-0.2,0.7c-0.2,0.5-0.4,1.1-0.7,1.9c-0.1,0.4-0.3,0.9-0.5,1.4
		c-0.2,0.5-0.3,1.1-0.5,1.7c-0.4,1.2-0.8,2.6-1.2,4.1c-0.2,0.8-0.4,1.6-0.6,2.4c-0.2,0.8-0.4,1.7-0.6,2.6c-0.4,1.8-0.8,3.7-1.2,5.8
		c-0.7,4.1-1.3,8.6-1.7,13.4c-0.4,4.8-0.6,9.4-0.6,13.5c0,4.2,0,7.9,0.2,11c0.1,1.6,0.2,3,0.2,4.2c0.1,1.2,0.2,2.3,0.2,3.2
		c0.1,0.8,0.1,1.5,0.2,2c0,0.5,0,0.7,0,0.7c0,0-0.1-0.2-0.1-0.7c-0.1-0.5-0.1-1.2-0.2-2c-0.1-0.9-0.2-1.9-0.3-3.2
		c-0.1-1.2-0.2-2.7-0.3-4.2c-0.2-3.1-0.3-6.9-0.3-11.1c0-4.2,0.2-8.7,0.6-13.5c0.4-4.8,1-9.3,1.8-13.4c0.4-2,0.7-4,1.2-5.8
		c0.2-0.9,0.4-1.8,0.6-2.6c0.2-0.8,0.4-1.6,0.7-2.4c0.4-1.5,0.8-2.9,1.2-4.1c0.2-0.6,0.4-1.1,0.5-1.7c0.2-0.5,0.4-1,0.5-1.4
		c0.3-0.8,0.6-1.4,0.7-1.9C103.8,392.3,103.9,392.1,103.9,392.1z"/>
	<path class="st58" d="M87.5,464c0,0,0-0.1,0-0.2c0-0.2,0-0.4-0.1-0.7c0-0.7-0.1-1.6-0.2-2.7c-0.2-2.4-0.4-5.8-0.6-10.1
		c-0.5-8.5-1.3-20.2-2.8-33.1c-0.7-6.4-1.6-12.6-2.5-18.1c-0.5-2.8-0.9-5.4-1.4-7.9c-0.4-2.5-0.9-4.7-1.4-6.8
		c-0.4-2.1-0.9-4-1.2-5.6c-0.4-1.6-0.7-3.1-1-4.2c-0.3-1.1-0.5-2-0.7-2.7c-0.1-0.3-0.1-0.5-0.2-0.7c0-0.2,0-0.2,0-0.2
		c0,0,0,0.1,0.1,0.2c0.1,0.2,0.1,0.4,0.2,0.7c0.2,0.6,0.4,1.5,0.7,2.6c0.3,1.1,0.7,2.6,1.1,4.2c0.4,1.6,0.9,3.5,1.3,5.6
		c0.5,2.1,1,4.4,1.4,6.8c0.5,2.5,0.9,5.1,1.4,7.9c0.9,5.6,1.8,11.7,2.5,18.1c1.4,12.9,2.2,24.6,2.6,33.1c0.2,4.2,0.4,7.7,0.5,10.1
		c0,1.2,0.1,2.1,0.1,2.7c0,0.3,0,0.5,0,0.7C87.6,464,87.6,464,87.5,464z"/>
	<path class="st18" d="M91,378.1c-0.3-2.9-3.2-5.1-6.2-5.2c-2.9,0-5.7,1.7-7.5,4.1c-1.8,2.3-2.8,5.2-3.6,8c-2,6.9-3.1,14.1-2.2,21.2
		c0.8,7.1,3.7,14.1,8.8,19.1c0.8,0.8,1.9,1.6,3,1.4c0.6-0.1,1.1-0.6,1.6-1c10-9.1,15.8-22.6,15.4-36.1c-0.1-2.7-0.4-5.5-1.9-7.8
		C97,379.6,93.6,377.2,91,378.1"/>
	<path class="st59" d="M69.1,354.7c-1.4,2.5-2.8,5-4.1,7.5c-0.1,0.2-0.2,0.4-0.4,0.4c-0.2,0-0.4-0.2-0.5-0.4
		c-3.6-5.6-7.3-11.2-10.9-16.8l2.5-1.4L69.1,354.7z"/>
	<g>
		<path class="st8" d="M69.1,354.7c-1.4,2.5-2.8,5-4.1,7.5c-0.1,0.2-0.2,0.4-0.4,0.4c-0.2,0-0.4-0.2-0.5-0.4
			c-3.6-5.6-7.3-11.2-10.9-16.8l2.5-1.4L69.1,354.7z"/>
	</g>
	<path class="st18" d="M91.3,368.2c-12.4-7.3-24.9-14.7-37.3-22c-0.4-0.2-0.8-0.5-0.9-0.9c-0.1-0.6,0.3-1.1,0.7-1.5
		c5.1-5.3,12.6-8.4,19.9-7.8c7.3,0.5,14.4,4.8,18,11.2C95.3,353.6,95.4,362.1,91.3,368.2"/>
	<g>
		<path class="st58" d="M59.3,339.2c0,0,0.2,0,0.5-0.1c0.3,0,0.8-0.1,1.4-0.1c1.2,0,3,0.1,5.2,0.4c2.2,0.4,4.7,1.1,7.4,2.2
			c2.7,1.2,5.4,2.9,7.9,5.1c2.5,2.3,4.5,4.8,5.9,7.4c1.4,2.5,2.4,5,3,7.1c0.6,2.1,0.8,3.9,0.9,5.1c0.1,0.6,0,0.8,0.1,1.1
			c0,0.3-0.3,0.8-0.3,0.8c0,0,0.2-0.7,0.1-1.9c-0.1-1.2-0.4-3-1.1-5c-1.2-4.2-3.9-9.8-8.9-14.2c-4.9-4.5-10.8-6.6-15-7.4
			c-2.1-0.4-3.9-0.5-5.1-0.5C60,339.2,59.3,339.2,59.3,339.2z"/>
	</g>
	<g>
		<path class="st58" d="M86.2,353c0,0.1-0.7,0.4-1.9,0.9c-1.2,0.5-2.8,1.1-4.7,1.7c-1.9,0.6-3.6,1.1-4.8,1.4c-1.2,0.3-2,0.4-2,0.4
			c0-0.1,0.7-0.3,1.9-0.7c1.4-0.4,3-0.9,4.7-1.5c1.8-0.6,3.4-1.1,4.7-1.5C85.4,353.2,86.2,353,86.2,353z"/>
	</g>
	<g>
		<path class="st58" d="M80.3,337.3c0.1,0,0.4,1.8,0.4,4.2c0.1,2.3-0.1,4.2-0.2,4.2c-0.1,0-0.2-1.9-0.2-4.2
			C80.3,339.1,80.2,337.3,80.3,337.3z"/>
	</g>
	<g>
		<path class="st58" d="M53.6,345.8c0-0.1,1-0.4,2.7-1c1.7-0.5,4.1-1.2,6.7-1.8c2.6-0.6,5-1.1,6.8-1.4c1.7-0.3,2.8-0.4,2.8-0.4
			c0,0.1-1.1,0.3-2.8,0.7c-1.7,0.4-4.1,0.9-6.7,1.6c-2.6,0.6-5,1.2-6.7,1.7C54.7,345.6,53.7,345.9,53.6,345.8z"/>
	</g>
	<path class="st18" d="M75.5,371.8c-3.2-2.4-6.6-2.9-10.6-2.8c-4,0.2-7.9,1.4-11.6,3c-6.3,2.8-12.2,6.8-16,12.6
		c-3.8,5.7-5.1,13.4-2.3,19.6c0.3,0.6,0.6,1.3,1.3,1.5c0.7,0.3,1.4,0.1,2.1-0.2c7.2-2.3,14.4-4.7,20.9-8.3
		c6.6-3.7,12.6-8.7,16.1-15.4c0.8-1.6,1.6-3.3,1.7-5.1C77.3,375,76.8,373.1,75.5,371.8"/>
	<g>
		<path class="st58" d="M75.6,371c0,0-0.2,0.1-0.5,0.2c-0.4,0.1-0.9,0.3-1.5,0.5c-0.3,0.1-0.7,0.2-1.1,0.4c-0.4,0.1-0.8,0.3-1.3,0.5
			c-0.9,0.4-2,0.7-3.1,1.3c-0.6,0.3-1.1,0.5-1.8,0.8c-0.6,0.3-1.2,0.6-1.9,1c-1.3,0.6-2.6,1.5-4,2.3c-2.7,1.7-5.6,3.8-8.5,6.3
			c-2.8,2.5-5.2,5.1-7.3,7.6c-1,1.3-2,2.5-2.8,3.7c-0.4,0.6-0.8,1.2-1.2,1.7c-0.4,0.6-0.7,1.1-1,1.6c-0.7,1-1.2,2-1.6,2.9
			c-0.2,0.4-0.5,0.8-0.7,1.2c-0.2,0.4-0.3,0.7-0.5,1c-0.3,0.6-0.5,1.1-0.7,1.4c-0.2,0.3-0.3,0.5-0.3,0.5c0,0,0.1-0.2,0.2-0.5
			c0.2-0.4,0.4-0.9,0.6-1.5c0.1-0.3,0.3-0.7,0.5-1.1c0.2-0.4,0.4-0.8,0.6-1.2c0.5-0.9,0.9-1.9,1.6-2.9c0.3-0.5,0.7-1.1,1-1.7
			c0.4-0.6,0.8-1.1,1.2-1.7c0.8-1.2,1.8-2.4,2.8-3.7c2.1-2.5,4.5-5.2,7.3-7.7c2.8-2.5,5.8-4.6,8.5-6.3c1.4-0.8,2.7-1.6,4.1-2.3
			c0.7-0.3,1.3-0.7,1.9-0.9c0.6-0.3,1.2-0.5,1.8-0.8c1.1-0.5,2.2-0.9,3.1-1.2c0.5-0.2,0.9-0.3,1.3-0.5c0.4-0.1,0.8-0.2,1.1-0.3
			c0.6-0.2,1.1-0.3,1.5-0.4C75.4,371.1,75.6,371,75.6,371z"/>
	</g>
	<g>
		<path class="st58" d="M50.5,384.6c0,0.1-3.5,1.2-7.8,2.5c-4.3,1.3-7.9,2.2-7.9,2.1c0-0.1,3.5-1.2,7.8-2.5
			C46.9,385.4,50.5,384.5,50.5,384.6z"/>
	</g>
	<g>
		<path class="st58" d="M50.2,401.8c-0.1,0-0.1-0.9-0.2-2.4c0-1.5,0-3.6,0-5.9c0.1-2.3,0.2-4.4,0.3-5.9c0.1-1.5,0.2-2.4,0.3-2.4
			c0.1,0,0.1,0.9,0,2.4c-0.1,1.6-0.1,3.6-0.2,5.9c-0.1,2.2-0.1,4.2-0.1,5.9C50.3,400.9,50.3,401.8,50.2,401.8z"/>
	</g>
	<g>
		<path class="st58" d="M65,394.3c-0.1,0-0.5-4.2-0.9-9.4c-0.4-5.2-0.6-9.5-0.4-9.5c0.1,0,0.5,4.2,0.9,9.4
			C64.9,390.1,65.1,394.3,65,394.3z"/>
	</g>
	<g>
		<path class="st58" d="M46.6,375c0-0.1,1-0.1,2.5-0.1c1.5,0,3.7,0.1,6,0.1c2.4,0.1,4.5,0.2,6,0.3c1.5,0.1,2.5,0.2,2.5,0.2
			c0,0.1-1,0.1-2.5,0.1c-1.5,0-3.7-0.1-6-0.1c-2.4-0.1-4.5-0.2-6-0.3C47.5,375.2,46.6,375.1,46.6,375z"/>
	</g>
	<path class="st58" d="M82,426.4c0,0,0-0.2-0.1-0.5c0-0.4,0-0.9-0.1-1.4c-0.1-1.2-0.1-3.1,0-5.3c0-2.2,0.2-4.9,0.5-7.8
		c0.3-2.9,0.7-6.2,1.3-9.5c0.6-3.4,1.4-6.5,2.1-9.4c0.8-2.8,1.6-5.4,2.3-7.5c0.7-2.1,1.4-3.8,1.9-4.9c0.2-0.5,0.4-1,0.6-1.3
		c0.1-0.3,0.2-0.5,0.2-0.5c0,0,0,0.2-0.1,0.5c-0.1,0.4-0.3,0.8-0.5,1.4c-0.4,1.2-1,2.9-1.7,5c-0.7,2.1-1.5,4.7-2.2,7.5
		c-0.7,2.9-1.5,6-2.1,9.3c-0.6,3.3-1,6.5-1.3,9.5c-0.3,2.9-0.5,5.6-0.6,7.8c-0.1,2.2-0.1,4-0.1,5.3c0,0.6,0,1.1,0,1.4
		C82,426.2,82,426.4,82,426.4z"/>
	<path class="st58" d="M84,402c0,0-0.5,0.7-1.5,1.6c-1,1-2.3,2.3-3.9,3.6c-1.6,1.4-3,2.6-4.1,3.4c-1.1,0.8-1.8,1.3-1.8,1.3
		c0,0,0.6-0.6,1.6-1.5c1.1-1,2.5-2.2,4-3.5c1.5-1.3,2.8-2.5,4-3.5C83.3,402.5,83.9,401.9,84,402z"/>
	<path class="st58" d="M95.8,411.5c-0.1,0-0.6-0.8-1.6-2.2c-1-1.5-2.3-3.3-3.7-5.4c-1.4-2-2.7-3.9-3.8-5.3c-1-1.4-1.6-2.2-1.5-2.2
		c0,0,0.7,0.7,1.8,2.1c1,1.3,2.4,3.2,3.9,5.3c1.5,2.1,2.7,4,3.6,5.5C95.3,410.5,95.8,411.4,95.8,411.5z"/>
	<path class="st58" d="M89.6,381.6c0.1,0.1-3.9,2.7-8.8,5.9c-4.9,3.2-8.9,5.6-9,5.5c-0.1-0.1,3.9-2.7,8.8-5.9
		C85.5,383.9,89.5,381.5,89.6,381.6z"/>
	<path class="st58" d="M100.6,393.5c-0.1,0.1-2.7-2.4-5.9-5.5c-3.2-3.1-5.7-5.7-5.6-5.8c0.1-0.1,2.7,2.4,5.9,5.5
		C98.2,390.8,100.7,393.4,100.6,393.5z"/>
	<path class="st18" d="M103.4,393.3l3.4-0.3c2.4-0.2,4.7-0.9,6.8-2.1c1-0.6,2.1-1.2,3.2-1.6c4.2-1.7,8.8-1.4,13.3-1.6
		c7.3-0.4,14.5-2.2,21.1-5.4c0.4-0.2,0.7-0.5,0.9-0.8c0.7-1.3-0.6-2.4-1.7-3.1c-5.7-3.5-11.4-7-17.9-8.8c-6.4-1.7-13.7-1.4-19.2,2.3
		C106.9,376.4,104.5,385.5,103.4,393.3"/>
	<g>
		<path class="st58" d="M152.2,381.1c0,0-0.2-0.1-0.6-0.3c-0.4-0.2-0.9-0.5-1.6-0.8c-1.4-0.7-3.4-1.8-5.9-3
			c-2.5-1.2-5.6-2.5-9.1-3.5c-3.5-1-7.6-1.5-11.8-1c-4.2,0.6-8,2.2-10.8,4.6c-2.7,2.4-4.4,5.4-5.6,7.9c-1.2,2.5-1.9,4.7-2.4,6.1
			c-0.2,0.7-0.4,1.3-0.6,1.7c-0.1,0.4-0.2,0.6-0.2,0.6c0,0,0-0.2,0.1-0.6c0.1-0.4,0.3-1,0.5-1.7c0.5-1.5,1.2-3.7,2.3-6.2
			c1.2-2.5,2.8-5.5,5.6-8.1c2.8-2.5,6.7-4.2,11-4.8c4.3-0.5,8.4,0,12,1c3.6,1,6.6,2.4,9.1,3.6c2.5,1.2,4.5,2.4,5.8,3.1
			c0.6,0.4,1.2,0.7,1.6,0.9C152,380.9,152.2,381.1,152.2,381.1z"/>
	</g>
	<g>
		<path class="st58" d="M144.1,385.4c-0.1,0.1-4.5-2.7-9.8-6.4c-5.4-3.6-9.7-6.6-9.6-6.7c0.1-0.1,4.5,2.7,9.8,6.4
			C139.9,382.3,144.1,385.3,144.1,385.4z"/>
	</g>
	<g>
		<path class="st58" d="M139.4,372.1c0,0.1-1.4,0.4-3.2,0.6c-1.8,0.2-3.3,0.1-3.3,0c0-0.1,1.5-0.2,3.2-0.3
			C137.9,372.2,139.4,372,139.4,372.1z"/>
	</g>
	<g>
		<path class="st58" d="M120.1,369.6c0.1,0-0.5,1.1-1.4,2.3c-0.9,1.2-1.7,2.1-1.8,2.1c-0.1,0,0.5-1.1,1.4-2.3
			C119.2,370.5,120,369.5,120.1,369.6z"/>
	</g>
	<g>
		<path class="st58" d="M124.1,388c0,0.1-0.8-0.4-2.1-1.1c-1.3-0.8-3-1.9-4.8-3.2c-1.8-1.3-3.5-2.6-4.6-3.5
			c-1.2-0.9-1.9-1.5-1.8-1.6c0,0,0.8,0.5,2,1.3c1.3,1,2.9,2.1,4.7,3.4c1.8,1.3,3.5,2.5,4.7,3.3C123.3,387.4,124.1,388,124.1,388z"/>
	</g>
	<path class="st18" d="M108.4,407.6c-3.2-0.8-7,2.3-7.7,5.5c-0.7,3.3,0.6,6.6,2,9.6c3.2,6.6,7.5,12.8,13.3,17.4
		c5.7,4.6,12.9,7.5,20.3,7.5c-1.4-6.3,0.4-12.9-0.4-19.3c-0.7-5.6-3.3-10.9-7.3-14.9c-4-4-9.4-6.5-15-7.1
		C111.6,406,109.2,405.7,108.4,407.6"/>
	<g>
		<path class="st58" d="M136.2,447.5c0,0-0.2-0.1-0.5-0.2c-0.3-0.2-0.7-0.4-1.2-0.8c-1-0.8-2.2-2.2-3.2-4.2c-0.5-1-1.1-2.1-1.6-3.3
			c-0.5-1.2-1.1-2.5-1.7-3.8c-0.6-1.3-1.3-2.7-2.1-4.1c-0.8-1.4-1.8-2.7-2.9-4c-2.2-2.6-4.6-4.8-6.6-6.9c-2.1-2.1-3.8-4.2-5-6
			c-1.3-1.9-2-3.5-2.5-4.7c-0.2-0.6-0.4-1.1-0.4-1.4c-0.1-0.3-0.1-0.5-0.1-0.5c0,0,0.2,0.7,0.7,1.8c0.5,1.1,1.3,2.8,2.6,4.6
			c1.3,1.8,3,3.8,5.1,5.9c2.1,2.1,4.4,4.3,6.6,6.9c1.1,1.3,2.1,2.6,3,4c0.8,1.4,1.5,2.8,2.1,4.1c0.6,1.3,1.2,2.6,1.7,3.8
			c0.5,1.2,1.1,2.3,1.6,3.3c1,2,2,3.5,3,4.3C135.6,447.2,136.3,447.5,136.2,447.5z"/>
	</g>
	<g>
		<path class="st58" d="M119.6,442.3c-0.1,0,0-0.8,0.3-2.2c0.3-1.3,0.7-3.1,1.2-5.1c0.6-2,1.2-3.7,1.6-5c0.5-1.3,0.8-2,0.9-2
			c0.1,0-0.2,0.8-0.6,2.1c-0.4,1.3-0.9,3.1-1.5,5c-0.6,2-1,3.8-1.3,5.1C119.9,441.5,119.7,442.3,119.6,442.3z"/>
	</g>
	<g>
		<path class="st58" d="M135.6,426.8c0,0.1-0.9-0.2-2.3-0.5c-1.4-0.4-3.3-0.9-5.4-1.3c-2.1-0.5-4.1-0.9-5.5-1.1
			c-1.4-0.3-2.3-0.4-2.3-0.5c0-0.1,0.9,0,2.3,0.2c1.4,0.2,3.4,0.5,5.5,1c2.1,0.5,4,1,5.4,1.5C134.8,426.4,135.7,426.8,135.6,426.8z"
			/>
	</g>
	<g>
		<path class="st58" d="M107.7,431.3c-0.1,0,0.1-1,0.3-2.5c0.3-1.5,0.7-3.6,1.3-5.9c0.6-2.3,1.2-4.4,1.7-5.8
			c0.5-1.5,0.9-2.4,0.9-2.4c0.1,0-0.2,0.9-0.6,2.4c-0.4,1.5-1,3.6-1.6,5.9c-0.6,2.3-1.1,4.4-1.5,5.9
			C108,430.4,107.8,431.3,107.7,431.3z"/>
	</g>
	<g>
		<path class="st58" d="M128.3,413.3c0,0.1-4-0.2-9-0.7c-4.9-0.5-8.9-1-8.9-1.2c0-0.1,4,0.2,9,0.7
			C124.3,412.7,128.3,413.2,128.3,413.3z"/>
	</g>
	<path class="st57" d="M125.3,461.9c0,0.1-14.1,0.2-31.5,0.2c-17.4,0-31.5-0.1-31.5-0.2c0-0.1,14.1-0.2,31.5-0.2
		C111.2,461.7,125.3,461.8,125.3,461.9z"/>
	<path class="st57" d="M115.5,480.1c0,0.1-9.5,0.2-21.2,0.2c-11.7,0-21.2-0.1-21.2-0.2s9.5-0.2,21.2-0.2
		C106,479.8,115.5,479.9,115.5,480.1z"/>
	<path class="st57" d="M115.2,482.6c0,0.1-9.3,0.2-20.8,0.2c-11.5,0-20.8-0.1-20.8-0.2s9.3-0.2,20.8-0.2
		C105.8,482.4,115.2,482.5,115.2,482.6z"/>
	<path class="st57" d="M115.9,477.9c0,0.1-9.8,0.2-21.9,0.2c-12.1,0-21.9-0.1-21.9-0.2c0-0.1,9.8-0.2,21.9-0.2
		C106.1,477.7,115.9,477.8,115.9,477.9z"/>
</g>
<g>
	<path class="st59" d="M252.4,234.1c0,0.1-7.6,0.3-17,0.3c-9.4,0.1-17,0.1-17,0c0-0.1,7.6-0.3,17-0.3
		C244.8,234,252.4,234,252.4,234.1z"/>
	<path class="st58" d="M279.6,240.9c0,0.1-13.7,0.3-30.6,0.5c-16.9,0.1-30.6,0.2-30.6,0.1c0-0.1,13.7-0.3,30.6-0.5
		C265.9,240.8,279.6,240.8,279.6,240.9z"/>
	<path class="st58" d="M254.2,250.9c0,0.1-8,0.3-17.9,0.4c-9.9,0.1-17.9,0.1-17.9,0c0-0.1,8-0.3,17.9-0.4
		C246.2,250.7,254.2,250.8,254.2,250.9z"/>
	<path class="st57" d="M252.7,272.1c0,0.1-7.6,0.3-17,0.3c-9.4,0.1-17,0.1-17,0c0-0.1,7.6-0.3,17-0.3
		C245.1,272,252.7,272,252.7,272.1z"/>
	<path class="st0" d="M253.1,310.1c0,0.1-7.6,0.3-17,0.3c-9.4,0.1-17,0.1-17,0c0-0.1,7.6-0.3,17-0.3
		C245.5,310,253.1,310,253.1,310.1z"/>
	<path class="st55" d="M280.3,316.9c0,0.1-13.7,0.3-30.6,0.5c-16.9,0.1-30.6,0.2-30.6,0.1c0-0.1,13.7-0.3,30.6-0.5
		C266.6,316.8,280.3,316.8,280.3,316.9z"/>
	<path class="st55" d="M279.6,321.9c0,0.1-13.5,0.3-30.2,0.5c-16.7,0.1-30.3,0.2-30.3,0.1c0-0.1,13.5-0.3,30.3-0.5
		C266.1,321.8,279.6,321.8,279.6,321.9z"/>
	<path class="st55" d="M254.9,326.9c0,0.1-8,0.3-17.9,0.4c-9.9,0.1-17.9,0.1-17.9,0c0-0.1,8-0.3,17.9-0.4
		C246.9,326.7,254.9,326.7,254.9,326.9z"/>
	<g>
		<path class="st61" d="M256,170.6l5.3,7c0,0,2.6,4,0.6,4.9c-1.8,0.8-2.9-1.5-2.9-1.5s-1.1-5.1-3.3-3.9c-0.3,0.2,0.2,3.8,0.5,5.6
			c0.1,0.7,0.5,1.3,1,1.7l5.9,4.5c1.1,0.8,2.4,1.4,3.8,1.5l2.1,0.2l1.7,3.4l9.5-3.9l-7.6-9.8l-4.1-6.2c-0.6-0.5-1.4-0.7-2.2-0.5
			l-0.9,0.2l-0.7-0.7c-0.4-0.4-1-0.6-1.6-0.4l-0.6,0.2l-1.6-1.6c-0.5-0.5-4.1-3.9-4.8-3.6C256,167.8,254.6,168.9,256,170.6z"/>
	</g>
	<g>
		<g>
			<path class="st62" d="M266.7,177.2c0,0-0.2-0.3-0.5-0.8c-0.4-0.5-1-0.9-2-1.1c-0.7-0.6-1.2-1.3-1.6-1.7c-0.3-0.5-0.5-0.8-0.5-0.8
				c0,0,0.2,0.3,0.6,0.8c0.4,0.4,0.9,1.1,1.6,1.7c0.2,0.1,0.4,0.1,0.6,0.2c0.2,0.1,0.4,0.2,0.6,0.3c0.3,0.2,0.6,0.5,0.8,0.7
				c0.2,0.2,0.3,0.5,0.4,0.6C266.7,177.1,266.7,177.2,266.7,177.2z"/>
		</g>
	</g>
	<g>
		<g>
			<path class="st62" d="M267.8,175.8c0,0-0.1-0.2-0.3-0.4c-0.2-0.2-0.7-0.3-1.1-0.2l0,0l0,0c0,0-0.1-0.1-0.1-0.1
				c-0.7-0.8-1.3-1.4-1.3-1.5c0,0,0.7,0.6,1.4,1.4c0,0,0.1,0.1,0.1,0.1l-0.1,0c0.5-0.2,1,0,1.2,0.3
				C267.8,175.5,267.8,175.8,267.8,175.8z"/>
		</g>
	</g>
	<g>
		<g>
			<polygon class="st18" points="257,473.5 253.6,504.3 270.1,506.4 273.6,475.6 			"/>
		</g>
	</g>
	<g>
		<g>
			<g>
				<path class="st58" d="M261.9,504.2c0.1,0,0.9-6.7,1.7-15c0.8-8.3,1.3-15.1,1.2-15.1c-0.1,0-0.9,6.7-1.7,15
					C262.3,497.4,261.8,504.1,261.9,504.2z"/>
			</g>
		</g>
	</g>
	<g>
		<g>
			<polygon class="st58" points="253.8,502.1 270.4,504.2 270.1,506.4 253.6,504.3 			"/>
		</g>
	</g>
	<g>
		<g>
			<g>
				<path class="st58" d="M271.2,496.6c0,0-0.1-0.3-0.4-0.7c-0.3-0.4-0.7-1.1-1.3-1.7c-0.6-0.7-1.4-1.4-2.5-2.1
					c-1-0.6-2.3-1.2-3.8-1.3c-2.9-0.3-5.4,0.9-6.8,2.1c-0.7,0.6-1.1,1.2-1.4,1.7c-0.3,0.4-0.4,0.7-0.3,0.7c0.1,0.1,0.6-1,2-2.1
					c1.3-1.2,3.8-2.2,6.5-1.9c2.7,0.3,4.8,1.9,6,3.1C270.6,495.6,271.2,496.6,271.2,496.6z"/>
			</g>
		</g>
	</g>
	<g>
		<g>
			<polygon points="272.6,484.4 272.2,487.8 255.6,485.5 255.9,483 			"/>
		</g>
	</g>
	<g>
		<g>
			<polygon class="st18" points="233.1,475.6 234.5,506.4 251.1,506.1 249.9,475.1 			"/>
		</g>
	</g>
	<g>
		<g>
			<g>
				<path class="st58" d="M242.6,505.1c0.1,0-0.1-6.8-0.6-15.1c-0.5-8.3-0.9-15.1-1.1-15.1c-0.1,0,0.1,6.8,0.6,15.1
					C242,498.4,242.5,505.1,242.6,505.1z"/>
			</g>
		</g>
	</g>
	<g>
		<g>
			<polygon class="st58" points="234.4,504.3 251,503.9 251.1,506.1 234.5,506.4 			"/>
		</g>
	</g>
	<g>
		<g>
			<g>
				<path class="st58" d="M250.7,496.2c0,0-0.1-0.3-0.5-0.7c-0.3-0.4-0.8-0.9-1.6-1.5c-0.7-0.6-1.6-1.2-2.8-1.7
					c-1.1-0.5-2.5-0.8-3.9-0.7c-2.9,0.1-5.2,1.7-6.4,3.1c-0.6,0.7-0.9,1.4-1.1,1.9c-0.2,0.5-0.3,0.8-0.2,0.8c0.1,0,0.4-1.1,1.6-2.4
					c1.2-1.3,3.4-2.7,6.1-2.9c2.7-0.1,5,1.1,6.5,2.2C249.9,495.4,250.7,496.2,250.7,496.2z"/>
			</g>
		</g>
	</g>
	<g>
		<g>
			<polygon points="250.2,483.9 250.4,487.3 233.7,487.6 233.5,485.1 			"/>
		</g>
	</g>
	<path class="st8" d="M251.8,407.7l-0.7-84.5h-32.8c0,0-2.6,21-1.4,29.4c1.2,8.5,10,55.2,10,55.2s2.8,62.1,4.2,78l20.5-1.9
		L251.8,407.7z"/>
	<path class="st8" d="M271.9,305.3c0,0,10.2,8.7,12.5,23.4s-4.6,73.6-4.6,73.6l-5.8,81.6h-20.3l0.7-78.6l-3.5-58.5l-2.3-18.5
		L271.9,305.3z"/>
	<path class="st57" d="M253.9,401.1c0,0,0-0.2-0.1-0.5c0-0.4-0.1-0.9-0.1-1.5c-0.1-1.4-0.2-3.2-0.4-5.4c-0.3-4.5-0.7-10.8-1-17.8
		c-0.3-6.9-0.5-13.2-0.6-17.8c0-2.3,0-4.1,0-5.4c0-0.6,0-1.1,0-1.5c0-0.3,0-0.5,0.1-0.5c0,0,0,0.2,0.1,0.5c0,0.4,0,0.9,0.1,1.5
		c0.1,1.4,0.1,3.2,0.2,5.4c0.2,4.6,0.5,10.9,0.8,17.8c0.3,6.9,0.6,13.1,0.8,17.8c0.1,2.2,0.2,4,0.2,5.4c0,0.6,0,1.1,0,1.5
		C254,401,253.9,401.1,253.9,401.1z"/>
	<path class="st57" d="M278.7,405.9c0,0.1-1.1-0.1-3-0.2c-1.8-0.1-4.4-0.2-7.1,0.1c-2.8,0.3-5.3,0.8-7,1.2c-1.8,0.5-2.9,0.8-2.9,0.7
		c0-0.1,1-0.6,2.8-1.1c1.8-0.6,4.3-1.1,7.1-1.4c2.8-0.3,5.4-0.1,7.2,0.1C277.6,405.6,278.7,405.8,278.7,405.9z"/>
	<path class="st57" d="M246.2,406.7c0,0.1-1-0.2-2.6-0.4c-1.6-0.2-3.8-0.3-6.2,0.1c-2.4,0.4-4.4,1.2-5.9,2c-1.4,0.7-2.2,1.3-2.3,1.3
		c0,0,0.7-0.8,2.1-1.6c1.4-0.8,3.5-1.8,6-2.2c2.5-0.4,4.7-0.2,6.3,0.1C245.3,406.2,246.3,406.6,246.2,406.7z"/>
	<path class="st57" d="M246.4,407.8c0.1,0.1-2.6,1.4-6,2.2c-3.5,0.9-6.4,1-6.4,0.9c0-0.2,2.8-0.5,6.3-1.4
		C243.7,408.6,246.4,407.6,246.4,407.8z"/>
	<path class="st57" d="M252.9,350.1c0,0-0.2,0.3-0.8,0.8c-0.3,0.3-0.6,0.6-1,0.9c-0.4,0.4-0.8,0.7-1.4,1.1c-1,0.8-2.3,1.7-3.9,2.6
		c-1.6,0.8-3.3,1.7-5.4,2l0,0c-0.3,0.1-0.7,0.2-1,0.2c-4.3,0.9-8.3,0.6-11,0c-1.4-0.3-2.5-0.7-3.2-1c-0.7-0.3-1.1-0.5-1.1-0.5
		c0-0.1,1.7,0.6,4.4,1.1c2.7,0.5,6.6,0.8,10.8-0.1c0.3-0.1,0.7-0.2,1-0.2l0,0l0,0c1.9-0.3,3.7-1.1,5.2-1.9c1.5-0.8,2.8-1.7,3.9-2.4
		C251.6,351.2,252.8,350,252.9,350.1z"/>
	<path class="st57" d="M259.8,329.3c0,0,0.1,0.3,0.2,0.9c0.1,0.7,0.3,1.5,0.5,2.5c0.4,2.2,1,5.3,1.7,9l-0.1-0.2
		c2.6,1,5.6,2.1,8.8,3.3l-0.3,0.1c1.4-1.8,2.9-3.8,4.4-5.8c0.4-0.5,0.7-0.9,1.1-1.4L276,338c-0.5-4.4-1-8.5-1.4-12.1l0.4,0.2
		c-2.1,1.1-4.2,1.5-6.1,2c-1.9,0.4-3.5,0.6-4.8,0.8c-1.4,0.2-2.4,0.3-3.1,0.3C260.2,329.3,259.8,329.3,259.8,329.3
		c0,0,0.4-0.1,1.1-0.2c0.8-0.1,1.8-0.3,3.1-0.5c1.3-0.2,3-0.5,4.8-0.9c1.8-0.4,3.9-0.9,5.9-2l0.3-0.2l0,0.4
		c0.4,3.6,0.9,7.7,1.4,12.1l0,0.1l-0.1,0.1c-0.4,0.5-0.7,0.9-1.1,1.4c-1.5,2-3,3.9-4.5,5.8l-0.1,0.2l-0.2-0.1
		c-3.2-1.2-6.2-2.4-8.8-3.4l-0.1,0l0-0.1c-0.6-3.8-1.1-6.9-1.5-9.2c-0.2-1-0.3-1.9-0.4-2.5C259.8,329.6,259.8,329.3,259.8,329.3z"/>
	<path class="st57" d="M241.7,332.2c0,0,0,0.3,0,0.9c0,0.7-0.1,1.5-0.1,2.5c-0.1,2.3-0.3,5.5-0.4,9.3l0,0.1l-0.1,0.1
		c-2.5,1.3-5.3,2.8-8.4,4.4l-0.2,0.1l-0.1-0.1c-1.6-1.7-3.3-3.4-5.1-5.2c-0.4-0.4-0.8-0.8-1.2-1.3l-0.1-0.1l0-0.1
		c0-4.4,0.1-8.5,0.1-12.1l0-0.4l0.3,0.1c2.1,0.9,4.2,1.1,6.1,1.3c1.9,0.2,3.5,0.3,4.9,0.4c1.3,0,2.4,0.1,3.2,0.1
		C241.3,332.2,241.7,332.2,241.7,332.2c0,0-0.4,0.1-1.1,0.1c-0.7,0-1.8,0-3.2,0c-1.4,0-3-0.1-4.9-0.3c-1.9-0.2-4-0.4-6.3-1.3
		l0.3-0.2c0,3.6,0,7.7,0,12.1l-0.1-0.2c0.4,0.4,0.8,0.8,1.2,1.3c1.8,1.8,3.5,3.6,5.1,5.2l-0.3-0.1c3.1-1.6,5.9-3,8.4-4.3l-0.1,0.2
		c0.3-3.7,0.5-6.9,0.7-9.1c0.1-1.1,0.2-1.9,0.2-2.6C241.7,332.5,241.7,332.2,241.7,332.2z"/>
	<path class="st57" d="M251.3,346.6c-0.1,0-0.3-0.9-0.6-2.4c-0.3-1.5-0.6-3.6-0.7-5.9c-0.1-2.3-0.1-4.4,0-5.9
		c0.1-1.5,0.3-2.4,0.4-2.4c0.2,0-0.1,3.7,0.2,8.3C250.7,342.9,251.4,346.6,251.3,346.6z"/>
	<path class="st57" d="M278.7,351.7c0,0-0.3,0.2-0.8,0.4c-0.5,0.2-1.3,0.5-2.3,0.8c-2,0.6-4.9,1.1-8,1.1c-3.2,0-6-0.5-8-1.1
		c-1-0.3-1.8-0.6-2.3-0.8c-0.5-0.2-0.8-0.4-0.8-0.4c0-0.1,1.2,0.3,3.2,0.8c2,0.5,4.8,0.9,7.9,0.9c3.1,0,5.9-0.4,7.9-0.9
		C277.5,352,278.7,351.6,278.7,351.7z"/>
	<path class="st18" d="M227.6,217.9c0,0-14.8,8.1-19.1,10l5.9,28.3l9.3,33.9l-6.2,35.7c0,0,21.9,3.9,32.7,2.5
		c14.7-1.9,33.5-7.3,33.5-7.3l-14.6-43.6l3.7-30.1l-6.3-25.4l-15.3-1.8L227.6,217.9z"/>
	<path d="M220.6,246.1c1,2,3.3,2.9,5.4,3.5c2.1,0.6,4.4,1,6.1,2.5c3,2.6,2.9,7.5,5.6,10.3c1.8,1.8,4.6,2.5,7,1.7
		c1.5-0.5,2.9-1.6,4.4-1.7c1.1-0.1,2.2,0.2,3.3,0.2c3.1-0.2,4.9-3.5,6.2-6.4c1.3-3,2.6-6.1,2.3-9.3c-0.5-4.8-4.5-8.7-5.1-13.5
		c-0.2-1.8,0-3.6-0.2-5.4c-0.2-1.8-1-3.7-2.6-4.4"/>
	<path class="st18" d="M279.5,214.4l-11.4-22.9l9.2-5.9c0,0,11.5,11.8,13.7,14.2c0,0,13.2,12.2,9.8,18.1c-2.9,5-7.6,8.9-7.6,8.9
		L279.5,214.4z"/>
	<path class="st18" d="M208.5,227.8c-0.2,0.6-30.8,42.9-32.4,47.4c-0.1,0.2-0.2,0.5-0.3,0.8c-1.8,5.8-0.3,12.2,3.8,16.8l25.2,28.1
		l11-12.7l-17.5-30.9l16.7-18.5L208.5,227.8z"/>
	<path class="st61" d="M227.6,310c-1,0.1-2.9,1.5-3.7,2.1c-0.3,0.2-0.6,0.3-1,0.3l0,0c-0.6,0-1.1-0.4-1.2-1l-1.1-3.7
		c-1.1,0.1-2.1,0.7-2.7,1.7l-1.2,2.1l-2.1-2l-9.8,11.2c0,0,3.9,4.2,6.3,4.2c2.4,0.1,14-9.4,14-9.4l3-2.7
		C228.1,312.9,230.6,309.8,227.6,310z"/>
	<path class="st18" d="M259.4,221l8.7,0.4l12.4-9.4l17.5,9.6c0,0-7.9,8.4-15.3,17c-6,7-10.3,11.3-10.3,11.3L259.4,221z"/>
	<path class="st58" d="M267.5,295.5c0,0-0.4,0.5-1.2,1.3c-0.8,0.8-2.1,2-3.6,3.3c-3.1,2.7-7.7,6.3-13.2,9.5
		c-5.5,3.3-10.7,5.6-14.6,7.1c-1.9,0.7-3.5,1.3-4.7,1.6c-1.1,0.3-1.7,0.5-1.7,0.5c0,0,0.6-0.3,1.7-0.7c1.1-0.4,2.7-1,4.6-1.8
		c3.8-1.6,9.1-4,14.5-7.2c5.4-3.3,10-6.7,13.2-9.3c1.6-1.3,2.9-2.4,3.7-3.2C267,295.8,267.5,295.4,267.5,295.5z"/>
	<path class="st58" d="M237.2,290.5c0.1,0.1-3,5.1-6.9,11.2c-3.9,6.1-7.2,10.9-7.3,10.8c-0.1-0.1,2.9-5.1,6.9-11.2
		C233.7,295.2,237,290.4,237.2,290.5z"/>
	<path class="st58" d="M271.3,247.6c-0.1,0-0.1-1.2-0.1-3.2c-0.1-2-0.2-4.8-0.5-7.8c-0.3-3-0.6-5.8-1-7.7c-0.4-2-0.8-3.1-0.7-3.2
		c0.1,0,0.6,1.1,1.1,3.1c0.5,2,0.9,4.7,1.2,7.8c0.3,3.1,0.4,5.8,0.4,7.8C271.5,246.4,271.4,247.6,271.3,247.6z"/>
	<path class="st58" d="M292.3,212.8c0,0.1-0.8-0.3-2-0.8c-1.2-0.5-3-1.1-5-1.1c-2-0.1-3.8,0.5-4.9,1.1c-1.1,0.7-1.7,1.3-1.8,1.3
		c0,0,0.4-0.8,1.5-1.6c1.1-0.8,3-1.4,5.2-1.4c2.1,0,4,0.7,5.2,1.3C291.7,212.3,292.4,212.8,292.3,212.8z"/>
	<path class="st58" d="M286.8,208c0,0.2-2.4-0.1-4.8,1.5c-2.3,1.6-3.2,3.9-3.3,3.8c-0.1,0,0.1-0.6,0.5-1.5c0.4-0.8,1.3-2,2.5-2.8
		c1.3-0.8,2.6-1.1,3.6-1.2C286.2,207.8,286.8,207.9,286.8,208z"/>
	<path d="M238.1,285.3c-0.2-1-0.8-2.1-1.8-2.1c-1.2-0.1-1.9,1.2-2.3,2.3c-3.6,8.5-7.1,16.9-10.7,25.4l-0.4,1.6
		c4.3-6.8,8.6-13.4,12.9-20.2C237.1,290.1,238.5,287.8,238.1,285.3z"/>
	<path d="M278.6,212.9c1.3-1.9,2.5-4.1,4.8-4.6s4.8,0,6.8,1.2c0.4,0.3,0.9,0.7,0.7,1.2c-0.1,0.4-0.5,0.5-0.9,0.6
		c-2,0.5-4.1-0.1-6.2-0.4c-2.1-0.3-3.7,0.6-5,2.2"/>
	<path class="st58" d="M213.3,254.3c-0.1,0-0.6-1.1-1.3-2.9c-0.7-1.9-1.5-4.5-2.2-7.4c-0.7-2.9-1.1-5.6-1.4-7.6
		c-0.2-2-0.3-3.2-0.2-3.2c0.1,0,0.3,1.2,0.6,3.1c0.3,1.9,0.8,4.6,1.5,7.5c0.7,2.9,1.5,5.5,2.1,7.4
		C213,253.1,213.3,254.2,213.3,254.3z"/>
	<g>
		<g>
			<g>
				<g>
					<g>
						<g>
							<g>
								<g>
									<g>
										<path class="st61" d="M229.3,226.4l21.7,0.3l-2-19.6c0,0,1.6,0.8,1.9-7.2c0.3-8,1.1-21.7,1.1-21.7l0,0
											c-9.2-4.2-20-3.2-28.1,2.8l-1.2,0.9L229.3,226.4z"/>
									</g>
								</g>
							</g>
						</g>
					</g>
				</g>
			</g>
		</g>
		<g>
			<g>
				<g>
					<g>
						<g>
							<g>
								<path class="st61" d="M224.8,191.8c-0.1-0.1-5.5-1.8-5.4,3.7c0,5.5,5.5,4.3,5.5,4.2C224.9,199.6,224.8,191.8,224.8,191.8z"
									/>
							</g>
						</g>
					</g>
				</g>
			</g>
		</g>
		<g>
			<g>
				<g>
					<g>
						<g>
							<g>
								<path class="st61" d="M250.6,191.4c0.1-0.1,5.1-1.2,4.7,4.2c-0.3,5.5-5.8,4-5.8,3.9C249.6,199.3,250.6,191.4,250.6,191.4z"
									/>
							</g>
						</g>
					</g>
				</g>
			</g>
		</g>
	</g>
	<path class="st58" d="M237.7,168.6c0,0-7.5-0.3-10.2,1.1c-4.4,2.3-7.9,8.6-8,16.4c-0.1,7.8,3.5,18.4,9.2,23.7
		c5.7,5.2,10.3,6.2,10.3,6.2s12.2-6.6,13.5-16.3c1.4-9.7,2.3-19-1.5-23.8C247.3,171.2,240.5,168.7,237.7,168.6z"/>
	<path class="st58" d="M220.6,191.2c-0.4-5-0.9-10.1,0.7-14.9c1.6-4.7,5.6-9,10.6-9.2c1.6-0.1,3.2,0.3,4.8,0
		c1.4-0.2,2.6-0.9,3.9-1.4c2.2-0.9,4.7-1.2,6.9-0.4c2.2,0.8,4.1,2.8,4.2,5.2c0,1-0.2,2,0.1,2.9c0.3,0.9,1.2,1.5,1.9,2.3
		c1,1.2,1.3,2.9,1.1,4.5c-0.2,1.6-0.7,3.1-1.3,4.5c-1.4,3.6-2.7,7.3-4.1,10.9"/>
	<path class="st58" d="M233.2,194c2.8-1.4,6.4-1.3,9.1,0.2c2.8,1.5,4.7,4.5,5,7.6c0.3,3.3,0.4,3.8,2.5,6.3c1.3,1.5,2.5,1.5,4.1,2.8
		c2,1.7,2.6,4.8,1.4,7.1c3.9-0.2,7.6-0.4,9,3.3c-5.9-1.2-11.7,4.3-17.6,3.1c-1.9-0.4-3.8-0.8-5.3-1.9c-1.7-1.3-2.7-3.4-3.6-5.4
		c-1.6-3.6-3.2-7.2-4.7-10.7c-1.1-2.4-2.1-4.9-2.1-7.6c0-2.6,1.6-5.4,4.1-6.1"/>
	<path class="st18" d="M230.8,197.6c-1.1-3.4,0.1-7.2,2.8-9.2c2.7-1.9,6.8-1.8,9.6,0.4c2.1,1.6,3.5,4.3,3.3,6.8
		c-0.2,2.6-2.3,4.8-4.8,4.8"/>
	<path class="st58" d="M243.7,192.2c-3.5-2.8-8.6-2.2-11.4,0.6c-2.8,2.8-3.1,8.6-2.2,12.5c0.9,4.2,3.5,8.2,2.6,12.4
		c-0.5,2.5-2.3,5.1-1.2,7.5c0.8,1.9,3.1,2.8,4.4,4.5c1.8,2.5,0.9,6-0.3,8.8c-1.2,2.8-2.7,5.9-1.9,8.9c0.7,2.3,2.6,4,4.2,5.8
		c1.5,1.8,2.8,4.4,1.8,6.6c2,1.5,4.9,1.6,7,0.3c2.1-1.3,3.2-4,2.7-6.4c1.2,1.2,2,3,2.1,4.7c3.4-0.3,6.5-2.4,8-5.5
		c1.5-3,1.3-6.8-0.5-9.7c-1.3-2.1-3.5-3.8-3.9-6.2c-0.5-2.9,1.6-5.7,1.3-8.6c-0.2-2.6-2.3-4.7-4.4-6.3c-2.1-1.6-4.5-3-5.9-5.2
		c-2.2-3.6-1.2-8.3-0.3-12.5C246.3,200.2,246.7,195.3,243.7,192.2"/>
	<path class="st58" d="M231,194.8c-3,2-3.2,6.3-2.8,9.8c0.4,3.6,1,7.5-1.2,10.4c-1.5,1.9-4.1,3-4.8,5.3c-0.9,2.8,1.4,5.6,1.6,8.5
		c0.2,2.1-0.7,4.2-1.7,6c-1,1.9-2.2,3.7-2.7,5.7c-0.5,2.1-0.1,4.5,1.5,5.9c1,0.8,2.4,1.1,3.7,1.3c4.7,0.7,9.6,0.7,14.3,0
		c1.4-5.8,2.8-11.7,2.8-17.7c0-11.9-5.6-23.2-5.8-35.1"/>
	<g>
		<path class="st57" d="M239.3,255.7c0,0-0.2-0.2-0.5-0.5c-0.3-0.4-0.8-0.9-1.3-1.6c-1.1-1.4-2.9-3.3-4.7-6
			c-0.9-1.4-1.8-2.9-2.3-4.8c-0.6-1.8-0.6-4,0.1-6.1c0.7-2.1,1.9-4,3-6c1.1-2,2.2-4.2,1.9-6.6c-0.2-2.4-1.8-4.3-2.5-6.6
			c-0.2-0.6-0.3-1.2-0.3-1.8c0-0.6,0.1-1.2,0.3-1.8c0.4-1.1,1.2-2,1.9-2.8c0.7-0.8,1.4-1.5,1.9-2.4c0.5-0.8,0.7-1.8,0.8-2.7
			c0.1-1.8-0.5-3.5-0.9-5.1c-0.5-1.5-0.9-3-0.9-4.3c-0.1-1.3,0.3-2.4,0.7-3.2c0.4-0.8,1-1.3,1.3-1.6c0.4-0.3,0.6-0.3,0.6-0.3
			c0.1,0.1-1,0.4-1.8,2c-0.4,0.8-0.6,1.9-0.6,3.1c0.1,1.3,0.5,2.7,1,4.2c0.5,1.5,1.1,3.3,1,5.2c0,1-0.3,2-0.8,2.9
			c-0.5,0.9-1.2,1.7-1.9,2.5c-0.7,0.8-1.4,1.6-1.7,2.6c-0.2,0.5-0.2,1-0.2,1.6c0,0.5,0.1,1.1,0.3,1.6c0.7,2.1,2.3,4.1,2.6,6.7
			c0.1,1.3-0.1,2.5-0.5,3.7c-0.4,1.2-0.9,2.2-1.5,3.2c-1.1,2-2.3,3.9-3,5.9c-0.7,2-0.7,4-0.2,5.8c0.5,1.8,1.3,3.4,2.2,4.7
			c1.7,2.7,3.4,4.7,4.5,6.1c0.5,0.7,1,1.3,1.2,1.7C239.2,255.5,239.3,255.7,239.3,255.7z"/>
	</g>
	<g>
		<path class="st57" d="M227.7,214.4c-0.1,0,0.8-1.4,1.1-4c0.2-1.3,0.2-2.8,0.2-4.5c0-1.7-0.2-3.6-0.1-5.6c0.1-2,0.5-3.9,1.4-5.5
			c0.9-1.6,2.1-2.7,3.3-3.3c1.2-0.6,2.3-0.8,3-0.8c0.4,0,0.7,0.1,0.8,0.1c0.2,0.1,0.3,0.1,0.3,0.1c0,0.1-0.4,0-1.1,0
			c-0.7,0-1.7,0.2-2.8,0.9c-1.1,0.6-2.2,1.7-3,3.2c-0.8,1.5-1.2,3.3-1.3,5.3c-0.1,2,0,3.9,0,5.6c0,1.7-0.1,3.3-0.3,4.6
			c-0.2,1.3-0.6,2.3-0.9,3C227.9,214.1,227.7,214.4,227.7,214.4z"/>
	</g>
	<g>
		<path class="st57" d="M259.2,252.8c0,0,0-0.2,0.1-0.7c0.1-0.4,0-1.1,0-2c-0.2-1.7-0.6-4.2-1.7-7c-0.6-1.4-1.6-2.8-2.3-4.5
			c-0.4-0.8-0.7-1.7-0.8-2.7c-0.2-1-0.1-2,0-3c0.2-1,0.4-2,0.5-3.1c0.1-1,0.1-2.1-0.1-3.2c-0.4-2.1-1.4-4.2-3.1-5.8
			c-1.6-1.6-3.9-2.3-5.6-3.9c-1.7-1.6-2.5-3.7-2.9-5.7c-0.4-2-0.3-4-0.2-5.8c0.1-1.8,0.4-3.5,0.5-5c0.1-1.5,0.1-2.9-0.1-4.1
			c-0.2-1.2-0.6-2.2-1.1-2.8c-1.1-1.3-2.2-1.3-2.2-1.3c0,0,0.2,0,0.7,0.1c0.4,0.1,1.1,0.4,1.7,1.1c0.6,0.6,1.1,1.7,1.3,2.9
			c0.2,1.2,0.2,2.6,0.1,4.2c-0.1,1.5-0.3,3.2-0.4,5c-0.1,1.8-0.2,3.7,0.2,5.7c0.4,1.9,1.2,4,2.8,5.4c1.6,1.5,3.8,2.2,5.6,3.9
			c1.8,1.7,2.9,3.8,3.3,6.1c0.2,1.1,0.2,2.2,0.1,3.3c-0.1,1.1-0.4,2.1-0.5,3.1c-0.2,1-0.2,2-0.1,2.9c0.1,0.9,0.4,1.8,0.8,2.6
			c0.7,1.7,1.6,3,2.2,4.5c1.1,2.9,1.4,5.4,1.5,7.1c0,0.9,0,1.5-0.1,2c0,0.2-0.1,0.4-0.1,0.5C259.2,252.8,259.2,252.8,259.2,252.8z"
			/>
	</g>
	<g>
		<path class="st57" d="M254.9,222.5c0,0,0.3-0.4,0.5-1.3c0.2-0.9,0.3-2.2-0.2-3.8c-0.5-1.5-1.8-3.1-3.7-4c-0.9-0.4-2.1-0.9-2.9-1.9
			c-0.8-1-1.3-2.1-1.8-3.3c-1-2.4-0.9-4.9-0.9-7.1c0-2.2-0.1-4.1-0.7-5.6c-0.6-1.5-1.4-2.5-2.2-3.1c-0.7-0.6-1.2-0.7-1.2-0.8
			c0,0,0.1,0,0.4,0.1c0.2,0.1,0.6,0.2,1,0.5c0.8,0.5,1.8,1.5,2.4,3.1c0.7,1.6,0.8,3.6,0.8,5.8c0,2.2-0.1,4.6,0.9,6.9
			c0.5,1.1,1,2.3,1.7,3.1c0.4,0.4,0.8,0.8,1.3,1.1c0.5,0.3,1,0.5,1.5,0.7c2,1,3.3,2.8,3.8,4.4c0.5,1.6,0.3,3,0.1,3.9
			c-0.1,0.5-0.3,0.8-0.4,1C255,222.4,254.9,222.5,254.9,222.5z"/>
	</g>
	<g>
		<path class="st57" d="M229.3,193.5c0,0-0.9-0.3-2.2-1.3c-1.3-1-2.8-2.6-3.9-4.8c-1.1-2.2-1.5-4.4-1.6-6c-0.1-1.6,0.2-2.6,0.2-2.6
			c0.1,0,0,1,0.2,2.5c0.1,1.5,0.6,3.7,1.7,5.8c1.1,2.1,2.5,3.7,3.7,4.8C228.5,192.9,229.3,193.4,229.3,193.5z"/>
	</g>
	<g>
		<path class="st57" d="M228.3,195c-0.1,0.1-1.8-0.6-3.8-2c-1.9-1.3-3.3-2.7-3.1-2.9c0.1-0.1,1.6,1.1,3.5,2.4
			C226.7,193.9,228.4,194.8,228.3,195z"/>
	</g>
	<g>
		<path class="st57" d="M251.7,180.9c0.1,0-0.1,3.1-1.9,6.3c-1.8,3.3-4.3,5.1-4.3,5c-0.1-0.1,2.1-2.1,3.8-5.3
			C251.1,183.8,251.6,180.9,251.7,180.9z"/>
	</g>
	<g>
		<path class="st57" d="M253.5,185.2c0.1,0-0.4,2.4-1.6,5.2c-1.3,2.7-2.8,4.7-2.9,4.6c-0.1-0.1,1.1-2.1,2.4-4.8
			C252.6,187.4,253.3,185.1,253.5,185.2z"/>
	</g>
	<g>
		<path class="st57" d="M251,171.3c-0.1,0-0.4-0.8-1-2c-0.3-0.6-0.8-1.3-1.5-1.9c-0.7-0.6-1.6-1-2.6-1c-2.1,0-3.7,1.4-4.7,2.3
			c-1,1-1.6,1.6-1.7,1.6c0,0,0.4-0.8,1.4-1.9c0.5-0.5,1.1-1.1,1.9-1.7c0.8-0.5,1.9-0.9,3-0.9c1.2,0,2.2,0.5,2.9,1.2
			c0.7,0.7,1.2,1.4,1.5,2.1C250.9,170.4,251,171.3,251,171.3z"/>
	</g>
	<path class="st57" d="M248.8,255c0,0-0.2-0.1-0.5-0.4c-0.3-0.3-0.8-0.8-1.3-1.4c-0.6-0.6-1.2-1.4-1.9-2.4c-0.6-1-1.2-2.3-1.3-3.8
		c0-0.8,0.1-1.6,0.3-2.4c0.3-0.8,0.7-1.6,1.1-2.3c0.9-1.5,1.9-3.1,2-5c0.1-1.9-0.6-3.9-1.7-5.7c-1.1-1.8-2.5-3.5-3.8-5.4
		c-1.3-1.9-2.2-4-2.5-6.2c-0.4-2.2-0.3-4.3-0.1-6.2c0.4-4,1.2-7.4,1.3-10.4c0.2-3-0.2-5.4-0.7-7c-0.5-1.6-1-2.4-0.9-2.4
		c0,0,0.1,0.2,0.4,0.6c0.2,0.4,0.5,1,0.8,1.8c0.6,1.6,1,4,0.9,7c-0.1,3-0.8,6.5-1.2,10.4c-0.2,2-0.2,4,0.1,6.1
		c0.3,2.1,1.2,4.1,2.5,6c1.3,1.9,2.7,3.6,3.8,5.5c1.1,1.9,1.8,4,1.7,6c-0.1,2.1-1.2,3.8-2.1,5.3c-0.4,0.8-0.8,1.5-1.1,2.2
		c-0.3,0.7-0.4,1.5-0.3,2.2c0.1,1.5,0.6,2.7,1.2,3.7c0.6,1,1.2,1.8,1.8,2.4c0.5,0.6,1,1.1,1.3,1.4C248.7,254.8,248.8,255,248.8,255z
		"/>
</g>
</svg>
