<?xml version="1.0" encoding="utf-8"?>
<!-- Generator: Adobe Illustrator 22.0.1, SVG Export Plug-In . SVG Version: 6.00 Build 0)  -->
<svg version="1.1" id="Layer_1" xmlns="http://www.w3.org/2000/svg" xmlns:xlink="http://www.w3.org/1999/xlink" x="0px" y="0px"
	 viewBox="0 0 520 520" style="enable-background:new 0 0 520 520;" xml:space="preserve">
<style type="text/css">
	.st0{fill:#E1E1E1;}
	.st1{fill:#FAFAFA;}
	.st2{fill-rule:evenodd;clip-rule:evenodd;fill:#E1E1E1;}
	.st3{fill-rule:evenodd;clip-rule:evenodd;fill:#F5F5F5;}
	.st4{fill-rule:evenodd;clip-rule:evenodd;fill:#ECECEC;}
	.st5{fill:#E7F1FD;}
	.st6{fill:#B4DAF9;}
	.st7{fill:#4BA2F4;}
	.st8{fill:#0082CB;}
	.st9{fill:#D0E6FC;}
	.st10{fill:#FFDF69;}
	.st11{fill:#FFDC7D;}
	.st12{fill:#FFFFFF;}
	.st13{fill:url(#SVGID_1_);}
	.st14{fill:#EEA886;}
	.st15{fill:#202338;}
	.st16{fill:#81807E;}
	.st17{fill:#0255A0;}
	.st18{fill:#2DB1FF;}
	.st19{fill:#1D2033;}
	.st20{fill:#EEA987;}
	.st21{fill:#C4C1CC;}
	.st22{fill:#3A4066;}
	.st23{fill:#A77860;}
	.st24{fill:#323657;}
	.st25{fill:#666FB3;}
	.st26{fill:#2D314F;}
	.st27{fill:#B8B8B8;}
	.st28{fill:#004E8C;}
	.st29{fill:#238EFE;}
	.st30{fill:url(#SVGID_2_);}
	.st31{fill:#E3F2FF;}
	.st32{fill:#EBEBEB;}
	.st33{fill:#0E2D3D;}
	.st34{fill:#163342;}
	.st35{fill:#183C59;}
	.st36{fill:#616161;}
	.st37{fill:#E0CEC7;}
	.st38{fill:#E2D2CA;}
	.st39{fill:#706865;}
	.st40{fill:#CCBDB7;}
	.st41{fill:#EAD8CF;}
	.st42{fill:#DA9B5B;}
	.st43{fill:#424773;}
	.st44{fill:#292C47;}
	.st45{fill:#3A3F47;}
	.st46{fill:#918783;}
	.st47{fill:#5E5854;}
	.st48{fill:#BFB2AC;}
	.st49{fill:#F2E2D9;}
	.st50{fill:#F5F7FF;}
	.st51{fill:#918681;}
	.st52{fill:#DFE1E8;}
	.st53{fill:#AB9546;}
	.st54{fill-rule:evenodd;clip-rule:evenodd;fill:#D0E6FC;}
	.st55{fill:#ECECEC;}
	.st56{fill:#F5F5F5;}
	.st57{fill:#455A64;}
	.st58{fill:#1A2E35;}
	.st59{fill:#E8505B;}
	.st60{fill:#007CFF;}
	.st61{fill:#FFBE9D;}
	.st62{fill:#EB996E;}
	.st63{opacity:0.3;}
	.st64{fill:#1C709B;}
	.st65{fill:#F0F0F0;}
	.st66{fill:none;stroke:#E7E7E7;stroke-miterlimit:10;}
	.st67{fill:#E1E1E1;enable-background:new    ;}
	.st68{opacity:0.8;fill:#E1E1E1;}
	.st69{opacity:0.2;fill:#FFFFFF;}
	.st70{opacity:0.4;fill:#FFFFFF;}
	.st71{opacity:0.6;fill:#FFFFFF;enable-background:new    ;}
	.st72{opacity:0.6;fill:#FFFFFF;}
	.st73{opacity:0.1;enable-background:new    ;}
	.st74{opacity:0.7;fill:#FFFFFF;}
	.st75{opacity:0.2;enable-background:new    ;}
	.st76{fill:none;stroke:#FFFFFF;stroke-miterlimit:10;}
	.st77{fill:none;stroke:#FFFFFF;stroke-miterlimit:10;stroke-dasharray:4.8785,4.8785;}
	.st78{fill:none;stroke:#FFFFFF;stroke-miterlimit:10;stroke-dasharray:5.193,5.193;}
	.st79{fill:#007CFF;stroke:#FFFFFF;stroke-miterlimit:10;}
	.st80{fill:none;stroke:#FFFFFF;stroke-width:1.5;stroke-linecap:round;stroke-linejoin:round;stroke-miterlimit:10;}
	.st81{opacity:0.5;fill:#FFFFFF;}
	.st82{fill:none;stroke:#007CFF;stroke-miterlimit:10;}
	.st83{fill:#FFFFFF;stroke:#007CFF;stroke-miterlimit:10;}
	.st84{opacity:0.4;enable-background:new    ;}
	.st85{opacity:0.9;fill:#FFFFFF;}
	.st86{opacity:0.1;}
	.st87{opacity:0.3;enable-background:new    ;}
	.st88{fill:#FCB373;}
	.st89{fill:none;stroke:#1A2E35;stroke-width:0.5;stroke-linecap:round;stroke-linejoin:round;stroke-miterlimit:10;}
	.st90{opacity:0.2;fill:#FFFFFF;enable-background:new    ;}
	.st91{opacity:0.3;fill:#FFFFFF;enable-background:new    ;}
	.st92{fill:#CC7A63;}
	.st93{opacity:0.4;fill:#FFFFFF;enable-background:new    ;}
	.st94{fill:#B84D3C;}
	.st95{fill:none;stroke:#FFFFFF;stroke-width:2;stroke-linecap:round;stroke-linejoin:round;stroke-miterlimit:10;}
	.st96{fill:#E7E7E7;}
	.st97{opacity:0.8;fill:#E7F1FD;}
	.st98{opacity:0.5;}
	.st99{opacity:0.3;fill:#FFFFFF;}
	.st100{opacity:0.8;fill:#FFFFFF;}
	.st101{opacity:0.2;}
	.st102{fill:#FFC3BD;}
	.st103{fill:#FF8935;}
	.st104{fill:#AFD8F9;}
	.st105{fill:#FF4F5B;}
	.st106{fill:#F4BBAC;}
	.st107{fill:#EF8876;}
	.st108{fill:none;stroke:#1A2E35;stroke-width:2.000000e-02;stroke-miterlimit:10;}
	.st109{fill:none;stroke:#1A2E35;stroke-width:2.000000e-02;stroke-miterlimit:10;stroke-dasharray:1;}
	.st110{fill:none;}
	.st111{fill:#FDFFFF;}
	.st112{fill:#C78976;}
	.st113{fill:#BF654E;}
	.st114{opacity:0.6;}
</style>
<g>
	<g>
		<g>
			<g>
				<g>
					<g>
						<path class="st2" d="M167.5,72.8c0.2,2.1,0.1,4.1-0.3,6.1l4.5,3.4l-3.9,8.5l-5.5-1.2c-1.3,1.5-2.8,2.9-4.5,4.1l0.7,5.6
							l-8.8,3.2l-3.1-4.7c-2.1,0.2-4.1,0.1-6.1-0.3l-3.4,4.5l-8.5-3.9l1.2-5.5c-1.5-1.3-2.9-2.8-4.1-4.5l-5.6,0.7L117,80l4.7-3.1
							c-0.2-2.1-0.1-4.1,0.3-6.1l-4.5-3.4l3.9-8.5l5.5,1.2c1.3-1.5,2.8-2.9,4.5-4.1l-0.7-5.6l8.8-3.2l3.1,4.7
							c2.1-0.2,4.1-0.1,6.1,0.3l3.4-4.5l8.5,3.9l-1.2,5.5c1.5,1.3,2.9,2.8,4.1,4.5L169,61l3.2,8.8L167.5,72.8L167.5,72.8z
							 M154.2,71.8c-1.9-5.2-7.6-7.9-12.8-6c-5.2,1.9-7.9,7.6-6,12.8c1.9,5.2,7.6,7.9,12.8,6C153.4,82.8,156,77,154.2,71.8z"/>
					</g>
				</g>
			</g>
		</g>
	</g>
	<g>
		<g>
			<g>
				<g>
					<g>
						<path class="st3" d="M164.1,21.9c0.1,1.4,0.1,2.7-0.2,4l3,2.3l-2.6,5.6l-3.6-0.8c-0.9,1-1.8,1.9-3,2.7l0.5,3.7l-5.8,2.1
							l-2-3.1c-1.4,0.1-2.7,0.1-4-0.2l-2.3,3l-5.6-2.6l0.8-3.6c-1-0.9-1.9-1.8-2.7-3l-3.7,0.5l-2.1-5.8l3.1-2
							c-0.1-1.4-0.1-2.7,0.2-4l-3-2.3l2.6-5.6l3.6,0.8c0.9-1,1.8-1.9,3-2.7l-0.5-3.7l5.8-2.1l2,3.1c1.4-0.1,2.7-0.1,4,0.2l2.3-3
							l5.6,2.6l-0.8,3.6c1,0.9,1.9,1.8,2.7,3l3.7-0.5l2.1,5.8L164.1,21.9L164.1,21.9z M155.3,21.2c-1.3-3.4-5.1-5.2-8.5-3.9
							c-3.4,1.3-5.2,5.1-3.9,8.5c1.3,3.4,5.1,5.2,8.5,3.9C154.8,28.5,156.5,24.7,155.3,21.2z"/>
					</g>
				</g>
			</g>
		</g>
	</g>
	<g>
		<g>
			<g>
				<g>
					<g>
						<path class="st3" d="M204,89.1c0.1,1.1,0,2.1-0.1,3.2l2.3,1.8l-2,4.4l-2.9-0.6c-0.7,0.8-1.5,1.5-2.3,2.1l0.4,2.9l-4.6,1.7
							l-1.6-2.5c-1.1,0.1-2.1,0-3.2-0.1l-1.8,2.3l-4.4-2l0.6-2.9c-0.8-0.7-1.5-1.5-2.1-2.3l-2.9,0.4l-1.7-4.6l2.5-1.6
							c-0.1-1.1,0-2.1,0.1-3.2l-2.3-1.8l2-4.4l2.9,0.6c0.7-0.8,1.5-1.5,2.3-2.1l-0.4-2.9l4.6-1.7l1.6,2.5c1.1-0.1,2.1,0,3.2,0.1
							l1.8-2.3l4.4,2l-0.6,2.9c0.8,0.7,1.5,1.5,2.1,2.3l2.9-0.4l1.7,4.6L204,89.1L204,89.1z M197,88.6c-1-2.7-4-4.1-6.7-3.1
							c-2.7,1-4.1,4-3.1,6.7c1,2.7,4,4.1,6.7,3.1C196.6,94.3,198,91.3,197,88.6z"/>
					</g>
				</g>
			</g>
		</g>
	</g>
	<g>
		<g>
			<g>
				<g>
					<g>
						<path class="st4" d="M199.6,52.3c0.1,1.2,0.1,2.4-0.2,3.6l2.7,2.1l-2.3,5.1l-3.3-0.7c-0.8,0.9-1.7,1.8-2.7,2.5l0.4,3.3
							l-5.2,1.9l-1.8-2.8c-1.2,0.1-2.4,0.1-3.6-0.2l-2.1,2.7l-5.1-2.3l0.7-3.3c-0.9-0.8-1.8-1.7-2.5-2.7l-3.3,0.4l-1.9-5.2l2.8-1.8
							c-0.1-1.2-0.1-2.4,0.2-3.6l-2.7-2.1l2.3-5.1l3.3,0.7c0.8-0.9,1.7-1.8,2.7-2.5l-0.4-3.3l5.2-1.9l1.8,2.8
							c1.2-0.1,2.4-0.1,3.6,0.2l2.1-2.7l5.1,2.3l-0.7,3.3c0.9,0.8,1.8,1.7,2.5,2.7l3.3-0.4l1.9,5.2L199.6,52.3L199.6,52.3z
							 M191.7,51.7c-1.1-3.1-4.6-4.7-7.7-3.6c-3.1,1.1-4.7,4.6-3.6,7.7c1.1,3.1,4.6,4.7,7.7,3.6C191.2,58.3,192.8,54.8,191.7,51.7z"
							/>
					</g>
				</g>
			</g>
		</g>
	</g>
	<g>
		<g>
			<g>
				<g>
					<g>
						<path class="st4" d="M75.8,140.4c0.1,1.2,0.1,2.4-0.2,3.6l2.7,2.1l-2.3,5.1l-3.3-0.7c-0.8,0.9-1.7,1.8-2.7,2.5l0.4,3.3
							l-5.2,1.9l-1.8-2.8c-1.2,0.1-2.4,0.1-3.6-0.2l-2.1,2.7l-5.1-2.3l0.7-3.3c-0.9-0.8-1.8-1.7-2.5-2.7l-3.3,0.4l-1.9-5.2l2.8-1.8
							c-0.1-1.2-0.1-2.4,0.2-3.6l-2.7-2.1l2.3-5.1l3.3,0.7c0.8-0.9,1.7-1.8,2.7-2.5l-0.4-3.3l5.2-1.9l1.8,2.8
							c1.2-0.1,2.4-0.1,3.6,0.2l2.1-2.7l5.1,2.3l-0.7,3.3c0.9,0.8,1.8,1.7,2.5,2.7l3.3-0.4l1.9,5.2L75.8,140.4L75.8,140.4z
							 M67.8,139.8c-1.1-3.1-4.6-4.7-7.7-3.6c-3.1,1.1-4.7,4.6-3.6,7.7c1.1,3.1,4.6,4.7,7.7,3.6C67.4,146.4,69,142.9,67.8,139.8z"/>
					</g>
				</g>
			</g>
		</g>
	</g>
</g>
<path class="st54" d="M492.5,74.9c-3.2-7.5-7.3-14.6-12.6-20.8c-31.6-37.6-106.1-48-141.8-10.3c-30,31.6-26.7,87.6-62.2,112.9
	c-21.7,15.4-51.1,13.9-76.9,7.5c-25.8-6.4-51-17-77.6-17.6c-38.8-0.9-76.7,21.2-96.9,54.3C-8.9,255.6,8.9,333.3,58.7,372.3
	c26.5,20.8,60.4,29.2,93.4,35.8c41.4,8.2,83.6,14.1,125.7,11.3c62.5-4.2,122-31,162.7-79.3c0.8-1,1.6-1.9,2.4-2.9
	c52.7-64.1,73.5-148.8,58.5-230.3C499.6,96,496.8,85,492.5,74.9z"/>
<rect x="149.2" y="65.9" class="st12" width="266" height="206.9"/>
<g>
	<path class="st58" d="M415.2,272.8c0-1.5-0.1-82-0.2-206.9l0.2,0.2c-75.7,0-167.3,0-265.9,0h0l0.2-0.2c0,74.6,0,145.1,0,206.9
		l-0.2-0.2C307.1,272.8,413.4,272.8,415.2,272.8c-1.8,0-108.1,0.1-266,0.2l-0.2,0v-0.2c0-61.8,0-132.4,0-206.9v-0.2h0.2h0
		c98.7,0,190.3,0,265.9,0h0.2l0,0.2C415.3,190.8,415.2,271.3,415.2,272.8z"/>
</g>
<g>
	<path class="st58" d="M222.4,255.5c-0.1,0-0.2-22.5-0.2-50.2c0-27.8,0.1-50.2,0.2-50.2c0.1,0,0.2,22.5,0.2,50.2
		C222.6,233,222.5,255.5,222.4,255.5z"/>
</g>
<g>
	<path class="st58" d="M337.8,255.5c-0.1,0-0.2-22.5-0.2-50.2c0-27.8,0.1-50.2,0.2-50.2s0.2,22.5,0.2,50.2
		C338,233,337.9,255.5,337.8,255.5z"/>
</g>
<g>
	<path class="st58" d="M261.8,255.5c-0.1,0-0.2-28.8-0.2-64.2c0-35.5,0.1-64.2,0.2-64.2s0.2,28.8,0.2,64.2
		C262,226.7,261.9,255.5,261.8,255.5z"/>
</g>
<g>
	<path class="st58" d="M181.9,255.5c-0.1,0-0.2-28.8-0.2-64.2c0-35.5,0.1-64.2,0.2-64.2s0.2,28.8,0.2,64.2
		C182.1,226.7,182,255.5,181.9,255.5z"/>
</g>
<g>
	<path class="st58" d="M383.1,255.5c-0.1,0-0.2-28.8-0.2-64.2c0-35.5,0.1-64.2,0.2-64.2c0.1,0,0.2,28.8,0.2,64.2
		C383.3,226.7,383.2,255.5,383.1,255.5z"/>
</g>
<g>
	<path class="st58" d="M296.3,255.5c-0.1,0-0.2-33.2-0.2-74.2c0-41,0.1-74.2,0.2-74.2s0.2,33.2,0.2,74.2
		C296.6,222.3,296.5,255.5,296.3,255.5z"/>
</g>
<path class="st58" d="M223.3,155c0,0.5-0.4,0.9-0.9,0.9c-0.5,0-0.9-0.4-0.9-0.9c0-0.5,0.4-0.9,0.9-0.9
	C222.9,154,223.3,154.5,223.3,155z"/>
<circle class="st58" cx="261.8" cy="127" r="0.9"/>
<path class="st58" d="M261.8,130.3c-1.8,0-3.3-1.5-3.3-3.3c0-1.8,1.5-3.3,3.3-3.3c1.8,0,3.3,1.5,3.3,3.3
	C265.1,128.8,263.6,130.3,261.8,130.3z M261.8,123.9c-1.7,0-3.1,1.4-3.1,3.1c0,1.7,1.4,3.1,3.1,3.1c1.7,0,3.1-1.4,3.1-3.1
	C264.9,125.3,263.5,123.9,261.8,123.9z"/>
<circle class="st58" cx="296.3" cy="107.1" r="0.9"/>
<circle class="st58" cx="337.8" cy="155.9" r="0.9"/>
<circle class="st58" cx="383.1" cy="127" r="0.9"/>
<path class="st58" d="M182.9,127.9c0,0.5-0.4,0.9-0.9,0.9c-0.5,0-0.9-0.4-0.9-0.9c0-0.5,0.4-0.9,0.9-0.9
	C182.4,127,182.9,127.4,182.9,127.9z"/>
<g>
	<path class="st60" d="M392,172.5c0,0-0.2,0.1-0.7,0.2c-0.5,0.1-1.2,0.4-2.1,0.7c-1.8,0.8-4.3,2.4-6.9,5.2c-2.6,2.8-5.1,6.7-8.4,11
		c-1.6,2.2-3.4,4.5-5.7,6.6c-1.1,1.1-2.4,2.1-3.7,3.1c-1.4,0.9-2.8,1.8-4.5,2.4c-3.2,1.3-6.9,2-10.7,1.8c-1.9-0.1-3.8-0.2-5.7-0.7
		c-1.9-0.4-3.9-1.2-5.6-2.4c-1.7-1.2-3.1-2.8-4.3-4.5c-1.2-1.7-2.3-3.6-3.3-5.4c-2.1-3.7-4.2-7.5-6.7-11.3
		c-2.4-3.8-4.6-7.9-7.1-11.9c-2.5-4-5.2-7.9-8.7-11.2c-1.8-1.6-3.7-3.1-5.8-4.2c-2.2-1.1-4.5-1.8-7-2c-2.4-0.2-5-0.1-7.4,0.4
		c-2.4,0.5-4.8,1.4-7,2.7c-4.4,2.5-8,6.2-11,10.2c-3,4-5.4,8.3-7.8,12.6c-2.4,4.3-4.9,8.5-7.6,12.3c-2.8,3.9-5.7,7.5-9.2,10.5
		c-0.9,0.7-1.7,1.5-2.7,2.1c-0.9,0.7-1.9,1.3-2.8,1.8c-2,1.1-4,2-6.1,2.5c-1,0.3-2.1,0.4-3.2,0.6c-0.5,0.1-1.1,0.1-1.6,0.1
		c-0.5,0-1.1,0-1.6,0c-2.1-0.1-4.2-0.5-6.1-1.1c-3.9-1.3-7.3-3.3-10.4-5.4c-3.1-2.1-5.9-4.3-8.7-6.3c-2.7-2-5.4-3.7-8.2-5
		c-2.8-1.2-5.5-2-8.2-2.3c-2.6-0.3-5.1-0.1-7.3,0.5c-0.6,0.1-1.1,0.4-1.6,0.5c-0.5,0.2-1,0.3-1.5,0.6c-0.9,0.5-1.9,0.9-2.6,1.4
		c-1.6,1-2.8,2.2-3.9,3.1c-0.5,0.5-0.9,1-1.4,1.5c-0.4,0.5-0.8,0.9-1.1,1.3c-0.6,0.8-1.1,1.4-1.4,1.8c-0.3,0.4-0.5,0.6-0.5,0.6
		c0,0,0.1-0.2,0.4-0.7c0.3-0.4,0.7-1.1,1.3-1.9c0.3-0.4,0.6-0.8,1-1.3c0.4-0.5,0.8-1,1.3-1.6c1.1-1,2.3-2.2,3.9-3.3
		c0.8-0.6,1.7-1,2.6-1.5c0.5-0.3,1-0.4,1.5-0.6c0.5-0.2,1.1-0.4,1.6-0.6c2.3-0.7,4.9-0.9,7.6-0.6c2.7,0.3,5.6,1,8.4,2.3
		c2.9,1.2,5.6,3,8.4,5c2.8,2,5.6,4.1,8.7,6.2c3.1,2,6.4,4,10.1,5.2c1.9,0.6,3.8,1,5.8,1c0.5,0,1,0,1.5,0c0.5,0,1,0,1.5-0.1
		c1-0.2,2-0.3,3-0.6c4-1,7.8-3.4,11.1-6.3c3.3-2.9,6.3-6.5,9-10.3c2.7-3.8,5.1-7.9,7.5-12.2c2.4-4.3,4.9-8.7,7.9-12.8
		c3-4.1,6.7-8,11.4-10.6c2.3-1.3,4.8-2.3,7.4-2.8c2.6-0.5,5.2-0.7,7.8-0.4c2.6,0.2,5.1,1,7.4,2.2c2.3,1.2,4.3,2.7,6.2,4.4
		c3.6,3.5,6.4,7.5,8.9,11.5c2.5,4,4.7,8.1,7.1,11.9c2.4,3.8,4.6,7.7,6.6,11.4c2.1,3.7,4.1,7.4,7.3,9.6c1.6,1.1,3.3,1.9,5.2,2.3
		c1.8,0.5,3.7,0.6,5.5,0.7c3.7,0.2,7.2-0.4,10.3-1.6c1.5-0.6,3-1.4,4.3-2.3c1.3-0.9,2.5-1.9,3.6-2.9c2.2-2.1,4-4.3,5.7-6.4
		c3.3-4.3,5.9-8.2,8.6-10.9c2.6-2.8,5.3-4.4,7.1-5.1c1-0.3,1.7-0.5,2.2-0.6C391.8,172.5,392,172.4,392,172.5z"/>
</g>
<rect x="181" y="89.1" class="st58" width="46.4" height="2.6"/>
<rect x="181" y="95.2" class="st58" width="22.9" height="2.6"/>
<path class="st58" d="M410.7,49H153.4c-2.5,0-4.5,2-4.5,4.5v12.4h266.3V53.5C415.2,51,413.2,49,410.7,49z"/>
<path class="st12" d="M162.7,57.8c0,1-0.8,1.8-1.8,1.8c-1,0-1.8-0.8-1.8-1.8c0-1,0.8-1.8,1.8-1.8C161.9,56,162.7,56.8,162.7,57.8z"
	/>
<path class="st12" d="M170.7,57.8c0,1-0.8,1.8-1.8,1.8c-1,0-1.8-0.8-1.8-1.8c0-1,0.8-1.8,1.8-1.8C169.8,56,170.7,56.8,170.7,57.8z"
	/>
<path class="st12" d="M178.6,57.8c0,1-0.8,1.8-1.8,1.8c-1,0-1.8-0.8-1.8-1.8c0-1,0.8-1.8,1.8-1.8C177.8,56,178.6,56.8,178.6,57.8z"
	/>
<path class="st104" d="M161.8,218.3H58.1c-1.5,0-2.8-1.3-2.8-2.8v-25c0-1.5,1.3-2.8,2.8-2.8h103.6c1.5,0,2.8,1.3,2.8,2.8v25
	C164.5,217,163.3,218.3,161.8,218.3z"/>
<g>
	<path class="st12" d="M78.4,208.1c-2.3,2.9-6.5,3.3-9.4,1c-2.9-2.3-3.3-6.5-1-9.4c2.3-2.9,6.5-3.3,9.4-1
		C80.2,201,80.7,205.2,78.4,208.1z"/>
</g>
<g>
	<g>
		<path class="st58" d="M76.9,201.7c0.1,0.1-1.5,1.8-3.6,3.8c-0.3,0.3-0.6,0.6-0.9,0.8l-0.2,0.2l-0.2-0.2c-1.6-1.7-2.8-2.9-2.7-3
			c0.1-0.1,1.4,1.1,3,2.7l-0.3,0c0.3-0.3,0.6-0.6,0.9-0.9C75.1,203.1,76.8,201.6,76.9,201.7z"/>
	</g>
</g>
<g>
	<g>
		<path class="st58" d="M153.9,200.7c0,0.1-13.9,0.2-31,0.2c-17.1,0-31-0.1-31-0.2s13.9-0.2,31-0.2
			C140,200.5,153.9,200.6,153.9,200.7z"/>
	</g>
</g>
<g>
	<g>
		<path class="st58" d="M128.5,206.8c0,0.1-8,0.2-17.9,0.2c-9.9,0-17.9-0.1-17.9-0.2s8-0.2,17.9-0.2
			C120.4,206.6,128.5,206.7,128.5,206.8z"/>
	</g>
</g>
<path class="st104" d="M184,158.6H81.5c-1.4,0-2.6-1.2-2.6-2.6v-39.5c0-1.4,1.2-2.6,2.6-2.6H184c1.4,0,2.6,1.2,2.6,2.6V156
	C186.6,157.4,185.4,158.6,184,158.6z"/>
<path class="st60" d="M101.3,128c0,2.8-2.2,5-5,5c-2.8,0-5-2.2-5-5c0-2.8,2.2-5,5-5C99,123,101.3,125.3,101.3,128z"/>
<rect x="106.3" y="124.6" class="st60" width="35" height="1.9"/>
<rect x="106.3" y="129" class="st12" width="68" height="1.9"/>
<path class="st60" d="M101.3,143.5c0,2.8-2.2,5-5,5c-2.8,0-5-2.2-5-5c0-2.8,2.2-5,5-5C99,138.4,101.3,140.7,101.3,143.5z"/>
<rect x="106.3" y="140" class="st60" width="17.9" height="1.9"/>
<rect x="106.3" y="144.4" class="st12" width="68" height="1.9"/>
<path class="st104" d="M233.4,290.5H101.3c-1.9,0-3.4-1.5-3.4-3.4v-52.2c0-1.9,1.5-3.4,3.4-3.4h132.1c1.9,0,3.4,1.5,3.4,3.4v52.2
	C236.8,289,235.3,290.5,233.4,290.5z"/>
<path class="st60" d="M123.3,260l-0.1-12c-3.5,0-7.1,1.4-9.9,3.9c-3.2,2.9-5.3,7.2-4.8,12.4c0.1,0.6,0.2,1.1,0.3,1.7c0,0,0,0,0,0
	l0,0l14.4-3.2V260z"/>
<g>
	<path class="st18" d="M138.2,256.3c-2-4.2-6-7.6-11.6-8.2c-0.2,0-0.3,0-0.5,0c-0.1,0-0.2,0-0.3,0c-0.3,0-0.6,0-0.9,0c0,0,0,0,0,0
		c0,0,0,0,0,0c0,0,0,0,0,0v0v0l0.1,12l0,2.8l14.4,3.1l0,0v0c0.2-1,0.3-2.1,0.3-3.1C139.7,260.7,139.2,258.4,138.2,256.3z"/>
</g>
<path class="st105" d="M124.1,264.3l-14.4,3.2c1.5,6.6,7.4,11.5,14.4,11.5c7.1,0,13-5,14.5-11.6L124.1,264.3"/>
<path d="M124.1,264.3l-14.4,3.2c1.5,6.6,7.4,11.5,14.4,11.5c7.1,0,13-5,14.5-11.6L124.1,264.3"/>
<rect x="149.4" y="251.6" class="st12" width="73.3" height="3.3"/>
<rect x="149.4" y="260.4" class="st12" width="73.3" height="3.3"/>
<rect x="149.4" y="270.1" class="st12" width="39.6" height="3.3"/>
<path class="st104" d="M396.2,329.1h-128c-4.6,0-8.4-3.8-8.4-8.4V198c0-4.6,3.8-8.4,8.4-8.4h128c4.6,0,8.4,3.8,8.4,8.4v122.6
	C404.7,325.3,400.9,329.1,396.2,329.1z"/>
<rect x="269.9" y="285.1" class="st58" width="4.8" height="1.4"/>
<rect x="280.7" y="292.5" class="st58" width="6.1" height="1.4"/>
<rect x="301.9" y="292.5" class="st58" width="6.1" height="1.4"/>
<rect x="323" y="292.5" class="st58" width="6.1" height="1.4"/>
<rect x="344.2" y="292.5" class="st58" width="6.1" height="1.4"/>
<rect x="365.3" y="292.5" class="st58" width="6.1" height="1.4"/>
<rect x="386.5" y="292.5" class="st58" width="6.1" height="1.4"/>
<rect x="269.9" y="266.9" class="st58" width="4.8" height="1.4"/>
<rect x="269.9" y="232.4" class="st58" width="4.8" height="1.4"/>
<rect x="269.9" y="215.1" class="st58" width="4.8" height="1.4"/>
<rect x="270.2" y="249.6" class="st58" width="4.8" height="1.4"/>
<g>
	<path class="st58" d="M392.4,286.5c0,0-0.2,0-0.5,0c-0.4,0-0.9,0-1.5,0c-1.3,0-3.3,0-5.8,0c-5,0-12.2,0-21.2,0.1
		c-17.9,0-42.5,0-69.8,0.1c-5.7,0-11.2,0-16.5,0h-0.2l0-0.2c0-23.3,0.1-43.9,0.1-58.6c0-7.3,0.1-13.2,0.1-17.3c0-2,0-3.6,0-4.7
		c0-0.5,0-0.9,0-1.2c0-0.3,0-0.4,0-0.4s0,0.1,0,0.4c0,0.3,0,0.7,0,1.2c0,1.1,0,2.6,0,4.7c0,4.1,0,10,0.1,17.3
		c0,14.7,0,35.3,0.1,58.6l-0.2-0.2c5.3,0,10.9,0,16.5,0c27.2,0,51.9,0,69.8,0.1c8.9,0,16.1,0.1,21.2,0.1c2.5,0,4.4,0,5.8,0
		c0.6,0,1.1,0,1.5,0C392.2,286.5,392.4,286.5,392.4,286.5z"/>
</g>
<g>
	<path class="st58" d="M393.8,250.3c0,0.1-25.1,0.2-56,0.2c-30.9,0-56-0.1-56-0.2s25.1-0.2,56-0.2
		C368.7,250.1,393.8,250.2,393.8,250.3z"/>
</g>
<g>
	<path class="st58" d="M393.8,233.1c0,0.1-25.1,0.2-56,0.2c-30.9,0-56-0.1-56-0.2c0-0.1,25.1-0.2,56-0.2
		C368.7,232.9,393.8,233,393.8,233.1z"/>
</g>
<g>
	<path class="st58" d="M393.8,215.8c0,0.1-25.1,0.2-56,0.2c-30.9,0-56-0.1-56-0.2c0-0.1,25.1-0.2,56-0.2
		C368.7,215.6,393.8,215.7,393.8,215.8z"/>
</g>
<g>
	<path class="st58" d="M393.8,267.5c0,0.1-25.1,0.2-56,0.2c-30.9,0-56-0.1-56-0.2c0-0.1,25.1-0.2,56-0.2
		C368.7,267.3,393.8,267.4,393.8,267.5z"/>
</g>
<path class="st60" d="M282.9,282.8c0-2.9,0-15.3,0-15.3l9.5-14.8l6.5,5l13.3-20.6l7.8,5.5l10.9-19l8.8,7.2l13.3-25.2l14.3,28.2
	l11.6-14.1l13.6-3.9v67H282.9z"/>
<path class="st58" d="M393.8,210.4c0,0-0.1,0-0.2,0c-0.2,0-0.4,0-0.7,0c-0.6,0-1.6,0-2.8,0c-2.4,0-6,0-10.4,0.1l0.1,0
	c-3,4-6.8,8.9-11.2,14.6l-0.1,0.1l-0.1,0c-8.1,0-17.6,0-28,0l0.2-0.1c-3.7,6.1-7.7,12.8-11.8,19.6c-4,6.7-7.9,13.1-11.6,19.2
	l-0.2,0.3l-0.2-0.3c-5.5-7.6-10.6-14.6-15.2-20.9l0.3,0c-5.8,9-10.5,16.4-13.8,21.6c-1.7,2.6-3,4.6-3.9,6c-0.4,0.7-0.8,1.2-1,1.6
	c-0.2,0.3-0.4,0.5-0.4,0.5s0.1-0.2,0.3-0.6c0.2-0.4,0.6-0.9,1-1.6c0.9-1.4,2.2-3.4,3.8-6c3.3-5.2,8-12.6,13.7-21.6l0.1-0.2l0.2,0.2
	c4.5,6.2,9.7,13.2,15.2,20.8l-0.4,0c3.7-6.1,7.5-12.6,11.5-19.2c4.1-6.8,8.1-13.5,11.8-19.6l0.1-0.1l0.1,0c10.4,0,19.9,0,28,0
	l-0.1,0.1c4.4-5.7,8.2-10.6,11.3-14.6l0,0l0.1,0c4.5,0,8,0,10.4,0.1c1.2,0,2.1,0,2.8,0c0.3,0,0.5,0,0.7,0
	C393.7,210.4,393.8,210.4,393.8,210.4z"/>
<path class="st58" d="M306.4,247.8c0,0.6-0.5,1-1.1,1s-1.1-0.5-1.1-1c0-0.6,0.5-1,1.1-1S306.4,247.3,306.4,247.8z"/>
<path class="st58" d="M338.7,229.5c0,0.6-0.5,1-1.1,1c-0.6,0-1.1-0.5-1.1-1c0-0.6,0.5-1,1.1-1C338.3,228.4,338.7,228.9,338.7,229.5z
	"/>
<path class="st58" d="M363.9,225c0,0.6-0.5,1-1.1,1c-0.6,0-1.1-0.5-1.1-1c0-0.6,0.5-1,1.1-1C363.4,223.9,363.9,224.4,363.9,225z"/>
<ellipse class="st12" cx="287.6" cy="310.8" rx="6.9" ry="6.7"/>
<rect x="304.9" y="306.3" class="st12" width="81.6" height="2.5"/>
<rect x="304.9" y="312.5" class="st12" width="33.9" height="2.5"/>
<path class="st104" d="M449.3,161.1H363c-2.7,0-4.9-2.2-4.9-4.9V86.2c0-2.7,2.2-4.9,4.9-4.9h86.3c2.7,0,4.9,2.2,4.9,4.9v69.9
	C454.2,158.8,452,161.1,449.3,161.1z"/>
<rect x="374.8" y="113.2" class="st60" width="5.2" height="39.1"/>
<rect x="398.4" y="110.1" class="st60" width="5.2" height="42.3"/>
<rect x="422.8" y="104.7" class="st60" width="5.2" height="47.7"/>
<rect x="411.3" y="133.3" class="st105" width="5.2" height="19.1"/>
<rect x="411.3" y="133.3" width="5.2" height="19.1"/>
<rect x="380.9" y="109" class="st105" width="5.2" height="43.3"/>
<rect x="380.9" y="109" class="st18" width="5.2" height="43.3"/>
<rect x="404.8" y="100" class="st105" width="5.2" height="52.4"/>
<rect x="404.8" y="100" class="st18" width="5.2" height="52.4"/>
<rect x="436.2" y="100" class="st105" width="5.2" height="52.4"/>
<rect x="436.2" y="100" width="5.2" height="52.4"/>
<rect x="429.4" y="89.6" class="st105" width="5.2" height="62.8"/>
<rect x="429.4" y="89.6" class="st18" width="5.2" height="62.8"/>
<rect x="387.2" y="124.9" class="st105" width="5.2" height="27.5"/>
<rect x="387.2" y="124.9" width="5.2" height="27.5"/>
<path class="st58" d="M448.8,154.7c0,0.1-18.5,0.2-41.3,0.2c-22.8,0-41.3-0.1-41.3-0.2c0-0.1,18.5-0.2,41.3-0.2
	C430.3,154.5,448.8,154.6,448.8,154.7z"/>
<rect x="363.7" y="145.4" class="st58" width="3.2" height="1"/>
<rect x="363.7" y="131.5" class="st58" width="3.2" height="1"/>
<rect x="363.7" y="105.3" class="st58" width="3.2" height="1"/>
<rect x="363.7" y="92.1" class="st58" width="3.2" height="1"/>
<rect x="363.9" y="118.4" class="st58" width="3.2" height="1"/>
<path class="st60" d="M343.1,102.5h-93c-1.5,0-2.8-1.3-2.8-2.8V77.6c0-1.5,1.3-2.8,2.8-2.8h93c1.5,0,2.8,1.3,2.8,2.8v22.1
	C345.9,101.2,344.7,102.5,343.1,102.5z"/>
<path class="st12" d="M268.1,93.3c-2.1,2.6-5.9,3-8.4,0.9c-2.6-2.1-3-5.9-0.9-8.4c2.1-2.6,5.9-3,8.4-0.9
	C269.7,86.9,270.2,90.7,268.1,93.3z"/>
<path class="st58" d="M263.4,95.5c-1.4,0-2.7-0.5-3.8-1.3c-1.3-1-2-2.4-2.2-4c-0.2-1.6,0.3-3.2,1.3-4.4c1-1.3,2.4-2,4-2.2
	c0.2,0,0.4,0,0.7,0c1.4,0,2.7,0.5,3.8,1.3c1.3,1,2,2.4,2.2,4c0.2,1.6-0.3,3.2-1.3,4.4l0,0c-1,1.3-2.4,2-4,2.2
	C263.8,95.5,263.6,95.5,263.4,95.5z M263.4,83.5c-0.2,0-0.4,0-0.7,0c-1.6,0.2-3,1-4,2.2c-1,1.2-1.5,2.8-1.3,4.4c0.2,1.6,1,3,2.2,4
	c1.2,1,2.8,1.5,4.4,1.3c1.6-0.2,3-1,4-2.2l0,0c1-1.2,1.5-2.8,1.3-4.4c-0.2-1.6-1-3-2.2-4C266.1,84,264.8,83.5,263.4,83.5z"/>
<path class="st18" d="M266.8,87.5c0.1,0.1-1.4,1.6-3.2,3.5c-0.3,0.3-0.5,0.5-0.8,0.8l-0.2,0.2l-0.2-0.2c-1.5-1.5-2.5-2.7-2.4-2.7
	c0.1-0.1,1.2,1,2.7,2.4l-0.3,0c0.3-0.3,0.5-0.5,0.8-0.8C265.1,88.8,266.7,87.4,266.8,87.5z"/>
<path class="st12" d="M336.3,86.6c0,0.1-12.5,0.2-28,0.2c-15.5,0-28-0.1-28-0.2c0-0.1,12.5-0.2,28-0.2
	C323.8,86.4,336.3,86.5,336.3,86.6z"/>
<path class="st12" d="M313.3,92.1c0,0.1-7.2,0.2-16.2,0.2c-8.9,0-16.2-0.1-16.2-0.2c0-0.1,7.2-0.2,16.2-0.2
	C306.1,91.9,313.3,92,313.3,92.1z"/>
<g>
	<g>
		<g>
			<path class="st60" d="M453.1,298.8c0,0-0.1,0.1-0.4,0.4c-0.2,0.3-0.6,0.7-1.1,1.2c-1,0.9-2.6,2.3-5,3.5c-0.6,0.3-1.2,0.6-1.9,0.8
				c-0.3,0.1-0.7,0.3-1.1,0.4c-0.4,0.1-0.8,0.2-1.1,0.3c-0.8,0.2-1.6,0.3-2.5,0.5c-0.4,0-0.9,0.1-1.3,0.1c-0.4,0-0.9,0.1-1.4,0
				c-3.7,0-8-1.1-11.8-3.8l0.1,0c-3.2,0.6-6.6,1.3-10.3,2l-0.6,0.1l0.4-0.4c1.8-2.1,3.7-4.3,5.7-6.5l0,0.3c-1-1.4-1.9-2.9-2.5-4.5
				c-0.6-1.6-1.1-3.4-1.4-5.2c-0.4-3.6,0-7.5,1.6-11c2-4.6,5.6-8.2,9.7-10.3c4.2-2.1,8.9-2.7,13.1-1.8c2.1,0.4,4.1,1.1,5.9,2
				c1.8,1,3.4,2.1,4.8,3.5c2.8,2.6,4.5,5.9,5.4,9c0.9,3.1,1,6.1,0.7,8.6c-0.3,2.6-1.1,4.7-1.9,6.3c-0.2,0.4-0.4,0.8-0.6,1.1
				c-0.2,0.3-0.4,0.7-0.6,0.9c-0.4,0.6-0.7,1.1-1,1.4c-0.3,0.4-0.5,0.6-0.7,0.8C453.2,298.7,453.1,298.8,453.1,298.8
				c0,0,0.1-0.1,0.2-0.3c0.2-0.2,0.4-0.5,0.6-0.9c0.3-0.4,0.6-0.9,1-1.4c0.2-0.3,0.4-0.6,0.6-1c0.2-0.4,0.4-0.7,0.6-1.1
				c0.7-1.6,1.5-3.7,1.8-6.2c0.3-2.5,0.2-5.5-0.8-8.5c-0.9-3-2.7-6.2-5.4-8.8c-1.3-1.3-2.9-2.4-4.7-3.4c-1.7-1-3.7-1.6-5.8-2
				c-4.1-0.8-8.7-0.2-12.8,1.8c-4.1,2.1-7.6,5.6-9.5,10.1c-1.5,3.4-2,7.2-1.5,10.7c0.2,1.8,0.7,3.5,1.3,5.1c0.7,1.6,1.5,3.1,2.5,4.4
				l0.1,0.1l-0.1,0.1c-2,2.3-3.9,4.4-5.7,6.5l-0.2-0.3c3.6-0.7,7.1-1.3,10.3-1.9l0.1,0l0.1,0c3.7,2.6,7.9,3.8,11.6,3.8
				c0.5,0,0.9,0,1.4,0c0.4,0,0.9,0,1.3-0.1c0.8-0.1,1.7-0.2,2.4-0.4c0.4-0.1,0.8-0.2,1.1-0.3c0.4-0.1,0.7-0.2,1.1-0.4
				c0.7-0.2,1.3-0.5,1.9-0.8c2.4-1.1,4-2.5,5-3.4c0.5-0.5,0.9-0.9,1.1-1.1C452.9,298.9,453.1,298.8,453.1,298.8z"/>
		</g>
	</g>
	<g>
		<polygon class="st60" points="437.8,280.9 434.3,279.8 430.9,278.6 431.6,282.2 432.3,285.8 434.2,284.1 442.4,293.2 444,291.7 
			435.9,282.6 		"/>
	</g>
</g>
<g>
	<g>
		<g>
			<g>
				<g>
					<path class="st55" d="M454.4,425.1c4.1-2.1,8.8-2.4,13.3-1.6c2.4,0.4,4.9,1.1,6.6,2.9c1.6,1.8,2,5,0.1,6.6
						c-1.1,0.9-2.7,1.1-4.2,1.1c-3.5,0-7.4-0.7-10.3,1.5c-1.6,1.2-2.7,3.2-4.6,3.8c-1.9,0.6-4-0.5-5-2.2c-1-1.7-1-3.8-0.6-5.7
						C449.9,431.4,450.3,427.2,454.4,425.1z"/>
				</g>
			</g>
		</g>
		<g>
			<g>
				<g>
					<path class="st55" d="M445.1,407.2c2.5,3.5,7.3,2.4,9.5,0.2c2.2-2.2,3.2-5.3,4-8.3c2-6.8,3.9-14,2.5-21
						c-0.4-2.1-1.2-4.2-2.7-5.7c-1.5-1.5-3.7-2.5-5.8-1.9c-2.4,0.6-3.9,3-5,5.3c-3.2,6.7-4.9,14-4.9,21.4
						C442.8,400.7,443.2,404.3,445.1,407.2"/>
				</g>
			</g>
		</g>
		<g>
			<g>
				<g>
					<path class="st55" d="M438.3,412.3c2.7-3.2,3.2-7.9,2-11.9c-1.2-4-3.9-7.4-7-10.2c-3.7-3.3-8-5.8-12.6-7.4
						c-1.8-0.6-3.7-1.1-5.7-1c-1.9,0.2-3.9,1.2-4.8,2.9c-1.3,2.5-0.1,5.6,1.3,8.1c2.4,4.4,5.2,8.6,8.3,12.6c2.5,3.2,5.3,6.3,9.1,7.8
						c3.8,1.4,7.7,1.3,9.7-1.3"/>
				</g>
			</g>
		</g>
		<g>
			<g>
				<g>
					<g>
						<path class="st0" d="M445,460.7c0,0,0.1-0.6,0.2-1.6c0.1-1.2,0.3-2.6,0.4-4.4c0.2-1.8,0.5-4.1,1-6.4c0.5-2.4,1.3-5,2.3-7.6
							c1.1-2.6,2.4-5,3.9-6.9c1.5-1.9,3.3-3.3,4.9-4.1c1.6-0.8,3.1-1.1,4.1-1.3c1-0.1,1.6-0.2,1.6-0.2c0,0-0.6-0.1-1.6,0
							c-1,0.1-2.6,0.3-4.3,1.1c-1.7,0.8-3.6,2.2-5.2,4.1c-1.6,1.9-2.9,4.4-4,7c-1,2.7-1.8,5.3-2.3,7.7c-0.5,2.4-0.7,4.7-0.9,6.5
							c-0.1,1.9-0.2,3.4-0.2,4.4C444.9,460.1,444.9,460.7,445,460.7z"/>
					</g>
				</g>
			</g>
		</g>
		<g>
			<g>
				<g>
					<g>
						<path class="st0" d="M445.3,457.3c0,0,0-0.3,0-0.7c0-0.6,0-1.3,0-2.1c0-1.9,0-4.5,0.1-7.9c0.2-6.6,0.7-13.8,1.8-23.8
							c1-9.5,2.4-20.5,3.9-27.6c0.3-1.6,0.6-3.1,0.9-4.4c0.3-1.3,0.5-2.4,0.8-3.3c0.2-0.8,0.4-1.5,0.5-2.1c0.1-0.5,0.2-0.7,0.1-0.7
							c0,0-0.1,0.2-0.3,0.7c-0.2,0.5-0.4,1.2-0.6,2c-0.3,0.9-0.6,2-0.9,3.3c-0.3,1.3-0.7,2.7-1,4.4c-1.5,6.5-3,15.5-4.1,25.6
							c-1.1,10.1-1.6,19.3-1.6,25.9c0,3.3,0,6,0.1,7.9c0.1,0.9,0.1,1.6,0.1,2.1C445.2,457,445.2,457.3,445.3,457.3z"/>
					</g>
				</g>
			</g>
		</g>
		<g>
			<g>
				<g>
					<g>
						<path class="st0" d="M445.3,439.6c0,0,0-0.8,0-2.2c-0.1-1.4-0.3-3.5-0.7-6c-0.4-2.5-1-5.5-2-8.8c-0.4-1.5-1.4-5.1-3.7-10.4
							c-3.1-7.3-7.2-13.2-10.8-16.9c-0.8-1-1.8-1.7-2.5-2.4c-0.4-0.3-0.7-0.7-1.1-0.9c-0.4-0.2-0.7-0.5-1-0.7
							c-1.2-0.8-1.9-1.2-1.9-1.2c-0.1,0.1,2.7,1.8,6.2,5.5c3.5,3.7,7.5,9.6,10.6,16.8c1.7,3.9,2.9,7.4,3.7,10.3
							c1,3.2,1.6,6.2,2.1,8.7c0.5,2.5,0.7,4.6,0.9,6C445.2,438.8,445.3,439.6,445.3,439.6z"/>
					</g>
				</g>
			</g>
		</g>
	</g>
	<g>
		<g>
			<g>
				<polygon class="st0" points="428.2,470.8 430,495.1 461.2,495.1 463,470.8 				"/>
			</g>
		</g>
	</g>
	<g>
		<g>
			<g>
				<rect x="425.2" y="461.2" class="st0" width="41.5" height="9.6"/>
			</g>
		</g>
	</g>
	<g>
		<g>
			<g>
				<polygon class="st55" points="425.2,494.2 425.2,496.8 427.1,496.8 466,496.8 466,494.2 				"/>
			</g>
		</g>
	</g>
	<g>
		<g>
			<g>
				<polygon class="st0" points="429,501.5 427.1,496.8 464.5,496.8 462.3,501.5 				"/>
			</g>
		</g>
	</g>
	<g>
		<g>
			<g>
				<g>
					<path class="st56" d="M462.4,478.7c0,0,0,0.1-0.1,0.2c-0.1,0.2-0.3,0.4-0.5,0.6c-0.4,0.6-1.1,1.3-1.8,2.3l-0.1,0.1l-0.1-0.1
						c-1.1-1.6-2.7-3.7-4.5-6.2h0.3c-1.3,1.9-2.8,4-4.4,6.2l-0.1,0.2l-0.2-0.2c-1.6-1.9-3.4-4-5.2-6.2l0.3,0
						c-0.1,0.1-0.2,0.2-0.3,0.4c-1.6,2-3.2,4-4.7,5.8l-0.2,0.2l-0.1-0.2c-1.6-2.2-3.1-4.3-4.4-6.2l0.3,0c-2.2,2.5-4,4.6-5.4,6.2
						l-0.1,0.1l-0.1-0.1c-0.7-1.2-1.3-2.2-1.7-2.9c-0.2-0.3-0.3-0.6-0.4-0.8c-0.1-0.2-0.1-0.3-0.1-0.3c0,0,0.1,0.1,0.2,0.2
						c0.1,0.2,0.3,0.4,0.5,0.7c0.4,0.7,1,1.6,1.8,2.8l-0.2,0c1.4-1.6,3.2-3.7,5.3-6.3l0.1-0.2l0.1,0.2c1.3,1.9,2.8,4,4.4,6.2l-0.3,0
						c1.5-1.9,3-3.8,4.7-5.9c0.1-0.1,0.2-0.2,0.3-0.4l0.1-0.2l0.2,0.2c1.8,2.2,3.6,4.3,5.2,6.2l-0.3,0c1.6-2.2,3.1-4.3,4.4-6.2
						l0.1-0.2l0.1,0.2c1.8,2.5,3.3,4.6,4.4,6.2l-0.2,0c0.8-1,1.4-1.7,1.9-2.3c0.2-0.2,0.4-0.4,0.5-0.6
						C462.3,478.8,462.4,478.7,462.4,478.7z"/>
				</g>
			</g>
		</g>
	</g>
	<g>
		<g>
			<g>
				<g>
					<path class="st56" d="M463.4,470.6c0,0.1-7.8,0.2-17.5,0.2c-9.7,0-17.5-0.1-17.5-0.2c0-0.1,7.8-0.2,17.5-0.2
						C455.6,470.4,463.4,470.5,463.4,470.6z"/>
				</g>
			</g>
		</g>
	</g>
	<g>
		<g>
			<g>
				<g>
					<path class="st56" d="M465,497.1c0,0.1-8.5,0.2-19,0.2c-10.5,0-19-0.1-19-0.2c0-0.1,8.5-0.2,19-0.2
						C456.5,496.9,465,497,465,497.1z"/>
				</g>
			</g>
		</g>
	</g>
</g>
<g>
	<g>
		<path class="st57" d="M496.7,502c0,0.2-105.8,0.3-236.2,0.3c-130.5,0-236.2-0.1-236.2-0.3c0-0.2,105.7-0.3,236.2-0.3
			C390.9,501.7,496.7,501.9,496.7,502z"/>
	</g>
</g>
<g>
	<rect x="64.5" y="449.3" class="st8" width="62.7" height="8.6"/>
	<path class="st8" d="M127.3,458.1H64.4v-8.8h62.9V458.1z M64.6,457.9h62.5v-8.4H64.6V457.9z"/>
	<polygon class="st8" points="70.3,455.1 79.4,499.6 112.8,499.6 121.5,458 	"/>
	<polygon class="st18" points="70.3,495.4 75.1,502 115.7,502 121.5,495.4 	"/>
	<path class="st58" d="M93.5,456.4c-0.1,0-0.3-20.6-0.4-46.1c-0.1-25.5,0-46.1,0.1-46.1c0.1,0,0.3,20.6,0.4,46.1
		C93.7,435.8,93.6,456.4,93.5,456.4z"/>
	<path class="st58" d="M107.5,404.8c0,0,0,0.2-0.2,0.5c-0.1,0.4-0.3,0.8-0.6,1.3c-0.1,0.3-0.3,0.6-0.4,1c-0.1,0.4-0.3,0.8-0.4,1.2
		c-0.2,0.4-0.3,0.9-0.5,1.3c-0.2,0.5-0.3,1-0.5,1.5c-0.7,2.1-1.2,4.8-1.8,7.7c-0.5,2.9-0.8,6.2-1,9.6c-0.3,6.9,0.1,13.1,0.5,17.5
		c0.2,2.2,0.4,4,0.6,5.3c0.1,0.6,0.1,1.1,0.2,1.4c0,0.3,0,0.5,0,0.5c0,0-0.1-0.2-0.1-0.5c-0.1-0.4-0.1-0.8-0.2-1.4
		c-0.2-1.2-0.5-3-0.7-5.3c-0.5-4.5-0.9-10.7-0.6-17.6c0.2-3.4,0.5-6.7,1-9.6c0.5-2.9,1.1-5.6,1.9-7.7c0.2-0.5,0.3-1.1,0.5-1.5
		c0.2-0.5,0.4-0.9,0.5-1.3c0.2-0.4,0.3-0.8,0.5-1.2c0.2-0.4,0.3-0.7,0.4-1c0.3-0.5,0.5-1,0.6-1.3
		C107.4,404.9,107.5,404.8,107.5,404.8z"/>
	<path class="st58" d="M105.9,388.1c0,0-0.1,0.2-0.2,0.7c-0.2,0.5-0.4,1.1-0.7,1.9c-0.1,0.4-0.3,0.9-0.5,1.4
		c-0.2,0.5-0.3,1.1-0.5,1.7c-0.4,1.2-0.8,2.6-1.2,4.1c-0.2,0.8-0.4,1.6-0.6,2.4c-0.2,0.8-0.4,1.7-0.6,2.6c-0.4,1.8-0.8,3.7-1.2,5.8
		c-0.7,4.1-1.3,8.6-1.7,13.4c-0.4,4.8-0.6,9.4-0.6,13.5c0,4.2,0,7.9,0.2,11c0.1,1.6,0.2,3,0.2,4.2c0.1,1.2,0.2,2.3,0.2,3.2
		c0.1,0.8,0.1,1.5,0.2,2c0,0.5,0,0.7,0,0.7c0,0-0.1-0.2-0.1-0.7c-0.1-0.5-0.1-1.2-0.2-2c-0.1-0.9-0.2-1.9-0.3-3.2
		c-0.1-1.2-0.2-2.7-0.3-4.2c-0.2-3.1-0.3-6.9-0.3-11.1c0-4.2,0.2-8.7,0.6-13.5c0.4-4.8,1-9.3,1.8-13.4c0.4-2,0.7-4,1.2-5.8
		c0.2-0.9,0.4-1.8,0.6-2.6c0.2-0.8,0.4-1.6,0.7-2.4c0.4-1.5,0.8-2.9,1.2-4.1c0.2-0.6,0.4-1.1,0.5-1.7c0.2-0.5,0.4-1,0.5-1.4
		c0.3-0.8,0.6-1.4,0.7-1.9C105.8,388.3,105.9,388.1,105.9,388.1z"/>
	<path class="st58" d="M89.5,460c0,0,0-0.1,0-0.2c0-0.2,0-0.4-0.1-0.7c0-0.7-0.1-1.6-0.2-2.7c-0.2-2.4-0.4-5.8-0.6-10.1
		c-0.5-8.5-1.3-20.2-2.8-33.1c-0.7-6.4-1.6-12.6-2.5-18.1c-0.5-2.8-0.9-5.4-1.4-7.9c-0.4-2.5-0.9-4.7-1.4-6.8
		c-0.4-2.1-0.9-4-1.2-5.6c-0.4-1.6-0.7-3.1-1-4.2c-0.3-1.1-0.5-2-0.7-2.7c-0.1-0.3-0.1-0.5-0.2-0.7c0-0.2,0-0.2,0-0.2
		c0,0,0,0.1,0.1,0.2c0.1,0.2,0.1,0.4,0.2,0.7c0.2,0.6,0.4,1.5,0.7,2.6c0.3,1.1,0.7,2.6,1.1,4.2c0.4,1.6,0.9,3.5,1.3,5.6
		c0.5,2.1,1,4.4,1.4,6.8c0.5,2.5,0.9,5.1,1.4,7.9c0.9,5.6,1.8,11.7,2.5,18.1c1.4,12.9,2.2,24.6,2.6,33.1c0.2,4.2,0.4,7.7,0.5,10.1
		c0,1.2,0.1,2.1,0.1,2.7c0,0.3,0,0.5,0,0.7C89.6,460,89.6,460,89.5,460z"/>
	<path class="st18" d="M93,374.1c-0.3-2.9-3.2-5.1-6.2-5.2c-2.9,0-5.7,1.7-7.5,4.1c-1.8,2.3-2.8,5.2-3.6,8c-2,6.9-3.1,14.1-2.2,21.2
		c0.8,7.1,3.7,14.1,8.8,19.1c0.8,0.8,1.9,1.6,3,1.4c0.6-0.1,1.1-0.6,1.6-1c10-9.1,15.8-22.6,15.4-36.1c-0.1-2.7-0.4-5.5-1.9-7.8
		C99,375.6,95.6,373.2,93,374.1"/>
	<path class="st59" d="M71.1,350.7c-1.4,2.5-2.8,5-4.1,7.5c-0.1,0.2-0.2,0.4-0.4,0.4c-0.2,0-0.4-0.2-0.5-0.4
		c-3.6-5.6-7.3-11.2-10.9-16.8l2.5-1.4L71.1,350.7z"/>
	<g>
		<path class="st8" d="M71.1,350.7c-1.4,2.5-2.8,5-4.1,7.5c-0.1,0.2-0.2,0.4-0.4,0.4c-0.2,0-0.4-0.2-0.5-0.4
			c-3.6-5.6-7.3-11.2-10.9-16.8l2.5-1.4L71.1,350.7z"/>
	</g>
	<path class="st18" d="M93.3,364.2c-12.4-7.3-24.9-14.7-37.3-22c-0.4-0.2-0.8-0.5-0.9-0.9c-0.1-0.6,0.3-1.1,0.7-1.5
		c5.1-5.3,12.6-8.4,19.9-7.8c7.3,0.5,14.4,4.8,18,11.2C97.3,349.6,97.4,358.1,93.3,364.2"/>
	<g>
		<path class="st58" d="M61.3,335.2c0,0,0.2,0,0.5-0.1c0.3,0,0.8-0.1,1.4-0.1c1.2,0,3,0.1,5.2,0.4c2.2,0.4,4.7,1.1,7.4,2.2
			c2.7,1.2,5.4,2.9,7.9,5.1c2.5,2.3,4.5,4.8,5.9,7.4c1.4,2.5,2.4,5,3,7.1c0.6,2.1,0.8,3.9,0.9,5.1c0.1,0.6,0,0.8,0.1,1.1
			c0,0.3-0.3,0.8-0.3,0.8c0,0,0.2-0.7,0.1-1.9c-0.1-1.2-0.4-3-1.1-5c-1.2-4.2-3.9-9.8-8.9-14.2c-4.9-4.5-10.8-6.6-15-7.4
			c-2.1-0.4-3.9-0.5-5.1-0.5C62,335.2,61.3,335.2,61.3,335.2z"/>
	</g>
	<g>
		<path class="st58" d="M88.2,349c0,0.1-0.7,0.4-1.9,0.9c-1.2,0.5-2.8,1.1-4.7,1.7c-1.9,0.6-3.6,1.1-4.8,1.4c-1.2,0.3-2,0.4-2,0.4
			c0-0.1,0.7-0.3,1.9-0.7c1.4-0.4,3-0.9,4.7-1.5c1.8-0.6,3.4-1.1,4.7-1.5C87.4,349.2,88.2,349,88.2,349z"/>
	</g>
	<g>
		<path class="st58" d="M82.3,333.3c0.1,0,0.4,1.8,0.4,4.2c0.1,2.3-0.1,4.2-0.2,4.2c-0.1,0-0.2-1.9-0.2-4.2
			C82.3,335.1,82.2,333.3,82.3,333.3z"/>
	</g>
	<g>
		<path class="st58" d="M55.6,341.8c0-0.1,1-0.4,2.7-1c1.7-0.5,4.1-1.2,6.7-1.8c2.6-0.6,5-1.1,6.8-1.4c1.7-0.3,2.8-0.4,2.8-0.4
			c0,0.1-1.1,0.3-2.8,0.7c-1.7,0.4-4.1,0.9-6.7,1.6c-2.6,0.6-5,1.2-6.7,1.7C56.7,341.6,55.7,341.9,55.6,341.8z"/>
	</g>
	<path class="st18" d="M77.5,367.8c-3.2-2.4-6.6-2.9-10.6-2.8c-4,0.2-7.9,1.4-11.6,3c-6.3,2.8-12.2,6.8-16,12.6
		c-3.8,5.7-5.1,13.4-2.3,19.6c0.3,0.6,0.6,1.3,1.3,1.5c0.7,0.3,1.4,0.1,2.1-0.2c7.2-2.3,14.4-4.7,20.9-8.3
		c6.6-3.7,12.6-8.7,16.1-15.4c0.8-1.6,1.6-3.3,1.7-5.1C79.3,371,78.8,369.1,77.5,367.8"/>
	<g>
		<path class="st58" d="M77.6,367c0,0-0.2,0.1-0.5,0.2c-0.4,0.1-0.9,0.3-1.5,0.5c-0.3,0.1-0.7,0.2-1.1,0.4c-0.4,0.1-0.8,0.3-1.3,0.5
			c-0.9,0.4-2,0.7-3.1,1.3c-0.6,0.3-1.1,0.5-1.8,0.8c-0.6,0.3-1.2,0.6-1.9,1c-1.3,0.6-2.6,1.5-4,2.3c-2.7,1.7-5.6,3.8-8.5,6.3
			c-2.8,2.5-5.2,5.1-7.3,7.6c-1,1.3-2,2.5-2.8,3.7c-0.4,0.6-0.8,1.2-1.2,1.7c-0.4,0.6-0.7,1.1-1,1.6c-0.7,1-1.2,2-1.6,2.9
			c-0.2,0.4-0.5,0.8-0.7,1.2c-0.2,0.4-0.3,0.7-0.5,1c-0.3,0.6-0.5,1.1-0.7,1.4c-0.2,0.3-0.3,0.5-0.3,0.5c0,0,0.1-0.2,0.2-0.5
			c0.2-0.4,0.4-0.9,0.6-1.5c0.1-0.3,0.3-0.7,0.5-1.1c0.2-0.4,0.4-0.8,0.6-1.2c0.5-0.9,0.9-1.9,1.6-2.9c0.3-0.5,0.7-1.1,1-1.7
			c0.4-0.6,0.8-1.1,1.2-1.7c0.8-1.2,1.8-2.4,2.8-3.7c2.1-2.5,4.5-5.2,7.3-7.7c2.8-2.5,5.8-4.6,8.5-6.3c1.4-0.8,2.7-1.6,4.1-2.3
			c0.7-0.3,1.3-0.7,1.9-0.9c0.6-0.3,1.2-0.5,1.8-0.8c1.1-0.5,2.2-0.9,3.1-1.2c0.5-0.2,0.9-0.3,1.3-0.5c0.4-0.1,0.8-0.2,1.1-0.3
			c0.6-0.2,1.1-0.3,1.5-0.4C77.4,367.1,77.6,367,77.6,367z"/>
	</g>
	<g>
		<path class="st58" d="M52.5,380.6c0,0.1-3.5,1.2-7.8,2.5c-4.3,1.3-7.9,2.2-7.9,2.1c0-0.1,3.5-1.2,7.8-2.5
			C48.9,381.4,52.5,380.5,52.5,380.6z"/>
	</g>
	<g>
		<path class="st58" d="M52.2,397.8c-0.1,0-0.1-0.9-0.2-2.4c0-1.5,0-3.6,0-5.9c0.1-2.3,0.2-4.4,0.3-5.9c0.1-1.5,0.2-2.4,0.3-2.4
			c0.1,0,0.1,0.9,0,2.4c-0.1,1.6-0.1,3.6-0.2,5.9c-0.1,2.2-0.1,4.2-0.1,5.9C52.3,396.9,52.3,397.8,52.2,397.8z"/>
	</g>
	<g>
		<path class="st58" d="M67,390.3c-0.1,0-0.5-4.2-0.9-9.4c-0.4-5.2-0.6-9.5-0.4-9.5c0.1,0,0.5,4.2,0.9,9.4
			C66.9,386.1,67.1,390.3,67,390.3z"/>
	</g>
	<g>
		<path class="st58" d="M48.6,371c0-0.1,1-0.1,2.5-0.1c1.5,0,3.7,0.1,6,0.1c2.4,0.1,4.5,0.2,6,0.3c1.5,0.1,2.5,0.2,2.5,0.2
			c0,0.1-1,0.1-2.5,0.1c-1.5,0-3.7-0.1-6-0.1c-2.4-0.1-4.5-0.2-6-0.3C49.5,371.2,48.6,371.1,48.6,371z"/>
	</g>
	<path class="st58" d="M84,422.4c0,0,0-0.2-0.1-0.5c0-0.4,0-0.9-0.1-1.4c-0.1-1.2-0.1-3.1,0-5.3c0-2.2,0.2-4.9,0.5-7.8
		c0.3-2.9,0.7-6.2,1.3-9.5c0.6-3.4,1.4-6.5,2.1-9.4c0.8-2.8,1.6-5.4,2.3-7.5c0.7-2.1,1.4-3.8,1.9-4.9c0.2-0.5,0.4-1,0.6-1.3
		c0.1-0.3,0.2-0.5,0.2-0.5c0,0,0,0.2-0.1,0.5c-0.1,0.4-0.3,0.8-0.5,1.4c-0.4,1.2-1,2.9-1.7,5c-0.7,2.1-1.5,4.7-2.2,7.5
		c-0.7,2.9-1.5,6-2.1,9.3c-0.6,3.3-1,6.5-1.3,9.5c-0.3,2.9-0.5,5.6-0.6,7.8c-0.1,2.2-0.1,4-0.1,5.3c0,0.6,0,1.1,0,1.4
		C84,422.2,84,422.4,84,422.4z"/>
	<path class="st58" d="M86,398c0,0-0.5,0.7-1.5,1.6c-1,1-2.3,2.3-3.9,3.6c-1.6,1.4-3,2.6-4.1,3.4c-1.1,0.8-1.8,1.3-1.8,1.3
		c0,0,0.6-0.6,1.6-1.5c1.1-1,2.5-2.2,4-3.5c1.5-1.3,2.8-2.5,4-3.5C85.3,398.5,85.9,397.9,86,398z"/>
	<path class="st58" d="M97.8,407.5c-0.1,0-0.6-0.8-1.6-2.2c-1-1.5-2.3-3.3-3.7-5.4c-1.4-2-2.7-3.9-3.8-5.3c-1-1.4-1.6-2.2-1.5-2.2
		c0,0,0.7,0.7,1.8,2.1c1,1.3,2.4,3.2,3.9,5.3c1.5,2.1,2.7,4,3.6,5.5C97.3,406.5,97.8,407.4,97.8,407.5z"/>
	<path class="st58" d="M91.6,377.6c0.1,0.1-3.9,2.7-8.8,5.9c-4.9,3.2-8.9,5.6-9,5.5c-0.1-0.1,3.9-2.7,8.8-5.9
		C87.5,379.9,91.5,377.5,91.6,377.6z"/>
	<path class="st58" d="M102.6,389.5c-0.1,0.1-2.7-2.4-5.9-5.5c-3.2-3.1-5.7-5.7-5.6-5.8c0.1-0.1,2.7,2.4,5.9,5.5
		C100.2,386.8,102.7,389.4,102.6,389.5z"/>
	<path class="st18" d="M105.4,389.3l3.4-0.3c2.4-0.2,4.7-0.9,6.8-2.1c1-0.6,2.1-1.2,3.2-1.6c4.2-1.7,8.8-1.4,13.3-1.6
		c7.3-0.4,14.5-2.2,21.1-5.4c0.4-0.2,0.7-0.5,0.9-0.8c0.7-1.3-0.6-2.4-1.7-3.1c-5.7-3.5-11.4-7-17.9-8.8c-6.4-1.7-13.7-1.4-19.2,2.3
		C108.9,372.4,106.5,381.5,105.4,389.3"/>
	<g>
		<path class="st58" d="M154.2,377.1c0,0-0.2-0.1-0.6-0.3c-0.4-0.2-0.9-0.5-1.6-0.8c-1.4-0.7-3.4-1.8-5.9-3
			c-2.5-1.2-5.6-2.5-9.1-3.5c-3.5-1-7.6-1.5-11.8-1c-4.2,0.6-8,2.2-10.8,4.6c-2.7,2.4-4.4,5.4-5.6,7.9c-1.2,2.5-1.9,4.7-2.4,6.1
			c-0.2,0.7-0.4,1.3-0.6,1.7c-0.1,0.4-0.2,0.6-0.2,0.6c0,0,0-0.2,0.1-0.6c0.1-0.4,0.3-1,0.5-1.7c0.5-1.5,1.2-3.7,2.3-6.2
			c1.2-2.5,2.8-5.5,5.6-8.1c2.8-2.5,6.7-4.2,11-4.8c4.3-0.5,8.4,0,12,1c3.6,1,6.6,2.4,9.1,3.6c2.5,1.2,4.5,2.4,5.8,3.1
			c0.6,0.4,1.2,0.7,1.6,0.9C154,376.9,154.2,377.1,154.2,377.1z"/>
	</g>
	<g>
		<path class="st58" d="M146.1,381.4c-0.1,0.1-4.5-2.7-9.8-6.4c-5.4-3.6-9.7-6.6-9.6-6.7c0.1-0.1,4.5,2.7,9.8,6.4
			C141.9,378.3,146.1,381.3,146.1,381.4z"/>
	</g>
	<g>
		<path class="st58" d="M141.4,368.1c0,0.1-1.4,0.4-3.2,0.6c-1.8,0.2-3.3,0.1-3.3,0c0-0.1,1.5-0.2,3.2-0.3
			C139.9,368.2,141.4,368,141.4,368.1z"/>
	</g>
	<g>
		<path class="st58" d="M122.1,365.6c0.1,0-0.5,1.1-1.4,2.3c-0.9,1.2-1.7,2.1-1.8,2.1c-0.1,0,0.5-1.1,1.4-2.3
			C121.2,366.5,122,365.5,122.1,365.6z"/>
	</g>
	<g>
		<path class="st58" d="M126.1,384c0,0.1-0.8-0.4-2.1-1.1c-1.3-0.8-3-1.9-4.8-3.2c-1.8-1.3-3.5-2.6-4.6-3.5
			c-1.2-0.9-1.9-1.5-1.8-1.6c0,0,0.8,0.5,2,1.3c1.3,1,2.9,2.1,4.7,3.4c1.8,1.3,3.5,2.5,4.7,3.3C125.3,383.4,126.1,384,126.1,384z"/>
	</g>
	<path class="st18" d="M110.4,403.6c-3.2-0.8-7,2.3-7.7,5.5c-0.7,3.3,0.6,6.6,2,9.6c3.2,6.6,7.5,12.8,13.3,17.4
		c5.7,4.6,12.9,7.5,20.3,7.5c-1.4-6.3,0.4-12.9-0.4-19.3c-0.7-5.6-3.3-10.9-7.3-14.9c-4-4-9.4-6.5-15-7.1
		C113.6,402,111.2,401.7,110.4,403.6"/>
	<g>
		<path class="st58" d="M138.2,443.5c0,0-0.2-0.1-0.5-0.2c-0.3-0.2-0.7-0.4-1.2-0.8c-1-0.8-2.2-2.2-3.2-4.2c-0.5-1-1.1-2.1-1.6-3.3
			c-0.5-1.2-1.1-2.5-1.7-3.8c-0.6-1.3-1.3-2.7-2.1-4.1c-0.8-1.4-1.8-2.7-2.9-4c-2.2-2.6-4.6-4.8-6.6-6.9c-2.1-2.1-3.8-4.2-5-6
			c-1.3-1.9-2-3.5-2.5-4.7c-0.2-0.6-0.4-1.1-0.4-1.4c-0.1-0.3-0.1-0.5-0.1-0.5c0,0,0.2,0.7,0.7,1.8c0.5,1.1,1.3,2.8,2.6,4.6
			c1.3,1.8,3,3.8,5.1,5.9c2.1,2.1,4.4,4.3,6.6,6.9c1.1,1.3,2.1,2.6,3,4c0.8,1.4,1.5,2.8,2.1,4.1c0.6,1.3,1.2,2.6,1.7,3.8
			c0.5,1.2,1.1,2.3,1.6,3.3c1,2,2,3.5,3,4.3C137.6,443.2,138.3,443.5,138.2,443.5z"/>
	</g>
	<g>
		<path class="st58" d="M121.6,438.3c-0.1,0,0-0.8,0.3-2.2c0.3-1.3,0.7-3.1,1.2-5.1c0.6-2,1.2-3.7,1.6-5c0.5-1.3,0.8-2,0.9-2
			c0.1,0-0.2,0.8-0.6,2.1c-0.4,1.3-0.9,3.1-1.5,5c-0.6,2-1,3.8-1.3,5.1C121.9,437.5,121.7,438.3,121.6,438.3z"/>
	</g>
	<g>
		<path class="st58" d="M137.6,422.8c0,0.1-0.9-0.2-2.3-0.5c-1.4-0.4-3.3-0.9-5.4-1.3c-2.1-0.5-4.1-0.9-5.5-1.1
			c-1.4-0.3-2.3-0.4-2.3-0.5c0-0.1,0.9,0,2.3,0.2c1.4,0.2,3.4,0.5,5.5,1c2.1,0.5,4,1,5.4,1.5C136.8,422.4,137.7,422.8,137.6,422.8z"
			/>
	</g>
	<g>
		<path class="st58" d="M109.7,427.3c-0.1,0,0.1-1,0.3-2.5c0.3-1.5,0.7-3.6,1.3-5.9c0.6-2.3,1.2-4.4,1.7-5.8
			c0.5-1.5,0.9-2.4,0.9-2.4c0.1,0-0.2,0.9-0.6,2.4c-0.4,1.5-1,3.6-1.6,5.9c-0.6,2.3-1.1,4.4-1.5,5.9
			C110,426.4,109.8,427.3,109.7,427.3z"/>
	</g>
	<g>
		<path class="st58" d="M130.3,409.3c0,0.1-4-0.2-9-0.7c-4.9-0.5-8.9-1-8.9-1.2c0-0.1,4,0.2,9,0.7
			C126.3,408.7,130.3,409.2,130.3,409.3z"/>
	</g>
	<path class="st57" d="M127.3,457.9c0,0.1-14.1,0.2-31.5,0.2c-17.4,0-31.5-0.1-31.5-0.2c0-0.1,14.1-0.2,31.5-0.2
		C113.2,457.7,127.3,457.8,127.3,457.9z"/>
	<path class="st57" d="M117.5,476.1c0,0.1-9.5,0.2-21.2,0.2c-11.7,0-21.2-0.1-21.2-0.2s9.5-0.2,21.2-0.2
		C108,475.8,117.5,475.9,117.5,476.1z"/>
	<path class="st57" d="M117.2,478.6c0,0.1-9.3,0.2-20.8,0.2c-11.5,0-20.8-0.1-20.8-0.2s9.3-0.2,20.8-0.2
		C107.8,478.4,117.2,478.5,117.2,478.6z"/>
	<path class="st57" d="M117.9,473.9c0,0.1-9.8,0.2-21.9,0.2c-12.1,0-21.9-0.1-21.9-0.2c0-0.1,9.8-0.2,21.9-0.2
		C108.1,473.7,117.9,473.8,117.9,473.9z"/>
</g>
<g>
	<g>
		<g>
			<g>
				<g>
					<g>
						<g>
							<path class="st58" d="M320.9,150.3c-0.1,0.1-1-0.7-2-1.8c-1-1.1-1.7-2-1.6-2.1c0.1-0.1,1,0.7,2,1.8
								C320.3,149.2,321,150.2,320.9,150.3z"/>
						</g>
					</g>
				</g>
			</g>
		</g>
	</g>
	<g>
		<g>
			<g>
				<g>
					<g>
						<path class="st59" d="M287.4,220.6c0,0.1-8.9,0.2-20,0.2c-11,0-20-0.1-20-0.2c0-0.1,8.9-0.2,20-0.2
							C278.4,220.4,287.4,220.5,287.4,220.6z"/>
					</g>
				</g>
			</g>
		</g>
	</g>
	<g>
		<g>
			<g>
				<g>
					<g>
						<path class="st58" d="M289.3,240.2c0,0.1-9.4,0.2-20.9,0.2c-11.6,0-20.9-0.1-20.9-0.2c0-0.1,9.4-0.2,20.9-0.2
							C279.9,240,289.3,240.1,289.3,240.2z"/>
					</g>
				</g>
			</g>
		</g>
	</g>
	<g>
		<g>
			<g>
				<g>
					<g>
						<path class="st59" d="M287.4,265.1c0,0.1-8.9,0.2-20,0.2c-11,0-20-0.1-20-0.2s8.9-0.2,20-0.2
							C278.4,264.9,287.4,265,287.4,265.1z"/>
					</g>
				</g>
			</g>
		</g>
	</g>
	<g>
		<g>
			<g>
				<g>
					<g>
						<path class="st58" d="M289.3,284.8c0,0.1-9.4,0.2-20.9,0.2c-11.6,0-20.9-0.1-20.9-0.2c0-0.1,9.4-0.2,20.9-0.2
							C279.9,284.5,289.3,284.6,289.3,284.8z"/>
					</g>
				</g>
			</g>
		</g>
	</g>
	<g>
		<g>
			<g>
				<g>
					<g>
						<path class="st59" d="M287.4,309.7c0,0.1-8.9,0.2-20,0.2c-11,0-20-0.1-20-0.2c0-0.1,8.9-0.2,20-0.2
							C278.4,309.4,287.4,309.5,287.4,309.7z"/>
					</g>
				</g>
			</g>
		</g>
	</g>
	<g>
		<g>
			<g>
				<g>
					<g>
						<path class="st58" d="M289.3,329.3c0,0.1-9.4,0.2-20.9,0.2c-11.6,0-20.9-0.1-20.9-0.2c0-0.1,9.4-0.2,20.9-0.2
							C279.9,329,289.3,329.1,289.3,329.3z"/>
					</g>
				</g>
			</g>
		</g>
	</g>
	<g>
		<g>
			<path class="st61" d="M198.9,224.8l0.6-2.5c0.4-1.6,0.4-3.4-0.1-5l-2.6-8.8c-0.2-0.8-0.8-1.5-1.5-1.9c-2-1.1-6-3.4-6.3-3.1
				c-2.4,2,3,5.6,3,5.6s2.1,2.3,0.4,4.1c-1.9,2-5.4-2.3-5.4-2.3s0.2-0.4,0.4-0.4c0.1,0,1.8,1.5,3.4,1.5l0-2.9l-3.2-2
				c-0.7-0.4-1.6-0.6-2.4-0.4l-1.1,0.2c-0.7,0.2-1.3,0.6-1.8,1.2l-1.1,1.6l-0.4,0.6c-0.4,0.6-0.5,1.4-0.2,2l0.5,1.1l-0.7,1
				c-0.6,0.8-0.7,1.9-0.4,2.8l5.4,7.4l8,13l8.6-9.3L198.9,224.8z"/>
		</g>
		<g>
			<g>
				<g>
					<path class="st62" d="M182.2,217.1c0,0-0.2-0.2-0.3-0.5c-0.1-0.4-0.1-0.9,0.3-1.4l0-0.1l0-0.1c0-0.1-0.1-0.1-0.1-0.2
						c-0.6-1.2-1.1-2.1-1.2-2.1c-0.1,0,0.4,1,1,2.2c0,0.1,0.1,0.1,0.1,0.2l0-0.1c-0.4,0.5-0.4,1.2-0.2,1.6
						C181.9,217,182.2,217.1,182.2,217.1z"/>
				</g>
			</g>
		</g>
		<g>
			<g>
				<path class="st62" d="M182.8,207.4c0,0-0.4,0.5-0.2,1.5c0.2,0.9,0.7,2.2,1.5,3.4c0.2,0.3,0.4,0.6,0.5,1c0.1,0.4,0.1,0.7,0.1,1.1
					c-0.1,0.6,0,1.2,0.2,1.6c0.4,0.8,1.1,1,1,1.1c0,0-0.7-0.1-1.3-1c-0.3-0.4-0.4-1.1-0.3-1.7c0-0.3,0-0.6-0.1-0.9
					c-0.1-0.3-0.3-0.6-0.5-0.9c-0.8-1.3-1.3-2.6-1.4-3.6C182.3,207.9,182.8,207.4,182.8,207.4z"/>
			</g>
		</g>
		<g>
			<g>
				<path class="st62" d="M187.1,210.7c-0.1,0-0.1-0.6-0.4-1.2c-0.3-0.6-0.7-1.1-0.6-1.1c0.1-0.1,0.5,0.3,0.9,1
					C187.4,210,187.2,210.7,187.1,210.7z"/>
			</g>
		</g>
	</g>
	<g>
		<polygon class="st18" points="203.2,267.5 206.4,271.6 223.2,251.4 201.3,222.6 190.4,231.1 		"/>
	</g>
	<g>
		<polygon class="st18" points="278,468.2 279.4,501.6 297.4,501.2 296.1,467.8 		"/>
	</g>
	<g>
		<g>
			<path class="st58" d="M288.2,500.2c0.2,0-0.1-7.3-0.6-16.3c-0.5-9-1-16.3-1.2-16.3c-0.2,0,0.1,7.3,0.6,16.3
				C287.6,492.9,288.1,500.2,288.2,500.2z"/>
		</g>
	</g>
	<g>
		<polygon class="st58" points="279.3,499.3 297.3,498.9 297.4,501.2 279.4,501.6 		"/>
	</g>
	<g>
		<g>
			<path class="st58" d="M297,490.5c0,0-0.1-0.3-0.5-0.7c-0.4-0.4-0.9-1-1.7-1.6c-0.8-0.6-1.8-1.3-3-1.8c-1.2-0.5-2.7-0.9-4.2-0.8
				c-3.1,0.2-5.7,1.8-6.9,3.4c-0.6,0.8-1,1.5-1.2,2c-0.2,0.5-0.3,0.8-0.2,0.8c0.1,0.1,0.5-1.1,1.8-2.6c1.2-1.4,3.7-2.9,6.6-3.1
				c2.9-0.2,5.4,1.2,7,2.4C296.1,489.6,296.9,490.6,297,490.5z"/>
		</g>
	</g>
	<g>
		<polygon points="296.5,477.3 296.6,481 278.5,481.3 278.4,478.5 		"/>
	</g>
	<g>
		<g>
			<g>
				<path class="st18" d="M235.6,470.2l0.9,20.3c0,0-20.4,7.7-20.6,11.5l39.5-0.3l-0.1-31.7L235.6,470.2z"/>
			</g>
		</g>
	</g>
	<g>
		<g>
			<g>
				<g>
					<path d="M248.4,488.8c0.8,0.2,1.3,1.1,1.1,1.8c-0.2,0.8-1,1.3-1.8,1.1c-0.8-0.2-1.5-1.2-1.2-2c0.3-0.8,1.3-1.3,2-1"/>
				</g>
			</g>
		</g>
	</g>
	<g>
		<g>
			<g>
				<path class="st58" d="M255.3,501.8l0-3.2l-38.2,1.4c0,0-1.8,0.8-1.6,2L255.3,501.8z"/>
			</g>
		</g>
	</g>
	<g>
		<g>
			<g>
				<g>
					<path class="st58" d="M236.1,490.7c0,0.2,1,0.3,1.9,0.9c1,0.6,1.5,1.4,1.7,1.4c0.2,0-0.1-1.2-1.3-1.9
						C237.2,490.3,236,490.5,236.1,490.7z"/>
				</g>
			</g>
		</g>
	</g>
	<g>
		<g>
			<g>
				<g>
					<path class="st58" d="M231.9,492.4c0,0.2,0.8,0.5,1.5,1.3c0.7,0.8,0.9,1.7,1.1,1.7c0.2,0,0.3-1.1-0.5-2.1
						C233.1,492.3,231.9,492.3,231.9,492.4z"/>
				</g>
			</g>
		</g>
	</g>
	<g>
		<g>
			<g>
				<g>
					<path class="st58" d="M229.6,497.4c0.2,0,0.4-0.9-0.1-2c-0.5-1.1-1.4-1.5-1.5-1.3c-0.1,0.2,0.5,0.7,0.9,1.6
						C229.3,496.6,229.4,497.4,229.6,497.4z"/>
				</g>
			</g>
		</g>
	</g>
	<g>
		<g>
			<g>
				<g>
					<path class="st58" d="M236.4,486c0.1,0.2,1-0.1,2.1,0c1.1,0,2,0.4,2.1,0.2c0.1-0.1-0.7-0.9-2-0.9
						C237.2,485.2,236.3,485.9,236.4,486z"/>
				</g>
			</g>
		</g>
	</g>
	<g>
		<g>
			<g>
				<path class="st58" d="M235.6,481.6c0,0.1,0.8,0.2,2,0c0.6-0.1,1.3-0.3,2.1-0.7c0.4-0.2,0.8-0.4,1.1-0.6c0.2-0.1,0.4-0.2,0.6-0.5
					c0.2-0.2,0.3-0.7,0.1-1c-0.2-0.3-0.6-0.4-0.9-0.4c-0.3,0-0.5,0.1-0.7,0.1c-0.4,0.1-0.9,0.3-1.2,0.4c-0.8,0.4-1.4,0.8-1.8,1.2
					c-0.9,0.9-1.2,1.6-1.2,1.6c0.1,0.1,0.5-0.5,1.5-1.3c0.5-0.4,1.1-0.7,1.8-1c0.4-0.1,0.7-0.3,1.1-0.4c0.4-0.1,0.8-0.1,0.9,0.1
					c0,0.1,0,0.1,0,0.2c-0.1,0.1-0.3,0.2-0.4,0.3c-0.3,0.2-0.7,0.4-1,0.6c-0.7,0.3-1.4,0.6-1.9,0.8
					C236.4,481.5,235.6,481.5,235.6,481.6z"/>
			</g>
		</g>
	</g>
	<g>
		<g>
			<g>
				<path class="st58" d="M235.9,481.9c0.1,0,0.4-0.7,0.5-1.9c0-0.6,0-1.4-0.3-2.2c-0.1-0.4-0.3-0.8-0.5-1.2c-0.2-0.4-0.5-0.9-1.3-1
					c-0.4,0-0.7,0.3-0.8,0.6c-0.1,0.3-0.2,0.5-0.2,0.7c-0.1,0.5-0.1,0.9,0,1.3c0.1,0.8,0.5,1.5,0.9,2c0.8,1,1.6,1.2,1.6,1.2
					c0.1-0.1-0.6-0.5-1.2-1.5c-0.3-0.5-0.6-1.1-0.6-1.9c0-0.4,0-0.8,0-1.2c0.1-0.4,0.2-0.8,0.4-0.7c0.2,0,0.5,0.3,0.7,0.6
					c0.2,0.4,0.4,0.7,0.5,1.1c0.3,0.7,0.4,1.4,0.4,2C236,481.1,235.8,481.9,235.9,481.9z"/>
			</g>
		</g>
	</g>
	<g>
		<polygon points="255.3,482.2 255.3,486.7 236.3,486.7 236.3,482.6 		"/>
	</g>
	<g>
		<g>
			<g>
				<path class="st61" d="M319.1,144.1L322,155c0,0,1.1,6.1-1.8,6c-2.5,0-2.7-3.2-2.7-3.2s1.2-6.6-2-6.3c-0.5,0.1-1.6,4.6-2.2,6.9
					c-0.2,0.9-0.1,1.7,0.3,2.5l4.7,8.3c0.9,1.5,2.1,2.8,3.7,3.7l2.4,1.3l0.3,4.9l13.2,0.2l-4-15.4l-1.7-9.4
					c-0.4-0.9-1.3-1.6-2.4-1.8l-1.2-0.2l-0.5-1.2c-0.3-0.7-0.9-1.2-1.7-1.3l-0.8-0.1l-1.1-2.7c-0.4-0.9-2.9-6.7-3.9-6.7
					C320.6,140.8,318.4,141.4,319.1,144.1z"/>
			</g>
		</g>
		<g>
			<g>
				<g>
					<path class="st62" d="M328.6,157.3c0,0,0-0.5-0.2-1.2c-0.2-0.7-0.8-1.6-1.8-2.3c-0.6-1.1-0.8-2.1-1-2.9
						c-0.2-0.8-0.2-1.2-0.1-1.2c0,0,0.1,0.5,0.3,1.2c0.2,0.7,0.5,1.8,1,2.8c0.2,0.2,0.4,0.3,0.6,0.5c0.2,0.2,0.4,0.4,0.5,0.6
						c0.3,0.4,0.5,0.9,0.6,1.2c0.1,0.4,0.1,0.7,0.1,0.9C328.6,157.2,328.6,157.3,328.6,157.3z"/>
				</g>
			</g>
		</g>
		<g>
			<g>
				<g>
					<path class="st62" d="M330.6,156.2c0,0,0-0.3-0.2-0.6c-0.2-0.3-0.6-0.7-1.2-0.8l-0.1,0l0-0.1c0-0.1-0.1-0.1-0.1-0.2
						c-0.5-1.3-0.8-2.4-0.8-2.4c0.1,0,0.5,1,1,2.3c0,0.1,0.1,0.1,0.1,0.2l-0.1-0.1c0.7,0.1,1.2,0.6,1.3,1
						C330.7,156,330.6,156.2,330.6,156.2z"/>
				</g>
			</g>
		</g>
	</g>
	<g>
		<g>
			<g>
				<g>
					<g>
						<g>
							<g>
								<g>
									<g>
										<path class="st61" d="M252.8,209.2l24-0.3l-2.7-20.4c0,0,1.6-0.4,1.7-9.2s0.5-24,0.5-24l0,0c-10.3-4.4-22.1-2.9-31,3.9
											l-1.3,1L252.8,209.2z"/>
									</g>
								</g>
							</g>
						</g>
					</g>
				</g>
			</g>
		</g>
		<g>
			<g>
				<g>
					<g>
						<g>
							<g>
								<path class="st61" d="M246.8,171.1c-0.2-0.1-6.1-1.8-5.9,4.3c0.2,6.1,6.2,4.6,6.3,4.4C247.1,179.7,246.8,171.1,246.8,171.1z
									"/>
							</g>
						</g>
					</g>
				</g>
			</g>
		</g>
		<g>
			<g>
				<g>
					<g>
						<g>
							<g>
								<path class="st61" d="M275.3,169.8c0.2-0.1,5.6-1.5,5.4,4.5c-0.2,6.1-6.2,4.6-6.3,4.4C274.4,178.7,275.3,169.8,275.3,169.8z
									"/>
							</g>
						</g>
					</g>
				</g>
			</g>
		</g>
		<g>
			<g>
				<path class="st58" d="M244.8,170.4c0.9,5.1,0.7,7.8,1.6,11.2c1.3,5.4,4,9.5,8.8,12.2c4.8,2.7,11.4,2.6,15.6-1
					c2.9-2.5,4.9-5.4,5.4-9.2c0.4-3.8,0.9-10.6,0.9-14.4c0-6.9,0.5-13.6,0.5-13.6l-19.8-3.6l-11.3,6.7L244.8,170.4z"/>
			</g>
		</g>
		<g>
			<g>
				<g>
					<path class="st58" d="M265.2,196.8c0,0.1-1.5,0.5-3.5,0.3c-1.9-0.2-3.4-0.9-3.3-1.1c0.1-0.2,1.5,0.3,3.4,0.5
						C263.7,196.8,265.2,196.7,265.2,196.8z"/>
				</g>
			</g>
		</g>
		<g>
			<g>
				<path class="st58" d="M245.8,179.1c-0.6-5.2-1-11.2-1.8-16.7c-0.3-2.1-1-5-0.9-7.1c0.2-2.1,0.4-4.2,1.3-6.1
					c1.2-2.4,3.4-4.1,6-4.6c2.6-0.5,5.4,0.2,7.3,2c1.4-2.2,4.3-3.3,6.8-2.7c2.5,0.6,4.6,2.8,4.9,5.4c1.4-1.3,3.7-1.6,5.4-0.6
					c1.7,1,2.5,3.2,2,5.1c1.4,0.2,2.7,1.2,3.3,2.5c0.6,1.3,0.5,2.9-0.3,4.1c-0.9,1.4-2.6,2.2-3.6,3.5c-1.2,1.6-1.3,3.8-0.3,5.5"/>
			</g>
			<g>
				<g>
					<path class="st57" d="M273.3,160.2c0,0,0,0.2-0.2,0.6c-0.2,0.3-0.5,0.8-1.2,1.3c-0.6,0.4-1.5,0.8-2.6,0.8
						c-1.1,0-2.3-0.5-3.2-1.5l0.4-0.1c-0.2,1.3-1.3,2.5-2.6,3c-1.4,0.6-3.1,0.4-4.5-0.6c-1.2-0.8-2.1-2-2.5-3.3l0.5,0.1
						c-1.1,1.6-2.9,2.4-4.5,2.5c-1.6,0-3-0.7-3.8-1.5c-0.8-0.8-1.2-1.7-1.4-2.3c-0.2-0.6-0.1-1-0.1-1c0,0,0.1,0.3,0.3,0.9
						c0.2,0.6,0.6,1.4,1.4,2.1c0.8,0.7,2,1.4,3.5,1.3c1.5-0.1,3.1-0.8,4-2.3l0.3-0.5l0.2,0.5c0.4,1.1,1.2,2.3,2.3,3
						c1.2,0.8,2.7,1,4,0.5c1.2-0.5,2.2-1.5,2.4-2.6l0.1-0.5l0.3,0.4c0.8,0.9,1.9,1.4,2.8,1.4c1,0.1,1.8-0.3,2.4-0.7
						C272.9,161.1,273.2,160.2,273.3,160.2z"/>
				</g>
			</g>
			<g>
				<g>
					<path class="st57" d="M273.2,157.8c-0.1,0,0-1-0.8-2.2c-0.4-0.6-1.1-1.2-2.1-1.4c-0.9-0.2-2.1-0.1-3,0.6l-0.5,0.3l0.1-0.6
						c0-0.6,0-1.2-0.2-1.7c-0.4-1.3-1.4-2.3-2.4-2.8c-1.1-0.5-2.2-0.5-3.1-0.3c-1.8,0.5-2.5,1.5-2.6,1.5c0,0,0.1-0.3,0.5-0.7
						c0.4-0.4,1-0.9,2-1.2c0.9-0.3,2.2-0.4,3.4,0.2c1.2,0.5,2.3,1.7,2.8,3.1c0.2,0.6,0.3,1.3,0.2,2l-0.4-0.2
						c1.1-0.8,2.4-0.9,3.5-0.6c1.1,0.3,1.8,1,2.3,1.7c0.4,0.7,0.6,1.3,0.6,1.7C273.3,157.6,273.3,157.8,273.2,157.8z"/>
				</g>
			</g>
			<g>
				<g>
					<path class="st57" d="M260.6,158c-0.1,0,0-0.3,0-0.8c0-0.5-0.2-1.1-0.6-1.8c-0.4-0.6-0.9-1.3-1.1-1.6c-0.3-0.3-0.6-0.1-0.6-0.1
						c0,0,0-0.1,0.1-0.2c0.1-0.1,0.5-0.1,0.7,0.1c0.3,0.2,0.4,0.4,0.7,0.7c0.2,0.3,0.5,0.6,0.7,0.9c0.4,0.7,0.6,1.5,0.5,2.1
						C260.9,157.8,260.7,158,260.6,158z"/>
				</g>
			</g>
			<g>
				<g>
					<path class="st57" d="M248.9,150.4c-0.1,0,0-0.5,0.4-1.1c0.2-0.3,0.5-0.7,0.9-1c0.4-0.3,1-0.4,1.6-0.4c1.2,0.2,2,1,2.4,1.5
						c0.4,0.6,0.6,0.9,0.6,1c-0.1,0.1-0.4-0.3-0.9-0.7c-0.5-0.5-1.2-1.1-2.2-1.2c-1-0.2-1.7,0.5-2.1,1
						C249.1,150,248.9,150.4,248.9,150.4z"/>
				</g>
			</g>
			<g>
				<g>
					<path class="st57" d="M251.9,176.1c-0.1,0.1-1.3-1.5-2.1-3.9c-0.8-2.3-0.9-4.3-0.7-4.3c0.2,0,0.5,1.9,1.3,4.2
						C251.1,174.3,252.1,176,251.9,176.1z"/>
				</g>
			</g>
			<g>
				<g>
					<path class="st57" d="M254.6,177.6c-0.1,0.1-0.9-1.1-1.5-2.8c-0.6-1.6-0.9-3-0.7-3c0.2,0,0.6,1.3,1.2,2.8
						C254.2,176.2,254.7,177.5,254.6,177.6z"/>
				</g>
			</g>
			<g>
				<g>
					<path class="st57" d="M271.3,178c0.1,0,0.4,2.5-0.7,5.3c-1.1,2.9-2.9,4.6-3,4.5c-0.1-0.1,1.5-1.9,2.5-4.6
						C271.1,180.4,271.1,178,271.3,178z"/>
				</g>
			</g>
			<g>
				<g>
					<path class="st57" d="M273.9,173.6c0.1-0.1,0.9,2.1,0.4,4.8c-0.5,2.7-2,4.5-2.1,4.4c-0.1-0.1,1.1-1.9,1.5-4.5
						C274.3,175.7,273.8,173.6,273.9,173.6z"/>
				</g>
			</g>
		</g>
	</g>
	<g>
		<g>
			<polyline class="st8" points="266.3,340.9 272.1,397.1 276.3,481.7 298.6,481.7 299.2,301.6 235.3,306.2 222,400.7 233.5,483.4 
				258,483.4 252.3,404.7 266.3,340.9 			"/>
		</g>
	</g>
	<g>
		<g>
			<g>
				<path class="st57" d="M266.3,340.9c0.1,0.1-1.8,2-4.3,4.3c-2.5,2.3-4.6,4-4.7,3.9c-0.1-0.1,1.8-2,4.3-4.3
					C264.1,342.5,266.2,340.8,266.3,340.9z"/>
			</g>
		</g>
	</g>
	<g>
		<g>
			<g>
				<path class="st57" d="M266.2,339.8c-0.2,0,0-3.2,0.1-7.2c0.2-4,0.3-7.2,0.4-7.2c0.2,0,0.3,3.2,0.1,7.2
					C266.7,336.6,266.4,339.8,266.2,339.8z"/>
			</g>
		</g>
	</g>
	<g>
		<g>
			<g>
				<path class="st57" d="M273.6,318.8c0,0,0.1,0,0.4,0c0.3,0,0.7,0,1.1-0.1c1-0.1,2.5-0.1,4.2-0.2c3.8-0.2,9-0.4,15.1-0.6l0.3,0
					l0,0.3c0,4.7,0,10.1,0,15.7l0,0.3v0.2l-0.2,0.1c-3.4,1.4-6.7,2.7-9.8,3.9l-0.1,0l-0.1,0c-3.1-1.1-6-2.1-8.7-3l-0.1,0l0-0.1
					c-0.6-4.9-1.2-9-1.5-11.9c-0.2-1.4-0.3-2.5-0.4-3.3C273.6,319.2,273.6,318.8,273.6,318.8c0,0,0,0.1,0.1,0.3
					c0,0.2,0.1,0.5,0.1,0.9c0.1,0.8,0.3,1.9,0.5,3.3c0.4,2.9,1,6.9,1.8,11.7l-0.2-0.2c2.7,0.9,5.6,1.9,8.7,3l-0.2,0
					c3.1-1.3,6.4-2.6,9.8-4l-0.2,0.3v-0.3c0-5.6,0-11,0-15.7l0.3,0.3c-6.1,0.2-11.3,0.3-15,0.4c-1.8,0-3.2,0.1-4.3,0.1
					c-0.5,0-0.8,0-1.2,0C273.7,318.8,273.6,318.8,273.6,318.8z"/>
			</g>
		</g>
	</g>
	<g>
		<g>
			<g>
				<path class="st57" d="M241.4,319.1c0,0,0.1,0,0.3,0c0.3,0,0.6,0,1,0c0.9,0,2.2-0.1,3.8-0.1c3.4-0.1,8.2-0.2,13.8-0.3l0.3,0
					l0,0.3c-0.1,4.7-0.3,10-0.5,15.8l0,0.1l-0.1,0.1c-0.5,0.3-1.1,0.7-1.6,1c-2.8,1.8-5.5,3.6-8.1,5.3l-0.1,0.1l-0.1-0.1
					c-3.3-2-6.4-3.9-9.1-5.6l-0.1-0.1l0-0.1c0.2-4.9,0.3-9,0.4-11.9c0.1-1.4,0.1-2.5,0.1-3.3C241.3,319.5,241.3,319.1,241.4,319.1
					c0,0,0,0.1,0,0.3c0,0.2,0,0.5,0,0.9c0,0.8,0,1.9,0,3.3c0,2.9-0.1,6.9-0.2,11.8l-0.1-0.2c2.8,1.7,5.9,3.5,9.2,5.5l-0.3,0
					c2.6-1.7,5.3-3.5,8.1-5.3c0.5-0.4,1.1-0.7,1.6-1l-0.1,0.2c0.2-5.7,0.4-11.1,0.6-15.8l0.2,0.3c-5.6,0-10.3,0.1-13.7,0.1
					c-1.6,0-2.9,0-3.9,0c-0.4,0-0.8,0-1,0C241.5,319.1,241.4,319.1,241.4,319.1z"/>
			</g>
		</g>
	</g>
	<g>
		<g>
			<g>
				<path class="st57" d="M292.3,344.5c0,0.1-1.2,0-3-0.1c-1.9-0.1-4.4-0.4-7.3-0.8c-2.8-0.4-5.4-0.8-7.2-1.1c-1.8-0.3-3-0.6-3-0.7
					c0-0.1,1.2,0.1,3,0.3c2,0.3,4.5,0.6,7.2,1c2.7,0.3,5.2,0.7,7.2,0.9C291.2,344.3,292.3,344.5,292.3,344.5z"/>
			</g>
		</g>
	</g>
	<g>
		<g>
			<g>
				<path class="st57" d="M291.8,407.2c0,0-0.1,0.3-0.5,0.7c-0.4,0.4-1.2,0.8-2.3,0.8c-1.1,0-2.3-0.4-3.3-1.3c-1.1-0.8-2-1.9-3-3.1
					c-2-2.3-3.5-4.6-4.5-6.4c-1-1.7-1.5-2.9-1.4-2.9c0.1,0,0.7,1,1.7,2.7c1.1,1.7,2.6,3.9,4.6,6.2c1,1.1,1.9,2.2,2.9,3
					c1,0.8,2.1,1.3,3,1.3c1,0,1.7-0.3,2.1-0.6C291.6,407.4,291.8,407.1,291.8,407.2z"/>
			</g>
		</g>
	</g>
	<g>
		<g>
			<g>
				<path class="st57" d="M247.7,409.2c0,0,0,0.3-0.3,0.7c-0.3,0.4-0.8,1-1.5,1.5c-0.8,0.5-1.8,0.8-3.1,0.8c-1.2,0-2.5-0.4-3.7-1.2
					c-2.4-1.5-3.6-3.8-4.4-5.3c-0.8-1.6-1.2-2.6-1.1-2.6c0.1,0,0.6,0.9,1.4,2.4c0.9,1.5,2.2,3.6,4.4,5c1.1,0.7,2.3,1.1,3.4,1.1
					c1.1,0,2.1-0.2,2.9-0.6C247.2,410.2,247.6,409.1,247.7,409.2z"/>
			</g>
		</g>
	</g>
	<g>
		<g>
			<g>
				<path class="st57" d="M249.1,400.7c0,0.1-0.6,0.5-1.8,1.1c-1.2,0.5-3,1-5,1.1c-2,0.1-3.8-0.3-5.1-0.7c-1.2-0.4-1.9-0.9-1.9-0.9
					c0.1-0.2,3,1.2,7,1.1C246.2,402.2,249.1,400.5,249.1,400.7z"/>
			</g>
		</g>
	</g>
	<g>
		<g>
			<path class="st18" d="M320.7,201.8h-31.9c0,0-4.3-2.5-6.4-2.1c-2.1,0.4-3.9,2.7-3.9,2.7l4.2,35.1l10.3-7.6l38.4-4
				c3.3,0,6.5-1.4,8.8-3.8l0,0c2.5-2.6,3.7-6.2,3.2-9.8l-7.1-37.8l-14.6,0.5l-0.6,9.6L320.7,201.8z"/>
		</g>
	</g>
	<g>
		<g>
			<path class="st18" d="M232.9,210.6c0,0-5.2,2.8-7.7,9c-1.9,4.5-14.6,26.8-21.3,38.4c-2.4,4.2-1.8,9.6,1.6,13.1l0,0
				c4.1,4.3,8.9,2.6,14.9,0.7c2.7-0.9,14.6-19.2,14.6-19.2L232.9,210.6z"/>
		</g>
	</g>
	<g>
		<g>
			<polygon class="st18" points="237.8,292.7 230.4,228.5 232.2,211.4 251.2,203.3 275.8,201.7 299.2,204.3 293.7,270.1 
				299.7,307.3 234.1,310.3 			"/>
		</g>
	</g>
	<g>
		<g>
			<g>
				<path class="st58" d="M237.8,292.5c-0.2,0-1.9-14.3-4-31.9c-2.1-17.7-3.6-32-3.4-32c0.2,0,1.9,14.3,4,32
					C236.4,278.1,238,292.5,237.8,292.5z"/>
			</g>
		</g>
	</g>
	<g>
		<g>
			<g>
				<path class="st58" d="M298.7,218.7c0,0,0,0.2,0,0.6c0,0.4-0.1,1-0.1,1.6c-0.2,1.5-0.4,3.6-0.6,6.1c-0.5,5.2-1.2,12.2-2,20
					c-0.7,7.8-1.3,14.9-1.7,20c-0.2,2.5-0.3,4.6-0.4,6.1c-0.1,0.7-0.1,1.2-0.1,1.7c0,0.4-0.1,0.6-0.1,0.6c0,0,0-0.2,0-0.6
					c0-0.4,0-1,0-1.7c0-1.4,0.1-3.5,0.3-6.1c0.3-5.1,0.8-12.2,1.6-20c0.7-7.8,1.5-14.9,2.2-20c0.3-2.6,0.6-4.6,0.8-6
					c0.1-0.7,0.2-1.2,0.3-1.6C298.7,218.9,298.7,218.7,298.7,218.7z"/>
			</g>
		</g>
	</g>
	<g>
		<g>
			<g>
				<path class="st58" d="M287.5,282.6c0,0-0.3,0.5-1,1.3c-0.3,0.4-0.8,0.9-1.3,1.4c-0.5,0.5-1.1,1.1-1.9,1.7
					c-0.7,0.6-1.5,1.3-2.5,1.9c-0.9,0.7-1.9,1.2-3,1.9c-2.2,1.2-4.7,2.3-7.5,3.2c-2.8,0.8-5.5,1.3-8,1.5c-1.3,0.1-2.4,0.1-3.6,0.1
					c-1.1,0-2.1-0.1-3.1-0.2c-0.9-0.1-1.8-0.3-2.5-0.4c-0.7-0.1-1.4-0.3-1.9-0.4c-1-0.3-1.6-0.5-1.6-0.5c0-0.1,2.3,0.6,6,0.9
					c0.9,0.1,2,0.2,3.1,0.1c1.1,0,2.3-0.1,3.5-0.1c2.5-0.2,5.2-0.7,7.9-1.5c2.7-0.8,5.2-1.9,7.4-3.1c1.1-0.6,2.1-1.2,3-1.8
					c0.9-0.6,1.7-1.2,2.5-1.8C285.9,284.4,287.4,282.5,287.5,282.6z"/>
			</g>
		</g>
	</g>
	<g class="st63">
		<g>
			<g>
				<path class="st64" d="M253,292.2c-3.1-0.9-3.3-3.8-2.1-5.1c1.2-1.3,3.2-1.4,4.9-1.2c1.7,0.2,3.4,0.8,5.2,0.7
					c2.9-0.2,5.3-2.2,7.2-4.3c2-2.1,3.9-4.4,6.5-5.6c2.6-1.2,6.2-0.8,7.6,1.7c0.9,1.6,0.6,3.6-0.3,5.2c-0.9,1.6-2.4,2.8-3.9,3.8
					C270.9,292.5,261.6,294.3,253,292.2"/>
			</g>
		</g>
	</g>
	<g>
		<g>
			<g>
				<path class="st58" d="M291.6,203.7c0-0.1,2.5,0.9,4.3,3.4c1.8,2.5,2,5.1,1.9,5.1c-0.2,0-0.6-2.4-2.3-4.8
					C293.7,205,291.5,203.8,291.6,203.7z"/>
			</g>
		</g>
	</g>
	<g>
		<g>
			<path class="st1" d="M289.3,202.9c0,0-0.2-0.2-0.5-0.3c-0.4-0.2-1-0.3-1.8-0.1c-0.8,0.2-1.6,0.6-2.4,1.4
				c-0.8,0.8-1.5,1.9-2.7,2.7c-1.2,0.9-2.7,1.3-4.4,1.4c-1.7,0.1-3.5-0.1-5.3-0.1c-3.7-0.1-7.9-0.1-12.2,0.3
				c-8.6,0.7-16.3,2.7-21.5,4.7c-2.6,1-4.7,2-6.1,2.7c-0.7,0.3-1.2,0.6-1.6,0.8c-0.4,0.2-0.6,0.3-0.6,0.3s0.2-0.1,0.5-0.3
				c0.4-0.2,0.9-0.5,1.6-0.9c1.4-0.7,3.5-1.8,6.1-2.8c5.3-2.1,12.9-4.1,21.6-4.8c4.3-0.4,8.4-0.4,12.2-0.2c1.9,0.1,3.7,0.2,5.3,0.2
				c1.6-0.1,3.2-0.5,4.3-1.3c1.1-0.8,1.9-1.9,2.7-2.7c0.8-0.8,1.7-1.3,2.5-1.4c0.8-0.2,1.4,0,1.8,0.2
				C289.1,202.8,289.3,202.9,289.3,202.9z"/>
		</g>
	</g>
	<g>
		<g>
			<path class="st1" d="M296.7,216.1c0,0-0.2-0.1-0.7-0.1c-0.4-0.1-1.1-0.1-1.9-0.1c-0.8,0.1-1.8,0.3-2.9,0.8
				c-1.1,0.4-2.3,1.1-3.6,1.9c-1.3,0.7-2.8,1.5-4.5,2c-1.7,0.5-3.6,0.8-5.6,0.9c-4,0.2-8.4,0.3-12.9,0.7c-9.2,0.6-17.4,1.7-23.4,2.7
				c-3,0.5-5.4,0.9-7,1.2c-0.8,0.1-1.4,0.3-1.9,0.4c-0.4,0.1-0.7,0.1-0.7,0.1s0.2-0.1,0.7-0.2c0.5-0.1,1.1-0.2,1.9-0.4
				c1.7-0.3,4-0.8,7-1.3c5.9-1,14.2-2.1,23.4-2.8c4.6-0.4,9-0.4,12.9-0.6c2-0.1,3.9-0.4,5.6-0.9c1.7-0.5,3.2-1.2,4.5-1.9
				c1.3-0.7,2.5-1.4,3.6-1.8c1.1-0.4,2.1-0.7,3-0.8c0.8-0.1,1.5,0,1.9,0.1C296.5,216,296.7,216.1,296.7,216.1z"/>
		</g>
	</g>
	<g>
		<g>
			<path class="st1" d="M296.8,234.2c0,0-0.8,0.4-2.4,1c-1.5,0.6-3.8,1.4-6.6,2.2c-5.7,1.6-13.7,3-22.7,3.4c-9,0.4-17.1-0.1-23-0.5
				c-2.9-0.2-5.2-0.4-7-0.5c-0.8-0.1-1.4-0.1-1.9-0.2c-0.4,0-0.7-0.1-0.7-0.1s0.2,0,0.7,0c0.5,0,1.1,0.1,1.9,0.1
				c1.7,0.1,4.1,0.3,7,0.5c5.9,0.4,14,0.8,23,0.5c9-0.4,17-1.7,22.7-3.3c2.8-0.8,5.1-1.6,6.6-2.1c0.8-0.3,1.4-0.5,1.8-0.7
				C296.6,234.3,296.8,234.2,296.8,234.2z"/>
		</g>
	</g>
	<g>
		<g>
			<path class="st1" d="M294.3,255.1c0,0-0.8,0.3-2.2,0.8c-1.4,0.5-3.6,1.1-6.2,1.6c-2.7,0.5-5.9,0.9-9.5,1c-3.6,0.1-7.6,0-11.7-0.2
				c-8.3-0.5-15.8-1.1-21.2-0.9c-2.7,0.1-4.9,0.2-6.4,0.4c-0.8,0.1-1.3,0.2-1.7,0.2c-0.4,0.1-0.6,0.1-0.6,0.1s3.3-0.7,8.8-0.9
				c5.4-0.2,13,0.3,21.2,0.9c4.1,0.2,8.1,0.4,11.7,0.3c3.6-0.1,6.8-0.4,9.5-0.9c2.7-0.5,4.8-1.1,6.2-1.5c0.7-0.2,1.3-0.4,1.7-0.6
				C294.1,255.2,294.3,255.1,294.3,255.1z"/>
		</g>
	</g>
	<g>
		<g>
			<path class="st1" d="M292.3,271.3c0,0-3,1-8,2.1c-2.5,0.6-5.5,1.2-8.8,1.7c-3.3,0.5-7,0.9-10.9,1.2c-3.9,0.2-7.6,0.3-11,0.2
				c-3.4-0.1-6.4-0.3-9-0.6c-5.1-0.5-8.2-1.2-8.2-1.2s0.2,0,0.6,0.1c0.4,0.1,1,0.1,1.6,0.2c1.4,0.2,3.5,0.5,6,0.7
				c2.5,0.3,5.6,0.4,8.9,0.5c3.4,0.1,7.1,0,11-0.2c3.9-0.2,7.6-0.7,10.9-1.1c3.3-0.5,6.3-1.1,8.8-1.6c2.5-0.6,4.5-1,5.9-1.4
				c0.6-0.2,1.2-0.3,1.6-0.4C292.1,271.3,292.3,271.3,292.3,271.3z"/>
		</g>
	</g>
	<g>
		<g>
			<path class="st1" d="M294.6,277.2c0,0-0.2,0.1-0.6,0.2c-0.4,0.2-1,0.3-1.6,0.6c-1.4,0.5-3.4,1.3-5.8,2.4
				c-2.4,1.1-5.3,2.4-8.5,3.7c-3.2,1.3-6.9,2.6-10.9,3.3c-8,1.5-15.4,1.3-20.6,1.1c-2.6-0.1-4.8-0.2-6.3-0.3c-0.7,0-1.3-0.1-1.7-0.1
				c-0.4,0-0.6-0.1-0.6-0.1s0.2,0,0.6,0c0.5,0,1,0,1.7,0.1c1.6,0.1,3.7,0.2,6.3,0.3c5.3,0.1,12.6,0.3,20.6-1.2c4-0.7,7.6-2,10.9-3.3
				c3.2-1.3,6.1-2.6,8.5-3.7c2.4-1.1,4.4-1.8,5.8-2.3C293.8,277.4,294.6,277.2,294.6,277.2z"/>
		</g>
	</g>
	<g>
		<g>
			<path class="st1" d="M297.9,294.8c0,0-0.7,0.5-2.1,1.3c-1.4,0.8-3.5,1.8-6.2,2.8c-5.3,2-13.2,3.6-21.9,3.7
				c-8.7,0.2-16.6-0.5-22.3-0.8c-2.9-0.1-5.2-0.2-6.8-0.3c-0.7,0-1.4,0-1.8,0c-0.4,0-0.6,0-0.6,0s0.2,0,0.6,0c0.5,0,1.1,0,1.8,0
				c1.6,0,3.9,0.1,6.8,0.2c5.7,0.2,13.6,0.9,22.3,0.7c8.7-0.2,16.5-1.6,21.9-3.6c2.7-1,4.8-2,6.2-2.7c0.7-0.4,1.2-0.7,1.6-0.9
				C297.7,294.9,297.9,294.8,297.9,294.8z"/>
		</g>
	</g>
	<g>
		<g>
			<path class="st1" d="M307.8,229.8c0,0,0-0.1,0.1-0.3c0.1-0.2,0.1-0.5,0.2-0.8c0.2-0.7,0.4-1.6,0.7-2.8c0.5-2.4,0.9-5.7,0.9-9.4
				c-0.1-3.7-0.6-7-1.2-9.4c-0.3-1.2-0.5-2.1-0.8-2.8c-0.1-0.3-0.2-0.5-0.2-0.7c0-0.2-0.1-0.3-0.1-0.3c0,0,0,0.1,0.1,0.3
				c0.1,0.2,0.2,0.5,0.3,0.7c0.2,0.6,0.5,1.6,0.8,2.8c0.6,2.4,1.2,5.7,1.3,9.4c0.1,3.7-0.4,7.1-1,9.4c-0.3,1.2-0.5,2.1-0.7,2.8
				c-0.1,0.3-0.2,0.5-0.2,0.7C307.9,229.7,307.8,229.8,307.8,229.8z"/>
		</g>
	</g>
	<g>
		<g>
			<path class="st1" d="M323.6,226c0,0,0-0.1,0-0.2c0-0.2,0-0.4,0-0.7c0-0.6,0.1-1.5,0-2.6c0-2.2-0.3-5.1-1-8.3
				c-0.7-3.2-1.8-6-2.7-8c-0.5-1-0.9-1.8-1.1-2.3c-0.1-0.2-0.2-0.4-0.3-0.6c-0.1-0.1-0.1-0.2-0.1-0.2c0,0,0.1,0.1,0.1,0.2
				c0.1,0.2,0.2,0.4,0.4,0.6c0.3,0.5,0.7,1.3,1.2,2.3c1,1.9,2.1,4.7,2.8,8c0.7,3.2,0.9,6.2,0.9,8.4c0,1.1-0.1,2-0.1,2.6
				c0,0.2,0,0.5-0.1,0.7C323.6,225.9,323.6,226,323.6,226z"/>
		</g>
	</g>
	<g>
		<g>
			<path class="st1" d="M344.9,218.6c0,0-0.1-0.1-0.2-0.2c-0.2-0.2-0.3-0.4-0.5-0.6c-0.5-0.6-1.2-1.3-2-2.3
				c-1.8-1.9-4.4-4.4-7.6-6.7c-3.2-2.3-6.4-4-8.7-5c-1.2-0.5-2.1-0.9-2.8-1.2c-0.3-0.1-0.5-0.2-0.8-0.3c-0.2-0.1-0.3-0.1-0.3-0.1
				c0,0,0.1,0,0.3,0.1c0.2,0.1,0.5,0.2,0.8,0.3c0.7,0.2,1.7,0.6,2.9,1.1c2.4,1,5.6,2.7,8.8,5c3.2,2.3,5.8,4.8,7.6,6.7
				c0.9,1,1.5,1.8,2,2.3c0.2,0.2,0.4,0.5,0.5,0.7C344.8,218.5,344.9,218.5,344.9,218.6z"/>
		</g>
	</g>
	<g>
		<g>
			<path class="st1" d="M340.1,188.4c0,0-0.2,0-0.7,0c-0.6,0-1.2,0-1.8,0c-1.6,0-3.7,0-6.1,0c-2.4,0-4.5,0.1-6.1,0.2
				c-0.7,0-1.3,0.1-1.8,0.1c-0.4,0-0.7,0-0.7,0c0,0,0.2,0,0.7-0.1c0.4,0,1.1-0.1,1.8-0.2c1.6-0.1,3.7-0.2,6.1-0.3
				c2.4,0,4.5,0,6.1,0.1c0.8,0,1.4,0.1,1.8,0.1C339.8,188.3,340.1,188.4,340.1,188.4z"/>
		</g>
	</g>
	<g>
		<g>
			<path class="st1" d="M219.4,230.6c0,0,0.2,0.1,0.4,0.4c0.2,0.3,0.6,0.7,1.1,1.2c0.9,1,2.3,2.2,4,3.3c1.7,1.2,3.3,2.1,4.4,2.7
				c0.5,0.3,0.9,0.5,1.4,0.8c0.3,0.2,0.5,0.3,0.5,0.3c0,0-0.2-0.1-0.5-0.2c-0.3-0.2-0.8-0.4-1.4-0.7c-1.2-0.6-2.8-1.5-4.5-2.7
				c-1.7-1.2-3.1-2.4-4-3.4c-0.5-0.5-0.8-0.9-1-1.2C219.5,230.8,219.4,230.7,219.4,230.6z"/>
		</g>
	</g>
	<g>
		<g>
			<path class="st1" d="M223.9,222.1c0,0,0.2,0.4,0.8,0.9c0.5,0.5,1.3,1.1,2.2,1.7c0.9,0.6,1.7,1.1,2.4,1.4c0.6,0.3,1,0.5,1,0.5
				c0,0.1-1.7-0.6-3.5-1.8c-0.9-0.6-1.7-1.2-2.1-1.8C224.1,222.6,223.9,222.1,223.9,222.1z"/>
		</g>
	</g>
	<g>
		<g>
			<path class="st1" d="M231.5,258.5c0,0-0.1,0-0.2-0.1c-0.2-0.1-0.4-0.2-0.6-0.3c-0.6-0.3-1.4-0.8-2.3-1.4
				c-1.9-1.2-4.4-3.1-6.9-5.5c-2.5-2.4-4.5-4.8-5.8-6.7c-0.6-0.9-1.1-1.7-1.4-2.3c-0.1-0.2-0.2-0.4-0.3-0.6
				c-0.1-0.1-0.1-0.2-0.1-0.2c0,0,0.1,0.1,0.1,0.2c0.1,0.2,0.2,0.4,0.4,0.6c0.3,0.5,0.8,1.3,1.5,2.2c1.3,1.8,3.3,4.2,5.8,6.6
				c2.5,2.4,5,4.3,6.9,5.5c0.9,0.6,1.7,1.1,2.3,1.4c0.2,0.1,0.4,0.3,0.6,0.4C231.4,258.4,231.5,258.5,231.5,258.5z"/>
		</g>
	</g>
	<g>
		<g>
			<path class="st58" d="M201.9,269.5c0,0-0.1-0.4-0.2-1.2c-0.1-0.8-0.2-1.9-0.1-3.4c0.2-2.8,1.1-6.8,3.5-10.5
				c2.3-3.7,4.4-7,5.9-9.3c0.7-1.1,1.3-2,1.9-2.8c0.4-0.7,0.7-1,0.7-1c0,0-0.2,0.4-0.6,1.1c-0.5,0.8-1,1.7-1.7,2.9
				c-1.5,2.4-3.5,5.8-5.8,9.4c-2.4,3.6-3.4,7.4-3.6,10.2C201.8,267.7,202,269.5,201.9,269.5z"/>
		</g>
	</g>
	<g>
		<g>
			<path class="st1" d="M220.5,273.8c0,0-1.4,0.1-3.7-0.5c-2.2-0.6-5.2-2-7.7-4.5c-2.5-2.5-3.9-5.5-4.5-7.7
				c-0.6-2.2-0.5-3.7-0.5-3.7c0,0,0,0.1,0,0.3c0,0.2,0,0.4,0.1,0.7c0.1,0.6,0.2,1.5,0.6,2.6c0.6,2.2,2,5.1,4.5,7.6
				c2.5,2.5,5.4,3.9,7.6,4.5c1.1,0.3,2,0.5,2.6,0.6c0.3,0.1,0.6,0.1,0.7,0.1C220.4,273.7,220.5,273.8,220.5,273.8z"/>
		</g>
	</g>
	<g>
		<g>
			<path class="st1" d="M209.8,237.4c0,0-0.1,0.1-0.2,0.1c-0.2,0.1-0.4,0.2-0.6,0.3c-0.5,0.3-1.2,0.7-2,1.3c-1.6,1.2-3.8,3-5.7,5.4
				c-1.9,2.4-3.2,4.9-4,6.7c-0.4,0.9-0.7,1.7-0.8,2.2c-0.1,0.2-0.1,0.4-0.2,0.6c0,0.1-0.1,0.2-0.1,0.2c0,0,0-0.1,0-0.2
				c0.1-0.2,0.1-0.4,0.2-0.6c0.1-0.5,0.4-1.3,0.8-2.3c0.7-1.9,2-4.4,4-6.8c1.9-2.4,4.1-4.2,5.8-5.4c0.8-0.6,1.5-1,2-1.3
				c0.2-0.1,0.4-0.2,0.6-0.3C209.8,237.4,209.8,237.4,209.8,237.4z"/>
		</g>
	</g>
	<g>
		<g>
			<path class="st1" d="M203.9,229.5c0,0-0.2,0.1-0.6,0.2c-0.4,0.1-1,0.3-1.6,0.6c-1.4,0.6-3.2,1.5-4.9,3c-1.7,1.4-3,3-4,4.1
				c-0.5,0.6-0.8,1.1-1.1,1.4c-0.2,0.3-0.4,0.5-0.4,0.5c0,0,0.1-0.2,0.3-0.6c0.2-0.3,0.6-0.8,1-1.4c0.9-1.2,2.2-2.8,3.9-4.2
				c1.7-1.5,3.6-2.4,5-2.9c0.7-0.3,1.3-0.4,1.7-0.5C203.6,229.6,203.9,229.5,203.9,229.5z"/>
		</g>
	</g>
</g>
</svg>
