<?xml version="1.0" encoding="utf-8"?>
<!-- Generator: Adobe Illustrator 22.0.1, SVG Export Plug-In . SVG Version: 6.00 Build 0)  -->
<svg version="1.1" id="Layer_1" xmlns="http://www.w3.org/2000/svg" xmlns:xlink="http://www.w3.org/1999/xlink" x="0px" y="0px"
	 viewBox="0 0 482.9 303" style="enable-background:new 0 0 482.9 303;" xml:space="preserve">
<style type="text/css">
	.st0{fill:#F5F5F5;}
	.st1{fill:#2DC1FF;}
	.st2{fill:#2DB2FF;}
	.st3{opacity:0.2;fill:url(#SVGID_1_);}
	.st4{fill:#FFFFFF;}
	.st5{opacity:0.2;fill:url(#SVGID_2_);}
	.st6{opacity:0.2;fill:url(#SVGID_3_);}
	.st7{opacity:0.69;fill:#FFFFFF;}
	.st8{opacity:0.2;fill:url(#SVGID_4_);}
	.st9{opacity:0.2;fill:url(#SVGID_5_);}
	.st10{opacity:0.2;fill:url(#SVGID_6_);}
	.st11{opacity:0.2;fill:url(#SVGID_7_);}
	.st12{opacity:0.2;fill:#2DB6FF;}
	.st13{fill:url(#SVGID_8_);}
	.st14{opacity:0.37;fill:#FFFFFF;}
	.st15{fill:url(#SVGID_9_);}
	.st16{fill:url(#SVGID_10_);}
	.st17{fill:url(#SVGID_11_);}
	.st18{fill:url(#SVGID_12_);}
	.st19{fill:url(#SVGID_13_);}
	.st20{fill:url(#SVGID_14_);}
	.st21{fill:url(#SVGID_15_);}
	.st22{fill:url(#SVGID_16_);}
	.st23{fill:url(#SVGID_17_);}
	.st24{fill:url(#SVGID_18_);}
	.st25{fill:url(#SVGID_19_);}
	.st26{fill:url(#SVGID_20_);}
	.st27{fill:url(#SVGID_21_);}
	.st28{fill:url(#SVGID_22_);}
	.st29{fill:url(#SVGID_23_);}
	.st30{fill:url(#SVGID_24_);}
	.st31{fill:url(#SVGID_25_);}
	.st32{fill:#F9F9F9;}
	.st33{fill:url(#SVGID_26_);}
	.st34{fill:url(#SVGID_27_);}
	.st35{fill:url(#SVGID_28_);}
	.st36{fill:url(#SVGID_29_);}
	.st37{fill:url(#SVGID_30_);}
	.st38{fill:url(#SVGID_31_);}
	.st39{fill:url(#SVGID_32_);}
	.st40{fill:url(#SVGID_33_);}
	.st41{fill:url(#SVGID_34_);}
	.st42{fill:url(#SVGID_35_);}
	.st43{fill:url(#SVGID_36_);}
	.st44{fill:url(#SVGID_37_);}
	.st45{fill:url(#SVGID_38_);}
	.st46{fill:url(#SVGID_39_);}
	.st47{fill:url(#SVGID_40_);}
	.st48{fill:url(#SVGID_41_);}
	.st49{fill:url(#SVGID_42_);}
	.st50{fill:#0082CB;}
	.st51{fill:url(#SVGID_43_);}
	.st52{fill:url(#SVGID_44_);}
	.st53{fill:url(#SVGID_45_);}
	.st54{opacity:0.75;fill:#FFFFFF;}
	.st55{fill:url(#SVGID_46_);}
	.st56{fill:url(#SVGID_47_);}
	.st57{fill:url(#SVGID_48_);}
	.st58{opacity:0.75;fill:#F9F9F9;}
	.st59{fill:url(#SVGID_49_);}
	.st60{fill:url(#SVGID_50_);}
	.st61{fill:url(#SVGID_51_);}
	.st62{fill:url(#SVGID_52_);}
	.st63{fill:url(#SVGID_53_);}
	.st64{opacity:0.37;fill:#2DB1FF;}
	.st65{fill:url(#SVGID_54_);}
	.st66{fill:url(#SVGID_55_);}
	.st67{fill:url(#SVGID_56_);}
	.st68{fill:url(#SVGID_57_);}
	.st69{fill:url(#SVGID_58_);}
	.st70{fill:url(#SVGID_59_);}
	.st71{fill:url(#SVGID_60_);}
	.st72{fill:url(#SVGID_61_);}
	.st73{fill:url(#SVGID_62_);}
	.st74{fill:#2DB1FF;}
	.st75{fill:url(#SVGID_63_);}
	.st76{fill:url(#SVGID_64_);}
	.st77{fill:url(#SVGID_65_);}
	.st78{fill:url(#SVGID_66_);}
	.st79{fill:url(#SVGID_67_);}
	.st80{fill:url(#SVGID_68_);}
	.st81{fill:url(#SVGID_69_);}
	.st82{fill:url(#SVGID_70_);}
	.st83{fill:url(#SVGID_71_);}
	.st84{fill:url(#SVGID_72_);}
	.st85{fill:url(#SVGID_73_);}
	.st86{fill:url(#SVGID_74_);}
	.st87{fill:url(#SVGID_75_);}
	.st88{fill:url(#SVGID_76_);}
	.st89{fill:url(#SVGID_77_);}
	.st90{fill:url(#SVGID_78_);}
	.st91{fill:url(#SVGID_79_);}
	.st92{fill:url(#SVGID_80_);}
	.st93{fill:url(#SVGID_81_);}
	.st94{fill:url(#SVGID_82_);}
	.st95{fill:url(#SVGID_83_);}
	.st96{fill:url(#SVGID_84_);}
	.st97{opacity:0.2;fill:url(#SVGID_85_);}
	.st98{opacity:0.2;fill:url(#SVGID_86_);}
	.st99{opacity:0.2;fill:url(#SVGID_87_);}
	.st100{opacity:0.2;fill:url(#SVGID_88_);}
	.st101{opacity:0.2;fill:url(#SVGID_89_);}
	.st102{opacity:0.2;fill:url(#SVGID_90_);}
	.st103{opacity:0.2;fill:url(#SVGID_91_);}
	.st104{fill:url(#SVGID_92_);}
	.st105{fill:url(#SVGID_93_);}
	.st106{fill:url(#SVGID_94_);}
	.st107{fill:url(#SVGID_95_);}
	.st108{fill:url(#SVGID_96_);}
	.st109{fill:url(#SVGID_97_);}
	.st110{fill:url(#SVGID_98_);}
	.st111{fill:url(#SVGID_99_);}
	.st112{fill:url(#SVGID_100_);}
	.st113{fill:url(#SVGID_101_);}
	.st114{fill:url(#SVGID_102_);}
	.st115{fill:url(#SVGID_103_);}
	.st116{fill:url(#SVGID_104_);}
	.st117{fill:url(#SVGID_105_);}
	.st118{fill:url(#SVGID_106_);}
	.st119{fill:url(#SVGID_107_);}
	.st120{fill:url(#SVGID_108_);}
	.st121{fill:url(#SVGID_109_);}
	.st122{fill:url(#SVGID_110_);}
	.st123{fill:url(#SVGID_111_);}
	.st124{fill:url(#SVGID_112_);}
	.st125{fill:url(#SVGID_113_);}
	.st126{fill:url(#SVGID_114_);}
	.st127{fill:url(#SVGID_115_);}
	.st128{fill:url(#SVGID_116_);}
	.st129{fill:url(#SVGID_117_);}
	.st130{fill:url(#SVGID_118_);}
	.st131{fill:url(#SVGID_119_);}
	.st132{fill:url(#SVGID_120_);}
	.st133{fill:url(#SVGID_121_);}
	.st134{fill:url(#SVGID_122_);}
	.st135{opacity:0.65;fill:#FFFFFF;}
	.st136{fill:url(#SVGID_123_);}
	.st137{fill:url(#SVGID_124_);}
	.st138{fill:url(#SVGID_125_);}
	.st139{fill:url(#SVGID_126_);}
	.st140{fill:url(#SVGID_127_);}
	.st141{fill:url(#SVGID_128_);}
	.st142{fill:url(#SVGID_129_);}
	.st143{fill:url(#SVGID_130_);}
	.st144{clip-path:url(#SVGID_132_);}
	.st145{fill:url(#SVGID_133_);}
	.st146{clip-path:url(#SVGID_135_);}
	.st147{fill:url(#SVGID_136_);}
	.st148{clip-path:url(#SVGID_138_);}
	.st149{fill:url(#SVGID_139_);}
	.st150{opacity:0.6;fill:#2DB1FF;}
	.st151{fill:url(#SVGID_140_);}
	.st152{opacity:0.6;fill:#FFFFFF;}
	.st153{opacity:0.61;fill:#FFFFFF;}
	.st154{opacity:0.73;fill:#FFFFFF;}
	.st155{fill:url(#SVGID_141_);}
	.st156{fill:url(#SVGID_142_);}
	.st157{fill:url(#SVGID_143_);}
	.st158{fill:url(#SVGID_144_);}
	.st159{fill:url(#SVGID_145_);}
	.st160{fill:url(#SVGID_146_);}
	.st161{fill:url(#SVGID_147_);}
	.st162{fill:url(#SVGID_148_);}
	.st163{fill:url(#SVGID_149_);}
	.st164{fill:url(#SVGID_150_);}
	.st165{fill:url(#SVGID_151_);}
	.st166{fill:url(#SVGID_152_);}
	.st167{fill:url(#SVGID_153_);}
	.st168{fill:url(#SVGID_154_);}
	.st169{fill:url(#SVGID_155_);}
	.st170{fill:url(#SVGID_156_);}
	.st171{fill:url(#SVGID_157_);}
	.st172{fill:url(#SVGID_158_);}
	.st173{fill:url(#SVGID_159_);}
	.st174{fill:url(#SVGID_160_);}
	.st175{fill:url(#SVGID_161_);}
	.st176{fill:url(#SVGID_162_);}
	.st177{fill:url(#SVGID_163_);}
	.st178{fill:url(#SVGID_164_);}
	.st179{fill:url(#SVGID_165_);}
	.st180{opacity:0.2;fill:url(#SVGID_166_);}
	.st181{opacity:0.2;fill:url(#SVGID_167_);}
	.st182{opacity:0.2;fill:url(#SVGID_168_);}
	.st183{opacity:0.2;fill:url(#SVGID_169_);}
	.st184{opacity:0.2;fill:url(#SVGID_170_);}
	.st185{opacity:0.2;fill:url(#SVGID_171_);}
	.st186{opacity:0.2;fill:url(#SVGID_172_);}
	.st187{fill:url(#SVGID_173_);}
	.st188{opacity:0.2;fill:url(#SVGID_174_);}
	.st189{opacity:0.2;fill:url(#SVGID_175_);}
	.st190{opacity:0.2;fill:url(#SVGID_176_);}
	.st191{opacity:0.2;fill:url(#SVGID_177_);}
	.st192{opacity:0.2;fill:url(#SVGID_178_);}
	.st193{opacity:0.2;fill:url(#SVGID_179_);}
	.st194{opacity:0.2;fill:url(#SVGID_180_);}
	.st195{fill:url(#SVGID_181_);}
	.st196{fill:url(#SVGID_182_);}
	.st197{fill:url(#SVGID_183_);}
	.st198{fill:url(#SVGID_184_);}
	.st199{fill:url(#SVGID_185_);}
	.st200{fill:url(#SVGID_186_);}
	.st201{fill:url(#SVGID_187_);}
	.st202{fill:url(#SVGID_188_);}
	.st203{fill:url(#SVGID_189_);}
	.st204{fill:url(#SVGID_190_);}
	.st205{fill:url(#SVGID_191_);}
	.st206{fill:url(#SVGID_192_);}
	.st207{fill:url(#SVGID_193_);}
	.st208{fill:url(#SVGID_194_);}
	.st209{fill:url(#SVGID_195_);}
	.st210{fill:url(#SVGID_196_);}
	.st211{fill:url(#SVGID_197_);}
	.st212{fill:url(#SVGID_198_);}
	.st213{fill:url(#SVGID_199_);}
	.st214{fill:url(#SVGID_200_);}
	.st215{fill:url(#SVGID_201_);}
	.st216{fill:url(#SVGID_202_);}
	.st217{fill:url(#SVGID_203_);}
	.st218{fill:url(#SVGID_204_);}
	.st219{fill:url(#SVGID_205_);}
	.st220{fill:url(#SVGID_206_);}
	.st221{fill:url(#SVGID_207_);}
	.st222{fill:url(#SVGID_208_);}
	.st223{fill:url(#SVGID_209_);}
	.st224{fill:url(#SVGID_210_);}
	.st225{fill:url(#SVGID_211_);}
	.st226{fill:url(#SVGID_212_);}
	.st227{fill:url(#SVGID_213_);}
	.st228{fill:url(#SVGID_214_);}
	.st229{fill:url(#SVGID_215_);}
	.st230{fill:url(#SVGID_216_);}
	.st231{fill:#F7A26F;}
	.st232{fill:url(#SVGID_217_);}
	.st233{opacity:0.23;fill:#FFFFFF;}
	.st234{fill:url(#SVGID_218_);}
	.st235{fill:url(#SVGID_219_);}
	.st236{fill:url(#SVGID_220_);}
	.st237{fill:url(#SVGID_221_);}
	.st238{fill:url(#SVGID_222_);}
	.st239{fill:url(#SVGID_223_);}
	.st240{fill:url(#SVGID_224_);}
	.st241{fill:url(#SVGID_225_);}
	.st242{fill:url(#SVGID_226_);}
	.st243{fill:url(#SVGID_227_);}
	.st244{fill:url(#SVGID_228_);}
	.st245{fill:url(#SVGID_229_);}
	.st246{fill:url(#SVGID_230_);}
	.st247{fill:url(#SVGID_231_);}
	.st248{fill:url(#SVGID_232_);}
	.st249{fill:url(#SVGID_233_);}
	.st250{fill:url(#SVGID_234_);}
	.st251{fill:url(#SVGID_235_);}
	.st252{fill:url(#SVGID_236_);}
	.st253{fill:url(#SVGID_237_);}
	.st254{fill:url(#SVGID_238_);}
	.st255{fill:url(#SVGID_239_);}
	.st256{fill:url(#SVGID_240_);}
	.st257{fill:url(#SVGID_241_);}
	.st258{fill:url(#SVGID_242_);}
	.st259{fill:url(#SVGID_243_);}
	.st260{fill:url(#SVGID_244_);}
	.st261{fill:url(#SVGID_245_);}
	.st262{fill:url(#SVGID_246_);}
	.st263{fill:url(#SVGID_247_);}
	.st264{fill:url(#SVGID_248_);}
	.st265{fill:url(#SVGID_249_);}
	.st266{fill:url(#SVGID_250_);}
	.st267{fill:url(#SVGID_251_);}
	.st268{fill:url(#SVGID_252_);}
	.st269{fill:#3F67F9;}
	.st270{fill:url(#SVGID_253_);}
	.st271{fill:#F8AB72;}
	.st272{opacity:0.2;fill:url(#SVGID_254_);}
	.st273{opacity:0.2;fill:url(#SVGID_255_);}
	.st274{opacity:0.2;fill:url(#SVGID_256_);}
	.st275{opacity:0.2;fill:url(#SVGID_257_);}
	.st276{opacity:0.2;fill:url(#SVGID_258_);}
	.st277{opacity:0.2;fill:url(#SVGID_259_);}
	.st278{opacity:0.2;fill:url(#SVGID_260_);}
	.st279{fill:url(#SVGID_261_);}
	.st280{fill:url(#SVGID_262_);}
	.st281{opacity:0.5;fill:#3F67F9;}
	.st282{fill:url(#SVGID_263_);}
	.st283{fill:url(#SVGID_264_);}
	.st284{fill:url(#SVGID_265_);}
	.st285{fill:url(#SVGID_266_);}
	.st286{fill:url(#SVGID_267_);}
	.st287{fill:url(#SVGID_268_);}
	.st288{fill:url(#SVGID_269_);}
	.st289{fill:url(#SVGID_270_);}
	.st290{fill:url(#SVGID_271_);}
	.st291{fill:url(#SVGID_272_);}
	.st292{fill:url(#SVGID_273_);}
	.st293{fill:url(#SVGID_274_);}
	.st294{fill:url(#SVGID_275_);}
	.st295{fill:url(#SVGID_276_);}
	.st296{opacity:0.37;}
	.st297{clip-path:url(#SVGID_278_);fill:#2DB1FF;}
	.st298{clip-path:url(#SVGID_280_);fill:#2DB1FF;}
	.st299{clip-path:url(#SVGID_282_);fill:#2DB1FF;}
	.st300{clip-path:url(#SVGID_284_);fill:#2DB1FF;}
	.st301{clip-path:url(#SVGID_286_);fill:#2DB1FF;}
	.st302{clip-path:url(#SVGID_288_);fill:#2DB1FF;}
	.st303{clip-path:url(#SVGID_290_);fill:#2DB1FF;}
	.st304{clip-path:url(#SVGID_292_);fill:#2DB1FF;}
	.st305{clip-path:url(#SVGID_294_);fill:#2DB1FF;}
	.st306{clip-path:url(#SVGID_296_);fill:#2DB1FF;}
	.st307{clip-path:url(#SVGID_298_);fill:#2DB1FF;}
	.st308{clip-path:url(#SVGID_300_);fill:#2DB1FF;}
	.st309{clip-path:url(#SVGID_302_);fill:#2DB1FF;}
	.st310{clip-path:url(#SVGID_304_);fill:#2DB1FF;}
	.st311{clip-path:url(#SVGID_306_);fill:#2DB1FF;}
	.st312{clip-path:url(#SVGID_308_);fill:#2DB1FF;}
	.st313{clip-path:url(#SVGID_310_);fill:#2DB1FF;}
	.st314{clip-path:url(#SVGID_312_);fill:#2DB1FF;}
	.st315{clip-path:url(#SVGID_314_);fill:#2DB1FF;}
	.st316{clip-path:url(#SVGID_316_);fill:#2DB1FF;}
	.st317{clip-path:url(#SVGID_318_);fill:#2DB1FF;}
	.st318{clip-path:url(#SVGID_320_);fill:#2DB1FF;}
	.st319{clip-path:url(#SVGID_322_);fill:#2DB1FF;}
	.st320{clip-path:url(#SVGID_324_);fill:#2DB1FF;}
	.st321{clip-path:url(#SVGID_326_);fill:#2DB1FF;}
	.st322{clip-path:url(#SVGID_328_);fill:#2DB1FF;}
	.st323{fill:url(#SVGID_329_);}
	.st324{fill:url(#SVGID_330_);}
	.st325{fill:url(#SVGID_331_);}
	.st326{fill:url(#SVGID_332_);}
	.st327{fill:url(#SVGID_333_);}
	.st328{fill:url(#SVGID_334_);}
	.st329{fill:url(#SVGID_335_);}
	.st330{fill:url(#SVGID_336_);}
	.st331{fill:url(#SVGID_337_);}
	.st332{fill:url(#SVGID_338_);}
	.st333{fill:url(#SVGID_339_);}
	.st334{fill:url(#SVGID_340_);}
	.st335{fill:url(#SVGID_341_);}
	.st336{fill:url(#SVGID_342_);}
	.st337{fill:url(#SVGID_343_);}
	.st338{fill:url(#SVGID_344_);}
	.st339{fill:url(#SVGID_345_);}
	.st340{fill:url(#SVGID_346_);}
	.st341{fill:url(#SVGID_347_);}
	.st342{fill:url(#SVGID_348_);}
	.st343{fill:url(#SVGID_349_);}
	.st344{fill:url(#SVGID_350_);}
	.st345{fill:url(#SVGID_351_);}
	.st346{fill:url(#SVGID_352_);}
	.st347{fill:url(#SVGID_353_);}
	.st348{fill:url(#SVGID_354_);}
	.st349{fill:url(#SVGID_355_);}
	.st350{fill:url(#SVGID_356_);}
	.st351{fill:url(#SVGID_357_);}
	.st352{fill:url(#SVGID_358_);}
	.st353{fill:url(#SVGID_359_);}
	.st354{fill:url(#SVGID_360_);}
	.st355{fill:url(#SVGID_361_);}
	.st356{fill:url(#SVGID_362_);}
	.st357{fill:url(#SVGID_363_);}
	.st358{fill:url(#SVGID_364_);}
	.st359{fill:url(#SVGID_365_);}
	.st360{fill:url(#SVGID_366_);}
	.st361{fill:url(#SVGID_367_);}
	.st362{fill:url(#SVGID_368_);}
	.st363{fill:url(#SVGID_369_);}
	.st364{fill:url(#SVGID_370_);}
	.st365{fill:url(#SVGID_371_);}
	.st366{fill:url(#SVGID_372_);}
	.st367{fill:url(#SVGID_373_);}
	.st368{opacity:0.2;fill:url(#SVGID_374_);}
	.st369{opacity:0.2;fill:url(#SVGID_375_);}
	.st370{opacity:0.2;fill:url(#SVGID_376_);}
	.st371{opacity:0.2;fill:url(#SVGID_377_);}
	.st372{opacity:0.2;fill:url(#SVGID_378_);}
	.st373{opacity:0.2;fill:url(#SVGID_379_);}
	.st374{opacity:0.2;fill:url(#SVGID_380_);}
	.st375{fill:url(#SVGID_381_);}
	.st376{fill:#007CFF;}
	.st377{fill:url(#SVGID_382_);}
	.st378{opacity:0.2;fill:#007CFF;}
	.st379{opacity:0.1;fill:#007CFF;}
	.st380{opacity:0.2;fill:#FFFFFF;}
	.st381{opacity:0.4;fill:#C5E3FC;}
	.st382{opacity:0.8;fill:#FFFFFF;}
	.st383{opacity:0.4;fill:#FFFFFF;}
	.st384{fill:#1A2E35;}
	.st385{opacity:0.6;fill:#007CFF;}
	.st386{opacity:0.5;fill:#FFFFFF;}
	.st387{fill:url(#SVGID_383_);}
	.st388{fill:url(#SVGID_384_);}
	.st389{fill:url(#SVGID_385_);}
	.st390{fill:url(#SVGID_386_);}
	.st391{fill:url(#SVGID_387_);}
	.st392{fill:url(#SVGID_388_);}
	.st393{fill:url(#SVGID_389_);}
	.st394{fill:url(#SVGID_390_);}
	.st395{fill:url(#SVGID_391_);}
	.st396{opacity:0.2;fill:url(#SVGID_392_);}
	.st397{opacity:0.2;fill:url(#SVGID_393_);}
	.st398{opacity:0.2;fill:url(#SVGID_394_);}
	.st399{opacity:0.2;fill:url(#SVGID_395_);}
	.st400{opacity:0.2;fill:url(#SVGID_396_);}
	.st401{opacity:0.2;fill:url(#SVGID_397_);}
	.st402{opacity:0.2;fill:url(#SVGID_398_);}
	.st403{fill:url(#SVGID_399_);}
	.st404{fill:url(#SVGID_400_);}
	.st405{opacity:0.37;fill:#E5E5E5;}
	.st406{opacity:0.64;}
	.st407{fill:url(#SVGID_401_);}
	.st408{fill:url(#SVGID_402_);}
	.st409{opacity:0.56;fill:#FFFFFF;}
	.st410{fill:url(#SVGID_403_);}
	.st411{fill:url(#SVGID_404_);}
	.st412{fill:url(#SVGID_405_);}
	.st413{fill:url(#SVGID_406_);}
	.st414{fill:url(#SVGID_407_);}
	.st415{fill:url(#SVGID_408_);}
	.st416{fill:url(#SVGID_409_);}
	.st417{fill:url(#SVGID_410_);}
	.st418{fill:url(#SVGID_411_);}
	.st419{fill:url(#SVGID_412_);}
	.st420{fill:url(#SVGID_413_);}
	.st421{fill:url(#SVGID_414_);}
	.st422{fill:url(#SVGID_415_);}
	.st423{fill:url(#SVGID_416_);}
	.st424{fill:url(#SVGID_417_);}
	.st425{fill:url(#SVGID_418_);}
	.st426{fill:url(#SVGID_419_);}
	.st427{fill:url(#SVGID_420_);}
	.st428{fill:url(#SVGID_421_);}
	.st429{fill:url(#SVGID_422_);}
	.st430{fill:url(#SVGID_423_);}
	.st431{fill:url(#SVGID_424_);}
	.st432{fill:url(#SVGID_425_);}
	.st433{fill:url(#SVGID_426_);}
	.st434{fill:url(#SVGID_427_);}
	.st435{fill:url(#SVGID_428_);}
	.st436{fill:url(#SVGID_429_);}
	.st437{fill:url(#SVGID_430_);}
	.st438{fill:url(#SVGID_431_);}
	.st439{fill:url(#SVGID_432_);}
	.st440{fill:url(#SVGID_433_);}
	.st441{fill:url(#SVGID_434_);}
	.st442{fill:url(#SVGID_435_);}
	.st443{fill:url(#SVGID_436_);}
	.st444{fill:url(#SVGID_437_);}
	.st445{fill:url(#SVGID_438_);}
	.st446{fill:url(#SVGID_439_);}
	.st447{fill:url(#SVGID_440_);}
	.st448{fill:url(#SVGID_441_);}
	.st449{fill:url(#SVGID_442_);}
	.st450{fill:url(#SVGID_443_);}
	.st451{fill:url(#SVGID_444_);}
	.st452{fill:url(#SVGID_445_);}
	.st453{fill:url(#SVGID_446_);}
	.st454{fill:url(#SVGID_447_);}
	.st455{fill:url(#SVGID_448_);}
	.st456{fill:url(#SVGID_449_);}
	.st457{fill:url(#SVGID_450_);}
	.st458{fill:url(#SVGID_451_);}
	.st459{fill:url(#SVGID_452_);}
	.st460{fill:url(#SVGID_453_);}
	.st461{fill:url(#SVGID_454_);}
	.st462{fill:url(#SVGID_455_);}
	.st463{fill:url(#SVGID_456_);}
	.st464{fill:url(#SVGID_457_);}
	.st465{fill:url(#SVGID_458_);}
	.st466{fill:url(#SVGID_459_);}
	.st467{fill:url(#SVGID_460_);}
	.st468{fill:url(#SVGID_461_);}
	.st469{fill:url(#SVGID_462_);}
	.st470{fill:#A65958;}
	.st471{fill:#D268CC;}
	.st472{opacity:0.2;}
	.st473{fill:#455A64;}
	.st474{fill:#FAFAFA;}
	.st475{fill:#2B454E;}
	.st476{fill:#803535;}
	.st477{fill:#182E36;}
	.st478{opacity:0.4;}
	.st479{opacity:0.3;}
	.st480{fill:url(#SVGID_463_);}
	.st481{fill:#CDEBF7;}
	.st482{fill:#2A464E;}
	.st483{fill:url(#SVGID_464_);}
	.st484{fill:url(#SVGID_465_);}
	.st485{fill:#E1E1E1;}
	.st486{fill:#DFDFDF;}
	.st487{opacity:0.6;fill:#CDE8F7;}
	.st488{fill:#179AE6;}
	.st489{fill:#28ACF9;}
	.st490{opacity:0.3;fill:#0082CB;}
	.st491{opacity:0.5;fill:#2DB1FF;}
	.st492{opacity:0.3;fill:#2DB1FF;}
	.st493{opacity:0.2;fill:#2DB1FF;}
	.st494{fill:url(#SVGID_466_);}
	.st495{fill:none;stroke:#0082CB;stroke-miterlimit:10;}
	.st496{fill:url(#SVGID_467_);}
	.st497{fill:url(#SVGID_468_);}
	.st498{fill:url(#SVGID_469_);}
	.st499{fill:url(#SVGID_470_);}
	.st500{fill:url(#SVGID_471_);}
	.st501{fill:url(#SVGID_472_);}
	.st502{fill:url(#SVGID_473_);}
	.st503{fill:url(#SVGID_474_);}
	.st504{fill:url(#SVGID_475_);}
	.st505{fill:url(#SVGID_476_);}
	.st506{fill:url(#SVGID_477_);}
	.st507{fill:url(#SVGID_478_);}
	.st508{fill:url(#SVGID_479_);}
	.st509{fill:url(#SVGID_480_);}
	.st510{fill:url(#SVGID_481_);}
	.st511{fill:url(#SVGID_482_);}
	.st512{fill:url(#SVGID_483_);}
	.st513{fill:url(#SVGID_484_);}
	.st514{fill:url(#SVGID_485_);}
</style>
<path class="st0" d="M129.3,288.8c0,0-40.8-5.4-60.2-1.2c-19.4,4.2-67.4-18.7-51.5-54.6s33.9-58.2,13.1-77.9S3.4,98,24.9,77
	c21.5-21,27.9,0.6,45-7.1c17.1-7.7-4.6-48.2,43.7-59.6s85.8,23.1,107.8,19.2c22-3.9,55.7-27.8,79.4-26.8c23.7,1,20.8,36.2,52.2,34.1
	s56.1-5.6,76.5,24.3c20.4,29.9,15.5,67.9-4,82.9c-19.4,15-15.6,35.2,20.2,36.3c35.8,1.2,31.8,43,2.6,73.9
	c-29.2,30.9-54.3,31.2-83.5,33.3C335.6,289.6,129.3,288.8,129.3,288.8z"/>
<g>
	<path class="st1" d="M186.4,48.3c-0.1,0-0.1-0.1-0.1-0.2c0-0.3-0.1-0.6-0.1-0.9c0-0.1,0.1-0.2,0.2-0.3c0.1,0,0.2,0.1,0.3,0.2
		c0,0.3,0.1,0.6,0.1,0.9c0,0.1-0.1,0.2-0.2,0.3C186.4,48.3,186.4,48.3,186.4,48.3z"/>
	<path class="st1" d="M186.1,44.4c-0.1,0-0.1-0.1-0.1-0.2c0-0.6,0-1.2,0.1-1.9c0-0.1,0.1-0.2,0.2-0.2c0.1,0,0.2,0.1,0.2,0.2
		c0,0.6-0.1,1.2-0.1,1.8C186.4,44.3,186.3,44.4,186.1,44.4C186.1,44.4,186.1,44.4,186.1,44.4z M186.6,39.6c-0.1,0-0.2-0.1-0.1-0.3
		c0.1-0.6,0.3-1.2,0.5-1.8c0-0.1,0.2-0.2,0.3-0.2c0.1,0,0.2,0.2,0.2,0.3c-0.2,0.6-0.3,1.2-0.4,1.8C186.8,39.5,186.7,39.6,186.6,39.6
		C186.6,39.6,186.6,39.6,186.6,39.6z M188,34.9C188,34.9,188,34.9,188,34.9c-0.1-0.1-0.2-0.2-0.1-0.3c0.2-0.6,0.5-1.1,0.8-1.7
		c0.1-0.1,0.2-0.2,0.3-0.1c0.1,0.1,0.2,0.2,0.1,0.3c-0.3,0.5-0.6,1.1-0.8,1.7C188.3,34.9,188.1,35,188,34.9z M190.4,30.7
		C190.4,30.7,190.4,30.7,190.4,30.7c-0.1-0.1-0.2-0.2-0.1-0.3c0.4-0.5,0.7-1,1.1-1.5c0.1-0.1,0.2-0.1,0.3,0c0.1,0.1,0.1,0.2,0,0.3
		c-0.4,0.5-0.8,1-1.1,1.5C190.6,30.7,190.5,30.7,190.4,30.7z M193.6,27.1C193.6,27,193.6,27,193.6,27.1c-0.2-0.1-0.2-0.3-0.1-0.4
		c0.5-0.4,0.9-0.8,1.4-1.2c0.1-0.1,0.2-0.1,0.3,0c0.1,0.1,0.1,0.2,0,0.3c-0.5,0.4-0.9,0.8-1.4,1.2C193.8,27.1,193.7,27.1,193.6,27.1
		z M197.5,24.1c0,0-0.1,0-0.1-0.1c-0.1-0.1,0-0.2,0.1-0.3c0.5-0.3,1.1-0.6,1.6-0.9c0.1-0.1,0.2,0,0.3,0.1c0.1,0.1,0,0.2-0.1,0.3
		c-0.5,0.3-1.1,0.6-1.6,0.9C197.6,24.2,197.6,24.2,197.5,24.1z M201.9,22.1c-0.1,0-0.1-0.1-0.1-0.1c0-0.1,0-0.2,0.1-0.3
		c0.6-0.2,1.2-0.4,1.8-0.6c0.1,0,0.2,0,0.3,0.2c0,0.1,0,0.2-0.2,0.3c-0.6,0.2-1.2,0.3-1.8,0.5C202,22.1,201.9,22.1,201.9,22.1z
		 M206.6,20.9c-0.1,0-0.1-0.1-0.1-0.2c0-0.1,0.1-0.2,0.2-0.3c0.6-0.1,1.2-0.1,1.9-0.2c0.1,0,0.2,0.1,0.2,0.2c0,0.1-0.1,0.2-0.2,0.2
		c-0.6,0-1.2,0.1-1.8,0.2C206.7,21,206.6,20.9,206.6,20.9z M211.4,20.8c-0.1,0-0.1-0.1-0.1-0.2c0-0.1,0.1-0.2,0.2-0.2
		c0.6,0,1.2,0.1,1.9,0.2c0.1,0,0.2,0.1,0.2,0.3c0,0.1-0.1,0.2-0.3,0.2C212.7,20.9,212.1,20.9,211.4,20.8
		C211.5,20.8,211.5,20.8,211.4,20.8z M222.3,24.4C222.3,24.4,222.3,24.4,222.3,24.4c-0.6-0.3-1.1-0.7-1.6-0.9
		c-0.1-0.1-0.2-0.2-0.1-0.3c0.1-0.1,0.2-0.2,0.3-0.1c0.5,0.3,1.1,0.6,1.6,0.9c0.1,0.1,0.1,0.2,0.1,0.3
		C222.6,24.4,222.4,24.4,222.3,24.4z M216.2,21.6c-0.1,0-0.2-0.2-0.1-0.3c0-0.1,0.2-0.2,0.3-0.2c0.6,0.2,1.2,0.4,1.8,0.6
		c0,0,0,0,0,0c0.1,0,0.2,0.2,0.1,0.3c0,0.1-0.2,0.2-0.3,0.1C217.4,22,216.8,21.8,216.2,21.6C216.2,21.6,216.2,21.6,216.2,21.6z"/>
	<path class="st1" d="M225.5,26.7C225.4,26.7,225.4,26.7,225.5,26.7c-0.3-0.2-0.5-0.4-0.7-0.6c-0.1-0.1-0.1-0.2,0-0.3
		c0.1-0.1,0.2-0.1,0.3,0c0.2,0.2,0.5,0.4,0.7,0.6c0.1,0.1,0.1,0.2,0,0.3C225.7,26.7,225.6,26.8,225.5,26.7z"/>
</g>
<g>
	<path class="st2" d="M233.4,43.4c-0.1,0-0.1-0.1-0.1-0.2c0-0.3,0-0.6-0.1-0.9c0-0.1,0.1-0.2,0.2-0.2c0.1,0,0.2,0.1,0.2,0.2
		c0,0.3,0,0.6,0.1,0.9C233.7,43.3,233.6,43.4,233.4,43.4C233.4,43.4,233.4,43.4,233.4,43.4z"/>
	<path class="st2" d="M200.9,66.4c-0.2-0.1-0.4-0.1-0.5-0.2c-0.1,0-0.2-0.2-0.1-0.3c0-0.1,0.2-0.2,0.3-0.1c0,0,0,0,0,0
		c0.5,0.2,1.1,0.5,1.7,0.6c0.1,0,0.2,0.2,0.1,0.3c0,0.1-0.2,0.2-0.3,0.1C201.6,66.7,201.2,66.5,200.9,66.4z M197.7,64.8
		C197.7,64.8,197.7,64.8,197.7,64.8c-0.6-0.3-1.1-0.7-1.6-1c-0.1-0.1-0.1-0.2-0.1-0.3c0.1-0.1,0.2-0.1,0.3-0.1c0.5,0.3,1,0.7,1.5,1
		c0.1,0.1,0.1,0.2,0.1,0.3C197.9,64.8,197.8,64.8,197.7,64.8z M204.9,67.6c-0.1,0-0.2-0.1-0.1-0.3c0-0.1,0.1-0.2,0.3-0.2
		c0.1,0,0.2,0.1,0.4,0.1c0.5,0.1,0.9,0.2,1.4,0.2c0.1,0,0.2,0.1,0.2,0.3c0,0.1-0.1,0.2-0.3,0.2c-0.5-0.1-1-0.1-1.4-0.2
		C205.2,67.6,205,67.6,204.9,67.6C204.9,67.6,204.9,67.6,204.9,67.6z M209.6,68.1c-0.1,0-0.1-0.1-0.1-0.2c0-0.1,0.1-0.2,0.2-0.2
		c0.6,0,1.2,0,1.8-0.1c0.1,0,0.2,0.1,0.2,0.2c0,0.1-0.1,0.2-0.2,0.2C210.9,68.1,210.3,68.1,209.6,68.1
		C209.7,68.1,209.7,68.1,209.6,68.1z M214.4,67.6c-0.1,0-0.1-0.1-0.1-0.2c0-0.1,0.1-0.2,0.2-0.3c0.6-0.1,1.2-0.3,1.8-0.4
		c0.1,0,0.2,0,0.3,0.2c0,0.1,0,0.2-0.2,0.3c-0.6,0.2-1.2,0.3-1.8,0.4C214.5,67.6,214.4,67.6,214.4,67.6z M218.9,66.2
		c-0.1,0-0.1-0.1-0.1-0.1c0-0.1,0-0.2,0.1-0.3c0.5-0.2,1.1-0.5,1.6-0.8c0.1-0.1,0.2,0,0.3,0.1c0.1,0.1,0,0.2-0.1,0.3
		c-0.5,0.3-1.1,0.5-1.7,0.8C219.1,66.2,219,66.2,218.9,66.2z M223.1,63.9c0,0-0.1,0-0.1-0.1c-0.1-0.1,0-0.2,0.1-0.3
		c0.5-0.3,1-0.7,1.4-1.1c0.1-0.1,0.2-0.1,0.3,0c0.1,0.1,0.1,0.2,0,0.3c-0.5,0.4-1,0.8-1.5,1.1C223.3,63.9,223.2,63.9,223.1,63.9z
		 M226.8,60.8C226.7,60.8,226.7,60.8,226.8,60.8c-0.2-0.1-0.2-0.3-0.1-0.4c0.4-0.4,0.8-0.9,1.2-1.3c0.1-0.1,0.2-0.1,0.3,0
		c0.1,0.1,0.1,0.2,0,0.3c-0.4,0.5-0.8,0.9-1.2,1.4C227,60.8,226.9,60.9,226.8,60.8z M229.7,57.1C229.7,57.1,229.7,57.1,229.7,57.1
		c-0.1-0.1-0.2-0.2-0.1-0.3c0.3-0.5,0.6-1,0.9-1.6c0.1-0.1,0.2-0.2,0.3-0.1c0.1,0.1,0.2,0.2,0.1,0.3c-0.3,0.5-0.6,1.1-0.9,1.6
		C229.9,57.1,229.8,57.1,229.7,57.1z M231.9,52.8c-0.1,0-0.2-0.2-0.1-0.3c0.2-0.6,0.4-1.1,0.6-1.7c0-0.1,0.2-0.2,0.3-0.2
		c0.1,0,0.2,0.2,0.2,0.3c-0.2,0.6-0.4,1.2-0.6,1.7C232.1,52.8,232,52.8,231.9,52.8C231.9,52.8,231.9,52.8,231.9,52.8z M233.1,48.2
		c-0.1,0-0.2-0.1-0.1-0.2c0.1-0.6,0.2-1.2,0.2-1.8c0-0.1,0.1-0.2,0.2-0.2c0.1,0,0.2,0.1,0.2,0.2c-0.1,0.6-0.1,1.2-0.2,1.8
		C233.4,48.1,233.3,48.2,233.1,48.2C233.1,48.2,233.1,48.2,233.1,48.2z"/>
	<path class="st2" d="M193.8,62C193.8,61.9,193.8,61.9,193.8,62c-0.3-0.2-0.5-0.5-0.7-0.7c-0.1-0.1-0.1-0.2,0-0.3
		c0.1-0.1,0.2-0.1,0.3,0c0.2,0.2,0.4,0.4,0.7,0.6c0.1,0.1,0.1,0.2,0,0.3C194,62,193.9,62,193.8,62z"/>
</g>
<linearGradient id="SVGID_1_" gradientUnits="userSpaceOnUse" x1="420.8186" y1="1981.6294" x2="457.4005" y2="1981.6294" gradientTransform="matrix(-0.2687 0.9633 -0.9633 -0.2687 2236.6641 153.4456)">
	<stop  offset="0" style="stop-color:#2DCAFF"/>
	<stop  offset="1" style="stop-color:#2DB1FF"/>
</linearGradient>
<path class="st3" d="M195.6,55.5c0.1,0.1,0.2,0.2,0.3,0.1l3.4-0.8c1.2,1.1,2.5,2.1,4,2.8l0.4,3.4c0,0.1,0.1,0.2,0.2,0.2l4,0.9
	c0.1,0,0.2,0,0.3-0.1l1.8-2.9c1.7,0,3.3-0.3,4.8-0.8l2.7,2.2c0.1,0.1,0.2,0.1,0.3,0l3.5-2.2c0.1-0.1,0.2-0.2,0.1-0.3l-0.8-3.4
	c1.1-1.2,2.1-2.5,2.8-4l3.4-0.4c0.1,0,0.2-0.1,0.2-0.2l0.9-4c0-0.1,0-0.2-0.1-0.3l-2.9-1.8c0-1.7-0.3-3.3-0.8-4.8l2.2-2.7
	c0.1-0.1,0.1-0.2,0-0.3l-2.2-3.5c-0.1-0.1-0.2-0.2-0.3-0.1l-3.4,0.8c-1.2-1.1-2.5-2.1-4-2.8l-0.4-3.4c0-0.1-0.1-0.2-0.2-0.2l-4-0.9
	c-0.1,0-0.2,0-0.3,0.1l-1.8,2.9c-1.7,0-3.3,0.3-4.8,0.8l-2.7-2.2c-0.1-0.1-0.2-0.1-0.3,0l-3.5,2.2c-0.1,0.1-0.2,0.2-0.1,0.3l0.8,3.4
	c-1.1,1.2-2.1,2.5-2.8,4l-3.4,0.4c-0.1,0-0.2,0.1-0.2,0.2l-0.9,4c0,0.1,0,0.2,0.1,0.3l2.9,1.8c0,1.7,0.3,3.3,0.8,4.8l-2.2,2.7
	c-0.1,0.1-0.1,0.2,0,0.3L195.6,55.5z"/>
<path class="st4" d="M208.3,47.7c-0.5-0.2-0.9-0.5-1.3-0.8c-0.8-0.7-1.2-1.7-1.3-2.8c0-1.1,0.4-2.1,1.1-2.9c0.7-0.8,1.7-1.2,2.8-1.3
	c2.2-0.1,4.1,1.7,4.1,3.9c0,1.1-0.4,2.1-1.1,2.9C212,47.6,211,48,210,48C209.4,48,208.8,47.9,208.3,47.7z M211.1,40.9
	c-0.4-0.2-0.9-0.3-1.3-0.2c-0.9,0-1.7,0.4-2.3,1c-0.6,0.6-0.9,1.5-0.9,2.4c0,0.9,0.4,1.7,1,2.3c0.6,0.6,1.5,0.9,2.4,0.9
	c0.9,0,1.7-0.4,2.3-1c0.6-0.6,0.9-1.5,0.9-2.4C213.2,42.5,212.3,41.4,211.1,40.9z"/>
<path class="st4" d="M206,53.5c-0.1,0-0.1-0.1-0.2-0.1c-0.1,0-0.2-0.1-0.3-0.1c0,0,0,0,0,0l0.3-0.6c0.6,0.3,1.3,0.5,1.9,0.7l0,0
	c2.5,0.6,5.1,0.1,7.3-1.3c1.7-1.1,3-2.7,3.8-4.5c0.2-0.5,0.4-1,0.5-1.5c0.6-2.5,0.1-5.1-1.3-7.3c-1.4-2.2-3.5-3.7-6-4.3
	c-4.7-1.1-9.4,1.5-11.1,5.8c-0.2,0.5-0.3,1-0.5,1.5c-0.4,1.7-0.3,3.5,0.2,5.1l-0.6,0.2c-0.6-1.8-0.7-3.7-0.3-5.5
	c0.1-0.6,0.3-1.1,0.5-1.6c1.9-4.6,6.9-7.4,11.9-6.2c2.7,0.6,5,2.2,6.5,4.6c1.5,2.3,2,5.1,1.3,7.8c-0.1,0.6-0.3,1.1-0.5,1.6
	c-0.8,2-2.2,3.7-4.1,4.9c-2.3,1.5-5.1,2-7.8,1.3c0,0-0.1,0-0.1,0C207,53.9,206.5,53.7,206,53.5z"/>
<linearGradient id="SVGID_2_" gradientUnits="userSpaceOnUse" x1="413.8549" y1="1938.312" x2="418.4787" y2="1972.6049" gradientTransform="matrix(-0.2687 0.9633 -0.9633 -0.2687 2236.6641 153.4456)">
	<stop  offset="0" style="stop-color:#2DCAFF"/>
	<stop  offset="1" style="stop-color:#2DB1FF"/>
</linearGradient>
<path class="st5" d="M229.5,35.4l1.8-0.6c0.7,0.6,1.5,1.1,2.4,1.4l0.4,1.9c0,0.1,0.1,0.1,0.1,0.1l2.3,0.3c0.1,0,0.1,0,0.2-0.1
	l0.9-1.7c0.9-0.1,1.8-0.3,2.6-0.7l1.6,1.1c0.1,0,0.1,0,0.2,0l1.9-1.4c0.1,0,0.1-0.1,0.1-0.2l-0.6-1.8c0.6-0.7,1.1-1.5,1.4-2.4
	l1.9-0.4c0.1,0,0.1-0.1,0.1-0.1l0.3-2.3c0-0.1,0-0.1-0.1-0.2l-1.7-0.9c-0.1-0.9-0.3-1.8-0.7-2.6l1.1-1.6c0-0.1,0-0.1,0-0.2l-1.4-1.9
	c0-0.1-0.1-0.1-0.2-0.1l-1.8,0.6c-0.7-0.6-1.5-1.1-2.4-1.4l-0.4-1.9c0-0.1-0.1-0.1-0.1-0.1l-2.3-0.3c-0.1,0-0.1,0-0.2,0.1l-0.9,1.7
	c-0.9,0.1-1.8,0.3-2.6,0.7l-1.6-1.1c-0.1,0-0.1,0-0.2,0l-1.9,1.4c-0.1,0-0.1,0.1-0.1,0.2l0.6,1.8c-0.6,0.7-1.1,1.5-1.4,2.4l-1.9,0.4
	c-0.1,0-0.1,0.1-0.1,0.1l-0.3,2.3c0,0.1,0,0.1,0.1,0.2l1.7,0.9c0.1,0.9,0.3,1.8,0.7,2.6l-1.1,1.6c0,0.1,0,0.1,0,0.2l1.4,1.9
	C229.4,35.4,229.5,35.5,229.5,35.4z"/>
<path class="st4" d="M235.9,30.6c-0.2-0.1-0.4-0.2-0.6-0.4c-0.5-0.4-0.8-1-0.9-1.6c-0.1-0.6,0.1-1.3,0.5-1.8c0.4-0.5,1-0.8,1.6-0.9
	c0.6-0.1,1.3,0.1,1.8,0.5c0.5,0.4,0.8,1,0.9,1.6c0.1,1.3-0.8,2.5-2.1,2.6l0,0C236.7,30.8,236.3,30.7,235.9,30.6z M237.5,26.7
	c-0.3-0.1-0.5-0.1-0.8-0.1c-0.9,0.1-1.6,0.9-1.5,1.9c0,0.5,0.3,0.9,0.6,1.2c0.4,0.3,0.8,0.4,1.3,0.4c0.9-0.1,1.6-0.9,1.5-1.9
	c0-0.5-0.3-0.9-0.6-1.2C237.8,26.9,237.6,26.8,237.5,26.7z"/>
<g>
	<path class="st1" d="M225.6,34.1c0,0-0.1-0.1-0.1-0.1c-0.1-0.3-0.3-0.6-0.4-0.8c0-0.1,0-0.2,0.1-0.3c0.1,0,0.2,0,0.3,0.1
		c0.1,0.3,0.2,0.5,0.4,0.8c0.1,0.1,0,0.2-0.1,0.3C225.7,34.1,225.6,34.1,225.6,34.1z"/>
	<path class="st1" d="M224.4,30.2c-0.1,0-0.1-0.1-0.1-0.2c0-0.1,0-0.2,0-0.3c-0.1-0.6-0.1-1.1-0.1-1.7c0-0.1,0.1-0.2,0.2-0.2
		c0.1,0,0.2,0.1,0.2,0.2c0,0.5,0,1.1,0.1,1.6c0,0.1,0,0.2,0,0.3c0,0.1-0.1,0.2-0.2,0.3C224.5,30.2,224.4,30.2,224.4,30.2z
		 M224.8,25.1c-0.1,0-0.2-0.2-0.1-0.3c0.1-0.4,0.3-0.8,0.4-1.2c0.1-0.2,0.2-0.4,0.3-0.7c0.1-0.1,0.2-0.2,0.3-0.1
		c0.1,0.1,0.2,0.2,0.1,0.3c-0.1,0.2-0.2,0.4-0.3,0.6c-0.2,0.4-0.3,0.8-0.4,1.2C225.1,25.1,224.9,25.1,224.8,25.1
		C224.8,25.1,224.8,25.1,224.8,25.1z M227.2,20.6C227.2,20.6,227.1,20.6,227.2,20.6c-0.2-0.1-0.2-0.3-0.1-0.4c0.4-0.5,0.9-1,1.4-1.4
		c0.1-0.1,0.2-0.1,0.3,0c0.1,0.1,0.1,0.2,0,0.3c-0.5,0.4-0.9,0.9-1.3,1.4C227.4,20.6,227.3,20.6,227.2,20.6z M231.2,17.4
		c0,0-0.1-0.1-0.1-0.1c-0.1-0.1,0-0.2,0.1-0.3c0.6-0.3,1.2-0.5,1.8-0.7c0.1,0,0.2,0,0.3,0.1c0,0.1,0,0.2-0.1,0.3
		c-0.6,0.2-1.2,0.4-1.8,0.7C231.3,17.4,231.2,17.4,231.2,17.4z M236.1,16.1c-0.1,0-0.1-0.1-0.1-0.2c0-0.1,0.1-0.2,0.2-0.2
		c0.7,0,1.3,0,2,0c0.1,0,0.2,0.1,0.2,0.2c0,0.1-0.1,0.2-0.2,0.2C237.5,16.1,236.8,16.1,236.1,16.1C236.2,16.1,236.1,16.1,236.1,16.1
		z"/>
	<path class="st1" d="M242,17.2C242,17.2,242,17.2,242,17.2c-0.3-0.1-0.6-0.2-0.8-0.3c0,0,0,0,0,0c-0.1,0-0.2-0.2-0.1-0.3
		c0-0.1,0.2-0.2,0.3-0.1c0.3,0.1,0.6,0.2,0.9,0.4c0.1,0.1,0.2,0.2,0.1,0.3C242.2,17.2,242.1,17.3,242,17.2z"/>
</g>
<g>
	<path class="st2" d="M248.7,24.8c-0.1,0-0.1-0.1-0.1-0.1c-0.1-0.3-0.2-0.6-0.3-0.8c0-0.1,0-0.2,0.1-0.3c0.1,0,0.2,0,0.3,0.1
		c0.1,0.3,0.2,0.6,0.3,0.9c0,0.1,0,0.2-0.1,0.3C248.8,24.9,248.7,24.9,248.7,24.8z"/>
	<path class="st2" d="M234.8,40.8c-0.1,0-0.2-0.1-0.1-0.2c0-0.1,0.1-0.2,0.3-0.2c0.6,0.1,1.3,0.1,1.9,0.1c0.1,0,0.2,0.1,0.2,0.2
		c0,0.1-0.1,0.2-0.2,0.2C236.2,41,235.5,41,234.8,40.8C234.9,40.9,234.9,40.9,234.8,40.8z M239.9,40.6c-0.1,0-0.1-0.1-0.1-0.2
		c0-0.1,0-0.2,0.2-0.3c0.6-0.2,1.2-0.4,1.8-0.6c0.1,0,0.2,0,0.3,0.1c0,0.1,0,0.2-0.1,0.3c-0.6,0.3-1.2,0.5-1.9,0.6
		C239.9,40.6,239.9,40.6,239.9,40.6z M244.4,38.4C244.3,38.4,244.3,38.4,244.4,38.4c-0.2-0.2-0.2-0.3-0.1-0.4c0.5-0.4,1-0.8,1.4-1.3
		c0.1-0.1,0.2-0.1,0.3,0c0.1,0.1,0.1,0.2,0,0.3c-0.4,0.5-0.9,0.9-1.5,1.3C244.5,38.4,244.4,38.4,244.4,38.4z M247.6,34.6
		C247.6,34.6,247.6,34.6,247.6,34.6c-0.1-0.1-0.2-0.2-0.1-0.3c0.3-0.5,0.5-0.9,0.7-1.4c0-0.1,0.1-0.2,0.1-0.3c0-0.1,0.2-0.2,0.3-0.1
		c0,0,0,0,0,0c0.1,0,0.2,0.2,0.1,0.3c0,0.1-0.1,0.2-0.1,0.3c-0.2,0.5-0.4,1-0.7,1.5C247.9,34.6,247.7,34.7,247.6,34.6z M249.2,29.8
		c-0.1,0-0.2-0.1-0.1-0.2c0.1-0.6,0.1-1.3,0-1.9c0-0.1,0.1-0.2,0.2-0.2c0.1,0,0.2,0.1,0.2,0.2c0,0.7,0,1.3,0,2
		C249.4,29.8,249.3,29.9,249.2,29.8C249.2,29.8,249.2,29.8,249.2,29.8z"/>
	<path class="st2" d="M231.8,40C231.8,40,231.8,40,231.8,40c-0.3-0.1-0.6-0.3-0.8-0.4c-0.1-0.1-0.2-0.2-0.1-0.3
		c0.1-0.1,0.2-0.2,0.3-0.1c0.3,0.1,0.5,0.3,0.8,0.4c0.1,0,0.2,0.2,0.1,0.3C232.1,40,231.9,40,231.8,40z"/>
</g>
<path class="st4" d="M234.8,33.9l0.2-0.6c0.3,0.1,0.7,0.2,1.1,0.3l0,0c2.7,0.4,5.3-1.4,5.9-4c0-0.1,0.1-0.3,0.1-0.4
	c0.2-1.4-0.2-2.8-1-3.9c-0.8-1.1-2.1-1.9-3.5-2.1c-1.4-0.2-2.8,0.2-3.9,1c-0.8,0.6-1.4,1.4-1.7,2.2c-0.2,0.4-0.3,0.8-0.3,1.2
	c-0.1,0.9,0,1.9,0.4,2.8l-0.6,0.3c-0.4-1-0.6-2.1-0.4-3.1c0.1-0.5,0.2-0.9,0.4-1.4c0.4-1,1.1-1.9,1.9-2.5c1.3-1,2.8-1.4,4.4-1.1
	c3.2,0.5,5.5,3.5,5,6.7c-0.1,0.5-0.2,0.9-0.4,1.4c-0.4,1-1.1,1.9-1.9,2.5c-1.3,1-2.8,1.4-4.4,1.1c0,0,0,0,0,0
	C235.6,34.1,235.2,34,234.8,33.9C234.9,33.9,234.9,33.9,234.8,33.9C234.9,33.9,234.8,33.9,234.8,33.9z"/>
<linearGradient id="SVGID_3_" gradientUnits="userSpaceOnUse" x1="226.1092" y1="82.7423" x2="315.4474" y2="82.7423">
	<stop  offset="0" style="stop-color:#2DCAFF"/>
	<stop  offset="1" style="stop-color:#2DB1FF"/>
</linearGradient>
<path class="st6" d="M238.5,131.1c0,0-31.7-42.5,6.4-60.6c34.5-16.4,60-23.5,66.5-35.4c0.6-1.1,2.2-0.8,2.4,0.3
	c2.9,14,7.9,60.4-44.4,95.6H238.5z"/>
<path class="st7" d="M305.1,50.2c0,0-0.3,0.3-0.9,1c-0.6,0.6-1.5,1.5-2.6,2.7c-1.1,1.1-2.6,2.5-4.2,4c-0.4,0.4-0.8,0.8-1.3,1.2
	c-0.5,0.4-0.9,0.8-1.4,1.2c-0.5,0.4-1,0.8-1.5,1.3c-0.5,0.4-1,0.8-1.6,1.3c-2.1,1.7-4.5,3.6-7.1,5.4c-0.6,0.5-1.3,0.9-2,1.4
	c-0.7,0.5-1.3,0.9-2,1.4c-1.4,0.9-2.8,1.8-4.3,2.7c-0.7,0.4-1.5,0.9-2.3,1.3c-0.8,0.4-1.5,0.9-2.3,1.3c-0.8,0.4-1.6,0.8-2.4,1.2
	c-0.4,0.2-0.8,0.4-1.2,0.6c-0.4,0.2-0.8,0.4-1.2,0.6c-1.6,0.7-3.3,1.5-5,2.2c-0.8,0.4-1.6,0.8-2.4,1.2c-0.8,0.4-1.6,0.9-2.3,1.3
	L256,84l-1.1,0.8c-0.7,0.5-1.4,1.1-2.1,1.6c-0.3,0.3-0.7,0.6-1,0.9l-0.5,0.4c-0.2,0.1-0.3,0.3-0.5,0.5l-1,0.9l-0.9,1
	c-0.3,0.3-0.6,0.7-0.9,1c-0.3,0.3-0.6,0.7-0.8,1c-0.3,0.4-0.5,0.7-0.7,1c-0.3,0.3-0.5,0.7-0.7,1.1c-0.5,0.7-0.8,1.5-1.2,2.2
	c-0.3,0.8-0.7,1.5-1,2.3c-1.2,3.1-1.6,6.3-1.6,9.3c0,3,0.5,5.9,1.2,8.4c0.7,2.6,1.6,4.9,2.5,6.8c0.1,0.2,0.2,0.5,0.3,0.7
	c0.1,0.2,0.2,0.5,0.4,0.7c0.2,0.5,0.5,0.9,0.7,1.3c0.5,0.8,0.9,1.6,1.3,2.3c0.4,0.7,0.8,1.3,1.1,1.8c0.3,0.5,0.6,0.9,0.9,1.3
	c0.5,0.7,0.7,1.1,0.7,1.1l0,0c0.4,0.6,0.2,1.4-0.4,1.8c-0.6,0.4-1.4,0.2-1.8-0.4c0,0,0,0,0,0c0,0-0.3-0.4-0.7-1.1
	c-0.2-0.4-0.5-0.8-0.9-1.4c-0.3-0.5-0.7-1.2-1.1-1.9c-0.4-0.7-0.8-1.5-1.3-2.4c-0.2-0.4-0.4-0.9-0.7-1.4c-0.1-0.2-0.2-0.5-0.4-0.7
	c-0.1-0.2-0.2-0.5-0.3-0.8c-1-2.1-1.9-4.5-2.6-7.2c-0.7-2.7-1.2-5.8-1.2-9.1c0-3.3,0.6-6.7,1.9-10c0.3-0.8,0.7-1.6,1.1-2.5
	c0.4-0.8,0.8-1.6,1.4-2.4c0.3-0.4,0.5-0.8,0.8-1.1c0.3-0.4,0.5-0.7,0.8-1.1c0.3-0.4,0.6-0.7,0.9-1.1c0.3-0.4,0.6-0.7,0.9-1
	c0.3-0.3,0.6-0.7,1-1l1-1c0.2-0.2,0.3-0.3,0.5-0.5l0.5-0.4c0.4-0.3,0.7-0.6,1.1-0.9c0.8-0.5,1.5-1.1,2.3-1.6l1.2-0.8l1.2-0.7
	c0.8-0.5,1.6-0.9,2.4-1.4c0.8-0.4,1.7-0.8,2.5-1.2c1.7-0.7,3.3-1.4,5-2.2c0.4-0.2,0.8-0.4,1.2-0.5c0.4-0.2,0.8-0.4,1.2-0.6
	c0.8-0.4,1.6-0.8,2.4-1.2c0.8-0.4,1.5-0.8,2.3-1.2c0.8-0.4,1.5-0.8,2.3-1.2c1.5-0.9,2.9-1.7,4.3-2.6c0.7-0.5,1.4-0.9,2-1.3
	c0.7-0.4,1.3-0.9,2-1.3c2.6-1.8,5-3.5,7.1-5.2c0.5-0.4,1.1-0.8,1.6-1.2c0.5-0.4,1-0.8,1.5-1.2c0.5-0.4,0.9-0.8,1.4-1.2
	c0.4-0.4,0.9-0.8,1.3-1.1c1.7-1.5,3.1-2.8,4.3-3.9c1.2-1.1,2-2,2.6-2.6c0.6-0.6,0.9-0.9,0.9-0.9c0.2-0.2,0.4-0.2,0.6,0
	C305.3,49.7,305.3,50,305.1,50.2L305.1,50.2z"/>
<linearGradient id="SVGID_4_" gradientUnits="userSpaceOnUse" x1="65.1126" y1="246.9426" x2="115.9099" y2="178.3284">
	<stop  offset="0" style="stop-color:#2DCAFF"/>
	<stop  offset="1" style="stop-color:#2DB1FF"/>
</linearGradient>
<path class="st8" d="M125.2,277.5c0,0,5.2-60.7-28.7-79.4C64,180.2,55,196,40,172.2c-0.7-1.1-2.4-0.7-2.5,0.5
	c-1.8,13.6-4.8,59.8,34.4,69C117.3,252.3,125.2,277.5,125.2,277.5z"/>
<path class="st7" d="M43.5,186c0,0,0,0.1,0.1,0.3c0.1,0.2,0.2,0.5,0.3,0.9c0.3,0.8,0.9,2,1.6,3.4c0.2,0.4,0.4,0.7,0.7,1.1
	c0.2,0.4,0.5,0.8,0.8,1.2c0.6,0.8,1.1,1.7,1.9,2.6c0.4,0.4,0.7,0.9,1.1,1.4c0.4,0.5,0.8,0.9,1.2,1.4c0.2,0.2,0.4,0.5,0.7,0.7
	c0.2,0.2,0.4,0.5,0.7,0.7c0.5,0.5,1,0.9,1.5,1.4c0.3,0.2,0.5,0.5,0.8,0.7c0.3,0.2,0.5,0.5,0.8,0.7c0.6,0.5,1.1,0.9,1.7,1.4
	c0.3,0.2,0.6,0.5,0.9,0.7c0.3,0.2,0.6,0.5,0.9,0.7c0.6,0.5,1.3,0.9,1.9,1.4l0.5,0.4c0.2,0.1,0.3,0.2,0.5,0.3c0.3,0.2,0.7,0.4,1,0.7
	c0.7,0.4,1.4,0.9,2.1,1.3l0.5,0.3l0.6,0.3c0.4,0.2,0.7,0.4,1.1,0.6c0.8,0.4,1.5,0.8,2.3,1.3c0.8,0.4,1.6,0.8,2.4,1.2
	c0.8,0.4,1.6,0.8,2.4,1.2c0.4,0.2,0.8,0.4,1.2,0.6c0.4,0.2,0.8,0.3,1.3,0.5c0.8,0.3,1.7,0.7,2.5,1c0.9,0.3,1.7,0.7,2.6,1
	c0.9,0.3,1.7,0.7,2.6,1c0.9,0.4,1.7,0.7,2.6,1.1l2.6,1.2c3.4,1.6,6.7,3.5,9.8,5.6c3.1,2.1,6,4.5,8.5,7c1.3,1.3,2.4,2.6,3.6,3.9
	c1.1,1.4,2.1,2.7,3,4.1c1.8,2.7,3.3,5.5,4.5,8.1c1.2,2.6,2.1,5.1,2.9,7.2c0.8,2.2,1.4,4.1,1.9,5.7c0.9,3.2,1.5,5,1.5,5
	c0.2,0.7-0.2,1.4-0.9,1.6c-0.7,0.2-1.4-0.2-1.6-0.9c0,0,0,0,0,0l0,0c0,0-0.5-1.8-1.4-5c-0.5-1.6-1-3.5-1.7-5.6
	c-0.7-2.1-1.6-4.5-2.7-7.1c-1.1-2.5-2.5-5.2-4.2-7.9c-0.8-1.3-1.8-2.6-2.8-4c-1.1-1.3-2.2-2.6-3.4-3.8c-2.4-2.5-5.1-4.8-8.1-6.9
	c-3-2.1-6.2-4-9.5-5.7l-2.5-1.2c-0.8-0.4-1.7-0.8-2.5-1.1c-0.9-0.4-1.7-0.7-2.6-1.1c-0.8-0.3-1.7-0.7-2.6-1.1
	c-0.9-0.4-1.7-0.7-2.6-1.1c-0.4-0.2-0.8-0.4-1.3-0.5c-0.4-0.2-0.8-0.4-1.2-0.6c-0.8-0.4-1.6-0.8-2.4-1.2c-0.8-0.4-1.6-0.8-2.4-1.2
	c-0.8-0.4-1.5-0.9-2.3-1.3c-0.4-0.2-0.8-0.4-1.1-0.6l-0.6-0.3l-0.5-0.4c-0.7-0.5-1.4-0.9-2.1-1.4c-0.3-0.2-0.7-0.5-1-0.7
	c-0.2-0.1-0.3-0.2-0.5-0.3l-0.5-0.4c-0.6-0.5-1.3-1-1.9-1.5c-0.3-0.2-0.6-0.5-0.9-0.7c-0.3-0.2-0.6-0.5-0.9-0.7
	c-0.6-0.5-1.1-1-1.7-1.5c-0.3-0.2-0.6-0.5-0.8-0.7c-0.3-0.3-0.5-0.5-0.8-0.8c-0.5-0.5-1-1-1.5-1.5c-0.2-0.2-0.5-0.5-0.7-0.7
	c-0.2-0.2-0.4-0.5-0.7-0.7c-0.4-0.5-0.9-1-1.2-1.4c-0.4-0.5-0.7-1-1.1-1.4c-0.7-0.9-1.3-1.8-1.9-2.6c-0.3-0.4-0.5-0.8-0.8-1.2
	c-0.2-0.4-0.5-0.8-0.7-1.1c-0.8-1.5-1.3-2.7-1.6-3.5c-0.2-0.4-0.3-0.7-0.3-1c-0.1-0.2-0.1-0.3-0.1-0.3l0,0c0-0.2,0.1-0.3,0.2-0.4
	C43.3,185.8,43.5,185.9,43.5,186z"/>
<linearGradient id="SVGID_5_" gradientUnits="userSpaceOnUse" x1="57.6076" y1="187.5995" x2="129.2485" y2="187.5995">
	<stop  offset="0" style="stop-color:#2DCAFF"/>
	<stop  offset="1" style="stop-color:#2DB1FF"/>
</linearGradient>
<path class="st9" d="M127.6,276.2l-3.8-2.2c1.9-29-3.4-82.3-32.6-96.8c-19.8-9.8-27.1-20.8-25.6-44.2c1-15.6-4.2-26.4-7.8-31.9
	c-0.7-1.1,0.5-2.5,1.7-1.9c12,5.9,43.4,23.4,57.8,51.1C135.3,185.1,127.6,276.2,127.6,276.2z"/>
<path class="st7" d="M77.9,118.4c0,0,0,0,0.1,0.1c0.1,0,0.2,0.1,0.3,0.2c0.1,0.1,0.3,0.2,0.5,0.3c0.2,0.1,0.4,0.3,0.7,0.4
	c0.5,0.3,1.1,0.8,1.8,1.3c0.4,0.3,0.7,0.6,1.1,0.9c0.4,0.3,0.8,0.6,1.2,1c0.8,0.7,1.8,1.5,2.7,2.5c0.5,0.5,1,0.9,1.5,1.5
	c0.5,0.5,1,1.1,1.5,1.6c2.1,2.2,4.3,4.9,6.6,8c0.3,0.4,0.6,0.8,0.8,1.2c0.3,0.4,0.6,0.8,0.8,1.2c0.6,0.8,1.1,1.6,1.7,2.5
	c1.1,1.7,2.2,3.5,3.3,5.4c0.5,0.9,1.1,1.9,1.6,2.9c0.3,0.5,0.5,1,0.8,1.5c0.3,0.5,0.6,1,0.8,1.5c0.5,1,1,2,1.5,3.1
	c0.3,0.5,0.5,1,0.8,1.6c0.3,0.5,0.5,1,0.8,1.6c1,2.2,1.9,4.4,2.9,6.6c0.9,2.3,1.8,4.6,2.7,6.9c0.1,0.3,0.2,0.6,0.3,0.9l0.3,0.9
	c0.2,0.6,0.4,1.2,0.6,1.8c0.4,1.2,0.8,2.4,1.2,3.5l0.6,1.8c0.2,0.6,0.4,1.2,0.5,1.8c0.3,1.2,0.7,2.4,1,3.6l0.5,1.8
	c0.2,0.6,0.4,1.2,0.5,1.8c0.3,1.2,0.6,2.4,0.9,3.7c0.3,1.2,0.6,2.4,0.9,3.7c0.3,1.2,0.5,2.4,0.8,3.7c0.5,2.4,1,4.8,1.4,7.2
	c0.2,1.2,0.4,2.4,0.6,3.6c0.1,0.6,0.2,1.2,0.3,1.8c0.1,0.6,0.2,1.2,0.2,1.8c0.3,2.3,0.7,4.6,0.9,6.9c0.3,2.3,0.5,4.5,0.7,6.6
	c0.2,2.2,0.4,4.3,0.5,6.3c0.2,2,0.3,4,0.4,5.9c0.2,3.8,0.4,7.2,0.4,10.3c0.1,1.5,0.1,3,0.1,4.3c0,1.3,0,2.6,0,3.7
	c0,2.2,0,3.9-0.1,5.1c0,1.2-0.1,1.8-0.1,1.8c0,0.7-0.6,1.3-1.4,1.3c-0.7,0-1.3-0.6-1.3-1.4l0,0l0,0c0,0,0-0.6,0.1-1.8
	c0-1.2,0.1-2.9,0.1-5.1c0-1.1,0-2.3,0-3.6c0-1.3,0-2.7,0-4.3c0-3-0.2-6.5-0.3-10.2c-0.1-1.9-0.2-3.8-0.3-5.8c-0.2-2-0.3-4.1-0.5-6.2
	c-0.2-2.1-0.4-4.3-0.7-6.6c-0.2-2.2-0.6-4.5-0.9-6.9c-0.1-0.6-0.2-1.2-0.2-1.8c-0.1-0.6-0.2-1.2-0.3-1.8c-0.2-1.2-0.4-2.4-0.6-3.6
	c-0.3-2.4-0.8-4.8-1.3-7.2c-0.2-1.2-0.5-2.4-0.7-3.6c-0.3-1.2-0.6-2.4-0.8-3.6c-0.3-1.2-0.6-2.4-0.8-3.6c-0.1-0.6-0.3-1.2-0.5-1.8
	l-0.5-1.8c-0.3-1.2-0.7-2.4-1-3.6c-0.2-0.6-0.3-1.2-0.5-1.8l-0.6-1.8c-0.4-1.2-0.8-2.4-1.2-3.6c-0.2-0.6-0.4-1.2-0.6-1.8l-0.3-0.9
	l-0.3-0.8c-0.9-2.3-1.8-4.6-2.6-6.8c-1-2.2-1.9-4.4-2.8-6.5c-0.2-0.5-0.5-1.1-0.7-1.6c-0.3-0.5-0.5-1-0.8-1.6c-0.5-1-1-2.1-1.5-3.1
	c-0.2-0.5-0.5-1-0.8-1.5c-0.3-0.5-0.5-1-0.8-1.5c-0.5-1-1.1-1.9-1.6-2.9c-1.1-1.8-2.2-3.6-3.3-5.3c-0.6-0.8-1.1-1.7-1.7-2.5
	c-0.3-0.4-0.5-0.8-0.8-1.2c-0.3-0.4-0.5-0.8-0.8-1.2c-2.2-3-4.4-5.7-6.4-7.9c-0.5-0.6-1-1.1-1.5-1.6c-0.5-0.5-1-1-1.5-1.4
	c-0.9-0.9-1.8-1.7-2.6-2.4c-0.4-0.4-0.8-0.7-1.2-1c-0.4-0.3-0.7-0.6-1.1-0.8c-0.7-0.5-1.2-0.9-1.7-1.2c-0.2-0.2-0.5-0.3-0.6-0.4
	c-0.2-0.1-0.3-0.2-0.5-0.3c-0.1-0.1-0.2-0.1-0.3-0.2c-0.1,0-0.1-0.1-0.1-0.1l0,0c-0.3-0.2-0.4-0.5-0.2-0.8
	C77.3,118.3,77.6,118.2,77.9,118.4z"/>
<linearGradient id="SVGID_6_" gradientUnits="userSpaceOnUse" x1="139.7375" y1="157.8032" x2="177.55" y2="128.3095">
	<stop  offset="0" style="stop-color:#2DCAFF"/>
	<stop  offset="1" style="stop-color:#2DB1FF"/>
</linearGradient>
<path class="st10" d="M131.2,272.4c-0.4,0.8-1.6,0.4-1.5-0.5c2-15.6,9.7-84-2.9-119.6c-14.1-39.9-41.4-79.9,25.7-106.4
	c0.8-0.3,1.6,0.5,1.3,1.3c-2,4.6-5.4,15.8,0.8,29.5c8.1,18,8,48.7-13.9,79.4C140.7,156.2,144.2,249.7,131.2,272.4z"/>
<path class="st7" d="M143.1,57.1c0,0-0.1,0-0.3,0.1c-0.2,0.1-0.4,0.2-0.7,0.4c-0.7,0.4-1.6,1-2.7,1.9c-1.1,0.9-2.4,2-3.8,3.5
	c-0.7,0.7-1.4,1.5-2.1,2.4c-0.7,0.9-1.4,1.8-2.1,2.8c-0.2,0.3-0.3,0.5-0.5,0.8c-0.2,0.3-0.3,0.5-0.5,0.8c-0.3,0.6-0.7,1.1-1,1.7
	c-0.3,0.6-0.6,1.2-0.9,1.8c-0.2,0.3-0.3,0.6-0.5,0.9c-0.1,0.3-0.3,0.6-0.4,1c-0.1,0.3-0.3,0.6-0.4,1c-0.1,0.3-0.3,0.7-0.4,1
	c-0.3,0.7-0.5,1.4-0.8,2c-0.4,1.4-1,2.8-1.3,4.3c-0.8,3-1.3,6.1-1.7,9.3c-0.1,0.8-0.1,1.6-0.2,2.4c-0.1,0.8-0.1,1.6-0.1,2.4
	c0,0.8,0,1.6-0.1,2.5c0,0.4,0,0.8,0,1.2l0,1.2c0,1.6,0.1,3.3,0.2,4.9c0.1,1.6,0.2,3.3,0.5,4.9c0.4,3.2,0.9,6.4,1.5,9.4
	c0.3,1.5,0.7,3,1,4.4c0.1,0.4,0.2,0.7,0.2,1.1c0.1,0.4,0.2,0.7,0.3,1.1c0.2,0.7,0.4,1.4,0.6,2.1c0.7,2.7,1.5,5.3,2.2,7.7
	c0.2,0.6,0.4,1.2,0.5,1.7c0.2,0.6,0.4,1.1,0.6,1.6c0.4,1.1,0.7,2.1,1.1,3c0.6,1.9,1.3,3.5,1.8,4.9c1,2.7,1.6,4.2,1.6,4.2l0,0
	c0.3,0.7-0.1,1.4-0.7,1.7c-0.7,0.3-1.4-0.1-1.7-0.7c0,0,0,0,0,0c0,0-0.6-1.6-1.6-4.3c-0.5-1.4-1.1-3-1.8-5c-0.3-1-0.7-2-1-3.1
	c-0.2-0.5-0.4-1.1-0.5-1.7c-0.2-0.6-0.3-1.2-0.5-1.8c-0.7-2.4-1.5-5-2.1-7.8c-0.2-0.7-0.3-1.4-0.5-2.1c-0.1-0.4-0.2-0.7-0.3-1.1
	c-0.1-0.4-0.2-0.7-0.2-1.1c-0.3-1.5-0.6-3-0.9-4.5c-0.5-3.1-1.1-6.3-1.4-9.6c-0.2-1.6-0.3-3.3-0.4-5c-0.1-1.7-0.1-3.3-0.1-5l0-1.3
	c0-0.4,0-0.8,0-1.3c0-0.8,0.1-1.7,0.1-2.5c0-0.8,0.1-1.7,0.2-2.5c0.1-0.8,0.2-1.7,0.2-2.5c0.5-3.3,1-6.5,1.9-9.5
	c0.4-1.5,0.9-3,1.4-4.4c0.3-0.7,0.6-1.4,0.8-2.1c0.1-0.3,0.3-0.7,0.4-1c0.2-0.3,0.3-0.7,0.5-1c0.2-0.3,0.3-0.6,0.5-1
	c0.2-0.3,0.3-0.6,0.5-0.9c0.3-0.6,0.7-1.2,1-1.8c0.3-0.6,0.7-1.1,1.1-1.7c0.2-0.3,0.3-0.6,0.5-0.8c0.2-0.3,0.4-0.5,0.6-0.8
	c0.7-1,1.5-2,2.2-2.9c0.8-0.9,1.5-1.7,2.2-2.4c1.4-1.5,2.8-2.6,4-3.5c1.2-0.9,2.1-1.5,2.8-1.9c0.3-0.2,0.6-0.3,0.8-0.4
	c0.2-0.1,0.3-0.1,0.3-0.1c0.2-0.1,0.4,0,0.5,0.2C143.4,56.8,143.3,57,143.1,57.1L143.1,57.1z"/>
<linearGradient id="SVGID_7_" gradientUnits="userSpaceOnUse" x1="355.2895" y1="163.6903" x2="413.5425" y2="163.6903">
	<stop  offset="0" style="stop-color:#2DCAFF"/>
	<stop  offset="1" style="stop-color:#2DB1FF"/>
</linearGradient>
<path class="st11" d="M372.3,273.7c0,0-29.9-55.9-10.5-93.3c18.4-35.5,35.3-99.2,19.9-125.3c-0.5-0.9,0.5-1.9,1.4-1.4
	c12.9,8.4,49.6,37.9,17.7,87.8C362.7,201.2,350,195.6,372.3,273.7z"/>
<path class="st12" d="M376.2,273.5c0,0.1-0.2,0.1-0.2,0c-1.9-4.6-18.2-44.7-8.6-68.7c9.7-24.2,60.1-64.1,51.6-100.2
	c-0.2-0.9,1-1.5,1.6-0.6c8.9,14,30.7,54.6,9.2,87.4C403.3,231.6,367,193.1,376.2,273.5z"/>
<path class="st7" d="M420.2,128.2c0,0,0.1,0.1,0.2,0.3c0.1,0.2,0.3,0.5,0.4,1c0.4,0.9,0.9,2.1,1.3,3.8c0.5,1.7,0.8,3.8,1,6.2
	c0.2,2.4,0.1,5.2-0.4,8.2c-0.5,3-1.4,6.1-2.8,9.3c-1.4,3.2-3.2,6.3-5.4,9.3c-0.5,0.8-1.1,1.5-1.7,2.2c-0.6,0.8-1.2,1.4-1.9,2.2
	l-0.5,0.5l-0.5,0.5c-0.3,0.3-0.7,0.7-1,1l-0.5,0.5l-0.5,0.5c-0.4,0.3-0.7,0.7-1.1,1c-2.8,2.7-5.9,5.2-9.1,7.6
	c-3.1,2.4-6.4,4.5-9.4,6.8c-3,2.3-5.8,4.8-8,7.5c-2.2,2.7-4,5.7-5.2,8.8c-0.3,0.8-0.6,1.5-0.9,2.3c-0.3,0.8-0.5,1.5-0.8,2.2
	c-0.2,0.7-0.4,1.5-0.6,2.2c-0.2,0.7-0.3,1.4-0.5,2.1c-0.1,0.4-0.2,0.7-0.3,1c-0.1,0.3-0.1,0.7-0.2,1c-0.1,0.7-0.3,1.3-0.4,2
	c-0.2,1.3-0.4,2.5-0.6,3.7c-0.1,1.2-0.3,2.3-0.4,3.3c-0.1,1-0.2,2-0.3,2.8c0,0.4-0.1,0.8-0.1,1.2c0,0.4-0.1,0.7-0.1,1.1
	c0,0.7-0.1,1.2-0.1,1.7c-0.1,0.9-0.1,1.4-0.1,1.4l0,0c0,0.3-0.3,0.5-0.6,0.5c-0.3,0-0.5-0.3-0.5-0.5c0,0,0-0.5,0-1.4
	c0-0.5,0-1,0-1.7c0-0.3,0-0.7,0-1.1c0-0.4,0-0.8,0.1-1.2c0-0.9,0.1-1.8,0.2-2.8c0.1-1,0.2-2.1,0.3-3.3c0.1-1.2,0.3-2.5,0.5-3.8
	c0.1-0.7,0.2-1.3,0.3-2c0.1-0.3,0.1-0.7,0.2-1.1c0.1-0.4,0.1-0.7,0.2-1.1c0.6-2.9,1.4-6,2.7-9.2c1.2-3.2,3-6.4,5.4-9.4
	c1.2-1.5,2.5-2.9,3.9-4.2c1.4-1.3,2.9-2.6,4.4-3.8c3.1-2.4,6.3-4.6,9.4-7c3.1-2.3,6.1-4.8,8.8-7.4c0.3-0.3,0.7-0.7,1-1l0.5-0.5
	l0.5-0.5c0.3-0.3,0.7-0.7,1-1l0.5-0.5l0.5-0.5c0.6-0.7,1.2-1.4,1.8-2.1c0.6-0.7,1.2-1.4,1.7-2.1c2.1-2.9,3.9-5.8,5.3-8.8
	c1.3-3,2.3-5.9,2.9-8.7c0.6-2.8,0.8-5.4,0.7-7.7c0-2.3-0.3-4.3-0.6-6c-0.3-1.6-0.7-2.9-1-3.8c-0.1-0.4-0.3-0.7-0.3-1
	c-0.1-0.2-0.1-0.3-0.1-0.3l0,0c-0.1-0.2,0-0.5,0.3-0.6C419.8,127.9,420.1,128,420.2,128.2z"/>
<linearGradient id="SVGID_8_" gradientUnits="userSpaceOnUse" x1="74.6169" y1="287.9465" x2="368.5691" y2="287.9465">
	<stop  offset="0" style="stop-color:#2DB1FF"/>
	<stop  offset="1" style="stop-color:#0082CB"/>
</linearGradient>
<path class="st13" d="M363.5,294.2H79.6c-2.8,0-5-2.3-5-5v-2.5c0-2.8,2.3-5,5-5h283.9c2.8,0,5,2.3,5,5v2.5
	C368.6,292,366.3,294.2,363.5,294.2z"/>
<g>
	
		<linearGradient id="SVGID_9_" gradientUnits="userSpaceOnUse" x1="4298.4683" y1="0.3241" x2="4320.6348" y2="59.0653" gradientTransform="matrix(0.9903 0.1391 -0.1391 0.9903 -3885.6514 -437.2437)">
		<stop  offset="0" style="stop-color:#F9B776"/>
		<stop  offset="1" style="stop-color:#F47960"/>
	</linearGradient>
	<path class="st15" d="M363.9,170.2l3.7,4.9c6.2,0.3,11.2-1,15.2-2.9c-1.4-5.7-3.2-9.3-4.7-11.4C371.3,168,363.9,170.2,363.9,170.2z
		"/>
	
		<linearGradient id="SVGID_10_" gradientUnits="userSpaceOnUse" x1="-171.5802" y1="-14.9934" x2="-186.5113" y2="45.7266" gradientTransform="matrix(-0.9903 -0.1391 -0.1391 0.9903 213.8736 138.5049)">
		<stop  offset="0" style="stop-color:#2DB1FF"/>
		<stop  offset="1" style="stop-color:#0082CB"/>
	</linearGradient>
	<path class="st16" d="M396.1,158.5l-7.9-17.3c-1.9,8.9-5.9,15.2-10.1,19.6c1.5,2.1,3.2,5.7,4.7,11.4
		C392.6,167.4,396.1,158.5,396.1,158.5z"/>
	<path class="st50" d="M389.3,285.8c-5.1-0.5-10-1.3-13.3-1.9c3.3-1.7,10.8-5.4,16.8-6.4l4,0.3c0,0,1.1,2.2,0.9,7
		C397,285.4,394.9,286.3,389.3,285.8z"/>
	
		<linearGradient id="SVGID_11_" gradientUnits="userSpaceOnUse" x1="390.0896" y1="120.9611" x2="412.0967" y2="120.9611" gradientTransform="matrix(-0.9903 -0.1391 -0.1391 0.9903 800.6683 220.9159)">
		<stop  offset="0" style="stop-color:#53D8FF"/>
		<stop  offset="1" style="stop-color:#3840F7"/>
	</linearGradient>
	<path class="st17" d="M376,283.9C376,283.8,376,283.8,376,283.9c3.3,0.6,8.2,1.4,13.3,1.9c5.6,0.5,7.7-0.3,8.4-1.1
		c0,0.2,0,0.4,0,0.7c-0.1,1-0.9,1.8-2,1.8c-4.2-0.3-14.6-1-19.5-2C375.5,285,375.4,284.2,376,283.9z"/>
	<path class="st50" d="M425.8,289.5c0.7-2.3,1.8-5.7,2.4-6.5c0.9-1.3,3.2,0.4,3.2,0.4s1.6,1.1,2.2,2.5c0.4,0.9,1.5,3.6,2.2,5.4
		c0.1,0.2,0.1,0.4,0.1,0.6l-10-1C425.7,290.5,425.6,290,425.8,289.5z"/>
	
		<linearGradient id="SVGID_12_" gradientUnits="userSpaceOnUse" x1="351.4309" y1="121.7431" x2="361.4295" y2="121.7431" gradientTransform="matrix(-0.9903 -0.1391 -0.1391 0.9903 800.6683 220.9159)">
		<stop  offset="0" style="stop-color:#53D8FF"/>
		<stop  offset="1" style="stop-color:#3840F7"/>
	</linearGradient>
	<path class="st18" d="M435.8,292c-0.1,0.6-0.6,1-1.3,0.9l-7.1-0.8c-0.7-0.1-1.3-0.6-1.6-1.2L435.8,292z"/>
	
		<linearGradient id="SVGID_13_" gradientUnits="userSpaceOnUse" x1="355.7885" y1="109.9552" x2="362.4746" y2="109.9552" gradientTransform="matrix(-0.9903 -0.1391 -0.1391 0.9903 800.6683 220.9159)">
		<stop  offset="0" style="stop-color:#F9B776"/>
		<stop  offset="1" style="stop-color:#F47960"/>
	</linearGradient>
	<path class="st19" d="M427.1,274.8c0,0.3,0.5,6.7,0.6,9.5c0,0.8,0.7,1.4,1.4,1.5c0.4,0,0.9,0.1,1.4,0.1c0.9,0,1.7-0.7,1.9-1.6
		c0.4-2.4,1.1-6.9,0.5-8.8C432.1,272.8,427.1,274.8,427.1,274.8z"/>
	
		<linearGradient id="SVGID_14_" gradientUnits="userSpaceOnUse" x1="391.2089" y1="109.5175" x2="396.7816" y2="109.5175" gradientTransform="matrix(-0.9903 -0.1391 -0.1391 0.9903 800.6683 220.9159)">
		<stop  offset="0" style="stop-color:#F9B776"/>
		<stop  offset="1" style="stop-color:#F47960"/>
	</linearGradient>
	<path class="st20" d="M398.4,272.6c-0.5-0.1-0.2,2.9-1.4,5.5c-0.3,0.6-0.8,1-1.5,1c-0.4-0.1-0.9-0.1-1.4-0.2
		c-0.8-0.2-1.3-0.9-1.3-1.6l0.3-7.4L398.4,272.6z"/>
	<path class="st50" d="M393.9,193.2c0.1,1.2,1.6,52.9-1.5,79c-0.1,0.4,0.2,0.9,0.6,1c1.1,0.3,3.2,0.8,5.3,0.7c0.3,0,0.5-0.2,0.6-0.5
		c1-4.8,9.2-45.6,8.9-65.4c0,0,17.3,55.2,19,70c0,0.4,0.3,0.6,0.7,0.7c1.1,0.1,3.3,0.2,5.1-0.2c0.7-0.1,1.1-0.7,1-1.4
		c-0.9-8.8-7.2-69.7-15.3-84L393.9,193.2z"/>
	
		<linearGradient id="SVGID_15_" gradientUnits="userSpaceOnUse" x1="405.0662" y1="23.8441" x2="382.2583" y2="53.3314" gradientTransform="matrix(-0.9903 -0.1391 -0.1391 0.9903 800.6683 220.9159)">
		<stop  offset="0" style="stop-color:#2B3582"/>
		<stop  offset="1" style="stop-color:#150E42"/>
	</linearGradient>
	<path class="st21" d="M407.8,208.3c0.1,0,0.2,0,0.2-0.1c0.1-0.1,0.2-0.3,0.1-0.5l-2.8-3.8c-0.1-0.1-0.3-0.2-0.5-0.1
		c-0.1,0.1-0.2,0.3-0.1,0.5l2.8,3.8C407.6,208.3,407.7,208.3,407.8,208.3z"/>
	<path class="st74" d="M388.7,128c6.5-0.8,18.6-1.7,27.8,0.1c2.1,0.4,3.6,2.3,3.4,4.5c-2.1,24.9-3.2,47.1-1.4,60.3
		c-8.6,2.1-16.8,2.4-24.6,0.2c-4.2-13.5-7.3-29-9.4-46.2c0,0-0.7-13.7,2.4-17.7C387.4,128.5,388,128.1,388.7,128z"/>
	
		<linearGradient id="SVGID_16_" gradientUnits="userSpaceOnUse" x1="407.8467" y1="-29.0515" x2="410.5921" y2="-45.9814" gradientTransform="matrix(-0.9903 -0.1391 -0.1391 0.9903 800.6683 220.9159)">
		<stop  offset="0" style="stop-color:#F9B776"/>
		<stop  offset="1" style="stop-color:#F47960"/>
	</linearGradient>
	<path class="st22" d="M406.3,112.9c0,0,0.3,9.7,0.1,14.2c0,0.7-0.5,1.3-1.2,1.6c-1.9,0.7-5.8,1.6-9.7-0.3c-0.6-0.3-1-1-0.9-1.7
		l2.1-12.7L406.3,112.9z"/>
	
		<linearGradient id="SVGID_17_" gradientUnits="userSpaceOnUse" x1="416.7135" y1="-56.4988" x2="398.9548" y2="-42.9107" gradientTransform="matrix(-0.9903 -0.1391 -0.1391 0.9903 800.6683 220.9159)">
		<stop  offset="0" style="stop-color:#F9B776"/>
		<stop  offset="1" style="stop-color:#F47960"/>
	</linearGradient>
	<path class="st23" d="M397.4,100.9c0,0-4.1,6.6-4.8,10.3c-0.7,3.7-1.9,6,2.3,7.3c4.2,1.3,8.1-0.3,10.6-3.7c0,0,3.9-5.3,3.5-7.7
		C408.6,104.7,397.4,100.9,397.4,100.9z"/>
	
		<linearGradient id="SVGID_18_" gradientUnits="userSpaceOnUse" x1="404.2373" y1="-67.2252" x2="420.318" y2="-46.5213" gradientTransform="matrix(-0.9903 -0.1391 -0.1391 0.9903 800.6683 220.9159)">
		<stop  offset="0" style="stop-color:#2B3582"/>
		<stop  offset="1" style="stop-color:#150E42"/>
	</linearGradient>
	<path class="st24" d="M404.4,112l-0.5-0.1c0,0,2.9-4.3,1-5.3c-1.8-1.1-9.4-3.8-10.7-6.8c-1.2-2.9,0.7-6.1,3-6.8
		c0.1,0,0.3,0,0.3,0.2l0.1,0.4c0.1,0.2,0.4,0.3,0.5,0l0,0c0.1-0.2,0.4-0.2,0.5,0c0.4,0.9,1.6,2.4,5.2,3.6c5.2,1.7,8.4,4.4,7.9,8
		c0,0.2,0.2,0.4,0.4,0.3c0.4-0.2,1.1-0.2,1.8,0.6c1.3,1.4,0.2,4.5-3.3,6.7c-0.2,0.1-0.2,0.3-0.1,0.5c0.5,0.5,1.3,1.5-1.1,2.4
		c-2.5,0.9-3.8,0.6-4.3,0.4c-0.1-0.1-0.2-0.2-0.2-0.3l0.7-3.2c0-0.2-0.1-0.3-0.2-0.4L404.4,112z"/>
	
		<linearGradient id="SVGID_19_" gradientUnits="userSpaceOnUse" x1="414.5107" y1="-59.3776" x2="396.7521" y2="-45.7896" gradientTransform="matrix(-0.9903 -0.1391 -0.1391 0.9903 800.6683 220.9159)">
		<stop  offset="0" style="stop-color:#F9B776"/>
		<stop  offset="1" style="stop-color:#F47960"/>
	</linearGradient>
	<path class="st25" d="M404.2,112.6c0,0,1.8-4.3,3.7-2.8c1.8,1.5-1.8,4.9-3.4,4.9L404.2,112.6z"/>
	
		<linearGradient id="SVGID_20_" gradientUnits="userSpaceOnUse" x1="4312.9028" y1="-225.4611" x2="4304.4419" y2="-263.2866" gradientTransform="matrix(0.9903 0.1391 -0.1391 0.9903 -3885.6514 -437.2437)">
		<stop  offset="0" style="stop-color:#F9B776"/>
		<stop  offset="1" style="stop-color:#F47960"/>
	</linearGradient>
	<path class="st26" d="M431.6,167.6c1.9,9.2-1.2,18.3-1.2,18.3l4,1.7c0,0,6.2-5.6,7-19.8C437.6,166.7,433.9,167.1,431.6,167.6z"/>
	<path class="st74" d="M441.3,167.8c0.1-1.6,0.1-3.3,0-5.1c-0.6-15.9-18.8-30.6-23.1-33.8c-0.4-0.3-1-0.1-1,0.4l-2.3,21.1
		c10.8,3,15.2,10.1,16.6,17.1C433.9,167.1,437.6,166.7,441.3,167.8z"/>
	
		<linearGradient id="SVGID_21_" gradientUnits="userSpaceOnUse" x1="4282.8779" y1="6.2073" x2="4305.0444" y2="64.9485" gradientTransform="matrix(0.9903 0.1391 -0.1391 0.9903 -3885.6514 -437.2437)">
		<stop  offset="0" style="stop-color:#F9B776"/>
		<stop  offset="1" style="stop-color:#F47960"/>
	</linearGradient>
	<path class="st27" d="M354.1,176.7c-0.7-0.3-1.3-1-1.5-1.7c-0.4-1.5-0.8-3.9,0.8-4.4c2.4-0.7,5.9,4.1,5.9,4.1l1.6,3.5l1.7,1.2
		C360.8,179.6,357.7,178.4,354.1,176.7z"/>
	
		<linearGradient id="SVGID_22_" gradientUnits="userSpaceOnUse" x1="4352.3755" y1="9.3227" x2="4377.6011" y2="45.7595" gradientTransform="matrix(0.9903 0.1391 -0.1391 0.9903 -3885.6514 -437.2437)">
		<stop  offset="0" style="stop-color:#F9B776"/>
		<stop  offset="1" style="stop-color:#F47960"/>
	</linearGradient>
	<path class="st28" d="M431,183.9l-5.1-0.7c0,0,3.8,3.1,3.6,5.7c-0.2,2.6-2.8,7.8-3.8,9.1c-1.1,1.5,11.9-0.8,9.2-13.5L431,183.9z"/>
</g>
<linearGradient id="SVGID_23_" gradientUnits="userSpaceOnUse" x1="217.5197" y1="233.912" x2="282.4021" y2="233.912">
	<stop  offset="0" style="stop-color:#2DB1FF"/>
	<stop  offset="1" style="stop-color:#0082CB"/>
</linearGradient>
<polygon class="st29" points="223.1,214.6 217.5,253.2 282.4,253.2 274,214.6 "/>
<linearGradient id="SVGID_24_" gradientUnits="userSpaceOnUse" x1="114.1211" y1="152.3841" x2="373.113" y2="152.3841">
	<stop  offset="0" style="stop-color:#2DB1FF"/>
	<stop  offset="1" style="stop-color:#0082CB"/>
</linearGradient>
<path class="st30" d="M114.1,91v114.9c0,9.4,7.5,17.2,17,17.4c42,1.1,188.7,3.7,228.6,3.1c6.9-0.1,12.4-5.6,12.6-12.5
	c0.8-26.7,2-90.9-2.6-120.6c-1-6.3-6.3-11-12.6-11.2c-35.2-1.1-190.7-4.7-230.6-3.8C119.6,78.5,114.1,84.2,114.1,91z"/>
<path class="st32" d="M121.3,90.5v109.1c0,5.5,4.4,10,9.9,10.1l222.7,2.8c5.5,0.1,10-4.3,10-9.8l0.4-108.2c0-3.9-3.1-7.1-7-7.2
	l-228-4.6C124.9,82.6,121.3,86.1,121.3,90.5z"/>
<path class="st135" d="M365.6,217C365.6,217,365.6,217,365.6,217l-244.3-4.2c-0.2,0-0.3-0.2-0.3-0.3c0-0.2,0.2-0.3,0.3-0.3
	l244.3,4.2c0.2,0,0.3,0.2,0.3,0.3C366,216.8,365.8,217,365.6,217z"/>
<path class="st135" d="M245.9,222.1c-1.6,0-2.9-1.3-2.9-2.9s1.3-2.9,2.9-2.9s2.9,1.3,2.9,2.9S247.5,222.1,245.9,222.1z M245.9,217
	c-1.2,0-2.2,1-2.2,2.2s1,2.2,2.2,2.2s2.2-1,2.2-2.2S247.1,217,245.9,217z"/>
<linearGradient id="SVGID_25_" gradientUnits="userSpaceOnUse" x1="197.321" y1="256.4407" x2="300.4749" y2="256.4407">
	<stop  offset="0" style="stop-color:#2DB1FF"/>
	<stop  offset="1" style="stop-color:#0082CB"/>
</linearGradient>
<path class="st31" d="M296.4,263.5h-95c-2.6,0-4.5-1.8-4-3.8l1.2-4.8c0.4-1.4,2-2.5,3.9-2.6l91.5-2.9c2-0.1,3.7,1,4.2,2.5l2.2,7.7
	C300.9,261.6,299,263.5,296.4,263.5z"/>
<path class="st4" d="M252.5,253.6c-0.2,0-0.3-0.1-0.3-0.3c0-0.2,0.1-0.3,0.3-0.3l3.9-0.1c0.2,0,0.3,0.1,0.3,0.3
	c0,0.2-0.1,0.3-0.3,0.3L252.5,253.6C252.5,253.6,252.5,253.6,252.5,253.6z"/>
<path class="st4" d="M200.9,260.8C200.9,260.8,200.9,260.8,200.9,260.8c-0.2,0-0.4-0.2-0.3-0.4l0.6-3.5c0.3-1.9,1.9-3.3,3.8-3.3
	l41.6-0.6c0.2,0,0.3,0.1,0.3,0.3c0,0.2-0.1,0.3-0.3,0.3l-41.6,0.6c-1.6,0-2.9,1.2-3.2,2.8l-0.6,3.5
	C201.2,260.7,201.1,260.8,200.9,260.8z"/>
<rect x="262.5" y="159.5" class="st50" width="8.6" height="44.5"/>
<rect x="276.9" y="159.5" class="st50" width="8.6" height="44.5"/>
<rect x="291.3" y="159.5" class="st50" width="8.6" height="44.5"/>
<rect x="305.7" y="159.5" class="st50" width="8.6" height="44.5"/>
<rect x="320.1" y="159.5" class="st50" width="8.6" height="44.5"/>
<rect x="334.5" y="159.5" class="st50" width="8.6" height="44.5"/>
<rect x="348.9" y="159.5" class="st4" width="8.6" height="44.5"/>
<linearGradient id="SVGID_26_" gradientUnits="userSpaceOnUse" x1="266.8372" y1="191.59" x2="267.1247" y2="221.1987">
	<stop  offset="0" style="stop-color:#53D8FF"/>
	<stop  offset="1" style="stop-color:#3840F7"/>
</linearGradient>
<rect x="262.5" y="180.8" class="st33" width="8.6" height="23.3"/>
<linearGradient id="SVGID_27_" gradientUnits="userSpaceOnUse" x1="281.1953" y1="191.4994" x2="281.483" y2="221.1316">
	<stop  offset="0" style="stop-color:#53D8FF"/>
	<stop  offset="1" style="stop-color:#3840F7"/>
</linearGradient>
<rect x="276.9" y="188.8" class="st34" width="8.6" height="15.3"/>
<linearGradient id="SVGID_28_" gradientUnits="userSpaceOnUse" x1="295.6886" y1="191.4337" x2="295.976" y2="221.0276">
	<stop  offset="0" style="stop-color:#53D8FF"/>
	<stop  offset="1" style="stop-color:#3840F7"/>
</linearGradient>
<rect x="291.3" y="169" class="st35" width="8.6" height="35.1"/>
<linearGradient id="SVGID_29_" gradientUnits="userSpaceOnUse" x1="309.9558" y1="191.3138" x2="310.244" y2="221.0008">
	<stop  offset="0" style="stop-color:#53D8FF"/>
	<stop  offset="1" style="stop-color:#3840F7"/>
</linearGradient>
<rect x="305.7" y="195.6" class="st36" width="8.6" height="8.4"/>
<linearGradient id="SVGID_30_" gradientUnits="userSpaceOnUse" x1="324.4599" y1="191.2699" x2="324.7473" y2="220.8684">
	<stop  offset="0" style="stop-color:#53D8FF"/>
	<stop  offset="1" style="stop-color:#3840F7"/>
</linearGradient>
<rect x="320.1" y="173.7" class="st37" width="8.6" height="30.4"/>
<linearGradient id="SVGID_31_" gradientUnits="userSpaceOnUse" x1="338.8313" y1="191.186" x2="339.1187" y2="220.7916">
	<stop  offset="0" style="stop-color:#53D8FF"/>
	<stop  offset="1" style="stop-color:#3840F7"/>
</linearGradient>
<rect x="334.5" y="178.9" class="st38" width="8.6" height="25.1"/>
<linearGradient id="SVGID_32_" gradientUnits="userSpaceOnUse" x1="353.2005" y1="191.0999" x2="353.4881" y2="220.7178">
	<stop  offset="0" style="stop-color:#53D8FF"/>
	<stop  offset="1" style="stop-color:#3840F7"/>
</linearGradient>
<rect x="348.9" y="184.7" class="st39" width="8.6" height="19.4"/>
<g>
	<defs>
		<path id="SVGID_131_" d="M149.3,168.5c-9.8,0-17.8,8-17.8,17.8c0,9.8,8,17.8,17.8,17.8c9.8,0,17.8-8,17.8-17.8
			C167.1,176.5,159.1,168.5,149.3,168.5z M149.3,196.5c-5.6,0-10.1-4.5-10.1-10.1c0-5.6,4.5-10.1,10.1-10.1
			c5.6,0,10.1,4.5,10.1,10.1C159.4,192,154.9,196.5,149.3,196.5z"/>
	</defs>
	<clipPath id="SVGID_33_">
		<use xlink:href="#SVGID_131_"  style="overflow:visible;"/>
	</clipPath>
	<g style="clip-path:url(#SVGID_33_);">
		<linearGradient id="SVGID_34_" gradientUnits="userSpaceOnUse" x1="151.7206" y1="168.2343" x2="149.2105" y2="242.9098">
			<stop  offset="0" style="stop-color:#2DB1FF"/>
			<stop  offset="1" style="stop-color:#0082CB"/>
		</linearGradient>
		<rect x="124.4" y="182.4" class="st41" width="52.9" height="22.4"/>
		<rect x="124.4" y="161.4" class="st74" width="52.9" height="22.4"/>
	</g>
</g>
<g>
	<defs>
		<path id="SVGID_134_" d="M192.7,168.5c-9.8,0-17.8,8-17.8,17.8c0,9.8,8,17.8,17.8,17.8c9.8,0,17.8-8,17.8-17.8
			C210.5,176.5,202.5,168.5,192.7,168.5z M192.7,196.5c-5.6,0-10.1-4.5-10.1-10.1c0-5.6,4.5-10.1,10.1-10.1
			c5.6,0,10.1,4.5,10.1,10.1C202.8,192,198.3,196.5,192.7,196.5z"/>
	</defs>
	<clipPath id="SVGID_35_">
		<use xlink:href="#SVGID_134_"  style="overflow:visible;"/>
	</clipPath>
	<g style="clip-path:url(#SVGID_35_);">
		<linearGradient id="SVGID_36_" gradientUnits="userSpaceOnUse" x1="194.9368" y1="169.6869" x2="192.4266" y2="244.3626">
			<stop  offset="0" style="stop-color:#53D8FF"/>
			<stop  offset="1" style="stop-color:#3840F7"/>
		</linearGradient>
		<rect x="167.8" y="173.8" class="st43" width="52.9" height="31"/>
		<rect x="167.8" y="142.8" class="st74" width="52.9" height="31"/>
	</g>
</g>
<g>
	<defs>
		<path id="SVGID_137_" d="M236.1,168.5c-9.8,0-17.8,8-17.8,17.8c0,9.8,8,17.8,17.8,17.8c9.8,0,17.8-8,17.8-17.8
			C253.9,176.5,245.9,168.5,236.1,168.5z M236.1,196.5c-5.6,0-10.1-4.5-10.1-10.1c0-5.6,4.5-10.1,10.1-10.1
			c5.6,0,10.1,4.5,10.1,10.1C246.3,192,241.7,196.5,236.1,196.5z"/>
	</defs>
	<clipPath id="SVGID_37_">
		<use xlink:href="#SVGID_137_"  style="overflow:visible;"/>
	</clipPath>
	<g style="clip-path:url(#SVGID_37_);">
		<linearGradient id="SVGID_38_" gradientUnits="userSpaceOnUse" x1="211.2387" y1="195.4133" x2="264.1368" y2="195.4133">
			<stop  offset="0" style="stop-color:#2DB1FF"/>
			<stop  offset="1" style="stop-color:#0082CB"/>
		</linearGradient>
		<rect x="211.2" y="186" class="st45" width="52.9" height="18.8"/>
		<rect x="211.2" y="167" class="st150" width="52.9" height="18.8"/>
	</g>
</g>
<path class="st64" d="M267.7,98h-31.4c-1.3,0-2.4,1-2.4,2.2c0,1.2,1.1,2.2,2.4,2.2h31.4c1.3,0,2.4-1,2.4-2.2C270,99,269,98,267.7,98
	z"/>
<path class="st64" d="M267.7,107.7h-31.4c-1.3,0-2.4,1-2.4,2.2s1.1,2.2,2.4,2.2h31.4c1.3,0,2.4-1,2.4-2.2S269,107.7,267.7,107.7z"/>
<path class="st64" d="M267.7,146.4h-31.4c-1.3,0-2.4,1-2.4,2.2c0,1.2,1.1,2.2,2.4,2.2h31.4c1.3,0,2.4-1,2.4-2.2
	C270,147.4,269,146.4,267.7,146.4z"/>
<path class="st64" d="M267.7,136.7h-31.4c-1.3,0-2.4,1-2.4,2.2c0,1.2,1.1,2.2,2.4,2.2h31.4c1.3,0,2.4-1,2.4-2.2
	C270,137.7,269,136.7,267.7,136.7z"/>
<path class="st64" d="M267.7,127.1h-31.4c-1.3,0-2.4,1-2.4,2.2c0,1.2,1.1,2.2,2.4,2.2h31.4c1.3,0,2.4-1,2.4-2.2
	C270,128,269,127.1,267.7,127.1z"/>
<path class="st64" d="M311.4,98h-31.4c-1.3,0-2.4,1-2.4,2.2c0,1.2,1.1,2.2,2.4,2.2h31.4c1.3,0,2.4-1,2.4-2.2
	C313.7,99,312.7,98,311.4,98z"/>
<path class="st64" d="M311.4,107.7h-31.4c-1.3,0-2.4,1-2.4,2.2s1.1,2.2,2.4,2.2h31.4c1.3,0,2.4-1,2.4-2.2S312.7,107.7,311.4,107.7z"
	/>
<path class="st64" d="M311.4,146.4h-31.4c-1.3,0-2.4,1-2.4,2.2c0,1.2,1.1,2.2,2.4,2.2h31.4c1.3,0,2.4-1,2.4-2.2
	C313.7,147.4,312.7,146.4,311.4,146.4z"/>
<path class="st64" d="M311.4,136.7h-31.4c-1.3,0-2.4,1-2.4,2.2c0,1.2,1.1,2.2,2.4,2.2h31.4c1.3,0,2.4-1,2.4-2.2
	C313.7,137.7,312.7,136.7,311.4,136.7z"/>
<path class="st64" d="M311.4,127.1h-31.4c-1.3,0-2.4,1-2.4,2.2c0,1.2,1.1,2.2,2.4,2.2h31.4c1.3,0,2.4-1,2.4-2.2
	C313.7,128,312.7,127.1,311.4,127.1z"/>
<path class="st64" d="M355.1,98h-31.4c-1.3,0-2.4,1-2.4,2.2c0,1.2,1.1,2.2,2.4,2.2h31.4c1.3,0,2.4-1,2.4-2.2
	C357.4,99,356.4,98,355.1,98z"/>
<path class="st64" d="M355.1,107.7h-31.4c-1.3,0-2.4,1-2.4,2.2s1.1,2.2,2.4,2.2h31.4c1.3,0,2.4-1,2.4-2.2S356.4,107.7,355.1,107.7z"
	/>
<path class="st64" d="M355.1,146.4h-31.4c-1.3,0-2.4,1-2.4,2.2c0,1.2,1.1,2.2,2.4,2.2h31.4c1.3,0,2.4-1,2.4-2.2
	C357.4,147.4,356.4,146.4,355.1,146.4z"/>
<path class="st64" d="M355.1,136.7h-31.4c-1.3,0-2.4,1-2.4,2.2c0,1.2,1.1,2.2,2.4,2.2h31.4c1.3,0,2.4-1,2.4-2.2
	C357.4,137.7,356.4,136.7,355.1,136.7z"/>
<path class="st64" d="M355.1,127.1h-31.4c-1.3,0-2.4,1-2.4,2.2c0,1.2,1.1,2.2,2.4,2.2h31.4c1.3,0,2.4-1,2.4-2.2
	C357.4,128,356.4,127.1,355.1,127.1z"/>
<linearGradient id="SVGID_39_" gradientUnits="userSpaceOnUse" x1="217.2288" y1="-5.407" x2="104.7819" y2="287.4492">
	<stop  offset="0" style="stop-color:#53D8FF"/>
	<stop  offset="1" style="stop-color:#3840F7"/>
</linearGradient>
<path class="st46" d="M142.4,153.6h74.4c2.4,0,4.3-1.9,4.3-4.3V37.9c0-2.4-1.9-4.3-4.3-4.3l-75-0.2c-2.4,0-4.3,1.9-4.3,4.3
	l0.6,111.6C138.1,151.7,140,153.6,142.4,153.6z"/>
<path class="st152" d="M146,38.9l66.5,0.4c2.4,0,4.3,2,4.3,4.4l-0.5,100c0,2.4-1.9,4.3-4.3,4.3l-64.6,1.2c-2.4,0-4.4-1.9-4.4-4.3
	l-1.4-101.6C141.6,40.9,143.6,38.9,146,38.9z"/>
<path class="st152" d="M148.7,44.5V45c0,0.7,0.6,1.3,1.3,1.3h51.2c0.7,0,1.3-0.6,1.3-1.3v-0.5c0-0.7-0.6-1.3-1.3-1.3H150
	C149.3,43.2,148.7,43.8,148.7,44.5z"/>
<path class="st152" d="M154.4,50.3L154.4,50.3c0,0.7,0.6,1.2,1.3,1.2l44.8,0.8c0.7,0,1.3-0.6,1.3-1.3v-0.1c0-0.7-0.6-1.3-1.3-1.3
	l-44.8-0.7C155,48.9,154.4,49.5,154.4,50.3z"/>
<path class="st153" d="M149.9,145.8c-2,0-3.7-1.7-3.8-3.7l-1.5-81.8c0-2.1,1.6-3.8,3.7-3.8l60.5-1.2c1,0,2,0.4,2.7,1.1
	c0.7,0.7,1.1,1.6,1.2,2.6l1.6,82.2c0,1-0.4,2-1.1,2.7c-0.7,0.7-1.7,1.1-2.7,1.1L149.9,145.8C149.9,145.8,149.9,145.8,149.9,145.8z
	 M208.9,56.7C208.9,56.7,208.9,56.7,208.9,56.7l-60.5,1.2c-1.3,0-2.4,1.1-2.4,2.5l0,0l1.5,81.8c0,1.3,1.1,2.4,2.4,2.4c0,0,0,0,0,0
	l60.6-0.7c0.6,0,1.3-0.3,1.7-0.7c0.5-0.5,0.7-1.1,0.7-1.7l-1.6-82.2c0-0.6-0.3-1.2-0.7-1.7C210.1,56.9,209.5,56.7,208.9,56.7z"/>
<path class="st153" d="M212.1,64.9h-66c-0.4,0-0.7-0.3-0.7-0.7c0-0.4,0.3-0.7,0.7-0.7h66c0.4,0,0.7,0.3,0.7,0.7
	C212.8,64.6,212.5,64.9,212.1,64.9z"/>
<path class="st154" d="M180.9,130c-14.3,0-25.9-11.6-25.9-25.9c0-14.3,11.6-25.9,25.9-25.9c14.3,0,25.9,11.6,25.9,25.9
	C206.9,118.4,195.2,130,180.9,130z M180.9,86.3c-9.8,0-17.8,8-17.8,17.8c0,9.8,8,17.8,17.8,17.8c9.8,0,17.8-8,17.8-17.8
	C198.8,94.3,190.8,86.3,180.9,86.3z"/>
<linearGradient id="SVGID_40_" gradientUnits="userSpaceOnUse" x1="205.9882" y1="97.4358" x2="201.5565" y2="109.0263">
	<stop  offset="0" style="stop-color:#53D8FF"/>
	<stop  offset="1" style="stop-color:#3840F7"/>
</linearGradient>
<path class="st47" d="M206.8,102.1l-8.1,0.6c0,0.4,0,0.9,0,1.3c0,2.1-0.4,4.2-1.1,6l7.7,2.8c1-2.8,1.5-5.7,1.5-8.8
	C206.9,103.4,206.9,102.8,206.8,102.1z"/>
<linearGradient id="SVGID_41_" gradientUnits="userSpaceOnUse" x1="198.5054" y1="85.0606" x2="146.0841" y2="141.8141">
	<stop  offset="0" style="stop-color:#2DB1FF"/>
	<stop  offset="1" style="stop-color:#0082CB"/>
</linearGradient>
<path class="st48" d="M180.9,121.9c-9.8,0-17.8-8-17.8-17.8c0-9.8,8-17.8,17.8-17.8c1.5,0,2.9,0.2,4.3,0.5l2-7.9
	c-2-0.5-4.1-0.8-6.3-0.8c-14.3,0-25.9,11.6-25.9,25.9c0,14.3,11.6,25.9,25.9,25.9c11.2,0,20.8-7.2,24.4-17.1l-7.7-2.8
	C195.2,117,188.6,121.9,180.9,121.9z"/>
<linearGradient id="SVGID_42_" gradientUnits="userSpaceOnUse" x1="214.9081" y1="78.2458" x2="191.3862" y2="116.0853">
	<stop  offset="0" style="stop-color:#53D8FF"/>
	<stop  offset="1" style="stop-color:#3840F7"/>
</linearGradient>
<path class="st49" d="M198.7,102.7l8.1-0.6c-0.2-3.4-1.1-6.5-2.6-9.4l-7.3,3.6C197.9,98.3,198.5,100.4,198.7,102.7z"/>
<g>
	
		<linearGradient id="SVGID_43_" gradientUnits="userSpaceOnUse" x1="61.2742" y1="121.5864" x2="71.0836" y2="146.193" gradientTransform="matrix(-1 0 0 1 186.9197 0)">
		<stop  offset="0" style="stop-color:#2B3582"/>
		<stop  offset="1" style="stop-color:#150E42"/>
	</linearGradient>
	<path class="st51" d="M119.8,134.8c0,0-3.3,1.6-3.9,3.5c-0.5,1.5-4.1,1.7-4.5,4.6c-0.2,1.5-1.3,2.7-2.8,2.9
		c-3.7,0.6-9.5,2.5-10.4,9c-0.7,4.9,1.8,6.8,4.5,7.5c1.9,0.5,3.2,2.4,2.8,4.3c-0.4,1.9,0.2,4.1,3.4,5.8c7.3,3.9,14.6-9.1,14.6-9.1
		l1.5-22.7L119.8,134.8z"/>
	
		<linearGradient id="SVGID_44_" gradientUnits="userSpaceOnUse" x1="41.0361" y1="135.8027" x2="59.1585" y2="177.0353" gradientTransform="matrix(-1 0 0 1 186.9197 0)">
		<stop  offset="0" style="stop-color:#F9B776"/>
		<stop  offset="1" style="stop-color:#F47960"/>
	</linearGradient>
	<path class="st52" d="M154.2,122.9c0,0-9.4,25.6-25.4,33.7c0,0,5.3,8.7,8.1,9.2c0,0,17.1-21.9,18.9-39.9L154.2,122.9z"/>
	<path class="st50" d="M89.8,277.1l-0.5,3.9c-0.1,0.7-1.8,2.6-2.6,2.7c-1.2,0.1-1.8,0.4-3.7,0.2c-0.9-0.1-1.7-2.4-1.4-3.2
		c0.5-1.5,1.4-3.8,2.6-5.1h4.3C89.3,275.6,89.9,276.3,89.8,277.1z"/>
	
		<linearGradient id="SVGID_45_" gradientUnits="userSpaceOnUse" x1="61.9854" y1="311.9217" x2="73.9555" y2="172.0205" gradientTransform="matrix(-1 0 0 1 186.9197 0)">
		<stop  offset="0" style="stop-color:#F9B776"/>
		<stop  offset="1" style="stop-color:#F47960"/>
	</linearGradient>
	<path class="st53" d="M123.6,231.6l0.7,4.3c0,0-2.4,24.7-2.9,34.6c-0.1,1.5,0.3,3.1,1.1,4.4l4.2,6.9l-10.8-6.4l-0.2-1.3l1.8-2.4
		l-2.3-27.7c-0.1-1.6,0.2-3.3,1-4.7l2.2-4.2L123.6,231.6z"/>
	<path class="st50" d="M127.5,282.7h-3.4c-0.6,0-1.3-0.3-1.6-0.8c-1.1-1.4-3.3-4.1-4.4-4.2c-1.4-0.1-1.2,5-1.2,5H116l-1-6.3
		c-0.3-1.6,0.5-3.2,2-3.9v0c0,0,0.3,2.4,2.1,3.5c1.8,1.1,7.2,4.9,7.2,4.9s0.7-0.1,1.4,0C128.8,281.1,128.6,282.7,127.5,282.7z"/>
	
		<linearGradient id="SVGID_46_" gradientUnits="userSpaceOnUse" x1="86.0641" y1="314.0033" x2="98.0373" y2="174.0655" gradientTransform="matrix(-1 0 0 1 186.9197 0)">
		<stop  offset="0" style="stop-color:#F9B776"/>
		<stop  offset="1" style="stop-color:#F47960"/>
	</linearGradient>
	<path class="st55" d="M108.8,233.6c0,0-14.3,27.1-16.6,33.3c-2.3,6.2-3.1,11.3-3.1,11.8c0,0.8-1,1.5-3.6,1.5c-1.4,0-2-0.5-2.3-1.1
		c-0.3-0.4-0.3-1-0.1-1.5c0.8-1.7,3.4-7,4.4-9.4c1.2-2.9,3.7-16,5-20.6c1.4-4.6,2.9-9.5,8.9-14.1
		C101.5,233.6,105.5,229.6,108.8,233.6z"/>
	<path class="st74" d="M117.8,189.2c3.7-15.6-5.7-24.4-5.7-24.4c5.9-5.7,16.6-8.2,16.6-8.2s10.2,7.5,9,13.3
		c-0.7,3.4-7.2,20.6-7.2,20.6S124.6,193.3,117.8,189.2z"/>
	<path class="st50" d="M109.7,196.9c1.5-4.5,8.2-7.7,8.2-7.7c6.8,4.1,12.8,1.2,12.8,1.2s1.3,5.1,0.4,9.9c-0.9,4.8-6.8,35.5-6.8,35.5
		c-9.2,1.9-23.3-1.9-23.3-1.9C106.9,223.6,108.2,201.4,109.7,196.9z"/>
	
		<linearGradient id="SVGID_47_" gradientUnits="userSpaceOnUse" x1="60.6726" y1="174.021" x2="62.9212" y2="157.5712" gradientTransform="matrix(-1 0 0 1 186.9197 0)">
		<stop  offset="0" style="stop-color:#F9B776"/>
		<stop  offset="1" style="stop-color:#F47960"/>
	</linearGradient>
	<path class="st56" d="M122.1,146.2l-3,13.5c-0.3,1.2,0.8,1,2,0.8c2-0.4,4.5-1.1,5.3-2.7c0.1-0.2,0.1-0.3,0.2-0.5l1.3-9.3
		c0.1-0.7-0.3-1.5-1-1.8l-2.5-1.1C123.5,144.6,122.4,145.2,122.1,146.2z"/>
	
		<linearGradient id="SVGID_48_" gradientUnits="userSpaceOnUse" x1="69.94" y1="182.0372" x2="84.877" y2="182.0372" gradientTransform="matrix(-1 0 0 1 186.9197 0)">
		<stop  offset="0" style="stop-color:#F9B776"/>
		<stop  offset="1" style="stop-color:#F47960"/>
	</linearGradient>
	<path class="st57" d="M112.2,164.7c0,0-20.9,15-2.7,30.7c0,0,0.7,0.8,2.1,1.2c0.7,0.2,2.7,1.8,3.8,2.6c0.3,0.3,0.8,0.2,1-0.2l0,0
		c0.2-0.3,0.2-0.6,0.1-0.9l-2.6-5.5c-0.7-0.7-1.8-0.7-2.6-0.1l0,0c-0.5,0.4-1.2,0.2-1.5-0.3c-1.4-2.9-4.1-11.3,6.8-20.9
		c0.4-0.4,0.5-1,0.3-1.4C116.1,168.4,114.3,165.5,112.2,164.7z"/>
	
		<linearGradient id="SVGID_49_" gradientUnits="userSpaceOnUse" x1="54.9972" y1="152.8122" x2="74.616" y2="117.8973" gradientTransform="matrix(-1 0 0 1 186.9197 0)">
		<stop  offset="0" style="stop-color:#F9B776"/>
		<stop  offset="1" style="stop-color:#F47960"/>
	</linearGradient>
	<path class="st59" d="M125.6,133.4c0,0,3.5,1.5,6,6.6c2.4,5.1,0.6,7.5-1.7,7.8c-2.3,0.3-5.6,0.3-9.2-3
		C117.1,141.5,121,131.6,125.6,133.4z"/>
	
		<linearGradient id="SVGID_50_" gradientUnits="userSpaceOnUse" x1="59.2162" y1="122.4068" x2="69.0256" y2="147.0134" gradientTransform="matrix(-1 0 0 1 186.9197 0)">
		<stop  offset="0" style="stop-color:#2B3582"/>
		<stop  offset="1" style="stop-color:#150E42"/>
	</linearGradient>
	<path class="st60" d="M123.1,142.1c0,0-2.7-7.5,4-7.6l1.6,1.1c0,0,2.4-4.2-1.6-6.1c-4-2-8.7-0.3-10.4,5.1c-1.7,5.4-2,9,0.8,11.6
		c2.8,2.6,4-0.3,4-0.3s-1.5-2.4-0.9-3.7s2.1,0.3,2.1,0.3L123.1,142.1z"/>
	
		<linearGradient id="SVGID_51_" gradientUnits="userSpaceOnUse" x1="59.1732" y1="155.1588" x2="78.7921" y2="120.2439" gradientTransform="matrix(-1 0 0 1 186.9197 0)">
		<stop  offset="0" style="stop-color:#F9B776"/>
		<stop  offset="1" style="stop-color:#F47960"/>
	</linearGradient>
	<path class="st61" d="M122.4,142.9c0,0-1.4-3.9-3.2-2.3c-1.8,1.5,1.5,3.6,2.7,4.2L122.4,142.9z"/>
	
		<linearGradient id="SVGID_52_" gradientUnits="userSpaceOnUse" x1="37.455" y1="137.3767" x2="55.5774" y2="178.6093" gradientTransform="matrix(-1 0 0 1 186.9197 0)">
		<stop  offset="0" style="stop-color:#F9B776"/>
		<stop  offset="1" style="stop-color:#F47960"/>
	</linearGradient>
	<path class="st62" d="M155.1,127.5c0.1,0.5-1.5,1.2-2.5-0.7c0-0.9-0.6-4.7,0-5.5c2.8-3.9,8.4-8.7,8.4-8.7c0.9,0.9,0.2,1.8,0.2,1.8
		l-2.7,2.8c0.6,1,1.2,1.9,1.6,3.1c0.2,0.9,0.1,1.9-0.4,2.8c-0.5,0.8-1.1,1.9-1.7,2.8C156.8,127.5,155.1,127.5,155.1,127.5z"/>
	
		<linearGradient id="SVGID_53_" gradientUnits="userSpaceOnUse" x1="29.0917" y1="122.3001" x2="32.8368" y2="122.3001" gradientTransform="matrix(-1 0 0 1 186.9197 0)">
		<stop  offset="0" style="stop-color:#F9B776"/>
		<stop  offset="1" style="stop-color:#F47960"/>
	</linearGradient>
	<path class="st63" d="M154.1,123.2l0.8-2.1l2.4-2.1c0.5,0.3,0.8,0.7,0.2,1.6c-0.5,0.9-1.3,5-1.3,5L154.1,123.2z"/>
</g>
</svg>
