<?xml version="1.0" encoding="utf-8"?>
<!-- Generator: Adobe Illustrator 22.0.1, SVG Export Plug-In . SVG Version: 6.00 Build 0)  -->
<svg version="1.1" id="Layer_1" xmlns="http://www.w3.org/2000/svg" xmlns:xlink="http://www.w3.org/1999/xlink" x="0px" y="0px"
	 viewBox="0 0 482.9 303" style="enable-background:new 0 0 482.9 303;" xml:space="preserve">
<style type="text/css">
	.st0{fill:#F5F5F5;}
	.st1{fill:#2DC1FF;}
	.st2{fill:#2DB2FF;}
	.st3{opacity:0.2;fill:url(#SVGID_1_);}
	.st4{fill:#FFFFFF;}
	.st5{opacity:0.2;fill:url(#SVGID_2_);}
	.st6{opacity:0.2;fill:url(#SVGID_3_);}
	.st7{opacity:0.69;fill:#FFFFFF;}
	.st8{opacity:0.2;fill:url(#SVGID_4_);}
	.st9{opacity:0.2;fill:url(#SVGID_5_);}
	.st10{opacity:0.2;fill:url(#SVGID_6_);}
	.st11{opacity:0.2;fill:url(#SVGID_7_);}
	.st12{opacity:0.2;fill:#2DB6FF;}
	.st13{fill:url(#SVGID_8_);}
	.st14{opacity:0.37;fill:#FFFFFF;}
	.st15{fill:url(#SVGID_9_);}
	.st16{fill:url(#SVGID_10_);}
	.st17{fill:url(#SVGID_11_);}
	.st18{fill:url(#SVGID_12_);}
	.st19{fill:url(#SVGID_13_);}
	.st20{fill:url(#SVGID_14_);}
	.st21{fill:url(#SVGID_15_);}
	.st22{fill:url(#SVGID_16_);}
	.st23{fill:url(#SVGID_17_);}
	.st24{fill:url(#SVGID_18_);}
	.st25{fill:url(#SVGID_19_);}
	.st26{fill:url(#SVGID_20_);}
	.st27{fill:url(#SVGID_21_);}
	.st28{fill:url(#SVGID_22_);}
	.st29{fill:url(#SVGID_23_);}
	.st30{fill:url(#SVGID_24_);}
	.st31{fill:url(#SVGID_25_);}
	.st32{fill:#F9F9F9;}
	.st33{fill:url(#SVGID_26_);}
	.st34{fill:url(#SVGID_27_);}
	.st35{fill:url(#SVGID_28_);}
	.st36{fill:url(#SVGID_29_);}
	.st37{fill:url(#SVGID_30_);}
	.st38{fill:url(#SVGID_31_);}
	.st39{fill:url(#SVGID_32_);}
	.st40{fill:url(#SVGID_33_);}
	.st41{fill:url(#SVGID_34_);}
	.st42{fill:url(#SVGID_35_);}
	.st43{fill:url(#SVGID_36_);}
	.st44{fill:url(#SVGID_37_);}
	.st45{fill:url(#SVGID_38_);}
	.st46{fill:url(#SVGID_39_);}
	.st47{fill:url(#SVGID_40_);}
	.st48{fill:url(#SVGID_41_);}
	.st49{fill:url(#SVGID_42_);}
	.st50{fill:#0082CB;}
	.st51{fill:url(#SVGID_43_);}
	.st52{fill:url(#SVGID_44_);}
	.st53{fill:url(#SVGID_45_);}
	.st54{opacity:0.75;fill:#FFFFFF;}
	.st55{fill:url(#SVGID_46_);}
	.st56{fill:url(#SVGID_47_);}
	.st57{fill:url(#SVGID_48_);}
	.st58{opacity:0.75;fill:#F9F9F9;}
	.st59{fill:url(#SVGID_49_);}
	.st60{fill:url(#SVGID_50_);}
	.st61{fill:url(#SVGID_51_);}
	.st62{fill:url(#SVGID_52_);}
	.st63{fill:url(#SVGID_53_);}
	.st64{opacity:0.37;fill:#2DB1FF;}
	.st65{fill:url(#SVGID_54_);}
	.st66{fill:url(#SVGID_55_);}
	.st67{fill:url(#SVGID_56_);}
	.st68{fill:url(#SVGID_57_);}
	.st69{fill:url(#SVGID_58_);}
	.st70{fill:url(#SVGID_59_);}
	.st71{fill:url(#SVGID_60_);}
	.st72{fill:url(#SVGID_61_);}
	.st73{fill:url(#SVGID_62_);}
	.st74{fill:#2DB1FF;}
	.st75{fill:url(#SVGID_63_);}
	.st76{fill:url(#SVGID_64_);}
	.st77{fill:url(#SVGID_65_);}
	.st78{fill:url(#SVGID_66_);}
	.st79{fill:url(#SVGID_67_);}
	.st80{fill:url(#SVGID_68_);}
	.st81{fill:url(#SVGID_69_);}
	.st82{fill:url(#SVGID_70_);}
	.st83{fill:url(#SVGID_71_);}
	.st84{fill:url(#SVGID_72_);}
	.st85{fill:url(#SVGID_73_);}
	.st86{fill:url(#SVGID_74_);}
	.st87{fill:url(#SVGID_75_);}
	.st88{fill:url(#SVGID_76_);}
	.st89{fill:url(#SVGID_77_);}
	.st90{fill:url(#SVGID_78_);}
	.st91{fill:url(#SVGID_79_);}
	.st92{fill:url(#SVGID_80_);}
	.st93{fill:url(#SVGID_81_);}
	.st94{fill:url(#SVGID_82_);}
	.st95{fill:url(#SVGID_83_);}
	.st96{fill:url(#SVGID_84_);}
	.st97{opacity:0.2;fill:url(#SVGID_85_);}
	.st98{opacity:0.2;fill:url(#SVGID_86_);}
	.st99{opacity:0.2;fill:url(#SVGID_87_);}
	.st100{opacity:0.2;fill:url(#SVGID_88_);}
	.st101{opacity:0.2;fill:url(#SVGID_89_);}
	.st102{opacity:0.2;fill:url(#SVGID_90_);}
	.st103{opacity:0.2;fill:url(#SVGID_91_);}
	.st104{fill:url(#SVGID_92_);}
	.st105{fill:url(#SVGID_93_);}
	.st106{fill:url(#SVGID_94_);}
	.st107{fill:url(#SVGID_95_);}
	.st108{fill:url(#SVGID_96_);}
	.st109{fill:url(#SVGID_97_);}
	.st110{fill:url(#SVGID_98_);}
	.st111{fill:url(#SVGID_99_);}
	.st112{fill:url(#SVGID_100_);}
	.st113{fill:url(#SVGID_101_);}
	.st114{fill:url(#SVGID_102_);}
	.st115{fill:url(#SVGID_103_);}
	.st116{fill:url(#SVGID_104_);}
	.st117{fill:url(#SVGID_105_);}
	.st118{fill:url(#SVGID_106_);}
	.st119{fill:url(#SVGID_107_);}
	.st120{fill:url(#SVGID_108_);}
	.st121{fill:url(#SVGID_109_);}
	.st122{fill:url(#SVGID_110_);}
	.st123{fill:url(#SVGID_111_);}
	.st124{fill:url(#SVGID_112_);}
	.st125{fill:url(#SVGID_113_);}
	.st126{fill:url(#SVGID_114_);}
	.st127{fill:url(#SVGID_115_);}
	.st128{fill:url(#SVGID_116_);}
	.st129{fill:url(#SVGID_117_);}
	.st130{fill:url(#SVGID_118_);}
	.st131{fill:url(#SVGID_119_);}
	.st132{fill:url(#SVGID_120_);}
	.st133{fill:url(#SVGID_121_);}
	.st134{fill:url(#SVGID_122_);}
	.st135{opacity:0.65;fill:#FFFFFF;}
	.st136{fill:url(#SVGID_123_);}
	.st137{fill:url(#SVGID_124_);}
	.st138{fill:url(#SVGID_125_);}
	.st139{fill:url(#SVGID_126_);}
	.st140{fill:url(#SVGID_127_);}
	.st141{fill:url(#SVGID_128_);}
	.st142{fill:url(#SVGID_129_);}
	.st143{fill:url(#SVGID_130_);}
	.st144{clip-path:url(#SVGID_132_);}
	.st145{fill:url(#SVGID_133_);}
	.st146{clip-path:url(#SVGID_135_);}
	.st147{fill:url(#SVGID_136_);}
	.st148{clip-path:url(#SVGID_138_);}
	.st149{fill:url(#SVGID_139_);}
	.st150{opacity:0.6;fill:#2DB1FF;}
	.st151{fill:url(#SVGID_140_);}
	.st152{opacity:0.6;fill:#FFFFFF;}
	.st153{opacity:0.61;fill:#FFFFFF;}
	.st154{opacity:0.73;fill:#FFFFFF;}
	.st155{fill:url(#SVGID_141_);}
	.st156{fill:url(#SVGID_142_);}
	.st157{fill:url(#SVGID_143_);}
	.st158{fill:url(#SVGID_144_);}
	.st159{fill:url(#SVGID_145_);}
	.st160{fill:url(#SVGID_146_);}
	.st161{fill:url(#SVGID_147_);}
	.st162{fill:url(#SVGID_148_);}
	.st163{fill:url(#SVGID_149_);}
	.st164{fill:url(#SVGID_150_);}
	.st165{fill:url(#SVGID_151_);}
	.st166{fill:url(#SVGID_152_);}
	.st167{fill:url(#SVGID_153_);}
	.st168{fill:url(#SVGID_154_);}
	.st169{fill:url(#SVGID_155_);}
	.st170{fill:url(#SVGID_156_);}
	.st171{fill:url(#SVGID_157_);}
	.st172{fill:url(#SVGID_158_);}
	.st173{fill:url(#SVGID_159_);}
	.st174{fill:url(#SVGID_160_);}
	.st175{fill:url(#SVGID_161_);}
	.st176{fill:url(#SVGID_162_);}
	.st177{fill:url(#SVGID_163_);}
	.st178{fill:url(#SVGID_164_);}
	.st179{fill:url(#SVGID_165_);}
	.st180{opacity:0.2;fill:url(#SVGID_166_);}
	.st181{opacity:0.2;fill:url(#SVGID_167_);}
	.st182{opacity:0.2;fill:url(#SVGID_168_);}
	.st183{opacity:0.2;fill:url(#SVGID_169_);}
	.st184{opacity:0.2;fill:url(#SVGID_170_);}
	.st185{opacity:0.2;fill:url(#SVGID_171_);}
	.st186{opacity:0.2;fill:url(#SVGID_172_);}
	.st187{fill:url(#SVGID_173_);}
	.st188{opacity:0.2;fill:url(#SVGID_174_);}
	.st189{opacity:0.2;fill:url(#SVGID_175_);}
	.st190{opacity:0.2;fill:url(#SVGID_176_);}
	.st191{opacity:0.2;fill:url(#SVGID_177_);}
	.st192{opacity:0.2;fill:url(#SVGID_178_);}
	.st193{opacity:0.2;fill:url(#SVGID_179_);}
	.st194{opacity:0.2;fill:url(#SVGID_180_);}
	.st195{fill:url(#SVGID_181_);}
	.st196{fill:url(#SVGID_182_);}
	.st197{fill:url(#SVGID_183_);}
	.st198{fill:url(#SVGID_184_);}
	.st199{fill:url(#SVGID_185_);}
	.st200{fill:url(#SVGID_186_);}
	.st201{fill:url(#SVGID_187_);}
	.st202{fill:url(#SVGID_188_);}
	.st203{fill:url(#SVGID_189_);}
	.st204{fill:url(#SVGID_190_);}
	.st205{fill:url(#SVGID_191_);}
	.st206{fill:url(#SVGID_192_);}
	.st207{fill:url(#SVGID_193_);}
	.st208{fill:url(#SVGID_194_);}
	.st209{fill:url(#SVGID_195_);}
	.st210{fill:url(#SVGID_196_);}
	.st211{fill:url(#SVGID_197_);}
	.st212{fill:url(#SVGID_198_);}
	.st213{fill:url(#SVGID_199_);}
	.st214{fill:url(#SVGID_200_);}
	.st215{fill:url(#SVGID_201_);}
	.st216{fill:url(#SVGID_202_);}
	.st217{fill:url(#SVGID_203_);}
	.st218{fill:url(#SVGID_204_);}
	.st219{fill:url(#SVGID_205_);}
	.st220{fill:url(#SVGID_206_);}
	.st221{fill:url(#SVGID_207_);}
	.st222{fill:url(#SVGID_208_);}
	.st223{fill:url(#SVGID_209_);}
	.st224{fill:url(#SVGID_210_);}
	.st225{fill:url(#SVGID_211_);}
	.st226{fill:url(#SVGID_212_);}
	.st227{fill:url(#SVGID_213_);}
	.st228{fill:url(#SVGID_214_);}
	.st229{fill:url(#SVGID_215_);}
	.st230{fill:url(#SVGID_216_);}
	.st231{fill:#F7A26F;}
	.st232{fill:url(#SVGID_217_);}
	.st233{opacity:0.23;fill:#FFFFFF;}
	.st234{fill:url(#SVGID_218_);}
	.st235{fill:url(#SVGID_219_);}
	.st236{fill:url(#SVGID_220_);}
	.st237{fill:url(#SVGID_221_);}
	.st238{fill:url(#SVGID_222_);}
	.st239{fill:url(#SVGID_223_);}
	.st240{fill:url(#SVGID_224_);}
	.st241{fill:url(#SVGID_225_);}
	.st242{fill:url(#SVGID_226_);}
	.st243{fill:url(#SVGID_227_);}
	.st244{fill:url(#SVGID_228_);}
	.st245{fill:url(#SVGID_229_);}
	.st246{fill:url(#SVGID_230_);}
	.st247{fill:url(#SVGID_231_);}
	.st248{fill:url(#SVGID_232_);}
	.st249{fill:url(#SVGID_233_);}
	.st250{fill:url(#SVGID_234_);}
	.st251{fill:url(#SVGID_235_);}
	.st252{fill:url(#SVGID_236_);}
	.st253{fill:url(#SVGID_237_);}
	.st254{fill:url(#SVGID_238_);}
	.st255{fill:url(#SVGID_239_);}
	.st256{fill:url(#SVGID_240_);}
	.st257{fill:url(#SVGID_241_);}
	.st258{fill:url(#SVGID_242_);}
	.st259{fill:url(#SVGID_243_);}
	.st260{fill:url(#SVGID_244_);}
	.st261{fill:url(#SVGID_245_);}
	.st262{fill:url(#SVGID_246_);}
	.st263{fill:url(#SVGID_247_);}
	.st264{fill:url(#SVGID_248_);}
	.st265{fill:url(#SVGID_249_);}
	.st266{fill:url(#SVGID_250_);}
	.st267{fill:url(#SVGID_251_);}
	.st268{fill:url(#SVGID_252_);}
	.st269{fill:#3F67F9;}
	.st270{fill:url(#SVGID_253_);}
	.st271{fill:#F8AB72;}
	.st272{opacity:0.2;fill:url(#SVGID_254_);}
	.st273{opacity:0.2;fill:url(#SVGID_255_);}
	.st274{opacity:0.2;fill:url(#SVGID_256_);}
	.st275{opacity:0.2;fill:url(#SVGID_257_);}
	.st276{opacity:0.2;fill:url(#SVGID_258_);}
	.st277{opacity:0.2;fill:url(#SVGID_259_);}
	.st278{opacity:0.2;fill:url(#SVGID_260_);}
	.st279{fill:url(#SVGID_261_);}
	.st280{fill:url(#SVGID_262_);}
	.st281{opacity:0.5;fill:#3F67F9;}
	.st282{fill:url(#SVGID_263_);}
	.st283{fill:url(#SVGID_264_);}
	.st284{fill:url(#SVGID_265_);}
	.st285{fill:url(#SVGID_266_);}
	.st286{fill:url(#SVGID_267_);}
	.st287{fill:url(#SVGID_268_);}
	.st288{fill:url(#SVGID_269_);}
	.st289{fill:url(#SVGID_270_);}
	.st290{fill:url(#SVGID_271_);}
	.st291{fill:url(#SVGID_272_);}
	.st292{fill:url(#SVGID_273_);}
	.st293{fill:url(#SVGID_274_);}
	.st294{fill:url(#SVGID_275_);}
	.st295{fill:url(#SVGID_276_);}
	.st296{opacity:0.37;}
	.st297{clip-path:url(#SVGID_278_);fill:#2DB1FF;}
	.st298{clip-path:url(#SVGID_280_);fill:#2DB1FF;}
	.st299{clip-path:url(#SVGID_282_);fill:#2DB1FF;}
	.st300{clip-path:url(#SVGID_284_);fill:#2DB1FF;}
	.st301{clip-path:url(#SVGID_286_);fill:#2DB1FF;}
	.st302{clip-path:url(#SVGID_288_);fill:#2DB1FF;}
	.st303{clip-path:url(#SVGID_290_);fill:#2DB1FF;}
	.st304{clip-path:url(#SVGID_292_);fill:#2DB1FF;}
	.st305{clip-path:url(#SVGID_294_);fill:#2DB1FF;}
	.st306{clip-path:url(#SVGID_296_);fill:#2DB1FF;}
	.st307{clip-path:url(#SVGID_298_);fill:#2DB1FF;}
	.st308{clip-path:url(#SVGID_300_);fill:#2DB1FF;}
	.st309{clip-path:url(#SVGID_302_);fill:#2DB1FF;}
	.st310{clip-path:url(#SVGID_304_);fill:#2DB1FF;}
	.st311{clip-path:url(#SVGID_306_);fill:#2DB1FF;}
	.st312{clip-path:url(#SVGID_308_);fill:#2DB1FF;}
	.st313{clip-path:url(#SVGID_310_);fill:#2DB1FF;}
	.st314{clip-path:url(#SVGID_312_);fill:#2DB1FF;}
	.st315{clip-path:url(#SVGID_314_);fill:#2DB1FF;}
	.st316{clip-path:url(#SVGID_316_);fill:#2DB1FF;}
	.st317{clip-path:url(#SVGID_318_);fill:#2DB1FF;}
	.st318{clip-path:url(#SVGID_320_);fill:#2DB1FF;}
	.st319{clip-path:url(#SVGID_322_);fill:#2DB1FF;}
	.st320{clip-path:url(#SVGID_324_);fill:#2DB1FF;}
	.st321{clip-path:url(#SVGID_326_);fill:#2DB1FF;}
	.st322{clip-path:url(#SVGID_328_);fill:#2DB1FF;}
	.st323{fill:url(#SVGID_329_);}
	.st324{fill:url(#SVGID_330_);}
	.st325{fill:url(#SVGID_331_);}
	.st326{fill:url(#SVGID_332_);}
	.st327{fill:url(#SVGID_333_);}
	.st328{fill:url(#SVGID_334_);}
	.st329{fill:url(#SVGID_335_);}
	.st330{fill:url(#SVGID_336_);}
	.st331{fill:url(#SVGID_337_);}
	.st332{fill:url(#SVGID_338_);}
	.st333{fill:url(#SVGID_339_);}
	.st334{fill:url(#SVGID_340_);}
	.st335{fill:url(#SVGID_341_);}
	.st336{fill:url(#SVGID_342_);}
	.st337{fill:url(#SVGID_343_);}
	.st338{fill:url(#SVGID_344_);}
	.st339{fill:url(#SVGID_345_);}
	.st340{fill:url(#SVGID_346_);}
	.st341{fill:url(#SVGID_347_);}
	.st342{fill:url(#SVGID_348_);}
	.st343{fill:url(#SVGID_349_);}
	.st344{fill:url(#SVGID_350_);}
	.st345{fill:url(#SVGID_351_);}
	.st346{fill:url(#SVGID_352_);}
	.st347{fill:url(#SVGID_353_);}
	.st348{fill:url(#SVGID_354_);}
	.st349{fill:url(#SVGID_355_);}
	.st350{fill:url(#SVGID_356_);}
	.st351{fill:url(#SVGID_357_);}
	.st352{fill:url(#SVGID_358_);}
	.st353{fill:url(#SVGID_359_);}
	.st354{fill:url(#SVGID_360_);}
	.st355{fill:url(#SVGID_361_);}
	.st356{fill:url(#SVGID_362_);}
	.st357{fill:url(#SVGID_363_);}
	.st358{fill:url(#SVGID_364_);}
	.st359{fill:url(#SVGID_365_);}
	.st360{fill:url(#SVGID_366_);}
	.st361{fill:url(#SVGID_367_);}
	.st362{fill:url(#SVGID_368_);}
	.st363{fill:url(#SVGID_369_);}
	.st364{fill:url(#SVGID_370_);}
	.st365{fill:url(#SVGID_371_);}
	.st366{fill:url(#SVGID_372_);}
	.st367{fill:url(#SVGID_373_);}
	.st368{opacity:0.2;fill:url(#SVGID_374_);}
	.st369{opacity:0.2;fill:url(#SVGID_375_);}
	.st370{opacity:0.2;fill:url(#SVGID_376_);}
	.st371{opacity:0.2;fill:url(#SVGID_377_);}
	.st372{opacity:0.2;fill:url(#SVGID_378_);}
	.st373{opacity:0.2;fill:url(#SVGID_379_);}
	.st374{opacity:0.2;fill:url(#SVGID_380_);}
	.st375{fill:url(#SVGID_381_);}
	.st376{fill:#007CFF;}
	.st377{fill:url(#SVGID_382_);}
	.st378{opacity:0.2;fill:#007CFF;}
	.st379{opacity:0.1;fill:#007CFF;}
	.st380{opacity:0.2;fill:#FFFFFF;}
	.st381{opacity:0.4;fill:#C5E3FC;}
	.st382{opacity:0.8;fill:#FFFFFF;}
	.st383{opacity:0.4;fill:#FFFFFF;}
	.st384{fill:#1A2E35;}
	.st385{opacity:0.6;fill:#007CFF;}
	.st386{opacity:0.5;fill:#FFFFFF;}
	.st387{fill:url(#SVGID_383_);}
	.st388{fill:url(#SVGID_384_);}
	.st389{fill:url(#SVGID_385_);}
	.st390{fill:url(#SVGID_386_);}
	.st391{fill:url(#SVGID_387_);}
	.st392{fill:url(#SVGID_388_);}
	.st393{fill:url(#SVGID_389_);}
	.st394{fill:url(#SVGID_390_);}
	.st395{fill:url(#SVGID_391_);}
	.st396{opacity:0.2;fill:url(#SVGID_392_);}
	.st397{opacity:0.2;fill:url(#SVGID_393_);}
	.st398{opacity:0.2;fill:url(#SVGID_394_);}
	.st399{opacity:0.2;fill:url(#SVGID_395_);}
	.st400{opacity:0.2;fill:url(#SVGID_396_);}
	.st401{opacity:0.2;fill:url(#SVGID_397_);}
	.st402{opacity:0.2;fill:url(#SVGID_398_);}
	.st403{fill:url(#SVGID_399_);}
	.st404{fill:url(#SVGID_400_);}
	.st405{opacity:0.37;fill:#E5E5E5;}
	.st406{opacity:0.64;}
	.st407{fill:url(#SVGID_401_);}
	.st408{fill:url(#SVGID_402_);}
	.st409{opacity:0.56;fill:#FFFFFF;}
	.st410{fill:url(#SVGID_403_);}
	.st411{fill:url(#SVGID_404_);}
	.st412{fill:url(#SVGID_405_);}
	.st413{fill:url(#SVGID_406_);}
	.st414{fill:url(#SVGID_407_);}
	.st415{fill:url(#SVGID_408_);}
	.st416{fill:url(#SVGID_409_);}
	.st417{fill:url(#SVGID_410_);}
	.st418{fill:url(#SVGID_411_);}
	.st419{fill:url(#SVGID_412_);}
	.st420{fill:url(#SVGID_413_);}
	.st421{fill:url(#SVGID_414_);}
	.st422{fill:url(#SVGID_415_);}
	.st423{fill:url(#SVGID_416_);}
	.st424{fill:url(#SVGID_417_);}
	.st425{fill:url(#SVGID_418_);}
	.st426{fill:url(#SVGID_419_);}
	.st427{fill:url(#SVGID_420_);}
	.st428{fill:url(#SVGID_421_);}
	.st429{fill:url(#SVGID_422_);}
	.st430{fill:url(#SVGID_423_);}
	.st431{fill:url(#SVGID_424_);}
	.st432{fill:url(#SVGID_425_);}
	.st433{fill:url(#SVGID_426_);}
	.st434{fill:url(#SVGID_427_);}
	.st435{fill:url(#SVGID_428_);}
	.st436{fill:url(#SVGID_429_);}
	.st437{fill:url(#SVGID_430_);}
	.st438{fill:url(#SVGID_431_);}
	.st439{fill:url(#SVGID_432_);}
	.st440{fill:url(#SVGID_433_);}
	.st441{fill:url(#SVGID_434_);}
	.st442{fill:url(#SVGID_435_);}
	.st443{fill:url(#SVGID_436_);}
	.st444{fill:url(#SVGID_437_);}
	.st445{fill:url(#SVGID_438_);}
	.st446{fill:url(#SVGID_439_);}
	.st447{fill:url(#SVGID_440_);}
	.st448{fill:url(#SVGID_441_);}
	.st449{fill:url(#SVGID_442_);}
	.st450{fill:url(#SVGID_443_);}
	.st451{fill:url(#SVGID_444_);}
	.st452{fill:url(#SVGID_445_);}
	.st453{fill:url(#SVGID_446_);}
	.st454{fill:url(#SVGID_447_);}
	.st455{fill:url(#SVGID_448_);}
	.st456{fill:url(#SVGID_449_);}
	.st457{fill:url(#SVGID_450_);}
	.st458{fill:url(#SVGID_451_);}
	.st459{fill:url(#SVGID_452_);}
	.st460{fill:url(#SVGID_453_);}
	.st461{fill:url(#SVGID_454_);}
	.st462{fill:url(#SVGID_455_);}
	.st463{fill:url(#SVGID_456_);}
	.st464{fill:url(#SVGID_457_);}
	.st465{fill:url(#SVGID_458_);}
	.st466{fill:url(#SVGID_459_);}
	.st467{fill:url(#SVGID_460_);}
	.st468{fill:url(#SVGID_461_);}
	.st469{fill:url(#SVGID_462_);}
	.st470{fill:#A65958;}
	.st471{fill:#D268CC;}
	.st472{opacity:0.2;}
	.st473{fill:#455A64;}
	.st474{fill:#FAFAFA;}
	.st475{fill:#2B454E;}
	.st476{fill:#803535;}
	.st477{fill:#182E36;}
	.st478{opacity:0.4;}
	.st479{opacity:0.3;}
	.st480{fill:url(#SVGID_463_);}
	.st481{fill:#CDEBF7;}
	.st482{fill:#2A464E;}
	.st483{fill:url(#SVGID_464_);}
	.st484{fill:url(#SVGID_465_);}
	.st485{fill:#E1E1E1;}
	.st486{fill:#DFDFDF;}
	.st487{opacity:0.6;fill:#CDE8F7;}
	.st488{fill:#179AE6;}
	.st489{fill:#28ACF9;}
	.st490{opacity:0.3;fill:#0082CB;}
	.st491{opacity:0.5;fill:#2DB1FF;}
	.st492{opacity:0.3;fill:#2DB1FF;}
	.st493{opacity:0.2;fill:#2DB1FF;}
	.st494{fill:url(#SVGID_466_);}
	.st495{fill:none;stroke:#0082CB;stroke-miterlimit:10;}
	.st496{fill:url(#SVGID_467_);}
	.st497{fill:url(#SVGID_468_);}
	.st498{fill:url(#SVGID_469_);}
	.st499{fill:url(#SVGID_470_);}
	.st500{fill:url(#SVGID_471_);}
	.st501{fill:url(#SVGID_472_);}
	.st502{fill:url(#SVGID_473_);}
	.st503{fill:url(#SVGID_474_);}
	.st504{fill:url(#SVGID_475_);}
	.st505{fill:url(#SVGID_476_);}
	.st506{fill:url(#SVGID_477_);}
	.st507{fill:url(#SVGID_478_);}
	.st508{fill:url(#SVGID_479_);}
	.st509{fill:url(#SVGID_480_);}
	.st510{fill:url(#SVGID_481_);}
	.st511{fill:url(#SVGID_482_);}
	.st512{fill:url(#SVGID_483_);}
	.st513{fill:url(#SVGID_484_);}
	.st514{fill:url(#SVGID_485_);}
</style>
<g>
	<path class="st0" d="M130.3,292.8c0,0-40.8-5.4-60.2-1.2c-19.4,4.2-67.4-18.7-51.5-54.6s33.9-58.2,13.1-77.9S4.4,102,25.9,81
		c21.5-21,27.9,0.6,45-7.1c17.1-7.7-4.6-48.2,43.7-59.6s85.8,23.1,107.8,19.2c22-3.9,55.7-27.8,79.4-26.8
		c23.7,1,20.8,36.2,52.2,34.1s56.1-5.6,76.5,24.3c20.4,29.9,15.5,67.9-4,82.9c-19.4,15-15.6,35.2,20.2,36.3
		c35.8,1.2,31.8,43,2.6,73.9c-29.2,30.9-54.3,31.2-83.5,33.3C336.6,293.6,130.3,292.8,130.3,292.8z"/>
	<g>
		<path class="st1" d="M187.4,50.3c-0.1,0-0.1-0.1-0.1-0.2c0-0.3-0.1-0.6-0.1-0.9c0-0.1,0.1-0.2,0.2-0.3c0.1,0,0.2,0.1,0.3,0.2
			c0,0.3,0.1,0.6,0.1,0.9c0,0.1-0.1,0.2-0.2,0.3C187.4,50.3,187.4,50.3,187.4,50.3z"/>
		<path class="st1" d="M187.1,46.4c-0.1,0-0.1-0.1-0.1-0.2c0-0.6,0-1.2,0.1-1.9c0-0.1,0.1-0.2,0.2-0.2c0.1,0,0.2,0.1,0.2,0.2
			c0,0.6-0.1,1.2-0.1,1.8C187.4,46.3,187.3,46.4,187.1,46.4C187.1,46.4,187.1,46.4,187.1,46.4z M187.6,41.6c-0.1,0-0.2-0.1-0.1-0.3
			c0.1-0.6,0.3-1.2,0.5-1.8c0-0.1,0.2-0.2,0.3-0.2c0.1,0,0.2,0.2,0.2,0.3c-0.2,0.6-0.3,1.2-0.4,1.8
			C187.8,41.5,187.7,41.6,187.6,41.6C187.6,41.6,187.6,41.6,187.6,41.6z M189,36.9C189,36.9,189,36.9,189,36.9
			c-0.1-0.1-0.2-0.2-0.1-0.3c0.2-0.6,0.5-1.1,0.8-1.7c0.1-0.1,0.2-0.2,0.3-0.1c0.1,0.1,0.2,0.2,0.1,0.3c-0.3,0.5-0.6,1.1-0.8,1.7
			C189.3,36.9,189.1,37,189,36.9z M191.4,32.7C191.4,32.7,191.4,32.7,191.4,32.7c-0.1-0.1-0.2-0.2-0.1-0.3c0.4-0.5,0.7-1,1.1-1.5
			c0.1-0.1,0.2-0.1,0.3,0c0.1,0.1,0.1,0.2,0,0.3c-0.4,0.5-0.8,1-1.1,1.5C191.6,32.7,191.5,32.7,191.4,32.7z M194.6,29.1
			C194.6,29,194.6,29,194.6,29.1c-0.2-0.1-0.2-0.3-0.1-0.4c0.5-0.4,0.9-0.8,1.4-1.2c0.1-0.1,0.2-0.1,0.3,0c0.1,0.1,0.1,0.2,0,0.3
			c-0.5,0.4-0.9,0.8-1.4,1.2C194.8,29.1,194.7,29.1,194.6,29.1z M198.5,26.1c0,0-0.1,0-0.1-0.1c-0.1-0.1,0-0.2,0.1-0.3
			c0.5-0.3,1.1-0.6,1.6-0.9c0.1-0.1,0.2,0,0.3,0.1c0.1,0.1,0,0.2-0.1,0.3c-0.5,0.3-1.1,0.6-1.6,0.9
			C198.6,26.2,198.6,26.2,198.5,26.1z M202.9,24.1c-0.1,0-0.1-0.1-0.1-0.1c0-0.1,0-0.2,0.1-0.3c0.6-0.2,1.2-0.4,1.8-0.6
			c0.1,0,0.2,0,0.3,0.2c0,0.1,0,0.2-0.2,0.3c-0.6,0.2-1.2,0.3-1.8,0.5C203,24.1,202.9,24.1,202.9,24.1z M207.6,22.9
			c-0.1,0-0.1-0.1-0.1-0.2c0-0.1,0.1-0.2,0.2-0.3c0.6-0.1,1.2-0.1,1.9-0.2c0.1,0,0.2,0.1,0.2,0.2c0,0.1-0.1,0.2-0.2,0.2
			c-0.6,0-1.2,0.1-1.8,0.2C207.7,23,207.6,22.9,207.6,22.9z M212.4,22.8c-0.1,0-0.1-0.1-0.1-0.2c0-0.1,0.1-0.2,0.2-0.2
			c0.6,0,1.2,0.1,1.9,0.2c0.1,0,0.2,0.1,0.2,0.3c0,0.1-0.1,0.2-0.3,0.2C213.7,22.9,213.1,22.9,212.4,22.8
			C212.5,22.8,212.5,22.8,212.4,22.8z M223.3,26.4C223.3,26.4,223.3,26.4,223.3,26.4c-0.6-0.3-1.1-0.7-1.6-0.9
			c-0.1-0.1-0.2-0.2-0.1-0.3c0.1-0.1,0.2-0.2,0.3-0.1c0.5,0.3,1.1,0.6,1.6,0.9c0.1,0.1,0.1,0.2,0.1,0.3
			C223.6,26.4,223.4,26.4,223.3,26.4z M217.2,23.6c-0.1,0-0.2-0.2-0.1-0.3c0-0.1,0.2-0.2,0.3-0.2c0.6,0.2,1.2,0.4,1.8,0.6
			c0,0,0,0,0,0c0.1,0,0.2,0.2,0.1,0.3c0,0.1-0.2,0.2-0.3,0.1C218.4,24,217.8,23.8,217.2,23.6C217.2,23.6,217.2,23.6,217.2,23.6z"/>
		<path class="st1" d="M226.5,28.7C226.4,28.7,226.4,28.7,226.5,28.7c-0.3-0.2-0.5-0.4-0.7-0.6c-0.1-0.1-0.1-0.2,0-0.3
			c0.1-0.1,0.2-0.1,0.3,0c0.2,0.2,0.5,0.4,0.7,0.6c0.1,0.1,0.1,0.2,0,0.3C226.7,28.7,226.6,28.8,226.5,28.7z"/>
	</g>
	<g>
		<path class="st2" d="M234.4,45.4c-0.1,0-0.1-0.1-0.1-0.2c0-0.3,0-0.6-0.1-0.9c0-0.1,0.1-0.2,0.2-0.2c0.1,0,0.2,0.1,0.2,0.2
			c0,0.3,0,0.6,0.1,0.9C234.7,45.3,234.6,45.4,234.4,45.4C234.4,45.4,234.4,45.4,234.4,45.4z"/>
		<path class="st2" d="M201.9,68.4c-0.2-0.1-0.4-0.1-0.5-0.2c-0.1,0-0.2-0.2-0.1-0.3c0-0.1,0.2-0.2,0.3-0.1c0,0,0,0,0,0
			c0.5,0.2,1.1,0.5,1.7,0.6c0.1,0,0.2,0.2,0.1,0.3c0,0.1-0.2,0.2-0.3,0.1C202.6,68.7,202.2,68.5,201.9,68.4z M198.7,66.8
			C198.7,66.8,198.7,66.8,198.7,66.8c-0.6-0.3-1.1-0.7-1.6-1c-0.1-0.1-0.1-0.2-0.1-0.3c0.1-0.1,0.2-0.1,0.3-0.1c0.5,0.3,1,0.7,1.5,1
			c0.1,0.1,0.1,0.2,0.1,0.3C198.9,66.8,198.8,66.8,198.7,66.8z M205.9,69.6c-0.1,0-0.2-0.1-0.1-0.3c0-0.1,0.1-0.2,0.3-0.2
			c0.1,0,0.2,0.1,0.4,0.1c0.5,0.1,0.9,0.2,1.4,0.2c0.1,0,0.2,0.1,0.2,0.3c0,0.1-0.1,0.2-0.3,0.2c-0.5-0.1-1-0.1-1.4-0.2
			C206.2,69.6,206,69.6,205.9,69.6C205.9,69.6,205.9,69.6,205.9,69.6z M210.6,70.1c-0.1,0-0.1-0.1-0.1-0.2c0-0.1,0.1-0.2,0.2-0.2
			c0.6,0,1.2,0,1.8-0.1c0.1,0,0.2,0.1,0.2,0.2c0,0.1-0.1,0.2-0.2,0.2C211.9,70.1,211.3,70.1,210.6,70.1
			C210.7,70.1,210.7,70.1,210.6,70.1z M215.4,69.6c-0.1,0-0.1-0.1-0.1-0.2c0-0.1,0.1-0.2,0.2-0.3c0.6-0.1,1.2-0.3,1.8-0.4
			c0.1,0,0.2,0,0.3,0.2c0,0.1,0,0.2-0.2,0.3c-0.6,0.2-1.2,0.3-1.8,0.4C215.5,69.6,215.4,69.6,215.4,69.6z M219.9,68.2
			c-0.1,0-0.1-0.1-0.1-0.1c0-0.1,0-0.2,0.1-0.3c0.5-0.2,1.1-0.5,1.6-0.8c0.1-0.1,0.2,0,0.3,0.1c0.1,0.1,0,0.2-0.1,0.3
			c-0.5,0.3-1.1,0.5-1.7,0.8C220.1,68.2,220,68.2,219.9,68.2z M224.1,65.9c0,0-0.1,0-0.1-0.1c-0.1-0.1,0-0.2,0.1-0.3
			c0.5-0.3,1-0.7,1.4-1.1c0.1-0.1,0.2-0.1,0.3,0c0.1,0.1,0.1,0.2,0,0.3c-0.5,0.4-1,0.8-1.5,1.1C224.3,65.9,224.2,65.9,224.1,65.9z
			 M227.8,62.8C227.7,62.8,227.7,62.8,227.8,62.8c-0.2-0.1-0.2-0.3-0.1-0.4c0.4-0.4,0.8-0.9,1.2-1.3c0.1-0.1,0.2-0.1,0.3,0
			c0.1,0.1,0.1,0.2,0,0.3c-0.4,0.5-0.8,0.9-1.2,1.4C228,62.8,227.9,62.9,227.8,62.8z M230.7,59.1C230.7,59.1,230.7,59.1,230.7,59.1
			c-0.1-0.1-0.2-0.2-0.1-0.3c0.3-0.5,0.6-1,0.9-1.6c0.1-0.1,0.2-0.2,0.3-0.1c0.1,0.1,0.2,0.2,0.1,0.3c-0.3,0.5-0.6,1.1-0.9,1.6
			C230.9,59.1,230.8,59.1,230.7,59.1z M232.9,54.8c-0.1,0-0.2-0.2-0.1-0.3c0.2-0.6,0.4-1.1,0.6-1.7c0-0.1,0.2-0.2,0.3-0.2
			c0.1,0,0.2,0.2,0.2,0.3c-0.2,0.6-0.4,1.2-0.6,1.7C233.1,54.8,233,54.8,232.9,54.8C232.9,54.8,232.9,54.8,232.9,54.8z M234.1,50.2
			c-0.1,0-0.2-0.1-0.1-0.2c0.1-0.6,0.2-1.2,0.2-1.8c0-0.1,0.1-0.2,0.2-0.2c0.1,0,0.2,0.1,0.2,0.2c-0.1,0.6-0.1,1.2-0.2,1.8
			C234.4,50.1,234.3,50.2,234.1,50.2C234.1,50.2,234.1,50.2,234.1,50.2z"/>
		<path class="st2" d="M194.8,64C194.8,63.9,194.8,63.9,194.8,64c-0.3-0.2-0.5-0.5-0.7-0.7c-0.1-0.1-0.1-0.2,0-0.3
			c0.1-0.1,0.2-0.1,0.3,0c0.2,0.2,0.4,0.4,0.7,0.6c0.1,0.1,0.1,0.2,0,0.3C195,64,194.9,64,194.8,64z"/>
	</g>
	
		<linearGradient id="SVGID_1_" gradientUnits="userSpaceOnUse" x1="1574.7505" y1="1876.9929" x2="1611.3324" y2="1876.9929" gradientTransform="matrix(-0.2687 0.9633 -0.9633 -0.2687 2446.9065 -984.2115)">
		<stop  offset="0" style="stop-color:#2DCAFF"/>
		<stop  offset="1" style="stop-color:#2DB1FF"/>
	</linearGradient>
	<path class="st3" d="M196.6,57.5c0.1,0.1,0.2,0.2,0.3,0.1l3.4-0.8c1.2,1.1,2.5,2.1,4,2.8l0.4,3.4c0,0.1,0.1,0.2,0.2,0.2l4,0.9
		c0.1,0,0.2,0,0.3-0.1l1.8-2.9c1.7,0,3.3-0.3,4.8-0.8l2.7,2.2c0.1,0.1,0.2,0.1,0.3,0l3.5-2.2c0.1-0.1,0.2-0.2,0.1-0.3l-0.8-3.4
		c1.1-1.2,2.1-2.5,2.8-4l3.4-0.4c0.1,0,0.2-0.1,0.2-0.2l0.9-4c0-0.1,0-0.2-0.1-0.3l-2.9-1.8c0-1.7-0.3-3.3-0.8-4.8l2.2-2.7
		c0.1-0.1,0.1-0.2,0-0.3l-2.2-3.5c-0.1-0.1-0.2-0.2-0.3-0.1l-3.4,0.8c-1.2-1.1-2.5-2.1-4-2.8l-0.4-3.4c0-0.1-0.1-0.2-0.2-0.2l-4-0.9
		c-0.1,0-0.2,0-0.3,0.1l-1.8,2.9c-1.7,0-3.3,0.3-4.8,0.8l-2.7-2.2c-0.1-0.1-0.2-0.1-0.3,0l-3.5,2.2c-0.1,0.1-0.2,0.2-0.1,0.3
		l0.8,3.4c-1.1,1.2-2.1,2.5-2.8,4l-3.4,0.4c-0.1,0-0.2,0.1-0.2,0.2l-0.9,4c0,0.1,0,0.2,0.1,0.3l2.9,1.8c0,1.7,0.3,3.3,0.8,4.8
		l-2.2,2.7c-0.1,0.1-0.1,0.2,0,0.3L196.6,57.5z"/>
	<path class="st4" d="M209.3,49.7c-0.5-0.2-0.9-0.5-1.3-0.8c-0.8-0.7-1.2-1.7-1.3-2.8c0-1.1,0.4-2.1,1.1-2.9
		c0.7-0.8,1.7-1.2,2.8-1.3c2.2-0.1,4.1,1.7,4.1,3.9c0,1.1-0.4,2.1-1.1,2.9C213,49.6,212,50,211,50C210.4,50,209.8,49.9,209.3,49.7z
		 M212.1,42.9c-0.4-0.2-0.9-0.3-1.3-0.2c-0.9,0-1.7,0.4-2.3,1c-0.6,0.6-0.9,1.5-0.9,2.4c0,0.9,0.4,1.7,1,2.3
		c0.6,0.6,1.5,0.9,2.4,0.9c0.9,0,1.7-0.4,2.3-1c0.6-0.6,0.9-1.5,0.9-2.4C214.2,44.5,213.3,43.4,212.1,42.9z"/>
	<path class="st4" d="M207,55.5c-0.1,0-0.1-0.1-0.2-0.1c-0.1,0-0.2-0.1-0.3-0.1c0,0,0,0,0,0l0.3-0.6c0.6,0.3,1.3,0.5,1.9,0.7l0,0
		c2.5,0.6,5.1,0.1,7.3-1.3c1.7-1.1,3-2.7,3.8-4.5c0.2-0.5,0.4-1,0.5-1.5c0.6-2.5,0.1-5.1-1.3-7.3c-1.4-2.2-3.5-3.7-6-4.3
		c-4.7-1.1-9.4,1.5-11.1,5.8c-0.2,0.5-0.3,1-0.5,1.5c-0.4,1.7-0.3,3.5,0.2,5.1l-0.6,0.2c-0.6-1.8-0.7-3.7-0.3-5.5
		c0.1-0.6,0.3-1.1,0.5-1.6c1.9-4.6,6.9-7.4,11.9-6.2c2.7,0.6,5,2.2,6.5,4.6c1.5,2.3,2,5.1,1.3,7.8c-0.1,0.6-0.3,1.1-0.5,1.6
		c-0.8,2-2.2,3.7-4.1,4.9c-2.3,1.5-5.1,2-7.8,1.3c0,0-0.1,0-0.1,0C208,55.9,207.5,55.7,207,55.5z"/>
	
		<linearGradient id="SVGID_2_" gradientUnits="userSpaceOnUse" x1="1567.7867" y1="1833.6755" x2="1572.4105" y2="1867.9684" gradientTransform="matrix(-0.2687 0.9633 -0.9633 -0.2687 2446.9065 -984.2115)">
		<stop  offset="0" style="stop-color:#2DCAFF"/>
		<stop  offset="1" style="stop-color:#2DB1FF"/>
	</linearGradient>
	<path class="st5" d="M230.5,37.4l1.8-0.6c0.7,0.6,1.5,1.1,2.4,1.4l0.4,1.9c0,0.1,0.1,0.1,0.1,0.1l2.3,0.3c0.1,0,0.1,0,0.2-0.1
		l0.9-1.7c0.9-0.1,1.8-0.3,2.6-0.7l1.6,1.1c0.1,0,0.1,0,0.2,0l1.9-1.4c0.1,0,0.1-0.1,0.1-0.2l-0.6-1.8c0.6-0.7,1.1-1.5,1.4-2.4
		l1.9-0.4c0.1,0,0.1-0.1,0.1-0.1l0.3-2.3c0-0.1,0-0.1-0.1-0.2l-1.7-0.9c-0.1-0.9-0.3-1.8-0.7-2.6l1.1-1.6c0-0.1,0-0.1,0-0.2
		l-1.4-1.9c0-0.1-0.1-0.1-0.2-0.1l-1.8,0.6c-0.7-0.6-1.5-1.1-2.4-1.4l-0.4-1.9c0-0.1-0.1-0.1-0.1-0.1l-2.3-0.3c-0.1,0-0.1,0-0.2,0.1
		l-0.9,1.7c-0.9,0.1-1.8,0.3-2.6,0.7l-1.6-1.1c-0.1,0-0.1,0-0.2,0l-1.9,1.4c-0.1,0-0.1,0.1-0.1,0.2l0.6,1.8
		c-0.6,0.7-1.1,1.5-1.4,2.4l-1.9,0.4c-0.1,0-0.1,0.1-0.1,0.1l-0.3,2.3c0,0.1,0,0.1,0.1,0.2l1.7,0.9c0.1,0.9,0.3,1.8,0.7,2.6
		l-1.1,1.6c0,0.1,0,0.1,0,0.2l1.4,1.9C230.4,37.4,230.5,37.5,230.5,37.4z"/>
	<path class="st4" d="M236.9,32.6c-0.2-0.1-0.4-0.2-0.6-0.4c-0.5-0.4-0.8-1-0.9-1.6c-0.1-0.6,0.1-1.3,0.5-1.8c0.4-0.5,1-0.8,1.6-0.9
		c0.6-0.1,1.3,0.1,1.8,0.5c0.5,0.4,0.8,1,0.9,1.6c0.1,1.3-0.8,2.5-2.1,2.6l0,0C237.7,32.8,237.3,32.7,236.9,32.6z M238.5,28.7
		c-0.3-0.1-0.5-0.1-0.8-0.1c-0.9,0.1-1.6,0.9-1.5,1.9c0,0.5,0.3,0.9,0.6,1.2c0.4,0.3,0.8,0.4,1.3,0.4c0.9-0.1,1.6-0.9,1.5-1.9
		c0-0.5-0.3-0.9-0.6-1.2C238.8,28.9,238.6,28.8,238.5,28.7z"/>
	<g>
		<path class="st1" d="M226.6,36.1c0,0-0.1-0.1-0.1-0.1c-0.1-0.3-0.3-0.6-0.4-0.8c0-0.1,0-0.2,0.1-0.3c0.1,0,0.2,0,0.3,0.1
			c0.1,0.3,0.2,0.5,0.4,0.8c0.1,0.1,0,0.2-0.1,0.3C226.7,36.1,226.6,36.1,226.6,36.1z"/>
		<path class="st1" d="M225.4,32.2c-0.1,0-0.1-0.1-0.1-0.2c0-0.1,0-0.2,0-0.3c-0.1-0.6-0.1-1.1-0.1-1.7c0-0.1,0.1-0.2,0.2-0.2
			c0.1,0,0.2,0.1,0.2,0.2c0,0.5,0,1.1,0.1,1.6c0,0.1,0,0.2,0,0.3c0,0.1-0.1,0.2-0.2,0.3C225.5,32.2,225.4,32.2,225.4,32.2z
			 M225.8,27.1c-0.1,0-0.2-0.2-0.1-0.3c0.1-0.4,0.3-0.8,0.4-1.2c0.1-0.2,0.2-0.4,0.3-0.7c0.1-0.1,0.2-0.2,0.3-0.1
			c0.1,0.1,0.2,0.2,0.1,0.3c-0.1,0.2-0.2,0.4-0.3,0.6c-0.2,0.4-0.3,0.8-0.4,1.2C226.1,27.1,225.9,27.1,225.8,27.1
			C225.8,27.1,225.8,27.1,225.8,27.1z M228.2,22.6C228.2,22.6,228.1,22.6,228.2,22.6c-0.2-0.1-0.2-0.3-0.1-0.4
			c0.4-0.5,0.9-1,1.4-1.4c0.1-0.1,0.2-0.1,0.3,0c0.1,0.1,0.1,0.2,0,0.3c-0.5,0.4-0.9,0.9-1.3,1.4C228.4,22.6,228.3,22.6,228.2,22.6z
			 M232.2,19.4c0,0-0.1-0.1-0.1-0.1c-0.1-0.1,0-0.2,0.1-0.3c0.6-0.3,1.2-0.5,1.8-0.7c0.1,0,0.2,0,0.3,0.1c0,0.1,0,0.2-0.1,0.3
			c-0.6,0.2-1.2,0.4-1.8,0.7C232.3,19.4,232.2,19.4,232.2,19.4z M237.1,18.1c-0.1,0-0.1-0.1-0.1-0.2c0-0.1,0.1-0.2,0.2-0.2
			c0.7,0,1.3,0,2,0c0.1,0,0.2,0.1,0.2,0.2c0,0.1-0.1,0.2-0.2,0.2C238.5,18.1,237.8,18.1,237.1,18.1
			C237.2,18.1,237.1,18.1,237.1,18.1z"/>
		<path class="st1" d="M243,19.2C243,19.2,243,19.2,243,19.2c-0.3-0.1-0.6-0.2-0.8-0.3c0,0,0,0,0,0c-0.1,0-0.2-0.2-0.1-0.3
			c0-0.1,0.2-0.2,0.3-0.1c0.3,0.1,0.6,0.2,0.9,0.4c0.1,0.1,0.2,0.2,0.1,0.3C243.2,19.2,243.1,19.3,243,19.2z"/>
	</g>
	<g>
		<path class="st2" d="M249.7,26.8c-0.1,0-0.1-0.1-0.1-0.1c-0.1-0.3-0.2-0.6-0.3-0.8c0-0.1,0-0.2,0.1-0.3c0.1,0,0.2,0,0.3,0.1
			c0.1,0.3,0.2,0.6,0.3,0.9c0,0.1,0,0.2-0.1,0.3C249.8,26.9,249.7,26.9,249.7,26.8z"/>
		<path class="st2" d="M235.8,42.8c-0.1,0-0.2-0.1-0.1-0.2c0-0.1,0.1-0.2,0.3-0.2c0.6,0.1,1.3,0.1,1.9,0.1c0.1,0,0.2,0.1,0.2,0.2
			c0,0.1-0.1,0.2-0.2,0.2C237.2,43,236.5,43,235.8,42.8C235.9,42.9,235.9,42.9,235.8,42.8z M240.9,42.6c-0.1,0-0.1-0.1-0.1-0.2
			c0-0.1,0-0.2,0.2-0.3c0.6-0.2,1.2-0.4,1.8-0.6c0.1,0,0.2,0,0.3,0.1c0,0.1,0,0.2-0.1,0.3c-0.6,0.3-1.2,0.5-1.9,0.6
			C240.9,42.6,240.9,42.6,240.9,42.6z M245.4,40.4C245.3,40.4,245.3,40.4,245.4,40.4c-0.2-0.2-0.2-0.3-0.1-0.4
			c0.5-0.4,1-0.8,1.4-1.3c0.1-0.1,0.2-0.1,0.3,0c0.1,0.1,0.1,0.2,0,0.3c-0.4,0.5-0.9,0.9-1.5,1.3C245.5,40.4,245.4,40.4,245.4,40.4z
			 M248.6,36.6C248.6,36.6,248.6,36.6,248.6,36.6c-0.1-0.1-0.2-0.2-0.1-0.3c0.3-0.5,0.5-0.9,0.7-1.4c0-0.1,0.1-0.2,0.1-0.3
			c0-0.1,0.2-0.2,0.3-0.1c0,0,0,0,0,0c0.1,0,0.2,0.2,0.1,0.3c0,0.1-0.1,0.2-0.1,0.3c-0.2,0.5-0.4,1-0.7,1.5
			C248.9,36.6,248.7,36.7,248.6,36.6z M250.2,31.8c-0.1,0-0.2-0.1-0.1-0.2c0.1-0.6,0.1-1.3,0-1.9c0-0.1,0.1-0.2,0.2-0.2
			c0.1,0,0.2,0.1,0.2,0.2c0,0.7,0,1.3,0,2C250.4,31.8,250.3,31.9,250.2,31.8C250.2,31.8,250.2,31.8,250.2,31.8z"/>
		<path class="st2" d="M232.8,42C232.8,42,232.8,42,232.8,42c-0.3-0.1-0.6-0.3-0.8-0.4c-0.1-0.1-0.2-0.2-0.1-0.3
			c0.1-0.1,0.2-0.2,0.3-0.1c0.3,0.1,0.5,0.3,0.8,0.4c0.1,0,0.2,0.2,0.1,0.3C233.1,42,232.9,42,232.8,42z"/>
	</g>
	<path class="st4" d="M235.8,35.9l0.2-0.6c0.3,0.1,0.7,0.2,1.1,0.3l0,0c2.7,0.4,5.3-1.4,5.9-4c0-0.1,0.1-0.3,0.1-0.4
		c0.2-1.4-0.2-2.8-1-3.9c-0.8-1.1-2.1-1.9-3.5-2.1c-1.4-0.2-2.8,0.2-3.9,1c-0.8,0.6-1.4,1.4-1.7,2.2c-0.2,0.4-0.3,0.8-0.3,1.2
		c-0.1,0.9,0,1.9,0.4,2.8l-0.6,0.3c-0.4-1-0.6-2.1-0.4-3.1c0.1-0.5,0.2-0.9,0.4-1.4c0.4-1,1.1-1.9,1.9-2.5c1.3-1,2.8-1.4,4.4-1.1
		c3.2,0.5,5.5,3.5,5,6.7c-0.1,0.5-0.2,0.9-0.4,1.4c-0.4,1-1.1,1.9-1.9,2.5c-1.3,1-2.8,1.4-4.4,1.1c0,0,0,0,0,0
		C236.6,36.1,236.2,36,235.8,35.9C235.9,35.9,235.9,35.9,235.8,35.9C235.9,35.9,235.8,35.9,235.8,35.9z"/>
	<linearGradient id="SVGID_3_" gradientUnits="userSpaceOnUse" x1="227.1092" y1="84.7423" x2="316.4474" y2="84.7423">
		<stop  offset="0" style="stop-color:#2DCAFF"/>
		<stop  offset="1" style="stop-color:#2DB1FF"/>
	</linearGradient>
	<path class="st6" d="M239.5,133.1c0,0-31.7-42.5,6.4-60.6c34.5-16.4,60-23.5,66.5-35.4c0.6-1.1,2.2-0.8,2.4,0.3
		c2.9,14,7.9,60.4-44.4,95.6H239.5z"/>
	<path class="st7" d="M306.1,52.2c0,0-0.3,0.3-0.9,1c-0.6,0.6-1.5,1.5-2.6,2.7c-1.1,1.1-2.6,2.5-4.2,4c-0.4,0.4-0.8,0.8-1.3,1.2
		c-0.5,0.4-0.9,0.8-1.4,1.2c-0.5,0.4-1,0.8-1.5,1.3c-0.5,0.4-1,0.8-1.6,1.3c-2.1,1.7-4.5,3.6-7.1,5.4c-0.6,0.5-1.3,0.9-2,1.4
		c-0.7,0.5-1.3,0.9-2,1.4c-1.4,0.9-2.8,1.8-4.3,2.7c-0.7,0.4-1.5,0.9-2.3,1.3c-0.8,0.4-1.5,0.9-2.3,1.3c-0.8,0.4-1.6,0.8-2.4,1.2
		c-0.4,0.2-0.8,0.4-1.2,0.6c-0.4,0.2-0.8,0.4-1.2,0.6c-1.6,0.7-3.3,1.5-5,2.2c-0.8,0.4-1.6,0.8-2.4,1.2c-0.8,0.4-1.6,0.9-2.3,1.3
		L257,86l-1.1,0.8c-0.7,0.5-1.4,1.1-2.1,1.6c-0.3,0.3-0.7,0.6-1,0.9l-0.5,0.4c-0.2,0.1-0.3,0.3-0.5,0.5l-1,0.9l-0.9,1
		c-0.3,0.3-0.6,0.7-0.9,1c-0.3,0.3-0.6,0.7-0.8,1c-0.3,0.4-0.5,0.7-0.7,1c-0.3,0.3-0.5,0.7-0.7,1.1c-0.5,0.7-0.8,1.5-1.2,2.2
		c-0.3,0.8-0.7,1.5-1,2.3c-1.2,3.1-1.6,6.3-1.6,9.3c0,3,0.5,5.9,1.2,8.4c0.7,2.6,1.6,4.9,2.5,6.8c0.1,0.2,0.2,0.5,0.3,0.7
		c0.1,0.2,0.2,0.5,0.4,0.7c0.2,0.5,0.5,0.9,0.7,1.3c0.5,0.8,0.9,1.6,1.3,2.3c0.4,0.7,0.8,1.3,1.1,1.8c0.3,0.5,0.6,0.9,0.9,1.3
		c0.5,0.7,0.7,1.1,0.7,1.1l0,0c0.4,0.6,0.2,1.4-0.4,1.8c-0.6,0.4-1.4,0.2-1.8-0.4c0,0,0,0,0,0c0,0-0.3-0.4-0.7-1.1
		c-0.2-0.4-0.5-0.8-0.9-1.4c-0.3-0.5-0.7-1.2-1.1-1.9c-0.4-0.7-0.8-1.5-1.3-2.4c-0.2-0.4-0.4-0.9-0.7-1.4c-0.1-0.2-0.2-0.5-0.4-0.7
		c-0.1-0.2-0.2-0.5-0.3-0.8c-1-2.1-1.9-4.5-2.6-7.2c-0.7-2.7-1.2-5.8-1.2-9.1c0-3.3,0.6-6.7,1.9-10c0.3-0.8,0.7-1.6,1.1-2.5
		c0.4-0.8,0.8-1.6,1.4-2.4c0.3-0.4,0.5-0.8,0.8-1.1c0.3-0.4,0.5-0.7,0.8-1.1c0.3-0.4,0.6-0.7,0.9-1.1c0.3-0.4,0.6-0.7,0.9-1
		c0.3-0.3,0.6-0.7,1-1l1-1c0.2-0.2,0.3-0.3,0.5-0.5l0.5-0.4c0.4-0.3,0.7-0.6,1.1-0.9c0.8-0.5,1.5-1.1,2.3-1.6l1.2-0.8l1.2-0.7
		c0.8-0.5,1.6-0.9,2.4-1.4c0.8-0.4,1.7-0.8,2.5-1.2c1.7-0.7,3.3-1.4,5-2.2c0.4-0.2,0.8-0.4,1.2-0.5c0.4-0.2,0.8-0.4,1.2-0.6
		c0.8-0.4,1.6-0.8,2.4-1.2c0.8-0.4,1.5-0.8,2.3-1.2c0.8-0.4,1.5-0.8,2.3-1.2c1.5-0.9,2.9-1.7,4.3-2.6c0.7-0.5,1.4-0.9,2-1.3
		c0.7-0.4,1.3-0.9,2-1.3c2.6-1.8,5-3.5,7.1-5.2c0.5-0.4,1.1-0.8,1.6-1.2c0.5-0.4,1-0.8,1.5-1.2c0.5-0.4,0.9-0.8,1.4-1.2
		c0.4-0.4,0.9-0.8,1.3-1.1c1.7-1.5,3.1-2.8,4.3-3.9c1.2-1.1,2-2,2.6-2.6c0.6-0.6,0.9-0.9,0.9-0.9c0.2-0.2,0.4-0.2,0.6,0
		C306.3,51.7,306.3,52,306.1,52.2L306.1,52.2z"/>
	<linearGradient id="SVGID_4_" gradientUnits="userSpaceOnUse" x1="66.1126" y1="248.9426" x2="116.9099" y2="180.3284">
		<stop  offset="0" style="stop-color:#2DCAFF"/>
		<stop  offset="1" style="stop-color:#2DB1FF"/>
	</linearGradient>
	<path class="st8" d="M126.2,279.5c0,0,5.2-60.7-28.7-79.4C65,182.2,56,198,41,174.2c-0.7-1.1-2.4-0.7-2.5,0.5
		c-1.8,13.6-4.8,59.8,34.4,69C118.3,254.3,126.2,279.5,126.2,279.5z"/>
	<path class="st7" d="M44.5,188c0,0,0,0.1,0.1,0.3c0.1,0.2,0.2,0.5,0.3,0.9c0.3,0.8,0.9,2,1.6,3.4c0.2,0.4,0.4,0.7,0.7,1.1
		c0.2,0.4,0.5,0.8,0.8,1.2c0.6,0.8,1.1,1.7,1.9,2.6c0.4,0.4,0.7,0.9,1.1,1.4c0.4,0.5,0.8,0.9,1.2,1.4c0.2,0.2,0.4,0.5,0.7,0.7
		c0.2,0.2,0.4,0.5,0.7,0.7c0.5,0.5,1,0.9,1.5,1.4c0.3,0.2,0.5,0.5,0.8,0.7c0.3,0.2,0.5,0.5,0.8,0.7c0.6,0.5,1.1,0.9,1.7,1.4
		c0.3,0.2,0.6,0.5,0.9,0.7c0.3,0.2,0.6,0.5,0.9,0.7c0.6,0.5,1.3,0.9,1.9,1.4l0.5,0.4c0.2,0.1,0.3,0.2,0.5,0.3c0.3,0.2,0.7,0.4,1,0.7
		c0.7,0.4,1.4,0.9,2.1,1.3l0.5,0.3l0.6,0.3c0.4,0.2,0.7,0.4,1.1,0.6c0.8,0.4,1.5,0.8,2.3,1.3c0.8,0.4,1.6,0.8,2.4,1.2
		c0.8,0.4,1.6,0.8,2.4,1.2c0.4,0.2,0.8,0.4,1.2,0.6c0.4,0.2,0.8,0.3,1.3,0.5c0.8,0.3,1.7,0.7,2.5,1c0.9,0.3,1.7,0.7,2.6,1
		c0.9,0.3,1.7,0.7,2.6,1c0.9,0.4,1.7,0.7,2.6,1.1l2.6,1.2c3.4,1.6,6.7,3.5,9.8,5.6c3.1,2.1,6,4.5,8.5,7c1.3,1.3,2.4,2.6,3.6,3.9
		c1.1,1.4,2.1,2.7,3,4.1c1.8,2.7,3.3,5.5,4.5,8.1c1.2,2.6,2.1,5.1,2.9,7.2c0.8,2.2,1.4,4.1,1.9,5.7c0.9,3.2,1.5,5,1.5,5
		c0.2,0.7-0.2,1.4-0.9,1.6c-0.7,0.2-1.4-0.2-1.6-0.9c0,0,0,0,0,0l0,0c0,0-0.5-1.8-1.4-5c-0.5-1.6-1-3.5-1.7-5.6
		c-0.7-2.1-1.6-4.5-2.7-7.1c-1.1-2.5-2.5-5.2-4.2-7.9c-0.8-1.3-1.8-2.6-2.8-4c-1.1-1.3-2.2-2.6-3.4-3.8c-2.4-2.5-5.1-4.8-8.1-6.9
		c-3-2.1-6.2-4-9.5-5.7l-2.5-1.2c-0.8-0.4-1.7-0.8-2.5-1.1c-0.9-0.4-1.7-0.7-2.6-1.1c-0.8-0.3-1.7-0.7-2.6-1.1
		c-0.9-0.4-1.7-0.7-2.6-1.1c-0.4-0.2-0.8-0.4-1.3-0.5c-0.4-0.2-0.8-0.4-1.2-0.6c-0.8-0.4-1.6-0.8-2.4-1.2c-0.8-0.4-1.6-0.8-2.4-1.2
		c-0.8-0.4-1.5-0.9-2.3-1.3c-0.4-0.2-0.8-0.4-1.1-0.6l-0.6-0.3l-0.5-0.4c-0.7-0.5-1.4-0.9-2.1-1.4c-0.3-0.2-0.7-0.5-1-0.7
		c-0.2-0.1-0.3-0.2-0.5-0.3l-0.5-0.4c-0.6-0.5-1.3-1-1.9-1.5c-0.3-0.2-0.6-0.5-0.9-0.7c-0.3-0.2-0.6-0.5-0.9-0.7
		c-0.6-0.5-1.1-1-1.7-1.5c-0.3-0.2-0.6-0.5-0.8-0.7c-0.3-0.3-0.5-0.5-0.8-0.8c-0.5-0.5-1-1-1.5-1.5c-0.2-0.2-0.5-0.5-0.7-0.7
		c-0.2-0.2-0.4-0.5-0.7-0.7c-0.4-0.5-0.9-1-1.2-1.4c-0.4-0.5-0.7-1-1.1-1.4c-0.7-0.9-1.3-1.8-1.9-2.6c-0.3-0.4-0.5-0.8-0.8-1.2
		c-0.2-0.4-0.5-0.8-0.7-1.1c-0.8-1.5-1.3-2.7-1.6-3.5c-0.2-0.4-0.3-0.7-0.3-1c-0.1-0.2-0.1-0.3-0.1-0.3l0,0c0-0.2,0.1-0.3,0.2-0.4
		C44.3,187.8,44.5,187.9,44.5,188z"/>
	<linearGradient id="SVGID_5_" gradientUnits="userSpaceOnUse" x1="58.6076" y1="189.5995" x2="130.2485" y2="189.5995">
		<stop  offset="0" style="stop-color:#2DCAFF"/>
		<stop  offset="1" style="stop-color:#2DB1FF"/>
	</linearGradient>
	<path class="st9" d="M128.6,278.2l-3.8-2.2c1.9-29-3.4-82.3-32.6-96.8c-19.8-9.8-27.1-20.8-25.6-44.2c1-15.6-4.2-26.4-7.8-31.9
		c-0.7-1.1,0.5-2.5,1.7-1.9c12,5.9,43.4,23.4,57.8,51.1C136.3,187.1,128.6,278.2,128.6,278.2z"/>
	<path class="st7" d="M78.9,120.4c0,0,0,0,0.1,0.1c0.1,0,0.2,0.1,0.3,0.2c0.1,0.1,0.3,0.2,0.5,0.3c0.2,0.1,0.4,0.3,0.7,0.4
		c0.5,0.3,1.1,0.8,1.8,1.3c0.4,0.3,0.7,0.6,1.1,0.9c0.4,0.3,0.8,0.6,1.2,1c0.8,0.7,1.8,1.5,2.7,2.5c0.5,0.5,1,0.9,1.5,1.5
		c0.5,0.5,1,1.1,1.5,1.6c2.1,2.2,4.3,4.9,6.6,8c0.3,0.4,0.6,0.8,0.8,1.2c0.3,0.4,0.6,0.8,0.8,1.2c0.6,0.8,1.1,1.6,1.7,2.5
		c1.1,1.7,2.2,3.5,3.3,5.4c0.5,0.9,1.1,1.9,1.6,2.9c0.3,0.5,0.5,1,0.8,1.5c0.3,0.5,0.6,1,0.8,1.5c0.5,1,1,2,1.5,3.1
		c0.3,0.5,0.5,1,0.8,1.6c0.3,0.5,0.5,1,0.8,1.6c1,2.2,1.9,4.4,2.9,6.6c0.9,2.3,1.8,4.6,2.7,6.9c0.1,0.3,0.2,0.6,0.3,0.9l0.3,0.9
		c0.2,0.6,0.4,1.2,0.6,1.8c0.4,1.2,0.8,2.4,1.2,3.5l0.6,1.8c0.2,0.6,0.4,1.2,0.5,1.8c0.3,1.2,0.7,2.4,1,3.6l0.5,1.8
		c0.2,0.6,0.4,1.2,0.5,1.8c0.3,1.2,0.6,2.4,0.9,3.7c0.3,1.2,0.6,2.4,0.9,3.7c0.3,1.2,0.5,2.4,0.8,3.7c0.5,2.4,1,4.8,1.4,7.2
		c0.2,1.2,0.4,2.4,0.6,3.6c0.1,0.6,0.2,1.2,0.3,1.8c0.1,0.6,0.2,1.2,0.2,1.8c0.3,2.3,0.7,4.6,0.9,6.9c0.3,2.3,0.5,4.5,0.7,6.6
		c0.2,2.2,0.4,4.3,0.5,6.3c0.2,2,0.3,4,0.4,5.9c0.2,3.8,0.4,7.2,0.4,10.3c0.1,1.5,0.1,3,0.1,4.3c0,1.3,0,2.6,0,3.7
		c0,2.2,0,3.9-0.1,5.1c0,1.2-0.1,1.8-0.1,1.8c0,0.7-0.6,1.3-1.4,1.3c-0.7,0-1.3-0.6-1.3-1.4l0,0l0,0c0,0,0-0.6,0.1-1.8
		c0-1.2,0.1-2.9,0.1-5.1c0-1.1,0-2.3,0-3.6c0-1.3,0-2.7,0-4.3c0-3-0.2-6.5-0.3-10.2c-0.1-1.9-0.2-3.8-0.3-5.8
		c-0.2-2-0.3-4.1-0.5-6.2c-0.2-2.1-0.4-4.3-0.7-6.6c-0.2-2.2-0.6-4.5-0.9-6.9c-0.1-0.6-0.2-1.2-0.2-1.8c-0.1-0.6-0.2-1.2-0.3-1.8
		c-0.2-1.2-0.4-2.4-0.6-3.6c-0.3-2.4-0.8-4.8-1.3-7.2c-0.2-1.2-0.5-2.4-0.7-3.6c-0.3-1.2-0.6-2.4-0.8-3.6c-0.3-1.2-0.6-2.4-0.8-3.6
		c-0.1-0.6-0.3-1.2-0.5-1.8l-0.5-1.8c-0.3-1.2-0.7-2.4-1-3.6c-0.2-0.6-0.3-1.2-0.5-1.8l-0.6-1.8c-0.4-1.2-0.8-2.4-1.2-3.6
		c-0.2-0.6-0.4-1.2-0.6-1.8l-0.3-0.9l-0.3-0.8c-0.9-2.3-1.8-4.6-2.6-6.8c-1-2.2-1.9-4.4-2.8-6.5c-0.2-0.5-0.5-1.1-0.7-1.6
		c-0.3-0.5-0.5-1-0.8-1.6c-0.5-1-1-2.1-1.5-3.1c-0.2-0.5-0.5-1-0.8-1.5c-0.3-0.5-0.5-1-0.8-1.5c-0.5-1-1.1-1.9-1.6-2.9
		c-1.1-1.8-2.2-3.6-3.3-5.3c-0.6-0.8-1.1-1.7-1.7-2.5c-0.3-0.4-0.5-0.8-0.8-1.2c-0.3-0.4-0.5-0.8-0.8-1.2c-2.2-3-4.4-5.7-6.4-7.9
		c-0.5-0.6-1-1.1-1.5-1.6c-0.5-0.5-1-1-1.5-1.4c-0.9-0.9-1.8-1.7-2.6-2.4c-0.4-0.4-0.8-0.7-1.2-1c-0.4-0.3-0.7-0.6-1.1-0.8
		c-0.7-0.5-1.2-0.9-1.7-1.2c-0.2-0.2-0.5-0.3-0.6-0.4c-0.2-0.1-0.3-0.2-0.5-0.3c-0.1-0.1-0.2-0.1-0.3-0.2c-0.1,0-0.1-0.1-0.1-0.1
		l0,0c-0.3-0.2-0.4-0.5-0.2-0.8C78.3,120.3,78.6,120.2,78.9,120.4z"/>
	<linearGradient id="SVGID_6_" gradientUnits="userSpaceOnUse" x1="140.7375" y1="159.8032" x2="178.55" y2="130.3095">
		<stop  offset="0" style="stop-color:#2DCAFF"/>
		<stop  offset="1" style="stop-color:#2DB1FF"/>
	</linearGradient>
	<path class="st10" d="M132.2,274.4c-0.4,0.8-1.6,0.4-1.5-0.5c2-15.6,9.7-84-2.9-119.6c-14.1-39.9-41.4-79.9,25.7-106.4
		c0.8-0.3,1.6,0.5,1.3,1.3c-2,4.6-5.4,15.8,0.8,29.5c8.1,18,8,48.7-13.9,79.4C141.7,158.2,145.2,251.7,132.2,274.4z"/>
	<path class="st7" d="M144.1,59.1c0,0-0.1,0-0.3,0.1c-0.2,0.1-0.4,0.2-0.7,0.4c-0.7,0.4-1.6,1-2.7,1.9c-1.1,0.9-2.4,2-3.8,3.5
		c-0.7,0.7-1.4,1.5-2.1,2.4c-0.7,0.9-1.4,1.8-2.1,2.8c-0.2,0.3-0.3,0.5-0.5,0.8c-0.2,0.3-0.3,0.5-0.5,0.8c-0.3,0.6-0.7,1.1-1,1.7
		c-0.3,0.6-0.6,1.2-0.9,1.8c-0.2,0.3-0.3,0.6-0.5,0.9c-0.1,0.3-0.3,0.6-0.4,1c-0.1,0.3-0.3,0.6-0.4,1c-0.1,0.3-0.3,0.7-0.4,1
		c-0.3,0.7-0.5,1.4-0.8,2c-0.4,1.4-1,2.8-1.3,4.3c-0.8,3-1.3,6.1-1.7,9.3c-0.1,0.8-0.1,1.6-0.2,2.4c-0.1,0.8-0.1,1.6-0.1,2.4
		c0,0.8,0,1.6-0.1,2.5c0,0.4,0,0.8,0,1.2l0,1.2c0,1.6,0.1,3.3,0.2,4.9c0.1,1.6,0.2,3.3,0.5,4.9c0.4,3.2,0.9,6.4,1.5,9.4
		c0.3,1.5,0.7,3,1,4.4c0.1,0.4,0.2,0.7,0.2,1.1c0.1,0.4,0.2,0.7,0.3,1.1c0.2,0.7,0.4,1.4,0.6,2.1c0.7,2.7,1.5,5.3,2.2,7.7
		c0.2,0.6,0.4,1.2,0.5,1.7c0.2,0.6,0.4,1.1,0.6,1.6c0.4,1.1,0.7,2.1,1.1,3c0.6,1.9,1.3,3.5,1.8,4.9c1,2.7,1.6,4.2,1.6,4.2l0,0
		c0.3,0.7-0.1,1.4-0.7,1.7c-0.7,0.3-1.4-0.1-1.7-0.7c0,0,0,0,0,0c0,0-0.6-1.6-1.6-4.3c-0.5-1.4-1.1-3-1.8-5c-0.3-1-0.7-2-1-3.1
		c-0.2-0.5-0.4-1.1-0.5-1.7c-0.2-0.6-0.3-1.2-0.5-1.8c-0.7-2.4-1.5-5-2.1-7.8c-0.2-0.7-0.3-1.4-0.5-2.1c-0.1-0.4-0.2-0.7-0.3-1.1
		c-0.1-0.4-0.2-0.7-0.2-1.1c-0.3-1.5-0.6-3-0.9-4.5c-0.5-3.1-1.1-6.3-1.4-9.6c-0.2-1.6-0.3-3.3-0.4-5c-0.1-1.7-0.1-3.3-0.1-5l0-1.3
		c0-0.4,0-0.8,0-1.3c0-0.8,0.1-1.7,0.1-2.5c0-0.8,0.1-1.7,0.2-2.5c0.1-0.8,0.2-1.7,0.2-2.5c0.5-3.3,1-6.5,1.9-9.5
		c0.4-1.5,0.9-3,1.4-4.4c0.3-0.7,0.6-1.4,0.8-2.1c0.1-0.3,0.3-0.7,0.4-1c0.2-0.3,0.3-0.7,0.5-1c0.2-0.3,0.3-0.6,0.5-1
		c0.2-0.3,0.3-0.6,0.5-0.9c0.3-0.6,0.7-1.2,1-1.8c0.3-0.6,0.7-1.1,1.1-1.7c0.2-0.3,0.3-0.6,0.5-0.8c0.2-0.3,0.4-0.5,0.6-0.8
		c0.7-1,1.5-2,2.2-2.9c0.8-0.9,1.5-1.7,2.2-2.4c1.4-1.5,2.8-2.6,4-3.5c1.2-0.9,2.1-1.5,2.8-1.9c0.3-0.2,0.6-0.3,0.8-0.4
		c0.2-0.1,0.3-0.1,0.3-0.1c0.2-0.1,0.4,0,0.5,0.2C144.4,58.8,144.3,59,144.1,59.1L144.1,59.1z"/>
	<linearGradient id="SVGID_7_" gradientUnits="userSpaceOnUse" x1="356.2895" y1="165.6903" x2="414.5425" y2="165.6903">
		<stop  offset="0" style="stop-color:#2DCAFF"/>
		<stop  offset="1" style="stop-color:#2DB1FF"/>
	</linearGradient>
	<path class="st11" d="M373.3,275.7c0,0-29.9-55.9-10.5-93.3c18.4-35.5,35.3-99.2,19.9-125.3c-0.5-0.9,0.5-1.9,1.4-1.4
		c12.9,8.4,49.6,37.9,17.7,87.8C363.7,203.2,351,197.6,373.3,275.7z"/>
	<path class="st12" d="M377.2,275.5c0,0.1-0.2,0.1-0.2,0c-1.9-4.6-18.2-44.7-8.6-68.7c9.7-24.2,60.1-64.1,51.6-100.2
		c-0.2-0.9,1-1.5,1.6-0.6c8.9,14,30.7,54.6,9.2,87.4C404.3,233.6,368,195.1,377.2,275.5z"/>
	<path class="st7" d="M421.2,130.2c0,0,0.1,0.1,0.2,0.3c0.1,0.2,0.3,0.5,0.4,1c0.4,0.9,0.9,2.1,1.3,3.8c0.5,1.7,0.8,3.8,1,6.2
		c0.2,2.4,0.1,5.2-0.4,8.2c-0.5,3-1.4,6.1-2.8,9.3c-1.4,3.2-3.2,6.3-5.4,9.3c-0.5,0.8-1.1,1.5-1.7,2.2c-0.6,0.8-1.2,1.4-1.9,2.2
		l-0.5,0.5l-0.5,0.5c-0.3,0.3-0.7,0.7-1,1l-0.5,0.5l-0.5,0.5c-0.4,0.3-0.7,0.7-1.1,1c-2.8,2.7-5.9,5.2-9.1,7.6
		c-3.1,2.4-6.4,4.5-9.4,6.8c-3,2.3-5.8,4.8-8,7.5c-2.2,2.7-4,5.7-5.2,8.8c-0.3,0.8-0.6,1.5-0.9,2.3c-0.3,0.8-0.5,1.5-0.8,2.2
		c-0.2,0.7-0.4,1.5-0.6,2.2c-0.2,0.7-0.3,1.4-0.5,2.1c-0.1,0.4-0.2,0.7-0.3,1c-0.1,0.3-0.1,0.7-0.2,1c-0.1,0.7-0.3,1.3-0.4,2
		c-0.2,1.3-0.4,2.5-0.6,3.7c-0.1,1.2-0.3,2.3-0.4,3.3c-0.1,1-0.2,2-0.3,2.8c0,0.4-0.1,0.8-0.1,1.2c0,0.4-0.1,0.7-0.1,1.1
		c0,0.7-0.1,1.2-0.1,1.7c-0.1,0.9-0.1,1.4-0.1,1.4l0,0c0,0.3-0.3,0.5-0.6,0.5c-0.3,0-0.5-0.3-0.5-0.5c0,0,0-0.5,0-1.4
		c0-0.5,0-1,0-1.7c0-0.3,0-0.7,0-1.1c0-0.4,0-0.8,0.1-1.2c0-0.9,0.1-1.8,0.2-2.8c0.1-1,0.2-2.1,0.3-3.3c0.1-1.2,0.3-2.5,0.5-3.8
		c0.1-0.7,0.2-1.3,0.3-2c0.1-0.3,0.1-0.7,0.2-1.1c0.1-0.4,0.1-0.7,0.2-1.1c0.6-2.9,1.4-6,2.7-9.2c1.2-3.2,3-6.4,5.4-9.4
		c1.2-1.5,2.5-2.9,3.9-4.2c1.4-1.3,2.9-2.6,4.4-3.8c3.1-2.4,6.3-4.6,9.4-7c3.1-2.3,6.1-4.8,8.8-7.4c0.3-0.3,0.7-0.7,1-1l0.5-0.5
		l0.5-0.5c0.3-0.3,0.7-0.7,1-1l0.5-0.5l0.5-0.5c0.6-0.7,1.2-1.4,1.8-2.1c0.6-0.7,1.2-1.4,1.7-2.1c2.1-2.9,3.9-5.8,5.3-8.8
		c1.3-3,2.3-5.9,2.9-8.7c0.6-2.8,0.8-5.4,0.7-7.7c0-2.3-0.3-4.3-0.6-6c-0.3-1.6-0.7-2.9-1-3.8c-0.1-0.4-0.3-0.7-0.3-1
		c-0.1-0.2-0.1-0.3-0.1-0.3l0,0c-0.1-0.2,0-0.5,0.3-0.6C420.8,129.9,421.1,130,421.2,130.2z"/>
	<linearGradient id="SVGID_8_" gradientUnits="userSpaceOnUse" x1="102.6169" y1="287.9465" x2="396.5691" y2="287.9465">
		<stop  offset="0" style="stop-color:#2DB1FF"/>
		<stop  offset="1" style="stop-color:#0082CB"/>
	</linearGradient>
	<path class="st13" d="M391.5,294.2H107.6c-2.8,0-5-2.3-5-5v-2.5c0-2.8,2.3-5,5-5h283.9c2.8,0,5,2.3,5,5v2.5
		C396.6,292,394.3,294.2,391.5,294.2z"/>
</g>
<g>
	
		<rect x="130.2" y="81.8" transform="matrix(0.9988 -4.804596e-02 4.804596e-02 0.9988 -3.9424 6.3742)" class="st376" width="0.8" height="6.7"/>
	
		<rect x="129.4" y="58" transform="matrix(0.9988 -4.794794e-02 4.794794e-02 0.9988 -3.0804 6.2999)" class="st376" width="0.8" height="18.8"/>
	
		<linearGradient id="SVGID_9_" gradientUnits="userSpaceOnUse" x1="237.8856" y1="164.6598" x2="368.8344" y2="164.6598" gradientTransform="matrix(-1 0 0 1 500.6167 0)">
		<stop  offset="0" style="stop-color:#2DB1FF"/>
		<stop  offset="1" style="stop-color:#0082CB"/>
	</linearGradient>
	<path class="st15" d="M241.8,47.6H141.6c-5.7,0-10.1,4.6-9.8,10.3l10.1,213.6c0.3,5.7,5.1,10.3,10.8,10.3h100.1
		c5.7,0,10.1-4.6,9.8-10.3L252.6,57.9C252.3,52.2,247.4,47.6,241.8,47.6z"/>
	<path class="st50" d="M110.5,140c0.3,1.7,0.7,3.3,1.2,4.9l-2.4,2l2.1,4.5l3.1-0.4c0.9,1.5,1.9,2.8,3,4.1l-1.4,2.8l3.6,3.5l2.7-1.5
		c1.3,1,2.8,2,4.3,2.8l-0.2,3.1l4.6,1.9l1.8-2.5c1.6,0.5,3.2,0.8,4.9,1l1,3h4.9l0.7-3c1.7-0.2,3.3-0.5,4.8-1l2.1,2.5l4.4-1.9
		l-0.5-3.1c1.4-0.8,2.8-1.7,4-2.8l2.8,1.5l3.3-3.5l-1.7-2.8c1-1.3,1.8-2.7,2.6-4.1l3.2,0.4l1.7-4.5l-2.6-2c0.4-1.6,0.6-3.2,0.7-4.9
		l3-0.9l-0.2-4.9l-3.1-0.9c-0.3-1.7-0.7-3.3-1.2-4.9l2.4-2l-2.1-4.5l-3.1,0.4c-0.9-1.5-1.9-2.8-3-4.1l1.4-2.8l-3.6-3.5l-2.7,1.5
		c-1.3-1-2.8-2-4.3-2.8l0.2-3.1l-4.6-1.9l-1.8,2.5c-1.6-0.5-3.2-0.8-4.9-1l-1-3h-4.9l-0.7,3c-1.7,0.2-3.3,0.5-4.8,1l-2.1-2.5
		l-4.4,1.9l0.5,3.1c-1.4,0.8-2.8,1.7-4,2.8l-2.8-1.5l-3.3,3.5l1.7,2.8c-1,1.3-1.8,2.7-2.6,4.1L110,122l-1.7,4.5l2.6,2
		c-0.4,1.6-0.6,3.2-0.7,4.9l-3,0.9l0.2,4.9L110.5,140z M138.8,115.7c11.6,0,21.4,9.4,22,21c0.6,11.6-8.4,21-20,21
		c-11.6,0-21.4-9.4-22-21C118.3,125.1,127.2,115.7,138.8,115.7z"/>
	<path class="st4" d="M141.7,50.1h100.1c4.3,0,7.9,3.5,8.1,7.7l9.6,203c0.1,1.5-1.1,2.7-2.5,2.7H146.8c-1.5,0-2.7-1.2-2.8-2.7
		l-9.6-203C134.2,53.6,137.5,50.1,141.7,50.1z"/>
	<path class="st378" d="M150,245l-2.6-54c-0.1-2.5,0.7-4.8,2.4-6.6c1.7-1.8,4-2.7,6.5-2.7h83.5c5.1,0,9.5,4.2,9.7,9.3l2.6,54
		c0.1,2.5-0.7,4.8-2.4,6.6c-1.7,1.8-4,2.7-6.5,2.7h-83.5C154.6,254.3,150.2,250.1,150,245z M156.3,182.4c-2.3,0-4.4,0.9-5.9,2.5
		c-1.5,1.6-2.3,3.8-2.2,6.1l2.6,54c0.2,4.7,4.3,8.6,9,8.6h83.5c2.3,0,4.4-0.9,5.9-2.5c1.5-1.6,2.3-3.8,2.2-6.1l-2.6-54
		c-0.2-4.7-4.3-8.6-9-8.6H156.3z"/>
	<path class="st379" d="M225.6,186.3h31.8l2.6,55.4h-31.8c-3.6,0-6.7-3-6.9-6.6l-2-42.2C219.1,189.2,222,186.3,225.6,186.3z"/>
	<path class="st379" d="M183,213.1h21.6c1.9,0,3.3-1.5,3.2-3.4l-1-21.6c-0.1-1.9-1.7-3.4-3.5-3.4h-21.6c-1.9,0-3.3,1.5-3.2,3.4
		l1,21.6C179.5,211.6,181.1,213.1,183,213.1z"/>
	<path class="st379" d="M148.5,196.1c2.7,0,4.9,2.2,5.1,4.8l1.5,31.1c0.1,2.7-1.9,4.8-4.6,4.8h-9.2l-1.9-40.7H148.5z"/>
	<path class="st379" d="M174.2,247.2h21.6c1.9,0,3.3-1.5,3.2-3.4l-1-21.6c-0.1-1.9-1.7-3.4-3.5-3.4h-21.6c-1.9,0-3.3,1.5-3.2,3.4
		l1,21.6C170.8,245.7,172.4,247.2,174.2,247.2z"/>
	<path class="st380" d="M197.2,272c0.1,2.8,2.5,5.1,5.4,5.1c2.8,0,5-2.3,4.9-5.1s-2.5-5.1-5.4-5.1
		C199.3,266.9,197.1,269.2,197.2,272z"/>
	<path class="st381" d="M150,169.2h94.9c1.8,0,3.2-1.5,3.1-3.2l-2.8-59.6c-0.1-1.8-1.6-3.2-3.4-3.2h-94.9c-1.8,0-3.2,1.5-3.1,3.2
		l2.8,59.6C146.7,167.7,148.2,169.2,150,169.2z"/>
	<path class="st74" d="M144.9,88.9h97.5c1.1,0,1.9-0.9,1.9-2l-1-20.1c-0.1-1.1-1-2-2-2h-97.5c-1.1,0-1.9,0.9-1.9,2l1,20.1
		C142.9,88,143.8,88.9,144.9,88.9z"/>
	<polygon class="st50" points="234.1,123.1 239.3,123.1 241,159.7 235.9,159.7 	"/>
	<polygon class="st50" points="224.4,136.6 229.6,136.6 230.7,159.7 225.5,159.7 	"/>
	<polygon class="st50" points="214.4,144.3 219.6,144.3 220.3,159.7 215.2,159.7 	"/>
	<polygon class="st50" points="204.4,152 209.6,152 209.9,159.7 204.8,159.7 	"/>
	<polygon class="st50" points="193.1,131.9 198.3,131.9 199.6,159.7 194.4,159.7 	"/>
	<polygon class="st50" points="182.1,117.1 187.2,117.1 189.2,159.7 184.1,159.7 	"/>
	<polygon class="st50" points="171.5,112.6 176.6,112.6 178.9,159.7 173.7,159.7 	"/>
	<polygon class="st50" points="162,130.9 167.1,130.9 168.5,159.7 163.4,159.7 	"/>
	<polygon class="st50" points="152.1,140.2 157.2,140.2 158.1,159.7 153,159.7 	"/>
	<path class="st376" d="M233.1,230.3h42.2c3.6,0,6.4-3,6.3-6.6l-2-42.2c-0.2-3.6-3.3-6.6-6.9-6.6h-42.2c-3.6,0-6.4,3-6.3,6.6l2,42.2
		C226.4,227.3,229.5,230.3,233.1,230.3z"/>
	<path class="st382" d="M233.1,230.3h42.2c3.6,0,6.4-3,6.3-6.6l-2-42.2c-0.2-3.6-3.3-6.6-6.9-6.6h-42.2c-3.6,0-6.4,3-6.3,6.6l2,42.2
		C226.4,227.3,229.5,230.3,233.1,230.3z"/>
	<path class="st4" d="M236.5,207.8c0.4,1.1,0.9,2.1,1.5,3.1l-0.5,3.1l4.8,4.6l3-0.7c1,0.5,2.1,1,3.2,1.3l2.1,3.1h6.4l1.8-3.1
		c1.1-0.3,2.1-0.8,3.1-1.3l3.1,0.7l4.3-4.6l-0.8-3.1c0.5-1,0.9-2,1.2-3.1l3-2l-0.3-6.4l-3.2-2c-0.4-1.1-0.9-2.2-1.5-3.1l0.5-3.1
		l-4.8-4.6l-3,0.7c-1-0.5-2.1-1-3.2-1.3l-2.1-3.1h-6.4l-1.8,3.1c-1.1,0.3-2.1,0.8-3.1,1.3l-3.1-0.7l-4.3,4.6l0.8,3.1
		c-0.5,1-0.9,2-1.2,3.1l-3,2l0.3,6.4L236.5,207.8z M245.2,202.6c-0.2-4.3,3.1-7.7,7.4-7.7c4.3,0,7.9,3.5,8.1,7.7
		c0.2,4.3-3.1,7.7-7.4,7.7C249,210.4,245.4,206.9,245.2,202.6z"/>
	<path class="st376" d="M188.3,203.3h21.6c1.9,0,3.3-1.5,3.2-3.4l-1-21.6c-0.1-1.9-1.7-3.4-3.5-3.4h-21.6c-1.9,0-3.3,1.5-3.2,3.4
		l1,21.6C184.8,201.8,186.4,203.3,188.3,203.3z"/>
	<path class="st152" d="M188.3,203.3h21.6c1.9,0,3.3-1.5,3.2-3.4l-1-21.6c-0.1-1.9-1.7-3.4-3.5-3.4h-21.6c-1.9,0-3.3,1.5-3.2,3.4
		l1,21.6C184.8,201.8,186.4,203.3,188.3,203.3z"/>
	<path class="st376" d="M124.6,227h31.1c2.7,0,4.7-2.2,4.6-4.8l-1.5-31.1c-0.1-2.7-2.4-4.8-5.1-4.8h-31.1c-2.7,0-4.7,2.2-4.6,4.8
		l1.5,31.1C119.7,224.8,122,227,124.6,227z"/>
	<path class="st383" d="M124.6,227h31.1c2.7,0,4.7-2.2,4.6-4.8l-1.5-31.1c-0.1-2.7-2.4-4.8-5.1-4.8h-31.1c-2.7,0-4.7,2.2-4.6,4.8
		l1.5,31.1C119.7,224.8,122,227,124.6,227z"/>
	<polygon class="st4" points="129,206.6 144.8,197.3 145.6,216 	"/>
	<path class="st376" d="M179.5,237.4h21.6c1.9,0,3.3-1.5,3.2-3.4l-1-21.6c-0.1-1.9-1.7-3.4-3.5-3.4h-21.6c-1.9,0-3.3,1.5-3.2,3.4
		l1,21.6C176.1,235.9,177.7,237.4,179.5,237.4z"/>
	<path class="st383" d="M179.5,237.4h21.6c1.9,0,3.3-1.5,3.2-3.4l-1-21.6c-0.1-1.9-1.7-3.4-3.5-3.4h-21.6c-1.9,0-3.3,1.5-3.2,3.4
		l1,21.6C176.1,235.9,177.7,237.4,179.5,237.4z"/>
	<polygon class="st4" points="192.3,231.5 200,223.4 198.2,221.7 192.2,228 180.8,217.1 179.1,218.9 	"/>
	<g>
		<g>
			<g>
				<path class="st384" d="M269.8,118.8l8.1-6.8c1.8-1.5,2-4.1,0.5-5.9l0,0c-1.5-1.8-4.1-2-5.9-0.5l-8.1,6.8c-1.8,1.5-2,4.1-0.5,5.9
					l0,0C265.4,120.1,268,120.3,269.8,118.8z"/>
				<path class="st384" d="M279.6,122.3L279.6,122.3c1.6-1.4,1.8-3.8,0.5-5.4l-3.8-4.5c-1.4-1.6-3.8-1.8-5.4-0.5l0,0
					c-1.6,1.4-1.8,3.8-0.5,5.4l3.8,4.5C275.5,123.4,277.9,123.6,279.6,122.3z"/>
				<path class="st384" d="M337.6,199.4l7.5-6.3c0.9-0.8,1-2.1,0.2-3l-64.5-74.3c-0.7-0.9-2-1-2.9-0.2l-4.8,4.1
					c-0.9,0.7-1,2-0.3,2.9l61.8,76.6C335.4,200,336.8,200.1,337.6,199.4z"/>
			</g>
			<g>
				<g>
					<path class="st376" d="M273.3,102.3c1.9-2.3,3.6-4.7,5-7.2l1.7-40.4c0-0.3,0-0.5,0-0.8c0-9.5-7.2-17.9-16.6-19.4
						c-0.4-0.1-0.8-0.1-1.3-0.2l-41.8-3.7c-2.6,1.1-5.1,2.4-7.5,4c-1.4,0.9-2.7,1.9-4,3c-7.2,6-12,13.7-14.5,22
						c-4.2,14.2-1.5,30.2,8.8,42.5c0.6,0.8,1.3,1.5,2,2.2c16.5,17.4,43.9,19.2,62.6,3.6C269.7,106.3,271.6,104.4,273.3,102.3z"/>
					<path class="st4" d="M267.6,108c2.1-1.7,4-3.6,5.7-5.7l2-48c0.3-7.7-5.7-14.6-13.4-15.3l-49-4.4c-1.4,0.9-2.7,1.9-4,3
						c-7.2,6-12,13.7-14.5,22c-4.2,14.2-1.5,30.2,8.8,42.5c0.6,0.8,1.3,1.5,2,2.2C221.5,121.8,248.9,123.6,267.6,108z"/>
				</g>
				<path class="st385" d="M203.1,102.3c0.6,0.8,1.3,1.5,2,2.2l51.5,4.6c2,0.2,3.6-1.3,3.7-3.2l1.5-36.5c0.1-2-1.4-3.7-3.4-3.9
					l-64-5.7C190.1,74,192.8,90,203.1,102.3z"/>
			</g>
			<path class="st386" d="M267.6,108c19.4-16.2,22-45.1,5.7-64.5c-16.2-19.4-45.1-22-64.5-5.7c-19.4,16.2-22,45.1-5.7,64.5
				C219.3,121.7,248.2,124.2,267.6,108z"/>
			<g>
				<path class="st384" d="M219.9,77.7c6,7.2,13.6,7.3,19,2.8c5.4-4.5,6.6-12,0.6-19.2c-6-7.2-15.3-9.4-20.7-4.8
					C213.4,61,213.9,70.5,219.9,77.7z"/>
				<path class="st384" d="M223.2,61.7c2.9-2.4,3.7-6.1,1.9-8.2c-1.8-2.1-5.6-2-8.4,0.4c-2.9,2.4-3.7,6.1-1.9,8.2
					C216.6,64.3,220.4,64.1,223.2,61.7z"/>
				<path class="st384" d="M225,65c0.3,0,0.6-0.1,0.9-0.4l9.4-10.9c0.2-0.2,0.3-0.4,0.2-0.7l-0.2-7.2c0-0.6-0.5-1-1.1-1
					c-0.6,0-1,0.5-1,1.1l0.2,6.8l-9.1,10.6c-0.4,0.4-0.3,1.1,0.1,1.4C224.6,64.9,224.8,65,225,65z"/>
				<path class="st384" d="M212.7,72.3c0.2,0,0.4,0,0.6-0.1l12.4-7.3c0.5-0.3,0.6-0.9,0.4-1.4c-0.3-0.5-0.9-0.6-1.4-0.4l-12,7.1
					l-6.7-1.4c-0.6-0.1-1.1,0.2-1.2,0.8c-0.1,0.6,0.2,1.1,0.8,1.2l7.1,1.5C212.6,72.3,212.6,72.3,212.7,72.3z"/>
				<path class="st384" d="M231.1,72.2c0.2,0,0.4,0,0.6-0.1l12-7.1l6.7,1.4c0.6,0.1,1.1-0.2,1.2-0.8c0.1-0.6-0.2-1.1-0.8-1.2
					l-7.1-1.5c-0.2-0.1-0.5,0-0.7,0.1l-12.4,7.3c-0.5,0.3-0.6,0.9-0.4,1.4C230.5,72,230.8,72.2,231.1,72.2z"/>
				<path class="st384" d="M221.9,90.4c0,0,0.1,0,0.1,0c0.6,0,1-0.5,1-1.1l-0.2-6.8l9.1-10.6c0.4-0.4,0.3-1.1-0.1-1.4
					c-0.4-0.4-1.1-0.3-1.4,0.1L221,81.4c-0.2,0.2-0.3,0.4-0.2,0.7l0.2,7.2C221,89.9,221.4,90.3,221.9,90.4z"/>
				<path class="st384" d="M211.1,82.8c0.3,0,0.5-0.1,0.7-0.2l33.8-28.3c0.4-0.4,0.5-1,0.1-1.4c-0.4-0.4-1-0.5-1.4-0.1L210.6,81
					c-0.4,0.4-0.5,1-0.1,1.4C210.6,82.6,210.9,82.8,211.1,82.8z"/>
				<path class="st384" d="M217.7,56.3c0.1,0,0.3,0,0.4,0c0.5-0.2,0.8-0.8,0.7-1.3c-0.1-0.2-1.6-5.2,3.3-8.3
					c0.5-0.3,0.6-0.9,0.3-1.4c-0.3-0.5-0.9-0.6-1.4-0.3c-5,3.2-4.9,8.4-4.1,10.7C217,56,217.3,56.2,217.7,56.3z"/>
				<path class="st384" d="M207.7,58.2c0.3,0,0.6-0.1,0.8-0.3c3.9-4.3,8.5-1.9,8.7-1.8c0.5,0.3,1.1,0.1,1.4-0.4
					c0.3-0.5,0.1-1.1-0.4-1.4c-2.1-1.2-7.2-2.2-11.2,2.2c-0.4,0.4-0.3,1.1,0.1,1.4C207.3,58.1,207.5,58.2,207.7,58.2z"/>
			</g>
			<path class="st376" d="M198.8,105.8c18.2,21.8,50.6,24.6,72.4,6.4c21.8-18.2,24.6-50.6,6.4-72.4c-18.2-21.8-50.6-24.6-72.4-6.4
				C183.5,51.7,180.6,84.1,198.8,105.8z M205,100.7c-15.4-18.3-12.9-45.7,5.4-61s45.7-12.9,61,5.4c15.3,18.3,12.9,45.7-5.4,61
				S220.3,119,205,100.7z"/>
		</g>
		<g>
			<g>
				
					<linearGradient id="SVGID_10_" gradientUnits="userSpaceOnUse" x1="1538.3455" y1="-87.6518" x2="1551.7371" y2="-54.0592" gradientTransform="matrix(0.979 0.2041 -0.2041 0.979 -1157.8881 -164.3942)">
					<stop  offset="0" style="stop-color:#2B3582"/>
					<stop  offset="1" style="stop-color:#150E42"/>
				</linearGradient>
				<path class="st16" d="M370.1,83c0,0,4,3.1,4.3,5.7c0.2,2.1,5.1,3.4,4.7,7.4c-0.2,2.1,1,4,2.9,4.7c4.8,1.8,12,6,11.4,14.9
					c-0.4,6.8-4.3,8.6-8.1,8.7c-2.7,0.1-5,2.3-5,5c0,2.6-1.4,5.4-6.2,6.8c-10.8,3.1-17-16.3-17-16.3l4.3-30.7L370.1,83z"/>
				<path class="st50" d="M370.6,281.6l-0.5,5.3c-0.1,1,1.7,4,2.7,4.3c1.6,0.5,2.3,1.1,4.9,1.3c1.2,0.1,2.9-2.7,2.8-3.9
					c-0.2-2.1-0.8-5.4-2.1-7.5l-5.8-1.2C371.7,279.7,370.7,280.5,370.6,281.6z"/>
				
					<linearGradient id="SVGID_11_" gradientUnits="userSpaceOnUse" x1="1539.3163" y1="172.1917" x2="1555.6578" y2="-18.7998" gradientTransform="matrix(0.979 0.2041 -0.2041 0.979 -1157.8881 -164.3942)">
					<stop  offset="0" style="stop-color:#F9B776"/>
					<stop  offset="1" style="stop-color:#F47960"/>
				</linearGradient>
				<path class="st17" d="M338.1,211.3l-2.2,5.5c0,0-3.6,33.7-5.8,47c-0.3,2.1-1.3,4-2.8,5.6l-7.6,8l16.2-5.5l0.7-1.7l-1.7-3.7
					l10.8-36.3c0.6-2.1,0.6-4.4,0-6.5l-1.8-6.2L338.1,211.3z"/>
				<path class="st50" d="M318.6,278.5l4.6,1c0.9,0.2,1.8,0,2.4-0.6c1.8-1.6,5.5-4.6,7-4.4c1.9,0.3,0.3,7,0.3,7l1.1,0.2l3.1-8.2
					c0.8-2.1,0.2-4.4-1.5-5.8l0,0c0,0-1.1,3.1-3.8,4.1c-2.7,0.9-11,4.5-11,4.5s-0.9-0.3-1.9-0.3C317.3,276,317.1,278.2,318.6,278.5z
					"/>
				
					<linearGradient id="SVGID_12_" gradientUnits="userSpaceOnUse" x1="1572.1882" y1="175.0335" x2="1588.5341" y2="-16.008" gradientTransform="matrix(0.979 0.2041 -0.2041 0.979 -1157.8881 -164.3942)">
					<stop  offset="0" style="stop-color:#F9B776"/>
					<stop  offset="1" style="stop-color:#F47960"/>
				</linearGradient>
				<path class="st18" d="M357.3,218.1c0,0,11.5,40.2,12.9,49.1c1.3,8.9,0.9,16,0.8,16.7c-0.1,1,0.9,2.3,4.4,3
					c1.8,0.4,2.8-0.2,3.4-0.8c0.5-0.5,0.7-1.3,0.5-2c-0.6-2.5-2.7-10.3-3.3-13.8c-0.7-4.2-0.4-22.4-1-28.9
					c-0.6-6.5-1.2-13.5-7.9-21.3C367.1,220.2,362.7,213.7,357.3,218.1z"/>
				<path class="st74" d="M357.6,156.3c-0.6-21.9,14.4-31.1,14.4-31.1c-6.3-9.2-19.9-15.6-19.9-15.6s-15.8,7.2-15.8,15.3
					c0,4.8,3.9,29.5,3.9,29.5S347.3,159.8,357.6,156.3z"/>
				<path class="st50" d="M366.3,168.9c-0.7-6.5-8.8-12.6-8.8-12.6c-10.2,3.6-17.5-1.9-17.5-1.9s-3.2,6.5-3.3,13.1
					c-0.1,6.6-0.9,49.3-0.9,49.3c11.7,5,31.7,4,31.7,4C362.7,205.3,367.1,175.3,366.3,168.9z"/>
				
					<linearGradient id="SVGID_13_" gradientUnits="userSpaceOnUse" x1="1537.5242" y1="-16.0686" x2="1540.5939" y2="-38.5257" gradientTransform="matrix(0.979 0.2041 -0.2041 0.979 -1157.8881 -164.3942)">
					<stop  offset="0" style="stop-color:#F9B776"/>
					<stop  offset="1" style="stop-color:#F47960"/>
				</linearGradient>
				<path class="st19" d="M363.8,97.6l0.3,18.8c0.1,1.7-1.3,1.1-2.9,0.5c-2.5-1-5.7-2.8-6.4-5c-0.1-0.2-0.1-0.5-0.1-0.7l0.9-12.8
					c0.1-1,0.8-1.9,1.8-2.1l3.6-0.8C362.5,95.1,363.8,96.2,363.8,97.6z"/>
				
					<linearGradient id="SVGID_14_" gradientUnits="userSpaceOnUse" x1="1529.7761" y1="-45.0227" x2="1556.5594" y2="-92.688" gradientTransform="matrix(0.979 0.2041 -0.2041 0.979 -1157.8881 -164.3942)">
					<stop  offset="0" style="stop-color:#F9B776"/>
					<stop  offset="1" style="stop-color:#F47960"/>
				</linearGradient>
				<path class="st20" d="M362.7,79.5c0,0-5.2,1-9.8,7.2s-2.9,9.8,0,10.9c2.9,1.1,7.5,1.9,13.2-1.5
					C371.8,92.7,369.4,78.4,362.7,79.5z"/>
				
					<linearGradient id="SVGID_15_" gradientUnits="userSpaceOnUse" x1="1535.5359" y1="-86.5317" x2="1548.9275" y2="-52.9391" gradientTransform="matrix(0.979 0.2041 -0.2041 0.979 -1157.8881 -164.3942)">
					<stop  offset="0" style="stop-color:#2B3582"/>
					<stop  offset="1" style="stop-color:#150E42"/>
				</linearGradient>
				<path class="st21" d="M363.7,91.8c0,0,5.7-9.3-3.2-11.3l-2.4,1c0,0-2.1-6.2,3.8-7.8c5.9-1.5,11.7,2,12.5,9.6
					c0.8,7.7,0.2,12.6-4.4,15.3c-4.5,2.7-5.3-1.6-5.3-1.6s2.7-2.8,2.3-4.7c-0.5-1.9-2.9-0.2-2.9-0.2L363.7,91.8z"/>
				
					<linearGradient id="SVGID_16_" gradientUnits="userSpaceOnUse" x1="1535.4773" y1="-41.8192" x2="1562.2606" y2="-89.4845" gradientTransform="matrix(0.979 0.2041 -0.2041 0.979 -1157.8881 -164.3942)">
					<stop  offset="0" style="stop-color:#F9B776"/>
					<stop  offset="1" style="stop-color:#F47960"/>
				</linearGradient>
				<path class="st22" d="M364.4,93.1c0,0,2.9-4.8,4.9-2.2c2,2.6-3,4.4-4.9,4.9L364.4,93.1z"/>
			</g>
			<path class="st231" d="M378.3,159.6c1.3,9.2-4.4,20.6-4.4,20.6l3.8,1.9c0,0,8.5-7.6,10.2-21.7
				C384.3,159.1,380.6,159.3,378.3,159.6z"/>
			<path class="st231" d="M387.9,160.5c0.2-1.6,0.3-3.3,0.4-5.1c0.4-15.8-14.2-29.6-18.3-33.1c-0.4-0.3-1-0.1-1,0.4l-4.8,11
				c10.5,3.7,13.1,18.9,14.1,26C380.6,159.3,384.3,159.1,387.9,160.5z"/>
			<g>
				<path class="st231" d="M311,149l-0.6,3c7.2,8.3,15.1,10.5,19.1,8.9c-1-5.8-2.5-9.4-3.9-11.6C318.5,156,311,149,311,149z"/>
				<path class="st231" d="M343.7,148.2l-6.7-17.7c-2.5,8.7-6.8,14.7-11.3,18.8c1.3,2.2,2.8,5.8,3.9,11.6
					C339.7,156.8,343.7,148.2,343.7,148.2z"/>
			</g>
			<path class="st4" d="M377.5,187.5c0.1,0,0.2,0,0.3-0.1c0.1-0.1,0-0.3-0.1-0.4l-1.5-1c-0.1-0.1-0.3,0-0.4,0.1
				c-0.1,0.1,0,0.3,0.1,0.4l1.5,1C377.4,187.5,377.4,187.5,377.5,187.5z"/>
			
				<linearGradient id="SVGID_17_" gradientUnits="userSpaceOnUse" x1="6253.0259" y1="78.4775" x2="6275.0366" y2="136.8071" gradientTransform="matrix(0.9418 0.3362 -0.3362 0.9418 -5553.9473 -2037.879)">
				<stop  offset="0" style="stop-color:#F9B776"/>
				<stop  offset="1" style="stop-color:#F47960"/>
			</linearGradient>
			<path class="st23" d="M305.6,150.2c-0.7-0.5-1.1-1.2-1.1-2c-0.1-1.6,0-3.9,1.6-4.1c2.5-0.2,4.9,5.2,4.9,5.2l0.8,3.8l1.4,1.5
				C311.5,154.4,308.7,152.5,305.6,150.2z"/>
			
				<linearGradient id="SVGID_18_" gradientUnits="userSpaceOnUse" x1="6223.7847" y1="18.4482" x2="6248.0591" y2="53.511" gradientTransform="matrix(0.979 0.2041 -0.2041 0.979 -5721.6821 -1115.7325)">
				<stop  offset="0" style="stop-color:#F9B776"/>
				<stop  offset="1" style="stop-color:#F47960"/>
			</linearGradient>
			<path class="st24" d="M374.5,178.9l-5.6-0.3c0,0,4.1,2.5,3.8,5.1c-0.4,2.6-3.2,7.5-4.4,8.8c-1.2,1.4,11.8,0,10-12.8L374.5,178.9z
				"/>
		</g>
	</g>
</g>
</svg>
